<svg xmlns="http://www.w3.org/2000/svg" width="277" height="19" viewBox="0 0 277 19" fill="none"><path d="M4.15725 15.2219V3.70192H5.46925V15.2219H4.15725ZM4.82925 15.2219V14.0699H11.8693V15.2219H4.82925ZM4.82925 9.79792V8.64592H11.2933V9.79792H4.82925ZM4.82925 4.85392V3.70192H11.7413V4.85392H4.82925ZM19.3473 15.2219L16.6432 11.4299L13.4113 7.06192H14.8993L17.3953 10.5659L20.8353 15.2219H19.3473ZM16.7233 10.6299L19.2833 7.06192H20.7233L17.3953 11.4939L16.7233 10.6299ZM17.2673 11.5099L14.4993 15.2219H13.0433L16.6432 10.5979L17.2673 11.5099ZM25.3401 15.3819C24.5935 15.3819 23.9268 15.2006 23.3401 14.8379C22.7641 14.4646 22.3055 13.9579 21.9641 13.3179C21.6335 12.6673 21.4681 11.9313 21.4681 11.1099C21.4681 10.2886 21.6335 9.56326 21.9641 8.93392C22.3055 8.30459 22.7641 7.80859 23.3401 7.44592C23.9268 7.08326 24.5881 6.90192 25.3241 6.90192C25.9321 6.90192 26.4761 7.01926 26.9561 7.25392C27.4468 7.48859 27.8468 7.82459 28.1561 8.26192C28.4761 8.68859 28.6788 9.18992 28.7641 9.76592H27.5801C27.4735 9.24326 27.2281 8.81659 26.8441 8.48592C26.4601 8.15526 25.9641 7.98992 25.3561 7.98992C24.8335 7.98992 24.3801 8.11792 23.9961 8.37392C23.6121 8.62992 23.3135 8.99259 23.1001 9.46192C22.8868 9.93126 22.7801 10.4806 22.7801 11.1099C22.7801 11.7393 22.8868 12.2939 23.1001 12.7739C23.3135 13.2539 23.6121 13.6273 23.9961 13.8939C24.3908 14.1606 24.8495 14.2939 25.3721 14.2939C25.9588 14.2939 26.4495 14.1339 26.8441 13.8139C27.2388 13.4833 27.4895 13.0566 27.5961 12.5339H28.7801C28.6841 13.0993 28.4708 13.6006 28.1401 14.0379C27.8201 14.4646 27.4201 14.7953 26.9401 15.0299C26.4601 15.2646 25.9268 15.3819 25.3401 15.3819ZM33.9521 15.3819C33.1735 15.3819 32.4855 15.2006 31.8881 14.8379C31.2908 14.4646 30.8215 13.9579 30.4801 13.3179C30.1388 12.6779 29.9681 11.9419 29.9681 11.1099C29.9681 10.2779 30.1335 9.54726 30.4641 8.91792C30.8055 8.27792 31.2801 7.78192 31.8881 7.42992C32.4961 7.07792 33.1948 6.90192 33.9841 6.90192C34.7415 6.90192 35.3975 7.06726 35.9521 7.39792C36.5175 7.72859 36.9495 8.19259 37.2481 8.78992C37.5575 9.38726 37.7121 10.0913 37.7121 10.9019C37.7121 11.0086 37.7068 11.1099 37.6961 11.2059C37.6961 11.3019 37.6855 11.4086 37.6641 11.5259H30.9281V10.4539H36.8801L36.4641 11.0459C36.4641 10.0646 36.2455 9.31259 35.8081 8.78992C35.3815 8.25659 34.7735 7.98992 33.9841 7.98992C33.1735 7.98992 32.5175 8.27259 32.0161 8.83792C31.5255 9.39259 31.2801 10.1446 31.2801 11.0939C31.2801 12.0646 31.5255 12.8433 32.0161 13.4299C32.5175 14.0059 33.1841 14.2939 34.0161 14.2939C34.5388 14.2939 34.9975 14.1819 35.3921 13.9579C35.7868 13.7233 36.0748 13.3926 36.2561 12.9659H37.4721C37.2055 13.7126 36.7575 14.3046 36.1281 14.7419C35.5095 15.1686 34.7841 15.3819 33.9521 15.3819ZM39.6394 15.2219V3.70192H40.9194V15.2219H39.6394ZM43.4831 15.2219V3.70192H44.7631V15.2219H43.4831ZM50.6709 15.3819C49.8922 15.3819 49.2042 15.2006 48.6069 14.8379C48.0095 14.4646 47.5402 13.9579 47.1989 13.3179C46.8575 12.6779 46.6869 11.9419 46.6869 11.1099C46.6869 10.2779 46.8522 9.54726 47.1829 8.91792C47.5242 8.27792 47.9989 7.78192 48.6069 7.42992C49.2149 7.07792 49.9135 6.90192 50.7029 6.90192C51.4602 6.90192 52.1162 7.06726 52.6709 7.39792C53.2362 7.72859 53.6682 8.19259 53.9669 8.78992C54.2762 9.38726 54.4309 10.0913 54.4309 10.9019C54.4309 11.0086 54.4255 11.1099 54.4149 11.2059C54.4149 11.3019 54.4042 11.4086 54.3829 11.5259H47.6469V10.4539H53.5989L53.1829 11.0459C53.1829 10.0646 52.9642 9.31259 52.5269 8.78992C52.1002 8.25659 51.4922 7.98992 50.7029 7.98992C49.8922 7.98992 49.2362 8.27259 48.7349 8.83792C48.2442 9.39259 47.9989 10.1446 47.9989 11.0939C47.9989 12.0646 48.2442 12.8433 48.7349 13.4299C49.2362 14.0059 49.9029 14.2939 50.7349 14.2939C51.2575 14.2939 51.7162 14.1819 52.1109 13.9579C52.5055 13.7233 52.7935 13.3926 52.9749 12.9659H54.1909C53.9242 13.7126 53.4762 14.3046 52.8469 14.7419C52.2282 15.1686 51.5029 15.3819 50.6709 15.3819ZM56.3581 15.2219V7.06192H57.5581V8.98192H57.6381V15.2219H56.3581ZM62.1981 15.2219V9.87792C62.1981 9.25926 62.0435 8.79526 61.7341 8.48592C61.4248 8.17659 60.9661 8.02192 60.3581 8.02192C59.8248 8.02192 59.3501 8.13926 58.9341 8.37392C58.5288 8.60859 58.2088 8.93392 57.9741 9.34992C57.7501 9.76592 57.6381 10.2513 57.6381 10.8059L57.4301 8.86992C57.7075 8.26192 58.1288 7.78192 58.6941 7.42992C59.2701 7.07792 59.9208 6.90192 60.6461 6.90192C61.4995 6.90192 62.1821 7.14726 62.6941 7.63792C63.2168 8.11792 63.4781 8.75259 63.4781 9.54192V15.2219H62.1981ZM68.9815 15.3659C68.0748 15.3659 67.4135 15.1633 66.9975 14.7579C66.5922 14.3419 66.3895 13.7446 66.3895 12.9659V5.15792L67.6695 4.67792V12.9499C67.6695 13.4086 67.7868 13.7446 68.0215 13.9579C68.2562 14.1713 68.6402 14.2779 69.1735 14.2779C69.3868 14.2779 69.5682 14.2673 69.7175 14.2459C69.8775 14.2139 70.0055 14.1766 70.1015 14.1339V15.2219C69.9948 15.2646 69.8402 15.2966 69.6375 15.3179C69.4455 15.3499 69.2268 15.3659 68.9815 15.3659ZM64.7095 8.14992V7.06192H70.1015V8.14992H64.7095Z" fill="#191919"></path><path d="M81.25 18.4439H99.712V0H81.25V18.4439Z" fill="#00B67A"></path><path d="M96.9883 7.84709L86.5169 15.4465L88.0449 10.7498L84.045 7.84709H88.989L90.5167 3.15009L92.0443 7.84709H96.9883ZM90.5171 12.5441L93.3768 11.9431L94.5162 15.4465L90.5171 12.5441Z" fill="white"></path><path d="M105.712 18.4439H124.174V0H105.712V18.4439Z" fill="#00B67A"></path><path d="M105.712 18.4439H114.943V0H105.712V18.4439Z" fill="#00B67A"></path><path d="M115.164 12.4723L117.616 11.9429L118.75 15.5258L114.905 12.6584L110.909 15.5258L112.46 10.812L108.4 7.89882H113.418L114.968 3.18475L116.519 7.89882H121.537L115.164 12.4723Z" fill="white"></path><path d="M130.174 18.4439H148.636V0H130.174V18.4439Z" fill="#00B67A"></path><path d="M130.174 18.4439H139.405V0H130.174V18.4439Z" fill="#00B67A"></path><path d="M145.913 7.84709L135.441 15.4465L136.969 10.7498L132.969 7.84709H137.913L139.441 3.15009L140.969 7.84709L145.913 7.84709ZM139.441 12.5441L142.301 11.9431L143.441 15.4465L139.441 12.5441Z" fill="white"></path><path d="M154.636 18.4439H173.098V0H154.636V18.4439Z" fill="#00B67A"></path><path d="M154.636 18.4439H163.867V0H154.636V18.4439Z" fill="#00B67A"></path><path d="M170.374 7.84709L159.903 15.4465L161.431 10.7498L157.431 7.84709H162.375L163.902 3.15009L165.43 7.84709L170.374 7.84709ZM163.903 12.5441L166.763 11.9431L167.902 15.4465L163.903 12.5441Z" fill="white"></path><path d="M179.098 18.4439H197.56V0H179.098V18.4439Z" fill="#00B67A"></path><path d="M179.098 18.4439H188.329V0H179.098V18.4439Z" fill="#00B67A"></path><path d="M194.836 7.84709L184.365 15.4465L185.893 10.7498L181.893 7.84709H186.837L188.364 3.15009L189.892 7.84709H194.836ZM188.365 12.5441L191.224 11.9431L192.364 15.4465L188.365 12.5441Z" fill="white"></path><path d="M220.773 7.304H214.2L212.17 1.08337L210.133 7.304L203.56 7.29769L208.883 11.1462L206.847 17.3605L212.17 13.5183L217.487 17.3605L215.456 11.1462L220.773 7.304Z" fill="#00B67A"></path><path d="M223.779 6.0296H231.057V7.37972H228.195V14.9694H226.622V7.37972H223.773V6.0296H223.779ZM230.746 8.4964H232.091V9.74558H232.116C232.161 9.56893 232.243 9.39858 232.364 9.23455C232.484 9.07052 232.63 8.91279 232.801 8.78031C232.973 8.64151 233.163 8.53426 233.372 8.44593C233.582 8.36392 233.798 8.31975 234.013 8.31975C234.178 8.31975 234.299 8.32606 234.362 8.33237C234.426 8.33868 234.489 8.3513 234.559 8.35761V9.73296C234.457 9.71403 234.356 9.70141 234.248 9.6888C234.14 9.67618 234.039 9.66987 233.937 9.66987C233.696 9.66987 233.468 9.72034 233.252 9.81497C233.036 9.90961 232.852 10.0547 232.694 10.2377C232.535 10.4269 232.408 10.6541 232.313 10.9317C232.218 11.2093 232.173 11.5247 232.173 11.8843V14.9631H230.739V8.4964L230.746 8.4964ZM241.151 14.9694H239.742V14.0672H239.717C239.539 14.3953 239.279 14.6539 238.93 14.8495C238.581 15.0451 238.226 15.146 237.864 15.146C237.008 15.146 236.386 14.9378 236.006 14.5151C235.625 14.0924 235.434 13.4552 235.434 12.6035V8.4964H236.868V12.4647C236.868 13.0325 236.976 13.4363 237.198 13.6697C237.414 13.9032 237.725 14.023 238.118 14.023C238.423 14.023 238.67 13.9789 238.873 13.8842C239.076 13.7896 239.241 13.6697 239.362 13.512C239.489 13.3606 239.578 13.1713 239.635 12.9568C239.692 12.7423 239.717 12.5089 239.717 12.2565V8.50271H241.151V14.9694ZM243.594 12.8937C243.638 13.3101 243.797 13.6003 244.07 13.7707C244.349 13.9347 244.679 14.023 245.066 14.023C245.199 14.023 245.351 14.0104 245.522 13.9915C245.694 13.9726 245.859 13.9284 246.005 13.8716C246.157 13.8149 246.277 13.7265 246.379 13.613C246.474 13.4994 246.519 13.3543 246.512 13.1713C246.506 12.9884 246.436 12.837 246.309 12.7234C246.182 12.6035 246.024 12.5152 245.827 12.4395C245.63 12.3701 245.408 12.307 245.154 12.2565C244.901 12.2061 244.647 12.1493 244.387 12.0925C244.12 12.0357 243.86 11.96 243.613 11.878C243.365 11.796 243.143 11.6824 242.947 11.5373C242.75 11.3985 242.591 11.2156 242.477 10.9947C242.356 10.7739 242.299 10.5027 242.299 10.1746C242.299 9.82128 242.388 9.53107 242.559 9.29133C242.731 9.05159 242.953 8.86232 243.213 8.71722C243.479 8.57211 243.771 8.47117 244.095 8.40808C244.418 8.3513 244.729 8.31975 245.021 8.31975C245.357 8.31975 245.681 8.35761 245.986 8.427C246.29 8.4964 246.569 8.60996 246.817 8.774C247.064 8.93172 247.267 9.13992 247.432 9.39227C247.597 9.64463 247.699 9.95377 247.743 10.3134H246.246C246.176 9.9727 246.024 9.73927 245.776 9.62571C245.529 9.50584 245.243 9.44905 244.926 9.44905C244.825 9.44905 244.704 9.45536 244.564 9.47429C244.425 9.49322 244.298 9.52476 244.171 9.56893C244.05 9.61309 243.949 9.68249 243.86 9.77081C243.778 9.85914 243.733 9.9727 243.733 10.1178C243.733 10.2945 243.797 10.4333 243.917 10.5405C244.038 10.6478 244.196 10.7361 244.393 10.8118C244.59 10.8812 244.812 10.9443 245.066 10.9947C245.319 11.0452 245.58 11.102 245.846 11.1588C246.106 11.2156 246.36 11.2913 246.614 11.3733C246.867 11.4553 247.09 11.5689 247.286 11.714C247.483 11.8591 247.642 12.0357 247.762 12.2502C247.883 12.4647 247.946 12.736 247.946 13.0515C247.946 13.4363 247.857 13.7581 247.68 14.0294C247.502 14.2943 247.274 14.5151 246.994 14.6792C246.715 14.8432 246.398 14.9694 246.055 15.0451C245.713 15.1208 245.37 15.1587 245.034 15.1587C244.621 15.1587 244.241 15.1145 243.892 15.0199C243.543 14.9252 243.238 14.7864 242.985 14.6035C242.731 14.4142 242.528 14.1808 242.382 13.9032C242.236 13.6256 242.16 13.2912 242.147 12.9064H243.594V12.8937ZM248.327 8.4964H249.412V6.55325H250.846V8.4964H252.14V9.56262H250.846V13.0199C250.846 13.1713 250.852 13.2975 250.865 13.4111C250.877 13.5183 250.909 13.613 250.953 13.6887C250.998 13.7644 251.068 13.8212 251.163 13.859C251.258 13.8969 251.379 13.9158 251.543 13.9158C251.645 13.9158 251.747 13.9158 251.848 13.9095C251.95 13.9032 252.051 13.8906 252.153 13.8653V14.9694C251.994 14.9883 251.835 15.0009 251.689 15.0199C251.537 15.0388 251.385 15.0451 251.226 15.0451C250.846 15.0451 250.541 15.0072 250.313 14.9378C250.084 14.8684 249.9 14.7612 249.773 14.6224C249.64 14.4836 249.558 14.3133 249.507 14.1051C249.462 13.8969 249.431 13.6571 249.424 13.3922V9.57523H248.339V8.4964H248.327ZM253.155 8.4964H254.513V9.37335H254.538C254.741 8.99481 255.02 8.72983 255.382 8.5658C255.744 8.40177 256.131 8.31975 256.556 8.31975C257.07 8.31975 257.514 8.40808 257.894 8.59104C258.275 8.76769 258.592 9.01374 258.846 9.32918C259.1 9.64463 259.284 10.0106 259.411 10.4269C259.538 10.8433 259.601 11.2913 259.601 11.7644C259.601 12.1998 259.544 12.6225 259.43 13.0262C259.316 13.4363 259.144 13.7959 258.916 14.1114C258.688 14.4268 258.396 14.6729 258.04 14.8621C257.685 15.0514 257.273 15.146 256.79 15.146C256.581 15.146 256.372 15.1271 256.162 15.0893C255.953 15.0514 255.75 14.9883 255.56 14.9063C255.369 14.8243 255.185 14.717 255.027 14.5845C254.862 14.4521 254.728 14.3006 254.614 14.1303H254.589V17.3605H253.155V8.4964ZM258.167 11.7392C258.167 11.449 258.129 11.1651 258.053 10.8875C257.977 10.6099 257.863 10.3702 257.71 10.1557C257.558 9.94115 257.368 9.77081 257.146 9.64463C256.917 9.51845 256.657 9.44905 256.365 9.44905C255.763 9.44905 255.306 9.65725 255.001 10.0736C254.697 10.49 254.544 11.0452 254.544 11.7392C254.544 12.0673 254.583 12.3701 254.665 12.6477C254.748 12.9253 254.862 13.165 255.027 13.3669C255.185 13.5688 255.376 13.7265 255.598 13.8401C255.82 13.96 256.08 14.0167 256.372 14.0167C256.702 14.0167 256.974 13.9473 257.203 13.8149C257.431 13.6824 257.615 13.5057 257.761 13.2975C257.907 13.083 258.015 12.8433 258.078 12.572C258.136 12.3007 258.167 12.0231 258.167 11.7392ZM260.699 6.0296H262.133V7.37972H260.699V6.0296ZM260.699 8.4964H262.133V14.9694H260.699V8.4964ZM263.414 6.0296H264.848V14.9694H263.414V6.0296ZM269.245 15.146C268.725 15.146 268.262 15.0577 267.855 14.8874C267.449 14.717 267.107 14.4773 266.821 14.1808C266.542 13.8779 266.326 13.5183 266.181 13.1019C266.035 12.6855 265.958 12.225 265.958 11.7266C265.958 11.2345 266.035 10.7802 266.181 10.3639C266.326 9.94746 266.542 9.58785 266.821 9.28502C267.1 8.98219 267.449 8.74876 267.855 8.57842C268.262 8.40808 268.725 8.31975 269.245 8.31975C269.765 8.31975 270.228 8.40808 270.634 8.57842C271.041 8.74876 271.383 8.9885 271.669 9.28502C271.948 9.58785 272.163 9.94746 272.309 10.3639C272.455 10.7802 272.531 11.2345 272.531 11.7266C272.531 12.225 272.455 12.6855 272.309 13.1019C272.163 13.5183 271.948 13.8779 271.669 14.1808C271.389 14.4836 271.041 14.717 270.634 14.8874C270.228 15.0577 269.765 15.146 269.245 15.146ZM269.245 14.0167C269.562 14.0167 269.841 13.9473 270.076 13.8149C270.311 13.6824 270.501 13.5057 270.653 13.2912C270.806 13.0767 270.914 12.8307 270.99 12.5594C271.06 12.2881 271.098 12.0105 271.098 11.7266C271.098 11.449 271.06 11.1777 270.99 10.9001C270.92 10.6225 270.806 10.3828 270.653 10.1683C270.501 9.95377 270.311 9.78343 270.076 9.65094C269.841 9.51845 269.562 9.44905 269.245 9.44905C268.928 9.44905 268.649 9.51845 268.414 9.65094C268.179 9.78343 267.989 9.96008 267.836 10.1683C267.684 10.3828 267.576 10.6225 267.5 10.9001C267.43 11.1777 267.392 11.449 267.392 11.7266C267.392 12.0105 267.43 12.2881 267.5 12.5594C267.57 12.8307 267.684 13.0767 267.836 13.2912C267.989 13.5057 268.179 13.6824 268.414 13.8149C268.649 13.9536 268.928 14.0167 269.245 14.0167ZM272.95 8.4964H274.035V6.55325H275.469V8.4964H276.763V9.56262H275.469V13.0199C275.469 13.1713 275.475 13.2975 275.488 13.4111C275.501 13.5183 275.532 13.613 275.577 13.6887C275.621 13.7644 275.691 13.8212 275.786 13.859C275.881 13.8969 276.002 13.9158 276.167 13.9158C276.268 13.9158 276.37 13.9158 276.471 13.9095C276.573 13.9032 276.675 13.8906 276.776 13.8653V14.9694C276.617 14.9883 276.459 15.0009 276.313 15.0199C276.161 15.0388 276.008 15.0451 275.85 15.0451C275.469 15.0451 275.164 15.0072 274.936 14.9378C274.708 14.8684 274.524 14.7612 274.397 14.6224C274.264 14.4836 274.181 14.3133 274.13 14.1051C274.086 13.8969 274.054 13.6571 274.048 13.3922V9.57523H272.963V8.4964L272.95 8.4964Z" fill="#191919"></path><path d="M215.872 11.9084L215.417 10.5061L212.141 12.8705L215.872 11.9084Z" fill="#005128"></path></svg>