<svg xmlns="http://www.w3.org/2000/svg" width="108" height="18" viewBox="0 0 108 18" fill="none"><path d="M17.213 7.08196H10.6399L8.60965 0.861328L6.57303 7.08196L0 7.07565L5.32314 10.9241L3.28651 17.1384L8.60965 13.2963L13.9264 17.1384L11.8962 10.9241L17.213 7.08196Z" fill="#72B1F6"></path><path d="M28.1465 15V3.48H32.6905C33.5225 3.48 34.2318 3.61867 34.8185 3.896C35.4052 4.16267 35.8585 4.54133 36.1785 5.032C36.4985 5.512 36.6585 6.08267 36.6585 6.744C36.6585 7.40533 36.4985 7.98133 36.1785 8.472C35.8585 8.96267 35.4052 9.34667 34.8185 9.624C34.2318 9.90133 33.5225 10.04 32.6905 10.04H29.4265V8.664H32.6425C33.4105 8.664 33.9918 8.49867 34.3865 8.168C34.7918 7.82667 34.9945 7.35733 34.9945 6.76C34.9945 6.16267 34.7972 5.69867 34.4025 5.368C34.0078 5.03733 33.4212 4.872 32.6425 4.872H29.8425V15H28.1465ZM34.8025 15L29.1865 9.192H31.2505L37.2345 15H34.8025ZM41.7446 15.16C40.9233 15.16 40.198 14.9787 39.5686 14.616C38.95 14.2533 38.4646 13.752 38.1126 13.112C37.7606 12.472 37.5846 11.736 37.5846 10.904C37.5846 10.0613 37.7553 9.32533 38.0966 8.696C38.4486 8.056 38.9393 7.56 39.5686 7.208C40.198 6.856 40.918 6.68 41.7286 6.68C42.518 6.68 43.2006 6.85067 43.7766 7.192C44.3633 7.52267 44.8113 7.98667 45.1206 8.584C45.4406 9.18133 45.6006 9.89067 45.6006 10.712C45.6006 10.84 45.5953 10.9627 45.5846 11.08C45.5846 11.1867 45.574 11.2987 45.5526 11.416H38.7046V10.168H44.3846L43.9686 10.664C43.9686 9.78933 43.7713 9.12267 43.3766 8.664C42.982 8.20533 42.4326 7.976 41.7286 7.976C40.9713 7.976 40.3686 8.23733 39.9206 8.76C39.4833 9.272 39.2646 9.98667 39.2646 10.904C39.2646 11.832 39.4833 12.5573 39.9206 13.08C40.3686 13.6027 40.9873 13.864 41.7766 13.864C42.2566 13.864 42.6726 13.768 43.0246 13.576C43.3766 13.3733 43.638 13.08 43.8086 12.696H45.3766C45.11 13.464 44.6566 14.0667 44.0166 14.504C43.3873 14.9413 42.63 15.16 41.7446 15.16ZM47.8494 15V5.896C47.8494 5.064 48.0841 4.42933 48.5534 3.992C49.0227 3.544 49.7267 3.32 50.6654 3.32C50.8787 3.32 51.0547 3.33067 51.1934 3.352C51.3321 3.37333 51.4547 3.40533 51.5614 3.448V4.728C51.4867 4.70667 51.3854 4.68533 51.2574 4.664C51.1401 4.64267 51.0067 4.632 50.8574 4.632C50.3881 4.632 50.0467 4.74933 49.8334 4.984C49.6201 5.208 49.5134 5.528 49.5134 5.944V15H47.8494ZM46.2814 8.168V6.84H51.3854V8.168H46.2814ZM55.4744 15.16C54.9304 15.16 54.4504 15.048 54.0344 14.824C53.6184 14.5893 53.2931 14.2693 53.0584 13.864C52.8344 13.4587 52.7224 12.9947 52.7224 12.472V6.84H54.3864V12.088C54.3864 12.6533 54.5251 13.0747 54.8024 13.352C55.0797 13.6293 55.4744 13.768 55.9864 13.768C56.4451 13.768 56.8504 13.6613 57.2024 13.448C57.5651 13.2347 57.8477 12.9413 58.0504 12.568C58.2637 12.184 58.3704 11.7413 58.3704 11.24L58.5784 13.192C58.3117 13.7893 57.9011 14.2693 57.3464 14.632C56.8024 14.984 56.1784 15.16 55.4744 15.16ZM58.4344 15V13.08H58.3704V6.84H60.0184V15H58.4344ZM62.3496 15V6.84H63.9336V8.76H64.0136V15H62.3496ZM68.1416 15V9.752C68.1416 9.18667 67.9976 8.76533 67.7096 8.488C67.4323 8.21067 67.0163 8.072 66.4616 8.072C65.9816 8.072 65.555 8.17867 65.1816 8.392C64.819 8.60533 64.531 8.89867 64.3176 9.272C64.115 9.64533 64.0136 10.088 64.0136 10.6L63.8056 8.648C64.0723 8.04 64.483 7.56 65.0376 7.208C65.5923 6.856 66.2376 6.68 66.9736 6.68C67.8483 6.68 68.5363 6.92533 69.0376 7.416C69.539 7.90667 69.7896 8.55733 69.7896 9.368V15H68.1416ZM77.9408 15V13.128L78.1008 13.176C77.9301 13.784 77.5781 14.2693 77.0448 14.632C76.5114 14.984 75.8714 15.16 75.1248 15.16C74.3888 15.16 73.7434 14.984 73.1888 14.632C72.6448 14.28 72.2181 13.7893 71.9088 13.16C71.6101 12.5307 71.4608 11.7947 71.4608 10.952C71.4608 10.0987 71.6154 9.352 71.9248 8.712C72.2341 8.072 72.6661 7.576 73.2208 7.224C73.7754 6.872 74.4261 6.696 75.1728 6.696C75.9514 6.696 76.5914 6.88267 77.0928 7.256C77.6048 7.61867 77.9408 8.13067 78.1008 8.792L77.8768 8.824V3.48H79.5248V15H77.9408ZM75.5408 13.768C76.2768 13.768 76.8581 13.5173 77.2848 13.016C77.7114 12.504 77.9248 11.8 77.9248 10.904C77.9248 10.0293 77.7061 9.34133 77.2688 8.84C76.8421 8.328 76.2608 8.072 75.5248 8.072C74.7994 8.072 74.2234 8.328 73.7968 8.84C73.3808 9.34133 73.1728 10.0453 73.1728 10.952C73.1728 11.8373 73.3808 12.5307 73.7968 13.032C74.2234 13.5227 74.8048 13.768 75.5408 13.768Z" fill="#40556D"></path><path d="M107.676 7.08196H101.103L99.0725 0.861328L97.0359 7.08196L90.4629 7.07565L95.786 10.9241L93.7494 17.1384L99.0725 13.2963L104.389 17.1384L102.359 10.9241L107.676 7.08196Z" fill="#72B1F6"></path></svg>