<svg xmlns="http://www.w3.org/2000/svg" width="48" height="48" viewBox="0 0 48 48" fill="none"><path d="M4.5 31.5H43.5V45H4.5V31.5ZM4.5 15H43.5V28.5H4.5V15Z" fill="#EBF0F0"></path><path d="M43.5 12H4.5L7.2855 3H40.7145L43.5 12Z" fill="#F04E3C"></path><path d="M3 12H45V15H3V12ZM3 28.5H45V31.5H3V28.5Z" fill="#FF6E50"></path><path d="M24 38.25H27V45H24V38.25Z" fill="#9DE1BF"></path><path d="M24 35.25H27V38.25H24V35.25Z" fill="#EBF0F0"></path><path d="M21 35.25H24V45H21V35.25Z" fill="#9DE1BF"></path><path d="M36 35.25H39V38.25H36V35.25Z" fill="#EBF0F0"></path><path d="M36 38.25H39V41.25H36V38.25ZM33 35.25H36V41.25H33V35.25Z" fill="#9DE1BF"></path><path d="M12 35.25H15V38.25H12V35.25Z" fill="#EBF0F0"></path><path d="M12 38.25H15V41.25H12V38.25ZM9 35.25H12V41.25H9V35.25Z" fill="#9DE1BF"></path><path d="M12 18.75H15V21.75H12V18.75Z" fill="#EBF0F0"></path><path d="M12 21.75H15V24.75H12V21.75ZM9 18.75H12V24.75H9V18.75Z" fill="#9DE1BF"></path><path d="M24 18.75H27V21.75H24V18.75Z" fill="#EBF0F0"></path><path d="M24 21.75H27V24.75H24V21.75ZM21 18.75H24V24.75H21V18.75Z" fill="#9DE1BF"></path><path d="M36 18.75H39V21.75H36V18.75Z" fill="#EBF0F0"></path><path d="M36 21.75H39V24.75H36V21.75ZM33 18.75H36V24.75H33V18.75Z" fill="#9DE1BF"></path><path d="M45 15.75C45.1989 15.75 45.3897 15.671 45.5303 15.5303C45.671 15.3897 45.75 15.1989 45.75 15V12C45.75 11.8011 45.671 11.6103 45.5303 11.4697C45.3897 11.329 45.1989 11.25 45 11.25H44.0527L41.4277 2.775C41.3798 2.62262 41.2845 2.48953 41.1557 2.3951C41.0268 2.30066 40.8712 2.24983 40.7115 2.25H7.2855C7.12577 2.24983 6.97015 2.30066 6.84132 2.3951C6.71249 2.48953 6.61717 2.62262 6.56925 2.775L3.94725 11.25H3C2.80109 11.25 2.61032 11.329 2.46967 11.4697C2.32902 11.6103 2.25 11.8011 2.25 12V15C2.25 15.1989 2.32902 15.3897 2.46967 15.5303C2.61032 15.671 2.80109 15.75 3 15.75H3.75V27.75H3C2.80109 27.75 2.61032 27.829 2.46967 27.9697C2.32902 28.1103 2.25 28.3011 2.25 28.5V31.5C2.25 31.6989 2.32902 31.8897 2.46967 32.0303C2.61032 32.171 2.80109 32.25 3 32.25H3.75V45C3.75 45.1989 3.82902 45.3897 3.96967 45.5303C4.11032 45.671 4.30109 45.75 4.5 45.75H43.5C43.6989 45.75 43.8897 45.671 44.0303 45.5303C44.171 45.3897 44.25 45.1989 44.25 45V32.25H45C45.1989 32.25 45.3897 32.171 45.5303 32.0303C45.671 31.8897 45.75 31.6989 45.75 31.5V28.5C45.75 28.3011 45.671 28.1103 45.5303 27.9697C45.3897 27.829 45.1989 27.75 45 27.75H44.25V15.75H45ZM7.839 3.75H40.164L42.489 11.25H5.517L7.839 3.75ZM23.25 44.25H21.75V36H23.25V44.25ZM26.25 44.25H24.75V39H26.25V44.25ZM26.25 37.5H24.75V36H26.25V37.5ZM42.75 44.25H27.75V35.25C27.75 35.0511 27.671 34.8603 27.5303 34.7197C27.3897 34.579 27.1989 34.5 27 34.5H21C20.8011 34.5 20.6103 34.579 20.4697 34.7197C20.329 34.8603 20.25 35.0511 20.25 35.25V44.25H5.25V32.25H42.75V44.25ZM44.25 30.75H3.75V29.25H44.25V30.75ZM5.25 27.75V15.75H42.75V27.75H5.25ZM3.75 14.25V12.75H44.25V14.25H3.75Z" fill="black"></path><path d="M33 42H39C39.1989 42 39.3897 41.921 39.5303 41.7803C39.671 41.6397 39.75 41.4489 39.75 41.25V35.25C39.75 35.0511 39.671 34.8603 39.5303 34.7197C39.3897 34.579 39.1989 34.5 39 34.5H33C32.8011 34.5 32.6103 34.579 32.4697 34.7197C32.329 34.8603 32.25 35.0511 32.25 35.25V41.25C32.25 41.4489 32.329 41.6397 32.4697 41.7803C32.6103 41.921 32.8011 42 33 42ZM36.75 36H38.25V37.5H36.75V36ZM36.75 39H38.25V40.5H36.75V39ZM33.75 36H35.25V40.5H33.75V36ZM9 42H15C15.1989 42 15.3897 41.921 15.5303 41.7803C15.671 41.6397 15.75 41.4489 15.75 41.25V35.25C15.75 35.0511 15.671 34.8603 15.5303 34.7197C15.3897 34.579 15.1989 34.5 15 34.5H9C8.80109 34.5 8.61032 34.579 8.46967 34.7197C8.32902 34.8603 8.25 35.0511 8.25 35.25V41.25C8.25 41.4489 8.32902 41.6397 8.46967 41.7803C8.61032 41.921 8.80109 42 9 42ZM12.75 36H14.25V37.5H12.75V36ZM12.75 39H14.25V40.5H12.75V39ZM9.75 36H11.25V40.5H9.75V36ZM15 18H9C8.80109 18 8.61032 18.079 8.46967 18.2197C8.32902 18.3603 8.25 18.5511 8.25 18.75V24.75C8.25 24.9489 8.32902 25.1397 8.46967 25.2803C8.61032 25.421 8.80109 25.5 9 25.5H15C15.1989 25.5 15.3897 25.421 15.5303 25.2803C15.671 25.1397 15.75 24.9489 15.75 24.75V18.75C15.75 18.5511 15.671 18.3603 15.5303 18.2197C15.3897 18.079 15.1989 18 15 18ZM11.25 24H9.75V19.5H11.25V24ZM14.25 24H12.75V22.5H14.25V24ZM14.25 21H12.75V19.5H14.25V21ZM27 18H21C20.8011 18 20.6103 18.079 20.4697 18.2197C20.329 18.3603 20.25 18.5511 20.25 18.75V24.75C20.25 24.9489 20.329 25.1397 20.4697 25.2803C20.6103 25.421 20.8011 25.5 21 25.5H27C27.1989 25.5 27.3897 25.421 27.5303 25.2803C27.671 25.1397 27.75 24.9489 27.75 24.75V18.75C27.75 18.5511 27.671 18.3603 27.5303 18.2197C27.3897 18.079 27.1989 18 27 18ZM23.25 24H21.75V19.5H23.25V24ZM26.25 24H24.75V22.5H26.25V24ZM26.25 21H24.75V19.5H26.25V21ZM39 18H33C32.8011 18 32.6103 18.079 32.4697 18.2197C32.329 18.3603 32.25 18.5511 32.25 18.75V24.75C32.25 24.9489 32.329 25.1397 32.4697 25.2803C32.6103 25.421 32.8011 25.5 33 25.5H39C39.1989 25.5 39.3897 25.421 39.5303 25.2803C39.671 25.1397 39.75 24.9489 39.75 24.75V18.75C39.75 18.5511 39.671 18.3603 39.5303 18.2197C39.3897 18.079 39.1989 18 39 18ZM35.25 24H33.75V19.5H35.25V24ZM38.25 24H36.75V22.5H38.25V24ZM38.25 21H36.75V19.5H38.25V21Z" fill="black"></path><path d="M22.5 6H25.5V9H22.5V6ZM34.5 6H37.5V9H34.5V6Z" fill="#9DE1BF"></path><path d="M25.5 5.25H22.5C22.3011 5.25 22.1103 5.32902 21.9697 5.46967C21.829 5.61032 21.75 5.80109 21.75 6V9C21.75 9.19891 21.829 9.38968 21.9697 9.53033C22.1103 9.67098 22.3011 9.75 22.5 9.75H25.5C25.6989 9.75 25.8897 9.67098 26.0303 9.53033C26.171 9.38968 26.25 9.19891 26.25 9V6C26.25 5.80109 26.171 5.61032 26.0303 5.46967C25.8897 5.32902 25.6989 5.25 25.5 5.25ZM24.75 8.25H23.25V6.75H24.75V8.25Z" fill="black"></path><path d="M10.5 6H13.5V9H10.5V6Z" fill="#9DE1BF"></path><path d="M13.5 5.25H10.5C10.3011 5.25 10.1103 5.32902 9.96967 5.46967C9.82902 5.61032 9.75 5.80109 9.75 6V9C9.75 9.19891 9.82902 9.38968 9.96967 9.53033C10.1103 9.67098 10.3011 9.75 10.5 9.75H13.5C13.6989 9.75 13.8897 9.67098 14.0303 9.53033C14.171 9.38968 14.25 9.19891 14.25 9V6C14.25 5.80109 14.171 5.61032 14.0303 5.46967C13.8897 5.32902 13.6989 5.25 13.5 5.25ZM12.75 8.25H11.25V6.75H12.75V8.25ZM37.5 5.25H34.5C34.3011 5.25 34.1103 5.32902 33.9697 5.46967C33.829 5.61032 33.75 5.80109 33.75 6V9C33.75 9.19891 33.829 9.38968 33.9697 9.53033C34.1103 9.67098 34.3011 9.75 34.5 9.75H37.5C37.6989 9.75 37.8897 9.67098 38.0303 9.53033C38.171 9.38968 38.25 9.19891 38.25 9V6C38.25 5.80109 38.171 5.61032 38.0303 5.46967C37.8897 5.32902 37.6989 5.25 37.5 5.25ZM36.75 8.25H35.25V6.75H36.75V8.25Z" fill="black"></path></svg>