<svg xmlns="http://www.w3.org/2000/svg" xmlns:xlink="http://www.w3.org/1999/xlink" width="48px" height="48px" style="shape-rendering:geometricPrecision; text-rendering:geometricPrecision; image-rendering:optimizeQuality; fill-rule:evenodd; clip-rule:evenodd"><g><path style="opacity:1" fill="#665b50" d="M 22.5,0.5 C 22.5,0.166667 22.5,-0.166667 22.5,-0.5C 24.5,-0.5 26.5,-0.5 28.5,-0.5C 28.5,-0.166667 28.5,0.166667 28.5,0.5C 27.8333,0.5 27.5,0.833333 27.5,1.5C 26.8333,1.5 26.1667,1.5 25.5,1.5C 24.791,0.596028 23.791,0.262695 22.5,0.5 Z"></path></g><g><path style="opacity:1" fill="#2e271f" d="M 19.5,1.5 C 20.209,0.596028 21.209,0.262695 22.5,0.5C 23.791,0.262695 24.791,0.596028 25.5,1.5C 24.0413,1.43255 22.7079,1.76589 21.5,2.5C 21.1583,1.66175 20.4916,1.32842 19.5,1.5 Z"></path></g><g><path style="opacity:1" fill="#c6c063" d="M 25.5,1.5 C 26.1667,1.5 26.8333,1.5 27.5,1.5C 26.8333,2.16667 26.1667,2.83333 25.5,3.5C 24.5,3.5 23.5,3.5 22.5,3.5C 21.8333,3.5 21.5,3.16667 21.5,2.5C 22.7079,1.76589 24.0413,1.43255 25.5,1.5 Z"></path></g><g><path style="opacity:1" fill="#35332b" d="M 28.5,0.5 C 29.6343,2.96008 28.6343,4.29341 25.5,4.5C 25.5,4.16667 25.5,3.83333 25.5,3.5C 26.1667,2.83333 26.8333,2.16667 27.5,1.5C 27.5,0.833333 27.8333,0.5 28.5,0.5 Z"></path></g><g><path style="opacity:1" fill="#0f0c0b" d="M 22.5,3.5 C 23.5,3.5 24.5,3.5 25.5,3.5C 25.5,3.83333 25.5,4.16667 25.5,4.5C 23.744,5.55213 23.0773,7.21879 23.5,9.5C 26.1667,9.5 28.8333,9.5 31.5,9.5C 31.5,10.5 31.5,11.5 31.5,12.5C 31.5,13.1667 31.1667,13.5 30.5,13.5C 30.6716,12.5084 30.3382,11.8417 29.5,11.5C 27.1667,10.8333 24.8333,10.1667 22.5,9.5C 22.5,7.5 22.5,5.5 22.5,3.5 Z"></path></g><g><path style="opacity:1" fill="#443f3d" d="M 19.5,1.5 C 20.4916,1.32842 21.1583,1.66175 21.5,2.5C 20.8476,3.4486 20.5143,4.61527 20.5,6C 20.6083,7.68113 21.2749,8.8478 22.5,9.5C 24.8333,10.1667 27.1667,10.8333 29.5,11.5C 24.1667,11.5 18.8333,11.5 13.5,11.5C 15.5,10.8333 17.5,10.1667 19.5,9.5C 18.2329,6.72798 18.2329,4.06132 19.5,1.5 Z"></path></g><g><path style="opacity:1" fill="#bab270" d="M 21.5,2.5 C 21.5,3.16667 21.8333,3.5 22.5,3.5C 22.5,5.5 22.5,7.5 22.5,9.5C 21.2749,8.8478 20.6083,7.68113 20.5,6C 20.5143,4.61527 20.8476,3.4486 21.5,2.5 Z"></path></g><g><path style="opacity:1" fill="#171515" d="M 11.5,10.5 C 13.9479,9.52693 16.6146,9.1936 19.5,9.5C 17.5,10.1667 15.5,10.8333 13.5,11.5C 13.1667,11.5 12.8333,11.5 12.5,11.5C 12.5,10.8333 12.1667,10.5 11.5,10.5 Z"></path></g><g><path style="opacity:1" fill="#3b3b3b" d="M 11.5,11.5 C 11.5,12.5 11.5,13.5 11.5,14.5C 10.8333,14.5 10.1667,14.5 9.5,14.5C 9.16667,14.5 8.83333,14.5 8.5,14.5C 8.81018,12.8564 9.81018,11.8564 11.5,11.5 Z"></path></g><g><path style="opacity:1" fill="#4f4e4e" d="M 29.5,11.5 C 30.3382,11.8417 30.6716,12.5084 30.5,13.5C 24.31,13.8229 18.31,13.4896 12.5,12.5C 18.358,12.8222 24.0247,12.4889 29.5,11.5 Z"></path></g><g><path style="opacity:1" fill="#0b0b0a" d="M 11.5,10.5 C 12.1667,10.5 12.5,10.8333 12.5,11.5C 12.5,11.8333 12.5,12.1667 12.5,12.5C 18.31,13.4896 24.31,13.8229 30.5,13.5C 30.5,13.8333 30.5,14.1667 30.5,14.5C 30.1667,14.5 29.8333,14.5 29.5,14.5C 27.1667,14.5 24.8333,14.5 22.5,14.5C 18.8333,14.5 15.1667,14.5 11.5,14.5C 11.5,13.5 11.5,12.5 11.5,11.5C 11.5,11.1667 11.5,10.8333 11.5,10.5 Z"></path></g><g><path style="opacity:1" fill="#2d2f30" d="M 31.5,12.5 C 33.5,12.5 34.5,13.5 34.5,15.5C 33.8333,15.8333 33.1667,16.1667 32.5,16.5C 32.6716,15.5084 32.3382,14.8417 31.5,14.5C 31.1667,14.5 30.8333,14.5 30.5,14.5C 30.5,14.1667 30.5,13.8333 30.5,13.5C 31.1667,13.5 31.5,13.1667 31.5,12.5 Z"></path></g><g><path style="opacity:1" fill="#b8bdba" d="M 9.5,14.5 C 10.1667,14.5 10.8333,14.5 11.5,14.5C 14.9619,15.4816 18.6286,15.815 22.5,15.5C 23.791,15.2627 24.791,15.596 25.5,16.5C 20.8333,16.5 16.1667,16.5 11.5,16.5C 10.1667,16.5 9.5,15.8333 9.5,14.5 Z"></path></g><g><path style="opacity:1" fill="#d3d2d2" d="M 22.5,15.5 C 22.5,15.1667 22.5,14.8333 22.5,14.5C 24.8333,14.5 27.1667,14.5 29.5,14.5C 30.1667,15.8333 30.8333,15.8333 31.5,14.5C 32.3382,14.8417 32.6716,15.5084 32.5,16.5C 30.1667,16.5 27.8333,16.5 25.5,16.5C 24.791,15.596 23.791,15.2627 22.5,15.5 Z"></path></g><g><path style="opacity:1" fill="#1d1e1d" d="M 8.5,14.5 C 8.83333,14.5 9.16667,14.5 9.5,14.5C 9.5,15.8333 10.1667,16.5 11.5,16.5C 11.5,16.8333 11.5,17.1667 11.5,17.5C 11.1667,17.5 10.8333,17.5 10.5,17.5C 10.1667,17.5 9.83333,17.5 9.5,17.5C 7.20432,17.1959 6.87099,16.1959 8.5,14.5 Z"></path></g><g><path style="opacity:1" fill="#00060f" d="M 34.5,15.5 C 34.5,15.8333 34.5,16.1667 34.5,16.5C 34.1583,17.3382 33.4916,17.6716 32.5,17.5C 26.1667,17.5 19.8333,17.5 13.5,17.5C 12.8333,17.5 12.1667,17.5 11.5,17.5C 11.5,17.1667 11.5,16.8333 11.5,16.5C 16.1667,16.5 20.8333,16.5 25.5,16.5C 27.8333,16.5 30.1667,16.5 32.5,16.5C 33.1667,16.1667 33.8333,15.8333 34.5,15.5 Z"></path></g><g><path style="opacity:1" fill="#51abca" d="M 13.5,18.5 C 13.5,18.1667 13.5,17.8333 13.5,17.5C 19.8333,17.5 26.1667,17.5 32.5,17.5C 32.5,18.1667 32.5,18.8333 32.5,19.5C 31.1667,19.5 29.8333,19.5 28.5,19.5C 28.1667,19.5 27.8333,19.5 27.5,19.5C 26.791,18.596 25.791,18.2627 24.5,18.5C 23.5084,18.3284 22.8417,18.6618 22.5,19.5C 22.1667,19.5 21.8333,19.5 21.5,19.5C 18.9455,18.612 16.2788,18.2786 13.5,18.5 Z"></path></g><g><path style="opacity:1" fill="#e1e9e5" d="M 34.5,16.5 C 35.3382,16.8417 35.6716,17.5084 35.5,18.5C 34.5084,18.3284 33.8417,18.6618 33.5,19.5C 33.5,20.1667 33.5,20.8333 33.5,21.5C 32.6618,21.1583 32.3284,20.4916 32.5,19.5C 32.5,18.8333 32.5,18.1667 32.5,17.5C 33.4916,17.6716 34.1583,17.3382 34.5,16.5 Z"></path></g><g><path style="opacity:1" fill="#8c8b85" d="M 33.5,19.5 C 33.8417,18.6618 34.5084,18.3284 35.5,18.5C 37.1998,18.6261 38.6998,19.2927 40,20.5C 41.0111,19.9444 41.8444,19.2778 42.5,18.5C 42.5,19.5 42.5,20.5 42.5,21.5C 40.8333,21.5 39.1667,21.5 37.5,21.5C 37.1788,19.9519 36.1788,19.2852 34.5,19.5C 34.1667,19.5 33.8333,19.5 33.5,19.5 Z"></path></g><g><path style="opacity:1" fill="#4b4a4a" d="M 47.5,20.5 C 47.5,22.8333 47.5,25.1667 47.5,27.5C 46.8333,26.1667 46.1667,24.8333 45.5,23.5C 45.762,22.0222 45.4287,20.6888 44.5,19.5C 43.7025,19.9569 43.3691,20.6236 43.5,21.5C 43.1667,21.5 42.8333,21.5 42.5,21.5C 42.5,20.5 42.5,19.5 42.5,18.5C 43.5676,17.5655 44.901,17.2322 46.5,17.5C 46.2627,18.791 46.596,19.791 47.5,20.5 Z"></path></g><g><path style="opacity:1" fill="#92f5fa" d="M 13.5,18.5 C 16.2788,18.2786 18.9455,18.612 21.5,19.5C 19.3926,20.4682 17.0593,20.8016 14.5,20.5C 14.1667,20.5 13.8333,20.5 13.5,20.5C 13.5,19.8333 13.5,19.1667 13.5,18.5 Z"></path></g><g><path style="opacity:1" fill="#010601" d="M 28.5,19.5 C 29.8333,19.5 31.1667,19.5 32.5,19.5C 32.3284,20.4916 32.6618,21.1583 33.5,21.5C 34.8333,21.8333 34.8333,22.1667 33.5,22.5C 33.1667,22.5 32.8333,22.5 32.5,22.5C 32.1667,22.5 31.8333,22.5 31.5,22.5C 31.6309,21.6236 31.2975,20.9569 30.5,20.5C 29.5258,22.7427 29.1924,25.076 29.5,27.5C 29.1667,27.5 28.8333,27.5 28.5,27.5C 28.5,24.8333 28.5,22.1667 28.5,19.5 Z"></path></g><g><path style="opacity:1" fill="#2edbe7" d="M 11.5,17.5 C 12.1667,17.5 12.8333,17.5 13.5,17.5C 13.5,17.8333 13.5,18.1667 13.5,18.5C 13.5,19.1667 13.5,19.8333 13.5,20.5C 13.5,20.8333 13.5,21.1667 13.5,21.5C 12.8333,21.5 12.1667,21.5 11.5,21.5C 11.5,20.1667 11.5,18.8333 11.5,17.5 Z"></path></g><g><path style="opacity:1" fill="#2acedd" d="M 21.5,19.5 C 21.8333,19.5 22.1667,19.5 22.5,19.5C 22.9175,20.2216 23.5842,20.7216 24.5,21C 22.8659,21.4935 21.1992,21.6602 19.5,21.5C 17.5853,21.7845 15.9187,21.4511 14.5,20.5C 17.0593,20.8016 19.3926,20.4682 21.5,19.5 Z"></path></g><g><path style="opacity:1" fill="#0fd9f4" d="M 13.5,20.5 C 13.8333,20.5 14.1667,20.5 14.5,20.5C 15.9187,21.4511 17.5853,21.7845 19.5,21.5C 19.5,22.1667 19.1667,22.5 18.5,22.5C 17.8333,22.5 17.5,22.8333 17.5,23.5C 16.603,22.4019 15.7697,22.4019 15,23.5C 14.2828,22.9558 13.7828,22.2891 13.5,21.5C 13.5,21.1667 13.5,20.8333 13.5,20.5 Z"></path></g><g><path style="opacity:1" fill="#070500" d="M 34.5,19.5 C 36.1788,19.2852 37.1788,19.9519 37.5,21.5C 37.5,21.8333 37.5,22.1667 37.5,22.5C 37.5,25.8333 37.5,29.1667 37.5,32.5C 37.1667,32.5 36.8333,32.5 36.5,32.5C 36.8168,28.2984 36.4834,24.2984 35.5,20.5C 34.8333,20.5 34.5,20.1667 34.5,19.5 Z"></path></g><g><path style="opacity:1" fill="#0cdcf4" d="M 11.5,21.5 C 12.1667,21.5 12.8333,21.5 13.5,21.5C 13.7828,22.2891 14.2828,22.9558 15,23.5C 15.7697,22.4019 16.603,22.4019 17.5,23.5C 17.5,23.8333 17.5,24.1667 17.5,24.5C 16.5349,24.4003 15.3683,24.7336 14,25.5C 12.9889,24.9444 12.1556,24.2778 11.5,23.5C 11.5,22.8333 11.5,22.1667 11.5,21.5 Z"></path></g><g><path style="opacity:1" fill="#2ae2f8" d="M 24.5,18.5 C 25.1667,20.1667 25.8333,21.8333 26.5,23.5C 25.8333,23.8333 25.1667,24.1667 24.5,24.5C 22.2143,24.405 20.2143,23.7384 18.5,22.5C 19.1667,22.5 19.5,22.1667 19.5,21.5C 21.1992,21.6602 22.8659,21.4935 24.5,21C 23.5842,20.7216 22.9175,20.2216 22.5,19.5C 22.8417,18.6618 23.5084,18.3284 24.5,18.5 Z"></path></g><g><path style="opacity:1" fill="#2cd2f3" d="M 24.5,18.5 C 25.791,18.2627 26.791,18.596 27.5,19.5C 27.7214,22.2788 27.388,24.9455 26.5,27.5C 26.1667,27.5 25.8333,27.5 25.5,27.5C 25.8333,26.1667 26.1667,24.8333 26.5,23.5C 25.8333,21.8333 25.1667,20.1667 24.5,18.5 Z"></path></g><g><path style="opacity:1" fill="#0f0000" d="M 37.5,22.5 C 37.5,22.1667 37.5,21.8333 37.5,21.5C 39.1667,21.5 40.8333,21.5 42.5,21.5C 42.8333,21.5 43.1667,21.5 43.5,21.5C 43.5,21.8333 43.5,22.1667 43.5,22.5C 43.1667,22.5 42.8333,22.5 42.5,22.5C 40.8235,23.1834 40.1568,24.5168 40.5,26.5C 40.5,28.5 40.5,30.5 40.5,32.5C 40.1667,32.5 39.8333,32.5 39.5,32.5C 40.069,28.6707 39.4023,25.3373 37.5,22.5 Z"></path></g><g><path style="opacity:1" fill="#a98a36" d="M 45.5,23.5 C 45.762,24.9778 45.4287,26.3112 44.5,27.5C 43.5481,25.9547 43.2148,24.288 43.5,22.5C 43.5,22.1667 43.5,21.8333 43.5,21.5C 43.3691,20.6236 43.7025,19.9569 44.5,19.5C 45.4287,20.6888 45.762,22.0222 45.5,23.5 Z"></path></g><g><path style="opacity:1" fill="#307d8c" d="M 27.5,19.5 C 27.8333,19.5 28.1667,19.5 28.5,19.5C 28.5,22.1667 28.5,24.8333 28.5,27.5C 27.8333,27.5 27.1667,27.5 26.5,27.5C 27.388,24.9455 27.7214,22.2788 27.5,19.5 Z"></path></g><g><path style="opacity:1" fill="#968436" d="M 31.5,22.5 C 31.5,24.1667 31.5,25.8333 31.5,27.5C 30.8333,27.5 30.1667,27.5 29.5,27.5C 29.1924,25.076 29.5258,22.7427 30.5,20.5C 31.2975,20.9569 31.6309,21.6236 31.5,22.5 Z"></path></g><g><path style="opacity:1" fill="#1b0201" d="M 42.5,22.5 C 42.8333,22.5 43.1667,22.5 43.5,22.5C 43.2148,24.288 43.5481,25.9547 44.5,27.5C 45.4287,26.3112 45.762,24.9778 45.5,23.5C 46.1667,24.8333 46.8333,26.1667 47.5,27.5C 47.5,28.1667 47.5,28.8333 47.5,29.5C 46.8333,32.1667 46.1667,34.8333 45.5,37.5C 45.8174,34.4281 45.4841,31.4281 44.5,28.5C 43.7025,28.9569 43.3691,29.6236 43.5,30.5C 43.1667,30.5 42.8333,30.5 42.5,30.5C 42.5,29.5 42.5,28.5 42.5,27.5C 42.5,25.8333 42.5,24.1667 42.5,22.5 Z"></path></g><g><path style="opacity:1" fill="#c4bfbc" d="M 9.5,17.5 C 9.83333,17.5 10.1667,17.5 10.5,17.5C 10.5,20.8333 10.5,24.1667 10.5,27.5C 9.5,27.5 8.5,27.5 7.5,27.5C 9.27298,24.5118 9.93965,21.1785 9.5,17.5 Z"></path></g><g><path style="opacity:1" fill="#120100" d="M 31.5,22.5 C 31.8333,22.5 32.1667,22.5 32.5,22.5C 32.5,25.1667 32.5,27.8333 32.5,30.5C 31.8333,30.5 31.1667,30.5 30.5,30.5C 30.5,30.1667 30.5,29.8333 30.5,29.5C 31.3382,29.1583 31.6716,28.4916 31.5,27.5C 31.5,25.8333 31.5,24.1667 31.5,22.5 Z"></path></g><g><path style="opacity:1" fill="#2d2407" d="M 33.5,19.5 C 33.8333,19.5 34.1667,19.5 34.5,19.5C 34.5,20.1667 34.8333,20.5 35.5,20.5C 35.0022,23.4869 34.5022,26.4869 34,29.5C 33.5034,27.1902 33.3367,24.8568 33.5,22.5C 34.8333,22.1667 34.8333,21.8333 33.5,21.5C 33.5,20.8333 33.5,20.1667 33.5,19.5 Z"></path></g><g><path style="opacity:1" fill="#b4a977" d="M 42.5,22.5 C 42.5,24.1667 42.5,25.8333 42.5,27.5C 41.8333,27.1667 41.1667,26.8333 40.5,26.5C 40.1568,24.5168 40.8235,23.1834 42.5,22.5 Z"></path></g><g><path style="opacity:1" fill="#35cbed" d="M 11.5,23.5 C 12.1556,24.2778 12.9889,24.9444 14,25.5C 15.3683,24.7336 16.5349,24.4003 17.5,24.5C 18.391,25.1098 19.391,25.4431 20.5,25.5C 20.5,26.1667 20.5,26.8333 20.5,27.5C 20.1667,27.5 19.8333,27.5 19.5,27.5C 16.9039,26.7347 14.2372,26.4013 11.5,26.5C 11.5,25.5 11.5,24.5 11.5,23.5 Z"></path></g><g><path style="opacity:1" fill="#02e2f3" d="M 18.5,22.5 C 20.2143,23.7384 22.2143,24.405 24.5,24.5C 23.5967,26.6204 22.2633,26.9538 20.5,25.5C 19.391,25.4431 18.391,25.1098 17.5,24.5C 17.5,24.1667 17.5,23.8333 17.5,23.5C 17.5,22.8333 17.8333,22.5 18.5,22.5 Z"></path></g><g><path style="opacity:1" fill="#16daf6" d="M 26.5,23.5 C 26.1667,24.8333 25.8333,26.1667 25.5,27.5C 25.8432,29.4832 25.1765,30.8166 23.5,31.5C 23.5,31.1667 23.5,30.8333 23.5,30.5C 23.5,29.5 23.5,28.5 23.5,27.5C 22.5,27.5 21.5,27.5 20.5,27.5C 20.5,26.8333 20.5,26.1667 20.5,25.5C 22.2633,26.9538 23.5967,26.6204 24.5,24.5C 25.1667,24.1667 25.8333,23.8333 26.5,23.5 Z"></path></g><g><path style="opacity:1" fill="#89854f" d="M 35.5,20.5 C 36.4834,24.2984 36.8168,28.2984 36.5,32.5C 34.5168,32.8432 33.1834,32.1765 32.5,30.5C 32.5,27.8333 32.5,25.1667 32.5,22.5C 32.8333,22.5 33.1667,22.5 33.5,22.5C 33.3367,24.8568 33.5034,27.1902 34,29.5C 34.5022,26.4869 35.0022,23.4869 35.5,20.5 Z"></path></g><g><path style="opacity:1" fill="#060808" d="M 10.5,17.5 C 10.8333,17.5 11.1667,17.5 11.5,17.5C 11.5,18.8333 11.5,20.1667 11.5,21.5C 11.5,22.1667 11.5,22.8333 11.5,23.5C 11.5,24.5 11.5,25.5 11.5,26.5C 12.8333,27.1667 14.1667,27.8333 15.5,28.5C 13.5,28.5 11.5,28.5 9.5,28.5C 8.04125,28.4326 6.70792,28.7659 5.5,29.5C 5.5,29.1667 5.5,28.8333 5.5,28.5C 5.84171,27.6618 6.50838,27.3284 7.5,27.5C 8.5,27.5 9.5,27.5 10.5,27.5C 10.5,24.1667 10.5,20.8333 10.5,17.5 Z"></path></g><g><path style="opacity:1" fill="#14262b" d="M 11.5,26.5 C 14.2372,26.4013 16.9039,26.7347 19.5,27.5C 20.795,28.4884 22.1283,29.4884 23.5,30.5C 23.5,30.8333 23.5,31.1667 23.5,31.5C 23.5,32.1667 23.8333,32.5 24.5,32.5C 24.5,33.1667 24.5,33.8333 24.5,34.5C 23.8333,34.5 23.1667,34.5 22.5,34.5C 22.7709,32.6203 22.1042,31.287 20.5,30.5C 19.2196,29.0687 17.5529,28.4021 15.5,28.5C 14.1667,27.8333 12.8333,27.1667 11.5,26.5 Z"></path></g><g><path style="opacity:1" fill="#3cc3df" d="M 19.5,27.5 C 19.8333,27.5 20.1667,27.5 20.5,27.5C 21.5,27.5 22.5,27.5 23.5,27.5C 23.5,28.5 23.5,29.5 23.5,30.5C 22.1283,29.4884 20.795,28.4884 19.5,27.5 Z"></path></g><g><path style="opacity:1" fill="#100306" d="M 26.5,27.5 C 27.1667,27.5 27.8333,27.5 28.5,27.5C 28.8333,27.5 29.1667,27.5 29.5,27.5C 30.1667,27.5 30.8333,27.5 31.5,27.5C 31.6716,28.4916 31.3382,29.1583 30.5,29.5C 30.44,28.9569 30.1067,28.6236 29.5,28.5C 28.513,31.7683 28.1796,35.1016 28.5,38.5C 27.596,37.791 27.2627,36.791 27.5,35.5C 27.7947,33.2646 27.4614,31.2646 26.5,29.5C 26.5,28.8333 26.5,28.1667 26.5,27.5 Z"></path></g><g><path style="opacity:1" fill="#f3e8c5" d="M 9.5,29.5 C 9.5,29.1667 9.5,28.8333 9.5,28.5C 11.5,28.5 13.5,28.5 15.5,28.5C 17.5529,28.4021 19.2196,29.0687 20.5,30.5C 19.0413,30.4326 17.7079,30.7659 16.5,31.5C 14.7211,29.6565 12.3878,28.9898 9.5,29.5 Z"></path></g><g><path style="opacity:1" fill="#cbb357" d="M 37.5,22.5 C 39.4023,25.3373 40.069,28.6707 39.5,32.5C 38.8333,32.5 38.1667,32.5 37.5,32.5C 37.5,29.1667 37.5,25.8333 37.5,22.5 Z"></path></g><g><path style="opacity:1" fill="#ede1c9" d="M 9.5,28.5 C 9.5,28.8333 9.5,29.1667 9.5,29.5C 9.67158,30.4916 9.33825,31.1583 8.5,31.5C 7.60895,30.8902 6.60895,30.5569 5.5,30.5C 5.5,30.1667 5.5,29.8333 5.5,29.5C 6.70792,28.7659 8.04125,28.4326 9.5,28.5 Z"></path></g><g><path style="opacity:1" fill="#9e8a51" d="M 40.5,26.5 C 41.1667,26.8333 41.8333,27.1667 42.5,27.5C 42.5,28.5 42.5,29.5 42.5,30.5C 41.8333,31.1667 41.1667,31.8333 40.5,32.5C 40.5,30.5 40.5,28.5 40.5,26.5 Z"></path></g><g><path style="opacity:1" fill="#342d29" d="M 5.5,28.5 C 5.5,28.8333 5.5,29.1667 5.5,29.5C 5.5,29.8333 5.5,30.1667 5.5,30.5C 4.27187,31.3065 3.27187,32.3065 2.5,33.5C 2.5,32.8333 2.16667,32.5 1.5,32.5C 1.95681,30.2273 3.29014,28.894 5.5,28.5 Z"></path></g><g><path style="opacity:1" fill="#4fc9e6" d="M 25.5,27.5 C 25.8333,27.5 26.1667,27.5 26.5,27.5C 26.5,28.1667 26.5,28.8333 26.5,29.5C 26.7148,31.1788 26.0481,32.1788 24.5,32.5C 23.8333,32.5 23.5,32.1667 23.5,31.5C 25.1765,30.8166 25.8432,29.4832 25.5,27.5 Z"></path></g><g><path style="opacity:1" fill="#f4d6a1" d="M 5.5,30.5 C 6.60895,30.5569 7.60895,30.8902 8.5,31.5C 8.83333,32.1667 9.16667,32.8333 9.5,33.5C 7.80081,33.6602 6.13414,33.4935 4.5,33C 5.25244,32.3292 5.58577,31.4959 5.5,30.5 Z"></path></g><g><path style="opacity:1" fill="#efd6ab" d="M 20.5,30.5 C 22.1042,31.287 22.7709,32.6203 22.5,34.5C 20.1667,34.5 17.8333,34.5 15.5,34.5C 15.5,33.8333 15.5,33.1667 15.5,32.5C 15.5,31.8333 15.8333,31.5 16.5,31.5C 17.7079,30.7659 19.0413,30.4326 20.5,30.5 Z"></path></g><g><path style="opacity:1" fill="#ae5d40" d="M 30.5,29.5 C 30.5,29.8333 30.5,30.1667 30.5,30.5C 30.5,30.8333 30.5,31.1667 30.5,31.5C 29.1667,32.8333 29.1667,34.1667 30.5,35.5C 30.5079,38.5448 30.8413,41.5448 31.5,44.5C 31.5,45.1667 31.1667,45.5 30.5,45.5C 29.8333,43.1667 29.1667,40.8333 28.5,38.5C 28.1796,35.1016 28.513,31.7683 29.5,28.5C 30.1067,28.6236 30.44,28.9569 30.5,29.5 Z"></path></g><g><path style="opacity:1" fill="#3898ac" d="M 26.5,29.5 C 27.4614,31.2646 27.7947,33.2646 27.5,35.5C 26.8333,36.5 26.1667,37.5 25.5,38.5C 25.7373,37.209 25.404,36.209 24.5,35.5C 24.5,35.1667 24.5,34.8333 24.5,34.5C 24.5,33.8333 24.5,33.1667 24.5,32.5C 26.0481,32.1788 26.7148,31.1788 26.5,29.5 Z"></path></g><g><path style="opacity:1" fill="#280400" d="M 30.5,31.5 C 30.5,31.1667 30.5,30.8333 30.5,30.5C 31.1667,30.5 31.8333,30.5 32.5,30.5C 33.1834,32.1765 34.5168,32.8432 36.5,32.5C 36.8333,32.5 37.1667,32.5 37.5,32.5C 38.1667,32.5 38.8333,32.5 39.5,32.5C 39.8333,32.5 40.1667,32.5 40.5,32.5C 41.1667,31.8333 41.8333,31.1667 42.5,30.5C 42.8333,30.5 43.1667,30.5 43.5,30.5C 42.8902,31.391 42.5569,32.391 42.5,33.5C 38.8333,33.5 35.1667,33.5 31.5,33.5C 31.6716,32.5084 31.3382,31.8417 30.5,31.5 Z"></path></g><g><path style="opacity:1" fill="#ebd9ac" d="M 5.5,30.5 C 5.58577,31.4959 5.25244,32.3292 4.5,33C 6.13414,33.4935 7.80081,33.6602 9.5,33.5C 9.5,33.8333 9.5,34.1667 9.5,34.5C 6.9407,34.8016 4.60737,34.4682 2.5,33.5C 3.27187,32.3065 4.27187,31.3065 5.5,30.5 Z"></path></g><g><path style="opacity:1" fill="#f2d9b4" d="M 9.5,29.5 C 12.3878,28.9898 14.7211,29.6565 16.5,31.5C 15.8333,31.5 15.5,31.8333 15.5,32.5C 14.2502,32.4226 13.4169,31.756 13,30.5C 11.6658,31.8779 11.4991,33.2113 12.5,34.5C 11.5,34.5 10.5,34.5 9.5,34.5C 9.5,34.1667 9.5,33.8333 9.5,33.5C 9.16667,32.8333 8.83333,32.1667 8.5,31.5C 9.33825,31.1583 9.67158,30.4916 9.5,29.5 Z"></path></g><g><path style="opacity:1" fill="#ecd4a5" d="M 15.5,32.5 C 15.5,33.1667 15.5,33.8333 15.5,34.5C 14.5,34.5 13.5,34.5 12.5,34.5C 11.4991,33.2113 11.6658,31.8779 13,30.5C 13.4169,31.756 14.2502,32.4226 15.5,32.5 Z"></path></g><g><path style="opacity:1" fill="#da542e" d="M 43.5,30.5 C 44.8333,32.1667 44.8333,33.8333 43.5,35.5C 43.1667,34.8333 42.8333,34.1667 42.5,33.5C 42.5569,32.391 42.8902,31.391 43.5,30.5 Z"></path></g><g><path style="opacity:1" fill="#bd512d" d="M 45.5,37.5 C 45.1667,37.5 44.8333,37.5 44.5,37.5C 44.5,36.8333 44.1667,36.5 43.5,36.5C 43.5,36.1667 43.5,35.8333 43.5,35.5C 44.8333,33.8333 44.8333,32.1667 43.5,30.5C 43.3691,29.6236 43.7025,28.9569 44.5,28.5C 45.4841,31.4281 45.8174,34.4281 45.5,37.5 Z"></path></g><g><path style="opacity:1" fill="#010900" d="M 1.5,32.5 C 2.16667,32.5 2.5,32.8333 2.5,33.5C 4.60737,34.4682 6.9407,34.8016 9.5,34.5C 10.5,34.5 11.5,34.5 12.5,34.5C 13.5,34.5 14.5,34.5 15.5,34.5C 17.8333,34.5 20.1667,34.5 22.5,34.5C 23.1667,34.5 23.8333,34.5 24.5,34.5C 24.5,34.8333 24.5,35.1667 24.5,35.5C 16.8333,35.5 9.16667,35.5 1.5,35.5C 1.5,35.1667 1.5,34.8333 1.5,34.5C 1.5,33.8333 1.5,33.1667 1.5,32.5 Z"></path></g><g><path style="opacity:1" fill="#db5927" d="M 30.5,31.5 C 31.3382,31.8417 31.6716,32.5084 31.5,33.5C 31.5,34.1667 31.5,34.8333 31.5,35.5C 31.1667,35.5 30.8333,35.5 30.5,35.5C 29.1667,34.1667 29.1667,32.8333 30.5,31.5 Z"></path></g><g><path style="opacity:1" fill="#a55439" d="M 31.5,33.5 C 35.1667,33.5 38.8333,33.5 42.5,33.5C 42.8333,34.1667 43.1667,34.8333 43.5,35.5C 39.5,35.5 35.5,35.5 31.5,35.5C 31.5,34.8333 31.5,34.1667 31.5,33.5 Z"></path></g><g><path style="opacity:1" fill="#2d2d21" d="M 1.5,34.5 C 1.5,34.8333 1.5,35.1667 1.5,35.5C 1.5,36.5 1.5,37.5 1.5,38.5C 0.661754,38.8417 0.32842,39.5084 0.5,40.5C 0.5,40.8333 0.5,41.1667 0.5,41.5C 0.5,41.8333 0.5,42.1667 0.5,42.5C 0.166667,42.5 -0.166667,42.5 -0.5,42.5C -0.5,40.1667 -0.5,37.8333 -0.5,35.5C 0.166667,35.1667 0.833333,34.8333 1.5,34.5 Z"></path></g><g><path style="opacity:1" fill="#190604" d="M 31.5,36.5 C 31.5,36.1667 31.5,35.8333 31.5,35.5C 35.5,35.5 39.5,35.5 43.5,35.5C 43.5,35.8333 43.5,36.1667 43.5,36.5C 43.702,38.9496 43.3686,41.283 42.5,43.5C 42.1667,43.5 41.8333,43.5 41.5,43.5C 41.5,43.1667 41.5,42.8333 41.5,42.5C 41.5,41.8333 41.5,41.1667 41.5,40.5C 41.5,40.1667 41.5,39.8333 41.5,39.5C 42.404,38.791 42.7373,37.791 42.5,36.5C 38.8333,36.5 35.1667,36.5 31.5,36.5 Z"></path></g><g><path style="opacity:1" fill="#80bd54" d="M 1.5,35.5 C 9.16667,35.5 16.8333,35.5 24.5,35.5C 24.5,36.5 24.5,37.5 24.5,38.5C 22.8333,38.5 21.1667,38.5 19.5,38.5C 14.5,38.5 9.5,38.5 4.5,38.5C 3.5,38.5 2.5,38.5 1.5,38.5C 1.5,37.5 1.5,36.5 1.5,35.5 Z"></path></g><g><path style="opacity:1" fill="#666567" d="M 31.5,36.5 C 35.1667,36.5 38.8333,36.5 42.5,36.5C 42.7373,37.791 42.404,38.791 41.5,39.5C 39.3647,37.631 36.6981,36.9644 33.5,37.5C 32.596,38.209 32.2627,39.209 32.5,40.5C 31.5655,39.4324 31.2322,38.099 31.5,36.5 Z"></path></g><g><path style="opacity:1" fill="#0f1f1d" d="M 24.5,35.5 C 25.404,36.209 25.7373,37.209 25.5,38.5C 26.6857,39.9613 26.6857,41.2946 25.5,42.5C 25.1667,42.5 24.8333,42.5 24.5,42.5C 24.5,41.5 24.5,40.5 24.5,39.5C 24.5,39.1667 24.5,38.8333 24.5,38.5C 24.5,37.5 24.5,36.5 24.5,35.5 Z"></path></g><g><path style="opacity:1" fill="#2b0300" d="M 30.5,35.5 C 30.8333,35.5 31.1667,35.5 31.5,35.5C 31.5,35.8333 31.5,36.1667 31.5,36.5C 31.2322,38.099 31.5655,39.4324 32.5,40.5C 32.5,41.1667 32.5,41.8333 32.5,42.5C 35.2869,43.4767 38.2869,43.81 41.5,43.5C 41.8333,43.5 42.1667,43.5 42.5,43.5C 39.0381,44.4816 35.3714,44.815 31.5,44.5C 30.8413,41.5448 30.5079,38.5448 30.5,35.5 Z"></path></g><g><path style="opacity:1" fill="#100000" d="M 1.5,38.5 C 2.5,38.5 3.5,38.5 4.5,38.5C 4.5,39.1667 4.83333,39.5 5.5,39.5C 5.5,39.8333 5.5,40.1667 5.5,40.5C 5.16667,40.5 4.83333,40.5 4.5,40.5C 3.16667,39.1667 1.83333,39.1667 0.5,40.5C 0.32842,39.5084 0.661754,38.8417 1.5,38.5 Z"></path></g><g><path style="opacity:1" fill="#130e02" d="M 4.5,38.5 C 9.5,38.5 14.5,38.5 19.5,38.5C 19.5,38.8333 19.5,39.1667 19.5,39.5C 16.8127,39.3359 14.146,39.5026 11.5,40C 13.0779,41.0945 14.7446,41.9278 16.5,42.5C 16.5,42.8333 16.5,43.1667 16.5,43.5C 16.5,43.8333 16.5,44.1667 16.5,44.5C 14.9382,44.2671 13.6049,43.6005 12.5,42.5C 12.1667,42.5 11.8333,42.5 11.5,42.5C 10.3126,40.0246 8.3126,39.0246 5.5,39.5C 4.83333,39.5 4.5,39.1667 4.5,38.5 Z"></path></g><g><path style="opacity:1" fill="#1b0e03" d="M 19.5,39.5 C 19.5,39.1667 19.5,38.8333 19.5,38.5C 21.1667,38.5 22.8333,38.5 24.5,38.5C 24.5,38.8333 24.5,39.1667 24.5,39.5C 22.5956,39.7376 21.2623,40.7376 20.5,42.5C 19.8333,42.1667 19.1667,41.8333 18.5,41.5C 18.9175,40.7784 19.5842,40.2784 20.5,40C 20.2716,39.6012 19.9382,39.4346 19.5,39.5 Z"></path></g><g><path style="opacity:1" fill="#c5d0d6" d="M 33.5,37.5 C 33.5,38.8333 34.1667,39.5 35.5,39.5C 34.5,40.5 33.5,41.5 32.5,42.5C 32.5,41.8333 32.5,41.1667 32.5,40.5C 32.2627,39.209 32.596,38.209 33.5,37.5 Z"></path></g><g><path style="opacity:1" fill="#b7c5c4" d="M 33.5,37.5 C 36.6981,36.9644 39.3647,37.631 41.5,39.5C 41.5,39.8333 41.5,40.1667 41.5,40.5C 39.7085,40.366 38.0418,40.6993 36.5,41.5C 36.6716,40.5084 36.3382,39.8417 35.5,39.5C 34.1667,39.5 33.5,38.8333 33.5,37.5 Z"></path></g><g><path style="opacity:1" fill="#7f5e5c" d="M 47.5,29.5 C 47.5,32.8333 47.5,36.1667 47.5,39.5C 46.8333,41.1667 46.1667,42.8333 45.5,44.5C 45.5,43.8333 45.1667,43.5 44.5,43.5C 44.5,41.5 44.5,39.5 44.5,37.5C 44.8333,37.5 45.1667,37.5 45.5,37.5C 46.1667,34.8333 46.8333,32.1667 47.5,29.5 Z"></path></g><g><path style="opacity:1" fill="#a77449" d="M 4.5,40.5 C 6.03105,41.9245 5.69772,42.5912 3.5,42.5C 2.39105,42.4431 1.39105,42.1098 0.5,41.5C 0.5,41.1667 0.5,40.8333 0.5,40.5C 1.83333,39.1667 3.16667,39.1667 4.5,40.5 Z"></path></g><g><path style="opacity:1" fill="#d6b34e" d="M 19.5,39.5 C 19.9382,39.4346 20.2716,39.6012 20.5,40C 19.5842,40.2784 18.9175,40.7784 18.5,41.5C 17.8333,41.8333 17.1667,42.1667 16.5,42.5C 14.7446,41.9278 13.0779,41.0945 11.5,40C 14.146,39.5026 16.8127,39.3359 19.5,39.5 Z"></path></g><g><path style="opacity:1" fill="#aea8b1" d="M 35.5,39.5 C 36.3382,39.8417 36.6716,40.5084 36.5,41.5C 37.9187,42.4511 39.5853,42.7845 41.5,42.5C 41.5,42.8333 41.5,43.1667 41.5,43.5C 38.2869,43.81 35.2869,43.4767 32.5,42.5C 33.5,41.5 34.5,40.5 35.5,39.5 Z"></path></g><g><path style="opacity:1" fill="#ccae54" d="M 5.5,40.5 C 5.5,40.1667 5.5,39.8333 5.5,39.5C 8.3126,39.0246 10.3126,40.0246 11.5,42.5C 9.29719,42.3964 7.29719,41.7298 5.5,40.5 Z"></path></g><g><path style="opacity:1" fill="#946442" d="M 24.5,39.5 C 24.5,40.5 24.5,41.5 24.5,42.5C 23.1667,42.5 21.8333,42.5 20.5,42.5C 21.2623,40.7376 22.5956,39.7376 24.5,39.5 Z"></path></g><g><path style="opacity:1" fill="#b7c2c9" d="M 41.5,40.5 C 41.5,41.1667 41.5,41.8333 41.5,42.5C 39.5853,42.7845 37.9187,42.4511 36.5,41.5C 38.0418,40.6993 39.7085,40.366 41.5,40.5 Z"></path></g><g><path style="opacity:1" fill="#140e0d" d="M 0.5,41.5 C 1.39105,42.1098 2.39105,42.4431 3.5,42.5C 3.5,42.8333 3.5,43.1667 3.5,43.5C 2.56127,44.3274 2.89461,44.9941 4.5,45.5C 9.64045,46.4881 14.9738,46.8214 20.5,46.5C 20.5,46.8333 20.5,47.1667 20.5,47.5C 14.8333,47.5 9.16667,47.5 3.5,47.5C 2.24848,45.9991 1.24848,44.3325 0.5,42.5C 0.5,42.1667 0.5,41.8333 0.5,41.5 Z"></path></g><g><path style="opacity:1" fill="#1e1004" d="M 4.5,40.5 C 4.83333,40.5 5.16667,40.5 5.5,40.5C 7.29719,41.7298 9.29719,42.3964 11.5,42.5C 11.8333,42.5 12.1667,42.5 12.5,42.5C 11.4863,43.6737 10.153,44.3404 8.5,44.5C 7.08134,43.5489 5.41467,43.2155 3.5,43.5C 3.5,43.1667 3.5,42.8333 3.5,42.5C 5.69772,42.5912 6.03105,41.9245 4.5,40.5 Z"></path></g><g><path style="opacity:1" fill="#0f0000" d="M 18.5,41.5 C 19.1667,41.8333 19.8333,42.1667 20.5,42.5C 21.8333,42.5 23.1667,42.5 24.5,42.5C 24.5,42.8333 24.5,43.1667 24.5,43.5C 23.8333,43.5 23.1667,43.5 22.5,43.5C 20.5,43.5 18.5,43.5 16.5,43.5C 16.5,43.1667 16.5,42.8333 16.5,42.5C 17.1667,42.1667 17.8333,41.8333 18.5,41.5 Z"></path></g><g><path style="opacity:1" fill="#58b9d9" d="M 27.5,35.5 C 27.2627,36.791 27.596,37.791 28.5,38.5C 28.5,41.1667 28.5,43.8333 28.5,46.5C 27.5116,45.205 26.5116,43.8717 25.5,42.5C 26.6857,41.2946 26.6857,39.9613 25.5,38.5C 26.1667,37.5 26.8333,36.5 27.5,35.5 Z"></path></g><g><path style="opacity:1" fill="#96533a" d="M 43.5,36.5 C 44.1667,36.5 44.5,36.8333 44.5,37.5C 44.5,39.5 44.5,41.5 44.5,43.5C 44.5858,44.4959 44.2524,45.3292 43.5,46C 38.9796,46.8136 34.6463,46.647 30.5,45.5C 31.1667,45.5 31.5,45.1667 31.5,44.5C 35.3714,44.815 39.0381,44.4816 42.5,43.5C 43.3686,41.283 43.702,38.9496 43.5,36.5 Z"></path></g><g><path style="opacity:1" fill="#f3d7a1" d="M 3.5,43.5 C 5.41467,43.2155 7.08134,43.5489 8.5,44.5C 8.5,44.8333 8.5,45.1667 8.5,45.5C 7.16667,45.5 5.83333,45.5 4.5,45.5C 2.89461,44.9941 2.56127,44.3274 3.5,43.5 Z"></path></g><g><path style="opacity:1" fill="#f0dbab" d="M 12.5,42.5 C 13.6049,43.6005 14.9382,44.2671 16.5,44.5C 15.3211,45.5771 12.6544,45.9104 8.5,45.5C 8.5,45.1667 8.5,44.8333 8.5,44.5C 10.153,44.3404 11.4863,43.6737 12.5,42.5 Z"></path></g><g><path style="opacity:1" fill="#bbaa82" d="M 16.5,44.5 C 16.5,44.1667 16.5,43.8333 16.5,43.5C 18.5,43.5 20.5,43.5 22.5,43.5C 22.2178,44.7777 21.5511,45.7777 20.5,46.5C 14.9738,46.8214 9.64045,46.4881 4.5,45.5C 5.83333,45.5 7.16667,45.5 8.5,45.5C 12.6544,45.9104 15.3211,45.5771 16.5,44.5 Z"></path></g><g><path style="opacity:1" fill="#13211b" d="M 22.5,43.5 C 23.1667,43.5 23.8333,43.5 24.5,43.5C 23.853,45.1405 22.853,46.4739 21.5,47.5C 21.1667,47.5 20.8333,47.5 20.5,47.5C 20.5,47.1667 20.5,46.8333 20.5,46.5C 21.5511,45.7777 22.2178,44.7777 22.5,43.5 Z"></path></g><g><path style="opacity:1" fill="#5dd3de" d="M 24.5,42.5 C 24.8333,42.5 25.1667,42.5 25.5,42.5C 26.5116,43.8717 27.5116,45.205 28.5,46.5C 28.5,46.8333 28.5,47.1667 28.5,47.5C 26.1667,47.5 23.8333,47.5 21.5,47.5C 22.853,46.4739 23.853,45.1405 24.5,43.5C 24.5,43.1667 24.5,42.8333 24.5,42.5 Z"></path></g><g><path style="opacity:1" fill="#1a0304" d="M 28.5,38.5 C 29.1667,40.8333 29.8333,43.1667 30.5,45.5C 34.6463,46.647 38.9796,46.8136 43.5,46C 44.2524,45.3292 44.5858,44.4959 44.5,43.5C 45.1667,43.5 45.5,43.8333 45.5,44.5C 45.5,45.5 45.5,46.5 45.5,47.5C 39.8333,47.5 34.1667,47.5 28.5,47.5C 28.5,47.1667 28.5,46.8333 28.5,46.5C 28.5,43.8333 28.5,41.1667 28.5,38.5 Z"></path></g></svg>