<svg xmlns="http://www.w3.org/2000/svg" width="48" height="48"><path d="M0 0 C0.33 1.32 0.66 2.64 1 4 C-0.98 4.33 -2.96 4.66 -5 5 C-5 6.65 -5 8.3 -5 10 C-2.36 10 0.28 10 3 10 C3 10.99 3 11.98 3 13 C3.99 13.33 4.98 13.66 6 14 C6.495 16.475 6.495 16.475 7 19 C7.99 19 8.98 19 10 19 C10 19.66 10 20.32 10 21 C10.99 21 11.98 21 13 21 C13.495 19.515 13.495 19.515 14 18 C15.32 18 16.64 18 18 18 C19.364255 22.092765 19.18423053 25.90122953 19.1875 30.1875 C19.19974609 31.01314453 19.21199219 31.83878906 19.22460938 32.68945312 C19.22654297 33.50736328 19.22847656 34.32527344 19.23046875 35.16796875 C19.23457764 35.90297607 19.23868652 36.6379834 19.24291992 37.39526367 C18.9013869 41.05739016 17.9470815 44.44650891 17 48 C11.09187458 48.12362482 5.18450226 48.2143513 -0.72460938 48.2746582 C-2.7345084 48.29979816 -4.74431605 48.33391529 -6.75390625 48.37719727 C-9.64345844 48.43787215 -12.53180192 48.46621447 -15.421875 48.48828125 C-16.31992859 48.51408768 -17.21798218 48.5398941 -18.14324951 48.56648254 C-24.36990323 48.56928008 -24.36990323 48.56928008 -27.56738281 45.68041992 C-29.47770481 42.10621657 -29.55339158 40.01208898 -29 36 C-27.9748099 33.14905 -26.87184955 31.51221913 -25 29 C-21.75 27.5625 -21.75 27.5625 -19 27 C-19 24.03 -19 21.06 -19 18 C-19.66 18 -20.32 18 -21 18 C-20.65198447 15.42468508 -20.29035995 13.45167104 -18.875 11.25 C-16.08261228 9.38840818 -13.28926502 9.31030802 -10 9 C-10 6.69 -10 4.38 -10 2 C-6.5980513 -0.09350689 -3.94727588 -0.17942163 0 0 Z M-16 12 C-16 12.33 -16 12.66 -16 13 C-10.39 13 -4.78 13 1 13 C1 12.67 1 12.34 1 12 C-4.61 12 -10.22 12 -16 12 Z M-17 15 C-17 15.33 -17 15.66 -17 16 C-13.37 16 -9.74 16 -6 16 C-6 15.67 -6 15.34 -6 15 C-9.63 15 -13.26 15 -17 15 Z " fill="#56612F" transform="translate(29,0)"></path><path d="M0 0 C1.32 0 2.64 0 4 0 C5.364255 4.092765 5.18423053 7.90122953 5.1875 12.1875 C5.19974609 13.01314453 5.21199219 13.83878906 5.22460938 14.68945312 C5.22750977 15.91631836 5.22750977 15.91631836 5.23046875 17.16796875 C5.23457764 17.90297607 5.23868652 18.6379834 5.24291992 19.39526367 C4.90741403 22.99276349 3.87630807 26.49476772 3 30 C-2.61 30 -8.22 30 -14 30 C-16.14285714 15.80357143 -16.14285714 15.80357143 -16 10 C-15.34 10 -14.68 10 -14 10 C-14 7.36 -14 4.72 -14 2 C-12.58344207 1.9727585 -11.16672955 1.95349533 -9.75 1.9375 C-8.56664062 1.92009766 -8.56664062 1.92009766 -7.359375 1.90234375 C-5.09308998 1.99614694 -3.1711105 2.36758937 -1 3 C-0.67 2.01 -0.34 1.02 0 0 Z " fill="#C36442" transform="translate(43,18)"></path><path d="M0 0 C0.33 0.66 0.66 1.32 1 2 C1.99 2 2.98 2 4 2 C3.67 2.66 3.34 3.32 3 4 C1.68 3.67 0.36 3.34 -1 3 C-1.33 3.66 -1.66 4.32 -2 5 C-2 4.34 -2 3.68 -2 3 C-3.32 3 -4.64 3 -6 3 C-6 5.64 -6 8.28 -6 11 C-6.66 11 -7.32 11 -8 11 C-7.855625 11.85722656 -7.71125 12.71445312 -7.5625 13.59765625 C-6.61141112 19.45609958 -5.7238059 25.06182678 -6 31 C-8.31 31 -10.62 31 -13 31 C-12.34 30.67 -11.68 30.34 -11 30 C-8.76973505 26.65460258 -8.46743227 23.95621743 -9 20 C-10.19279258 16.8443109 -11.55059083 14.34315626 -14 12 C-17.17443482 11.00732557 -19.61847565 11 -23 11 C-23 7.7 -23 4.4 -23 1 C-15.41 0.67 -7.82 0.34 0 0 Z " fill="#2BC8E1" transform="translate(35,17)"></path><path d="M0 0 C1.32 0 2.64 0 4 0 C6.14006369 6.42019108 4.95781181 13.41504378 4 20 C3.67 20 3.34 20 3 20 C2.67 17.36 2.34 14.72 2 12 C1.34 13.65 0.68 15.3 0 17 C-3.63 17 -7.26 17 -11 17 C-11 16.67 -11 16.34 -11 16 C-8.36 16 -5.72 16 -3 16 C-3 12.37 -3 8.74 -3 5 C-3.66 5 -4.32 5 -5 5 C-5 8.3 -5 11.6 -5 15 C-5.99 15 -6.98 15 -8 15 C-8 11.7 -8 8.4 -8 5 C-8.66 5 -9.32 5 -10 5 C-10 7.31 -10 9.62 -10 12 C-11.32 11.67 -12.64 11.34 -14 11 C-13.34 16.61 -12.68 22.22 -12 28 C-7.71 28 -3.42 28 1 28 C1.33 26.02 1.66 24.04 2 22 C2.33 22 2.66 22 3 22 C3 24.64 3 27.28 3 30 C-2.61 30 -8.22 30 -14 30 C-16.14285714 15.80357143 -16.14285714 15.80357143 -16 10 C-15.34 10 -14.68 10 -14 10 C-14 7.36 -14 4.72 -14 2 C-12.58344207 1.9727585 -11.16672955 1.95349533 -9.75 1.9375 C-8.56664062 1.92009766 -8.56664062 1.92009766 -7.359375 1.90234375 C-5.09308998 1.99614694 -3.1711105 2.36758937 -1 3 C-0.67 2.01 -0.34 1.02 0 0 Z " fill="#2A2012" transform="translate(43,18)"></path><path d="M0 0 C0.33 1.32 0.66 2.64 1 4 C-0.98 4.33 -2.96 4.66 -5 5 C-5 6.65 -5 8.3 -5 10 C-2.36 10 0.28 10 3 10 C3 10.99 3 11.98 3 13 C3.99 13.33 4.98 13.66 6 14 C6 15.32 6 16.64 6 18 C-1.92 18 -9.84 18 -18 18 C-18 21.3 -18 24.6 -18 28 C-18.99 27.67 -19.98 27.34 -21 27 C-20.34 27 -19.68 27 -19 27 C-19 24.03 -19 21.06 -19 18 C-19.66 18 -20.32 18 -21 18 C-20.65198447 15.42468508 -20.29035995 13.45167104 -18.875 11.25 C-16.08261228 9.38840818 -13.28926502 9.31030802 -10 9 C-10 6.69 -10 4.38 -10 2 C-6.5980513 -0.09350689 -3.94727588 -0.17942163 0 0 Z M-16 12 C-16 12.33 -16 12.66 -16 13 C-10.39 13 -4.78 13 1 13 C1 12.67 1 12.34 1 12 C-4.61 12 -10.22 12 -16 12 Z M-17 15 C-17 15.33 -17 15.66 -17 16 C-13.37 16 -9.74 16 -6 16 C-6 15.67 -6 15.34 -6 15 C-9.63 15 -13.26 15 -17 15 Z " fill="#44413D" transform="translate(29,0)"></path><path d="M0 0 C4.29 0 8.58 0 13 0 C12.67 2.97 12.34 5.94 12 9 C8.37 9 4.74 9 1 9 C0.67 6.03 0.34 3.06 0 0 Z " fill="#371E1E" transform="translate(31,36)"></path><path d="M0 0 C2.00124361 0.32578384 4.00102872 0.66055205 6 1 C6.86625 1.12375 7.7325 1.2475 8.625 1.375 C11 2 11 2 12.8125 3.5625 C16.17092292 5.76946363 19.03560431 5.19821978 23 5 C23 5.66 23 6.32 23 7 C19.74931131 8.62534434 16.19857119 8.59006409 12.625 8.875 C11.85671875 8.96007813 11.0884375 9.04515625 10.296875 9.1328125 C8.09544315 9.30039555 6.17800886 9.36768658 4 9 C1.4609375 6.7578125 1.4609375 6.7578125 0 4 C0 2.68 0 1.36 0 0 Z " fill="#695334" transform="translate(0,39)"></path><path d="M0 0 C0.95648438 -0.02578125 1.91296875 -0.0515625 2.8984375 -0.078125 C6.04798247 0.30090333 7.40901362 1.00250671 9.625 3.25 C9.625 4.24 9.625 5.23 9.625 6.25 C3.025 6.25 -3.575 6.25 -10.375 6.25 C-6.82981585 0.34135974 -6.35167882 0.10217178 0 0 Z " fill="#F5DEB8" transform="translate(13.375,28.75)"></path><path d="M0 0 C0 0.33 0 0.66 0 1 C-0.969375 1.12375 -1.93875 1.2475 -2.9375 1.375 C-4.4534375 1.684375 -4.4534375 1.684375 -6 2 C-6.33 2.66 -6.66 3.32 -7 4 C-0.30386804 4.797837 6.25766581 5.12910853 13 5 C13 5.66 13 6.32 13 7 C2.605 7.495 2.605 7.495 -8 8 C-8.33 11.3 -8.66 14.6 -9 18 C-9.99 17.67 -10.98 17.34 -12 17 C-11.34 17 -10.68 17 -10 17 C-10 14.03 -10 11.06 -10 8 C-10.66 8 -11.32 8 -12 8 C-11.65447612 5.44312331 -11.24912987 3.42498625 -9.9375 1.1875 C-6.75444301 -0.7634059 -3.67569327 -0.1807718 0 0 Z " fill="#868685" transform="translate(20,10)"></path><path d="M0 0 C0.33 0 0.66 0 1 0 C1 3.3 1 6.6 1 10 C2.4025 9.896875 3.805 9.79375 5.25 9.6875 C8.99381115 9.67570847 9.6566201 9.69012058 12.5625 12.3125 C14 15 14 15 14 18 C6.41 18 -1.18 18 -9 18 C-8.67 16.02 -8.34 14.04 -8 12 C-5 10 -5 10 0 10 C0 6.7 0 3.4 0 0 Z M-6.1875 13.4375 C-8.09624412 15.61294929 -8.09624412 15.61294929 -8 17 C-1.4 17 5.2 17 12 17 C11.4260261 12.79819816 11.4260261 12.79819816 8 11 C2.97755431 10.26140504 -2.36388526 9.62490432 -6.1875 13.4375 Z " fill="#111915" transform="translate(11,18)"></path><path d="M0 0 C1.32 0.66 2.64 1.32 4 2 C4 5.63 4 9.26 4 13 C1.36 13 -1.28 13 -4 13 C-4.33 11.68 -4.66 10.36 -5 9 C-4.34 9 -3.68 9 -3 9 C-3 6.69 -3 4.38 -3 2 C-2.34 2 -1.68 2 -1 2 C-0.67 1.34 -0.34 0.68 0 0 Z " fill="#99884D" transform="translate(36,21)"></path><path d="M0 0 C0 1.65 0 3.3 0 5 C-4.79300133 6.39151652 -9.15135782 5.68662689 -14 5 C-14 3.68 -14 2.36 -14 1 C-12.41693353 0.83081732 -10.83353281 0.66476064 -9.25 0.5 C-8.36828125 0.4071875 -7.4865625 0.314375 -6.578125 0.21875 C-4 0 -4 0 0 0 Z " fill="#09E1FA" transform="translate(27,21)"></path><path d="M0 0 C0.33 0.66 0.66 1.32 1 2 C1.99 2 2.98 2 4 2 C3.67 2.66 3.34 3.32 3 4 C1.68 3.67 0.36 3.34 -1 3 C-1.33 3.66 -1.66 4.32 -2 5 C-2 4.01 -2 3.02 -2 2 C-4.64 2 -7.28 2 -10 2 C-10 2.66 -10 3.32 -10 4 C-14.01804691 4.84098656 -17.01803543 5.05404945 -21 4 C-21 3.34 -21 2.68 -21 2 C-21.66 1.67 -22.32 1.34 -23 1 C-15.41 0.67 -7.82 0.34 0 0 Z " fill="#7BD1DF" transform="translate(35,17)"></path><path d="M0 0 C2.97 0 5.94 0 9 0 C9 1.98 9 3.96 9 6 C6.03 6 3.06 6 0 6 C0 4.02 0 2.04 0 0 Z " fill="#BAC0C3" transform="translate(33,38)"></path><path d="M0 0 C0.33 0.66 0.66 1.32 1 2 C1.99 2.33 2.98 2.66 4 3 C4 4.32 4 5.64 4 7 C-3.59 7 -11.18 7 -19 7 C-19 6.67 -19 6.34 -19 6 C-12.07 6 -5.14 6 2 6 C2 5.34 2 4.68 2 4 C-3.28 4 -8.56 4 -14 4 C-14 3.67 -14 3.34 -14 3 C-9.38 3 -4.76 3 0 3 C0 2.01 0 1.02 0 0 Z " fill="#0E1317" transform="translate(31,11)"></path><path d="M0 0 C0.99 0 1.98 0 3 0 C4.38529821 5.45461169 5.2396943 10.36718401 5 16 C2.69 16 0.38 16 -2 16 C-1.34 15.67 -0.68 15.34 0 15 C2.21430114 11.6785483 2.32055627 8.92681436 2 5 C1.08742694 2.21433941 1.08742694 2.21433941 0 0 Z " fill="#50C4DE" transform="translate(24,32)"></path><path d="M0 0 C0.66 0 1.32 0 2 0 C2 1.98 2 3.96 2 6 C2.66 6.33 3.32 6.66 4 7 C3.34 8.65 2.68 10.3 2 12 C-1.63 12 -5.26 12 -9 12 C-9 11.67 -9 11.34 -9 11 C-6.36 11 -3.72 11 -1 11 C-1.020625 9.9275 -1.04125 8.855 -1.0625 7.75 C-1.0142016 4.85209576 -0.86844115 2.71387859 0 0 Z " fill="#74492A" transform="translate(41,23)"></path><path d="M0 0 C1.32 0 2.64 0 4 0 C5.1577506 3.47325181 5.06866652 6.36067448 5 10 C3.68 10 2.36 10 1 10 C0.67 8.02 0.34 6.04 0 4 C-1.32 3.67 -2.64 3.34 -4 3 C-3.01 3 -2.02 3 -1 3 C-0.67 2.01 -0.34 1.02 0 0 Z " fill="#9A8D6A" transform="translate(43,18)"></path><path d="M0 0 C0 2.31 0 4.62 0 7 C0.66 7 1.32 7 2 7 C2 5.02 2 3.04 2 1 C2.33 1 2.66 1 3 1 C3.91397824 6.68697571 3.91397824 11.31302429 3 17 C2.67 17 2.34 17 2 17 C2 14.03 2 11.06 2 8 C1.01 8 0.02 8 -1 8 C-1 6.02 -1 4.04 -1 2 C-1.66 2 -2.32 2 -3 2 C-3.33 3.32 -3.66 4.64 -4 6 C-4.33 4.35 -4.66 2.7 -5 1 C-1.125 0 -1.125 0 0 0 Z " fill="#170402" transform="translate(44,21)"></path><path d="M0 0 C1.6662553 0.0370279 3.33401319 0.04759962 5 0 C5 0.66 5 1.32 5 2 C-1.27 2 -7.54 2 -14 2 C-14.33 1.34 -14.66 0.68 -15 0 C-12.98177083 0.03255208 -10.96354167 0.06510417 -8.9453125 0.09765625 C-1.35414792 -0.28342631 -1.35414792 -0.28342631 0 0 Z " fill="#ECD7A6" transform="translate(18,44)"></path><path d="M0 0 C0.33 0 0.66 0 1 0 C1.02689216 1.47906892 1.04634621 2.95827483 1.0625 4.4375 C1.07410156 5.26121094 1.08570313 6.08492187 1.09765625 6.93359375 C1 9 1 9 0 10 C-2.18639453 10.07258946 -4.37500389 10.08373783 -6.5625 10.0625 C-8.35880859 10.04896484 -8.35880859 10.04896484 -10.19140625 10.03515625 C-11.11824219 10.02355469 -12.04507812 10.01195312 -13 10 C-13 9.67 -13 9.34 -13 9 C-8.9472484 8.01751476 -5.16138263 7.91840426 -1 8 C-0.67 5.36 -0.34 2.72 0 0 Z " fill="#93523B" transform="translate(44,37)"></path><path d="M0 0 C0.33 0.66 0.66 1.32 1 2 C-0.65 2.33 -2.3 2.66 -4 3 C-4 4.98 -4 6.96 -4 9 C-4.66 9 -5.32 9 -6 9 C-5.979375 7.88625 -5.95875 6.7725 -5.9375 5.625 C-5.73619282 2.16784079 -5.73619282 2.16784079 -7 0 C-3.88407501 -1.03864166 -2.9737344 -1.09036928 0 0 Z " fill="#AAA36B" transform="translate(27,1)"></path><path d="M0 0 C2.5 1.3125 2.5 1.3125 5 3 C5 3.99 5 4.98 5 6 C1.37 6 -2.26 6 -6 6 C-5.34 4.68 -4.68 3.36 -4 2 C-4 2.99 -4 3.98 -4 5 C-2.68 4.67 -1.36 4.34 0 4 C0 2.68 0 1.36 0 0 Z " fill="#EDD6AE" transform="translate(18,29)"></path><path d="M0 0 C7.92 0.33 15.84 0.66 24 1 C24 1.33 24 1.66 24 2 C16.08 2.33 8.16 2.66 0 3 C0 2.01 0 1.02 0 0 Z " fill="#346A08" transform="translate(1,35)"></path><path d="M0 0 C2.97 0.495 2.97 0.495 6 1 C5.67 1.99 5.34 2.98 5 4 C2.69 4 0.38 4 -2 4 C-1.34 2.68 -0.68 1.36 0 0 Z " fill="#F2D9AC" transform="translate(5,31)"></path><path d="M0 0 C0.33 0 0.66 0 1 0 C1.18451025 10.55808656 1.18451025 10.55808656 0 15 C-0.33 15 -0.66 15 -1 15 C-1.33 11.7 -1.66 8.4 -2 5 C-1.67 5 -1.34 5 -1 5 C-0.67 3.35 -0.34 1.7 0 0 Z " fill="#A88D87" transform="translate(47,30)"></path><path d="M0 0 C0.66 0.33 1.32 0.66 2 1 C2 2.98 2 4.96 2 7 C0.02 7 -1.96 7 -4 7 C-3.34 6.01 -2.68 5.02 -2 4 C-1.34 4 -0.68 4 0 4 C0 2.68 0 1.36 0 0 Z " fill="#4A4C3C" transform="translate(25,36)"></path><path d="M0 0 C2.64 0 5.28 0 8 0 C6.68 0.33 5.36 0.66 4 1 C4 3.64 4 6.28 4 9 C3.34 8.67 2.68 8.34 2 8 C2 6.35 2 4.7 2 3 C1.34 2.67 0.68 2.34 0 2 C0 1.34 0 0.68 0 0 Z " fill="#2D99B4" transform="translate(25,19)"></path><path d="M0 0 C0.33 0 0.66 0 1 0 C1 2.31 1 4.62 1 7 C-1.31 7 -3.62 7 -6 7 C-5.34 6.67 -4.68 6.34 -4 6 C-3.67 5.01 -3.34 4.02 -3 3 C-2.67 3.66 -2.34 4.32 -2 5 C-1.34 5 -0.68 5 0 5 C0 3.35 0 1.7 0 0 Z " fill="#6AC8D7" transform="translate(28,41)"></path><path d="M0 0 C0.91007813 0.00902344 1.82015625 0.01804687 2.7578125 0.02734375 C3.45648438 0.03894531 4.15515625 0.05054687 4.875 0.0625 C4.545 1.0525 4.215 2.0425 3.875 3.0625 C3.875 2.4025 3.875 1.7425 3.875 1.0625 C1.565 1.0625 -0.745 1.0625 -3.125 1.0625 C-3.125 1.7225 -3.125 2.3825 -3.125 3.0625 C-4.445 2.4025 -5.765 1.7425 -7.125 1.0625 C-4.60024538 -0.19987731 -2.81299534 -0.03606404 0 0 Z " fill="#FAEFCF" transform="translate(13.125,28.9375)"></path></svg>