<svg xmlns="http://www.w3.org/2000/svg" width="48" height="48"><path d="M0 0 C1.65 0 3.3 0 5 0 C5.02505615 0.57967529 5.0501123 1.15935059 5.07592773 1.7565918 C5.19246234 4.40042107 5.31492682 7.04394409 5.4375 9.6875 C5.47681641 10.59951172 5.51613281 11.51152344 5.55664062 12.45117188 C5.59853516 13.33740234 5.64042969 14.22363281 5.68359375 15.13671875 C5.72025146 15.94842529 5.75690918 16.76013184 5.79467773 17.59643555 C6.01251727 20.14653098 6.33703241 22.5259729 7 25 C7.66 25.33 8.32 25.66 9 26 C8.03223902 22.20452079 8.03223902 22.20452079 6 19 C5.70955502 16.2407727 5.6809535 14.56302324 7.0625 12.125 C10.17002199 10.32063239 12.62799333 11.18822062 16 12 C16.495 12.99 16.495 12.99 17 14 C17 12.35 17 10.7 17 9 C14.69 9 12.38 9 10 9 C10.3125 7.125 10.3125 7.125 11 5 C14.47100137 2.68599909 16.32339852 2.62716967 20.4375 2.375 C21.57058594 2.30023438 22.70367187 2.22546875 23.87109375 2.1484375 C26.24524075 2.03580631 28.62318285 2 31 2 C31 4.97 31 7.94 31 11 C28 12 28 12 24 12 C24.144375 13.010625 24.28875 14.02125 24.4375 15.0625 C24.95833333 18.70833333 25.47916667 22.35416667 26 26 C27.65 26.33 29.3 26.66 31 27 C31.08687496 30.12482562 31.14034568 33.24934246 31.1875 36.375 C31.21263672 37.26445313 31.23777344 38.15390625 31.26367188 39.0703125 C31.27333984 39.92109375 31.28300781 40.771875 31.29296875 41.6484375 C31.3086792 42.43395996 31.32438965 43.21948242 31.34057617 44.02880859 C31.17199097 45.00454834 31.17199097 45.00454834 31 46 C27.93857118 48.04095254 27.30258504 48.25288947 23.8515625 48.2746582 C22.60511963 48.28895622 22.60511963 48.28895622 21.33349609 48.30354309 C20.43969238 48.30263168 19.54588867 48.30172028 18.625 48.30078125 C17.70412598 48.30506638 16.78325195 48.3093515 15.83447266 48.31376648 C13.88770368 48.31950889 11.94091324 48.3200107 9.99414062 48.31567383 C7.01134793 48.31251203 4.02954517 48.33598035 1.046875 48.36132812 C-0.84374875 48.36360089 -2.73437516 48.36430472 -4.625 48.36328125 C-5.51880371 48.372491 -6.41260742 48.38170074 -7.33349609 48.39118958 C-8.57993896 48.38184639 -8.57993896 48.38184639 -9.8515625 48.37231445 C-10.58197754 48.37294388 -11.31239258 48.3735733 -12.06494141 48.3742218 C-14.55515024 47.89263926 -15.44891614 46.96807819 -17 45 C-17.34057617 43.00708008 -17.34057617 43.00708008 -17.29296875 40.76953125 C-17.28330078 39.96708984 -17.27363281 39.16464844 -17.26367188 38.33789062 C-17.23853516 37.50451172 -17.21339844 36.67113281 -17.1875 35.8125 C-17.17396484 34.96751953 -17.16042969 34.12253906 -17.14648438 33.25195312 C-17.11115799 31.16769616 -17.05735139 29.08376723 -17 27 C-15.68 26.67 -14.36 26.34 -13 26 C-13.30755545 21.81691364 -13.30755545 21.81691364 -15.5625 18.5 C-17 17 -17 17 -17.375 14 C-17 11 -17 11 -15.6875 9.125 C-14 8 -14 8 -11 8 C-11 9.32 -11 10.64 -11 12 C-10.01 12 -9.02 12 -8 12 C-8 10.68 -8 9.36 -8 8 C-5.625 8.3125 -5.625 8.3125 -3 9 C-0.84497469 12.23253796 -0.53143865 13.25150923 -1 17 C-2.375 18.8125 -2.375 18.8125 -4 20 C-4.66 20 -5.32 20 -6 20 C-6 21.98 -6 23.96 -6 26 C-4.68 25.67 -3.36 25.34 -2 25 C-1.27586627 21.68856994 -0.83645745 18.52155779 -0.68359375 15.13671875 C-0.64169922 14.25048828 -0.59980469 13.36425781 -0.55664062 12.45117188 C-0.51732422 11.53916016 -0.47800781 10.62714844 -0.4375 9.6875 C-0.39431641 8.75615234 -0.35113281 7.82480469 -0.30664062 6.86523438 C-0.20102775 4.57695546 -0.09892248 2.28857628 0 0 Z M16 20 C14.70366379 21.06645115 14.70366379 21.06645115 14.9375 23.5625 C14.958125 24.366875 14.97875 25.17125 15 26 C15.66 26 16.32 26 17 26 C17 24.02 17 22.04 17 20 C16.67 20 16.34 20 16 20 Z " fill="#271F1C" transform="translate(17,0)"></path><path d="M0 0 C1.65 0 3.3 0 5 0 C5.19780055 4.04123121 5.38141429 8.08298804 5.5625 12.125 C5.61857422 13.26710938 5.67464844 14.40921875 5.73242188 15.5859375 C5.78076172 16.69453125 5.82910156 17.803125 5.87890625 18.9453125 C5.9260376 19.96125488 5.97316895 20.97719727 6.02172852 22.02392578 C5.99913862 25.11798001 5.5873296 27.9664525 5 31 C3.35 31.33 1.7 31.66 0 32 C0 32.66 0 33.32 0 34 C-5.28 34 -10.56 34 -16 34 C-16.33 31.69 -16.66 29.38 -17 27 C-15.68 26.67 -14.36 26.34 -13 26 C-13.30755545 21.81691364 -13.30755545 21.81691364 -15.5625 18.5 C-17 17 -17 17 -17.375 14 C-17 11 -17 11 -15.6875 9.125 C-14 8 -14 8 -11 8 C-11 9.32 -11 10.64 -11 12 C-10.01 12 -9.02 12 -8 12 C-8 10.68 -8 9.36 -8 8 C-5.625 8.3125 -5.625 8.3125 -3 9 C-0.84497469 12.23253796 -0.53143865 13.25150923 -1 17 C-2.375 18.8125 -2.375 18.8125 -4 20 C-4.66 20 -5.32 20 -6 20 C-6 21.98 -6 23.96 -6 26 C-4.68 25.67 -3.36 25.34 -2 25 C-1.27586627 21.68856994 -0.83645745 18.52155779 -0.68359375 15.13671875 C-0.64169922 14.25048828 -0.59980469 13.36425781 -0.55664062 12.45117188 C-0.51732422 11.53916016 -0.47800781 10.62714844 -0.4375 9.6875 C-0.39431641 8.75615234 -0.35113281 7.82480469 -0.30664062 6.86523438 C-0.20102775 4.57695546 -0.09892248 2.28857628 0 0 Z " fill="#060802" transform="translate(17,0)"></path><path d="M0 0 C3.63 0 7.26 0 11 0 C11 0.99 11 1.98 11 3 C16.28 3 21.56 3 27 3 C27 6.3 27 9.6 27 13 C12.48 13 -2.04 13 -17 13 C-17 9.7 -17 6.4 -17 3 C-12.71 3 -8.42 3 -4 3 C-3.67 4.65 -3.34 6.3 -3 8 C1.62 8 6.24 8 11 8 C11 7.67 11 7.34 11 7 C7.04 7 3.08 7 -1 7 C-1.33 6.01 -1.66 5.02 -2 4 C-1.34 3.67 -0.68 3.34 0 3 C0 2.01 0 1.02 0 0 Z " fill="#FAC82C" transform="translate(19,33)"></path><path d="M0 0 C0.33 0 0.66 0 1 0 C1 3.63 1 7.26 1 11 C0.505 10.01 0.505 10.01 0 9 C-0.99 9 -1.98 9 -3 9 C-2.814375 9.61875 -2.62875 10.2375 -2.4375 10.875 C-2 13 -2 13 -3 15 C2.28 15 7.56 15 13 15 C13 13.02 13 11.04 13 9 C11.02 9 9.04 9 7 9 C7.33 8.34 7.66 7.68 8 7 C9.66611905 6.957279 11.33382885 6.95936168 13 7 C15.24854714 9.24854714 14.23248301 14.41800844 14.25 17.4375 C14.270625 18.32244141 14.29125 19.20738281 14.3125 20.11914062 C14.32023437 21.38854492 14.32023437 21.38854492 14.328125 22.68359375 C14.34214355 23.85233032 14.34214355 23.85233032 14.35644531 25.04467773 C14.23881836 25.68993408 14.12119141 26.33519043 14 27 C10.93857118 29.04095254 10.30258504 29.25288947 6.8515625 29.2746582 C5.60511963 29.28895622 5.60511963 29.28895622 4.33349609 29.30354309 C3.43969238 29.30263168 2.54588867 29.30172028 1.625 29.30078125 C0.70412598 29.30506638 -0.21674805 29.3093515 -1.16552734 29.31376648 C-3.11229632 29.31950889 -5.05908676 29.3200107 -7.00585938 29.31567383 C-9.98865207 29.31251203 -12.97045483 29.33598035 -15.953125 29.36132812 C-17.84374875 29.36360089 -19.73437516 29.36430472 -21.625 29.36328125 C-22.51880371 29.372491 -23.41260742 29.38170074 -24.33349609 29.39118958 C-25.57993896 29.38184639 -25.57993896 29.38184639 -26.8515625 29.37231445 C-27.58197754 29.37294388 -28.31239258 29.3735733 -29.06494141 29.3742218 C-31.58311711 28.88723073 -32.47116528 28.03123865 -34 26 C-34.29296875 22.86328125 -34.29296875 22.86328125 -34.1875 19.3125 C-34.16042969 18.13300781 -34.13335937 16.95351563 -34.10546875 15.73828125 C-34.07066406 14.83464844 -34.03585938 13.93101563 -34 13 C-33.67 13.66 -33.34 14.32 -33 15 C-27.72 15 -22.44 15 -17 15 C-17 14.34 -17 13.68 -17 13 C-15.35 12.67 -13.7 12.34 -12 12 C-12 10.02 -12 8.04 -12 6 C-10 7 -10 7 -9 9 C-9.66 9 -10.32 9 -11 9 C-11 9.99 -11 10.98 -11 12 C-8.69 12 -6.38 12 -4 12 C-4 10.68 -4 9.36 -4 8 C-2.68 8 -1.36 8 0 8 C0 5.36 0 2.72 0 0 Z M-15 14 C-15 14.99 -15 15.98 -15 17 C-15.99 17.495 -15.99 17.495 -17 18 C-16.67 18.99 -16.34 19.98 -16 21 C-11.71 21 -7.42 21 -3 21 C-4 22 -4 22 -7.16015625 22.09765625 C-9.09181641 22.08025391 -9.09181641 22.08025391 -11.0625 22.0625 C-12.35285156 22.05347656 -13.64320312 22.04445313 -14.97265625 22.03515625 C-15.97167969 22.02355469 -16.97070312 22.01195312 -18 22 C-18.33 20.35 -18.66 18.7 -19 17 C-23.29 17 -27.58 17 -32 17 C-32 20.3 -32 23.6 -32 27 C-17.48 27 -2.96 27 12 27 C12 23.7 12 20.4 12 17 C6.72 17 1.44 17 -4 17 C-4 16.01 -4 15.02 -4 14 C-7.63 14 -11.26 14 -15 14 Z " fill="#3A2608" transform="translate(34,19)"></path><path d="M0 0 C3.63 0 7.26 0 11 0 C11 0.99 11 1.98 11 3 C16.28 3 21.56 3 27 3 C27 6.3 27 9.6 27 13 C12.48 13 -2.04 13 -17 13 C-17 9.7 -17 6.4 -17 3 C-12.71 3 -8.42 3 -4 3 C-4.33 3.66 -4.66 4.32 -5 5 C-8.63 4.67 -12.26 4.34 -16 4 C-16 6.64 -16 9.28 -16 12 C-2.14 12 11.72 12 26 12 C26 9.36 26 6.72 26 4 C24.24929483 4.11470137 22.49942464 4.24219028 20.75 4.375 C19.77546875 4.44460937 18.8009375 4.51421875 17.796875 4.5859375 C15.05100629 4.83559431 15.05100629 4.83559431 13.03125 6.03125 C10.21134937 7.37612569 7.85273228 7.1924507 4.75 7.125 C3.67234375 7.10695313 2.5946875 7.08890625 1.484375 7.0703125 C0.66453125 7.04710937 -0.1553125 7.02390625 -1 7 C-1.33 6.01 -1.66 5.02 -2 4 C-1.34 3.67 -0.68 3.34 0 3 C0 2.01 0 1.02 0 0 Z " fill="#F8D150" transform="translate(19,33)"></path><path d="M0 0 C0.66 2.31 1.32 4.62 2 7 C1.34 7.66 0.68 8.32 0 9 C-0.64767793 11.57061311 -0.64767793 11.57061311 -1 14 C-0.34 14.33 0.32 14.66 1 15 C-0.32 15 -1.64 15 -3 15 C-3 16.32 -3 17.64 -3 19 C-5.31 19 -7.62 19 -10 19 C-10 17.35 -10 15.7 -10 14 C-9.01 14 -8.02 14 -7 14 C-7.96776098 10.20452079 -7.96776098 10.20452079 -10 7 C-10.29044498 4.2407727 -10.3190465 2.56302324 -8.9375 0.125 C-5.88430685 -1.64782183 -3.33588292 -0.69235306 0 0 Z " fill="#181B21" transform="translate(33,12)"></path><path d="M0 0 C0 1.32 0 2.64 0 4 C0.99 4 1.98 4 3 4 C3 2.68 3 1.36 3 0 C5.375 0.3125 5.375 0.3125 8 1 C10.15502531 4.23253796 10.46856135 5.25150923 10 9 C8.625 10.8125 8.625 10.8125 7 12 C6.34 12 5.68 12 5 12 C4.67 15.63 4.34 19.26 4 23 C3.67 23 3.34 23 3 23 C3 19.04 3 15.08 3 11 C4.32 10.67 5.64 10.34 7 10 C7 7.69 7 5.38 7 3 C6.34 2.67 5.68 2.34 5 2 C5 3.32 5 4.64 5 6 C2.69 6 0.38 6 -2 6 C-2.33 5.01 -2.66 4.02 -3 3 C-3.2502157 5.91634129 -3.2502157 5.91634129 -3 9 C-2.01 9.66 -1.02 10.32 0 11 C0.1875 14.625 0.1875 14.625 0 18 C-0.66 18.33 -1.32 18.66 -2 19 C-2.103125 17.906875 -2.20625 16.81375 -2.3125 15.6875 C-2.62543565 12.08001834 -2.62543565 12.08001834 -4.5625 10.4375 C-6 9 -6 9 -6.375 6 C-6 3 -6 3 -4.6875 1.125 C-3 0 -3 0 0 0 Z " fill="#101315" transform="translate(6,8)"></path><path d="M0 0 C1.65 0 3.3 0 5 0 C5.33 7.59 5.66 15.18 6 23 C5.67 22.34 5.34 21.68 5 21 C3.35 21 1.7 21 0 21 C0 14.07 0 7.14 0 0 Z " fill="#010202" transform="translate(17,0)"></path><path d="M0 0 C0.33 1.32 0.66 2.64 1 4 C3.31 4 5.62 4 8 4 C8 2.68 8 1.36 8 0 C8.99 0.33 9.98 0.66 11 1 C10.67 3.31 10.34 5.62 10 8 C8.68 8.33 7.36 8.66 6 9 C6 12.96 6 16.92 6 21 C5.01 21 4.02 21 3 21 C3 17.04 3 13.08 3 9 C1.68 8.34 0.36 7.68 -1 7 C-1.04254356 5.00045254 -1.04080783 2.99958364 -1 1 C-0.67 0.67 -0.34 0.34 0 0 Z " fill="#D0D3D9" transform="translate(3,10)"></path><path d="M0 0 C0.99 0.33 1.98 0.66 3 1 C3 3.97 3 6.94 3 10 C2.01 10.33 1.02 10.66 0 11 C-0.639375 10.649375 -1.27875 10.29875 -1.9375 9.9375 C-2.618125 9.628125 -3.29875 9.31875 -4 9 C-6.23470405 9.78309467 -6.23470405 9.78309467 -8 11 C-8.391875 10.175 -8.78375 9.35 -9.1875 8.5 C-9.785625 7.675 -10.38375 6.85 -11 6 C-13.62694422 5.58219121 -13.62694422 5.58219121 -16 6 C-14.70466731 3.40933462 -13.66290637 3.07160135 -11 2 C-8.45703125 1.62109375 -8.45703125 1.62109375 -5.8125 1.4375 C-2.59996202 1.45010753 -2.59996202 1.45010753 0 0 Z " fill="#373739" transform="translate(45,1)"></path><path d="M0 0 C3.63 0 7.26 0 11 0 C11 0.99 11 1.98 11 3 C11.99 3 12.98 3 14 3 C13.67 4.32 13.34 5.64 13 7 C8.38 7 3.76 7 -1 7 C-1.33 6.01 -1.66 5.02 -2 4 C-1.34 3.67 -0.68 3.34 0 3 C0 2.01 0 1.02 0 0 Z " fill="#AC674E" transform="translate(19,33)"></path><path d="M0 0 C0.33 0 0.66 0 1 0 C1 3.63 1 7.26 1 11 C0.67 10.34 0.34 9.68 0 9 C-0.99 9 -1.98 9 -3 9 C-2.7215625 9.928125 -2.7215625 9.928125 -2.4375 10.875 C-2 13 -2 13 -3 15 C2.28 15 7.56 15 13 15 C13 15.33 13 15.66 13 16 C4.585 16.495 4.585 16.495 -4 17 C-4.33 16.01 -4.66 15.02 -5 14 C-8.3 13.67 -11.6 13.34 -15 13 C-14.01 12.67 -13.02 12.34 -12 12 C-12 10.02 -12 8.04 -12 6 C-10 7 -10 7 -9 9 C-9.66 9 -10.32 9 -11 9 C-11 9.99 -11 10.98 -11 12 C-8.69 12 -6.38 12 -4 12 C-4 10.68 -4 9.36 -4 8 C-2.68 8 -1.36 8 0 8 C0 5.36 0 2.72 0 0 Z M7 7 C8.99954746 6.95745644 11.00041636 6.95919217 13 7 C14 8 14 8 14.0625 11.5625 C14.041875 12.696875 14.02125 13.83125 14 15 C13.67 15 13.34 15 13 15 C13 13.02 13 11.04 13 9 C11.02 9 9.04 9 7 9 C7 8.34 7 7.68 7 7 Z " fill="#080401" transform="translate(34,19)"></path><path d="M0 0 C1.32 0 2.64 0 4 0 C4 0.99 4 1.98 4 3 C5.98 3 7.96 3 10 3 C10 2.01 10 1.02 10 0 C11.65 0 13.3 0 15 0 C15.33 1.98 15.66 3.96 16 6 C10.72 6 5.44 6 0 6 C-1 3 -1 3 0 0 Z " fill="#B5B07C" transform="translate(1,28)"></path><path d="M0 0 C1.66611905 -0.042721 3.33382885 -0.04063832 5 0 C6 1 6 1 6.0625 3.5625 C6.041875 4.366875 6.02125 5.17125 6 6 C5.01 6.33 4.02 6.66 3 7 C3 10.63 3 14.26 3 18 C2.67 18 2.34 18 2 18 C1.92652344 16.84371094 1.92652344 16.84371094 1.8515625 15.6640625 C1.77679687 14.66117188 1.70203125 13.65828125 1.625 12.625 C1.55539063 11.62726562 1.48578125 10.62953125 1.4140625 9.6015625 C1.23636036 6.84491121 1.23636036 6.84491121 -1 5 C-0.625 2.375 -0.625 2.375 0 0 Z " fill="#DCDEE2" transform="translate(26,13)"></path><path d="M0 0 C1.65 0 3.3 0 5 0 C5 1.98 5 3.96 5 6 C-0.28 6 -5.56 6 -11 6 C-11 5.34 -11 4.68 -11 4 C-5.555 3.505 -5.555 3.505 0 3 C0 2.01 0 1.02 0 0 Z " fill="#B8B27D" transform="translate(42,28)"></path><path d="M0 0 C1.32 0 2.64 0 4 0 C4 3.96 4 7.92 4 12 C2.68 12 1.36 12 0 12 C0 8.04 0 4.08 0 0 Z " fill="#B38055" transform="translate(36,19)"></path><path d="M0 0 C0.99 0.33 1.98 0.66 3 1 C3 7.27 3 13.54 3 20 C2.34 20 1.68 20 1 20 C0.202163 13.30386804 -0.12910853 6.74233419 0 0 Z " fill="#727274" transform="translate(17,0)"></path><path d="M0 0 C4.29 0 8.58 0 13 0 C13 1.32 13 2.64 13 4 C9.78571429 7 9.78571429 7 7 7 C6.566875 6.175 6.13375 5.35 5.6875 4.5 C5.130625 3.675 4.57375 2.85 4 2 C1.37305578 1.58219121 1.37305578 1.58219121 -1 2 C-0.67 1.34 -0.34 0.68 0 0 Z " fill="#D4D7DC" transform="translate(30,5)"></path><path d="M0 0 C4.62 0 9.24 0 14 0 C13.67 0.99 13.34 1.98 13 3 C9.04 3 5.08 3 1 3 C0.67 2.01 0.34 1.02 0 0 Z " fill="#E9CC56" transform="translate(17,37)"></path><path d="M0 0 C0.6875 1.8125 0.6875 1.8125 1 4 C-0.3125 5.75 -0.3125 5.75 -2 7 C-2.66 7 -3.32 7 -4 7 C-4.33 10.63 -4.66 14.26 -5 18 C-5.33 18 -5.66 18 -6 18 C-6 14.04 -6 10.08 -6 6 C-4.68 5.67 -3.36 5.34 -2 5 C-0.70339566 2.50965614 -0.70339566 2.50965614 0 0 Z " fill="#141819" transform="translate(15,13)"></path><path d="M0 0 C1.08667969 0.11085937 2.17335938 0.22171875 3.29296875 0.3359375 C4.12441406 0.43132813 4.95585938 0.52671875 5.8125 0.625 C5.8125 0.955 5.8125 1.285 5.8125 1.625 C1.3575 2.12 1.3575 2.12 -3.1875 2.625 C-3.1875 3.285 -3.1875 3.945 -3.1875 4.625 C-5.4975 4.955 -7.8075 5.285 -10.1875 5.625 C-9.875 3.75 -9.875 3.75 -9.1875 1.625 C-5.54331659 -0.80445561 -4.25826636 -0.4578781 0 0 Z " fill="#1D1E21" transform="translate(37.1875,3.375)"></path><path d="M0 0 C0.99 0.33 1.98 0.66 3 1 C2.67 3.31 2.34 5.62 2 8 C0.68 8.33 -0.64 8.66 -2 9 C-2 8.34 -2 7.68 -2 7 C-2.66 7 -3.32 7 -4 7 C-4 6.34 -4 5.68 -4 5 C-2.68 5 -1.36 5 0 5 C0 3.35 0 1.7 0 0 Z " fill="#C9CCD3" transform="translate(11,10)"></path><path d="M0 0 C0.99 0 1.98 0 3 0 C3.33 0.66 3.66 1.32 4 2 C6.52733235 2.65555119 6.52733235 2.65555119 9 3 C9 2.01 9 1.02 9 0 C9.66 0 10.32 0 11 0 C11 0.99 11 1.98 11 3 C11.99 3.33 12.98 3.66 14 4 C9.71 4 5.42 4 1 4 C0.67 2.68 0.34 1.36 0 0 Z " fill="#5B5341" transform="translate(31,28)"></path><path d="M0 0 C2.475 0.495 2.475 0.495 5 1 C5 2.65 5 4.3 5 6 C3.35 6 1.7 6 0 6 C0 4.02 0 2.04 0 0 Z " fill="#B9D392" transform="translate(17,25)"></path><path d="M0 0 C2.09350689 3.4019487 2.17942163 6.05272412 2 10 C0.35 10 -1.3 10 -3 10 C-3 8.35 -3 6.7 -3 5 C-2.01 5 -1.02 5 0 5 C0 3.35 0 1.7 0 0 Z " fill="#606354" transform="translate(26,21)"></path><path d="M0 0 C1.485 0.99 1.485 0.99 3 2 C3 3.32 3 4.64 3 6 C3.66 6.33 4.32 6.66 5 7 C3.68 7 2.36 7 1 7 C0.67 8.32 0.34 9.64 0 11 C0 7.37 0 3.74 0 0 Z " fill="#41454A" transform="translate(29,20)"></path><path d="M0 0 C1.65 0 3.3 0 5 0 C5.33 1.32 5.66 2.64 6 4 C5.01 4.495 5.01 4.495 4 5 C3.01 4.67 2.02 4.34 1 4 C0.3125 1.9375 0.3125 1.9375 0 0 Z " fill="#3D4F31" transform="translate(17,21)"></path><path d="M0 0 C0.28875 0.61875 0.5775 1.2375 0.875 1.875 C1.93720042 4.13325765 1.93720042 4.13325765 4 6 C4.125 8.625 4.125 8.625 4 11 C3.87625 10.071875 3.87625 10.071875 3.75 9.125 C3.18741541 6.81562433 3.18741541 6.81562433 0.9375 5.75 C0.298125 5.5025 -0.34125 5.255 -1 5 C-0.67 3.35 -0.34 1.7 0 0 Z " fill="#0D0E0F" transform="translate(24,14)"></path><path d="M0 0 C1.32 0 2.64 0 4 0 C3.67 1.32 3.34 2.64 3 4 C2.34 4 1.68 4 1 4 C0.67 4.66 0.34 5.32 0 6 C-1 3 -1 3 0 0 Z " fill="#8D8A73" transform="translate(1,28)"></path><path d="M0 0 C2.97 0.33 5.94 0.66 9 1 C9 1.66 9 2.32 9 3 C8.01 3.33 7.02 3.66 6 4 C5.34 3.34 4.68 2.68 4 2 C1.41645782 1.83312552 1.41645782 1.83312552 -1 2 C-0.67 1.34 -0.34 0.68 0 0 Z " fill="#C7CACF" transform="translate(30,5)"></path><path d="M0 0 C1.98 0.495 1.98 0.495 4 1 C4 1.99 4 2.98 4 4 C2.35 3.67 0.7 3.34 -1 3 C-0.67 2.01 -0.34 1.02 0 0 Z " fill="#2A2C2E" transform="translate(27,14)"></path></svg>