<svg xmlns="http://www.w3.org/2000/svg" xmlns:xlink="http://www.w3.org/1999/xlink" width="48px" height="48px" style="shape-rendering:geometricPrecision; text-rendering:geometricPrecision; image-rendering:optimizeQuality; fill-rule:evenodd; clip-rule:evenodd"><g><path style="opacity:1" fill="#464647" d="M 16.5,-0.5 C 18.1667,-0.5 19.8333,-0.5 21.5,-0.5C 21.0312,2.33871 21.0312,5.00538 21.5,7.5C 20.8826,7.61071 20.3826,7.94404 20,8.5C 19.5014,12.1516 19.3347,15.8183 19.5,19.5C 17.8616,15.0874 16.8616,10.4208 16.5,5.5C 16.5,3.5 16.5,1.5 16.5,-0.5 Z"></path></g><g><path style="opacity:1" fill="#353535" d="M 47.5,1.5 C 47.5,4.5 47.5,7.5 47.5,10.5C 46.3478,11.625 45.3478,11.625 44.5,10.5C 44.7406,8.10163 44.0739,6.10163 42.5,4.5C 40.8333,3.83333 39.1667,3.16667 37.5,2.5C 40.4822,2.89555 43.1489,2.22889 45.5,0.5C 46.1835,0.862734 46.8501,1.19607 47.5,1.5 Z"></path></g><g><path style="opacity:1" fill="#18191a" d="M 37.5,2.5 C 39.1667,3.16667 40.8333,3.83333 42.5,4.5C 38.1539,4.33432 33.8206,4.50098 29.5,5C 28.3044,5.65431 28.3044,6.15431 29.5,6.5C 30.9948,5.29473 32.3281,5.29473 33.5,6.5C 32.8333,6.5 32.5,6.83333 32.5,7.5C 30.5,7.83333 28.5,8.16667 26.5,8.5C 26.2965,6.60963 26.9632,5.10963 28.5,4C 31.3508,2.71138 34.3508,2.21138 37.5,2.5 Z"></path></g><g><path style="opacity:1" fill="#ced0d6" d="M 42.5,4.5 C 42.8432,6.48324 42.1765,7.81658 40.5,8.5C 41.5624,7.42463 41.5624,6.42463 40.5,5.5C 38.9246,6.45645 37.258,7.12312 35.5,7.5C 34.8333,7.16667 34.1667,6.83333 33.5,6.5C 32.3281,5.29473 30.9948,5.29473 29.5,6.5C 28.3044,6.15431 28.3044,5.65431 29.5,5C 33.8206,4.50098 38.1539,4.33432 42.5,4.5 Z"></path></g><g><path style="opacity:1" fill="#c7cbd0" d="M 40.5,8.5 C 38.08,12.747 36.4134,12.4136 35.5,7.5C 37.258,7.12312 38.9246,6.45645 40.5,5.5C 41.5624,6.42463 41.5624,7.42463 40.5,8.5 Z"></path></g><g><path style="opacity:1" fill="#0f0f10" d="M 42.5,4.5 C 44.0739,6.10163 44.7406,8.10163 44.5,10.5C 40.0917,10.062 38.4251,12.062 39.5,16.5C 39.1667,16.5 38.8333,16.5 38.5,16.5C 38.719,15.325 38.3857,14.325 37.5,13.5C 36.8933,13.6236 36.56,13.9569 36.5,14.5C 35.8333,15.1667 35.1667,15.8333 34.5,16.5C 34.6641,13.8127 34.4974,11.146 34,8.5C 33.6174,7.94404 33.1174,7.61071 32.5,7.5C 32.5,6.83333 32.8333,6.5 33.5,6.5C 34.1667,6.83333 34.8333,7.16667 35.5,7.5C 36.4134,12.4136 38.08,12.747 40.5,8.5C 42.1765,7.81658 42.8432,6.48324 42.5,4.5 Z"></path></g><g><path style="opacity:1" fill="#151617" d="M 5.5,11.5 C 5.5,12.1667 5.16667,12.5 4.5,12.5C 4.9923,8.71038 4.15897,8.04372 2,10.5C 1.50649,12.1341 1.33982,13.8008 1.5,15.5C 0.833333,14.1667 0.166667,12.8333 -0.5,11.5C -0.5,11.1667 -0.5,10.8333 -0.5,10.5C 1.05322,8.61501 3.05322,7.61501 5.5,7.5C 5.5,8.83333 5.5,10.1667 5.5,11.5 Z"></path></g><g><path style="opacity:1" fill="#000000" d="M 21.5,7.5 C 21.3375,12.547 21.6708,17.547 22.5,22.5C 21.7777,21.4489 20.7777,20.7822 19.5,20.5C 19.5,20.1667 19.5,19.8333 19.5,19.5C 19.3347,15.8183 19.5014,12.1516 20,8.5C 20.3826,7.94404 20.8826,7.61071 21.5,7.5 Z"></path></g><g><path style="opacity:1" fill="#040405" d="M 32.5,13.5 C 32.5,14.1667 32.1667,14.5 31.5,14.5C 27.2652,10.1404 24.9319,11.1404 24.5,17.5C 23.8333,17.5 23.5,17.8333 23.5,18.5C 22.0185,12.806 24.3518,10.306 30.5,11C 31.756,11.4169 32.4226,12.2502 32.5,13.5 Z"></path></g><g><path style="opacity:1" fill="#c4c6ca" d="M 4.5,12.5 C 4.5,12.8333 4.5,13.1667 4.5,13.5C 2.95186,13.8212 2.28519,14.8212 2.5,16.5C 1.83333,16.5 1.5,16.1667 1.5,15.5C 1.33982,13.8008 1.50649,12.1341 2,10.5C 4.15897,8.04372 4.9923,8.71038 4.5,12.5 Z"></path></g><g><path style="opacity:1" fill="#000106" d="M 8.5,9.5 C 9.16667,9.5 9.83333,9.5 10.5,9.5C 10.5,10.8333 10.5,12.1667 10.5,13.5C 8.5,13.5 6.5,13.5 4.5,13.5C 4.5,13.1667 4.5,12.8333 4.5,12.5C 5.16667,12.5 5.5,12.1667 5.5,11.5C 7.17876,11.7148 8.17876,11.0481 8.5,9.5 Z"></path></g><g><path style="opacity:1" fill="#0d0f0f" d="M 10.5,25.5 C 12.1667,26.1667 13.8333,26.8333 15.5,27.5C 13.8333,27.5 12.1667,27.5 10.5,27.5C 10.5,28.5 10.5,29.5 10.5,30.5C 9.83333,30.5 9.16667,30.5 8.5,30.5C 8.5,26.5 8.5,22.5 8.5,18.5C 13.1508,17.7605 14.6508,15.0938 13,10.5C 12.3292,9.74756 11.4959,9.41423 10.5,9.5C 9.83333,9.5 9.16667,9.5 8.5,9.5C 9.20389,7.65579 10.5372,7.15579 12.5,8C 16.7987,12.3151 16.4654,16.1484 11.5,19.5C 10.5344,21.396 10.2011,23.396 10.5,25.5 Z"></path></g><g><path style="opacity:1" fill="#000100" d="M 16.5,5.5 C 16.8616,10.4208 17.8616,15.0874 19.5,19.5C 19.5,19.8333 19.5,20.1667 19.5,20.5C 17.8212,20.2852 16.8212,20.9519 16.5,22.5C 16.1667,22.5 15.8333,22.5 15.5,22.5C 14.2875,21.5029 14.4542,20.5029 16,19.5C 16.4992,14.8452 16.6658,10.1785 16.5,5.5 Z"></path></g><g><path style="opacity:1" fill="#d5d6db" d="M 31.5,14.5 C 31.8841,16.6648 31.2174,18.3315 29.5,19.5C 28.5108,23.1073 28.1774,26.774 28.5,30.5C 28.1667,30.5 27.8333,30.5 27.5,30.5C 27.6653,26.8183 27.4986,23.1516 27,19.5C 26.2917,18.6195 25.4584,17.9528 24.5,17.5C 24.9319,11.1404 27.2652,10.1404 31.5,14.5 Z"></path></g><g><path style="opacity:1" fill="#c0c3c9" d="M 10.5,9.5 C 11.4959,9.41423 12.3292,9.74756 13,10.5C 14.6508,15.0938 13.1508,17.7605 8.5,18.5C 8.16667,18.5 7.83333,18.5 7.5,18.5C 7.5,18.1667 7.5,17.8333 7.5,17.5C 8.5,16.1667 9.5,14.8333 10.5,13.5C 10.5,12.1667 10.5,10.8333 10.5,9.5 Z"></path></g><g><path style="opacity:1" fill="#1e2020" d="M 26.5,13.5 C 29.5,13.1667 30.8333,14.5 30.5,17.5C 26.56,18.234 25.2266,16.9007 26.5,13.5 Z"></path></g><g><path style="opacity:1" fill="#99979c" d="M 38.5,16.5 C 37.1667,16.5 36.5,15.8333 36.5,14.5C 36.56,13.9569 36.8933,13.6236 37.5,13.5C 38.3857,14.325 38.719,15.325 38.5,16.5 Z"></path></g><g><path style="opacity:1" fill="#030302" d="M -0.5,11.5 C 0.166667,12.8333 0.833333,14.1667 1.5,15.5C 1.5,16.1667 1.83333,16.5 2.5,16.5C 2.5,17.1667 2.83333,17.5 3.5,17.5C 5.03574,21.7171 6.03574,26.0504 6.5,30.5C 7.16667,30.5 7.83333,30.5 8.5,30.5C 9.16667,30.5 9.83333,30.5 10.5,30.5C 11.8333,30.5 13.1667,30.5 14.5,30.5C 14.5,30.8333 14.5,31.1667 14.5,31.5C 10.8333,31.5 7.16667,31.5 3.5,31.5C 3.5,31.1667 3.5,30.8333 3.5,30.5C 4.40397,29.791 4.73731,28.791 4.5,27.5C 3.5,27.5 2.5,27.5 1.5,27.5C 0.833333,28.1667 0.166667,28.8333 -0.5,29.5C -0.5,28.5 -0.5,27.5 -0.5,26.5C 0.707917,25.7659 2.04125,25.4326 3.5,25.5C 4.34186,21.3791 3.00852,18.3791 -0.5,16.5C -0.5,14.8333 -0.5,13.1667 -0.5,11.5 Z"></path></g><g><path style="opacity:1" fill="#ced2db" d="M 4.5,13.5 C 6.5,13.5 8.5,13.5 10.5,13.5C 9.5,14.8333 8.5,16.1667 7.5,17.5C 6.16667,17.5 4.83333,17.5 3.5,17.5C 2.83333,17.5 2.5,17.1667 2.5,16.5C 2.28519,14.8212 2.95186,13.8212 4.5,13.5 Z"></path></g><g><path style="opacity:1" fill="#23160c" d="M 36.5,14.5 C 36.5,15.8333 37.1667,16.5 38.5,16.5C 38.8333,16.5 39.1667,16.5 39.5,16.5C 40.3382,16.8417 40.6716,17.5084 40.5,18.5C 40.1667,18.5 39.8333,18.5 39.5,18.5C 39.1667,18.5 38.8333,18.5 38.5,18.5C 37.5,18.5 36.5,18.5 35.5,18.5C 35.5,22.1667 35.5,25.8333 35.5,29.5C 35.5,29.8333 35.5,30.1667 35.5,30.5C 34.596,29.791 34.2627,28.791 34.5,27.5C 34.81,24.2869 34.4767,21.2869 33.5,18.5C 33.5,18.1667 33.5,17.8333 33.5,17.5C 34.1667,17.5 34.5,17.1667 34.5,16.5C 35.1667,15.8333 35.8333,15.1667 36.5,14.5 Z"></path></g><g><path style="opacity:1" fill="#050000" d="M 33.5,18.5 C 34.4767,21.2869 34.81,24.2869 34.5,27.5C 34.1667,27.5 33.8333,27.5 33.5,27.5C 32.5,27.5 31.5,27.5 30.5,27.5C 30.2627,28.791 30.596,29.791 31.5,30.5C 31.5,30.8333 31.5,31.1667 31.5,31.5C 30.9569,31.56 30.6236,31.8933 30.5,32.5C 35.456,33.4941 40.456,33.8275 45.5,33.5C 45.5,33.8333 45.5,34.1667 45.5,34.5C 40.1667,34.5 34.8333,34.5 29.5,34.5C 29.5,33.5 29.5,32.5 29.5,31.5C 25.8333,31.5 22.1667,31.5 18.5,31.5C 18.5,31.1667 18.5,30.8333 18.5,30.5C 19.5,30.5 20.5,30.5 21.5,30.5C 21.8333,30.5 22.1667,30.5 22.5,30.5C 23.5,30.5 24.5,30.5 25.5,30.5C 26.1667,30.5 26.8333,30.5 27.5,30.5C 27.8333,30.5 28.1667,30.5 28.5,30.5C 29.3019,29.0484 29.8019,27.3817 30,25.5C 31.2917,26.7911 32.4583,26.7911 33.5,25.5C 33.5,23.5 33.5,21.5 33.5,19.5C 33.5,19.1667 33.5,18.8333 33.5,18.5 Z"></path></g><g><path style="opacity:1" fill="#2a2b30" d="M 32.5,13.5 C 33.4345,14.5676 33.7678,15.901 33.5,17.5C 33.5,17.8333 33.5,18.1667 33.5,18.5C 33.5,18.8333 33.5,19.1667 33.5,19.5C 32.0532,20.1342 31.3866,21.3009 31.5,23C 31.6842,24.3756 32.3509,25.2089 33.5,25.5C 32.4583,26.7911 31.2917,26.7911 30,25.5C 29.8019,27.3817 29.3019,29.0484 28.5,30.5C 28.1774,26.774 28.5108,23.1073 29.5,19.5C 31.2174,18.3315 31.8841,16.6648 31.5,14.5C 32.1667,14.5 32.5,14.1667 32.5,13.5 Z"></path></g><g><path style="opacity:1" fill="#d8dbe1" d="M 7.5,18.5 C 7.83333,18.5 8.16667,18.5 8.5,18.5C 8.5,22.5 8.5,26.5 8.5,30.5C 7.83333,30.5 7.16667,30.5 6.5,30.5C 6.18325,26.2984 6.51658,22.2984 7.5,18.5 Z"></path></g><g><path style="opacity:1" fill="#161815" d="M 24.5,17.5 C 25.4584,17.9528 26.2917,18.6195 27,19.5C 27.4986,23.1516 27.6653,26.8183 27.5,30.5C 26.8333,30.5 26.1667,30.5 25.5,30.5C 25.5,29.5 25.5,28.5 25.5,27.5C 24.5,27.5 23.5,27.5 22.5,27.5C 22.5,28.5 22.5,29.5 22.5,30.5C 22.1667,30.5 21.8333,30.5 21.5,30.5C 21.5,28.5 21.5,26.5 21.5,24.5C 21.8333,24.5 22.1667,24.5 22.5,24.5C 24.3176,26.0781 25.3176,25.5781 25.5,23C 25.4814,21.167 24.8148,19.667 23.5,18.5C 23.5,17.8333 23.8333,17.5 24.5,17.5 Z"></path></g><g><path style="opacity:1" fill="#aeb2b5" d="M 3.5,17.5 C 4.83333,17.5 6.16667,17.5 7.5,17.5C 7.5,17.8333 7.5,18.1667 7.5,18.5C 6.51658,22.2984 6.18325,26.2984 6.5,30.5C 6.03574,26.0504 5.03574,21.7171 3.5,17.5 Z"></path></g><g><path style="opacity:1" fill="#040a03" d="M 15.5,22.5 C 15.8333,22.5 16.1667,22.5 16.5,22.5C 17.3382,22.8417 17.6716,23.5084 17.5,24.5C 16.8529,25.2739 16.5195,26.2739 16.5,27.5C 16.6399,29.0296 17.3065,30.0296 18.5,30.5C 18.5,30.8333 18.5,31.1667 18.5,31.5C 18.1667,31.5 17.8333,31.5 17.5,31.5C 17.1667,31.5 16.8333,31.5 16.5,31.5C 15.8333,31.5 15.1667,31.5 14.5,31.5C 14.5,31.1667 14.5,30.8333 14.5,30.5C 15.404,29.791 15.7373,28.791 15.5,27.5C 13.8333,26.8333 12.1667,26.1667 10.5,25.5C 13.285,26.0838 14.9517,25.0838 15.5,22.5 Z"></path></g><g><path style="opacity:1" fill="#b17f57" d="M 38.5,18.5 C 38.5,19.5 38.5,20.5 38.5,21.5C 37.7784,21.0825 37.2784,20.4158 37,19.5C 36.5017,22.8168 36.335,26.1501 36.5,29.5C 36.1667,29.5 35.8333,29.5 35.5,29.5C 35.5,25.8333 35.5,22.1667 35.5,18.5C 36.5,18.5 37.5,18.5 38.5,18.5 Z"></path></g><g><path style="opacity:1" fill="#af8560" d="M 38.5,18.5 C 38.8333,18.5 39.1667,18.5 39.5,18.5C 39.5,22.5 39.5,26.5 39.5,30.5C 38.1667,30.5 36.8333,30.5 35.5,30.5C 35.5,30.1667 35.5,29.8333 35.5,29.5C 35.8333,29.5 36.1667,29.5 36.5,29.5C 38.369,27.3647 39.0356,24.6981 38.5,21.5C 38.5,20.5 38.5,19.5 38.5,18.5 Z"></path></g><g><path style="opacity:1" fill="#211613" d="M 39.5,18.5 C 39.8333,18.5 40.1667,18.5 40.5,18.5C 41.1314,20.9752 42.1314,23.3085 43.5,25.5C 42.8106,26.7736 41.9772,26.7736 41,25.5C 40.3083,26.4368 40.475,27.1034 41.5,27.5C 41.5,28.5 41.5,29.5 41.5,30.5C 40.8333,30.5 40.1667,30.5 39.5,30.5C 39.5,26.5 39.5,22.5 39.5,18.5 Z"></path></g><g><path style="opacity:1" fill="#324429" d="M 19.5,20.5 C 20.7777,20.7822 21.7777,21.4489 22.5,22.5C 22.5,23.1667 22.5,23.8333 22.5,24.5C 22.1667,24.5 21.8333,24.5 21.5,24.5C 20.1667,24.5 18.8333,24.5 17.5,24.5C 17.6716,23.5084 17.3382,22.8417 16.5,22.5C 16.8212,20.9519 17.8212,20.2852 19.5,20.5 Z"></path></g><g><path style="opacity:1" fill="#b6cf8e" d="M 17.5,24.5 C 18.8333,24.5 20.1667,24.5 21.5,24.5C 21.5,26.5 21.5,28.5 21.5,30.5C 20.5,30.5 19.5,30.5 18.5,30.5C 17.3065,30.0296 16.6399,29.0296 16.5,27.5C 16.5195,26.2739 16.8529,25.2739 17.5,24.5 Z"></path></g><g><path style="opacity:1" fill="#b17542" d="M 38.5,21.5 C 39.0356,24.6981 38.369,27.3647 36.5,29.5C 36.335,26.1501 36.5017,22.8168 37,19.5C 37.2784,20.4158 37.7784,21.0825 38.5,21.5 Z"></path></g><g><path style="opacity:1" fill="#1e180f" d="M 43.5,25.5 C 44.9587,25.4326 46.2921,25.7659 47.5,26.5C 47.5,32.8333 47.5,39.1667 47.5,45.5C 46.609,46.1098 45.609,46.4431 44.5,46.5C 44.5,46.1667 44.5,45.8333 44.5,45.5C 45.4794,42.3752 45.8128,39.0419 45.5,35.5C 45.5,35.1667 45.5,34.8333 45.5,34.5C 45.5,34.1667 45.5,33.8333 45.5,33.5C 45.1788,31.9519 44.1788,31.2852 42.5,31.5C 42.5,31.1667 42.5,30.8333 42.5,30.5C 43.5,30.5 44.5,30.5 45.5,30.5C 45.5,29.5 45.5,28.5 45.5,27.5C 44.1667,27.5 42.8333,27.5 41.5,27.5C 40.475,27.1034 40.3083,26.4368 41,25.5C 41.9772,26.7736 42.8106,26.7736 43.5,25.5 Z"></path></g><g><path style="opacity:1" fill="#e7eaca" d="M 25.5,30.5 C 24.5,30.5 23.5,30.5 22.5,30.5C 22.5,29.5 22.5,28.5 22.5,27.5C 23.5,27.5 24.5,27.5 25.5,27.5C 25.5,28.5 25.5,29.5 25.5,30.5 Z"></path></g><g><path style="opacity:1" fill="#e2dfc1" d="M 1.5,27.5 C 2.5,27.5 3.5,27.5 4.5,27.5C 4.73731,28.791 4.40397,29.791 3.5,30.5C 1.95186,30.1788 1.28519,29.1788 1.5,27.5 Z"></path></g><g><path style="opacity:1" fill="#dddeb5" d="M 15.5,27.5 C 15.7373,28.791 15.404,29.791 14.5,30.5C 13.1667,30.5 11.8333,30.5 10.5,30.5C 10.5,29.5 10.5,28.5 10.5,27.5C 12.1667,27.5 13.8333,27.5 15.5,27.5 Z"></path></g><g><path style="opacity:1" fill="#f7f5cf" d="M 33.5,27.5 C 33.7148,29.1788 33.0481,30.1788 31.5,30.5C 30.596,29.791 30.2627,28.791 30.5,27.5C 31.5,27.5 32.5,27.5 33.5,27.5 Z"></path></g><g><path style="opacity:1" fill="#f6f2c9" d="M 41.5,27.5 C 42.8333,27.5 44.1667,27.5 45.5,27.5C 45.5,28.5 45.5,29.5 45.5,30.5C 44.5,30.5 43.5,30.5 42.5,30.5C 42.1667,30.5 41.8333,30.5 41.5,30.5C 41.5,29.5 41.5,28.5 41.5,27.5 Z"></path></g><g><path style="opacity:1" fill="#090000" d="M 33.5,27.5 C 33.8333,27.5 34.1667,27.5 34.5,27.5C 34.2627,28.791 34.596,29.791 35.5,30.5C 36.8333,30.5 38.1667,30.5 39.5,30.5C 40.1667,30.5 40.8333,30.5 41.5,30.5C 41.8333,30.5 42.1667,30.5 42.5,30.5C 42.5,30.8333 42.5,31.1667 42.5,31.5C 38.8333,31.5 35.1667,31.5 31.5,31.5C 31.5,31.1667 31.5,30.8333 31.5,30.5C 33.0481,30.1788 33.7148,29.1788 33.5,27.5 Z"></path></g><g><path style="opacity:1" fill="#793a28" d="M 17.5,31.5 C 17.8333,31.5 18.1667,31.5 18.5,31.5C 22.1667,31.5 25.8333,31.5 29.5,31.5C 29.5,32.5 29.5,33.5 29.5,34.5C 25.7016,35.4834 21.7016,35.8168 17.5,35.5C 17.5,34.1667 17.5,32.8333 17.5,31.5 Z"></path></g><g><path style="opacity:1" fill="#e78e7c" d="M 18.5,32.5 C 21.8984,32.1796 25.2317,32.513 28.5,33.5C 26.8333,33.8333 25.1667,34.1667 23.5,34.5C 21.3603,34.4439 19.6936,33.7773 18.5,32.5 Z"></path></g><g><path style="opacity:1" fill="#cac17e" d="M 31.5,31.5 C 35.1667,31.5 38.8333,31.5 42.5,31.5C 44.1788,31.2852 45.1788,31.9519 45.5,33.5C 40.456,33.8275 35.456,33.4941 30.5,32.5C 30.6236,31.8933 30.9569,31.56 31.5,31.5 Z"></path></g><g><path style="opacity:1" fill="#120b08" d="M 1.5,27.5 C 1.28519,29.1788 1.95186,30.1788 3.5,30.5C 3.5,30.8333 3.5,31.1667 3.5,31.5C 2.62356,31.3691 1.95689,31.7025 1.5,32.5C 4,32.8333 6.5,33.1667 9,33.5C 11.9294,33.4752 14.4294,32.8086 16.5,31.5C 16.8333,31.5 17.1667,31.5 17.5,31.5C 17.5,32.8333 17.5,34.1667 17.5,35.5C 12.0671,34.1979 6.73374,34.1979 1.5,35.5C 0.523331,38.2869 0.189998,41.2869 0.5,44.5C 0.166667,44.5 -0.166667,44.5 -0.5,44.5C -0.5,39.5 -0.5,34.5 -0.5,29.5C 0.166667,28.8333 0.833333,28.1667 1.5,27.5 Z"></path></g><g><path style="opacity:1" fill="#c9c380" d="M 3.5,31.5 C 7.16667,31.5 10.8333,31.5 14.5,31.5C 15.1667,31.5 15.8333,31.5 16.5,31.5C 14.4294,32.8086 11.9294,33.4752 9,33.5C 6.5,33.1667 4,32.8333 1.5,32.5C 1.95689,31.7025 2.62356,31.3691 3.5,31.5 Z"></path></g><g><path style="opacity:1" fill="#ebc548" d="M 1.5,35.5 C 6.16667,35.5 10.8333,35.5 15.5,35.5C 15.3272,40.3234 17.6606,42.3234 22.5,41.5C 28.1778,42.9407 31.5111,40.9407 32.5,35.5C 32.5,35.8333 32.5,36.1667 32.5,36.5C 32.7475,38.8583 32.0808,40.8583 30.5,42.5C 25.5,42.5 20.5,42.5 15.5,42.5C 14.8333,40.8333 14.1667,39.1667 13.5,37.5C 10.0381,36.5184 6.37141,36.185 2.5,36.5C 2.1936,39.3854 2.52693,42.0521 3.5,44.5C 3.5,44.8333 3.5,45.1667 3.5,45.5C 1.59771,42.6627 0.931042,39.3293 1.5,35.5 Z"></path></g><g><path style="opacity:1" fill="#f4ce4d" d="M 32.5,36.5 C 32.5,36.1667 32.5,35.8333 32.5,35.5C 36.8333,35.5 41.1667,35.5 45.5,35.5C 45.8128,39.0419 45.4794,42.3752 44.5,45.5C 30.8333,45.5 17.1667,45.5 3.5,45.5C 3.5,45.1667 3.5,44.8333 3.5,44.5C 3.83333,44.5 4.16667,44.5 4.5,44.5C 5.83333,44.5 7.16667,44.5 8.5,44.5C 11.5,44.5 14.5,44.5 17.5,44.5C 24.5,44.5 31.5,44.5 38.5,44.5C 39.8333,44.5 41.1667,44.5 42.5,44.5C 44.1765,43.8166 44.8432,42.4832 44.5,40.5C 44.5,39.1667 44.5,37.8333 44.5,36.5C 42.1667,36.5 39.8333,36.5 37.5,36.5C 37.1667,36.5 36.8333,36.5 36.5,36.5C 35.1667,36.5 33.8333,36.5 32.5,36.5 Z"></path></g><g><path style="opacity:1" fill="#322004" d="M 1.5,35.5 C 6.73374,34.1979 12.0671,34.1979 17.5,35.5C 17.5,35.8333 17.5,36.1667 17.5,36.5C 16.1667,37.1667 16.1667,37.8333 17.5,38.5C 20.9619,39.4816 24.6286,39.815 28.5,39.5C 26.5,40.1667 24.5,40.8333 22.5,41.5C 17.6606,42.3234 15.3272,40.3234 15.5,35.5C 10.8333,35.5 6.16667,35.5 1.5,35.5 Z"></path></g><g><path style="opacity:1" fill="#d6bc61" d="M 17.5,36.5 C 21.8839,36.1744 26.2172,36.5078 30.5,37.5C 30.3764,38.1067 30.0431,38.44 29.5,38.5C 25.5,37.1667 21.5,37.1667 17.5,38.5C 16.1667,37.8333 16.1667,37.1667 17.5,36.5 Z"></path></g><g><path style="opacity:1" fill="#2b1904" d="M 29.5,34.5 C 34.8333,34.5 40.1667,34.5 45.5,34.5C 45.5,34.8333 45.5,35.1667 45.5,35.5C 41.1667,35.5 36.8333,35.5 32.5,35.5C 31.5111,40.9407 28.1778,42.9407 22.5,41.5C 24.5,40.8333 26.5,40.1667 28.5,39.5C 29.1667,39.5 29.5,39.1667 29.5,38.5C 30.0431,38.44 30.3764,38.1067 30.5,37.5C 26.2172,36.5078 21.8839,36.1744 17.5,36.5C 17.5,36.1667 17.5,35.8333 17.5,35.5C 21.7016,35.8168 25.7016,35.4834 29.5,34.5 Z"></path></g><g><path style="opacity:1" fill="#f9c125" d="M 36.5,36.5 C 36.8333,36.5 37.1667,36.5 37.5,36.5C 37.5774,37.7498 38.244,38.5831 39.5,39C 37.0684,40.0875 37.4017,40.5875 40.5,40.5C 40.5858,41.4959 40.2524,42.3292 39.5,43C 40.7375,43.2321 41.7375,43.7321 42.5,44.5C 41.1667,44.5 39.8333,44.5 38.5,44.5C 37.0867,43.0652 35.42,42.0652 33.5,41.5C 33.0077,37.7104 33.841,37.0437 36,39.5C 36.4828,38.552 36.6495,37.552 36.5,36.5 Z"></path></g><g><path style="opacity:1" fill="#f8c726" d="M 37.5,36.5 C 39.8333,36.5 42.1667,36.5 44.5,36.5C 44.5,37.8333 44.5,39.1667 44.5,40.5C 43.2502,40.4226 42.4169,39.756 42,38.5C 41.2828,39.0442 40.7828,39.7109 40.5,40.5C 37.4017,40.5875 37.0684,40.0875 39.5,39C 38.244,38.5831 37.5774,37.7498 37.5,36.5 Z"></path></g><g><path style="opacity:1" fill="#f1cf48" d="M 29.5,38.5 C 29.5,39.1667 29.1667,39.5 28.5,39.5C 24.6286,39.815 20.9619,39.4816 17.5,38.5C 21.5,37.1667 25.5,37.1667 29.5,38.5 Z"></path></g><g><path style="opacity:1" fill="#f7c72f" d="M 32.5,36.5 C 33.8333,36.5 35.1667,36.5 36.5,36.5C 36.6495,37.552 36.4828,38.552 36,39.5C 33.841,37.0437 33.0077,37.7104 33.5,41.5C 32.609,42.1098 31.609,42.4431 30.5,42.5C 32.0808,40.8583 32.7475,38.8583 32.5,36.5 Z"></path></g><g><path style="opacity:1" fill="#f9c123" d="M 13.5,37.5 C 12.6371,38.9403 12.6371,40.2736 13.5,41.5C 13.0431,42.2975 12.3764,42.6309 11.5,42.5C 9.39263,41.5318 7.0593,41.1984 4.5,41.5C 4.06178,41.5654 3.72845,41.3988 3.5,41C 4.12576,40.2496 4.62576,39.4162 5,38.5C 5.73869,39.5742 6.73869,40.2409 8,40.5C 9.78692,39.6405 11.6203,38.6405 13.5,37.5 Z"></path></g><g><path style="opacity:1" fill="#f9c527" d="M 44.5,40.5 C 44.8432,42.4832 44.1765,43.8166 42.5,44.5C 41.7375,43.7321 40.7375,43.2321 39.5,43C 40.2524,42.3292 40.5858,41.4959 40.5,40.5C 40.7828,39.7109 41.2828,39.0442 42,38.5C 42.4169,39.756 43.2502,40.4226 44.5,40.5 Z"></path></g><g><path style="opacity:1" fill="#f8c728" d="M 13.5,37.5 C 11.6203,38.6405 9.78692,39.6405 8,40.5C 6.73869,40.2409 5.73869,39.5742 5,38.5C 4.62576,39.4162 4.12576,40.2496 3.5,41C 3.72845,41.3988 4.06178,41.5654 4.5,41.5C 4.91753,42.2216 5.5842,42.7216 6.5,43C 5.5842,43.2784 4.91753,43.7784 4.5,44.5C 4.16667,44.5 3.83333,44.5 3.5,44.5C 2.52693,42.0521 2.1936,39.3854 2.5,36.5C 6.37141,36.185 10.0381,36.5184 13.5,37.5 Z"></path></g><g><path style="opacity:1" fill="#f8c725" d="M 13.5,37.5 C 14.1667,39.1667 14.8333,40.8333 15.5,42.5C 16.1667,43.1667 16.8333,43.8333 17.5,44.5C 14.5,44.5 11.5,44.5 8.5,44.5C 8.97306,43.0937 9.97306,42.427 11.5,42.5C 12.3764,42.6309 13.0431,42.2975 13.5,41.5C 12.6371,40.2736 12.6371,38.9403 13.5,37.5 Z"></path></g><g><path style="opacity:1" fill="#f7c723" d="M 33.5,41.5 C 35.42,42.0652 37.0867,43.0652 38.5,44.5C 31.5,44.5 24.5,44.5 17.5,44.5C 16.8333,43.8333 16.1667,43.1667 15.5,42.5C 20.5,42.5 25.5,42.5 30.5,42.5C 31.609,42.4431 32.609,42.1098 33.5,41.5 Z"></path></g><g><path style="opacity:1" fill="#f9c028" d="M 4.5,41.5 C 7.0593,41.1984 9.39263,41.5318 11.5,42.5C 9.97306,42.427 8.97306,43.0937 8.5,44.5C 7.16667,44.5 5.83333,44.5 4.5,44.5C 4.91753,43.7784 5.5842,43.2784 6.5,43C 5.5842,42.7216 4.91753,42.2216 4.5,41.5 Z"></path></g><g><path style="opacity:1" fill="#433310" d="M 1.5,35.5 C 0.931042,39.3293 1.59771,42.6627 3.5,45.5C 17.1667,45.5 30.8333,45.5 44.5,45.5C 44.5,45.8333 44.5,46.1667 44.5,46.5C 44.5,46.8333 44.5,47.1667 44.5,47.5C 30.5,47.5 16.5,47.5 2.5,47.5C 1.44886,46.7777 0.782189,45.7777 0.5,44.5C 0.189998,41.2869 0.523331,38.2869 1.5,35.5 Z"></path></g></svg>