<svg xmlns="http://www.w3.org/2000/svg" width="264" height="72" viewBox="0 0 264 72" fill="none"><path d="M32.4737 11.949L39.6375 11.9465C44.4382 11.9463 49.3638 11.7261 53.2852 14.7472C57.7815 18.2113 57.6036 25.3971 53.8696 29.2725C51.2489 31.9923 47.8265 33.028 43.9691 33.275L52.4984 46.0247H44.3942C44.0487 45.4341 43.7105 44.8399 43.3798 44.2423C42.4235 42.6877 41.4324 40.8493 40.5197 39.2543L35.749 30.9017C35.4247 32.6443 34.9932 34.5033 34.6244 36.2467L32.5506 46.0247H25.2434L32.4737 11.949ZM38.5529 17.7514L37.1199 24.5342C36.8749 25.6963 36.5636 27.0168 36.3643 28.1735C38.5146 28.3243 41.1376 28.1809 43.2422 27.8331C46.1503 27.186 48.552 26.1512 48.9572 23.0923C49.5238 18.8147 45.7903 17.4227 41.846 17.6323C40.749 17.6813 39.6525 17.7006 38.5529 17.7514Z" fill="#102A49"></path><path d="M220.232 19.6317C224.836 19.2442 229.598 20.9911 232.335 24.4375C234.982 27.7705 235.169 31.4144 234.518 35.3462L212.194 35.3465C213.262 39.3043 215.67 41.3598 220.374 41.0172C222.916 40.832 224.735 39.6832 226.334 37.9153L231.677 37.9149H233.573C233.01 39.3959 231.834 41.0296 230.727 42.2205C225.866 47.4477 215.711 48.343 210.034 43.7442C207.245 41.4848 205.818 38.5858 205.609 35.1701C205.333 31.1443 206.84 27.1861 209.791 24.185C212.573 21.3511 216.071 19.8353 220.232 19.6317ZM212.915 30.2954L220.913 30.2971H228.222C227.546 28.3356 226.621 27.0423 224.572 26.0202C223.515 25.493 221.583 25.1085 220.401 25.225C216.974 25.3852 214.024 27.288 212.915 30.2954Z" fill="#102A49"></path><path d="M71.068 19.6318C71.3078 19.5984 71.5998 19.6095 71.8453 19.6017C77.9413 19.4087 83.5713 22.725 85.1833 28.2208C85.9071 30.688 85.7994 32.8444 85.3753 35.3464L63.0621 35.3467C63.419 36.9457 64.272 38.8163 65.7629 39.7743C69.5508 42.2084 74.4995 41.0833 77.1756 37.9155L82.4679 37.9151H84.4446C83.7653 39.4774 82.8056 40.9255 81.6048 42.1998C78.843 45.085 75.4889 46.3133 71.378 46.6578C63.5852 47.3256 56.9511 42.6031 56.4746 35.3321C55.9477 27.295 62.0407 20.0956 71.068 19.6318ZM63.7706 30.2978L71.7686 30.2973H79.0841C78.3918 28.3306 77.4586 27.0156 75.3915 25.9996C74.3345 25.48 72.4344 25.1184 71.2498 25.2251C67.8028 25.3983 64.8999 27.2785 63.7706 30.2978Z" fill="#102A49"></path><path d="M160.457 19.6319C161.204 19.5192 163.123 19.6602 163.903 19.7622C167.392 20.218 170.493 21.8338 172.58 24.4534C175.213 27.758 175.402 31.4464 174.751 35.3465L152.436 35.3469C153.317 39.2759 156.155 41.4086 160.62 41.0183C163.182 40.7945 164.956 39.704 166.562 37.9156L171.864 37.9153H173.828C173.032 39.569 172.255 40.8312 170.959 42.2206C166.068 47.466 155.894 48.3484 150.211 43.7032C147.362 41.3743 146.044 38.4819 145.827 35.0032C145.607 31.0313 147.117 27.1413 150.026 24.1825C152.804 21.3534 156.302 19.8352 160.457 19.6319ZM153.136 30.2979L161.036 30.2974H168.455C167.794 28.3675 166.852 27.0457 164.846 26.0383C163.731 25.4789 161.868 25.126 160.608 25.2257C157.009 25.4165 154.445 27.2474 153.136 30.2979Z" fill="#102A49"></path><path d="M117.341 11.2724C118.456 11.2122 119.575 11.2517 120.682 11.3905C123.385 11.7371 125.761 12.728 127.464 14.7423C128.899 16.4393 129.469 19.0381 129.149 21.1376L121.945 21.1379C121.974 19.9271 121.83 18.7681 120.886 17.8341C119.386 16.3505 116.659 16.5001 115.116 17.8373C114.341 18.5006 113.888 19.4179 113.853 20.3872C113.782 23.1666 119.338 25.6966 121.556 27.0315C125.53 29.385 127.358 31.9061 127.227 36.2947C127.071 41.4922 123.231 45.3812 117.71 46.4343C116.272 46.7087 115.021 46.7104 113.55 46.6701C110.766 46.574 107.75 45.7561 105.773 43.8997C103.089 41.38 102.711 38.3783 102.716 35.0648L109.846 35.0644C109.697 38.268 110.954 40.652 114.972 40.5433C118.651 40.4656 120.683 36.7146 119.156 33.8767C118.261 32.2143 115.078 30.8552 113.348 29.9193C109.756 27.987 106.597 25.54 106.386 21.4602C106.065 15.2607 110.942 11.646 117.341 11.2724Z" fill="#102A49"></path><path d="M9.93229 43.3706C11.4995 46.1858 13.1899 48.1271 16.056 49.9456C29.3647 58.3903 54.9145 55.8786 69.9722 53.3999C69.92 52.3746 69.8588 51.0141 69.737 50.0143C75.8323 50.7369 82.2029 51.1742 88.2557 51.9497L83.6846 54.8625C82.3279 55.7828 80.714 56.7639 79.3154 57.6574L70.6367 63.2055C70.5317 62.2559 70.5478 60.7141 70.3789 59.8434C69.7447 59.9587 69.1111 60.0541 68.4731 60.1483C55.3962 62.0722 41.8985 62.2989 28.9106 59.6979C27.3394 59.383 25.7278 59.038 24.1855 58.6068C18.9223 57.1354 13.6859 54.2819 11.0027 49.7413C9.9183 47.903 9.24818 45.4153 9.93229 43.3706Z" fill="#40A16C"></path><path d="M180.895 20.2705H187.754L185.508 30.9924C185.078 33.0282 184.532 35.1292 184.405 37.179C184.283 39.123 185.277 41.0133 187.55 41.3371C195.518 42.4722 196.323 34.6168 197.409 29.602L199.447 20.2705L205.924 20.2727L204.515 26.7416L201.77 39.333L200.847 43.5827C200.681 44.345 200.502 45.29 200.292 46.0246H194.47L194.959 43.9643C194.658 44.212 194.363 44.4381 194.043 44.6699C190.123 47.5064 182.379 47.742 179.205 43.819C176.415 40.3723 177.742 35.3927 178.558 31.4962L180.071 24.2934C180.336 23.0315 180.695 21.5258 180.895 20.2705Z" fill="#102A49"></path><path d="M137.964 12.2026H144.801C144.728 12.5001 144.658 12.8077 144.601 13.1081C144.151 15.4894 143.522 17.8865 143.114 20.2704H147.14C146.822 22.0203 146.414 23.9249 146.031 25.6682H141.941L137.626 45.8473L137.585 45.9744C137.127 46.1123 131.686 46.0259 130.801 46.0245C130.894 45.3397 131.158 44.2712 131.306 43.5738L132.324 38.7663C133.245 34.4228 134.13 29.9961 135.101 25.6682H131.304C131.661 23.8822 132.078 22.0559 132.461 20.2704H136.244C136.497 19.3733 136.668 18.3086 136.867 17.3905C137.241 15.6657 137.619 13.9321 137.964 12.2026Z" fill="#102A49"></path><path d="M255.12 19.5154C255.249 19.4952 255.657 19.499 255.81 19.4976L254.56 25.5403C246.345 25.8815 245.73 28.8921 244.312 35.5228L242.85 42.3342C242.608 43.4593 242.336 44.9594 242.034 46.0245H235.204C235.407 45.1276 235.601 44.2291 235.787 43.3291C237.295 35.667 239.181 27.9329 240.662 20.271L246.716 20.2704C246.437 21.2211 246.176 22.65 245.951 23.6621C248.172 20.8442 251.398 19.6025 255.12 19.5154Z" fill="#102A49"></path><path d="M93.308 36.0524C95.9667 35.8027 98.3457 37.5652 98.6267 39.9931C98.9071 42.4209 96.9844 44.5987 94.327 44.8621C91.6593 45.1266 89.2636 43.3617 88.9813 40.9241C88.6996 38.4864 90.6384 36.3031 93.308 36.0524Z" fill="#40A16C"></path><path d="M94.6809 21.0481C97.3241 20.6021 99.8604 22.2056 100.334 24.6224C100.808 27.0394 99.0379 29.3469 96.3896 29.7662C93.7612 30.1823 91.2591 28.5814 90.7892 26.1833C90.3187 23.7852 92.0577 21.4906 94.6809 21.0481Z" fill="#40A16C"></path><path d="M237.013 51.7201C242.759 51.654 242.002 59.5959 235.979 59.9191C233.679 59.9309 231.911 58.8036 231.812 56.586C231.752 55.3601 232.234 54.1637 233.15 53.2656C234.239 52.2091 235.455 51.7686 237.013 51.7201ZM236.159 58.339C240.082 57.7942 239.918 53.018 236.737 53.2968C232.935 53.6898 232.479 58.4614 236.159 58.339Z" fill="#40A16C"></path><path d="M97.9481 51.8519C99.1437 51.8501 100.387 51.8156 101.577 51.8693C105.959 52.0675 105.739 57.1674 102.91 59.0996C101.14 60.0692 98.7441 59.8049 96.6565 59.7978C97.1251 57.2656 97.5685 54.4034 97.9481 51.8519ZM98.6803 58.2468C99.8804 58.2581 100.935 58.4016 101.929 57.7454C103.512 56.463 103.835 53.3995 101.053 53.3883C100.526 53.3863 100.002 53.3912 99.4737 53.3991C99.1959 54.9761 98.9085 56.6653 98.6803 58.2468Z" fill="#40A16C"></path><path d="M22.5886 30.9155L22.646 30.9438C21.8461 31.5538 21.1272 31.9871 20.3616 32.6713C14.5626 37.8531 14.6122 44.7303 20.2679 49.9781C19.5615 49.6445 18.7479 49.1424 18.0764 48.7371C14.548 46.5239 11.1471 42.935 12.8372 38.7775C14.3575 35.0377 18.8328 32.5527 22.5886 30.9155Z" fill="#102A49"></path><path d="M222.793 51.8535C223.91 51.8477 225.426 51.7706 226.503 51.8826C229.63 52.2077 229.346 55.8518 226.581 56.7444C227.118 57.6845 227.676 58.8277 228.182 59.7978C227.853 59.8013 226.253 59.8531 226.069 59.7348C225.782 58.9818 225.115 57.699 224.746 56.929H223.748C223.567 57.867 223.434 58.8497 223.266 59.7978C222.682 59.8031 222.098 59.7996 221.515 59.7878C221.948 57.2125 222.444 54.4262 222.793 51.8535ZM223.991 55.4759C224.723 55.4817 225.73 55.5535 226.359 55.2306C226.719 54.9354 226.863 54.7283 226.9 54.2754C227.001 53.0505 225.194 53.3385 224.326 53.3378C224.21 54.0499 224.098 54.7626 223.991 55.4759Z" fill="#40A16C"></path><path d="M191.323 51.8537C192.442 51.8557 193.977 51.7645 195.041 51.8861C198.151 52.2414 197.822 55.8621 195.091 56.7436C195.627 57.758 196.155 58.776 196.674 59.7979C196.3 59.8008 194.782 59.862 194.589 59.7137L193.251 56.9291H192.244C192.083 57.8842 191.931 58.8404 191.787 59.7979H190.009C190.175 59.0838 190.324 57.9256 190.446 57.1781L191.323 51.8537ZM192.491 55.4759C193.275 55.4822 194.183 55.5548 194.876 55.224C195.231 54.9144 195.376 54.7135 195.406 54.2535C195.484 53.058 193.701 53.3379 192.842 53.3379C192.71 54.0062 192.584 54.7983 192.491 55.4759Z" fill="#40A16C"></path><path d="M125.202 51.8536L126.315 51.8535C127.517 53.2863 128.925 55.2412 130.087 56.7523C130.274 55.1486 130.661 53.4695 130.866 51.8546L132.607 51.8535C132.518 52.6603 132.309 53.7348 132.175 54.5519L131.319 59.7842C131.164 59.806 130.308 59.7972 130.104 59.7978C129.177 58.3874 127.505 56.3808 126.424 54.9302C126.292 56.2722 125.873 58.4018 125.646 59.7978H123.903L125.202 51.8536Z" fill="#40A16C"></path><path d="M201.583 51.8535H203.343L202.832 55.0044L206.426 55.0042C206.652 54.0258 206.756 52.8821 206.985 51.8535H208.726C208.581 52.7254 207.602 59.4074 207.389 59.7978H205.653C205.875 58.92 206.003 57.5327 206.196 56.575L202.572 56.578C202.435 57.5244 202.24 58.8823 202.035 59.7978H200.274C200.47 58.9335 200.622 57.7884 200.766 56.9L201.583 51.8535Z" fill="#40A16C"></path><path d="M109.343 51.8535H115.256C115.16 52.3522 115.079 52.8528 115.01 53.355H110.861C110.779 53.9201 110.683 54.4837 110.575 55.0451H114.427C114.33 55.4273 114.243 56.1241 114.177 56.5332C113.448 56.5326 111 56.4838 110.388 56.5573L110.33 56.647C110.228 57.1781 110.147 57.7527 110.06 58.2894H114.176C114.13 58.7634 114.032 59.3262 113.949 59.7978H108.052C108.41 57.2107 108.93 54.4551 109.343 51.8535Z" fill="#40A16C"></path><path d="M181.468 51.8535H187.396C187.298 52.3374 187.225 52.8647 187.147 53.355L183.024 53.355C182.913 53.9141 182.815 54.484 182.71 55.0451H186.544C186.505 55.4702 186.382 56.097 186.311 56.5332C185.81 56.5317 182.897 56.492 182.509 56.5663L182.459 56.7067C182.381 57.2107 182.304 57.8024 182.177 58.2894L186.34 58.2895C186.241 58.7208 186.166 59.3468 186.099 59.796L180.178 59.7978C180.255 59.4663 180.315 59.0801 180.362 58.742C180.688 56.453 181.182 54.1438 181.468 51.8535Z" fill="#40A16C"></path><path d="M212.977 51.8536L218.859 51.8535C218.789 52.3769 218.719 52.8311 218.626 53.355L214.488 53.3579C214.403 53.933 214.321 54.4746 214.207 55.0451H218.053C217.957 55.5021 217.882 56.0655 217.806 56.5332C217.299 56.5308 214.175 56.4782 213.964 56.5885C213.868 57.1539 213.784 57.721 213.713 58.2894L217.835 58.2901C217.753 58.7937 217.665 59.2962 217.57 59.7978H211.701C211.772 59.0089 211.999 57.86 212.131 57.0466L212.977 51.8536Z" fill="#40A16C"></path><path d="M160.788 51.8535L166.689 51.8542C166.603 52.3618 166.521 52.8443 166.463 53.355H162.318C162.234 53.8753 162.144 54.5489 162.004 55.0451H165.868C165.772 55.51 165.695 56.0595 165.616 56.5332C165.045 56.5313 162.14 56.493 161.817 56.5746L161.759 56.7063C161.692 57.2224 161.591 57.7725 161.505 58.2894H165.645C165.553 58.7582 165.483 59.3191 165.411 59.7978C163.442 59.8054 161.475 59.8031 159.506 59.7913C159.874 57.1905 160.369 54.4587 160.788 51.8535Z" fill="#40A16C"></path><path d="M170.523 51.8535L172.291 51.8559C172.125 52.9972 171.892 54.1274 171.721 55.2775C171.66 55.9063 171.198 57.4353 171.683 57.9565C172.449 58.7798 174.2 58.3087 174.55 57.3017C174.823 56.517 174.893 55.8103 175.02 55.0303C175.2 53.9732 175.369 52.9145 175.526 51.8545H177.338C177.239 52.2533 177.151 52.835 177.076 53.2495C177.035 53.901 176.844 54.7381 176.74 55.3951C176.471 56.9219 176.46 58.111 175.096 59.212C173.481 60.5148 169.641 60.0515 169.676 57.734C169.703 55.9628 170.221 53.6907 170.523 51.8535Z" fill="#40A16C"></path><path d="M144.783 51.7192L144.858 51.7204C146 51.7423 146.684 52.066 147.457 52.8028C147.134 53.1631 146.659 53.6001 146.299 53.9319C145.631 53.3397 144.579 52.8525 143.687 53.5197C143.568 53.6085 143.382 53.8974 143.428 54.0242C143.788 55.0508 145.545 55.209 146.286 56.0036C146.649 56.3267 146.981 56.874 146.936 57.3568C146.75 59.3346 144.946 59.9698 143.072 59.9215C142.863 59.9021 142.655 59.868 142.452 59.8203C141.417 59.5801 140.924 59.0826 140.411 58.2891L141.737 57.3064C142.173 57.9855 142.683 58.3608 143.585 58.4106C144.129 58.4408 144.929 58.0532 144.912 57.4913C144.873 56.9625 144.12 56.568 143.613 56.3916C141.717 55.7326 140.827 54.2055 142.227 52.6271C142.804 51.9767 143.828 51.7514 144.783 51.7192Z" fill="#40A16C"></path><path d="M150.586 51.8542L157.346 51.8535C157.236 52.3602 157.169 52.8835 157.052 53.4083H154.604L153.875 57.837C153.781 58.4949 153.65 59.1296 153.568 59.7978H151.776C152.187 57.7518 152.46 55.4891 152.833 53.4083H150.345C150.437 52.8817 150.525 52.3842 150.586 51.8542Z" fill="#40A16C"></path><path d="M119.182 51.8535H120.955C120.491 54.2881 120.005 57.3416 119.662 59.7978H117.873C118.04 59.0489 118.156 58.0812 118.288 57.309C118.599 55.4959 118.86 53.6653 119.182 51.8535Z" fill="#40A16C"></path></svg>