<svg xmlns="http://www.w3.org/2000/svg" width="48" height="48" viewBox="0 0 48 48" fill="none"><g clip-path="url(#clip0_1_13)"><path fill-rule="evenodd" clip-rule="evenodd" d="M27.072 1.58843C27.006 1.61159 26.682 1.69451 26.352 1.77263C25.1905 2.04779 24.31 2.25899 24.132 2.30519C23.8628 2.37515 23.5672 2.45015 23.352 2.50319C23.2464 2.52923 23.0936 2.57063 23.0126 2.59523C22.9315 2.61983 22.8086 2.63999 22.7394 2.63999C22.6702 2.63999 22.6003 2.66159 22.584 2.68799C22.5676 2.71439 22.4977 2.73599 22.4286 2.73599C22.3593 2.73599 22.2364 2.75615 22.1553 2.78075C22.0743 2.80535 21.9162 2.84855 21.804 2.87675C21.6918 2.90495 21.5136 2.95307 21.408 2.98367L21.216 3.03935V6.03167V9.02399H21.8875H22.5591L22.5715 6.56795L22.584 4.11203L22.704 4.07675C22.8056 4.04687 23.4374 3.89771 24.336 3.69155C24.4548 3.66419 24.6276 3.62267 24.72 3.59927C24.8124 3.57575 24.9528 3.54371 25.032 3.52811C25.1112 3.51251 25.2624 3.47783 25.368 3.45119C25.4736 3.42455 25.6464 3.38351 25.752 3.35999C25.8576 3.33647 26.0412 3.29327 26.16 3.26399C26.2788 3.23471 26.4624 3.19151 26.568 3.16799C26.6736 3.14447 26.8464 3.10343 26.952 3.07679C27.0576 3.05015 27.2088 3.01547 27.288 2.99987C28.0131 2.85671 28.2094 2.66111 28.1652 2.12615C28.1245 1.63643 27.6289 1.39259 27.072 1.58843ZM13.3479 11.7047C13.3218 11.7536 13.258 11.9426 13.2066 12.1248C13.155 12.3069 13.0483 12.6504 12.9696 12.888C12.8907 13.1256 12.836 13.3362 12.8479 13.356C12.8763 13.403 30.9002 13.403 30.9261 13.356C30.9441 13.3233 30.6932 12.4761 30.489 11.88L30.4068 11.64L21.9012 11.6279C13.663 11.6161 13.394 11.6185 13.3479 11.7047ZM10.6592 15.06C10.623 15.1854 10.512 15.5365 10.4124 15.8402C10.3128 16.1441 10.2242 16.4573 10.2156 16.5362L10.2 16.68H21.888H33.576L33.5632 16.56C33.5562 16.494 33.4657 16.17 33.362 15.84C33.2584 15.51 33.1455 15.1482 33.1111 15.036L33.0486 14.832H21.8868H10.725L10.6592 15.06ZM14.1331 19.5983C14.1198 19.6328 14.1151 19.9407 14.1224 20.2825L14.136 20.904H17.808H21.48V20.232V19.56L17.8185 19.5476C14.8368 19.5377 14.1528 19.547 14.1331 19.5983ZM22.967 19.644C22.9522 19.7034 22.9464 20.0112 22.954 20.328L22.968 20.904H23.856H24.744L24.7573 20.22L24.7706 19.536H23.8822C23.0008 19.536 22.9935 19.5368 22.967 19.644ZM44.182 20.028C44.1694 20.061 44.1646 21.492 44.1715 23.208L44.184 26.328H44.856H45.528L45.5403 23.148L45.5527 19.968H44.8788C44.384 19.968 44.1988 19.9839 44.182 20.028ZM30.1185 21.0347C30.1056 21.0684 30.1006 22.2732 30.1075 23.712L30.12 26.328H30.792H31.464V23.664V21L30.803 20.9867C30.3007 20.9765 30.1364 20.988 30.1185 21.0347ZM35.7453 21.0067C35.7044 21.0475 35.7003 31.8337 35.7411 31.94C35.7948 32.0799 36.9979 32.0501 37.0322 31.908C37.0466 31.8486 37.0524 29.37 37.0452 26.4L37.032 21L36.4053 20.9867C36.0606 20.9793 35.7636 20.9883 35.7453 21.0067ZM32.928 25.8349C32.928 27.3737 32.9474 28.6973 32.9712 28.7763C32.9949 28.8553 33.1041 29.1684 33.2138 29.472C33.3235 29.7756 33.4455 30.1212 33.485 30.24C33.5245 30.3588 33.5762 30.4992 33.6 30.552C33.6237 30.6048 33.6752 30.7452 33.7143 30.864C33.8248 31.1988 34.0718 31.8679 34.1043 31.9206C34.2132 32.0967 34.2236 31.6698 34.2122 27.516L34.2 23.064L33.564 23.0505L32.928 23.0372V25.8349ZM38.566 23.1C38.5534 23.133 38.5488 25.1472 38.5556 27.576L38.568 31.992L39.12 32.0059C39.4236 32.0136 39.7206 32.0078 39.78 31.9929L39.888 31.9662V27.5322C39.888 23.5333 39.8805 23.0954 39.812 23.0691C39.6586 23.0102 38.5902 23.0367 38.566 23.1ZM41.3798 26.796C41.3818 28.8618 41.3959 30.5196 41.4109 30.48C41.484 30.2875 41.7741 29.4709 41.8372 29.28C41.8766 29.1612 41.9282 29.0208 41.952 28.968C41.9757 28.9152 42.0272 28.7748 42.0663 28.656C42.1056 28.5372 42.2054 28.2564 42.2883 28.032C42.3712 27.8076 42.5022 27.4331 42.5794 27.1997L42.72 26.7753V24.9368C42.72 23.3046 42.7114 23.0949 42.644 23.0691C42.6022 23.0531 42.2998 23.04 41.972 23.04H41.376L41.3798 26.796ZM9.45597 28.9914C7.41825 29.1541 5.53521 30.2622 4.37517 31.9813C4.23921 32.1828 4.12797 32.3615 4.12797 32.3784C4.12797 32.3953 4.08825 32.4665 4.03953 32.5365C3.74961 32.9546 3.31209 34.3659 3.31197 34.884V35.04H13.3243H23.3365L23.3126 34.764C23.2995 34.6122 23.2663 34.3908 23.2389 34.272C23.2116 34.1532 23.1694 33.9696 23.1452 33.864C23.1211 33.7584 23.0638 33.5748 23.018 33.456C22.1265 31.1438 20.322 29.6006 17.904 29.0826C17.3708 28.9683 10.6526 28.8959 9.45597 28.9914ZM32.3709 37.644C32.402 37.8443 32.4604 38.3593 32.544 39.168C32.5671 39.3924 32.6102 39.792 32.6397 40.056C32.7222 40.7941 32.7786 41.3088 32.832 41.808C32.8783 42.2415 32.9301 42.7148 33.0039 43.38L33.0373 43.68H37.4917H41.9461L41.9697 43.476C41.9828 43.3638 42.0157 43.0668 42.043 42.816C42.0703 42.5652 42.1153 42.1548 42.1429 41.904C42.2112 41.2844 42.3124 40.3379 42.4304 39.216C42.4846 38.7012 42.5503 38.1225 42.5764 37.9301C42.6026 37.7376 42.624 37.5486 42.624 37.5101C42.624 37.4491 41.9566 37.44 37.4816 37.44H32.3394L32.3709 37.644ZM1.45077 37.6251C1.39545 37.7691 1.59129 38.2178 1.80081 38.4273C2.19213 38.8187 1.06953 38.784 13.3263 38.784H24.289L24.5055 38.6822C24.744 38.5701 25.104 38.1959 25.104 38.06C25.104 38.0125 25.1256 37.9603 25.152 37.944C25.1784 37.9277 25.2 37.8345 25.2 37.7371V37.56H13.3378C3.38841 37.56 1.47177 37.5705 1.45077 37.6251ZM7.63389 41.46C7.63497 41.4798 7.88721 41.6688 8.19429 41.88C9.10461 42.506 9.47493 42.7657 9.56457 42.8409C9.61101 42.8801 9.66861 42.912 9.69249 42.912C9.71637 42.912 9.74313 42.9296 9.75201 42.9513C9.76989 42.9953 10.346 43.392 10.392 43.392C10.4288 43.392 10.9954 43.0095 11.0754 42.9307C11.1223 42.8844 11.0317 42.7991 10.6434 42.5233C10.3731 42.3314 10.0116 42.0737 9.83997 41.9507C9.66837 41.8277 9.42693 41.6588 9.30333 41.5755L9.07869 41.424H8.35533C7.95753 41.424 7.63281 41.4402 7.63389 41.46ZM14.292 41.5533C14.0463 41.7221 14.0563 41.7435 14.5288 42.072C14.7568 42.2304 15.1072 42.4739 15.3076 42.6129C15.508 42.7521 15.7064 42.8948 15.7485 42.9301C15.8722 43.0339 16.4082 43.392 16.4395 43.392C16.4708 43.392 17.1457 42.9426 17.2735 42.8365C17.397 42.7341 18.7696 41.7673 18.9942 41.6245C19.1054 41.5538 19.1972 41.4798 19.1982 41.46C19.1991 41.4402 18.1362 41.4253 16.836 41.4269L14.472 41.4297L14.292 41.5533ZM13.056 43.358C12.99 43.3949 12.6876 43.6016 12.384 43.8176C12.0804 44.0335 11.6725 44.3231 11.4777 44.4611C11.2828 44.5991 10.9828 44.8146 10.8111 44.94C10.364 45.2664 10.4126 45.2845 9.07197 44.2951C8.66493 43.9947 8.84949 44.0105 5.92797 44.0263L3.38397 44.04L3.39633 44.1973C3.44853 44.862 4.30713 45.873 5.12361 46.2313C5.79801 46.5272 5.30037 46.5103 13.32 46.5103C20.2843 46.5103 20.6312 46.5062 20.952 46.4209C22.0882 46.1186 22.8967 45.3504 23.2684 44.2199C23.34 44.0023 23.449 44.0102 20.616 44.0261L18.12 44.04L17.904 44.1954C17.7852 44.2809 17.5044 44.4789 17.28 44.6355C17.0556 44.7921 16.8453 44.9442 16.8128 44.9732C16.7802 45.0024 16.6816 45.0687 16.5937 45.1206L16.4337 45.215L16.2375 45.0835C15.7982 44.7889 15.2865 44.4297 15.264 44.4002C15.2508 44.3829 15.0996 44.2747 14.928 44.1596C14.7564 44.0445 14.423 43.8093 14.1872 43.6369C13.7154 43.2919 13.3404 43.1995 13.056 43.358Z" fill="#EBD492"></path><path fill-rule="evenodd" clip-rule="evenodd" d="M11.8458 18.156C11.8346 18.189 11.8424 18.4428 11.8633 18.72C11.8841 18.9972 11.9239 19.5696 11.9516 19.992C11.9795 20.4144 12.0227 21.0516 12.0477 21.408C12.0727 21.7644 12.1161 22.3908 12.1442 22.8C12.1723 23.2092 12.2167 23.8572 12.243 24.24C12.3168 25.3137 12.3811 26.1717 12.4398 26.8623L12.4933 27.4928L14.9947 27.5172C17.5431 27.542 17.6701 27.5505 18.528 27.7537C20.5649 28.2362 22.3788 29.5203 23.5314 31.296C24.1845 32.3022 24.696 33.7045 24.7926 34.7535C24.8279 35.138 24.8539 35.1822 25.1016 35.279C26.3957 35.7851 27.084 37.7587 26.3433 38.8394C26.2952 38.9095 26.256 38.9821 26.256 39.0007C26.256 39.0194 26.1696 39.1379 26.064 39.264C25.8307 39.5426 25.8306 39.5264 26.0653 39.7903C26.1702 39.9081 26.256 40.0236 26.256 40.0469C26.256 40.0701 26.2952 40.1465 26.3433 40.2165C27.0931 41.3105 26.4738 43.1001 25.1115 43.776C24.8823 43.8897 24.8113 43.9509 24.7899 44.0529C24.5142 45.3726 23.8896 46.3688 22.9002 47.0669C22.7154 47.1973 22.5632 47.3202 22.562 47.34C22.5609 47.3598 24.042 47.376 25.8534 47.376H29.1469L29.1173 47.172C29.1011 47.0598 29.0651 46.752 29.0373 46.488C28.98 45.9417 28.9476 45.6416 28.776 44.064C28.7085 43.4436 28.6311 42.7308 28.6041 42.48C28.577 42.2292 28.535 41.8404 28.5107 41.616C28.4864 41.3916 28.4432 40.992 28.4147 40.728C28.3862 40.464 28.3423 40.0644 28.3171 39.84C28.2919 39.6156 28.2493 39.2268 28.2224 38.976C28.1955 38.7252 28.1519 38.3256 28.1253 38.088C28.0988 37.8504 28.0568 37.4616 28.032 37.224C27.9887 36.8088 27.9413 36.3764 27.8375 35.448C27.8108 35.2104 27.7688 34.8216 27.744 34.584C27.7191 34.3464 27.6767 33.9522 27.6494 33.708C27.6222 33.4638 27.5789 33.075 27.5532 32.844C27.5274 32.613 27.4831 32.208 27.4548 31.944C27.4265 31.68 27.3833 31.2804 27.3588 31.056C27.3343 30.8316 27.2924 30.4428 27.2655 30.192C27.2387 29.9412 27.1949 29.5416 27.1683 29.304C27.1417 29.0664 27.0981 28.656 27.0715 28.392C27.0449 28.128 27.0116 27.8616 26.9976 27.7999C26.9322 27.5119 26.9546 27.504 27.843 27.504H28.6554L28.6677 23.508L28.68 19.512L30.672 19.488L32.664 19.464L32.6987 19.104C32.7177 18.906 32.7465 18.6339 32.7627 18.4995C32.7859 18.3079 32.7751 18.2379 32.7127 18.1755C32.6071 18.0699 11.8818 18.0505 11.8458 18.156ZM21.48 20.232V20.904H17.808H14.136L14.1224 20.2825C14.1151 19.9407 14.1198 19.6328 14.1331 19.5983C14.1528 19.547 14.8368 19.5377 17.8185 19.5476L21.48 19.56V20.232ZM24.7573 20.22L24.744 20.904H23.856H22.968L22.9541 20.328C22.9329 19.4525 22.8351 19.536 23.8823 19.536H24.7706L24.7573 20.22Z" fill="#26D6E2"></path><path fill-rule="evenodd" clip-rule="evenodd" d="M27.4206 1.52242C27.4936 1.53346 27.6016 1.53322 27.6606 1.52182C27.7196 1.51042 27.66 1.5013 27.528 1.50166C27.396 1.50202 27.3476 1.51138 27.4206 1.52242ZM27.816 1.56682C28.0604 1.78366 28.1504 1.8469 28.0562 1.73554C28.0039 1.67374 27.9176 1.6009 27.8644 1.57366C27.8114 1.54642 27.7896 1.54342 27.816 1.56682ZM28.1896 2.23198C28.19 2.36398 28.1994 2.41234 28.2104 2.33938C28.2214 2.2663 28.2212 2.1583 28.2098 2.09938C28.1984 2.04034 28.1893 2.09998 28.1896 2.23198ZM21.216 9.59998V10.176H21.888H22.56V9.59998V9.02398H21.888H21.216V9.59998ZM44.1598 19.956C44.1598 19.9758 44.3704 19.9862 44.6278 19.9793C45.4951 19.9556 45.5802 19.9377 44.868 19.9289C44.4786 19.9239 44.16 19.9362 44.1598 19.956ZM30.1274 20.964C30.1152 20.9838 30.4142 21 30.792 21C31.1697 21 31.4688 20.9838 31.4565 20.964C31.4443 20.9442 31.1452 20.928 30.792 20.928C30.4387 20.928 30.1396 20.9442 30.1274 20.964ZM35.7433 20.964C35.731 20.9838 36.0159 21 36.3765 21H37.032L37.0452 26.4C37.0524 29.37 37.0466 31.8486 37.0322 31.908C37.0011 32.0365 35.7944 32.0815 35.7438 31.956C35.7304 31.923 35.7178 32.1822 35.7158 32.532L35.712 33.168H36.3788C36.9427 33.168 37.0502 33.1562 37.0748 33.092C37.1354 32.9342 37.1074 21.0467 37.0464 20.9856C36.9822 20.9214 35.782 20.9015 35.7433 20.964ZM41.3395 28.04C41.3331 30.7769 41.341 33.0503 41.3571 33.092C41.3982 33.1989 41.659 33.1927 41.6938 33.084C41.7086 33.0378 41.7392 32.9568 41.7619 32.904C41.7846 32.8512 41.8354 32.7108 41.8749 32.592C41.9144 32.4732 41.9895 32.2572 42.0418 32.112C42.0942 31.9668 42.2682 31.4829 42.4285 31.0369L42.72 30.2257L42.7183 28.5169L42.7166 26.808L42.5334 27.336C42.4327 27.6264 42.3026 27.9936 42.2444 28.152C42.1863 28.3104 42.1064 28.5372 42.0669 28.656C42.0274 28.7748 41.9762 28.9152 41.9529 28.968C41.9078 29.0709 41.7368 29.5512 41.5286 30.1605L41.4 30.5372L41.3755 26.8005L41.3511 23.064L41.3395 28.04ZM30.1065 26.904L30.12 27.48L30.7024 27.4934L31.2849 27.5069L31.3849 27.7334L31.4848 27.96L31.4864 27.144L31.488 26.328H30.7905H30.0932L30.1065 26.904ZM44.1705 26.904L44.184 27.48L44.868 27.4933L45.552 27.5066V26.9173V26.328H44.8545H44.1572L44.1705 26.904ZM32.932 30.3787L32.928 32.0773L33.1264 32.6227L33.325 33.168H33.7744H34.224V32.5853C34.224 32.1267 34.2088 31.9913 34.1529 31.9493C34.0892 31.9015 33.912 31.4628 33.7143 30.864C33.6752 30.7452 33.6237 30.6048 33.6 30.552C33.5762 30.4992 33.5245 30.3588 33.485 30.24C33.4455 30.1212 33.3234 29.7756 33.2136 29.472C33.1036 29.1684 32.9964 28.866 32.975 28.8C32.9536 28.7337 32.9343 29.441 32.932 30.3787ZM28.6275 29.316C28.6454 29.4942 28.6796 29.8128 28.7034 30.024C28.7518 30.4541 28.8057 30.9501 28.9928 32.688C29.0169 32.9124 29.0584 33.2904 29.0852 33.528C29.1118 33.7656 29.1555 34.1652 29.1824 34.416C29.2093 34.6668 29.2519 35.0556 29.2771 35.28C29.3023 35.5044 29.345 35.8932 29.3721 36.144C29.3991 36.3948 29.4765 37.1076 29.544 37.728C29.7541 39.6595 29.7646 39.7574 29.808 40.176C29.8312 40.4004 29.8744 40.8 29.904 41.064C29.9335 41.328 29.978 41.733 30.0028 41.964C30.0277 42.195 30.0702 42.5838 30.0974 42.828C30.1246 43.0722 30.169 43.4772 30.196 43.728C30.2232 43.9788 30.2644 44.3568 30.2878 44.568C30.3112 44.7792 30.3537 45.168 30.3822 45.432C30.4107 45.696 30.4497 46.0416 30.4689 46.2L30.504 46.488L37.4614 46.5001C41.288 46.5068 44.4348 46.496 44.4542 46.4761C44.4735 46.4563 44.5345 46.0188 44.5896 45.504C44.6446 44.9892 44.7099 44.3952 44.7345 44.184C44.7592 43.9728 44.8027 43.584 44.831 43.32C44.8792 42.8708 44.9036 42.6498 45.0228 41.58C45.0697 41.1583 45.0819 41.0459 45.167 40.248C45.1923 40.0104 45.236 39.6108 45.264 39.36C45.2919 39.1092 45.337 38.6988 45.364 38.448C45.3912 38.1972 45.4324 37.8192 45.456 37.608C45.4795 37.3968 45.5215 37.0134 45.5493 36.756C45.5772 36.4986 45.6228 36.0774 45.6506 35.82C45.6784 35.5626 45.7204 35.1792 45.744 34.968C45.7675 34.7568 45.8088 34.3788 45.8359 34.128C45.8629 33.8772 45.9079 33.4668 45.9356 33.216C45.9634 32.9652 46.006 32.5764 46.0302 32.352C46.0544 32.1276 46.0977 31.728 46.1264 31.464C46.155 31.2 46.1996 30.7896 46.2254 30.552C46.2512 30.3144 46.2949 29.8932 46.3225 29.616C46.35 29.3388 46.3816 29.085 46.3928 29.052C46.4084 29.0054 46.2199 28.992 45.5536 28.992C44.7036 28.992 44.6941 28.9932 44.6642 29.1C44.6475 29.1594 44.6148 29.2512 44.5914 29.304C44.568 29.3568 44.5167 29.4972 44.4776 29.616C44.4384 29.7348 44.3386 30.0156 44.256 30.24C44.1733 30.4644 44.0727 30.7452 44.0326 30.864C43.9414 31.1337 43.275 33.0075 43.1491 33.348C42.9223 33.9617 42.8671 34.1155 42.8094 34.296C42.7756 34.4016 42.7282 34.515 42.7041 34.548C42.6694 34.5954 41.5689 34.608 37.4809 34.608H32.3016L32.2496 34.476C32.221 34.4034 32.1366 34.1712 32.0618 33.96C31.9869 33.7488 31.8583 33.3924 31.7757 33.168C31.6932 32.9436 31.5936 32.6628 31.5543 32.544C31.5152 32.4252 31.4642 32.2848 31.4409 32.232C31.3957 32.129 31.1914 31.5536 31.0746 31.2C31.0352 31.0812 30.9837 30.9408 30.96 30.888C30.9362 30.8352 30.8853 30.6948 30.8469 30.576C30.8085 30.4572 30.7442 30.2736 30.704 30.168C30.6639 30.0624 30.5515 29.7546 30.4542 29.484L30.2773 28.992H29.4361H28.5948L28.6275 29.316ZM38.544 32.58V33.168H39.216H39.888V32.58L39.8881 31.992H39.2161H38.5441L38.544 32.58ZM44.2366 36.252C44.2015 36.5227 44.1364 37.1057 44.064 37.8C44.0391 38.0376 43.9966 38.4318 43.9694 38.676C43.9422 38.9202 43.8997 39.309 43.8748 39.54C43.85 39.771 43.8073 40.1652 43.7799 40.416C43.6432 41.6685 43.3831 44.0983 43.338 44.544C43.3099 44.8212 43.2648 45.075 43.2375 45.108C43.1652 45.1959 31.8098 45.1959 31.7403 45.108C31.7142 45.075 31.6788 44.886 31.6615 44.688C31.6321 44.3491 31.5924 43.9695 31.4859 43.008C31.4611 42.7836 31.4187 42.3948 31.392 42.144C31.3652 41.8932 31.323 41.5044 31.2982 41.28C31.2735 41.0556 31.2312 40.6668 31.204 40.416C31.177 40.1652 31.1319 39.7548 31.104 39.504C31.076 39.2532 31.031 38.8428 31.0041 38.592C30.9771 38.3412 30.9354 37.9524 30.9112 37.728C30.8871 37.5036 30.846 37.1139 30.8198 36.8622C30.7938 36.6104 30.7578 36.3134 30.74 36.2022L30.7077 36H37.4886H44.2693L44.2366 36.252ZM2.39936 40.289C1.20068 40.5474 1.1222 42.2006 2.29316 42.5258C2.48828 42.5799 6.4898 42.5982 6.54284 42.5451C6.55988 42.5281 6.39608 42.392 6.17888 42.2426C5.81648 41.9934 5.1416 41.5163 4.22396 40.8607C3.2456 40.1617 3.14144 40.1292 2.39936 40.289ZM5.95196 40.2705C5.95196 40.2961 6.1916 40.4851 6.48452 40.6905C6.77744 40.8959 7.1354 41.1469 7.27988 41.2483L7.5428 41.4325L8.30792 41.4264L9.07316 41.4201L9.30056 41.5743C9.57104 41.7577 10.1864 42.1935 10.753 42.6029L11.1622 42.8985L11.617 42.5751C12.1722 42.1806 12.1718 42.1939 11.64 41.8193C11.4024 41.6519 10.9419 41.3271 10.6168 41.0975C10.2918 40.8679 9.8732 40.5774 9.6866 40.452L9.34736 40.224H7.64972C6.58556 40.224 5.95196 40.2414 5.95196 40.2705ZM12.0264 40.2681C12.0114 40.2924 12.2098 40.4576 12.4675 40.6353C12.7251 40.8129 13.044 41.0375 13.176 41.1341C13.8942 41.6597 14.112 41.801 14.112 41.7416C14.112 41.706 14.1985 41.6195 14.3042 41.5495L14.4963 41.4223L16.8966 41.4248L19.2968 41.4273L19.5558 41.2457C19.6983 41.1457 20.0545 40.8959 20.3474 40.6905C20.6403 40.4851 20.88 40.2961 20.88 40.2705C20.88 40.2091 12.0643 40.2067 12.0264 40.2681ZM23.4816 40.2744C23.371 40.3187 22.9412 40.5989 22.896 40.656C22.8828 40.6727 22.764 40.7591 22.632 40.8481C22.5 40.937 22.1004 41.2166 21.744 41.4695C20.9257 42.0499 20.9538 42.0302 20.5748 42.2922C20.3996 42.4133 20.2706 42.5267 20.2881 42.5442C20.3418 42.5978 24.1496 42.5805 24.3468 42.5258C25.2807 42.2664 25.4877 40.9855 24.6819 40.4522C24.4106 40.2727 23.7352 40.1726 23.4816 40.2744ZM13.2163 43.212L13.0699 43.32H13.416H13.762L13.6156 43.212C13.5352 43.1526 13.4454 43.104 13.416 43.104C13.3866 43.104 13.2967 43.1526 13.2163 43.212Z" fill="#F0531B"></path><path fill-rule="evenodd" clip-rule="evenodd" d="M26.904 0.0326184C26.7984 0.0446184 26.6915 0.0744984 26.6664 0.0992184C26.6413 0.123818 26.5508 0.143978 26.4653 0.143978C26.3797 0.143978 26.2963 0.165578 26.28 0.191978C26.2637 0.218378 26.1665 0.239978 26.064 0.239978C25.9615 0.239978 25.8643 0.261578 25.848 0.287978C25.8317 0.314378 25.7453 0.335978 25.656 0.335978C25.5667 0.335978 25.4803 0.357578 25.464 0.383978C25.4477 0.410378 25.3599 0.431978 25.2691 0.431978C25.1783 0.431978 25.104 0.453578 25.104 0.479978C25.104 0.506378 25.0176 0.527978 24.912 0.527978C24.8064 0.527978 24.72 0.549578 24.72 0.575978C24.72 0.602378 24.6336 0.623978 24.528 0.623978C24.4224 0.623978 24.336 0.645578 24.336 0.671978C24.336 0.698378 24.2496 0.719978 24.144 0.719978C24.0384 0.719978 23.952 0.741578 23.952 0.767978C23.952 0.794378 23.8656 0.815979 23.76 0.815979C23.6544 0.815979 23.568 0.837578 23.568 0.863978C23.568 0.890378 23.4816 0.911978 23.376 0.911978C23.2704 0.911978 23.184 0.931418 23.184 0.955058C23.184 0.978818 23.0327 1.01338 22.8477 1.03198C22.6629 1.05058 22.4996 1.08514 22.485 1.1089C22.4703 1.13254 22.3745 1.15198 22.272 1.15198C22.1695 1.15198 22.0723 1.17358 22.056 1.19998C22.0397 1.22638 21.9533 1.24798 21.864 1.24798C21.7747 1.24798 21.6883 1.26958 21.672 1.29598C21.6557 1.32238 21.5693 1.34398 21.48 1.34398C21.3907 1.34398 21.3043 1.36558 21.288 1.39198C21.2717 1.41838 21.1731 1.43998 21.0691 1.43998C20.9651 1.43998 20.88 1.46158 20.88 1.48798C20.88 1.51438 20.7936 1.53598 20.688 1.53598C20.5824 1.53598 20.496 1.55758 20.496 1.58398C20.496 1.61038 20.4096 1.63198 20.304 1.63198C20.1984 1.63198 20.112 1.65358 20.112 1.67998C20.112 1.70638 20.0348 1.72798 19.9405 1.72798C19.6109 1.72798 19.632 1.4377 19.632 5.9725V10.08H15.936C12.6679 10.08 12.24 10.0884 12.24 10.1526C12.24 10.1925 12.221 10.2627 12.1979 10.3086C12.1272 10.4486 12.048 10.7289 12.048 10.8393C12.048 10.8969 12.0264 10.944 12 10.944C11.9736 10.944 11.952 10.9967 11.952 11.0611C11.952 11.1255 11.9304 11.1917 11.904 11.208C11.8776 11.2243 11.856 11.2904 11.856 11.3549C11.856 11.4193 11.8344 11.472 11.808 11.472C11.7816 11.472 11.76 11.5368 11.76 11.616C11.76 11.6952 11.7384 11.76 11.712 11.76C11.6856 11.76 11.664 11.8248 11.664 11.904C11.664 11.9832 11.6424 12.048 11.616 12.048C11.5896 12.048 11.568 12.1128 11.568 12.192C11.568 12.2712 11.5464 12.336 11.52 12.336C11.4936 12.336 11.472 12.4008 11.472 12.48C11.472 12.5592 11.4504 12.624 11.424 12.624C11.3976 12.624 11.376 12.6845 11.376 12.7584C11.376 12.8323 11.3562 12.9133 11.3321 12.9384C11.3078 12.9635 11.2808 13.038 11.2721 13.104L11.256 13.224L10.4731 13.248C9.62159 13.2741 9.50807 13.3173 9.50507 13.6171C9.50447 13.6749 9.48239 13.7357 9.45599 13.752C9.42959 13.7683 9.40799 13.8439 9.40799 13.92C9.40799 13.9961 9.38639 14.0717 9.35999 14.088C9.33359 14.1043 9.31199 14.1812 9.31199 14.2589C9.31199 14.3365 9.29039 14.4 9.26399 14.4C9.23759 14.4 9.21599 14.4542 9.21599 14.5206C9.21599 14.5869 9.19643 14.6787 9.17243 14.7246C9.10823 14.8473 8.97599 15.3093 8.97599 15.4106C8.97599 15.4589 8.95439 15.5117 8.92799 15.528C8.90159 15.5443 8.87999 15.6199 8.87999 15.696C8.87999 15.7721 8.85839 15.8477 8.83199 15.864C8.80559 15.8803 8.78399 15.9572 8.78399 16.0349C8.78399 16.1125 8.76239 16.176 8.73599 16.176C8.70959 16.176 8.68799 16.2408 8.68799 16.32C8.68799 16.3992 8.66639 16.464 8.63999 16.464C8.61359 16.464 8.59199 16.5288 8.59199 16.608C8.59199 16.6872 8.57039 16.752 8.54399 16.752C8.51759 16.752 8.49599 16.8168 8.49599 16.896C8.49599 16.9752 8.47439 17.04 8.44799 17.04C8.42159 17.04 8.39999 17.1035 8.39999 17.1811C8.39999 17.2587 8.37839 17.3357 8.35199 17.352C8.32559 17.3683 8.30399 17.4452 8.30399 17.5229C8.30399 17.6005 8.28239 17.664 8.25599 17.664C8.22959 17.664 8.20799 17.7288 8.20799 17.808C8.20799 17.8872 8.18639 17.952 8.15999 17.952C8.13359 17.952 8.11199 18.0168 8.11199 18.096V18.24H9.23999H10.368V18.888C10.368 19.2879 10.3863 19.536 10.416 19.536C10.4457 19.536 10.464 19.8 10.464 20.232C10.464 20.664 10.4822 20.928 10.512 20.928C10.5417 20.928 10.56 21.1839 10.56 21.6C10.56 22.016 10.5782 22.272 10.608 22.272C10.6377 22.272 10.656 22.527 10.656 22.9411C10.656 23.3355 10.6757 23.6225 10.704 23.64C10.7322 23.6574 10.752 23.9365 10.752 24.3149C10.752 24.7129 10.7703 24.96 10.8 24.96C10.8297 24.96 10.848 25.224 10.848 25.656C10.848 26.088 10.8662 26.352 10.896 26.352C10.925 26.352 10.944 26.5599 10.944 26.88V27.408H10.1309C9.64043 27.408 9.30587 27.4271 9.28799 27.456C9.27167 27.4824 9.10967 27.504 8.92799 27.504C8.74631 27.504 8.58431 27.5256 8.56799 27.552C8.55167 27.5784 8.44235 27.6 8.32511 27.6C8.20787 27.6 8.11199 27.6216 8.11199 27.648C8.11199 27.6744 8.02559 27.696 7.91999 27.696C7.81439 27.696 7.72799 27.7176 7.72799 27.744C7.72799 27.7704 7.66319 27.792 7.58399 27.792C7.50479 27.792 7.43999 27.8136 7.43999 27.84C7.43999 27.8664 7.38731 27.888 7.32287 27.888C7.25843 27.888 7.19231 27.9096 7.17599 27.936C7.15967 27.9624 7.09355 27.984 7.02911 27.984C6.96467 27.984 6.91199 28.0056 6.91199 28.032C6.91199 28.0584 6.86879 28.08 6.81599 28.08C6.76319 28.08 6.71999 28.1016 6.71999 28.128C6.71999 28.1544 6.66731 28.176 6.60287 28.176C6.53843 28.176 6.47231 28.1976 6.45599 28.224C6.43967 28.2504 6.38435 28.272 6.33311 28.272C6.28187 28.272 6.23999 28.2936 6.23999 28.32C6.23999 28.3464 6.20159 28.368 6.15455 28.368C6.10763 28.368 6.03803 28.4112 5.99999 28.464C5.96195 28.5168 5.89235 28.56 5.84543 28.56C5.79839 28.56 5.75999 28.5816 5.75999 28.608C5.75999 28.6344 5.71679 28.656 5.66399 28.656C5.61119 28.656 5.56799 28.674 5.56799 28.6958C5.56799 28.7178 5.50859 28.7663 5.43599 28.8036C5.36339 28.8408 5.26907 28.9093 5.22635 28.9556C5.18363 29.0021 5.12519 29.04 5.09651 29.04C5.06783 29.04 4.99475 29.0891 4.93415 29.1491C4.87355 29.2089 4.74839 29.3111 4.65599 29.3759C4.44935 29.5207 3.59999 30.3746 3.59999 30.4376C3.59999 30.4627 3.52439 30.5588 3.43199 30.6512C3.33959 30.7436 3.26399 30.8385 3.26399 30.8622C3.26399 30.8858 3.23699 30.9337 3.20387 30.9685C3.10631 31.0716 2.87999 31.4339 2.87999 31.4869C2.87999 31.5139 2.85839 31.536 2.83199 31.536C2.80559 31.536 2.78399 31.5792 2.78399 31.632C2.78399 31.6848 2.76239 31.728 2.73599 31.728C2.70959 31.728 2.68799 31.7712 2.68799 31.824C2.68799 31.8768 2.66639 31.92 2.63999 31.92C2.61359 31.92 2.59199 31.9632 2.59199 32.016C2.59199 32.0688 2.57039 32.112 2.54399 32.112C2.51759 32.112 2.49599 32.1552 2.49599 32.208C2.49599 32.2608 2.47439 32.304 2.44799 32.304C2.42159 32.304 2.39999 32.3472 2.39999 32.4C2.39999 32.4528 2.37839 32.496 2.35199 32.496C2.32559 32.496 2.30399 32.5608 2.30399 32.64C2.30399 32.7192 2.28239 32.784 2.25599 32.784C2.22959 32.784 2.20799 32.8259 2.20799 32.8771C2.20799 32.9283 2.18639 32.9837 2.15999 33C2.13359 33.0163 2.11199 33.0932 2.11199 33.1709C2.11199 33.2485 2.09039 33.312 2.06399 33.312C2.03759 33.312 2.01599 33.3768 2.01599 33.456C2.01599 33.5352 1.99655 33.6 1.97279 33.6C1.93187 33.6 1.90439 33.7465 1.84223 34.296C1.82735 34.428 1.79555 34.5565 1.77155 34.5816C1.74755 34.6067 1.72799 34.7261 1.72799 34.847V35.0667L1.39511 35.2238C1.07363 35.3754 0.431987 35.9221 0.431987 36.0443C0.431987 36.0727 0.410387 36.096 0.383987 36.096C0.357587 36.096 0.335987 36.1284 0.335987 36.168C0.335987 36.2076 0.314387 36.24 0.287987 36.24C0.261587 36.24 0.239987 36.2832 0.239987 36.336C0.239987 36.3888 0.218387 36.432 0.191987 36.432C0.165587 36.432 0.143987 36.4734 0.143987 36.524C0.143987 36.5745 0.116987 36.6249 0.0839868 36.636C0.0386268 36.6511 0.0239868 36.8917 0.0239868 37.6215C0.0239868 38.33 0.0399468 38.6031 0.0839868 38.6472C0.116987 38.6802 0.143987 38.7461 0.143987 38.7936C0.143987 38.8411 0.165587 38.88 0.191987 38.88C0.218387 38.88 0.239987 38.9124 0.239987 38.952C0.239987 38.9916 0.261587 39.024 0.287987 39.024C0.314387 39.024 0.335987 39.0585 0.335987 39.1008C0.335987 39.1429 0.400787 39.2379 0.479987 39.312C0.614987 39.4381 0.673427 39.6 0.584147 39.6C0.562187 39.6 0.513587 39.6594 0.476147 39.732C0.438587 39.8046 0.370187 39.9059 0.323987 39.957C0.277787 40.0082 0.239987 40.0784 0.239987 40.113C0.239987 40.1477 0.218387 40.176 0.191987 40.176C0.165587 40.176 0.143987 40.2149 0.143987 40.2624C0.143987 40.3099 0.116987 40.3758 0.0839868 40.4088C0.0399468 40.4528 0.0239868 40.7259 0.0239868 41.4344C0.0239868 42.1643 0.0386268 42.4049 0.0839868 42.42C0.116987 42.431 0.143987 42.4814 0.143987 42.5319C0.143987 42.5826 0.165587 42.624 0.191987 42.624C0.218387 42.624 0.239987 42.6672 0.239987 42.72C0.239987 42.7728 0.261587 42.816 0.287987 42.816C0.314387 42.816 0.335987 42.8379 0.335987 42.8647C0.335987 42.9146 1.03271 43.632 1.08119 43.632C1.09595 43.632 1.15439 43.6752 1.21103 43.728C1.26767 43.7808 1.35323 43.824 1.40099 43.824C1.44887 43.824 1.48799 43.8456 1.48799 43.872C1.48799 43.8984 1.54199 43.92 1.60799 43.92C1.70327 43.92 1.72799 43.9442 1.72799 44.0371C1.72799 44.1015 1.74959 44.1677 1.77599 44.184C1.80239 44.2003 1.82399 44.2988 1.82399 44.4029C1.82399 44.5069 1.84559 44.592 1.87199 44.592C1.89839 44.592 1.91999 44.6555 1.91999 44.7331C1.91999 44.8107 1.94159 44.8877 1.96799 44.904C1.99439 44.9203 2.01599 44.9756 2.01599 45.0269C2.01599 45.0781 2.03759 45.12 2.06399 45.12C2.09039 45.12 2.11199 45.1632 2.11199 45.216C2.11199 45.2688 2.13359 45.312 2.15999 45.312C2.18639 45.312 2.20799 45.3619 2.20799 45.423C2.20799 45.4839 2.25119 45.5803 2.30399 45.6369C2.35679 45.6936 2.39999 45.7685 2.39999 45.8034C2.39999 45.8383 2.44319 45.8979 2.49599 45.936C2.54879 45.974 2.59199 46.0332 2.59199 46.0674C2.59199 46.1509 3.51059 47.0875 3.59279 47.0877C3.62831 47.0879 3.71795 47.1528 3.79199 47.232C3.86603 47.3112 3.96107 47.376 4.00319 47.376C4.04543 47.376 4.07999 47.3976 4.07999 47.424C4.07999 47.4504 4.12319 47.472 4.17599 47.472C4.22879 47.472 4.27199 47.4936 4.27199 47.52C4.27199 47.5464 4.31519 47.568 4.36799 47.568C4.42079 47.568 4.46399 47.5896 4.46399 47.616C4.46399 47.6424 4.50719 47.664 4.55999 47.664C4.61279 47.664 4.65599 47.6856 4.65599 47.712C4.65599 47.7384 4.71947 47.76 4.79711 47.76C4.87475 47.76 4.95167 47.7816 4.96799 47.808C4.98431 47.8344 5.05691 47.856 5.12927 47.856C5.20163 47.856 5.28779 47.883 5.32079 47.916C5.40887 48.0041 21.2706 48.0041 21.3 47.916C21.3115 47.8815 21.4003 47.856 21.5079 47.856C21.6114 47.856 21.696 47.8344 21.696 47.808C21.696 47.7816 21.7608 47.76 21.84 47.76C21.9192 47.76 21.984 47.7384 21.984 47.712C21.984 47.6856 22.0272 47.664 22.08 47.664C22.1328 47.664 22.176 47.6424 22.176 47.616C22.176 47.5896 22.2192 47.568 22.272 47.568C22.3248 47.568 22.368 47.5464 22.368 47.52C22.368 47.4936 22.4126 47.472 22.4672 47.472C22.5419 47.472 22.5595 47.45 22.5384 47.3834C22.5167 47.3153 22.5713 47.2543 22.7738 47.1198C23.6712 46.5239 24.4683 45.3708 24.6705 44.376C24.7615 43.9285 24.7916 43.8816 25.067 43.7586C26.7131 43.0235 27.0725 41.2196 25.8927 39.614C25.8183 39.5126 25.8231 39.4979 26.0037 39.278C27.08 37.9667 26.5989 35.9046 25.08 35.3183C24.846 35.2279 24.783 35.1139 24.7419 34.7064C24.5406 32.7065 23.1318 30.2829 21.552 29.219C21.4332 29.139 21.2928 29.0358 21.24 28.9895C21.1872 28.9431 21.063 28.86 20.964 28.8047C20.865 28.7493 20.703 28.6573 20.604 28.6002C20.0666 28.2901 19.2186 27.9518 18.624 27.8103C17.7389 27.5996 17.6172 27.5915 15.024 27.5675C13.638 27.5546 12.4889 27.5297 12.4704 27.512C12.4519 27.4944 12.414 27.1236 12.3859 26.688C12.3579 26.2524 12.3132 25.5828 12.2864 25.2C12.2373 24.4968 12.1808 23.6784 12.0949 22.428C12.0312 21.4992 11.9574 20.4548 11.9027 19.704C11.8776 19.3608 11.8429 18.8586 11.8256 18.588L11.7942 18.096H22.26C31.5186 18.096 32.7289 18.1043 32.7534 18.168C32.777 18.2298 32.9855 18.24 34.2224 18.24H35.664V18.096C35.664 18.0168 35.6424 17.952 35.616 17.952C35.5896 17.952 35.568 17.8872 35.568 17.808C35.568 17.7288 35.5464 17.664 35.52 17.664C35.4936 17.664 35.472 17.6005 35.472 17.5229C35.472 17.4452 35.4504 17.3683 35.424 17.352C35.3976 17.3357 35.376 17.2587 35.376 17.1811C35.376 17.1035 35.3544 17.04 35.328 17.04C35.3016 17.04 35.28 16.9752 35.28 16.896C35.28 16.8168 35.2584 16.752 35.232 16.752C35.2056 16.752 35.184 16.6872 35.184 16.608C35.184 16.5288 35.1624 16.464 35.136 16.464C35.1096 16.464 35.088 16.3992 35.088 16.32C35.088 16.2408 35.0693 16.176 35.0465 16.176C35.0237 16.176 34.9911 16.0743 34.9741 15.9503C34.9419 15.7159 34.8668 15.4445 34.7941 15.3006C34.7709 15.2547 34.752 15.1751 34.752 15.1235C34.752 15.0719 34.7304 15.0163 34.704 15C34.6776 14.9837 34.656 14.9067 34.656 14.8291C34.656 14.7515 34.6344 14.688 34.608 14.688C34.5816 14.688 34.56 14.6232 34.56 14.544C34.56 14.4648 34.5384 14.4 34.512 14.4C34.4856 14.4 34.464 14.3365 34.464 14.2589C34.464 14.1812 34.4424 14.1043 34.416 14.088C34.3896 14.0717 34.368 13.9961 34.368 13.92C34.368 13.8439 34.3464 13.7683 34.32 13.752C34.2936 13.7357 34.2715 13.6749 34.2709 13.6171C34.2679 13.3173 34.1544 13.2741 33.3029 13.248L32.52 13.224L32.5039 13.104C32.4951 13.038 32.4681 12.9635 32.4439 12.9384C32.4198 12.9133 32.4 12.8323 32.4 12.7584C32.4 12.6845 32.3784 12.624 32.352 12.624C32.3256 12.624 32.304 12.5592 32.304 12.48C32.304 12.4008 32.2824 12.336 32.256 12.336C32.2296 12.336 32.208 12.2712 32.208 12.192C32.208 12.1128 32.1864 12.048 32.16 12.048C32.1336 12.048 32.112 11.9832 32.112 11.904C32.112 11.8248 32.0904 11.76 32.064 11.76C32.0376 11.76 32.016 11.6952 32.016 11.616C32.016 11.5368 31.9944 11.472 31.968 11.472C31.9416 11.472 31.92 11.4193 31.92 11.3549C31.92 11.2904 31.8984 11.2243 31.872 11.208C31.8456 11.1917 31.824 11.1255 31.824 11.0611C31.824 10.9967 31.8024 10.944 31.776 10.944C31.7496 10.944 31.728 10.8792 31.728 10.8C31.728 10.7208 31.7064 10.656 31.68 10.656C31.6536 10.656 31.632 10.5912 31.632 10.512C31.632 10.4328 31.6104 10.368 31.584 10.368C31.5576 10.368 31.536 10.3032 31.536 10.224V10.08H27.84H24.144V7.67998V5.27998H24.336C24.4416 5.27998 24.528 5.25838 24.528 5.23198C24.528 5.20558 24.6023 5.18398 24.6931 5.18398C24.7839 5.18398 24.8717 5.16238 24.888 5.13598C24.9043 5.10958 24.9815 5.08798 25.0595 5.08798C25.1375 5.08798 25.2387 5.0683 25.2846 5.0443C25.3304 5.0203 25.5192 4.97842 25.704 4.95106C26.2086 4.87666 26.3663 4.84558 26.472 4.79998C26.5761 4.75498 26.7876 4.7125 27.108 4.67206C27.2202 4.6579 27.312 4.62694 27.312 4.60318C27.312 4.57942 27.3984 4.55998 27.504 4.55998C27.6096 4.55998 27.696 4.53838 27.696 4.51198C27.696 4.48558 27.7824 4.46398 27.888 4.46398C27.9936 4.46398 28.08 4.44238 28.08 4.41598C28.08 4.38958 28.1448 4.36798 28.224 4.36798C28.3032 4.36798 28.368 4.34638 28.368 4.31998C28.368 4.29358 28.3961 4.27198 28.4304 4.27198C28.5187 4.27198 28.7511 4.15906 28.7516 4.11598C28.7519 4.09618 28.7741 4.07998 28.8011 4.07998C28.8787 4.07998 29.376 3.56194 29.376 3.48106C29.376 3.44086 29.3976 3.40798 29.424 3.40798C29.4504 3.40798 29.472 3.36478 29.472 3.31198C29.472 3.25918 29.4936 3.21598 29.52 3.21598C29.5464 3.21598 29.568 3.17278 29.568 3.11998C29.568 3.06718 29.5896 3.02398 29.616 3.02398C29.6424 3.02398 29.664 2.9497 29.664 2.85886C29.664 2.76802 29.6856 2.6803 29.712 2.66398C29.7384 2.64766 29.76 2.46406 29.76 2.25598C29.76 2.0479 29.7384 1.8643 29.712 1.84798C29.6856 1.83166 29.664 1.73446 29.664 1.63198C29.664 1.5295 29.6424 1.4323 29.616 1.41598C29.5896 1.39966 29.568 1.33354 29.568 1.2691C29.568 1.20466 29.5464 1.15198 29.52 1.15198C29.4936 1.15198 29.472 1.12438 29.472 1.09054C29.472 1.05682 29.4288 0.998018 29.376 0.959978C29.3232 0.921938 29.28 0.860979 29.28 0.824619C29.28 0.737499 28.8729 0.355058 28.6976 0.277418C28.6219 0.243938 28.56 0.200258 28.56 0.180218C28.56 0.160298 28.5211 0.143978 28.4736 0.143978C28.4261 0.143978 28.3611 0.117938 28.3293 0.0861384C28.2697 0.0264984 27.2831 -0.0105816 26.904 0.0326184ZM27.8696 1.51786C28.3949 1.7671 28.3687 2.92798 27.8378 2.92798C27.7893 2.92798 27.7377 2.94718 27.7232 2.9707C27.7087 2.9941 27.6265 3.02542 27.5405 3.04006C27.3573 3.07114 27.0313 3.14266 26.76 3.21118C26.6544 3.23782 26.5032 3.2725 26.424 3.2881C26.2827 3.31594 26.136 3.3511 25.752 3.44902C25.6464 3.4759 25.4628 3.5197 25.344 3.54634C25.2252 3.57298 24.9444 3.6379 24.72 3.6907C24.1321 3.82906 23.7497 3.91714 23.232 4.03318C22.9812 4.08946 22.7382 4.1461 22.692 4.15894C22.6131 4.18102 22.608 4.36726 22.608 7.20322V10.224H21.8876H21.1674L21.1796 6.58918L21.192 2.95426L21.312 2.92054C21.378 2.90194 21.5238 2.86354 21.636 2.83534C21.7482 2.80714 21.9318 2.76058 22.044 2.73202C22.1562 2.70346 22.329 2.66026 22.428 2.63602C22.527 2.61178 22.689 2.57086 22.788 2.54494C22.887 2.51914 23.4756 2.37622 24.096 2.22742C24.7164 2.07862 25.656 1.85278 26.184 1.72546C26.712 1.59826 27.1872 1.48438 27.24 1.47262C27.4518 1.42522 27.7141 1.44406 27.8696 1.51786ZM30.4133 11.6047C30.4425 11.6241 30.4941 11.7264 30.5279 11.832C30.5617 11.9376 30.6054 12.0672 30.6252 12.12C30.6449 12.1728 30.6872 12.3132 30.7191 12.432C30.7512 12.5508 30.7968 12.6855 30.8207 12.7314C30.8445 12.7772 30.864 12.8539 30.864 12.9018C30.864 12.9497 30.8838 13.0093 30.908 13.0344C30.9324 13.0595 30.9594 13.1556 30.968 13.248L30.984 13.416H21.888H12.792L12.8053 13.272C12.8126 13.1928 12.837 13.0848 12.8595 13.032C12.8821 12.9792 12.9486 12.774 13.0071 12.576C13.0658 12.378 13.1333 12.1784 13.1569 12.1326C13.1805 12.0867 13.2 12.0071 13.2 11.9555C13.2 11.9039 13.2216 11.8483 13.248 11.832C13.2744 11.8157 13.296 11.7621 13.296 11.7132C13.296 11.6641 13.323 11.6131 13.356 11.5998C13.4522 11.5609 30.3545 11.5658 30.4133 11.6047ZM33.101 14.868C33.1153 14.9142 33.147 14.9895 33.1715 15.0354C33.1959 15.0812 33.216 15.1517 33.216 15.192C33.216 15.2323 33.2354 15.3027 33.2593 15.3486C33.2832 15.3944 33.3288 15.5292 33.3608 15.648C33.3927 15.7668 33.4352 15.9072 33.455 15.96C33.6543 16.4903 33.6864 16.6578 33.5977 16.7052C33.4769 16.7699 10.298 16.7694 10.1772 16.7046C10.0917 16.659 10.0917 16.6485 10.1738 16.4046C10.2207 16.2656 10.3074 15.99 10.3664 15.792C10.4255 15.594 10.4933 15.3944 10.5169 15.3486C10.5405 15.3027 10.56 15.2323 10.56 15.192C10.56 15.1517 10.58 15.0812 10.6045 15.0354C10.629 14.9895 10.6607 14.9142 10.6749 14.868C10.6997 14.7883 11.2755 14.784 21.888 14.784C32.5004 14.784 33.0763 14.7883 33.101 14.868ZM42.624 19.968V21.504H40.608H38.592V20.472V19.44H36.384H34.176V20.472V21.504H33.5769H32.9779L32.9649 20.484L32.952 19.464L32.8385 19.4479C32.7759 19.4391 32.7014 19.4553 32.6729 19.4839C32.6371 19.5197 32.006 19.536 30.6626 19.536H28.7046L28.6922 23.532L28.68 27.528L27.8454 27.5412L27.0109 27.5543L27.0434 27.8052C27.0614 27.9431 27.0972 28.2504 27.1231 28.488C27.2426 29.5842 27.2622 29.7656 27.3092 30.216C27.3368 30.48 27.38 30.8796 27.4051 31.104C27.4303 31.3284 27.473 31.7172 27.5001 31.968C27.5271 32.2188 27.6045 32.9316 27.672 33.552C27.933 35.9515 27.9701 36.2949 28.032 36.888C28.0568 37.1256 28.1 37.5252 28.1282 37.776C28.1563 38.0268 28.199 38.4156 28.2231 38.64C28.2473 38.8644 28.2909 39.264 28.3202 39.528C28.4268 40.491 28.4642 40.833 28.512 41.28C28.5654 41.7792 28.6218 42.2939 28.7042 43.032C28.7337 43.296 28.7768 43.6956 28.8 43.92C28.8231 44.1444 28.8662 44.544 28.8957 44.808C29.0135 45.8623 29.0364 46.0747 29.0826 46.5413C29.1091 46.8081 29.1459 47.0869 29.1644 47.1607C29.1875 47.2521 29.1767 47.3117 29.1307 47.3474C29.082 47.3853 29.0678 47.4834 29.0798 47.7L29.0965 48H37.4923H45.888V47.688C45.888 47.5119 45.9089 47.376 45.936 47.376C45.9642 47.376 45.984 47.2089 45.984 46.9709C45.984 46.748 46.0056 46.5523 46.032 46.536C46.0584 46.5197 46.08 46.3253 46.08 46.104C46.08 45.8827 46.1016 45.6883 46.128 45.672C46.1544 45.6557 46.176 45.4505 46.176 45.216C46.176 44.9815 46.1976 44.7763 46.224 44.76C46.2504 44.7437 46.272 44.5479 46.272 44.3251C46.272 44.087 46.2918 43.92 46.32 43.92C46.3484 43.92 46.368 43.7439 46.368 43.488C46.368 43.232 46.3875 43.056 46.416 43.056C46.4442 43.056 46.464 42.8912 46.464 42.6576C46.464 42.4385 46.484 42.2387 46.5086 42.2136C46.5331 42.1885 46.5648 41.9844 46.5788 41.76C46.593 41.5356 46.6277 41.1468 46.656 40.896C46.6843 40.6452 46.719 40.2564 46.7331 40.032C46.7472 39.8076 46.7789 39.6035 46.8033 39.5784C46.8279 39.5533 46.848 39.3629 46.848 39.1553C46.848 38.9475 46.8677 38.7409 46.8918 38.6959C46.9158 38.6509 46.9512 38.2635 46.9704 37.835C46.9896 37.4065 47.0239 37.056 47.0467 37.056C47.0694 37.056 47.088 36.8737 47.088 36.6509C47.088 36.428 47.1096 36.2323 47.136 36.216C47.1624 36.1997 47.184 35.9945 47.184 35.76C47.184 35.5255 47.2056 35.3203 47.232 35.304C47.2584 35.2877 47.28 35.0919 47.28 34.8691C47.28 34.631 47.2998 34.464 47.328 34.464C47.3564 34.464 47.376 34.2879 47.376 34.032C47.376 33.776 47.3955 33.6 47.424 33.6C47.4524 33.6 47.472 33.4239 47.472 33.168C47.472 32.912 47.4915 32.736 47.52 32.736C47.5482 32.736 47.568 32.5689 47.568 32.3309C47.568 32.108 47.5896 31.9123 47.616 31.896C47.6424 31.8797 47.664 31.6745 47.664 31.44C47.664 31.2055 47.6856 31.0003 47.712 30.984C47.7384 30.9677 47.76 30.7719 47.76 30.5491C47.76 30.311 47.7798 30.144 47.808 30.144C47.8364 30.144 47.856 29.9693 47.856 29.7159C47.856 29.4806 47.876 29.2808 47.9006 29.2719C47.9251 29.2632 47.9607 28.8402 47.9796 28.332L48.014 27.408H47.5509H47.088V22.92V18.432H44.856H42.624V19.968ZM45.6 23.6784C45.6 26.5749 45.5862 27.4986 45.5424 27.5424C45.5035 27.5813 45.281 27.6 44.856 27.6C44.4309 27.6 44.2085 27.5813 44.1696 27.5424C44.1068 27.4796 44.0816 19.9664 44.144 19.904C44.1615 19.8864 44.4963 19.872 44.888 19.872H45.6V23.6784ZM31.512 24.452C31.512 27.2477 31.4993 28.0043 31.452 28.02C31.4172 28.0316 31.392 27.9992 31.392 27.9428C31.392 27.8894 31.3704 27.8323 31.344 27.816C31.3176 27.7997 31.296 27.7443 31.296 27.6931C31.296 27.6062 31.2582 27.6 30.7296 27.6C30.353 27.6 30.1439 27.5807 30.1056 27.5424C30.042 27.4788 30.0181 20.9738 30.0812 20.9107C30.0995 20.8925 30.4289 20.8835 30.8132 20.8908L31.512 20.904V24.452ZM37.128 27.048V33.192L36.48 33.2058C36.1236 33.2135 35.7834 33.2076 35.724 33.1929L35.616 33.1662V27.0806C35.616 22.3413 35.6289 20.9822 35.6748 20.9364C35.7171 20.894 35.9292 20.8813 36.4308 20.8908L37.128 20.904V27.048ZM34.2602 22.9837C34.308 23.0141 34.3179 24.0707 34.3082 28.107L34.296 33.192L33.8175 33.2059C33.3084 33.2207 33.1722 33.1596 33.1691 32.9154C33.168 32.8334 33.1493 32.7845 33.0314 32.5566C33.0009 32.4975 32.976 32.4071 32.976 32.3555C32.976 32.3039 32.9544 32.2483 32.928 32.232C32.8739 32.1985 32.858 23.0299 32.912 22.976C32.9574 22.9305 34.1875 22.9375 34.2602 22.9837ZM39.9343 23.0369C39.9905 23.1417 40.0055 30.8785 39.9524 32.3443L39.9209 33.216H39.2136C38.6129 33.216 38.5019 33.2046 38.4771 33.14C38.4167 32.9826 38.4445 23.0627 38.5056 23.0016C38.6143 22.8929 39.8738 22.9239 39.9343 23.0369ZM42.7566 26.616C42.7655 29.2044 42.7536 30.3059 42.7157 30.408C42.6864 30.4872 42.6439 30.5952 42.6216 30.648C42.5991 30.7008 42.5485 30.8412 42.5089 30.96C42.4694 31.0788 42.3485 31.4244 42.2402 31.728C42.132 32.0316 41.982 32.4528 41.9067 32.664C41.8315 32.8752 41.7546 33.0858 41.7359 33.132C41.6809 33.2671 41.3478 33.2483 41.3102 33.108C41.2722 32.966 41.2725 23.1927 41.3106 23.0508C41.3395 22.9425 41.3469 22.9416 42.0419 22.9548L42.744 22.968L42.7566 26.616ZM17.28 28.947C17.9156 29.0046 18.1605 29.0429 18.2136 29.0929C18.2387 29.1165 18.3035 29.1363 18.3576 29.1367C18.467 29.1375 18.7959 29.2439 18.8471 29.2951C18.8652 29.3132 18.9199 29.328 18.9686 29.328C19.0173 29.328 19.0947 29.3466 19.1406 29.3694C19.1864 29.3922 19.439 29.5161 19.7018 29.6448C20.9624 30.2619 22.0455 31.3393 22.7412 32.6678C22.7677 32.7185 22.8374 32.868 22.896 33C22.9545 33.132 23.0217 33.2775 23.0453 33.3234C23.0688 33.3692 23.088 33.4489 23.088 33.5005C23.088 33.5521 23.1071 33.6061 23.1305 33.6205C23.1539 33.635 23.1848 33.7064 23.1995 33.7794C23.2141 33.8523 23.2503 34.0092 23.2801 34.128C23.3273 34.3167 23.3906 34.6616 23.4343 34.968C23.448 35.0637 23.4205 35.064 13.32 35.064C4.34147 35.064 3.19403 35.0558 3.20963 34.992C3.21947 34.9524 3.23663 34.8228 3.24791 34.704C3.25919 34.5852 3.28715 34.4124 3.31019 34.32C3.39731 33.9705 3.46823 33.7167 3.50483 33.624C3.52559 33.5712 3.59171 33.3984 3.65171 33.24C4.28879 31.5571 5.81483 30.0278 7.51199 29.3714C7.81631 29.2537 8.20319 29.136 8.28563 29.136C8.33795 29.136 8.40131 29.1165 8.42639 29.0929C8.47895 29.0432 8.73479 29.0017 9.31199 28.9495C9.87695 28.8984 16.7193 28.8961 17.28 28.947ZM30.3085 28.9715C30.35 29.0129 30.384 29.0841 30.384 29.1299C30.384 29.1755 30.4019 29.2333 30.4236 29.2584C30.4454 29.2835 30.4926 29.4012 30.5282 29.52C30.564 29.6388 30.6065 29.7576 30.6227 29.784C30.6387 29.8104 30.6795 29.9184 30.7131 30.024C30.7467 30.1296 30.7931 30.2592 30.816 30.312C30.8389 30.3648 30.9037 30.5484 30.96 30.72C31.0163 30.8916 31.0805 31.0752 31.1027 31.128C31.1773 31.3052 31.3056 31.6538 31.3941 31.92C31.4425 32.0652 31.5828 32.4648 31.7058 32.808C31.8289 33.1512 31.9937 33.6145 32.0721 33.8375C32.1505 34.0604 32.2445 34.3142 32.2808 34.4015L32.3471 34.56H37.4797C41.5296 34.56 42.6218 34.5474 42.6575 34.5C42.6823 34.467 42.7321 34.3428 42.768 34.224C42.8039 34.1052 42.8471 33.9864 42.864 33.96C42.8809 33.9336 42.9241 33.8148 42.96 33.696C42.9959 33.5772 43.0391 33.4584 43.056 33.432C43.0729 33.4056 43.116 33.2868 43.1517 33.168C43.1874 33.0492 43.2345 32.9315 43.2564 32.9064C43.2781 32.8813 43.296 32.8154 43.296 32.76C43.296 32.7045 43.3131 32.6387 43.3341 32.6136C43.3551 32.5885 43.3998 32.4816 43.4334 32.376C43.4669 32.2704 43.5134 32.1408 43.5367 32.088C43.5601 32.0352 43.6115 31.8948 43.6509 31.776C43.6904 31.6572 43.8122 31.3116 43.9215 31.008C44.4414 29.5644 44.5547 29.2448 44.5977 29.1003C44.6583 28.8979 44.7011 28.8897 45.624 28.9063L46.392 28.92L46.3884 29.304C46.3863 29.5152 46.3583 29.9148 46.3259 30.192C46.2935 30.4692 46.2471 30.8796 46.223 31.104C46.1989 31.3284 46.1564 31.7172 46.1285 31.968C46.1006 32.2188 46.0579 32.6076 46.0338 32.832C46.0095 33.0564 45.9674 33.4452 45.9402 33.696C45.9128 33.9468 45.8138 34.8648 45.7202 35.736C45.5025 37.7587 45.4611 38.141 45.4051 38.64C45.3799 38.8644 45.3373 39.2532 45.3104 39.504C45.2835 39.7548 45.2399 40.1544 45.2133 40.392C45.1868 40.6296 45.1429 41.0292 45.1159 41.28C45.0888 41.5308 45.0463 41.9196 45.0215 42.144C44.9779 42.5381 44.9261 43.0148 44.8338 43.872C44.8097 44.0964 44.7656 44.496 44.736 44.76C44.7063 45.024 44.6629 45.4236 44.6395 45.648C44.5677 46.3333 44.5323 46.5344 44.477 46.5713C44.3733 46.6401 30.5455 46.6149 30.488 46.5457C30.4597 46.5115 30.3602 45.7717 30.2671 44.9017C30.174 44.0318 30.0751 43.1148 30.0476 42.864C29.9501 41.9775 29.9069 41.5872 29.8589 41.16C29.8322 40.9224 29.7989 40.62 29.7847 40.488C29.7705 40.356 29.7363 40.0428 29.7086 39.792C29.6808 39.5412 29.6375 39.1416 29.6121 38.904C29.5411 38.2351 29.4828 37.7 29.424 37.176C29.3943 36.912 29.3498 36.507 29.3251 36.276C29.3003 36.045 29.2597 35.667 29.2349 35.436C29.2101 35.205 29.1657 34.8 29.1362 34.536C29.0329 33.6103 28.9969 33.2841 28.9481 32.832C28.9211 32.5812 28.8759 32.1708 28.848 31.92C28.82 31.6692 28.7749 31.2588 28.7479 31.008C28.7208 30.7572 28.6788 30.3684 28.6544 30.144C28.5663 29.3315 28.5473 29.0463 28.5758 28.9719C28.6191 28.8589 30.1956 28.8585 30.3085 28.9715ZM30.821 36.0439C30.7783 36.0709 30.767 36.1185 30.7897 36.1752C30.8093 36.224 30.846 36.48 30.8712 36.744C30.8964 37.008 30.9371 37.4076 30.9614 37.632C30.9858 37.8564 31.0279 38.2452 31.055 38.496C31.0821 38.7468 31.1246 39.1356 31.1495 39.36C31.1743 39.5844 31.2168 39.9732 31.2439 40.224C31.2709 40.4748 31.3153 40.8798 31.3425 41.124C31.3698 41.3682 31.4123 41.757 31.4371 41.988C31.4619 42.219 31.5044 42.6132 31.5315 42.864C31.5587 43.1148 31.6142 43.6332 31.6549 44.016C31.6957 44.3988 31.7415 44.793 31.7568 44.892L31.7844 45.072H37.4862H43.188L43.2213 44.916C43.2397 44.8302 43.2762 44.5548 43.3023 44.304C43.3285 44.0532 43.3701 43.659 43.3949 43.428C43.4197 43.197 43.4603 42.819 43.4851 42.588C43.5098 42.357 43.5542 41.952 43.5837 41.688C43.7282 40.3931 43.7912 39.8165 43.8705 39.06C43.8961 38.8158 43.9381 38.4216 43.9638 38.184C44.0868 37.0448 44.117 36.7659 44.1539 36.432C44.1815 36.1824 44.1775 36.0612 44.1408 36.0367C44.0645 35.9857 30.9017 35.9928 30.821 36.0439ZM24.5771 36.5837C25.484 37.1168 25.4851 38.2445 24.579 38.724L24.3749 38.832H13.3169H2.25887L2.07743 38.7315C1.64411 38.4918 1.39199 38.102 1.39199 37.6719C1.39199 37.4173 1.47671 37.104 1.54559 37.104C1.56671 37.104 1.58399 37.0758 1.58399 37.0413C1.58399 36.9836 1.78103 36.7777 1.97951 36.6279C2.24219 36.4299 1.90523 36.4353 13.392 36.4459L24.36 36.456L24.5771 36.5837ZM42.6553 37.74C42.6403 37.9314 42.6061 38.2824 42.5792 38.52C42.5522 38.7576 42.5081 39.1572 42.4809 39.408C42.4538 39.6588 42.4113 40.0476 42.3865 40.272C42.3617 40.4964 42.3192 40.8852 42.2921 41.136C42.2651 41.3868 42.2207 41.7972 42.1934 42.048C42.1663 42.2988 42.1209 42.7386 42.0927 43.0254C42.0645 43.3122 42.0218 43.5985 41.9978 43.6616L41.9541 43.7765L37.4779 43.7642L33.0017 43.752L32.9643 43.56C32.9438 43.4544 32.9055 43.1682 32.8795 42.924C32.8143 42.315 32.7443 41.6703 32.6905 41.184C32.6657 40.9596 32.6232 40.5708 32.5961 40.32C32.5691 40.0692 32.5247 39.6642 32.4974 39.42C32.3743 38.3141 32.3481 38.0661 32.3201 37.74L32.2902 37.392H37.4863H42.6824L42.6553 37.74ZM3.88799 40.5612C4.19159 40.7727 4.60199 41.0571 4.79999 41.1931C4.99799 41.3291 5.17079 41.4539 5.18399 41.4704C5.19719 41.487 5.28359 41.5521 5.37599 41.6151C6.11423 42.1181 6.62399 42.5047 6.62399 42.5616C6.62399 42.6191 6.29363 42.6271 4.42799 42.6146L2.23199 42.6L1.96799 42.4225C1.70951 42.2489 1.66979 42.2036 1.48343 41.8719C1.34135 41.619 1.38827 40.848 1.54559 40.848C1.56671 40.848 1.58399 40.8197 1.58399 40.785C1.58399 40.7503 1.64339 40.6674 1.71599 40.6007C2.08319 40.2633 2.29955 40.19 2.95199 40.1815L3.33599 40.1765L3.88799 40.5612ZM9.58547 40.308C10.1019 40.6545 10.6824 41.0591 10.704 41.0875C10.7172 41.1049 10.8684 41.2137 11.04 41.3293C11.2116 41.4447 11.3736 41.5578 11.4 41.5803C11.4264 41.6028 11.61 41.7347 11.808 41.8734C12.2495 42.1825 12.2503 42.2064 11.832 42.4923C11.6472 42.6186 11.4615 42.7508 11.4194 42.7861C11.3773 42.8214 11.2045 42.944 11.0354 43.0585C10.8663 43.173 10.6976 43.2967 10.6605 43.3334C10.4743 43.5174 10.2251 43.4796 9.97067 43.2287C9.93839 43.1967 9.77159 43.0758 9.59999 42.9596C9.42839 42.8436 9.26639 42.7302 9.23999 42.7076C9.21359 42.6849 8.79239 42.3867 8.30399 42.0447C7.81559 41.7027 7.38155 41.3939 7.33943 41.3583C7.29731 41.3228 7.12451 41.2004 6.95543 41.0864C6.78635 40.9724 6.63719 40.8668 6.62399 40.8516C6.61079 40.8365 6.56495 40.8024 6.52211 40.776C5.54591 40.1741 5.52551 40.1845 7.68239 40.1798L9.38867 40.176L9.58547 40.308ZM20.9 40.2051C21.0272 40.2539 20.9885 40.308 20.676 40.5186C20.511 40.6298 20.3652 40.7351 20.352 40.7525C20.3388 40.7699 20.1336 40.9169 19.896 41.0792C19.6584 41.2416 19.2696 41.5145 19.032 41.6856C18.7944 41.8568 18.3732 42.1527 18.096 42.3433C17.8188 42.5337 17.5812 42.7035 17.568 42.7205C17.5548 42.7374 17.4036 42.8456 17.232 42.9609C17.0604 43.0763 16.8936 43.1967 16.8613 43.2287C16.607 43.4795 16.3787 43.5222 16.1965 43.3531C16.1456 43.3059 15.9636 43.1723 15.792 43.056C15.6204 42.9397 15.4584 42.8262 15.432 42.8036C15.4056 42.7809 14.9844 42.4827 14.496 42.1407C14.0076 41.7987 13.575 41.4923 13.5347 41.4595C13.4943 41.4267 13.3215 41.3039 13.1507 41.1865C12.9798 41.0691 12.8292 40.9611 12.816 40.9465C12.8028 40.9319 12.7571 40.8984 12.7143 40.872C12.1067 40.496 11.8383 40.2585 11.964 40.2078C12.0505 40.1729 20.8093 40.1702 20.9 40.2051ZM24.2316 40.2224C24.5139 40.2759 24.927 40.529 25.0177 40.704C25.0519 40.77 25.0907 40.8348 25.1039 40.848C25.3847 41.1278 25.1545 42.336 24.8204 42.336C24.7953 42.336 24.7454 42.363 24.7095 42.396C24.4873 42.6003 24.4976 42.5994 22.3039 42.6147C19.7348 42.6329 19.8375 42.7183 21.264 41.7485C21.462 41.6138 21.6348 41.4894 21.648 41.472C21.6612 41.4546 21.8419 41.3263 22.0495 41.187C22.2571 41.0477 22.4623 40.9041 22.5055 40.868C23.244 40.2505 23.6262 40.1076 24.2316 40.2224ZM13.875 43.3353C14.0977 43.4889 14.5608 43.8137 14.904 44.0568C15.2472 44.2999 15.6576 44.5885 15.816 44.6981C15.9744 44.8076 16.1112 44.915 16.1199 44.9366C16.1288 44.9583 16.1648 44.976 16.2 44.976C16.2351 44.976 16.2711 44.9947 16.28 45.0176C16.3128 45.1032 16.5015 45.1236 16.5755 45.0497C16.616 45.0091 16.6705 44.976 16.6965 44.976C16.7226 44.976 16.7511 44.9583 16.76 44.9366C16.7688 44.915 16.9164 44.8033 17.088 44.6882C17.2596 44.5733 17.4108 44.4649 17.424 44.4474C17.4372 44.4299 17.5989 44.3148 17.7835 44.1918L18.1189 43.968H20.7475H23.376V44.1091C23.376 44.1867 23.3544 44.2637 23.328 44.28C23.3016 44.2963 23.28 44.3496 23.28 44.3983C23.28 44.4941 23.0869 44.8938 23.028 44.9199C23.0082 44.9288 22.9916 44.9612 22.9911 44.9919C22.989 45.1298 22.4106 45.7596 22.0801 45.9837C21.62 46.2959 21.2958 46.4225 20.664 46.5368C20.0954 46.6395 6.54083 46.6405 5.99999 46.5377C5.32835 46.4101 4.97087 46.2683 4.49387 45.9401C4.25243 45.7739 3.79511 45.2851 3.69491 45.0859C3.65783 45.0122 3.59183 44.898 3.54815 44.832C3.45479 44.6905 3.26399 44.1648 3.26399 44.0487C3.26399 43.974 3.46679 43.968 5.98871 43.968H8.71331L9.00695 44.172C9.16847 44.2842 9.47063 44.4931 9.67835 44.6364C9.88607 44.7795 10.0632 44.9145 10.0719 44.9364C10.0808 44.9581 10.1094 44.976 10.1354 44.976C10.1615 44.976 10.2159 45.0091 10.2565 45.0497C10.3266 45.1197 10.5019 45.1061 10.56 45.0259C10.5732 45.0077 10.7223 44.8995 10.8914 44.7855C11.0605 44.6715 11.2333 44.55 11.2754 44.5153C11.37 44.4373 12.245 43.8221 12.8853 43.3832C13.4592 42.9899 13.3796 42.9937 13.875 43.3353Z" fill="#040404"></path><path fill-rule="evenodd" clip-rule="evenodd" d="M27.24 1.47259C27.1872 1.48435 26.712 1.59823 26.184 1.72543C25.656 1.85275 24.7164 2.07859 24.096 2.22739C23.4756 2.37619 22.887 2.51911 22.788 2.54491C22.689 2.57083 22.527 2.61175 22.428 2.63599C22.329 2.66023 22.1562 2.70343 22.044 2.73199C21.9318 2.76055 21.7482 2.80711 21.636 2.83531C21.5238 2.86351 21.378 2.90191 21.312 2.92051L21.192 2.95423L21.1796 6.58915L21.1674 10.224H21.8876H22.608V7.20319C22.608 4.36723 22.6131 4.18099 22.692 4.15891C22.7382 4.14607 22.9812 4.08943 23.232 4.03315C23.7496 3.91711 24.1321 3.82903 24.72 3.69067C24.9444 3.63787 25.2252 3.57295 25.344 3.54631C25.4628 3.51967 25.6464 3.47587 25.752 3.44899C26.136 3.35107 26.2827 3.31591 26.424 3.28807C26.5032 3.27247 26.6544 3.23779 26.76 3.21115C27.0313 3.14263 27.3573 3.07111 27.5404 3.04003C27.6265 3.02539 27.7087 2.99407 27.7232 2.97067C27.7377 2.94715 27.7893 2.92795 27.8378 2.92795C27.9645 2.92795 28.2136 2.62363 28.2513 2.42275C28.3752 1.76311 27.9069 1.32331 27.24 1.47259ZM27.8929 1.59691C28.2952 1.86571 28.3357 2.43367 27.9764 2.76919C27.858 2.87971 27.4082 3.00559 26.016 3.31759C25.8972 3.34423 25.7244 3.38491 25.632 3.40795C25.5396 3.43099 25.356 3.47419 25.224 3.50395C25.092 3.53371 24.9084 3.57691 24.816 3.59995C24.7236 3.62299 24.54 3.66619 24.408 3.69595C24.276 3.72571 24.0924 3.76891 24 3.79195C23.9076 3.81499 23.7348 3.85591 23.616 3.88279C22.9825 4.02631 22.7197 4.09435 22.644 4.13467C22.5654 4.17643 22.56 4.37107 22.56 7.17763V10.176H21.8876H21.2154L21.2276 6.58831L21.24 3.00067L21.984 2.81863C22.3932 2.71855 22.8144 2.61403 22.92 2.58631C23.0256 2.55871 23.193 2.51623 23.292 2.49199C23.391 2.46775 23.553 2.42719 23.652 2.40175C23.751 2.37631 24.1992 2.26759 24.648 2.15995C25.0968 2.05231 25.5396 1.94407 25.632 1.91935C27.244 1.48747 27.6436 1.43047 27.8929 1.59691ZM13.356 11.5998C13.323 11.6131 13.296 11.6587 13.296 11.7012C13.296 11.7697 13.3027 11.7692 13.356 11.6968C13.4121 11.6206 13.9668 11.6161 21.9106 11.6276L30.4052 11.64L30.488 11.856C30.5335 11.9748 30.5719 12.0351 30.5733 11.9902C30.5766 11.8897 30.4754 11.6526 30.4089 11.6047C30.3549 11.5658 13.4522 11.5609 13.356 11.5998ZM13.232 11.84C13.2144 11.8575 13.2013 11.9169 13.203 11.972C13.2058 12.0639 13.2098 12.0627 13.252 11.957C13.2991 11.8395 13.2892 11.7826 13.232 11.84ZM13.1395 12.144C13.1264 12.1836 13.0674 12.378 13.0081 12.576C12.9489 12.774 12.8821 12.9792 12.8595 13.032C12.837 13.0848 12.8126 13.1928 12.8053 13.272L12.792 13.416H21.888H30.984L30.968 13.248C30.9594 13.1556 30.9324 13.0594 30.908 13.0344C30.8838 13.0093 30.864 12.9496 30.864 12.9018C30.864 12.8539 30.8445 12.7772 30.8206 12.7314C30.7968 12.6855 30.751 12.5508 30.719 12.432C30.6326 12.1123 30.6146 12.067 30.5948 12.12C30.585 12.1464 30.66 12.4272 30.7615 12.744C30.863 13.0608 30.9372 13.3362 30.9262 13.356C30.9152 13.3758 26.848 13.392 21.888 13.392C16.9279 13.392 12.8598 13.3758 12.8478 13.356C12.8356 13.3362 12.9106 13.0627 13.0143 12.7482C13.118 12.4336 13.1938 12.1528 13.1829 12.1242C13.1716 12.0943 13.153 12.1027 13.1395 12.144ZM10.6749 14.868C10.6606 14.9142 10.629 14.9895 10.6045 15.0354C10.58 15.0812 10.56 15.1516 10.56 15.192C10.56 15.2323 10.5405 15.3027 10.5169 15.3486C10.4932 15.3944 10.4254 15.594 10.3664 15.792C10.3074 15.99 10.2207 16.2656 10.1738 16.4046C10.0917 16.6485 10.0917 16.659 10.1772 16.7046C10.298 16.7694 33.4768 16.7698 33.5977 16.7052C33.6864 16.6578 33.6543 16.4902 33.455 15.96C33.4352 15.9072 33.3927 15.7668 33.3608 15.648C33.3288 15.5292 33.2832 15.3944 33.2593 15.3486C33.2354 15.3027 33.216 15.2323 33.216 15.192C33.216 15.1516 33.1959 15.0812 33.1714 15.0354C33.147 14.9895 33.1153 14.9142 33.101 14.868C33.0604 14.7372 10.7155 14.7372 10.6749 14.868ZM33.1111 15.036C33.1455 15.1482 33.2584 15.51 33.362 15.84C33.4657 16.17 33.5562 16.494 33.5632 16.56L33.576 16.68H21.888H10.2L10.2156 16.5362C10.2242 16.4572 10.3128 16.144 10.4124 15.8402C10.512 15.5365 10.623 15.1854 10.6592 15.06L10.725 14.832H21.8868H33.0486L33.1111 15.036ZM11.8192 18.528C11.8177 18.6732 11.8332 18.9 11.8538 19.032L11.8911 19.272L11.8923 19.056C11.893 18.9372 11.8774 18.7104 11.8578 18.552L11.8221 18.264L11.8192 18.528ZM30.672 19.4871L28.68 19.512L28.6677 23.5069L28.6554 27.5017L27.8277 27.5167L27 27.5316L27.84 27.5298L28.68 27.528L28.6922 23.532L28.7046 19.536H30.6694C31.9275 19.536 32.645 19.5187 32.664 19.488C32.6803 19.4616 32.687 19.445 32.6788 19.4511C32.6707 19.4574 31.7676 19.4736 30.672 19.4871ZM11.917 19.968C11.917 20.0868 11.9264 20.1354 11.9378 20.076C11.9493 20.0166 11.9493 19.9194 11.9378 19.86C11.9264 19.8006 11.917 19.8492 11.917 19.968ZM44.144 19.904C44.0816 19.9664 44.1068 27.4796 44.1696 27.5424C44.2084 27.5812 44.4309 27.6 44.856 27.6C45.281 27.6 45.5035 27.5812 45.5424 27.5424C45.5862 27.4986 45.6 26.5749 45.6 23.6784V19.872H44.888C44.4963 19.872 44.1615 19.8864 44.144 19.904ZM45.552 23.7133V27.5066L44.868 27.4933L44.184 27.48L44.1717 23.7L44.1594 19.92H44.8557H45.552V23.7133ZM11.9641 20.424C11.9646 20.5296 11.9744 20.5671 11.9859 20.5074C11.9974 20.4477 11.997 20.3613 11.985 20.3154C11.973 20.2695 11.9635 20.3184 11.9641 20.424ZM30.0812 20.9107C30.0181 20.9738 30.042 27.4788 30.1056 27.5424C30.1438 27.5806 30.353 27.6 30.7296 27.6C31.2582 27.6 31.296 27.6062 31.296 27.6931C31.296 27.7443 31.3176 27.7996 31.344 27.816C31.3704 27.8323 31.392 27.8894 31.392 27.9428C31.392 27.9992 31.4172 28.0316 31.452 28.02C31.4992 28.0042 31.512 27.2476 31.512 24.452V20.904L30.8132 20.8908C30.4288 20.8834 30.0994 20.8924 30.0812 20.9107ZM35.6748 20.9364C35.6289 20.9822 35.616 22.3413 35.616 27.0806V33.1662L35.724 33.1929C35.7834 33.2076 36.1236 33.2134 36.48 33.2058L37.128 33.192V27.048V20.904L36.4308 20.8908C35.9292 20.8813 35.7171 20.894 35.6748 20.9364ZM31.4745 24.456L31.4852 27.96L31.3851 27.7334L31.2849 27.5068L30.7024 27.4934L30.12 27.48L30.1075 24.264C30.1006 22.4952 30.1057 21.0204 30.1185 20.9866C30.1364 20.94 30.3007 20.9284 30.803 20.9386L31.464 20.952L31.4745 24.456ZM37.0464 20.9856C37.1074 21.0466 37.1354 32.9342 37.0748 33.092C37.0502 33.1562 36.9427 33.168 36.3788 33.168H35.712V27.08C35.712 23.7315 35.7264 20.9775 35.744 20.96C35.8034 20.9005 36.9846 20.9238 37.0464 20.9856ZM12.0121 21.336C12.0126 21.4416 12.0224 21.4791 12.0339 21.4194C12.0454 21.3597 12.045 21.2733 12.033 21.2274C12.021 21.1815 12.0115 21.2304 12.0121 21.336ZM12.0601 21.816C12.0606 21.9216 12.0704 21.9591 12.0819 21.8994C12.0934 21.8397 12.093 21.7533 12.081 21.7074C12.069 21.6615 12.0595 21.7104 12.0601 21.816ZM12.1081 22.728C12.1086 22.8336 12.1184 22.8711 12.1299 22.8114C12.1414 22.7517 12.141 22.6653 12.129 22.6194C12.117 22.5735 12.1075 22.6224 12.1081 22.728ZM32.912 22.976C32.858 23.0299 32.8738 32.1985 32.928 32.232C32.9544 32.2483 32.976 32.3038 32.976 32.3554C32.976 32.407 33.0009 32.4975 33.0314 32.5566C33.1492 32.7844 33.168 32.8334 33.169 32.9154C33.1722 33.1596 33.3084 33.2206 33.8175 33.2059L34.296 33.192L34.3082 28.107C34.3179 24.0706 34.308 23.014 34.2602 22.9837C34.1875 22.9375 32.9574 22.9305 32.912 22.976ZM38.5056 23.0016C38.4445 23.0626 38.4166 32.9826 38.4771 33.14C38.5018 33.2046 38.6128 33.216 39.2136 33.216H39.9208L39.9524 32.3443C40.0054 30.8785 39.9904 23.1417 39.9343 23.0368C39.8738 22.9239 38.6143 22.8928 38.5056 23.0016ZM41.3106 23.0508C41.2725 23.1927 41.2722 32.966 41.3102 33.108C41.3478 33.2482 41.6809 33.2671 41.7358 33.132C41.7546 33.0858 41.8315 32.8752 41.9067 32.664C41.982 32.4528 42.132 32.0316 42.2402 31.728C42.3485 31.4244 42.4694 31.0788 42.5089 30.96C42.5485 30.8412 42.5991 30.7008 42.6216 30.648C42.6439 30.5952 42.6864 30.4872 42.7156 30.408C42.7536 30.3058 42.7654 29.2044 42.7566 26.616L42.744 22.968L42.0418 22.9548C41.3469 22.9416 41.3395 22.9425 41.3106 23.0508ZM12.1561 23.208C12.1566 23.3136 12.1664 23.3511 12.1779 23.2914C12.1894 23.2317 12.189 23.1453 12.177 23.0994C12.165 23.0535 12.1555 23.1024 12.1561 23.208ZM34.224 28.104V33.168H33.7744H33.3251L33.1264 32.6227L32.928 32.0773V27.5587V23.04H33.576H34.224V28.104ZM39.888 28.104V33.168H39.216H38.544V28.104V23.04H39.216H39.888V28.104ZM42.72 26.6329V30.2257L42.4285 31.0369C42.2682 31.4829 42.0942 31.9668 42.0418 32.112C41.9895 32.2572 41.9144 32.4732 41.8749 32.592C41.8354 32.7108 41.7846 32.8512 41.7619 32.904C41.7392 32.9568 41.7086 33.0378 41.6938 33.084C41.659 33.1927 41.3982 33.1989 41.3571 33.092C41.3172 32.988 41.32 23.112 41.36 23.072C41.3775 23.0544 41.6907 23.04 42.056 23.04H42.72V26.6329ZM12.2031 24.096C12.2031 24.1884 12.213 24.2262 12.2251 24.18C12.2371 24.1338 12.2371 24.0582 12.2251 24.012C12.213 23.9658 12.2031 24.0036 12.2031 24.096ZM12.253 24.624C12.253 24.7428 12.2624 24.7914 12.2738 24.732C12.2853 24.6726 12.2853 24.5754 12.2738 24.516C12.2624 24.4566 12.253 24.5052 12.253 24.624ZM12.2991 25.488C12.2991 25.5804 12.309 25.6182 12.3211 25.572C12.3331 25.5258 12.3331 25.4502 12.3211 25.404C12.309 25.3578 12.2991 25.3956 12.2991 25.488ZM12.349 26.016C12.349 26.1348 12.3584 26.1834 12.3698 26.124C12.3813 26.0646 12.3813 25.9674 12.3698 25.908C12.3584 25.8486 12.349 25.8972 12.349 26.016ZM12.4154 27.024C12.4287 27.2748 12.4554 27.4964 12.4747 27.5164C12.494 27.5366 13.4697 27.5472 14.6428 27.54L16.776 27.5269L14.6338 27.5155L12.4917 27.504L12.4414 27.036L12.3913 26.568L12.4154 27.024ZM16.9959 27.5694C17.007 27.5788 17.2104 27.5976 17.448 27.6109C17.6856 27.6242 17.8152 27.6189 17.736 27.5992C17.59 27.5629 16.9592 27.5373 16.9959 27.5694ZM17.9559 27.6652C17.967 27.6748 18.0732 27.6955 18.192 27.7112C18.3362 27.7303 18.376 27.7256 18.312 27.6972C18.2203 27.6566 17.9143 27.6291 17.9559 27.6652ZM18.528 27.792C18.6921 27.8445 18.8182 27.8445 18.696 27.792C18.6432 27.7693 18.5568 27.7514 18.504 27.7521C18.4268 27.7532 18.4315 27.7611 18.528 27.792ZM27.059 28.272C27.0734 28.4964 27.093 28.689 27.1026 28.7C27.1362 28.7385 27.114 28.246 27.0736 28.056C27.0452 27.9219 27.0408 27.9872 27.059 28.272ZM19.2 27.984C19.2396 28.0095 19.3044 28.0305 19.344 28.0305C19.4079 28.0305 19.4079 28.0254 19.344 27.984C19.3044 27.9584 19.2396 27.9374 19.2 27.9374C19.136 27.9374 19.136 27.9426 19.2 27.984ZM20.448 28.508C20.5635 28.6022 20.64 28.6329 20.64 28.5852C20.64 28.5727 20.5698 28.5282 20.484 28.4863L20.328 28.4102L20.448 28.508ZM20.784 28.6996C20.85 28.7536 20.9256 28.7979 20.952 28.7982C21.0033 28.7985 20.9166 28.732 20.76 28.6512C20.6962 28.6182 20.7043 28.6345 20.784 28.6996ZM27.155 29.136C27.1694 29.3604 27.189 29.553 27.1986 29.564C27.2322 29.6025 27.21 29.11 27.1696 28.92C27.1412 28.7859 27.1368 28.8512 27.155 29.136ZM9.31197 28.9495C8.73477 29.0017 8.47893 29.0432 8.42637 29.0929C8.40129 29.1165 8.33793 29.136 8.28561 29.136C8.20317 29.136 7.81629 29.2537 7.51197 29.3714C5.81481 30.0278 4.28877 31.5571 3.65169 33.24C3.59169 33.3984 3.52557 33.5712 3.50481 33.624C3.46821 33.7167 3.39729 33.9705 3.31017 34.32C3.28713 34.4124 3.25917 34.5852 3.24789 34.704C3.23661 34.8228 3.21945 34.9524 3.20961 34.992C3.19401 35.0558 4.34145 35.064 13.32 35.064C23.4205 35.064 23.448 35.0637 23.4343 34.968C23.3906 34.6616 23.3272 34.3167 23.2801 34.128C23.2503 34.0092 23.2141 33.8523 23.1994 33.7794C23.1848 33.7064 23.1538 33.635 23.1304 33.6205C23.107 33.6061 23.088 33.5521 23.088 33.5005C23.088 33.4489 23.0688 33.3692 23.0452 33.3234C23.0217 33.2775 22.9545 33.132 22.896 33C22.2546 31.5548 21.0806 30.3213 19.7018 29.6439C19.0554 29.3264 19.0257 29.314 18.9613 29.3355C18.9303 29.3458 19.074 29.4238 19.2805 29.5089C21.4009 30.3824 23.0902 32.585 23.3478 34.812L23.3742 35.04H13.3161H3.25809L3.29025 34.812C3.69813 31.9252 5.82753 29.6995 8.77809 29.0757C9.41421 28.9413 16.9765 28.9047 17.64 29.0329C18.0021 29.1028 18.6576 29.2603 18.8002 29.3116C18.8485 29.329 18.8714 29.325 18.8511 29.3028C18.7998 29.2464 18.4765 29.1375 18.3576 29.1367C18.3034 29.1363 18.2386 29.1165 18.2136 29.0929C18.1605 29.0428 17.9156 29.0046 17.28 28.947C16.7193 28.8961 9.87693 28.8984 9.31197 28.9495ZM21.1917 28.9435C21.2083 28.9705 21.3447 29.0761 21.495 29.1782C22.1029 29.592 22.9484 30.483 23.4474 31.236C23.5742 31.4274 23.687 31.584 23.6978 31.584C23.7481 31.584 23.311 30.947 22.9868 30.5478C22.5446 30.0033 20.9856 28.61 21.1917 28.9435ZM28.5758 28.9719C28.5472 29.0463 28.5663 29.3314 28.6544 30.144C28.6788 30.3684 28.7208 30.7572 28.7479 31.008C28.7749 31.2588 28.82 31.6692 28.848 31.92C28.8759 32.1708 28.921 32.5812 28.948 32.832C28.9969 33.2841 29.0329 33.6103 29.1362 34.536C29.1657 34.8 29.2096 35.1996 29.2338 35.424C29.3175 36.2017 29.3766 36.746 29.4237 37.176C29.4499 37.4136 29.4908 37.82 29.5147 38.0791C29.5554 38.52 29.616 38.762 29.616 38.4838C29.616 38.3736 29.4601 36.8792 29.3319 35.76C29.3062 35.5356 29.2618 35.136 29.2333 34.872C29.2047 34.608 29.1609 34.2084 29.136 33.984C29.1109 33.7596 29.0673 33.36 29.039 33.096C29.0107 32.832 28.9677 32.4432 28.9436 32.232C28.9194 32.0208 28.8763 31.6212 28.848 31.344C28.8196 31.0668 28.7761 30.6672 28.7511 30.456C28.6975 30.0016 28.6646 29.7002 28.6244 29.292L28.5948 28.992H29.4361H30.2773L30.4542 29.484C30.5515 29.7546 30.6639 30.0624 30.704 30.168C30.7442 30.2736 30.8085 30.4572 30.8469 30.576C30.8853 30.6948 30.9357 30.8352 30.959 30.888C31.0042 30.9909 31.2085 31.5663 31.3254 31.92C31.3647 32.0388 31.4162 32.1792 31.44 32.232C31.4637 32.2848 31.5152 32.4252 31.5543 32.544C31.5936 32.6628 31.6932 32.9436 31.7757 33.168C31.8583 33.3924 31.9869 33.7488 32.0618 33.96C32.1366 34.1712 32.221 34.4034 32.2496 34.476L32.3016 34.608H37.4809C41.5689 34.608 42.6695 34.5954 42.7041 34.548C42.7283 34.515 42.7756 34.4016 42.8094 34.296C42.8671 34.1155 42.9223 33.9616 43.1491 33.348C43.275 33.0075 43.9414 31.1337 44.0326 30.864C44.0727 30.7452 44.1733 30.4644 44.256 30.24C44.3386 30.0156 44.4384 29.7348 44.4776 29.616C44.5167 29.4972 44.568 29.3568 44.5914 29.304C44.6148 29.2512 44.6475 29.1594 44.6642 29.1C44.6941 28.993 44.7034 28.992 45.5581 28.992C46.1215 28.992 46.4113 28.9753 46.392 28.944C46.3576 28.8884 44.7906 28.878 44.7046 28.9327C44.6505 28.9671 44.6127 29.0626 44.2821 30C44.1937 30.2508 44.0317 30.7044 43.922 31.008C43.8124 31.3116 43.6904 31.6572 43.6509 31.776C43.6114 31.8948 43.5601 32.0352 43.5367 32.088C43.5134 32.1408 43.4668 32.2704 43.4334 32.376C43.3998 32.4816 43.3551 32.5885 43.3341 32.6136C43.3131 32.6386 43.296 32.7045 43.296 32.76C43.296 32.8154 43.2781 32.8813 43.2564 32.9064C43.2345 32.9314 43.1874 33.0492 43.1517 33.168C43.116 33.2868 43.0729 33.4056 43.056 33.432C43.039 33.4584 42.9958 33.5772 42.96 33.696C42.9241 33.8148 42.8809 33.9336 42.864 33.96C42.8471 33.9864 42.8038 34.1052 42.768 34.224C42.7321 34.3428 42.6823 34.467 42.6574 34.5C42.6218 34.5474 41.5296 34.56 37.4797 34.56H32.347L32.2808 34.4014C32.2444 34.3142 32.1505 34.0604 32.0721 33.8374C31.9936 33.6145 31.8289 33.1512 31.7058 32.808C31.5828 32.4648 31.4425 32.0652 31.3941 31.92C31.3056 31.6538 31.1773 31.3052 31.1026 31.128C31.0804 31.0752 31.0162 30.8916 30.96 30.72C30.9037 30.5484 30.8389 30.3648 30.816 30.312C30.793 30.2592 30.7467 30.1296 30.7131 30.024C30.6795 29.9184 30.6387 29.8104 30.6226 29.784C30.6064 29.7576 30.564 29.6388 30.5282 29.52C30.4926 29.4012 30.4454 29.2834 30.4236 29.2584C30.4018 29.2333 30.384 29.1754 30.384 29.1298C30.384 28.9219 30.2772 28.896 29.419 28.896C28.7211 28.896 28.6008 28.9068 28.5758 28.9719ZM46.3489 29.4381C46.3266 29.6703 46.32 29.8719 46.3341 29.8862C46.373 29.925 46.426 29.4278 46.4065 29.208C46.3942 29.0698 46.378 29.1344 46.3489 29.4381ZM27.2271 29.76C27.2271 29.8524 27.237 29.8902 27.2491 29.844C27.2611 29.7978 27.2611 29.7222 27.2491 29.676C27.237 29.6298 27.2271 29.6676 27.2271 29.76ZM27.2788 30.216C27.2791 30.3744 27.2881 30.4334 27.2988 30.3471C27.3094 30.2608 27.3092 30.1312 27.2983 30.0591C27.2874 29.987 27.2786 30.0576 27.2788 30.216ZM46.253 30.2961C46.2313 30.4986 46.2237 30.693 46.2363 30.7281C46.2694 30.8208 46.3311 30.2942 46.3102 30.096C46.2978 29.9772 46.281 30.0357 46.253 30.2961ZM46.1559 31.2141C46.1341 31.4463 46.1278 31.6478 46.1419 31.6618C46.1779 31.698 46.2365 31.1097 46.2141 30.9357C46.2041 30.8566 46.1779 30.9819 46.1559 31.2141ZM27.3744 31.104C27.3744 31.2492 27.3834 31.3086 27.3944 31.236C27.4053 31.1634 27.4053 31.0446 27.3944 30.972C27.3834 30.8994 27.3744 30.9588 27.3744 31.104ZM27.4191 31.536C27.4191 31.6284 27.429 31.6662 27.4411 31.62C27.4531 31.5738 27.4531 31.4982 27.4411 31.452C27.429 31.4058 27.4191 31.4436 27.4191 31.536ZM27.4587 31.9479C27.4603 32.0778 27.4798 32.2704 27.5023 32.376C27.5307 32.51 27.5352 32.4447 27.5169 32.16C27.4878 31.7056 27.4545 31.5841 27.4587 31.9479ZM46.0599 32.0721C46.0387 32.2746 46.0316 32.469 46.0442 32.5041C46.0752 32.5908 46.1421 31.9689 46.1178 31.8214C46.1071 31.7567 46.081 31.8697 46.0599 32.0721ZM23.88 31.968C23.9209 32.0472 23.9653 32.112 23.9785 32.112C23.9917 32.112 23.9689 32.0472 23.928 31.968C23.887 31.8888 23.8426 31.824 23.8294 31.824C23.8162 31.824 23.839 31.8888 23.88 31.968ZM27.5547 32.8359C27.5563 32.9526 27.5761 33.1344 27.5988 33.24C27.6284 33.3778 27.6325 33.3237 27.6135 33.048C27.5844 32.6254 27.5504 32.5028 27.5547 32.8359ZM45.9619 32.9305C45.9426 33.1035 45.9355 33.2979 45.9462 33.3625C45.9568 33.4272 45.9829 33.3142 46.004 33.1118C46.0252 32.9094 46.0323 32.715 46.0197 32.6798C46.0072 32.6446 45.9812 32.7576 45.9619 32.9305ZM24.5092 33.528C24.5487 33.7045 24.5762 33.7428 24.5752 33.62C24.5749 33.5694 24.5526 33.4956 24.5258 33.456C24.4902 33.4034 24.4857 33.4228 24.5092 33.528ZM45.876 33.7147C45.8562 33.8438 45.8426 34.049 45.8459 34.1707L45.8517 34.392L45.8948 34.104C45.9186 33.9456 45.9321 33.7404 45.9249 33.648C45.9129 33.4923 45.9093 33.4972 45.876 33.7147ZM27.6507 33.7239C27.6523 33.8274 27.6723 33.9984 27.6952 34.104C27.7262 34.2463 27.73 34.2028 27.7102 33.936C27.6812 33.5456 27.6463 33.4212 27.6507 33.7239ZM24.6074 33.912C24.6235 34.0176 24.6446 34.113 24.6543 34.124C24.6907 34.1652 24.6634 33.9081 24.6217 33.816C24.5914 33.749 24.5871 33.7782 24.6074 33.912ZM24.7071 34.44C24.7215 34.5984 24.7411 34.7369 24.7506 34.748C24.7861 34.7888 24.7597 34.3404 24.7212 34.248C24.6969 34.19 24.6914 34.2661 24.7071 34.44ZM45.7951 34.464C45.7896 34.5036 45.7663 34.7196 45.7432 34.944C45.7202 35.1684 45.6784 35.5626 45.6506 35.82C45.6228 36.0774 45.5772 36.4986 45.5493 36.756C45.5215 37.0134 45.4795 37.3968 45.456 37.608C45.4324 37.8192 45.3912 38.1972 45.364 38.448C45.337 38.6988 45.2919 39.1092 45.264 39.36C45.236 39.6108 45.1923 40.0104 45.167 40.248C45.0819 41.0458 45.0697 41.1583 45.0228 41.58C44.9036 42.6498 44.8793 42.8708 44.831 43.32C44.8027 43.584 44.7592 43.9728 44.7345 44.184C44.7099 44.3952 44.6446 44.9892 44.5896 45.504C44.5345 46.0188 44.4735 46.4563 44.4542 46.4761C44.4348 46.496 41.288 46.5068 37.4614 46.5001L30.504 46.488L30.4689 46.2C30.4497 46.0416 30.4107 45.696 30.3822 45.432C30.3537 45.168 30.3114 44.7792 30.288 44.568C30.2646 44.3568 30.2222 43.9478 30.1939 43.6591C30.1438 43.1498 30.096 42.9403 30.096 43.2306C30.096 43.5697 30.4413 46.4894 30.4881 46.5458C30.5455 46.6149 44.3734 46.6401 44.477 46.5712C44.5323 46.5344 44.5677 46.3333 44.6395 45.648C44.6629 45.4236 44.7063 45.024 44.736 44.76C44.7656 44.496 44.8096 44.0964 44.8338 43.872C44.926 43.0148 44.9779 42.538 45.0214 42.144C45.0463 41.9196 45.0888 41.5308 45.1159 41.28C45.1429 41.0292 45.1868 40.6296 45.2133 40.392C45.2399 40.1544 45.2835 39.7548 45.3104 39.504C45.3373 39.2532 45.3799 38.8644 45.4051 38.64C45.4303 38.4156 45.473 38.0268 45.5001 37.776C45.5272 37.5252 45.6158 36.7062 45.6969 35.9558C45.7781 35.2056 45.8356 34.5468 45.8247 34.4918C45.8136 34.4348 45.8007 34.4229 45.7951 34.464ZM27.7531 34.632C27.7512 34.7376 27.7674 34.9104 27.7892 35.016C27.8436 35.2785 27.8473 35.0212 27.7941 34.68C27.7575 34.4449 27.7567 34.4439 27.7531 34.632ZM24.8167 35.1181C24.8157 35.1889 24.8978 35.2491 25.104 35.3288C25.3536 35.4252 25.575 35.5834 25.8918 35.8917C26.1361 36.1296 26.1536 36.1399 26.0178 35.9665C25.8302 35.727 25.3764 35.3864 25.1016 35.279C24.9933 35.2368 24.8852 35.171 24.8611 35.1331C24.8371 35.095 24.817 35.0883 24.8167 35.1181ZM27.8487 35.52C27.8469 35.6124 27.8634 35.7744 27.8852 35.88C27.9403 36.1465 27.9448 35.874 27.8904 35.568C27.8546 35.3666 27.8517 35.3634 27.8487 35.52ZM30.74 36.2022C30.7578 36.3134 30.7938 36.6104 30.8198 36.8622C30.846 37.1139 30.8871 37.5036 30.9112 37.728C30.9354 37.9524 30.9771 38.3412 31.0041 38.592C31.031 38.8428 31.076 39.2532 31.104 39.504C31.1319 39.7548 31.177 40.1652 31.204 40.416C31.2312 40.6668 31.2735 41.0556 31.2982 41.28C31.323 41.5044 31.3652 41.8932 31.392 42.144C31.4187 42.3948 31.4611 42.7836 31.4859 43.008C31.5924 43.9695 31.6321 44.3491 31.6615 44.688C31.6788 44.886 31.7142 45.075 31.7403 45.108C31.7778 45.1554 32.9851 45.168 37.488 45.168C41.9898 45.168 43.1986 45.1554 43.2376 45.108C43.2649 45.075 43.311 44.8104 43.3402 44.52C43.3695 44.2296 43.4578 43.398 43.5364 42.672C43.682 41.3283 43.6996 41.1002 43.6545 41.1454C43.6405 41.1594 43.6068 41.3952 43.5795 41.6694C43.5332 42.1347 43.5128 42.329 43.3948 43.428C43.3701 43.659 43.3285 44.0532 43.3023 44.304C43.2762 44.5548 43.2397 44.8301 43.2213 44.9159L43.188 45.072H37.4862H31.7844L31.7568 44.892C31.7415 44.793 31.6957 44.3987 31.6549 44.0159C31.6142 43.6331 31.5586 43.1148 31.5315 42.864C31.5044 42.6132 31.4619 42.219 31.4371 41.988C31.4122 41.757 31.3698 41.3682 31.3425 41.124C31.3153 40.8798 31.2709 40.4748 31.2439 40.224C31.2168 39.9732 31.1743 39.5844 31.1494 39.36C31.1246 39.1356 31.0821 38.7468 31.055 38.496C31.0279 38.2452 30.9858 37.8564 30.9614 37.632C30.937 37.4076 30.8964 37.008 30.8712 36.744C30.846 36.48 30.8092 36.224 30.7897 36.1752C30.767 36.1185 30.7783 36.0709 30.821 36.0439C30.8736 36.0105 30.8686 36.0013 30.7978 36.0007C30.7188 36.0001 30.7117 36.0247 30.74 36.2022ZM44.1416 36.0367C44.1811 36.0626 44.1787 36.2124 44.1325 36.6C44.0674 37.1469 44.0478 37.5202 44.086 37.4818C44.0982 37.4697 44.1311 37.2339 44.1591 36.9579C44.1872 36.6818 44.2232 36.3534 44.2393 36.228C44.2651 36.0264 44.258 36.0001 44.1782 36.0007C44.1229 36.0012 44.1087 36.0151 44.1416 36.0367ZM26.2032 36.264C26.284 36.4206 26.3505 36.5073 26.3502 36.456C26.3499 36.4296 26.3056 36.354 26.2516 36.288C26.1865 36.2083 26.1702 36.2002 26.2032 36.264ZM27.9442 36.408C27.9427 36.4872 27.9594 36.6384 27.9812 36.744C28.0158 36.911 28.0213 36.9172 28.0237 36.792C28.0252 36.7128 28.0086 36.5616 27.9867 36.456C27.9522 36.2889 27.9466 36.2827 27.9442 36.408ZM2.24349 36.5004C2.14425 36.5359 2.02545 36.5934 1.97949 36.6279C1.78101 36.7777 1.58397 36.9836 1.58397 37.0413C1.58397 37.0758 1.56669 37.104 1.54557 37.104C1.47669 37.104 1.39197 37.4173 1.39197 37.6719C1.39197 38.102 1.64409 38.4918 2.07741 38.7315L2.25885 38.832H13.3168H24.3748L24.579 38.724C25.4851 38.2444 25.484 37.1168 24.577 36.5836L24.36 36.456L13.392 36.4459C4.30245 36.4375 2.39301 36.4468 2.24349 36.5004ZM26.4406 36.7664C26.4842 36.8976 26.5261 36.9776 26.5336 36.9442C26.5472 36.8839 26.4158 36.528 26.3799 36.528C26.3696 36.528 26.397 36.6352 26.4406 36.7664ZM26.6092 37.632C26.6092 37.8828 26.6174 37.9854 26.6272 37.86C26.6371 37.7346 26.6371 37.5294 26.6272 37.404C26.6174 37.2786 26.6092 37.3812 26.6092 37.632ZM28.0402 37.32C28.0387 37.3992 28.0554 37.5504 28.0772 37.656C28.1118 37.823 28.1173 37.8292 28.1197 37.704C28.1212 37.6248 28.1046 37.4736 28.0827 37.368C28.0482 37.2009 28.0426 37.1947 28.0402 37.32ZM32.3201 37.74C32.3481 38.0661 32.3743 38.314 32.4974 39.42C32.5246 39.6642 32.569 40.0692 32.596 40.32C32.6232 40.5708 32.6656 40.9596 32.6905 41.184C32.7442 41.6703 32.8143 42.315 32.8795 42.924C32.9055 43.1682 32.9438 43.4544 32.9643 43.56L33.0016 43.752L37.4779 43.7642L41.9541 43.7764L41.9978 43.6616C42.0218 43.5985 42.0645 43.3122 42.0927 43.0254C42.1209 42.7386 42.1663 42.2988 42.1934 42.048C42.2206 41.7972 42.265 41.3868 42.292 41.136C42.3192 40.8852 42.3616 40.4964 42.3865 40.272C42.4113 40.0476 42.4538 39.6588 42.4809 39.408C42.508 39.1572 42.5522 38.7576 42.5792 38.52C42.6061 38.2824 42.6403 37.9314 42.6553 37.74L42.6824 37.392H37.4863H32.2902L32.3201 37.74ZM42.624 37.51C42.624 37.5486 42.6026 37.7376 42.5764 37.93C42.5503 38.1225 42.4846 38.7012 42.4304 39.216C42.3124 40.3378 42.2112 41.2844 42.1429 41.904C42.1153 42.1548 42.0703 42.5652 42.043 42.816C42.0157 43.0667 41.9828 43.3637 41.9697 43.4759L41.9461 43.68H37.4917H33.0373L33.0039 43.38C32.9301 42.7148 32.8783 42.2415 32.832 41.808C32.7786 41.3088 32.7222 40.7941 32.6397 40.056C32.6102 39.792 32.5671 39.3924 32.544 39.168C32.4604 38.3593 32.402 37.8442 32.3709 37.644L32.3394 37.44H37.4816C41.9566 37.44 42.624 37.4491 42.624 37.51ZM25.2 37.7371C25.2 37.8345 25.1784 37.9276 25.152 37.944C25.1256 37.9603 25.104 38.0125 25.104 38.06C25.104 38.1958 24.744 38.5701 24.5055 38.6822L24.289 38.784H13.3263C1.06953 38.784 2.19213 38.8186 1.80081 38.4273C1.59129 38.2178 1.39545 37.7691 1.45077 37.6251C1.47177 37.5705 3.38841 37.56 13.3378 37.56H25.2V37.7371ZM43.9969 37.8765C43.9755 38.077 43.9674 38.2822 43.9789 38.3325C44.0074 38.4588 44.0771 37.8337 44.0541 37.6557C44.0429 37.5679 44.0205 37.6538 43.9969 37.8765ZM28.1362 38.184C28.1347 38.2632 28.1514 38.4144 28.1732 38.52C28.2078 38.687 28.2133 38.6932 28.2157 38.568C28.2172 38.4888 28.2006 38.3376 28.1787 38.232C28.1442 38.0649 28.1386 38.0587 28.1362 38.184ZM43.908 38.6587C43.8882 38.7878 43.8744 38.9822 43.8773 39.0907L43.8825 39.288L43.9261 39.072C43.9501 38.9532 43.9639 38.7588 43.9568 38.64L43.944 38.424L43.908 38.6587ZM26.3383 38.7731L26.2527 38.952L26.3492 38.832C26.4024 38.766 26.4463 38.685 26.4469 38.652C26.4486 38.5599 26.4312 38.5793 26.3383 38.7731ZM29.6281 38.928C29.6276 39.0996 29.6438 39.3048 29.664 39.384C29.716 39.5888 29.7177 39.1873 29.6661 38.856L29.6288 38.616L29.6281 38.928ZM28.2332 39.072C28.232 39.138 28.2483 39.2892 28.2696 39.408L28.308 39.624L28.3083 39.432C28.3084 39.3264 28.2921 39.1752 28.272 39.096C28.2387 38.9655 28.2351 38.9632 28.2332 39.072ZM25.9201 39.3837C25.8583 39.4497 25.8166 39.5116 25.8278 39.5215C25.8388 39.5313 25.8982 39.4773 25.9596 39.4016C26.0971 39.2321 26.0728 39.2212 25.9201 39.3837ZM43.8019 39.6505C43.7826 39.8235 43.7755 40.0179 43.7862 40.0825C43.7968 40.1472 43.8229 40.0342 43.844 39.8318C43.8652 39.6294 43.8723 39.435 43.8597 39.3998C43.8472 39.3646 43.8212 39.4776 43.8019 39.6505ZM29.7236 39.816C29.7235 39.9744 29.7398 40.1688 29.76 40.248C29.8129 40.4562 29.8149 40.0393 29.7624 39.744L29.724 39.528L29.7236 39.816ZM26.1414 39.9614C26.1852 40.0282 26.2303 40.0736 26.2418 40.0621C26.2702 40.0336 26.146 39.84 26.0994 39.84C26.0786 39.84 26.0976 39.8947 26.1414 39.9614ZM28.3292 39.936C28.328 40.002 28.3443 40.1532 28.3656 40.272L28.404 40.488L28.4043 40.296C28.4044 40.1904 28.3881 40.0392 28.368 39.96C28.3347 39.8295 28.3311 39.8272 28.3292 39.936ZM26.2788 40.1641C26.4217 40.4407 26.4472 40.4791 26.4466 40.416C26.4462 40.3764 26.4013 40.29 26.3467 40.224C26.2922 40.158 26.2616 40.1311 26.2788 40.1641ZM2.36253 40.227C2.07693 40.2832 1.58397 40.6365 1.58397 40.785C1.58397 40.8196 1.56669 40.848 1.54557 40.848C1.47453 40.848 1.39197 41.1649 1.39197 41.4379C1.39197 41.6955 1.42605 41.7922 1.63941 42.14C1.73001 42.2875 2.17785 42.5764 2.31213 42.5738C2.39589 42.5722 2.37741 42.5552 2.23809 42.5055C1.07265 42.0901 1.23717 40.4992 2.46873 40.2757C3.19353 40.1442 3.24489 40.1612 4.22397 40.8607C5.14749 41.5206 5.81757 41.9941 6.18717 42.2482C6.69633 42.5984 6.82377 42.5736 4.43997 42.5884L2.42397 42.601L4.52397 42.6126C6.26517 42.622 6.62397 42.6128 6.62397 42.5589C6.62397 42.5043 6.10545 42.1122 5.37597 41.6151C5.28357 41.5521 5.19717 41.487 5.18397 41.4704C5.17077 41.4538 4.99797 41.329 4.79997 41.1931C4.60197 41.0571 4.19157 40.7727 3.88797 40.5612L3.33597 40.1764L2.95197 40.1815C2.74077 40.1842 2.47557 40.2046 2.36253 40.227ZM5.91597 40.2078C5.79153 40.2579 6.00213 40.4553 6.52209 40.776C6.56493 40.8024 6.61077 40.8364 6.62397 40.8516C6.63717 40.8668 6.78633 40.9724 6.95541 41.0864C7.12449 41.2004 7.29729 41.3228 7.33941 41.3583C7.38153 41.3938 7.81557 41.7027 8.30397 42.0447C8.79237 42.3867 9.21357 42.6849 9.23997 42.7076C9.26637 42.7302 9.42837 42.8436 9.59997 42.9596C9.77157 43.0758 9.93837 43.1967 9.97065 43.2286C10.225 43.4796 10.4743 43.5174 10.6605 43.3334C10.6976 43.2967 10.8663 43.173 11.0354 43.0585C11.2045 42.944 11.3773 42.8214 11.4194 42.7861C11.4615 42.7508 11.6472 42.6186 11.832 42.4923C12.2503 42.2064 12.2494 42.1825 11.808 41.8734C11.61 41.7346 11.4264 41.6028 11.4 41.5803C11.3736 41.5578 11.2116 41.4447 11.04 41.3293C10.8684 41.2137 10.7172 41.1049 10.704 41.0875C10.6824 41.059 10.1019 40.6545 9.58545 40.308L9.38865 40.176L7.68237 40.1798C6.74385 40.1818 5.94897 40.1944 5.91597 40.2078ZM11.964 40.2078C11.8383 40.2585 12.1066 40.496 12.7143 40.872C12.757 40.8984 12.8028 40.9318 12.816 40.9465C12.8292 40.9611 12.9798 41.0691 13.1506 41.1865C13.3215 41.3038 13.4943 41.4267 13.5346 41.4595C13.575 41.4922 14.0076 41.7987 14.496 42.1407C14.9844 42.4827 15.4056 42.7809 15.432 42.8036C15.4584 42.8262 15.6204 42.9397 15.792 43.0559C15.9636 43.1722 16.1456 43.3059 16.1965 43.3531C16.3786 43.5222 16.607 43.4794 16.8613 43.2286C16.8936 43.1967 17.0604 43.0762 17.232 42.9609C17.4036 42.8456 17.5548 42.7374 17.568 42.7204C17.5812 42.7035 17.8188 42.5337 18.096 42.3433C18.3732 42.1527 18.7944 41.8568 19.032 41.6856C19.2696 41.5144 19.6584 41.2416 19.896 41.0792C20.1336 40.9168 20.3388 40.7698 20.352 40.7524C20.3652 40.735 20.511 40.6298 20.676 40.5186C20.9884 40.308 21.0272 40.2538 20.9 40.2051C20.8093 40.1702 12.0505 40.1728 11.964 40.2078ZM23.04 40.4892C22.7892 40.6614 22.5487 40.8319 22.5055 40.868C22.4623 40.9041 22.2571 41.0476 22.0495 41.187C21.8419 41.3263 21.6612 41.4546 21.648 41.472C21.6348 41.4894 21.462 41.6138 21.264 41.7484C19.8483 42.711 19.7559 42.6265 22.2085 42.6126L24.216 42.601L22.296 42.5884C20.0457 42.5737 20.1433 42.5901 20.5659 42.2981C20.9535 42.0303 20.9217 42.0528 21.744 41.4694C22.1004 41.2166 22.5 40.9366 22.632 40.8471C22.764 40.7577 22.897 40.66 22.9275 40.63C23.5335 40.0365 24.5773 40.1287 25.0173 40.8146C25.4134 41.4319 25.1152 42.2512 24.4018 42.5055C24.268 42.5532 24.2464 42.5724 24.3246 42.5738C24.4356 42.576 24.5926 42.5034 24.7095 42.396C24.7454 42.363 24.7953 42.336 24.8204 42.336C25.1545 42.336 25.3846 41.1278 25.1038 40.848C25.0906 40.8348 25.0519 40.77 25.0177 40.704C24.8648 40.409 24.3015 40.176 23.7414 40.176C23.5178 40.176 23.4554 40.2038 23.04 40.4892ZM9.68661 40.452C9.87321 40.5774 10.2918 40.8679 10.6168 41.0974C10.9419 41.3271 11.4007 41.6511 11.6364 41.8174C12.1845 42.2046 12.1857 42.1725 11.6066 42.5794C11.3346 42.7706 10.9689 43.0317 10.7941 43.1595C10.3514 43.4833 10.5038 43.5367 9.19197 42.5983C8.87517 42.3716 8.43237 42.0579 8.20797 41.9012C7.98357 41.7445 7.62369 41.492 7.40817 41.3401C7.19277 41.1883 6.77697 40.8958 6.48417 40.6905C6.19149 40.4851 5.95197 40.2961 5.95197 40.2705C5.95197 40.2414 6.58557 40.224 7.64973 40.224H9.34737L9.68661 40.452ZM20.88 40.2705C20.88 40.3117 20.4595 40.6202 19.5199 41.2681C19.3572 41.3803 19.191 41.4991 19.1506 41.5321C19.1103 41.565 18.9375 41.6874 18.7666 41.804C18.5958 41.9205 18.3156 42.1167 18.144 42.24C16.9842 43.0728 16.5121 43.392 16.4401 43.392C16.3947 43.392 15.9117 43.0755 15.3668 42.6886C14.8219 42.3019 14.16 41.8336 13.896 41.6482C13.632 41.4628 13.308 41.2317 13.176 41.1348C13.044 41.0377 12.7251 40.8129 12.4675 40.6353C12.2098 40.4576 12.0114 40.2924 12.0264 40.2681C12.0643 40.2067 20.88 40.2091 20.88 40.2705ZM43.7163 40.44C43.6969 40.5456 43.6834 40.74 43.6863 40.872L43.6917 41.112L43.7348 40.824C43.7887 40.4638 43.7728 40.1331 43.7163 40.44ZM29.8167 40.68C29.8149 40.812 29.8314 41.0064 29.8532 41.112L29.8929 41.304L29.8948 41.088C29.8959 40.9692 29.8796 40.7748 29.8584 40.656L29.82 40.44L29.8167 40.68ZM28.449 41.016C28.4637 41.2008 28.4839 41.361 28.4938 41.372C28.5271 41.4087 28.5012 40.9699 28.4614 40.824C28.4367 40.7331 28.4322 40.804 28.449 41.016ZM26.6092 41.424C26.6092 41.6748 26.6174 41.7774 26.6272 41.652C26.6371 41.5266 26.6371 41.3214 26.6272 41.196C26.6174 41.0706 26.6092 41.1732 26.6092 41.424ZM29.9127 41.544C29.9109 41.676 29.9274 41.8704 29.9492 41.976L29.9889 42.168L29.9908 41.952C29.9919 41.8332 29.9756 41.6388 29.9544 41.52L29.916 41.304L29.9127 41.544ZM28.5212 41.712C28.52 41.778 28.5363 41.9292 28.5576 42.048L28.596 42.264L28.5963 42.072C28.5964 41.9664 28.5801 41.8152 28.56 41.736C28.5267 41.6055 28.5231 41.6032 28.5212 41.712ZM26.5014 42.12C26.4982 42.1728 26.4206 42.3672 26.3288 42.552C26.237 42.7368 26.1963 42.8448 26.2383 42.792C26.3608 42.638 26.5503 42.186 26.5278 42.1015C26.5124 42.044 26.5057 42.0487 26.5014 42.12ZM30.0091 42.432C30.008 42.5508 30.0243 42.7452 30.0456 42.864L30.084 43.08L30.0872 42.84C30.089 42.708 30.0726 42.5136 30.0507 42.408L30.011 42.216L30.0091 42.432ZM28.641 42.792C28.6557 42.9768 28.6759 43.1369 28.6858 43.148C28.7191 43.1847 28.6932 42.7459 28.6534 42.6C28.6287 42.5091 28.6242 42.58 28.641 42.792ZM25.9777 43.0833C25.9 43.1775 25.7203 43.3417 25.5782 43.4481C25.1679 43.7554 25.2099 43.7652 25.6324 43.4607C25.8213 43.3246 26.2042 42.912 26.1417 42.912C26.1292 42.912 26.0554 42.9891 25.9777 43.0833ZM12.8853 43.3832C12.245 43.822 11.37 44.4373 11.2754 44.5153C11.2333 44.55 11.0605 44.6715 10.8914 44.7855C10.7223 44.8995 10.5732 45.0076 10.56 45.0259C10.5019 45.106 10.3266 45.1197 10.2565 45.0496C10.2159 45.0091 10.1614 44.9759 10.1354 44.9759C10.1094 44.9759 10.0808 44.9581 10.0719 44.9364C10.0632 44.9145 9.88605 44.7795 9.67833 44.6364C9.47061 44.4931 9.16845 44.2842 9.00693 44.172L8.71329 43.968H5.98869C3.46677 43.968 3.26397 43.974 3.26397 44.0487C3.26397 44.1648 3.45477 44.6905 3.54813 44.832C3.59181 44.898 3.65841 45.0134 3.69621 45.0885C4.00101 45.6933 5.27541 46.5294 5.85933 46.5076C5.92353 46.5052 5.83557 46.4648 5.66397 46.4176C4.55649 46.1136 3.44961 45.0337 3.34965 44.16L3.33597 44.04L6.00237 44.0276L8.66877 44.0151L9.07437 44.2941C9.29745 44.4476 9.66981 44.707 9.90177 44.8706C10.4217 45.2371 10.3659 45.24 10.9573 44.8174C11.2272 44.6247 11.7504 44.2539 12.12 43.9935C12.4896 43.7332 12.9202 43.4265 13.077 43.312C13.4545 43.0364 13.249 42.9456 14.88 44.1097C15.0252 44.2134 15.4336 44.5035 15.7878 44.7544L16.4316 45.2108L16.8918 44.8931C17.1448 44.7184 17.5342 44.4496 17.757 44.2957L18.162 44.0159H20.745C22.1656 44.0159 23.3276 44.0322 23.3272 44.052C23.3107 44.9085 22.1239 46.1025 20.976 46.4176C20.8044 46.4648 20.718 46.505 20.784 46.5072C21.0524 46.5157 21.6543 46.2726 22.0801 45.9837C22.4106 45.7596 22.989 45.1298 22.9911 44.9919C22.9916 44.9612 23.0082 44.9288 23.028 44.9199C23.0869 44.8938 23.28 44.494 23.28 44.3983C23.28 44.3496 23.3016 44.2963 23.328 44.28C23.3544 44.2636 23.376 44.1867 23.376 44.1091V43.968H20.7475H18.1189L17.7835 44.1918C17.5989 44.3148 17.4372 44.4298 17.424 44.4474C17.4108 44.4649 17.2596 44.5732 17.088 44.6882C16.9164 44.8033 16.7688 44.915 16.76 44.9366C16.7511 44.9583 16.7226 44.9759 16.6965 44.9759C16.6705 44.9759 16.616 45.0091 16.5754 45.0496C16.5015 45.1236 16.3128 45.1032 16.28 45.0176C16.2711 44.9947 16.2351 44.9759 16.2 44.9759C16.1648 44.9759 16.1288 44.9583 16.1199 44.9366C16.1112 44.915 15.9744 44.8076 15.816 44.698C15.6576 44.5885 15.2472 44.2999 14.904 44.0568C13.2448 42.8815 13.4954 42.965 12.8853 43.3832ZM28.7378 43.68C28.7524 43.878 28.7725 44.049 28.7822 44.06C28.8153 44.0972 28.7888 43.6089 28.7499 43.464C28.7263 43.3761 28.7216 43.4602 28.7378 43.68ZM24.8647 43.8618C24.7654 43.942 24.7078 44.1224 24.6469 44.544C24.6253 44.6938 24.7383 44.3006 24.795 44.0292C24.8072 43.9705 24.8763 43.8903 24.9486 43.8511C25.0208 43.8118 25.0554 43.779 25.0252 43.7779C24.9952 43.7768 24.923 43.8146 24.8647 43.8618ZM28.8356 44.592C28.8498 44.79 28.8691 44.961 28.8787 44.972C28.9106 45.009 28.885 44.5215 28.8472 44.3759C28.8254 44.2916 28.8206 44.381 28.8356 44.592ZM24.515 44.8899C24.3332 45.3438 24.2881 45.4723 24.3244 45.432C24.383 45.3672 24.5817 44.8696 24.5583 44.8464C24.5481 44.8362 24.5287 44.8557 24.515 44.8899ZM28.9322 45.48C28.946 45.6912 28.9652 45.873 28.9747 45.884C29.0067 45.921 28.981 45.3854 28.9437 45.24C28.9228 45.1582 28.9178 45.2622 28.9322 45.48ZM23.9977 45.8914C23.8554 46.1081 23.5618 46.4517 23.3317 46.6709C23.1052 46.8866 22.974 47.0209 23.04 46.9694C23.4886 46.6191 24.0241 46.0106 24.2343 45.612C24.352 45.3888 24.2434 45.5171 23.9977 45.8914ZM29.0282 46.344C29.042 46.5552 29.0612 46.7369 29.0707 46.748C29.1027 46.7849 29.077 46.2494 29.0397 46.104C29.0188 46.0222 29.0138 46.1262 29.0282 46.344ZM6.11997 46.56C6.19917 46.5801 9.43917 46.5966 13.32 46.5966C17.2008 46.5966 20.4408 46.5801 20.52 46.56C20.5992 46.5398 17.3592 46.5234 13.32 46.5234C9.28077 46.5234 6.04077 46.5398 6.11997 46.56ZM29.0928 46.9719C29.0954 47.049 29.1159 47.166 29.1384 47.232C29.1658 47.3128 29.17 47.2738 29.1513 47.112C29.1202 46.842 29.0854 46.759 29.0928 46.9719ZM22.692 47.1693C22.593 47.2374 22.512 47.3114 22.512 47.334C22.512 47.3565 22.5498 47.344 22.596 47.3061C22.6422 47.2682 22.734 47.1934 22.8 47.1402C22.9669 47.0052 22.9076 47.0212 22.692 47.1693Z" fill="#5E4122"></path></g><defs><clipPath id="clip0_1_13"><rect width="48" height="48" fill="white"></rect></clipPath></defs></svg>