<svg xmlns="http://www.w3.org/2000/svg" width="48" height="48" viewBox="0 0 48 48" fill="none"><path d="M37.4104 28.5156H46.4856C46.7007 28.5156 46.9069 28.6011 47.059 28.7531C47.211 28.9052 47.2965 29.1114 47.2965 29.3265V37.6236C47.2965 38.0224 47.0065 38.362 46.6127 38.4245L18.414 42.84H16.7288V28.5156H37.4104Z" fill="#017BAE"></path><path d="M37.4103 28.5156H16.7285V42.84H18.4138L22.7813 42.1561V37.6976C22.7813 37.1889 23.1946 36.7787 23.7033 36.7788H23.7126C29.2954 36.7788 33.9423 35.9966 37.9166 34.3879C39.0907 33.9128 39.8494 32.788 39.8494 31.5222V28.5157H37.4103V28.5156Z" fill="#057399"></path><path d="M46.4855 28.5156H43.0957V38.9752L46.6126 38.4245C46.8032 38.3942 46.9768 38.2969 47.1021 38.1501C47.2275 38.0033 47.2963 37.8167 47.2963 37.6236V29.3265C47.2963 29.1115 47.2109 28.9052 47.0588 28.7532C46.9068 28.6011 46.7006 28.5156 46.4855 28.5156Z" fill="#99E6FC"></path><path d="M44.6149 20.7477L40.189 8.35583L36.1027 5.33831C35.7922 5.10936 35.3653 5.12719 35.0716 5.37771C29.7825 9.87585 24.2297 9.86177 18.4151 5.33455C18.1224 5.10655 17.7124 5.09904 17.414 5.31954L13.3024 8.35583L11.2185 14.191L11.2186 14.1913H17.7825C17.9499 14.1913 18.1105 14.2578 18.2288 14.3762C18.3472 14.4946 18.4137 14.6552 18.4137 14.8226V34.1089L18.5118 34.1238C25.4842 34.6718 31.7979 34.2327 37.0016 32.1262C37.1221 32.0776 37.2253 31.9941 37.298 31.8865C37.3708 31.7788 37.4097 31.6519 37.4098 31.522V25.9917L44.3193 21.6137C44.4593 21.5241 44.5647 21.3897 44.6184 21.2324C44.6721 21.0751 44.6708 20.9042 44.6149 20.7477Z" fill="#FEDF30"></path><path d="M20.881 11.7825H12.8496L11.2188 14.1913L15.972 33.7458L18.4134 34.1089H18.4139L20.881 33.7981V11.7825Z" fill="#FEDF30"></path><path d="M25.7023 31.7609C23.1779 31.7327 21.1385 29.693 21.1227 27.1683L21.0521 15.9152C21.0521 13.5412 19.1277 11.6168 16.7537 11.6168H16.5246C15.2245 11.6168 14.3168 10.3289 14.7541 9.10456L15.6371 6.63171L13.3024 8.35581L11.2185 14.191L11.2186 14.1913H17.7825C17.9499 14.1913 18.1105 14.2578 18.2288 14.3762C18.3472 14.4946 18.4137 14.6551 18.4137 14.8226V34.1089L18.5118 34.1238C25.4842 34.6718 31.7979 34.2327 37.0016 32.1262C37.1221 32.0776 37.2253 31.9941 37.298 31.8865C37.3708 31.7788 37.4097 31.6519 37.4098 31.522V30.3331C33.8951 31.3913 29.9537 31.8084 25.7023 31.7609Z" fill="#FED402"></path><path d="M37.0017 21.6578C31.7736 23.7746 25.4251 24.2081 18.4133 23.6479H17.5625V26.4095L18.4133 26.3877C25.4251 26.9479 31.7736 26.5144 37.0017 24.3976C37.1222 24.349 37.2254 24.2655 37.2981 24.1579C37.3708 24.0502 37.4097 23.9233 37.4098 23.7934V21.0536C37.4097 21.1835 37.3708 21.3104 37.2981 21.4181C37.2254 21.5258 37.1222 21.6092 37.0017 21.6578Z" fill="#FE646F"></path><path d="M21.1017 23.8137C20.2048 23.7751 19.3087 23.7198 18.4138 23.6479V26.3877C19.3144 26.46 20.2162 26.5155 21.1189 26.5541L21.1017 23.8137Z" fill="#FD4755"></path><path d="M4.61892 14.1913H17.7826C17.95 14.1913 18.1106 14.2578 18.229 14.3762C18.3473 14.4946 18.4139 14.6551 18.4139 14.8226V42.84H15.8077C15.715 42.84 15.6248 42.81 15.5507 42.7544L1.17523 31.832C0.99466 31.6965 0.85676 31.5121 0.777907 31.3006C0.699054 31.0891 0.68256 30.8594 0.730386 30.6388L4.0019 14.6888C4.0325 14.5479 4.11039 14.4217 4.22264 14.3312C4.33489 14.2407 4.47473 14.1913 4.61892 14.1913Z" fill="#0290CF"></path><path d="M17.7824 14.1913H4.61877C4.47459 14.1913 4.33474 14.2406 4.2225 14.3311C4.11026 14.4216 4.03239 14.5478 4.00185 14.6888L3.00952 19.5267H18.4138V14.8227C18.4138 14.6552 18.3473 14.4946 18.2289 14.3762C18.1105 14.2578 17.9499 14.1913 17.7824 14.1913Z" fill="#017BAE"></path><path d="M7.76245 14.1913H14.4996V19.5267H7.76245V14.1913Z" fill="#DD7F66"></path><path d="M9.99153 14.1913H7.76245V19.5267H14.4996V17.5412H13.3414C11.4914 17.5411 9.99153 16.0414 9.99153 14.1913Z" fill="#D6694B"></path><path d="M14.1884 29.7263L10.5397 31.5216C10.4632 31.5592 10.3791 31.5788 10.2938 31.5788C10.2085 31.5788 10.1244 31.5592 10.0479 31.5216L6.39918 29.7263C6.30583 29.6803 6.22721 29.6092 6.17223 29.5209C6.11726 29.4325 6.08812 29.3306 6.08813 29.2265V23.0907C6.08813 22.943 6.14681 22.8013 6.25127 22.6969C6.35572 22.5924 6.49738 22.5338 6.6451 22.5338H13.9426C14.0903 22.5338 14.232 22.5924 14.3364 22.6969C14.4409 22.8013 14.4996 22.943 14.4996 23.0907V29.2265C14.4996 29.3306 14.4704 29.4325 14.4154 29.5209C14.3604 29.6092 14.2818 29.6803 14.1884 29.7263Z" fill="#017BAE"></path><path d="M37.5147 6.3808L36.1028 5.33818C35.7923 5.10924 35.3653 5.12707 35.0717 5.37759C29.7826 9.87573 24.2298 9.86165 18.4152 5.33443C18.1225 5.10643 17.7125 5.09892 17.4141 5.31942L15.9724 6.38409L17.9031 7.87427C20.9445 10.021 23.9884 11.0936 26.9771 11.0933C29.9437 11.0931 32.8554 10.0351 35.6503 7.91997L37.4104 6.47782L37.5147 6.3808Z" fill="#FE646F"></path><path d="M44.615 20.7478L40.1896 8.35724L37.4099 11.7825V25.9917L44.3194 21.6137C44.4594 21.5241 44.5649 21.3897 44.6186 21.2324C44.6722 21.0751 44.671 20.9042 44.615 20.7478Z" fill="#FAC600"></path><path d="M13.9426 21.83H6.64505C5.94988 21.83 5.38428 22.3956 5.38428 23.0907V29.2265C5.38428 29.7106 5.65403 30.144 6.08837 30.3577L9.73717 32.1531C9.91141 32.2388 10.1026 32.2817 10.2938 32.2817C10.4849 32.2817 10.6761 32.2388 10.8505 32.1531L14.4992 30.3577C14.9336 30.1441 15.2033 29.7107 15.2033 29.2265V23.0907C15.2032 22.3956 14.6377 21.83 13.9426 21.83ZM13.7958 29.1352L10.2939 30.8583L6.7918 29.1352V23.2374H13.7958V29.1352Z" fill="black"></path><path d="M46.4855 27.8119H38.1141V26.4258L44.6988 22.2064C44.9736 22.0317 45.1807 21.7686 45.2859 21.4604C45.3911 21.1522 45.3882 20.8174 45.2776 20.5111L40.8519 8.11918C40.8048 7.98752 40.7196 7.87285 40.6072 7.78975L36.521 4.77232C35.9463 4.34784 35.1625 4.37627 34.6154 4.84157C29.5702 9.13206 24.4129 9.1116 18.8479 4.77945C18.3069 4.35835 17.5454 4.34765 16.9957 4.75365L12.8844 7.78975C12.7719 7.87281 12.6867 7.9875 12.6396 8.11918L10.7225 13.4876H4.61891C3.99514 13.4876 3.44643 13.9301 3.31263 14.5474L0.0425234 30.4897C-0.11295 31.2068 0.165814 31.9546 0.749333 32.3923L15.1284 43.3174C15.3246 43.4638 15.5628 43.5432 15.8076 43.5437H18.4109L18.4129 43.5438L18.4147 43.5437C18.4478 43.5437 18.4801 43.5406 18.512 43.5361C18.5156 43.5357 18.519 43.5358 18.5226 43.5353L46.7228 39.1194C47.0795 39.0643 47.4046 38.883 47.6389 38.6085C47.8733 38.334 48.0014 37.9845 47.9999 37.6236V29.3265C48 28.4914 47.3206 27.8119 46.4855 27.8119ZM42.392 29.2193V35.4031L41.827 35.4927C41.7358 35.5072 41.6483 35.5395 41.5695 35.5878C41.4907 35.6361 41.4222 35.6995 41.3679 35.7742C41.3136 35.849 41.2746 35.9338 41.2531 36.0236C41.2315 36.1135 41.2279 36.2067 41.2424 36.298C41.2717 36.4823 41.373 36.6475 41.524 36.7571C41.675 36.8668 41.8634 36.912 42.0477 36.8828L42.3921 36.8281V38.373L19.1176 42.0175V40.5218L19.6825 40.4321C19.7738 40.4176 19.8613 40.3853 19.9401 40.337C20.0189 40.2887 20.0873 40.2253 20.1416 40.1505C20.1959 40.0758 20.235 39.991 20.2565 39.9011C20.278 39.8113 20.2816 39.718 20.2671 39.6268C20.2063 39.243 19.8459 38.9814 19.4618 39.0421L19.1175 39.0968V34.8744C20.7171 34.9864 22.2473 35.0427 23.7119 35.0427C29.0575 35.0427 33.5239 34.2937 37.2655 32.7786C37.7809 32.5698 38.114 32.0767 38.114 31.5221V29.2194H42.392V29.2193ZM8.46616 18.8229V14.895H13.7959V18.8229H8.46616ZM15.2032 14.895H17.7101V18.8229H15.2032V14.895ZM19.1176 24.4058C20.7168 24.5179 22.247 24.5742 23.7111 24.5742C28.7945 24.5742 33.0811 23.8955 36.7066 22.5267V23.758C32.1275 25.6048 26.3682 26.2523 19.1176 25.7348V24.4058ZM13.8929 8.79446L15.9631 7.26581L17.4732 8.43144C17.4812 8.43754 17.4893 8.44355 17.4974 8.44927C20.6448 10.6708 23.8338 11.7972 26.9761 11.7972H26.9773C27.4613 11.7972 27.9513 11.7698 28.4337 11.716C28.5262 11.7066 28.6159 11.6789 28.6976 11.6346C28.7793 11.5903 28.8514 11.5302 28.9098 11.4579C28.9682 11.3855 29.0117 11.3023 29.0377 11.2131C29.0637 11.1239 29.0718 11.0303 29.0615 10.938C29.0512 10.8456 29.0227 10.7561 28.9777 10.6748C28.9326 10.5935 28.8719 10.5219 28.799 10.4642C28.7262 10.4065 28.6426 10.3638 28.5531 10.3386C28.4636 10.3134 28.37 10.3061 28.2778 10.3173C27.8468 10.3653 27.4093 10.3897 26.9771 10.3897H26.9761C24.1344 10.3897 21.2222 9.35274 18.3212 7.30803L17.1403 6.39649L17.8319 5.88578C17.8762 5.85332 17.9384 5.85491 17.9835 5.89C24.0707 10.6288 29.9733 10.6369 35.5273 5.91365C35.5738 5.87405 35.6387 5.87021 35.6852 5.90445L36.3768 6.41516L35.215 7.36696C33.8024 8.43454 32.3431 9.22964 30.8772 9.7305C30.7892 9.75997 30.708 9.80654 30.6381 9.86754C30.5682 9.92853 30.511 10.0027 30.4699 10.0859C30.4288 10.1691 30.4046 10.2595 30.3985 10.3521C30.3925 10.4447 30.4049 10.5375 30.4349 10.6253C30.4649 10.7131 30.5119 10.794 30.5733 10.8636C30.6347 10.9331 30.7093 10.9898 30.7927 11.0304C30.8761 11.071 30.9667 11.0948 31.0593 11.1002C31.1519 11.1057 31.2446 11.0928 31.3322 11.0623C32.9438 10.5117 34.5397 9.64324 36.0753 8.48108C36.0824 8.47564 36.0895 8.47001 36.0966 8.46428L37.5449 7.27763L39.5989 8.79437L43.9524 20.9843C43.9548 20.9909 43.9549 20.9983 43.9526 21.005C43.9503 21.0117 43.9458 21.0174 43.9398 21.0212L38.1144 24.754V14.1913C38.1144 13.8026 37.7994 13.4876 37.4106 13.4876C37.0219 13.4876 36.7069 13.8026 36.7069 14.1913V21.0181C32.1278 22.8648 26.3684 23.5125 19.1178 22.9949V14.8227C19.1178 14.0865 18.5189 13.4876 17.7828 13.4876H12.2171L13.8929 8.79446ZM4.67793 14.895H7.05873V18.8229H3.87222L4.67793 14.895ZM17.7101 42.1363H15.9004L1.59745 31.2691C1.4492 31.1579 1.37883 30.969 1.41964 30.7802L3.58351 20.2304H17.7101V28.86C17.7101 29.2486 18.0251 29.5637 18.4138 29.5637C18.8026 29.5637 19.1176 29.2486 19.1176 28.86V27.1458C20.7168 27.2578 22.247 27.3142 23.7111 27.3142C28.7945 27.3142 33.0812 26.6355 36.7066 25.2667V31.4864C32.1271 33.3331 26.3676 33.9805 19.1176 33.4629V31.6748C19.1176 31.2862 18.8026 30.9711 18.4138 30.9711C18.0251 30.9711 17.7101 31.2862 17.7101 31.6748V42.1363ZM46.5926 37.6236C46.5926 37.6766 46.5546 37.7211 46.5037 37.7292L43.7994 38.1526V29.2193H46.4855C46.5446 29.2193 46.5927 29.2674 46.5927 29.3265V37.6236H46.5926Z" fill="black"></path><path d="M24.4318 38.2534L21.9469 38.6478C21.8556 38.6622 21.7681 38.6946 21.6893 38.7429C21.6105 38.7912 21.542 38.8545 21.4877 38.9293C21.4334 39.0041 21.3944 39.0888 21.3729 39.1787C21.3514 39.2686 21.3477 39.3618 21.3622 39.4531C21.3915 39.6374 21.4928 39.8025 21.6438 39.9122C21.7948 40.0218 21.9832 40.067 22.1676 40.0377L24.6525 39.6434C24.7438 39.6289 24.8313 39.5966 24.9101 39.5483C24.9889 39.4999 25.0574 39.4366 25.1116 39.3618C25.1659 39.287 25.205 39.2023 25.2265 39.1124C25.248 39.0225 25.2517 38.9293 25.2372 38.838C25.2228 38.7467 25.1905 38.6591 25.1422 38.5803C25.0939 38.5015 25.0306 38.433 24.9558 38.3787C24.881 38.3243 24.7962 38.2853 24.7063 38.2638C24.6164 38.2423 24.5231 38.2388 24.4318 38.2534ZM29.4019 37.4646L26.917 37.8589C26.8257 37.8734 26.7382 37.9057 26.6594 37.954C26.5806 38.0024 26.5121 38.0657 26.4578 38.1405C26.4035 38.2153 26.3645 38.3 26.343 38.3899C26.3214 38.4798 26.3178 38.573 26.3323 38.6643C26.3616 38.8486 26.4629 39.0137 26.6139 39.1234C26.7649 39.233 26.9533 39.2782 27.1377 39.2489L29.6226 38.8546C29.7139 38.8401 29.8014 38.8077 29.8802 38.7594C29.959 38.7111 30.0275 38.6478 30.0817 38.573C30.136 38.4982 30.1751 38.4135 30.1966 38.3236C30.2181 38.2337 30.2217 38.1405 30.2072 38.0492C30.1928 37.9579 30.1605 37.8704 30.1122 37.7916C30.0639 37.7128 30.0005 37.6443 29.9257 37.59C29.8509 37.5357 29.7662 37.4967 29.6763 37.4752C29.5864 37.4537 29.4932 37.4501 29.4019 37.4646ZM36.2722 37.0868C36.3015 37.2711 36.4028 37.4363 36.5538 37.5459C36.7048 37.6556 36.8932 37.7007 37.0776 37.6715L39.5625 37.2771C39.6538 37.2626 39.7413 37.2303 39.8201 37.182C39.8989 37.1337 39.9674 37.0703 40.0216 36.9955C40.0759 36.9208 40.115 36.836 40.1365 36.7461C40.158 36.6563 40.1617 36.563 40.1472 36.4718C40.1328 36.3805 40.1005 36.2929 40.0522 36.214C40.004 36.1352 39.9406 36.0667 39.8658 36.0124C39.791 35.958 39.7062 35.919 39.6163 35.8975C39.5264 35.8761 39.4331 35.8725 39.3418 35.8871L36.8569 36.2815C36.6726 36.3108 36.5074 36.4121 36.3978 36.5631C36.2881 36.7141 36.243 36.9025 36.2722 37.0868ZM34.3719 36.6759L31.8869 37.0703C31.7956 37.0848 31.7081 37.1171 31.6293 37.1654C31.5505 37.2137 31.482 37.2771 31.4277 37.3519C31.3734 37.4267 31.3344 37.5114 31.3129 37.6013C31.2913 37.6911 31.2877 37.7844 31.3022 37.8756C31.3315 38.06 31.4328 38.2251 31.5838 38.3348C31.7348 38.4444 31.9232 38.4896 32.1076 38.4604L34.5926 38.066C34.6839 38.0515 34.7714 38.0192 34.8502 37.9709C34.929 37.9226 34.9974 37.8592 35.0517 37.7845C35.106 37.7097 35.1451 37.6249 35.1666 37.5351C35.1881 37.4452 35.1917 37.352 35.1772 37.2607C35.1628 37.1694 35.1305 37.0818 35.0822 37.003C35.0339 36.9242 34.9706 36.8557 34.8958 36.8014C34.821 36.7471 34.7362 36.7081 34.6463 36.6866C34.5564 36.665 34.4632 36.6614 34.3719 36.6759Z" fill="black"></path></svg>