<svg xmlns="http://www.w3.org/2000/svg" width="48" height="48" viewBox="0 0 48 48" fill="none"><g clip-path="url(#clip0_734_587)"><path d="M41.886 35.4542C39.9778 37.7702 37.5202 39.5717 34.7373 40.6945C31.9545 41.8172 28.9348 42.2255 25.9537 41.8821C22.9725 41.5388 20.1248 40.4546 17.67 38.7285C15.2153 37.0025 13.2317 34.6894 11.9 32.0002H29C29.7956 32.0002 30.5587 31.6841 31.1213 31.1215C31.6839 30.5589 32 29.7959 32 29.0002C32 28.2046 31.6839 27.4415 31.1213 26.8789C30.5587 26.3163 29.7956 26.0002 29 26.0002H10.118C9.96059 24.6715 9.96059 23.3289 10.118 22.0002H29C29.7956 22.0002 30.5587 21.6841 31.1213 21.1215C31.6839 20.5589 32 19.7959 32 19.0002C32 18.2046 31.6839 17.4415 31.1213 16.8789C30.5587 16.3163 29.7956 16.0002 29 16.0002H11.9C13.2317 13.311 15.2153 10.9979 17.67 9.27186C20.1248 7.54579 22.9725 6.46164 25.9537 6.11825C28.9348 5.77486 31.9545 6.18316 34.7373 7.30593C37.5202 8.42869 39.9778 10.2302 41.886 12.5462C42.3926 13.1599 43.1222 13.5473 43.9143 13.623C44.7065 13.6988 45.4963 13.4568 46.11 12.9502C46.7237 12.4436 47.1111 11.714 47.1868 10.9219C47.2626 10.1297 47.0206 9.33991 46.514 8.7262C43.8127 5.4492 40.2895 2.94845 36.3047 1.47967C32.3199 0.0109037 28.0165 -0.373182 23.8345 0.366695C19.6526 1.10657 15.7422 2.94386 12.5033 5.69068C9.26431 8.4375 6.81299 11.9953 5.4 16.0002H3C2.20435 16.0002 1.44129 16.3163 0.87868 16.8789C0.31607 17.4415 0 18.2046 0 19.0002C0 19.7959 0.31607 20.5589 0.87868 21.1215C1.44129 21.6841 2.20435 22.0002 3 22.0002H4.102C4.046 22.6622 4 23.3242 4 24.0002C4 24.6762 4.046 25.3382 4.102 26.0002H3C2.20435 26.0002 1.44129 26.3163 0.87868 26.8789C0.31607 27.4415 0 28.2046 0 29.0002C0 29.7959 0.31607 30.5589 0.87868 31.1215C1.44129 31.6841 2.20435 32.0002 3 32.0002H5.4C6.81299 36.0051 9.26431 39.5629 12.5033 42.3097C15.7422 45.0565 19.6526 46.8938 23.8345 47.6337C28.0165 48.3736 32.3199 47.9895 36.3047 46.5207C40.2895 45.052 43.8127 42.5512 46.514 39.2742C46.7648 38.9703 46.9533 38.62 47.0688 38.2433C47.1842 37.8665 47.2243 37.4708 47.1868 37.0785C47.1493 36.6863 47.0349 36.3053 46.8501 35.9573C46.6654 35.6093 46.4139 35.301 46.11 35.0502C45.8061 34.7994 45.4558 34.6109 45.0791 34.4954C44.7023 34.38 44.3066 34.3399 43.9143 34.3774C43.5221 34.4149 43.1411 34.5293 42.7931 34.7141C42.445 34.8988 42.1368 35.1503 41.886 35.4542Z" fill="#40556D"></path></g><defs><clipPath id="clip0_734_587"><rect width="48" height="48" fill="white"></rect></clipPath></defs></svg>