<svg xmlns="http://www.w3.org/2000/svg" width="48" height="48" viewBox="0 0 48 48" fill="none"><g clip-path="url(#clip0_524_1927)"><path d="M33.3142 30.464C33.0525 30.1645 32.6826 29.9812 32.2858 29.9544C31.889 29.9276 31.4978 30.0595 31.1982 30.321C30.2438 31.1541 29.1129 31.7599 27.8906 32.0927C26.6682 32.4256 25.3863 32.4768 24.1413 32.2426C22.8963 32.0084 21.7207 31.4948 20.7029 30.7406C19.685 29.9863 18.8516 29.011 18.2652 27.888H24.5092C24.907 27.888 25.2885 27.73 25.5698 27.4487C25.8512 27.1674 26.0092 26.7858 26.0092 26.388C26.0092 25.9902 25.8512 25.6087 25.5698 25.3274C25.2885 25.0461 24.907 24.888 24.5092 24.888H17.3512C17.3189 24.5931 17.3019 24.2967 17.3002 24C17.3005 23.702 17.3165 23.4043 17.3482 23.108H24.5052C24.903 23.108 25.2845 22.95 25.5658 22.6687C25.8472 22.3874 26.0052 22.0058 26.0052 21.608C26.0052 21.2102 25.8472 20.8287 25.5658 20.5474C25.2845 20.2661 24.903 20.108 24.5052 20.108H18.2682C18.9781 18.7546 20.0444 17.6209 21.3517 16.8294C22.6591 16.0379 24.1579 15.6187 25.6862 15.617C27.5645 15.6101 29.3895 16.2404 30.8632 17.405C31.0174 17.5329 31.1956 17.6286 31.3874 17.6864C31.5791 17.7443 31.7805 17.7632 31.9797 17.7419C32.1789 17.7207 32.3718 17.6598 32.547 17.5628C32.7223 17.4658 32.8764 17.3347 33.0001 17.1772C33.1239 17.0197 33.2148 16.839 33.2677 16.6458C33.3205 16.4526 33.334 16.2508 33.3076 16.0522C33.2811 15.8537 33.2151 15.6624 33.1136 15.4898C33.012 15.3171 32.8769 15.1666 32.7162 15.047C30.7155 13.4646 28.237 12.6079 25.6862 12.617C23.3516 12.6207 21.0746 13.3416 19.1632 14.6822C17.2519 16.0228 15.7987 17.9182 15.0002 20.112H12.8152C12.4174 20.112 12.0358 20.2701 11.7545 20.5514C11.4732 20.8327 11.3152 21.2142 11.3152 21.612C11.3152 22.0098 11.4732 22.3914 11.7545 22.6727C12.0358 22.954 12.4174 23.112 12.8152 23.112H14.3492C14.3262 23.412 14.3042 23.703 14.3042 24.004C14.3042 24.305 14.3262 24.595 14.3482 24.888H12.8152C12.4174 24.888 12.0358 25.0461 11.7545 25.3274C11.4732 25.6087 11.3152 25.9902 11.3152 26.388C11.3152 26.7858 11.4732 27.1674 11.7545 27.4487C12.0358 27.73 12.4174 27.888 12.8152 27.888H15.0002C15.6295 29.6261 16.673 31.1845 18.0405 32.4283C19.4079 33.672 21.0579 34.5637 22.8476 35.0259C24.6374 35.4882 26.5128 35.5071 28.3115 35.0811C30.1102 34.6551 31.7779 33.7969 33.1702 32.581C33.3187 32.4515 33.4402 32.294 33.5278 32.1175C33.6155 31.941 33.6674 31.7489 33.6808 31.5524C33.6942 31.3558 33.6687 31.1585 33.6058 30.9717C33.5429 30.785 33.4438 30.6125 33.3142 30.464Z" fill="#102A49"></path><path d="M24.0001 48C20.2127 47.9996 16.4792 47.1029 13.1048 45.3831C9.73042 43.6633 6.81092 41.1694 4.58504 38.1051C2.35915 35.0409 0.890056 31.4934 0.297874 27.7526C-0.294308 24.0118 0.00723171 20.184 1.17784 16.582C2.34845 12.9801 4.35489 9.70636 7.03312 7.02845C9.71135 4.35053 12.9853 2.34447 16.5874 1.17429C20.1894 0.00409925 24.0173 -0.296992 27.758 0.295628C31.4988 0.888249 35.0461 2.35775 38.1101 4.584C38.2694 4.69996 38.4043 4.84616 38.5071 5.01425C38.6099 5.18234 38.6785 5.36903 38.7092 5.56366C38.7398 5.75829 38.7318 5.95705 38.6857 6.14859C38.6395 6.34014 38.556 6.52071 38.4401 6.68C38.3241 6.8393 38.1779 6.97419 38.0099 7.07698C37.8418 7.17978 37.6551 7.24846 37.4604 7.2791C37.2658 7.30974 37.067 7.30175 36.8755 7.25558C36.684 7.20941 36.5034 7.12596 36.3441 7.01C32.1712 3.98283 27.0294 2.59894 21.9009 3.12266C16.7723 3.64638 12.0163 6.041 8.54147 9.84914C5.0666 13.6573 3.11634 18.612 3.06319 23.767C3.01005 28.922 4.85774 33.9159 8.25336 37.7949C11.649 41.6738 16.3545 44.166 21.4712 44.7953C26.5879 45.4247 31.7571 44.1471 35.9915 41.2066C40.2259 38.2661 43.2287 33.8688 44.4264 28.8546C45.624 23.8404 44.9326 18.5607 42.4841 14.024C42.3091 13.6753 42.2768 13.2722 42.3941 12.9001C42.5114 12.528 42.7691 12.2163 43.1124 12.031C43.4557 11.8458 43.8577 11.8016 44.2331 11.9078C44.6085 12.014 44.9277 12.2623 45.1231 12.6C47.0945 16.2566 48.0834 20.3621 47.993 24.5152C47.9027 28.6684 46.7362 32.727 44.6075 36.2944C42.4789 39.8617 39.4611 42.8157 35.849 44.8674C32.2369 46.9192 28.1542 47.9986 24.0001 48Z" fill="#102A49"></path><path d="M41.1211 10.9C40.9037 10.9002 40.689 10.8532 40.4916 10.7622C40.2943 10.6712 40.119 10.5384 39.9781 10.373L39.7081 10.062C39.5735 9.9151 39.4695 9.74289 39.4022 9.55538C39.3349 9.36788 39.3056 9.16885 39.316 8.96991C39.3265 8.77096 39.3765 8.57609 39.463 8.39667C39.5496 8.21725 39.6711 8.05688 39.8203 7.92491C39.9695 7.79294 40.1436 7.69202 40.3322 7.62804C40.5209 7.56406 40.7204 7.53831 40.9192 7.55228C41.1179 7.56625 41.3118 7.61966 41.4897 7.70941C41.6676 7.79916 41.8258 7.92343 41.9551 8.07498L42.2621 8.42798C42.4476 8.64602 42.5668 8.9126 42.6057 9.19622C42.6446 9.47985 42.6015 9.76868 42.4815 10.0286C42.3615 10.2885 42.1697 10.5087 41.9286 10.6631C41.6876 10.8175 41.4073 10.8997 41.1211 10.9Z" fill="#102A49"></path></g><defs><clipPath id="clip0_524_1927"><rect width="48" height="48" fill="white"></rect></clipPath></defs></svg>