<svg xmlns="http://www.w3.org/2000/svg" xmlns:xlink="http://www.w3.org/1999/xlink" id="Layer_1" x="0px" y="0px" width="100%" viewBox="0 0 512 512" xml:space="preserve"><path fill="#010100" opacity="1.000000" stroke="none" d=" M288.000000,513.000000   C192.023300,513.000000 96.546600,513.000000 1.034948,513.000000   C1.034948,342.398285 1.034948,171.796539 1.034948,1.097402   C171.560043,1.097402 342.120178,1.097402 512.840149,1.097402   C512.840149,171.666550 512.840149,342.333252 512.840149,513.000000   C438.129852,513.000000 363.314911,513.000000 288.000000,513.000000  M239.870575,455.152618   C245.692276,455.159729 251.513992,455.172516 257.335693,455.172302   C262.965607,455.172119 266.822876,452.277069 269.041901,447.370972   C271.059784,442.909546 270.422363,438.620758 266.720306,434.312836   C259.616852,428.662811 253.679321,428.430573 246.482269,433.519043   C239.433884,438.502502 232.381592,443.480438 225.336945,448.469177   C222.606049,450.403107 219.891418,452.360077 216.234909,454.974823   C224.728928,454.974823 231.831207,454.974823 239.870575,455.152618  M19.477961,434.308838   C16.097353,438.511139 14.746320,443.059143 17.458118,448.102448   C20.254530,453.303070 24.702560,455.463104 30.595106,455.229340   C37.048466,454.973358 43.514717,455.042297 50.900085,455.154816   C57.457996,455.154816 64.015907,455.154816 71.887650,455.154816   C69.698006,453.467499 68.613152,452.571167 67.468559,451.759064   C58.662281,445.511017 49.849052,439.272766 41.028694,433.044617   C34.529903,428.455780 26.371717,428.833679 19.477961,434.308838  M121.002419,458.072968   C124.180458,455.815460 127.358498,453.557953 130.993256,450.976044   C121.103439,443.999847 111.887283,437.473267 102.625092,431.012695   C101.864357,430.482086 100.791786,430.152191 99.862068,430.147675   C88.123657,430.090363 76.384872,430.109985 64.646179,430.109985   C64.521431,430.455200 64.396683,430.800415 64.271935,431.145599   C70.099945,435.118134 75.927956,439.090637 82.119331,443.650757   C89.421814,448.811584 96.725433,453.970795 104.026497,459.133636   C112.392822,465.049744 112.391838,465.051147 121.002419,458.072968  M321.919922,282.906158   C321.919922,286.660339 321.919922,290.414520 321.919922,293.919891   C326.854340,296.620148 333.907715,291.002777 336.782104,299.436096   C336.782104,293.137939 336.782104,287.558167 336.932465,281.054718   C336.932465,262.183868 336.932465,243.313004 336.932465,224.479401   C331.549652,224.479401 326.954041,224.479401 322.087677,224.479401   C322.087677,243.821106 322.087677,262.904877 321.919922,282.906158  M441.915802,326.942993   C441.915802,336.201477 441.915802,345.459930 441.915802,354.718414   C442.411896,354.983612 442.908020,355.248840 443.404114,355.514038   C444.554443,354.180176 446.178558,353.028625 446.774048,351.481262   C449.510864,344.369690 452.008972,337.164307 454.488495,329.956757   C455.451050,327.158752 456.784363,324.278442 456.838440,321.414673   C457.054718,309.962158 456.834717,298.501434 456.923523,286.111328   C456.923523,273.026245 456.923523,259.941162 456.923523,246.602570   C451.769562,246.602570 447.045227,246.602570 442.087311,246.602570   C442.087311,273.259186 442.087311,299.642914 441.915802,326.942993  M471.997894,282.903442   C471.997894,286.661133 471.997894,290.418823 471.997894,294.432068   C477.127228,294.432068 481.824646,294.432068 486.852692,294.432068   C486.852692,290.133789 486.852692,286.058624 486.993500,281.057678   C486.993500,258.505127 486.993500,235.952560 486.993500,213.444733   C481.628662,213.444733 477.030304,213.444733 472.147339,213.444733   C472.147339,236.457275 472.147339,259.220428 471.997894,282.903442  M207.041306,442.958344   C212.715057,438.925720 218.388794,434.893097 224.761154,430.363953   C192.057312,430.363953 160.560715,430.363953 127.625595,430.363953   C136.059967,436.124512 143.400192,441.137787 151.084641,446.736511   C159.462723,452.660736 167.840820,458.584930 176.485794,464.697845   C186.564957,457.413574 196.479111,450.248535 207.041306,442.958344  M351.961182,307.905396   C351.955261,318.542480 351.568787,329.199341 352.119080,339.807556   C352.359985,344.452423 354.446136,349.019623 355.878693,353.563995   C356.080444,354.204010 357.313812,354.862640 358.105988,354.910431   C360.842224,355.075439 363.594604,354.973969 366.302795,354.973969   C366.302795,350.118652 366.302795,346.005157 366.524445,340.996735   C366.524445,309.594788 366.524445,278.192810 366.524445,246.702713   C361.292908,246.702713 356.745972,246.702713 352.124878,246.702713   C352.124878,267.040070 352.124878,287.008423 351.961182,307.905396  M411.796844,342.908264   C411.796844,346.818329 411.796844,350.728394 411.796844,354.622955   C417.158020,354.622955 421.862488,354.622955 426.689362,354.622955   C426.689362,350.165894 426.689362,346.053070 426.835419,341.021301   C426.835419,309.606537 426.835419,278.191772 426.835419,246.717529   C421.513519,246.717529 416.802246,246.717529 411.995667,246.717529   C411.995667,278.728271 411.995667,310.360168 411.796844,342.908264  M381.562225,342.723572   C381.562225,346.659760 381.562225,350.595947 381.562225,354.607300   C386.852478,354.607300 391.685791,354.607300 396.562195,354.607300   C396.562195,350.113403 396.562195,346.007904 396.712952,340.989899   C396.712952,302.147064 396.712952,263.304230 396.712952,224.514038   C391.314087,224.514038 386.715057,224.514038 381.671906,224.514038   C381.671906,229.590790 381.664520,234.385422 381.673035,239.180023   C381.733826,273.446045 381.797852,307.712097 381.562225,342.723572  M241.985275,96.098618   C241.985275,79.136124 241.985275,62.173634 241.985275,45.124512   C259.656982,41.009556 276.973907,36.989540 294.283905,32.940006   C300.633057,31.454672 303.256470,27.755157 301.895294,22.337149   C300.736877,17.725977 296.679199,15.875408 290.603973,17.312756   C284.137207,18.842731 277.694092,20.472378 271.240143,22.056572   C256.571381,25.657207 241.902313,29.256666 227.132248,32.881413   C227.132248,54.463478 227.132248,75.747269 226.981689,97.943474   C226.981689,101.834732 226.981689,105.725983 226.981689,109.607445   C232.309723,109.607445 236.996231,109.607445 241.845993,109.607445   C241.845993,105.214394 241.845993,101.122498 241.985275,96.098618  M141.381180,131.473633   C140.144119,135.512650 138.907074,139.551666 137.599182,143.821960   C202.445343,143.821960 266.660675,143.821960 331.567017,143.821960   C329.982971,139.311752 328.520844,135.148605 327.051453,130.180725   C326.509277,128.489090 325.967102,126.797447 325.439972,125.152695   C264.597168,125.152695 204.101273,125.152695 143.388290,125.152695   C142.871857,127.183044 142.389420,129.079742 141.381180,131.473633  M110.781647,482.332397   C106.566513,479.354431 102.233894,476.526581 98.174721,473.349396   C95.121117,470.959259 91.944542,470.108795 88.065994,470.160309   C73.069855,470.359650 58.069492,470.241333 43.070705,470.241333   C40.841839,470.241333 38.612972,470.241333 34.732841,470.241333   C37.927540,475.673828 40.395889,479.871185 43.081802,484.713715   C49.677433,492.424988 57.927177,497.170380 68.165604,497.186157   C118.769791,497.264160 169.375717,497.328583 219.977448,496.936310   C230.067932,496.858093 238.292770,491.602142 244.653473,482.711945   C246.600739,478.801025 248.548019,474.890106 250.861374,470.243927   C231.814972,470.243927 214.049164,470.217651 196.283859,470.301849   C195.074097,470.307587 193.709778,470.916046 192.687180,471.630463   C187.390884,475.330750 182.182358,479.156616 176.451523,482.939667   C176.451523,482.939667 175.960938,482.972900 175.522629,482.481232   C166.021301,475.806732 156.574570,469.051331 146.952423,462.555817   C145.691101,461.704346 142.997208,461.402588 141.870163,462.171051   C132.019409,468.888031 122.374329,475.906586 112.153481,482.813629   C111.811844,482.845764 111.470215,482.877899 110.781647,482.332397  M269.974243,401.200989   C267.994324,393.496552 263.885223,390.025635 256.299164,390.022919   C180.743637,389.995758 105.188110,389.993103 29.632603,390.027740   C21.970514,390.031250 17.569944,394.081787 16.088749,402.715668   C17.369566,411.159607 21.897135,415.053253 30.651733,415.056458   C81.572006,415.075195 132.492294,415.066650 183.412567,415.066711   C207.707870,415.066711 232.003250,415.101898 256.298401,415.044830   C264.679626,415.025146 269.766266,410.000519 269.974243,401.200989  M38.235725,361.304108   C37.319382,365.673431 36.403038,370.042786 35.417717,374.741028   C107.354301,374.741028 178.722656,374.741028 250.820328,374.741028   C249.790665,370.310211 248.826736,366.162231 247.798538,361.276306   C238.067230,330.695801 212.030624,310.638580 179.845627,309.929657   C155.235306,309.387573 130.603088,309.784302 105.981117,309.887024   C102.179726,309.902863 98.297798,310.203461 94.594467,311.016357   C66.711525,317.136627 47.786316,333.416565 38.235725,361.304108  M299.938385,505.986328   C303.866272,505.986328 307.794159,505.986328 311.856659,505.986328   C304.163361,435.258148 296.541901,365.190430 288.847198,294.449158   C295.231781,294.449158 300.955750,294.449158 307.042908,294.449158   C307.042908,265.758850 307.042908,237.675812 307.042908,209.109985   C321.177277,209.109985 334.913300,209.109985 348.673431,209.109985   C349.190002,203.964584 349.657104,199.311722 350.153168,194.370285   C275.526093,194.370285 201.498459,194.370285 126.964394,194.370285   C127.376129,198.765060 127.759995,202.862427 128.027847,207.851608   C129.772369,232.569962 131.516876,257.288330 133.136810,282.870575   C133.463928,286.660767 133.791031,290.450958 134.155701,294.676392   C147.826141,294.676392 161.283615,294.425995 174.725616,294.773834   C182.330154,294.970612 190.097290,295.331696 197.468124,297.024994   C234.446426,305.520081 260.094666,334.028900 265.210907,371.739624   C265.624237,374.786194 266.706482,376.603058 269.710938,378.002319   C277.349792,381.559998 282.196747,387.698303 284.234802,395.956696   C286.765717,406.212097 283.587646,414.906006 276.726990,422.575500   C277.219513,423.282654 277.558258,423.846252 277.970490,424.349670   C290.502808,439.652802 286.133392,459.318512 268.411804,468.152100   C266.846985,468.932098 265.409729,471.104797 265.001617,472.880707   C262.660309,483.069946 257.852753,491.796936 250.268066,498.945068   C247.818832,501.253326 245.038803,503.210541 241.772766,505.841766   C249.093719,505.841766 255.523819,505.841766 262.893402,505.981659   C274.936768,505.933960 286.980103,505.886292 299.938385,505.986328  M473.939178,320.394501   C468.561646,335.425598 463.082092,350.421570 457.885376,365.514893   C456.729553,368.871765 455.216675,370.077423 451.550232,370.060120   C417.889648,369.901154 384.227692,369.896057 350.567200,370.063354   C346.728180,370.082397 345.128754,368.863525 343.899841,365.298798   C337.992462,348.163025 331.808868,331.121918 325.616516,314.085999   C325.048065,312.522125 323.809448,310.088226 322.736664,310.008240   C317.189362,309.594757 311.594727,309.816132 305.630585,309.816132   C312.500183,372.829041 319.278839,435.007568 326.049286,497.110931   C376.233582,497.110931 425.942932,497.110931 475.800262,497.110931   C482.615570,434.557220 489.385468,372.420349 496.212189,309.761841   C493.200836,309.761841 490.905792,309.761932 488.610779,309.761810   C477.835968,309.761292 477.835968,309.761261 473.939178,320.394501  M338.499878,179.069138   C345.388733,179.069138 352.277618,179.069138 359.731018,179.069138   C357.480408,171.907974 355.464600,165.493988 353.515717,159.292877   C273.781738,159.292877 194.554672,159.292877 115.333908,159.292877   C113.308731,165.927948 111.362175,172.305420 109.297737,179.069138   C185.935730,179.069138 261.717834,179.069138 338.499878,179.069138  z"></path><path fill="#01E5FF" opacity="1.000000" stroke="none" d=" M133.261383,282.006683   C131.516876,257.288330 129.772369,232.569962 128.545197,207.409546   C182.219467,206.967911 235.376572,207.021027 288.533081,206.871521   C292.916107,206.859192 294.182251,207.973083 294.133057,212.426178   C293.897461,233.753006 294.034424,255.083862 294.014282,276.413300   C294.012604,278.165924 293.825989,279.918365 293.694000,282.216125   C287.209442,282.216125 281.293060,282.216125 274.909332,282.216125   C278.172577,312.388336 281.367981,341.932831 284.640656,372.192108   C280.795197,369.753937 277.689697,368.337738 276.759155,363.491272   C267.697327,316.294891 226.262482,282.164703 178.253067,282.013092   C163.255981,281.965698 148.258621,282.006348 133.261383,282.006683  M190.500000,209.138489   C177.555481,209.138489 164.610947,209.138489 151.537109,209.138489   C151.537109,214.464890 151.537109,219.180756 151.537109,223.915985   C178.007019,223.915985 204.101639,223.915985 230.333984,223.915985   C230.333984,218.885956 230.333984,214.169083 230.333984,209.138565   C217.133011,209.138565 204.316513,209.138565 190.500000,209.138489  M257.440308,209.131897   C253.669876,209.131897 249.899460,209.131897 246.161240,209.131897   C246.161240,214.537186 246.161240,219.252472 246.161240,223.864273   C252.819946,223.864273 259.055847,223.864273 265.296967,223.864273   C265.296967,218.788467 265.296967,214.082733 265.296967,209.131989   C262.710999,209.131989 260.556366,209.131989 257.440308,209.131897  z"></path><path fill="#F1501E" opacity="1.000000" stroke="none" d=" M474.046692,320.016907   C477.835968,309.761261 477.835968,309.761292 488.610779,309.761810   C490.905792,309.761932 493.200836,309.761841 496.212189,309.761841   C489.385468,372.420349 482.615570,434.557220 475.800262,497.110931   C425.942932,497.110931 376.233582,497.110931 326.049286,497.110931   C319.278839,435.007568 312.500183,372.829041 305.630585,309.816132   C311.594727,309.816132 317.189362,309.594757 322.736664,310.008240   C323.809448,310.088226 325.048065,312.522125 325.616516,314.085999   C331.808868,331.121918 337.992462,348.163025 343.899841,365.298798   C345.128754,368.863525 346.728180,370.082397 350.567200,370.063354   C384.227692,369.896057 417.889648,369.901154 451.550232,370.060120   C455.216675,370.077423 456.729553,368.871765 457.885376,365.514893   C463.082092,350.421570 468.561646,335.425598 474.046692,320.016907  M421.500000,385.000000   C390.744934,385.000000 359.989868,385.000000 329.097626,385.000000   C329.207764,386.615448 329.240265,387.609741 329.347900,388.595886   C332.561066,418.037018 335.890656,447.466248 338.880707,476.929993   C339.317169,481.230743 340.563690,482.421051 344.860596,482.401245   C382.169952,482.229034 419.480408,482.301910 456.790558,482.301910   C458.424652,482.301910 460.058777,482.301910 462.246063,482.301910   C465.788147,449.753479 469.286072,417.610687 472.834930,385.000000   C455.756134,385.000000 439.128052,385.000000 421.500000,385.000000  z"></path><path fill="#3EC2FB" opacity="1.000000" stroke="none" d=" M133.199097,282.438629   C148.258621,282.006348 163.255981,281.965698 178.253067,282.013092   C226.262482,282.164703 267.697327,316.294891 276.759155,363.491272   C277.689697,368.337738 280.795197,369.753937 284.640656,372.192108   C281.367981,341.932831 278.172577,312.388336 274.909332,282.216125   C281.293060,282.216125 287.209442,282.216125 293.694000,282.216125   C293.825989,279.918365 294.012604,278.165924 294.014282,276.413300   C294.034424,255.083862 293.897461,233.753006 294.133057,212.426178   C294.182251,207.973083 292.916107,206.859192 288.533081,206.871521   C235.376572,207.021027 182.219467,206.967911 128.603195,206.963638   C127.759995,202.862427 127.376129,198.765060 126.964394,194.370285   C201.498459,194.370285 275.526093,194.370285 350.153168,194.370285   C349.657104,199.311722 349.190002,203.964584 348.673431,209.109985   C334.913300,209.109985 321.177277,209.109985 307.042908,209.109985   C307.042908,237.675812 307.042908,265.758850 307.042908,294.449158   C300.955750,294.449158 295.231781,294.449158 288.847198,294.449158   C296.541901,365.190430 304.163361,435.258148 311.856659,505.986328   C307.794159,505.986328 303.866272,505.986328 299.474609,505.478790   C297.483032,490.485260 295.955200,475.999237 294.459778,461.820282   C288.706726,467.287598 283.345306,472.359619 278.021027,477.470306   C277.314178,478.148743 276.471954,478.938538 276.240051,479.820709   C273.643738,489.696320 267.945343,497.845062 261.953918,505.841766   C255.523819,505.841766 249.093719,505.841766 241.772766,505.841766   C245.038803,503.210541 247.818832,501.253326 250.268066,498.945068   C257.852753,491.796936 262.660309,483.069946 265.001617,472.880707   C265.409729,471.104797 266.846985,468.932098 268.411804,468.152100   C286.133392,459.318512 290.502808,439.652802 277.970490,424.349670   C277.558258,423.846252 277.219513,423.282654 276.726990,422.575500   C283.587646,414.906006 286.765717,406.212097 284.234802,395.956696   C282.196747,387.698303 277.349792,381.559998 269.710938,378.002319   C266.706482,376.603058 265.624237,374.786194 265.210907,371.739624   C260.094666,334.028900 234.446426,305.520081 197.468124,297.024994   C190.097290,295.331696 182.330154,294.970612 174.725616,294.773834   C161.283615,294.425995 147.826141,294.676392 134.155701,294.676392   C133.791031,290.450958 133.463928,286.660767 133.199097,282.438629  z"></path><path fill="#FCD8A8" opacity="1.000000" stroke="none" d=" M38.769058,360.761414   C47.786316,333.416565 66.711525,317.136627 94.594467,311.016357   C98.297798,310.203461 102.179726,309.902863 105.981117,309.887024   C130.603088,309.784302 155.235306,309.387573 179.845627,309.929657   C212.030624,310.638580 238.067230,330.695801 247.370758,361.646912   C179.407990,362.020813 111.872978,362.034180 44.338020,361.974335   C42.481346,361.972687 40.625362,361.183411 38.769058,360.761414  M184.730209,340.968811   C188.332336,340.968811 191.934464,340.968811 195.741364,340.968811   C195.741364,335.690948 195.741364,331.131775 195.741364,326.413025   C190.734451,326.413025 186.059998,326.413025 181.048096,326.413025   C181.048096,330.522705 180.834488,334.187012 181.174515,337.799194   C181.280472,338.924713 182.883881,339.909241 184.730209,340.968811  M102.216415,340.955780   C103.138000,340.082886 104.783463,339.265259 104.855042,338.327454   C105.154320,334.406799 104.981186,330.450104 104.981186,326.423981   C99.637535,326.423981 94.954361,326.423981 90.413612,326.423981   C90.413612,331.475037 90.413612,336.037323 90.413612,340.965820   C94.326538,340.965820 97.802902,340.965820 102.216415,340.955780  M150.964066,337.755798   C150.964066,341.678253 150.964066,345.600708 150.964066,349.975800   C154.046509,349.975800 156.345352,349.975800 158.644180,349.975800   C160.911697,349.975800 163.179214,349.975800 165.975784,349.975800   C165.975784,346.978455 165.975784,344.688599 165.975784,342.398712   C165.975784,340.120636 165.975784,337.842560 165.975784,334.952789   C162.232651,334.952789 159.100311,334.743164 156.015549,335.035583   C154.308975,335.197388 152.682083,336.199860 150.964066,337.755798  M126.551392,334.950623   C124.409256,335.597504 120.582344,335.961670 120.418091,336.940460   C119.725449,341.067902 120.124969,345.378632 120.124969,349.978455   C123.242142,349.978455 125.550835,349.978455 127.859528,349.978455   C130.115723,349.978455 132.371918,349.978455 134.497192,349.978455   C136.621292,335.901154 136.148849,334.955536 126.551392,334.950623  z"></path><path fill="#FEFEFE" opacity="1.000000" stroke="none" d=" M337.999878,179.069138   C261.717834,179.069138 185.935730,179.069138 109.297737,179.069138   C111.362175,172.305420 113.308731,165.927948 115.333908,159.292877   C194.554672,159.292877 273.781738,159.292877 353.515717,159.292877   C355.464600,165.493988 357.480408,171.907974 359.731018,179.069138   C352.277618,179.069138 345.388733,179.069138 337.999878,179.069138  z"></path><path fill="#66DD19" opacity="1.000000" stroke="none" d=" M16.229576,401.934448   C17.569944,394.081787 21.970514,390.031250 29.632603,390.027740   C105.188110,389.993103 180.743637,389.995758 256.299164,390.022919   C263.885223,390.025635 267.994324,393.496552 269.510040,401.596985   C266.255188,402.295288 263.464661,402.859894 260.673828,402.861694   C185.313232,402.909637 109.952591,402.922272 34.592014,402.858154   C28.470943,402.852966 22.350378,402.256287 16.229576,401.934448  z"></path><path fill="#B0EF60" opacity="1.000000" stroke="none" d=" M16.159163,402.325073   C22.350378,402.256287 28.470943,402.852966 34.592014,402.858154   C109.952591,402.922272 185.313232,402.909637 260.673828,402.861694   C263.464661,402.859894 266.255188,402.295288 269.458801,401.966095   C269.766266,410.000519 264.679626,415.025146 256.298401,415.044830   C232.003250,415.101898 207.707870,415.066711 183.412567,415.066711   C132.492294,415.066650 81.572006,415.075195 30.651733,415.056458   C21.897135,415.053253 17.369566,411.159607 16.159163,402.325073  z"></path><path fill="#FDC378" opacity="1.000000" stroke="none" d=" M38.502392,361.032776   C40.625362,361.183411 42.481346,361.972687 44.338020,361.974335   C111.872978,362.034180 179.407990,362.020813 247.402893,362.015900   C248.826736,366.162231 249.790665,370.310211 250.820328,374.741028   C178.722656,374.741028 107.354301,374.741028 35.417717,374.741028   C36.403038,370.042786 37.319382,365.673431 38.502392,361.032776  z"></path><path fill="#FCD8A8" opacity="1.000000" stroke="none" d=" M244.041763,483.026642   C238.292770,491.602142 230.067932,496.858093 219.977448,496.936310   C169.375717,497.328583 118.769791,497.264160 68.165604,497.186157   C57.927177,497.170380 49.677433,492.424988 43.273270,484.084595   C45.264606,483.300140 47.064114,483.014313 48.864399,483.009308   C69.619057,482.951599 90.373833,482.936493 111.128578,482.910004   C111.470215,482.877899 111.811844,482.845764 112.899055,482.873047   C134.416733,482.945923 155.188828,482.959412 175.960938,482.972900   C175.960938,482.972900 176.451523,482.939667 177.167160,482.969696   C199.935791,483.008698 221.988770,483.017670 244.041763,483.026642  z"></path><path fill="#D8D7DA" opacity="1.000000" stroke="none" d=" M327.058685,130.985474   C328.520844,135.148605 329.982971,139.311752 331.567017,143.821960   C266.660675,143.821960 202.445343,143.821960 137.599182,143.821960   C138.907074,139.551666 140.144119,135.512650 142.118195,131.249451   C204.256363,131.012009 265.657532,130.998734 327.058685,130.985474  z"></path><path fill="#FBD643" opacity="1.000000" stroke="none" d=" M227.132248,97.031067   C227.132248,75.747269 227.132248,54.463478 227.132248,32.881413   C241.902313,29.256666 256.571381,25.657207 271.240143,22.056572   C277.694092,20.472378 284.137207,18.842731 290.603973,17.312756   C296.679199,15.875408 300.736877,17.725977 301.895294,22.337149   C303.256470,27.755157 300.633057,31.454672 294.283905,32.940006   C276.973907,36.989540 259.656982,41.009556 241.985275,45.124512   C241.985275,62.173634 241.985275,79.136124 241.460236,96.566391   C236.334198,97.033142 231.733231,97.032104 227.132248,97.031067  z"></path><path fill="#FCD744" opacity="1.000000" stroke="none" d=" M381.860840,341.978119   C381.797852,307.712097 381.733826,273.446045 381.673035,239.180023   C381.664520,234.385422 381.671906,229.590790 381.671906,224.514038   C386.715057,224.514038 391.314087,224.514038 396.712952,224.514038   C396.712952,263.304230 396.712952,302.147064 396.201050,341.483429   C391.079742,341.977325 386.470276,341.977722 381.860840,341.978119  z"></path><path fill="#FDD844" opacity="1.000000" stroke="none" d=" M411.995667,341.992004   C411.995667,310.360168 411.995667,278.728271 411.995667,246.717529   C416.802246,246.717529 421.513519,246.717529 426.835419,246.717529   C426.835419,278.191772 426.835419,309.606537 426.316833,341.497986   C421.197388,341.980469 416.596527,341.986237 411.995667,341.992004  z"></path><path fill="#FCD743" opacity="1.000000" stroke="none" d=" M352.124878,306.976776   C352.124878,287.008423 352.124878,267.040070 352.124878,246.702713   C356.745972,246.702713 361.292908,246.702713 366.524445,246.702713   C366.524445,278.192810 366.524445,309.594788 366.097046,341.387573   C364.785828,340.083923 363.713837,338.459808 363.049377,336.683289   C359.353241,326.801544 355.755981,316.882843 352.124878,306.976776  z"></path><path fill="#FFFFFF" opacity="1.000000" stroke="none" d=" M327.055054,130.583099   C265.657532,130.998734 204.256363,131.012009 142.381088,131.000854   C142.389420,129.079742 142.871857,127.183044 143.388290,125.152695   C204.101273,125.152695 264.597168,125.152695 325.439972,125.152695   C325.967102,126.797447 326.509277,128.489090 327.055054,130.583099  z"></path><path fill="#F7A809" opacity="1.000000" stroke="none" d=" M150.740417,446.151062   C143.400192,441.137787 136.059967,436.124512 127.625595,430.363953   C160.560715,430.363953 192.057312,430.363953 224.761154,430.363953   C218.388794,434.893097 212.715057,438.925720 206.221817,442.986053   C190.695541,442.994385 175.984222,442.773163 161.285233,443.102142   C157.749298,443.181305 154.254257,445.085907 150.740417,446.151062  z"></path><path fill="#FCD744" opacity="1.000000" stroke="none" d=" M472.147339,281.983582   C472.147339,259.220428 472.147339,236.457275 472.147339,213.444733   C477.030304,213.444733 481.628662,213.444733 486.993500,213.444733   C486.993500,235.952560 486.993500,258.505127 486.467316,281.529907   C481.343201,281.995972 476.745270,281.989777 472.147339,281.983582  z"></path><path fill="#FAD543" opacity="1.000000" stroke="none" d=" M442.087280,326.026642   C442.087311,299.642914 442.087311,273.259186 442.087311,246.602570   C447.045227,246.602570 451.769562,246.602570 456.923523,246.602570   C456.923523,259.941162 456.923523,273.026245 456.614929,286.834137   C453.815308,294.733337 451.422028,301.945618 448.802368,309.074768   C446.706726,314.777802 444.335938,320.379791 442.087280,326.026642  z"></path><path fill="#01E5FF" opacity="1.000000" stroke="none" d=" M262.423645,505.911713   C267.945343,497.845062 273.643738,489.696320 276.240051,479.820709   C276.471954,478.938538 277.314178,478.148743 278.021027,477.470306   C283.345306,472.359619 288.706726,467.287598 294.459778,461.820282   C295.955200,475.999237 297.483032,490.485260 299.017151,505.404938   C286.980103,505.886292 274.936768,505.933960 262.423645,505.911713  z"></path><path fill="#FAD643" opacity="1.000000" stroke="none" d=" M322.087677,281.988617   C322.087677,262.904877 322.087677,243.821106 322.087677,224.479401   C326.954041,224.479401 331.549652,224.479401 336.932465,224.479401   C336.932465,243.313004 336.932465,262.183868 336.405823,281.522522   C331.281982,281.989746 326.684845,281.989166 322.087677,281.988617  z"></path><path fill="#F8BF74" opacity="1.000000" stroke="none" d=" M110.955109,482.621216   C90.373833,482.936493 69.619057,482.951599 48.864399,483.009308   C47.064114,483.014313 45.264606,483.300140 43.164490,483.762024   C40.395889,479.871185 37.927540,475.673828 34.732841,470.241333   C38.612972,470.241333 40.841839,470.241333 43.070705,470.241333   C58.069492,470.241333 73.069855,470.359650 88.065994,470.160309   C91.944542,470.108795 95.121117,470.959259 98.174721,473.349396   C102.233894,476.526581 106.566513,479.354431 110.955109,482.621216  z"></path><path fill="#F7BE74" opacity="1.000000" stroke="none" d=" M244.347626,482.869293   C221.988770,483.017670 199.935791,483.008698 177.413025,482.969238   C182.182358,479.156616 187.390884,475.330750 192.687180,471.630463   C193.709778,470.916046 195.074097,470.307587 196.283859,470.301849   C214.049164,470.217651 231.814972,470.243927 250.861374,470.243927   C248.548019,474.890106 246.600739,478.801025 244.347626,482.869293  z"></path><path fill="#F8A808" opacity="1.000000" stroke="none" d=" M81.755966,443.063171   C75.927956,439.090637 70.099945,435.118134 64.271935,431.145599   C64.396683,430.800415 64.521431,430.455200 64.646179,430.109985   C76.384872,430.109985 88.123657,430.090363 99.862068,430.147675   C100.791786,430.152191 101.864357,430.482086 102.625092,431.012695   C111.887283,437.473267 121.103439,443.999847 130.993256,450.976044   C127.358498,453.557953 124.180458,455.815460 120.312302,458.066406   C116.617508,456.050964 113.266624,454.409607 110.672112,451.965363   C102.424828,444.195740 92.848801,441.307465 81.755966,443.063171  z"></path><path fill="#FCC175" opacity="1.000000" stroke="none" d=" M175.741791,482.727051   C155.188828,482.959412 134.416733,482.945923 113.156418,482.884033   C122.374329,475.906586 132.019409,468.888031 141.870163,462.171051   C142.997208,461.402588 145.691101,461.704346 146.952423,462.555817   C156.574570,469.051331 166.021301,475.806732 175.741791,482.727051  z"></path><path fill="#FAD643" opacity="1.000000" stroke="none" d=" M150.912537,446.443787   C154.254257,445.085907 157.749298,443.181305 161.285233,443.102142   C175.984222,442.773163 190.695541,442.994385 205.897797,443.048615   C196.479111,450.248535 186.564957,457.413574 176.485794,464.697845   C167.840820,458.584930 159.462723,452.660736 150.912537,446.443787  z"></path><path fill="#F9A908" opacity="1.000000" stroke="none" d=" M442.001526,326.484802   C444.335938,320.379791 446.706726,314.777802 448.802368,309.074768   C451.422028,301.945618 453.815308,294.733337 456.541199,287.300354   C456.834717,298.501434 457.054718,309.962158 456.838440,321.414673   C456.784363,324.278442 455.451050,327.158752 454.488495,329.956757   C452.008972,337.164307 449.510864,344.369690 446.774048,351.481262   C446.178558,353.028625 444.554443,354.180176 443.404114,355.514038   C442.908020,355.248840 442.411896,354.983612 441.915802,354.718414   C441.915802,345.459930 441.915802,336.201477 442.001526,326.484802  z"></path><path fill="#FB6F42" opacity="1.000000" stroke="none" d=" M20.118465,433.989197   C26.371717,428.833679 34.529903,428.455780 41.028694,433.044617   C49.849052,439.272766 58.662281,445.511017 67.468559,451.759064   C68.613152,452.571167 69.698006,453.467499 71.887650,455.154816   C64.015907,455.154816 57.457996,455.154816 50.243240,454.795258   C39.763752,447.620209 29.941109,440.804718 20.118465,433.989197  z"></path><path fill="#FB6F42" opacity="1.000000" stroke="none" d=" M238.933472,454.974823   C231.831207,454.974823 224.728928,454.974823 216.234909,454.974823   C219.891418,452.360077 222.606049,450.403107 225.336945,448.469177   C232.381592,443.480438 239.433884,438.502502 246.482269,433.519043   C253.679321,428.430573 259.616852,428.662811 266.470825,434.695190   C263.792999,436.730743 261.309662,438.309296 258.946930,440.051483   C252.249390,444.990143 245.601135,449.995636 238.933472,454.974823  z"></path><path fill="#E29E0E" opacity="1.000000" stroke="none" d=" M352.043030,307.441101   C355.755981,316.882843 359.353241,326.801544 363.049377,336.683289   C363.713837,338.459808 364.785828,340.083923 365.986206,341.835022   C366.302795,346.005157 366.302795,350.118652 366.302795,354.973969   C363.594604,354.973969 360.842224,355.075439 358.105988,354.910431   C357.313812,354.862640 356.080444,354.204010 355.878693,353.563995   C354.446136,349.019623 352.359985,344.452423 352.119080,339.807556   C351.568787,329.199341 351.955261,318.542480 352.043030,307.441101  z"></path><path fill="#FD8E17" opacity="1.000000" stroke="none" d=" M19.798212,434.149017   C29.941109,440.804718 39.763752,447.620209 49.780876,454.702698   C43.514717,455.042297 37.048466,454.973358 30.595106,455.229340   C24.702560,455.463104 20.254530,453.303070 17.458118,448.102448   C14.746320,443.059143 16.097353,438.511139 19.798212,434.149017  z"></path><path fill="#FD8E17" opacity="1.000000" stroke="none" d=" M239.402023,455.063721   C245.601135,449.995636 252.249390,444.990143 258.946930,440.051483   C261.309662,438.309296 263.792999,436.730743 266.560730,435.025391   C270.422363,438.620758 271.059784,442.909546 269.041901,447.370972   C266.822876,452.277069 262.965607,455.172119 257.335693,455.172302   C251.513992,455.172516 245.692276,455.159729 239.402023,455.063721  z"></path><path fill="#F9D442" opacity="1.000000" stroke="none" d=" M81.937645,443.356964   C92.848801,441.307465 102.424828,444.195740 110.672112,451.965363   C113.266624,454.409607 116.617508,456.050964 119.984245,458.150513   C112.391838,465.051147 112.392822,465.049744 104.026497,459.133636   C96.725433,453.970795 89.421814,448.811584 81.937645,443.356964  z"></path><path fill="#D79D17" opacity="1.000000" stroke="none" d=" M381.711548,342.350830   C386.470276,341.977722 391.079742,341.977325 396.125671,341.939667   C396.562195,346.007904 396.562195,350.113403 396.562195,354.607300   C391.685791,354.607300 386.852478,354.607300 381.562225,354.607300   C381.562225,350.595947 381.562225,346.659760 381.711548,342.350830  z"></path><path fill="#F4A508" opacity="1.000000" stroke="none" d=" M322.003784,282.447388   C326.684845,281.989166 331.281982,281.989746 336.330627,281.984344   C336.782104,287.558167 336.782104,293.137939 336.782104,299.436096   C333.907715,291.002777 326.854340,296.620148 321.919922,293.919891   C321.919922,290.414520 321.919922,286.660339 322.003784,282.447388  z"></path><path fill="#FAAA09" opacity="1.000000" stroke="none" d=" M227.056976,97.487274   C231.733231,97.032104 236.334198,97.033142 241.390594,97.032387   C241.845993,101.122498 241.845993,105.214394 241.845993,109.607445   C236.996231,109.607445 232.309723,109.607445 226.981689,109.607445   C226.981689,105.725983 226.981689,101.834732 227.056976,97.487274  z"></path><path fill="#F5A608" opacity="1.000000" stroke="none" d=" M472.072632,282.443512   C476.745270,281.989777 481.343201,281.995972 486.396912,281.992798   C486.852692,286.058624 486.852692,290.133789 486.852692,294.432068   C481.824646,294.432068 477.127228,294.432068 471.997894,294.432068   C471.997894,290.418823 471.997894,286.661133 472.072632,282.443512  z"></path><path fill="#E2A618" opacity="1.000000" stroke="none" d=" M411.896240,342.450134   C416.596527,341.986237 421.197388,341.980469 426.243805,341.957458   C426.689362,346.053070 426.689362,350.165894 426.689362,354.622955   C421.862488,354.622955 417.158020,354.622955 411.796844,354.622955   C411.796844,350.728394 411.796844,346.818329 411.896240,342.450134  z"></path><path fill="#F9FEFF" opacity="1.000000" stroke="none" d=" M191.000000,209.138519   C204.316513,209.138565 217.133011,209.138565 230.333984,209.138565   C230.333984,214.169083 230.333984,218.885956 230.333984,223.915985   C204.101639,223.915985 178.007019,223.915985 151.537109,223.915985   C151.537109,219.180756 151.537109,214.464890 151.537109,209.138489   C164.610947,209.138489 177.555481,209.138489 191.000000,209.138519  z"></path><path fill="#F6FEFF" opacity="1.000000" stroke="none" d=" M257.921021,209.131943   C260.556366,209.131989 262.710999,209.131989 265.296967,209.131989   C265.296967,214.082733 265.296967,218.788467 265.296967,223.864273   C259.055847,223.864273 252.819946,223.864273 246.161240,223.864273   C246.161240,219.252472 246.161240,214.537186 246.161240,209.131897   C249.899460,209.131897 253.669876,209.131897 257.921021,209.131943  z"></path><path fill="#020202" opacity="1.000000" stroke="none" d=" M422.000000,385.000000   C439.128052,385.000000 455.756134,385.000000 472.834930,385.000000   C469.286072,417.610687 465.788147,449.753479 462.246063,482.301910   C460.058777,482.301910 458.424652,482.301910 456.790558,482.301910   C419.480408,482.301910 382.169952,482.229034 344.860596,482.401245   C340.563690,482.421051 339.317169,481.230743 338.880707,476.929993   C335.890656,447.466248 332.561066,418.037018 329.347900,388.595886   C329.240265,387.609741 329.207764,386.615448 329.097626,385.000000   C359.989868,385.000000 390.744934,385.000000 422.000000,385.000000  M401.500000,400.037140   C383.056671,400.037140 364.613342,400.037140 345.781158,400.037140   C348.254211,422.699799 350.665924,444.800110 353.075745,466.883270   C385.213257,466.883270 416.913086,466.883270 448.761108,466.883270   C451.200226,444.488892 453.601868,422.438538 456.041748,400.037140   C437.765533,400.037140 420.132782,400.037140 401.500000,400.037140  z"></path><path fill="#FFFEFD" opacity="1.000000" stroke="none" d=" M184.265991,340.963562   C182.883881,339.909241 181.280472,338.924713 181.174515,337.799194   C180.834488,334.187012 181.048096,330.522705 181.048096,326.413025   C186.059998,326.413025 190.734451,326.413025 195.741364,326.413025   C195.741364,331.131775 195.741364,335.690948 195.741364,340.968811   C191.934464,340.968811 188.332336,340.968811 184.265991,340.963562  z"></path><path fill="#FFFEFE" opacity="1.000000" stroke="none" d=" M101.747841,340.960815   C97.802902,340.965820 94.326538,340.965820 90.413612,340.965820   C90.413612,336.037323 90.413612,331.475037 90.413612,326.423981   C94.954361,326.423981 99.637535,326.423981 104.981186,326.423981   C104.981186,330.450104 105.154320,334.406799 104.855042,338.327454   C104.783463,339.265259 103.138000,340.082886 101.747841,340.960815  z"></path><path fill="#FFFEFD" opacity="1.000000" stroke="none" d=" M150.991669,337.289581   C152.682083,336.199860 154.308975,335.197388 156.015549,335.035583   C159.100311,334.743164 162.232651,334.952789 165.975784,334.952789   C165.975784,337.842560 165.975784,340.120636 165.975784,342.398712   C165.975784,344.688599 165.975784,346.978455 165.975784,349.975800   C163.179214,349.975800 160.911697,349.975800 158.644180,349.975800   C156.345352,349.975800 154.046509,349.975800 150.964066,349.975800   C150.964066,345.600708 150.964066,341.678253 150.991669,337.289581  z"></path><path fill="#FFFEFC" opacity="1.000000" stroke="none" d=" M127.029625,334.950562   C136.148849,334.955536 136.621292,335.901154 134.497192,349.978455   C132.371918,349.978455 130.115723,349.978455 127.859528,349.978455   C125.550835,349.978455 123.242142,349.978455 120.124969,349.978455   C120.124969,345.378632 119.725449,341.067902 120.418091,336.940460   C120.582344,335.961670 124.409256,335.597504 127.029625,334.950562  z"></path><path fill="#B0BDC4" opacity="1.000000" stroke="none" d=" M402.000000,400.037140   C420.132782,400.037140 437.765533,400.037140 456.041748,400.037140   C453.601868,422.438538 451.200226,444.488892 448.761108,466.883270   C416.913086,466.883270 385.213257,466.883270 353.075745,466.883270   C350.665924,444.800110 348.254211,422.699799 345.781158,400.037140   C364.613342,400.037140 383.056671,400.037140 402.000000,400.037140  M369.584259,441.067627   C372.506592,441.067627 375.428925,441.067627 378.556946,441.067627   C378.556946,435.776123 378.556946,431.115906 378.556946,426.351501   C373.608154,426.351501 369.064758,426.351501 364.224396,426.351501   C364.224396,431.207306 364.224396,435.748932 364.224396,440.700836   C365.783417,440.830566 367.207520,440.949066 369.584259,441.067627  M408.730591,440.110504   C408.730591,435.559723 408.730591,431.008911 408.730591,426.345886   C403.667664,426.345886 399.119019,426.345886 394.378845,426.345886   C394.378845,431.326874 394.378845,435.993927 394.378845,440.775055   C399.214996,440.775055 403.648010,440.775055 408.730591,440.110504  M430.524475,441.065125   C432.913788,441.065125 435.303101,441.065125 437.654297,441.065125   C437.654297,435.616516 437.654297,431.072510 437.654297,426.486755   C432.948090,426.486755 428.615570,426.486755 424.362366,426.486755   C424.362366,431.492401 424.362366,436.041229 424.362366,441.065247   C426.335876,441.065247 427.956970,441.065247 430.524475,441.065125  z"></path><path fill="#FDFEFE" opacity="1.000000" stroke="none" d=" M369.107971,441.067596   C367.207520,440.949066 365.783417,440.830566 364.224396,440.700836   C364.224396,435.748932 364.224396,431.207306 364.224396,426.351501   C369.064758,426.351501 373.608154,426.351501 378.556946,426.351501   C378.556946,431.115906 378.556946,435.776123 378.556946,441.067627   C375.428925,441.067627 372.506592,441.067627 369.107971,441.067596  z"></path><path fill="#FEFEFE" opacity="1.000000" stroke="none" d=" M408.405823,440.442780   C403.648010,440.775055 399.214996,440.775055 394.378845,440.775055   C394.378845,435.993927 394.378845,431.326874 394.378845,426.345886   C399.119019,426.345886 403.667664,426.345886 408.730591,426.345886   C408.730591,431.008911 408.730591,435.559723 408.405823,440.442780  z"></path><path fill="#FEFEFE" opacity="1.000000" stroke="none" d=" M430.051270,441.065186   C427.956970,441.065247 426.335876,441.065247 424.362366,441.065247   C424.362366,436.041229 424.362366,431.492401 424.362366,426.486755   C428.615570,426.486755 432.948090,426.486755 437.654297,426.486755   C437.654297,431.072510 437.654297,435.616516 437.654297,441.065125   C435.303101,441.065125 432.913788,441.065125 430.051270,441.065186  z"></path></svg>