<svg xmlns="http://www.w3.org/2000/svg" width="48" height="48" viewBox="0 0 48 48" fill="none"><g clip-path="url(#clip0_741_473)"><path d="M30.0991 44.3509V2.13508C30.0991 1.36333 29.4735 0.737549 28.7015 0.737549H5.87605C5.10411 0.737549 4.47852 1.36333 4.47852 2.13508V44.3509H30.0991Z" fill="#FF8C01"></path><path d="M8.22627 0.737549H5.87605C5.10411 0.737549 4.47852 1.36333 4.47852 2.13508V44.3509H6.82883V2.13508C6.82883 1.36333 7.45433 0.737549 8.22627 0.737549Z" fill="#E8650C"></path><path d="M32.4215 47.2625H2.2496C1.44579 47.2625 0.793945 46.6108 0.793945 45.8068C0.793945 45.0028 1.44579 44.351 2.2496 44.351H32.4215C33.2255 44.351 33.8772 45.0028 33.8772 45.8068C33.8772 46.6108 33.2255 47.2625 32.4215 47.2625Z" fill="#61626D"></path><path d="M32.4214 45.8066H2.24942C1.71101 45.8066 1.24189 45.5135 0.990167 45.0789C0.428511 46.0483 1.13098 47.2624 2.24942 47.2624H32.4214C33.5398 47.2624 34.2423 46.0484 33.6806 45.0789C33.4289 45.5135 32.9599 45.8066 32.4214 45.8066Z" fill="#393A47"></path><path d="M24.8003 4.46411H9.77717C9.00542 4.46411 8.37964 5.08989 8.37964 5.86164V16.6257H26.1978V5.86155C26.1979 5.0897 25.5722 4.46411 24.8003 4.46411Z" fill="#C8E5FC"></path><path d="M24.8002 4.46411H18.0974C16.8367 8.39608 16.5221 12.5725 17.1476 16.6257H26.1978V5.86155C26.1978 5.0897 25.5721 4.46411 24.8002 4.46411Z" fill="#E0F1FC"></path><path d="M18.1818 24.5691C18.1818 25.3409 17.556 25.9667 16.7842 25.9667H9.77717C9.00542 25.9667 8.37964 25.3409 8.37964 24.5691V23.1329C8.37964 22.3611 9.00542 21.7354 9.77717 21.7354H16.7842C17.556 21.7354 18.1818 22.3611 18.1818 23.1329V24.5691Z" fill="#FFDAA4"></path><path d="M16.7842 23.8511H9.77712C9.12275 23.8511 8.57487 23.4007 8.423 22.7932C8.36684 23.0181 8.37968 22.9886 8.37968 24.5692C8.37968 25.341 9.00546 25.9667 9.77721 25.9667H16.7843C17.556 25.9667 18.1818 25.341 18.1818 24.5692V23.133C18.1818 23.0156 18.1657 22.9022 18.1385 22.7932C17.9864 23.4006 17.4386 23.8511 16.7842 23.8511Z" fill="#FFC35A"></path><path d="M12.1174 4.46411H9.77693C9.00518 4.46411 8.37939 5.08989 8.37939 5.86164V16.6257H10.7199V5.86155C10.7201 5.0897 11.3456 4.46411 12.1174 4.46411Z" fill="#8FC8F2"></path><path d="M31.4187 22.4376H30.0989V26.6688H31.4187C32.1904 26.6688 32.8162 26.0432 32.8162 25.2713V23.8351C32.8162 23.0633 32.1905 22.4376 31.4187 22.4376Z" fill="#A4A5A4"></path><path d="M47.2961 13.9944C47.2961 14.7662 46.6703 15.3919 45.8985 15.3919H42.9483C42.1766 15.3919 41.5508 14.7662 41.5508 13.9944V7.8802C41.5508 7.10845 42.1765 6.48267 42.9483 6.48267H45.8985C46.6703 6.48267 47.2961 7.10845 47.2961 7.8802V13.9944Z" fill="#FCA84C"></path><path d="M44.4235 13.9944V7.8802C44.4235 7.10845 45.0493 6.48267 45.821 6.48267H42.9483C42.1766 6.48267 41.5508 7.10845 41.5508 7.8802V13.9943C41.5508 14.7661 42.1765 15.3918 42.9483 15.3918H45.821C45.0493 15.3917 44.4235 14.7662 44.4235 13.9944Z" fill="#FF8C01"></path><path d="M19.0721 10.2483L17.6828 8.07781C17.499 7.79037 17.078 7.79056 16.8944 8.07781L15.5053 10.2484C15.0816 10.9104 15.0348 11.7919 15.5067 12.5302C16.3257 13.8107 18.2313 13.8429 19.0706 12.5302L19.1013 12.4823C19.1042 12.4778 19.1071 12.4732 19.1098 12.4686C19.5197 11.7762 19.5053 10.9256 19.0721 10.2483Z" fill="#577DDD"></path><path d="M16.8713 10.756C17.3748 8.00306 17.3176 8.07281 17.5226 7.92562C17.4184 7.86512 17.2949 7.84719 17.1778 7.8756C17.0608 7.90401 16.9592 7.97654 16.8944 8.07806L15.5053 10.2487C14.2995 12.1329 16.4658 14.3608 18.4127 13.1827C17.3587 12.9032 16.6688 11.8629 16.8713 10.756Z" fill="#4369B5"></path><path d="M8.37964 16.4263V18.1835C8.37964 18.9553 9.00542 19.5811 9.77717 19.5811H24.8003C25.5721 19.5811 26.1979 18.9553 26.1979 18.1835V16.4263H8.37964Z" fill="#61626D"></path><path d="M10.7201 18.1835V16.4263H8.37964V18.1835C8.37964 18.9553 9.00542 19.5811 9.77717 19.5811H12.1176C11.3457 19.581 10.7201 18.9553 10.7201 18.1835Z" fill="#333542"></path><path d="M17.7806 19.5809H24.8005C25.5722 19.5809 26.198 18.9551 26.198 18.1834V16.4261H17.1189C17.2748 17.4903 17.4958 18.5438 17.7806 19.5809Z" fill="#636570"></path><path d="M9.77907 21.7353C8.62135 21.7353 7.67944 22.6773 7.67944 23.835V25.2712C7.67944 26.4288 8.62135 27.3708 9.77907 27.3708H16.7861C17.9438 27.3708 18.8858 26.4288 18.8858 25.2712V23.835C18.8858 22.6773 17.9438 21.7353 16.7861 21.7353H9.77907ZM17.4814 23.8351V25.2713C17.4814 25.6547 17.1695 25.9667 16.786 25.9667H9.77897C9.39554 25.9667 9.08363 25.6547 9.08363 25.2713V23.8351C9.08363 23.4516 9.39554 23.1397 9.77897 23.1397H16.786C17.1695 23.1396 17.4814 23.4515 17.4814 23.8351ZM21.3665 21.7353C20.9786 21.7353 20.6644 22.0496 20.6644 22.4374C20.6644 22.8253 20.9786 23.1395 21.3665 23.1395H26.1997C26.5875 23.1395 26.9018 22.8253 26.9018 22.4374C26.9018 22.0496 26.5875 21.7353 26.1997 21.7353H21.3665ZM26.9018 16.3325V5.86159C26.9018 4.70396 25.9599 3.76196 24.8022 3.76196H9.77907C8.62144 3.76196 7.67944 4.70396 7.67944 5.86159V18.0898C7.67944 19.2473 8.62126 20.1894 9.77907 20.1894C25.8703 20.1894 24.8588 20.1947 25.0165 20.1785C26.0739 20.0708 26.9018 19.1751 26.9018 18.0898V16.3325H26.9018ZM24.8022 18.7851H9.77907C9.39563 18.7851 9.08372 18.4732 9.08372 18.0898V17.0346H11.3851C11.7729 17.0346 12.0872 16.7204 12.0872 16.3325C12.0872 15.9447 11.7729 15.6304 11.3851 15.6304H9.08363V5.86168C9.08363 5.47824 9.39554 5.16634 9.77897 5.16634H24.8021C25.1856 5.16634 25.4975 5.47824 25.4975 5.86168V15.6305H13.8193C13.4315 15.6305 13.1172 15.9448 13.1172 16.3326C13.1172 16.7205 13.4315 17.0347 13.8193 17.0347H25.4976V18.0899C25.4976 18.4732 25.1857 18.7851 24.8022 18.7851Z" fill="black"></path><path d="M45.9004 5.78059H45.1273V3.06662C45.1273 2.96211 45.1039 2.85893 45.059 2.76459C45.014 2.67025 44.9486 2.58712 44.8674 2.52128L41.9948 0.192244C41.9232 0.134169 41.8409 0.090769 41.7525 0.0645215C41.6641 0.038274 41.5714 0.0296933 41.4797 0.0392694C41.388 0.0488455 41.2991 0.0763908 41.218 0.120333C41.137 0.164274 41.0654 0.223752 41.0073 0.295369C40.9492 0.366984 40.9058 0.449336 40.8796 0.537724C40.8533 0.626112 40.8447 0.718805 40.8543 0.810509C40.8639 0.902213 40.8914 0.991133 40.9354 1.07219C40.9793 1.15325 41.0388 1.22486 41.1104 1.28293L43.7229 3.40131V5.78068H42.9501C41.7924 5.78068 40.8504 6.72259 40.8504 7.88031V8.76278L38.6194 10.3675C38.529 10.4325 38.4553 10.5181 38.4045 10.6172C38.3537 10.7163 38.3272 10.8261 38.3272 10.9375V15.392C38.3271 15.4842 38.3453 15.5755 38.3806 15.6607C38.4159 15.7459 38.4676 15.8233 38.5328 15.8885C38.598 15.9537 38.6754 16.0054 38.7606 16.0407C38.8457 16.076 38.937 16.0941 39.0292 16.0941H43.7229V31.8466C43.7229 34.6592 41.4345 36.9474 38.6215 36.9474C35.8086 36.9474 33.5201 34.6592 33.5201 31.8466V25.4904C33.5201 25.4629 33.5182 25.436 33.5151 25.4093C33.522 25.3028 33.5201 25.3994 33.5201 23.8351C33.5201 22.6774 32.5781 21.7354 31.4205 21.7354H30.8028V6.79553C30.8028 6.70332 30.7846 6.61202 30.7494 6.52683C30.7141 6.44164 30.6624 6.36424 30.5972 6.29904C30.532 6.23385 30.4546 6.18213 30.3694 6.14685C30.2842 6.11157 30.1929 6.09342 30.1007 6.09343C30.0085 6.09342 29.9172 6.11157 29.832 6.14685C29.7468 6.18213 29.6694 6.23385 29.6042 6.29904C29.539 6.36424 29.4873 6.44164 29.452 6.52683C29.4167 6.61202 29.3986 6.70332 29.3986 6.79553V43.6487H5.18241V2.13503C5.18241 1.75159 5.49431 1.43968 5.87775 1.43968H28.7032C29.0867 1.43968 29.3986 1.75159 29.3986 2.13503V4.54871C29.3986 4.64092 29.4167 4.73222 29.452 4.81741C29.4873 4.90259 29.539 4.98 29.6042 5.0452C29.6694 5.11039 29.7468 5.16211 29.832 5.19739C29.9172 5.23267 30.0085 5.25082 30.1007 5.25081C30.1929 5.25082 30.2842 5.23267 30.3694 5.19739C30.4546 5.16211 30.532 5.11039 30.5972 5.0452C30.6624 4.98 30.7141 4.90259 30.7494 4.81741C30.7846 4.73222 30.8028 4.64092 30.8028 4.54871V2.13503C30.8028 0.977307 29.8608 0.0354004 28.7032 0.0354004H5.87775C4.72012 0.0354004 3.77812 0.977307 3.77812 2.13503V43.6487H2.15775C0.967969 43.6487 0 44.6168 0 45.8067C0 46.9965 0.967969 47.9644 2.15775 47.9644H4.45725C4.54945 47.9644 4.64076 47.9463 4.72594 47.911C4.81113 47.8757 4.88853 47.824 4.95373 47.7588C5.01893 47.6936 5.07065 47.6162 5.10592 47.531C5.1412 47.4458 5.15936 47.3545 5.15934 47.2623C5.15936 47.1701 5.1412 47.0788 5.10592 46.9936C5.07065 46.9085 5.01893 46.8311 4.95373 46.7659C4.88853 46.7007 4.81113 46.6489 4.72594 46.6137C4.64076 46.5784 4.54945 46.5602 4.45725 46.5602H2.15775C1.74225 46.5602 1.40419 46.2223 1.40419 45.8067C1.40419 45.3911 1.74216 45.0529 2.15775 45.0529H32.517C32.9325 45.0529 33.2706 45.391 33.2706 45.8067C33.2706 46.2222 32.9326 46.5602 32.517 46.5602H6.89156C6.79936 46.5602 6.70806 46.5784 6.62287 46.6137C6.53768 46.6489 6.46028 46.7007 6.39508 46.7659C6.32988 46.8311 6.27817 46.9085 6.24289 46.9936C6.20761 47.0788 6.18946 47.1701 6.18947 47.2623C6.18946 47.3545 6.20761 47.4458 6.24289 47.531C6.27817 47.6162 6.32988 47.6936 6.39508 47.7588C6.46028 47.824 6.53768 47.8757 6.62287 47.911C6.70806 47.9463 6.79936 47.9644 6.89156 47.9644H32.517C33.7068 47.9644 34.6747 46.9965 34.6747 45.8067C34.6747 44.6168 33.7068 43.6487 32.517 43.6487H30.803V27.3709C31.4506 27.3709 31.7065 27.3962 32.1159 27.2521V31.8464C32.1159 35.4332 35.0344 38.3514 38.6215 38.3514C42.2087 38.3514 45.1271 35.4332 45.1271 31.8464V16.0939H45.9002C47.0578 16.0939 47.9998 15.1519 47.9998 13.9943V7.88003C48 6.72249 47.058 5.78059 45.9004 5.78059ZM31.4206 25.9666H30.8029V23.1396H31.4206C31.804 23.1396 32.1159 23.4515 32.1159 23.835V25.2712C32.116 25.6547 31.804 25.9666 31.4206 25.9666ZM39.7314 11.2971L40.8504 10.4923C40.8504 14.2759 40.8109 14.2394 40.9693 14.6896H39.7314V11.2971ZM42.9501 14.6897C42.5666 14.6897 42.2547 14.3777 42.2547 13.9943V7.88012C42.2547 7.49668 42.5666 7.18478 42.9501 7.18478H45.9003C46.2837 7.18478 46.5956 7.49668 46.5956 7.88012V13.9942C46.5956 14.3777 46.2837 14.6896 45.9003 14.6896H42.9501V14.6897Z" fill="black"></path><path d="M15.8464 13.8093C15.8464 13.8093 16.4505 14.2063 17.2895 14.2076C19.5045 14.2076 20.8698 11.7527 19.6654 9.86997L17.8819 7.08335C17.8184 6.98413 17.7309 6.9025 17.6276 6.84595C17.5243 6.7894 17.4083 6.75977 17.2905 6.75977C17.1727 6.75977 17.0568 6.7894 16.9535 6.84595C16.8501 6.9025 16.7627 6.98413 16.6992 7.08335L14.9159 9.86997C14.0401 11.2383 14.5035 13.0075 15.8464 13.8093ZM16.0986 10.627L17.2904 8.76438L18.4825 10.6269C19.3177 11.9324 17.709 13.4806 16.425 12.5079C15.8688 12.0789 15.6868 11.2703 16.0986 10.627Z" fill="black"></path></g><defs><clipPath id="clip0_741_473"><rect width="48" height="48" fill="white"></rect></clipPath></defs></svg>