<svg xmlns="http://www.w3.org/2000/svg" width="48" height="48" viewBox="0 0 48 48" fill="none"><path d="M25.0312 45.9375C37.7165 45.9375 48 35.654 48 22.9688C48 10.2835 37.7165 0 25.0312 0C12.346 0 2.0625 10.2835 2.0625 22.9688C2.0625 35.654 12.346 45.9375 25.0312 45.9375Z" fill="#0055CA"></path><path d="M43.0885 29.1638L24.5269 47.7254C24.1608 48.0915 23.5672 48.0915 23.2011 47.7254L4.63956 29.1638C4.27347 28.7977 4.27347 28.2041 4.63956 27.838L23.2011 9.27646C23.5672 8.91037 24.1608 8.91037 24.5269 9.27646L43.0885 27.838C43.4546 28.2041 43.4546 28.7977 43.0885 29.1638Z" fill="#00A4FB"></path><path d="M47.7255 29.1638L29.1639 47.7254C28.7978 48.0915 28.2042 48.0915 27.8381 47.7254L9.27652 29.1638C8.91043 28.7977 8.91043 28.2041 9.27652 27.838L27.8381 9.27646C28.2042 8.91037 28.7978 8.91037 29.1639 9.27646L47.7255 27.838C48.0916 28.2041 48.0916 28.7977 47.7255 29.1638Z" fill="#49B6FC"></path><path d="M25.0179 36.8567C13.5938 36.8565 4.39322 27.6557 4.39322 16.2316C4.39322 11.9206 5.71594 7.91851 7.97756 4.60904C8.04966 4.50357 7.91494 4.3801 7.81481 4.45951C3.05363 8.23754 9.37507e-05 14.0745 7.11889e-10 20.6248C-9.37493e-05 31.9906 9.25941 41.2501 20.6253 41.25C27.1595 41.2499 32.9839 38.2114 36.7627 33.4702C36.8473 33.3641 36.7162 33.2214 36.6041 33.2977C33.3016 35.5439 29.3131 36.8568 25.0179 36.8567Z" fill="#C5D3DD"></path><path d="M20.6249 0C15.7301 0 11.2334 1.70513 7.69673 4.55381C4.84804 8.09062 3.14282 12.5872 3.14282 17.4821C3.14282 28.873 12.3769 38.1071 23.7678 38.1071C28.6627 38.1071 33.1593 36.402 36.696 33.5532C39.5448 30.0165 41.2499 25.5199 41.2499 20.625C41.2499 9.23409 32.0159 0 20.6249 0Z" fill="#D9E7EC"></path><path d="M20.625 34.6875C28.3915 34.6875 34.6875 28.3915 34.6875 20.625C34.6875 12.8585 28.3915 6.5625 20.625 6.5625C12.8585 6.5625 6.5625 12.8585 6.5625 20.625C6.5625 28.3915 12.8585 34.6875 20.625 34.6875Z" fill="#FFF5F5"></path><path d="M22.8362 27.2034C22.0927 26.3664 21.1028 25.8989 20.0841 25.8007C20.8081 24.2403 20.5266 22.3283 19.2394 21.0412C17.6107 19.4125 14.9817 19.394 13.3301 20.9855C13.0897 20.4028 12.7132 19.8629 12.2006 19.4147C10.5888 18.0055 8.1337 18.0445 6.56405 19.5004C4.80014 21.1364 4.76114 23.8938 6.44686 25.5795C7.33561 26.4682 8.52239 26.8775 9.68555 26.8074C8.58286 28.4476 8.75658 30.6907 10.2067 32.1409C11.5951 33.5293 13.7105 33.7476 15.3275 32.7959C15.7698 32.5355 16.3251 32.6122 16.6872 32.976L16.6942 32.983C18.3816 34.6705 21.143 34.6295 22.7784 32.8603C24.2392 31.28 24.2656 28.8125 22.8362 27.2034Z" fill="#00C53B"></path><path d="M26.0311 35.1998C26.8078 35.1998 27.4374 34.5702 27.4374 33.7936C27.4374 33.0169 26.8078 32.3873 26.0311 32.3873C25.2545 32.3873 24.6249 33.0169 24.6249 33.7936C24.6249 34.5702 25.2545 35.1998 26.0311 35.1998Z" fill="#4BCD5C"></path><path d="M19.3427 6.40442C20.0986 5.64852 20.0741 4.40783 19.2693 3.68323C18.5371 3.02389 17.3887 3.05567 16.6916 3.75214C16.3917 4.05081 16.2022 4.44254 16.1541 4.86308C16.099 5.34214 15.9317 5.80667 15.6092 6.16508C15.5832 6.19395 15.5577 6.22367 15.5327 6.25423C14.8157 7.13239 14.8427 8.42595 15.5923 9.27645C16.4954 10.3014 18.0602 10.3385 19.0111 9.38755C19.813 8.58561 19.9123 7.34717 19.309 6.43714C19.3204 6.42636 19.3316 6.41548 19.3427 6.40442Z" fill="#EBAE56"></path><path d="M22.1255 14.242C20.478 12.5945 17.8068 12.5945 16.1593 14.242C16.1347 14.2666 16.1104 14.2915 16.0864 14.3167C14.4564 13.289 12.276 13.485 10.856 14.905C9.20847 16.5526 9.20847 19.2237 10.856 20.8713C12.0105 22.0257 13.6676 22.3712 15.1229 21.9077C14.6594 23.363 15.0048 25.0201 16.1593 26.1745C17.8068 27.8221 20.478 27.8221 22.1255 26.1745C23.7731 24.527 23.7731 21.8558 22.1255 20.2083C23.773 18.5607 23.773 15.8896 22.1255 14.242Z" fill="#FBC56D"></path><path d="M26.7402 23.0225C27.3106 21.1456 26.5053 19.064 24.7138 18.0919C22.6659 16.9805 20.105 17.7398 18.9936 19.7877C18.0215 21.5792 18.4808 23.7634 19.9821 25.0261C19.4117 26.903 20.217 28.9846 22.0085 29.9568C24.0563 31.0681 26.6173 30.3088 27.7286 28.2609C28.7008 26.4694 28.2414 24.2854 26.7402 23.0225Z" fill="#FFDF8E"></path><path d="M24.875 9.02267C24.5634 8.08751 24.9161 7.18564 25.5739 6.65708C25.6615 6.58667 25.6389 6.44755 25.5343 6.40639L21.9185 4.98195C20.2156 4.31108 18.504 5.93314 19.0823 7.66958L20.7805 12.7677L21.1735 12.8795L21.4606 13.7413L21.2269 14.1078L22.3077 17.3525L22.5616 17.5703L22.8305 18.3775L22.7543 18.6936L24.0823 22.6805L24.4191 22.8421L24.6919 23.6607L24.53 24.0243L25.2678 26.2394L25.6931 26.3676L25.9048 27.0032L25.7169 27.5877L26.5219 30.0042C27.3308 32.4328 30.6998 32.6059 31.7534 30.273C31.8273 30.1093 31.8369 29.9237 31.7801 29.7533L24.875 9.02267Z" fill="#FF544C"></path><path d="M34.4692 9.92632L31.988 8.94888L31.6018 9.09776L30.9621 8.84576L30.6657 8.42791L27.4373 7.1561L26.9567 7.32832L26.3038 7.07107L26.1241 6.63869L25.5623 6.41735C24.3454 5.93801 23.1224 7.09704 23.5357 8.33782L30.8265 30.2253C30.968 30.6503 31.5631 30.6912 31.749 30.2836L31.7537 30.2731L33.4776 26.4561L33.3246 26.0523L33.6921 25.2386L34.0892 25.1018L37.5338 17.4751C38.4298 15.4913 38.0786 13.2733 36.8298 11.6819C36.7635 11.5973 36.5731 11.7343 36.5017 11.6534C36.2917 11.4153 36.0618 11.1956 35.8144 10.9966C35.7169 10.9181 35.7378 10.623 35.6343 10.5506C35.2718 10.2976 34.8807 10.0881 34.4692 9.92632Z" fill="#FF6C55"></path><path d="M31.7792 24.9465C29.5081 24.9465 27.3047 25.3913 25.2682 26.2394L25.7174 27.5877C28.1801 26.5478 30.8585 26.1706 33.4777 26.4562L34.0893 25.1019C33.3237 24.9982 32.5519 24.9463 31.7792 24.9465ZM21.2271 14.1078C24.1898 12.8218 26.4855 10.279 27.4375 7.15614L26.1242 6.63873C25.325 9.37548 23.3476 11.6147 20.7808 12.7677L21.2271 14.1078ZM36.8299 11.682C36.4895 11.2479 36.0866 10.8667 35.6344 10.5507C34.4821 16.4984 29.9263 21.247 24.0826 22.6805L24.5303 24.0244C27.4711 23.2886 30.1671 21.7697 32.3641 19.5727C34.5754 17.3615 36.0996 14.6449 36.8299 11.682ZM31.988 8.94892L30.6658 8.42805C29.5731 12.6277 26.3949 15.9949 22.308 17.3528L22.7547 18.6939C24.8323 18.0083 26.7351 16.8416 28.3259 15.251C30.1013 13.4754 31.3484 11.311 31.988 8.94892Z" fill="#FF9084"></path><path d="M8.01662 29.3956C9.31212 29.3956 10.3623 28.3454 10.3623 27.0499C10.3623 25.7544 9.31212 24.7042 8.01662 24.7042C6.72111 24.7042 5.6709 25.7544 5.6709 27.0499C5.6709 28.3454 6.72111 29.3956 8.01662 29.3956Z" fill="#00B327"></path><path d="M14.9237 23.2061C15.7004 23.2061 16.33 22.5765 16.33 21.7999C16.33 21.0232 15.7004 20.3936 14.9237 20.3936C14.1471 20.3936 13.5175 21.0232 13.5175 21.7999C13.5175 22.5765 14.1471 23.2061 14.9237 23.2061Z" fill="#FF7D43"></path><path d="M19.8918 29.4777C21.665 29.4777 23.1024 28.0403 23.1024 26.2671C23.1024 24.494 21.665 23.0566 19.8918 23.0566C18.1187 23.0566 16.6813 24.494 16.6813 26.2671C16.6813 28.0403 18.1187 29.4777 19.8918 29.4777Z" fill="#FF7D43"></path><path d="M19.8918 27.6734C20.6685 27.6734 21.2981 27.0438 21.2981 26.2672C21.2981 25.4905 20.6685 24.8609 19.8918 24.8609C19.1152 24.8609 18.4856 25.4905 18.4856 26.2672C18.4856 27.0438 19.1152 27.6734 19.8918 27.6734Z" fill="#FF6930"></path><path d="M16.0023 15.2912C16.779 15.2912 17.4086 14.6616 17.4086 13.8849C17.4086 13.1083 16.779 12.4787 16.0023 12.4787C15.2257 12.4787 14.5961 13.1083 14.5961 13.8849C14.5961 14.6616 15.2257 15.2912 16.0023 15.2912Z" fill="#FF7D43"></path><path d="M6.67087 17.6487C10.3551 17.6487 13.3417 14.662 13.3417 10.9778C13.3417 7.2936 10.3551 4.30695 6.67087 4.30695C2.98665 4.30695 0 7.2936 0 10.9778C0 14.662 2.98665 17.6487 6.67087 17.6487Z" fill="#9FACBA"></path><path d="M8.43724 14.0617C5.83821 13.9157 3.73315 11.8107 3.58709 9.21167C3.53384 8.26488 3.73624 7.36976 4.13149 6.58873C4.15249 6.5472 4.10731 6.50285 4.06718 6.52638C2.47746 7.45826 1.4314 9.21738 1.51999 11.2128C1.63756 13.8609 3.7879 16.0114 6.43615 16.1289C8.43228 16.2175 10.192 15.1706 11.1236 13.5799C11.1468 13.5402 11.103 13.4956 11.0621 13.5164C10.2806 13.9122 9.38468 14.115 8.43724 14.0617Z" fill="#FF544C"></path><path d="M6.67087 5.82159C5.70712 5.82159 4.80506 6.08606 4.0334 6.54628C3.57318 7.31794 3.30872 8.22 3.30872 9.18375C3.30872 12.0315 5.61722 14.34 8.46497 14.34C9.42872 14.34 10.3308 14.0755 11.1024 13.6153C11.5627 12.8437 11.8271 11.9416 11.8271 10.9778C11.8271 8.13019 9.51862 5.82159 6.67087 5.82159Z" fill="#FF6C55"></path><path d="M5.53658 13.7863C5.83105 13.4919 5.65107 12.8344 5.13459 12.318C4.61811 11.8015 3.9607 11.6215 3.66624 11.916C3.37177 12.2104 3.55175 12.8678 4.06823 13.3843C4.58471 13.9008 5.24211 14.0808 5.53658 13.7863Z" fill="#FF9568"></path><path d="M7.19855 12.9273C7.58968 13.3184 8.25699 12.9763 8.16127 12.4316C8.04305 11.7588 7.65905 11.0295 7.04236 10.4129C6.42577 9.79634 5.69649 9.41225 5.02374 9.29403C4.47896 9.19831 4.13686 9.86562 4.52799 10.2567L7.19855 12.9273ZM9.35302 11.5047C9.8513 12.0029 10.7015 11.5671 10.5796 10.8731C10.4289 10.016 9.93971 9.08693 9.15408 8.30131C8.36846 7.51568 7.43939 7.0265 6.58233 6.87584C5.8883 6.75387 5.45246 7.60409 5.95074 8.10237L9.35302 11.5047Z" fill="#FF9568"></path><path d="M15.6708 37.7756L15.0079 37.1127C14.92 37.0248 14.8706 36.9056 14.8706 36.7813C14.8706 36.657 14.92 36.5377 15.0079 36.4498L15.6708 35.7869C15.7588 35.699 15.878 35.6496 16.0023 35.6496C16.1266 35.6496 16.2458 35.699 16.3337 35.7869L16.9967 36.4498C17.0846 36.5377 17.1339 36.657 17.1339 36.7813C17.1339 36.9056 17.0846 37.0248 16.9967 37.1127L16.3337 37.7756C16.2458 37.8635 16.1266 37.9129 16.0023 37.9129C15.878 37.9129 15.7588 37.8635 15.6708 37.7756ZM14.2199 30.8813L13.557 30.2184C13.4691 30.1304 13.4197 30.0112 13.4197 29.8869C13.4197 29.7626 13.4691 29.6434 13.557 29.5554L14.2199 28.8925C14.3078 28.8046 14.427 28.7552 14.5513 28.7552C14.6756 28.7552 14.7949 28.8046 14.8828 28.8925L15.5457 29.5554C15.6336 29.6434 15.683 29.7626 15.683 29.8869C15.683 30.0112 15.6336 30.1304 15.5457 30.2184L14.8828 30.8813C14.7949 30.9692 14.6756 31.0185 14.5513 31.0185C14.427 31.0185 14.3078 30.9692 14.2199 30.8813Z" fill="#008D1C"></path></svg>