<svg xmlns="http://www.w3.org/2000/svg" width="48" height="48" viewBox="0 0 48 48" fill="none"><path d="M3.91619 34.7268C3.78423 34.7268 3.71826 34.7881 3.71826 34.9106V38.6854C3.71826 38.9305 3.57688 39.053 3.29412 39.053H1.20172C1.06976 39.053 0.980225 39.0294 0.933099 38.9823C0.885972 38.9257 0.862409 38.8409 0.862409 38.7278V28.8596C0.862409 28.6617 0.942524 28.5627 1.10275 28.5627H3.47791C3.63814 28.5627 3.71826 28.6522 3.71826 28.8313V32.2809C3.71826 32.46 3.79366 32.5496 3.94446 32.5496H6.7579C6.9087 32.5496 6.9841 32.46 6.9841 32.2809V28.8313C6.9841 28.6522 7.06422 28.5627 7.22445 28.5627H9.59961C9.75984 28.5627 9.83995 28.6617 9.83995 28.8596V38.7278C9.83995 38.8409 9.81639 38.9257 9.76926 38.9823C9.72213 39.0294 9.63259 39.053 9.50064 39.053H7.40824C7.12548 39.053 6.9841 38.9305 6.9841 38.6854V34.9106C6.9841 34.7881 6.91813 34.7268 6.78617 34.7268H3.91619ZM11.8876 39.053C11.6708 39.053 11.5624 38.9305 11.5624 38.6854V28.8596C11.5624 28.6617 11.652 28.5627 11.8311 28.5627H15.2948C15.4079 28.5627 15.4881 28.5768 15.5352 28.6051C15.5823 28.6334 15.6247 28.6994 15.6624 28.803L17.4438 33.9775C17.4721 34.0529 17.5051 34.0906 17.5428 34.0906C17.5805 34.0812 17.6135 34.0435 17.6417 33.9775L19.2959 28.9303C19.3713 28.6852 19.4891 28.5627 19.6493 28.5627H23.2262C23.3864 28.5627 23.4665 28.6522 23.4665 28.8313V38.6854C23.4665 38.9305 23.3299 39.053 23.0565 39.053H20.95C20.818 39.053 20.7285 39.0294 20.6814 38.9823C20.6342 38.9257 20.6107 38.8409 20.6107 38.7278V32.0547C20.6107 31.9888 20.5918 31.9558 20.5541 31.9558C20.5164 31.9558 20.4834 31.9935 20.4552 32.0689L18.2214 38.8126C18.1554 38.9729 18.047 39.053 17.8962 39.053H16.5673C16.3976 39.053 16.2845 38.9729 16.2279 38.8126L13.9942 32.1678C13.9659 32.0736 13.9329 32.0312 13.8952 32.0406C13.8669 32.05 13.8528 32.0972 13.8528 32.182V38.7702C13.8528 38.8833 13.8339 38.9587 13.7962 38.9964C13.7585 39.0341 13.6784 39.053 13.5559 39.053H11.8876ZM34.0398 38.6288C34.0869 38.7419 34.0822 38.8409 34.0256 38.9257C33.9785 39.0106 33.9031 39.053 33.7994 39.053H31.3818C31.2028 39.053 31.085 38.9634 31.0284 38.7844L29.6146 34.9813C29.5581 34.8399 29.4167 34.7692 29.1905 34.7692H28.215C28.149 34.7692 28.1019 34.7881 28.0736 34.8258C28.0547 34.8635 28.0453 34.8964 28.0453 34.9247V38.6713C28.0453 38.9257 27.9039 39.053 27.6212 39.053H25.5146C25.3921 39.053 25.3073 39.0294 25.2602 38.9823C25.213 38.9257 25.1895 38.8409 25.1895 38.7278V28.8596C25.1895 28.6617 25.2696 28.5627 25.4298 28.5627H30.0105C31.33 28.5627 32.3526 28.8172 33.0784 29.3261C33.8041 29.8351 34.167 30.5608 34.167 31.5034C34.167 31.9652 34.0822 32.3846 33.9125 32.7616C33.7429 33.1386 33.5167 33.4591 33.2339 33.723C32.9512 33.9775 32.6307 34.1707 32.2725 34.3027C32.1877 34.3404 32.1689 34.4252 32.216 34.5571L34.0398 38.6288ZM29.8267 32.8747C30.2791 32.8747 30.6231 32.7711 30.8587 32.5637C31.0944 32.3469 31.2122 32.0547 31.2122 31.6872C31.2122 31.2819 31.0755 30.9755 30.8022 30.7682C30.5383 30.5514 30.2131 30.443 29.8267 30.443H28.3422C28.1443 30.443 28.0453 30.5278 28.0453 30.6975V32.592C28.0453 32.7805 28.116 32.8747 28.2574 32.8747H29.8267ZM39.959 28.4213C40.5245 28.4213 41.0523 28.5014 41.5424 28.6617C42.042 28.8219 42.4802 29.0481 42.8573 29.3403C43.2437 29.623 43.5594 29.9576 43.8045 30.3441C44.0496 30.7305 44.2145 31.1499 44.2993 31.6023C44.3464 31.7814 44.3512 31.8992 44.3135 31.9558C44.2852 32.0029 44.2239 32.0312 44.1297 32.0406L41.9242 32.1961C41.8299 32.1961 41.7686 32.1773 41.7404 32.1396C41.7215 32.0924 41.7027 32.0265 41.6838 31.9416C41.599 31.4892 41.4293 31.1169 41.1749 30.8247C40.9204 30.5326 40.5386 30.3865 40.0297 30.3865C39.417 30.3865 38.9316 30.6457 38.5735 31.1641C38.2153 31.673 38.0362 32.5307 38.0362 33.7371C38.0362 34.953 38.2012 35.8201 38.5311 36.3385C38.8704 36.8569 39.3699 37.1161 40.0297 37.1161C40.5386 37.1161 40.9816 36.9889 41.3586 36.7344C41.7451 36.4705 42.0608 36.0228 42.3059 35.3913C42.353 35.2876 42.4708 35.2546 42.6593 35.2923L44.2569 35.6033C44.2946 35.6128 44.337 35.6458 44.3841 35.7023C44.4407 35.7494 44.4548 35.8578 44.4266 36.0275C44.3889 36.1971 44.304 36.4139 44.1721 36.6778C44.0496 36.9417 43.8752 37.2198 43.649 37.512C43.4228 37.8041 43.1353 38.0775 42.7866 38.3319C42.4378 38.5864 42.0278 38.7938 41.5566 38.954C41.0853 39.1142 40.5481 39.1944 39.9449 39.1944C38.9458 39.1944 38.0787 38.9634 37.3435 38.5016C36.6083 38.0303 36.0428 37.38 35.647 36.5506C35.2511 35.7212 35.0532 34.7692 35.0532 33.6947C35.0532 32.6203 35.2511 31.6919 35.647 30.9096C36.0428 30.1179 36.6083 29.5052 37.3435 29.0717C38.0881 28.6381 38.9599 28.4213 39.959 28.4213Z" fill="#40556D"></path><path d="M24.1379 4.17285C29.7205 4.17285 34.2787 8.73105 34.2787 14.3137C34.2787 19.8963 29.7205 24.4545 24.1379 24.4545C18.5553 24.4545 13.9971 19.8963 13.9971 14.3137C13.9971 8.73105 18.5553 4.17285 24.1379 4.17285ZM22.087 17.389L20.2633 14.8817L18.6689 14.9953L21.1762 20.5779H22.657L30.1769 7.58896H29.2661L22.089 17.3869L22.087 17.389Z" fill="#40556D"></path></svg>