<svg xmlns="http://www.w3.org/2000/svg" xmlns:xlink="http://www.w3.org/1999/xlink" id="svg" width="400" height="400" viewBox="0 0 400 400"><g id="svgg"><path id="path0" d="M225.600 13.237 C 225.050 13.430,222.350 14.121,219.600 14.772 C 209.921 17.065,202.584 18.825,201.100 19.210 C 198.857 19.793,196.394 20.418,194.600 20.860 C 193.720 21.077,192.447 21.422,191.772 21.627 C 191.096 21.832,190.072 22.000,189.495 22.000 C 188.919 22.000,188.336 22.180,188.200 22.400 C 188.064 22.620,187.481 22.800,186.905 22.800 C 186.328 22.800,185.304 22.968,184.628 23.173 C 183.953 23.378,182.635 23.738,181.700 23.973 C 180.765 24.208,179.280 24.609,178.400 24.864 L 176.800 25.328 176.800 50.264 L 176.800 75.200 182.396 75.200 L 187.993 75.200 188.096 54.733 L 188.200 34.267 189.200 33.973 C 190.047 33.724,195.312 32.481,202.800 30.763 C 203.790 30.535,205.230 30.189,206.000 29.994 C 206.770 29.798,207.940 29.531,208.600 29.401 C 209.260 29.271,210.520 28.982,211.400 28.760 C 212.280 28.538,213.720 28.196,214.600 28.000 C 215.480 27.804,217.010 27.444,218.000 27.200 C 218.990 26.956,220.520 26.596,221.400 26.400 C 222.280 26.204,223.720 25.862,224.600 25.640 C 225.480 25.418,226.740 25.129,227.400 24.999 C 233.443 23.806,235.079 22.176,234.710 17.718 C 234.371 13.637,230.241 11.605,225.600 13.237 M111.233 97.539 C 111.015 97.947,110.484 99.522,110.055 101.040 C 109.625 102.558,108.736 105.420,108.080 107.400 C 107.423 109.380,106.967 111.135,107.066 111.300 C 107.303 111.692,257.502 111.692,257.718 111.300 C 257.868 111.028,255.777 103.968,254.075 99.000 L 253.390 97.000 182.510 96.899 C 113.859 96.801,111.617 96.821,111.233 97.539 M88.827 125.500 C 88.525 126.545,87.600 129.471,86.770 132.002 C 85.940 134.534,85.202 137.144,85.130 137.802 L 85.000 139.000 182.400 139.000 L 279.800 139.000 279.694 138.000 C 279.635 137.450,278.881 134.750,278.017 132.000 C 277.154 129.250,276.213 126.235,275.926 125.300 L 275.405 123.600 182.390 123.600 L 89.375 123.600 88.827 125.500 M117.776 163.319 C 117.665 163.607,117.626 166.173,117.687 169.021 L 117.800 174.200 148.400 174.200 L 179.000 174.200 179.000 168.600 L 179.000 163.000 148.488 162.897 C 123.640 162.814,117.940 162.892,117.776 163.319 M191.392 163.700 C 191.269 164.195,191.220 166.760,191.284 169.400 L 191.400 174.200 198.800 174.200 L 206.200 174.200 206.311 168.500 L 206.422 162.800 199.019 162.800 C 191.674 162.800,191.613 162.807,191.392 163.700 M368.184 166.900 C 368.079 167.175,368.039 179.100,368.096 193.400 L 368.200 219.400 373.800 219.400 L 379.400 219.400 379.503 192.900 L 379.606 166.400 373.990 166.400 C 369.867 166.400,368.324 166.533,368.184 166.900 M250.988 175.289 C 250.880 175.570,250.839 185.610,250.896 197.600 L 251.000 219.400 256.600 219.400 L 262.200 219.400 262.200 197.200 L 262.200 175.000 256.692 174.889 C 252.506 174.804,251.137 174.900,250.988 175.289 M297.878 175.056 C 297.537 175.396,297.503 265.281,297.843 266.167 C 298.290 267.333,308.316 267.084,308.602 265.900 C 308.722 265.405,308.770 244.750,308.710 220.000 L 308.600 175.000 303.378 174.889 C 300.505 174.828,298.030 174.903,297.878 175.056 M274.400 215.291 C 274.400 228.114,274.562 239.144,274.760 239.803 C 274.958 240.461,275.868 243.070,276.782 245.600 C 277.696 248.130,278.713 251.010,279.042 252.000 C 279.371 252.990,279.802 254.160,280.000 254.600 C 280.198 255.040,280.627 256.210,280.953 257.200 C 281.874 259.990,283.932 265.566,284.203 266.005 C 285.110 267.473,285.197 263.915,285.102 229.300 L 285.000 192.200 279.700 192.088 L 274.400 191.977 274.400 215.291 M321.384 192.500 C 321.279 192.775,321.240 209.560,321.297 229.800 L 321.400 266.600 326.000 266.716 C 328.530 266.780,331.005 266.732,331.500 266.608 L 332.400 266.385 332.400 229.435 C 332.400 196.111,332.338 192.462,331.767 192.243 C 330.489 191.752,321.585 191.973,321.384 192.500 M344.832 223.300 C 344.849 240.515,344.966 254.330,345.091 254.000 C 345.700 252.396,348.118 245.591,348.644 244.000 C 348.972 243.010,349.402 241.840,349.600 241.400 C 349.798 240.960,350.227 239.790,350.553 238.800 C 350.880 237.810,351.712 235.470,352.403 233.600 C 353.094 231.730,354.185 228.609,354.829 226.664 L 356.000 223.128 356.000 207.807 C 356.000 194.205,355.929 192.458,355.367 192.243 C 355.019 192.109,352.499 192.000,349.767 192.000 L 344.800 192.000 344.832 223.300 M78.800 241.595 C 61.819 242.951,46.127 252.185,36.460 266.511 C 35.327 268.190,34.400 269.679,34.400 269.820 C 34.400 269.961,34.069 270.554,33.663 271.138 C 31.247 274.622,27.601 286.383,27.600 290.700 L 27.600 292.000 111.036 292.000 L 194.471 292.000 194.272 289.700 C 194.163 288.435,193.886 286.590,193.658 285.600 C 193.430 284.610,193.079 283.080,192.877 282.200 C 192.676 281.320,192.199 279.790,191.817 278.800 C 184.388 259.532,169.350 246.672,149.200 242.355 C 144.757 241.403,88.772 240.799,78.800 241.595 M269.758 313.700 C 270.017 315.369,270.504 319.661,271.200 326.400 C 271.393 328.270,271.752 331.600,271.998 333.800 C 272.685 339.951,273.155 344.240,273.600 348.400 C 273.986 352.013,274.418 355.957,275.033 361.500 L 275.311 364.000 312.431 364.000 L 349.551 364.000 349.748 362.300 C 349.857 361.365,350.131 358.890,350.359 356.800 C 350.586 354.710,350.961 351.290,351.191 349.200 C 351.760 344.037,352.604 336.149,353.587 326.800 C 354.039 322.510,354.586 317.688,354.804 316.084 C 355.022 314.480,355.200 312.905,355.200 312.584 C 355.200 312.076,349.639 312.000,312.347 312.000 L 269.495 312.000 269.758 313.700 M12.090 313.543 C 11.629 314.743,13.261 318.482,15.007 320.228 C 18.268 323.489,8.913 323.200,111.053 323.200 L 202.409 323.200 204.213 322.352 C 206.200 321.418,209.200 318.299,209.200 317.167 C 209.200 316.771,209.380 316.336,209.600 316.200 C 209.820 316.064,210.000 315.288,210.000 314.476 L 210.000 313.000 111.149 313.000 C 28.237 313.000,12.265 313.088,12.090 313.543 M63.616 345.500 C 63.625 345.665,65.727 347.240,68.286 349.000 C 75.872 354.217,78.958 356.381,79.705 357.008 C 80.092 357.334,80.572 357.600,80.771 357.600 C 80.970 357.600,81.193 357.747,81.267 357.928 C 81.416 358.294,86.217 361.600,86.600 361.600 C 86.907 361.600,91.629 358.413,92.295 357.756 C 92.686 357.370,91.931 356.659,88.695 354.361 C 86.443 352.762,83.430 350.614,82.000 349.589 C 80.570 348.564,78.558 347.157,77.528 346.463 L 75.656 345.200 69.628 345.200 C 66.313 345.200,63.607 345.335,63.616 345.500 M119.100 346.278 C 117.053 347.684,117.136 347.863,121.074 350.600 C 122.974 351.920,125.894 353.949,127.564 355.108 C 129.234 356.268,130.887 357.457,131.238 357.751 C 132.269 358.616,136.735 361.600,136.996 361.600 C 137.257 361.600,142.881 357.855,143.946 356.971 C 144.975 356.118,156.414 348.061,158.285 346.871 C 159.212 346.282,159.977 345.665,159.985 345.500 C 159.993 345.335,151.135 345.211,140.300 345.224 L 120.600 345.248 119.100 346.278 M108.800 361.317 C 108.250 361.624,105.730 363.347,103.200 365.147 C 100.670 366.946,97.271 369.359,95.648 370.509 C 94.024 371.659,91.524 373.455,90.093 374.500 C 86.367 377.220,86.772 377.371,75.600 369.126 C 72.208 366.623,73.746 366.754,49.400 366.886 L 28.200 367.000 28.303 368.311 C 28.738 373.850,35.893 382.275,42.697 385.261 C 48.317 387.727,44.170 387.586,111.000 387.586 C 169.036 387.586,171.927 387.552,174.600 386.841 C 184.069 384.322,190.806 377.920,193.904 368.499 C 194.500 366.686,195.409 366.752,171.800 366.884 L 151.000 367.000 149.200 368.295 C 148.210 369.008,145.870 370.658,144.000 371.963 C 142.130 373.268,140.378 374.535,140.107 374.777 C 139.835 375.020,139.014 375.573,138.281 376.005 L 136.948 376.792 135.313 375.696 C 131.652 373.241,127.388 370.248,127.200 370.002 C 127.090 369.858,125.830 368.956,124.400 367.997 C 122.970 367.038,120.192 365.078,118.227 363.641 C 114.295 360.766,111.170 359.996,108.800 361.317 " stroke="none" fill="#ebd492" fill-rule="evenodd"></path><path id="path1" d="M98.715 151.300 C 98.622 151.575,98.687 153.690,98.861 156.000 C 99.034 158.310,99.366 163.080,99.597 166.600 C 99.829 170.120,100.189 175.430,100.398 178.400 C 100.606 181.370,100.968 186.590,101.202 190.000 C 101.436 193.410,101.806 198.810,102.025 202.000 C 102.640 210.948,103.176 218.098,103.665 223.853 L 104.111 229.107 124.956 229.310 C 146.193 229.517,147.251 229.588,154.400 231.281 C 171.374 235.302,186.490 246.003,196.095 260.800 C 201.538 269.185,205.800 280.871,206.605 289.613 C 206.899 292.817,207.116 293.185,209.180 293.992 C 219.964 298.209,225.700 314.656,219.528 323.662 C 219.127 324.246,218.800 324.851,218.800 325.006 C 218.800 325.162,218.080 326.149,217.200 327.200 C 215.256 329.522,215.255 329.387,217.211 331.586 C 218.085 332.568,218.800 333.530,218.800 333.724 C 218.800 333.918,219.127 334.554,219.528 335.138 C 225.776 344.254,220.615 359.168,209.263 364.800 C 207.353 365.748,206.761 366.258,206.583 367.108 C 204.285 378.105,199.080 386.407,190.835 392.224 C 189.295 393.311,188.027 394.335,188.017 394.500 C 188.008 394.665,200.350 394.800,215.445 394.800 L 242.891 394.800 242.644 393.100 C 242.509 392.165,242.209 389.600,241.978 387.400 C 241.500 382.848,241.230 380.347,239.800 367.200 C 239.238 362.030,238.593 356.090,238.368 354.000 C 238.142 351.910,237.792 348.670,237.589 346.800 C 237.387 344.930,237.027 341.600,236.789 339.400 C 236.552 337.200,236.186 333.870,235.976 332.000 C 235.766 330.130,235.411 326.890,235.187 324.800 C 234.963 322.710,234.599 319.380,234.378 317.400 C 234.157 315.420,233.807 312.180,233.600 310.200 C 233.239 306.740,232.844 303.137,231.979 295.400 C 231.757 293.420,231.407 290.180,231.200 288.200 C 230.993 286.220,230.639 282.935,230.412 280.900 C 230.185 278.865,229.824 275.625,229.610 273.700 C 229.395 271.775,229.026 268.400,228.790 266.200 C 228.554 264.000,228.194 260.670,227.990 258.800 C 227.786 256.930,227.437 253.690,227.213 251.600 C 226.989 249.510,226.624 246.180,226.403 244.200 C 226.181 242.220,225.818 238.800,225.596 236.600 C 225.374 234.400,225.097 232.180,224.980 231.666 C 224.435 229.266,224.622 229.200,232.025 229.200 L 238.795 229.200 238.898 195.900 L 239.000 162.600 255.600 162.400 L 272.200 162.200 272.489 159.200 C 272.648 157.550,272.888 155.283,273.023 154.163 C 273.216 152.566,273.126 151.983,272.606 151.463 C 271.726 150.583,99.015 150.421,98.715 151.300 M179.000 168.600 L 179.000 174.200 148.400 174.200 L 117.800 174.200 117.687 169.021 C 117.626 166.173,117.665 163.607,117.776 163.319 C 117.940 162.892,123.640 162.814,148.488 162.897 L 179.000 163.000 179.000 168.600 M206.311 168.500 L 206.200 174.200 198.800 174.200 L 191.400 174.200 191.284 169.400 C 191.108 162.104,190.293 162.800,199.019 162.800 L 206.422 162.800 206.311 168.500 " stroke="none" fill="#26d6e2" fill-rule="evenodd"></path><path id="path2" d="M228.505 12.687 C 229.114 12.779,230.014 12.777,230.505 12.682 C 230.997 12.587,230.500 12.511,229.400 12.514 C 228.300 12.517,227.897 12.595,228.505 12.687 M231.800 13.057 C 233.837 14.864,234.587 15.391,233.802 14.463 C 233.366 13.948,232.647 13.341,232.204 13.114 C 231.762 12.887,231.580 12.862,231.800 13.057 M234.914 18.600 C 234.917 19.700,234.995 20.103,235.087 19.495 C 235.179 18.886,235.177 17.986,235.082 17.495 C 234.987 17.003,234.911 17.500,234.914 18.600 M176.800 80.000 L 176.800 84.800 182.400 84.800 L 188.000 84.800 188.000 80.000 L 188.000 75.200 182.400 75.200 L 176.800 75.200 176.800 80.000 M367.999 166.300 C 367.999 166.465,369.754 166.552,371.899 166.494 C 379.126 166.297,379.835 166.148,373.900 166.074 C 370.655 166.033,368.000 166.135,367.999 166.300 M251.062 174.700 C 250.960 174.865,253.452 175.000,256.600 175.000 C 259.748 175.000,262.240 174.865,262.138 174.700 C 262.036 174.535,259.544 174.400,256.600 174.400 C 253.656 174.400,251.164 174.535,251.062 174.700 M297.861 174.700 C 297.759 174.865,300.133 175.000,303.138 175.000 L 308.600 175.000 308.710 220.000 C 308.770 244.750,308.722 265.405,308.602 265.900 C 308.343 266.971,298.287 267.346,297.865 266.300 C 297.754 266.025,297.649 268.185,297.632 271.100 L 297.600 276.400 303.157 276.400 C 307.856 276.400,308.752 276.302,308.957 275.767 C 309.462 274.452,309.229 175.389,308.720 174.880 C 308.185 174.345,298.184 174.179,297.861 174.700 M344.496 233.667 C 344.443 256.474,344.509 275.419,344.643 275.767 C 344.985 276.658,347.159 276.606,347.449 275.700 C 347.572 275.315,347.827 274.640,348.016 274.200 C 348.205 273.760,348.629 272.590,348.958 271.600 C 349.287 270.610,349.913 268.810,350.349 267.600 C 350.785 266.390,352.235 262.358,353.571 258.641 L 356.000 251.881 355.986 237.641 L 355.972 223.400 354.445 227.800 C 353.606 230.220,352.522 233.280,352.037 234.600 C 351.553 235.920,350.887 237.810,350.558 238.800 C 350.229 239.790,349.802 240.960,349.608 241.400 C 349.232 242.258,347.807 246.260,346.072 251.338 L 345.000 254.477 344.796 223.338 L 344.593 192.200 344.496 233.667 M250.888 224.200 L 251.000 229.000 255.854 229.112 L 260.708 229.224 261.541 231.112 L 262.374 233.000 262.387 226.200 L 262.400 219.400 256.588 219.400 L 250.777 219.400 250.888 224.200 M368.088 224.200 L 368.200 229.000 373.900 229.111 L 379.600 229.222 379.600 224.311 L 379.600 219.400 373.788 219.400 L 367.977 219.400 368.088 224.200 M274.434 253.156 L 274.400 267.311 276.054 271.856 L 277.709 276.400 281.454 276.400 L 285.200 276.400 285.200 271.544 C 285.200 267.723,285.074 266.594,284.608 266.244 C 284.077 265.846,282.600 262.190,280.953 257.200 C 280.627 256.210,280.198 255.040,280.000 254.600 C 279.802 254.160,279.371 252.990,279.042 252.000 C 278.713 251.010,277.695 248.130,276.780 245.600 C 275.864 243.070,274.970 240.550,274.792 240.000 C 274.614 239.448,274.453 245.342,274.434 253.156 M238.563 244.300 C 238.712 245.785,238.997 248.440,239.195 250.200 C 239.599 253.784,240.048 257.918,241.607 272.400 C 241.808 274.270,242.154 277.420,242.377 279.400 C 242.599 281.380,242.963 284.710,243.187 286.800 C 243.411 288.890,243.766 292.130,243.976 294.000 C 244.186 295.870,244.542 299.110,244.768 301.200 C 244.993 303.290,245.638 309.230,246.200 314.400 C 247.951 330.496,248.039 331.312,248.400 334.800 C 248.594 336.670,248.954 340.000,249.200 342.200 C 249.446 344.400,249.817 347.775,250.024 349.700 C 250.231 351.625,250.585 354.865,250.812 356.900 C 251.039 358.935,251.409 362.310,251.634 364.400 C 251.860 366.490,252.204 369.640,252.399 371.400 C 252.594 373.160,252.948 376.400,253.185 378.600 C 253.423 380.800,253.748 383.680,253.908 385.000 L 254.200 387.400 312.179 387.501 C 344.067 387.557,370.290 387.467,370.452 387.301 C 370.613 387.136,371.121 383.490,371.580 379.200 C 372.039 374.910,372.583 369.960,372.788 368.200 C 372.994 366.440,373.356 363.200,373.592 361.000 C 373.994 357.257,374.197 355.415,375.190 346.500 C 375.581 342.986,375.683 342.049,376.392 335.400 C 376.603 333.420,376.967 330.090,377.200 328.000 C 377.433 325.910,377.809 322.490,378.034 320.400 C 378.260 318.310,378.604 315.160,378.800 313.400 C 378.996 311.640,379.346 308.445,379.578 306.300 C 379.810 304.155,380.190 300.645,380.422 298.500 C 380.654 296.355,381.004 293.160,381.200 291.400 C 381.396 289.640,381.740 286.490,381.966 284.400 C 382.191 282.310,382.566 278.890,382.797 276.800 C 383.029 274.710,383.384 271.470,383.585 269.600 C 383.787 267.730,384.148 264.400,384.387 262.200 C 384.625 260.000,384.997 256.580,385.212 254.600 C 385.427 252.620,385.791 249.110,386.021 246.800 C 386.250 244.490,386.514 242.375,386.607 242.100 C 386.737 241.712,385.166 241.600,379.614 241.600 C 372.530 241.600,372.451 241.610,372.202 242.500 C 372.063 242.995,371.790 243.760,371.595 244.200 C 371.400 244.640,370.973 245.810,370.647 246.800 C 370.320 247.790,369.489 250.130,368.800 252.000 C 368.111 253.870,367.273 256.210,366.939 257.200 C 366.179 259.448,360.625 275.063,359.576 277.900 C 357.686 283.014,357.226 284.296,356.745 285.800 C 356.464 286.680,356.069 287.625,355.868 287.900 C 355.579 288.295,346.408 288.400,312.341 288.400 L 269.180 288.400 268.747 287.300 C 268.509 286.695,267.805 284.760,267.182 283.000 C 266.558 281.240,265.486 278.270,264.798 276.400 C 264.110 274.530,263.280 272.190,262.953 271.200 C 262.627 270.210,262.202 269.040,262.008 268.600 C 261.631 267.742,259.929 262.947,258.955 260.000 C 258.627 259.010,258.198 257.840,258.000 257.400 C 257.802 256.960,257.378 255.790,257.058 254.800 C 256.738 253.810,256.202 252.280,255.867 251.400 C 255.533 250.520,254.596 247.955,253.785 245.700 L 252.311 241.600 245.301 241.600 L 238.290 241.600 238.563 244.300 M321.200 271.500 L 321.200 276.400 326.800 276.400 L 332.400 276.400 332.400 271.500 L 332.401 266.600 326.801 266.600 L 321.201 266.600 321.200 271.500 M368.639 302.100 C 368.346 304.356,367.804 309.214,367.200 315.000 C 366.993 316.980,366.639 320.265,366.412 322.300 C 366.185 324.335,365.831 327.575,365.624 329.500 C 365.417 331.425,365.061 334.710,364.833 336.800 C 363.694 347.238,361.526 367.486,361.150 371.200 C 360.916 373.510,360.540 375.625,360.313 375.900 C 359.710 376.633,265.082 376.633,264.503 375.900 C 264.285 375.625,263.990 374.050,263.846 372.400 C 263.601 369.576,263.270 366.413,262.383 358.400 C 262.176 356.530,261.823 353.290,261.600 351.200 C 261.377 349.110,261.025 345.870,260.819 344.000 C 260.613 342.130,260.260 338.890,260.034 336.800 C 259.809 334.710,259.433 331.290,259.200 329.200 C 258.967 327.110,258.592 323.690,258.368 321.600 C 258.143 319.510,257.795 316.270,257.594 314.400 C 257.393 312.530,257.050 309.283,256.832 307.185 C 256.615 305.087,256.315 302.612,256.167 301.685 L 255.898 300.000 312.405 300.000 L 368.911 300.000 368.639 302.100 M19.995 335.742 C 10.006 337.895,9.352 351.672,19.110 354.382 C 20.736 354.833,54.082 354.985,54.524 354.543 C 54.666 354.401,53.301 353.267,51.491 352.022 C 48.471 349.945,42.847 345.969,35.200 340.506 C 27.047 334.681,26.179 334.410,19.995 335.742 M49.600 335.588 C 49.600 335.801,51.597 337.376,54.038 339.088 C 56.479 340.799,59.462 342.891,60.666 343.736 L 62.857 345.271 69.233 345.220 L 75.610 345.168 77.505 346.453 C 79.759 347.981,84.887 351.613,89.609 355.024 L 93.019 357.488 96.809 354.793 C 101.435 351.505,101.432 351.616,97.000 348.494 C 95.020 347.099,91.183 344.393,88.474 342.479 C 85.765 340.566,82.277 338.145,80.722 337.100 L 77.895 335.200 63.748 335.200 C 54.880 335.200,49.600 335.345,49.600 335.588 M100.220 335.568 C 100.095 335.770,101.749 337.147,103.896 338.628 C 106.043 340.108,108.700 341.979,109.800 342.784 C 115.785 347.164,117.600 348.342,117.600 347.847 C 117.600 347.550,118.321 346.829,119.202 346.246 L 120.803 345.186 140.805 345.207 L 160.807 345.228 162.965 343.714 C 164.153 342.881,167.121 340.799,169.562 339.088 C 172.003 337.376,174.000 335.801,174.000 335.588 C 174.000 335.076,100.536 335.056,100.220 335.568 M195.680 335.620 C 194.759 335.989,191.177 338.324,190.800 338.800 C 190.690 338.939,189.700 339.659,188.600 340.401 C 187.500 341.142,184.170 343.472,181.200 345.579 C 174.381 350.416,174.615 350.252,171.457 352.435 C 169.997 353.444,168.922 354.389,169.068 354.535 C 169.515 354.982,201.247 354.838,202.890 354.382 C 210.673 352.220,212.398 341.546,205.683 337.102 C 203.422 335.606,197.794 334.772,195.680 335.620 M110.136 360.100 L 108.916 361.000 111.800 361.000 L 114.684 361.000 113.464 360.100 C 112.794 359.605,112.045 359.200,111.800 359.200 C 111.555 359.200,110.806 359.605,110.136 360.100 " stroke="none" fill="#f0531b" fill-rule="evenodd"></path><path id="path3" d="M224.200 0.272 C 223.320 0.372,222.429 0.621,222.220 0.827 C 222.011 1.032,221.257 1.200,220.544 1.200 C 219.831 1.200,219.136 1.380,219.000 1.600 C 218.864 1.820,218.054 2.000,217.200 2.000 C 216.346 2.000,215.536 2.180,215.400 2.400 C 215.264 2.620,214.544 2.800,213.800 2.800 C 213.056 2.800,212.336 2.980,212.200 3.200 C 212.064 3.420,211.333 3.600,210.576 3.600 C 209.819 3.600,209.200 3.780,209.200 4.000 C 209.200 4.220,208.480 4.400,207.600 4.400 C 206.720 4.400,206.000 4.580,206.000 4.800 C 206.000 5.020,205.280 5.200,204.400 5.200 C 203.520 5.200,202.800 5.380,202.800 5.600 C 202.800 5.820,202.080 6.000,201.200 6.000 C 200.320 6.000,199.600 6.180,199.600 6.400 C 199.600 6.620,198.880 6.800,198.000 6.800 C 197.120 6.800,196.400 6.980,196.400 7.200 C 196.400 7.420,195.680 7.600,194.800 7.600 C 193.920 7.600,193.200 7.762,193.200 7.959 C 193.200 8.157,191.939 8.445,190.398 8.600 C 188.858 8.755,187.497 9.043,187.375 9.241 C 187.253 9.438,186.454 9.600,185.600 9.600 C 184.746 9.600,183.936 9.780,183.800 10.000 C 183.664 10.220,182.944 10.400,182.200 10.400 C 181.456 10.400,180.736 10.580,180.600 10.800 C 180.464 11.020,179.744 11.200,179.000 11.200 C 178.256 11.200,177.536 11.380,177.400 11.600 C 177.264 11.820,176.443 12.000,175.576 12.000 C 174.709 12.000,174.000 12.180,174.000 12.400 C 174.000 12.620,173.280 12.800,172.400 12.800 C 171.520 12.800,170.800 12.980,170.800 13.200 C 170.800 13.420,170.080 13.600,169.200 13.600 C 168.320 13.600,167.600 13.780,167.600 14.000 C 167.600 14.220,166.957 14.400,166.171 14.400 C 163.424 14.400,163.600 11.981,163.600 49.771 L 163.600 84.000 132.800 84.000 C 105.566 84.000,102.000 84.070,102.000 84.605 C 102.000 84.938,101.842 85.523,101.649 85.905 C 101.060 87.072,100.400 89.408,100.400 90.328 C 100.400 90.808,100.220 91.200,100.000 91.200 C 99.780 91.200,99.600 91.639,99.600 92.176 C 99.600 92.713,99.420 93.264,99.200 93.400 C 98.980 93.536,98.800 94.087,98.800 94.624 C 98.800 95.161,98.620 95.600,98.400 95.600 C 98.180 95.600,98.000 96.140,98.000 96.800 C 98.000 97.460,97.820 98.000,97.600 98.000 C 97.380 98.000,97.200 98.540,97.200 99.200 C 97.200 99.860,97.020 100.400,96.800 100.400 C 96.580 100.400,96.400 100.940,96.400 101.600 C 96.400 102.260,96.220 102.800,96.000 102.800 C 95.780 102.800,95.600 103.340,95.600 104.000 C 95.600 104.660,95.420 105.200,95.200 105.200 C 94.980 105.200,94.800 105.704,94.800 106.320 C 94.800 106.936,94.635 107.611,94.434 107.820 C 94.232 108.029,94.007 108.650,93.934 109.200 L 93.800 110.200 87.276 110.400 C 80.180 110.618,79.234 110.978,79.209 113.476 C 79.204 113.958,79.020 114.464,78.800 114.600 C 78.580 114.736,78.400 115.366,78.400 116.000 C 78.400 116.634,78.220 117.264,78.000 117.400 C 77.780 117.536,77.600 118.177,77.600 118.824 C 77.600 119.471,77.420 120.000,77.200 120.000 C 76.980 120.000,76.800 120.452,76.800 121.005 C 76.800 121.558,76.637 122.323,76.437 122.705 C 75.902 123.728,74.800 127.578,74.800 128.422 C 74.800 128.824,74.620 129.264,74.400 129.400 C 74.180 129.536,74.000 130.166,74.000 130.800 C 74.000 131.434,73.820 132.064,73.600 132.200 C 73.380 132.336,73.200 132.977,73.200 133.624 C 73.200 134.271,73.020 134.800,72.800 134.800 C 72.580 134.800,72.400 135.340,72.400 136.000 C 72.400 136.660,72.220 137.200,72.000 137.200 C 71.780 137.200,71.600 137.740,71.600 138.400 C 71.600 139.060,71.420 139.600,71.200 139.600 C 70.980 139.600,70.800 140.140,70.800 140.800 C 70.800 141.460,70.620 142.000,70.400 142.000 C 70.180 142.000,70.000 142.529,70.000 143.176 C 70.000 143.823,69.820 144.464,69.600 144.600 C 69.380 144.736,69.200 145.377,69.200 146.024 C 69.200 146.671,69.020 147.200,68.800 147.200 C 68.580 147.200,68.400 147.740,68.400 148.400 C 68.400 149.060,68.220 149.600,68.000 149.600 C 67.780 149.600,67.600 150.140,67.600 150.800 L 67.600 152.000 77.000 152.000 L 86.400 152.000 86.400 157.400 C 86.400 160.733,86.553 162.800,86.800 162.800 C 87.048 162.800,87.200 165.000,87.200 168.600 C 87.200 172.200,87.352 174.400,87.600 174.400 C 87.848 174.400,88.000 176.533,88.000 180.000 C 88.000 183.467,88.152 185.600,88.400 185.600 C 88.648 185.600,88.800 187.725,88.800 191.176 C 88.800 194.463,88.964 196.854,89.200 197.000 C 89.435 197.145,89.600 199.471,89.600 202.624 C 89.600 205.941,89.753 208.000,90.000 208.000 C 90.248 208.000,90.400 210.200,90.400 213.800 C 90.400 217.400,90.552 219.600,90.800 219.600 C 91.042 219.600,91.200 221.333,91.200 224.000 L 91.200 228.400 84.424 228.400 C 80.337 228.400,77.549 228.559,77.400 228.800 C 77.264 229.020,75.914 229.200,74.400 229.200 C 72.886 229.200,71.536 229.380,71.400 229.600 C 71.264 229.820,70.353 230.000,69.376 230.000 C 68.399 230.000,67.600 230.180,67.600 230.400 C 67.600 230.620,66.880 230.800,66.000 230.800 C 65.120 230.800,64.400 230.980,64.400 231.200 C 64.400 231.420,63.860 231.600,63.200 231.600 C 62.540 231.600,62.000 231.780,62.000 232.000 C 62.000 232.220,61.561 232.400,61.024 232.400 C 60.487 232.400,59.936 232.580,59.800 232.800 C 59.664 233.020,59.113 233.200,58.576 233.200 C 58.039 233.200,57.600 233.380,57.600 233.600 C 57.600 233.820,57.240 234.000,56.800 234.000 C 56.360 234.000,56.000 234.180,56.000 234.400 C 56.000 234.620,55.561 234.800,55.024 234.800 C 54.487 234.800,53.936 234.980,53.800 235.200 C 53.664 235.420,53.203 235.600,52.776 235.600 C 52.349 235.600,52.000 235.780,52.000 236.000 C 52.000 236.220,51.680 236.400,51.288 236.400 C 50.897 236.400,50.317 236.760,50.000 237.200 C 49.683 237.640,49.103 238.000,48.712 238.000 C 48.320 238.000,48.000 238.180,48.000 238.400 C 48.000 238.620,47.640 238.800,47.200 238.800 C 46.760 238.800,46.400 238.950,46.400 239.132 C 46.400 239.315,45.905 239.719,45.300 240.030 C 44.695 240.340,43.909 240.911,43.553 241.297 C 43.197 241.684,42.710 242.000,42.471 242.000 C 42.232 242.000,41.623 242.409,41.118 242.909 C 40.613 243.408,39.570 244.259,38.800 244.799 C 37.078 246.006,30.000 253.122,30.000 253.647 C 30.000 253.856,29.370 254.657,28.600 255.427 C 27.830 256.197,27.200 256.988,27.200 257.185 C 27.200 257.382,26.975 257.781,26.699 258.071 C 25.886 258.930,24.000 261.949,24.000 262.391 C 24.000 262.616,23.820 262.800,23.600 262.800 C 23.380 262.800,23.200 263.160,23.200 263.600 C 23.200 264.040,23.020 264.400,22.800 264.400 C 22.580 264.400,22.400 264.760,22.400 265.200 C 22.400 265.640,22.220 266.000,22.000 266.000 C 21.780 266.000,21.600 266.360,21.600 266.800 C 21.600 267.240,21.420 267.600,21.200 267.600 C 20.980 267.600,20.800 267.960,20.800 268.400 C 20.800 268.840,20.620 269.200,20.400 269.200 C 20.180 269.200,20.000 269.560,20.000 270.000 C 20.000 270.440,19.820 270.800,19.600 270.800 C 19.380 270.800,19.200 271.340,19.200 272.000 C 19.200 272.660,19.020 273.200,18.800 273.200 C 18.580 273.200,18.400 273.549,18.400 273.976 C 18.400 274.403,18.220 274.864,18.000 275.000 C 17.780 275.136,17.600 275.777,17.600 276.424 C 17.600 277.071,17.420 277.600,17.200 277.600 C 16.980 277.600,16.800 278.140,16.800 278.800 C 16.800 279.460,16.638 280.000,16.440 280.000 C 16.099 280.000,15.870 281.221,15.352 285.800 C 15.228 286.900,14.963 287.971,14.763 288.180 C 14.563 288.389,14.400 289.384,14.400 290.392 L 14.400 292.223 11.626 293.532 C 8.947 294.795,3.600 299.351,3.600 300.369 C 3.600 300.606,3.420 300.800,3.200 300.800 C 2.980 300.800,2.800 301.070,2.800 301.400 C 2.800 301.730,2.620 302.000,2.400 302.000 C 2.180 302.000,2.000 302.360,2.000 302.800 C 2.000 303.240,1.820 303.600,1.600 303.600 C 1.380 303.600,1.200 303.945,1.200 304.367 C 1.200 304.788,0.975 305.208,0.700 305.300 C 0.322 305.426,0.200 307.431,0.200 313.513 C 0.200 319.417,0.333 321.693,0.700 322.060 C 0.975 322.335,1.200 322.884,1.200 323.280 C 1.200 323.676,1.380 324.000,1.600 324.000 C 1.820 324.000,2.000 324.270,2.000 324.600 C 2.000 324.930,2.180 325.200,2.400 325.200 C 2.620 325.200,2.800 325.488,2.800 325.840 C 2.800 326.191,3.340 326.983,4.000 327.600 C 5.125 328.651,5.612 330.000,4.868 330.000 C 4.685 330.000,4.280 330.495,3.968 331.100 C 3.655 331.705,3.085 332.549,2.700 332.975 C 2.315 333.402,2.000 333.987,2.000 334.275 C 2.000 334.564,1.820 334.800,1.600 334.800 C 1.380 334.800,1.200 335.124,1.200 335.520 C 1.200 335.916,0.975 336.465,0.700 336.740 C 0.333 337.107,0.200 339.383,0.200 345.287 C 0.200 351.369,0.322 353.374,0.700 353.500 C 0.975 353.592,1.200 354.012,1.200 354.433 C 1.200 354.855,1.380 355.200,1.600 355.200 C 1.820 355.200,2.000 355.560,2.000 356.000 C 2.000 356.440,2.180 356.800,2.400 356.800 C 2.620 356.800,2.800 356.983,2.800 357.206 C 2.800 357.622,8.606 363.600,9.010 363.600 C 9.133 363.600,9.620 363.960,10.092 364.400 C 10.564 364.840,11.277 365.200,11.675 365.200 C 12.074 365.200,12.400 365.380,12.400 365.600 C 12.400 365.820,12.850 366.000,13.400 366.000 C 14.194 366.000,14.400 366.202,14.400 366.976 C 14.400 367.513,14.580 368.064,14.800 368.200 C 15.020 368.336,15.200 369.157,15.200 370.024 C 15.200 370.891,15.380 371.600,15.600 371.600 C 15.820 371.600,16.000 372.129,16.000 372.776 C 16.000 373.423,16.180 374.064,16.400 374.200 C 16.620 374.336,16.800 374.797,16.800 375.224 C 16.800 375.651,16.980 376.000,17.200 376.000 C 17.420 376.000,17.600 376.360,17.600 376.800 C 17.600 377.240,17.780 377.600,18.000 377.600 C 18.220 377.600,18.400 378.016,18.400 378.525 C 18.400 379.033,18.760 379.836,19.200 380.308 C 19.640 380.780,20.000 381.404,20.000 381.695 C 20.000 381.986,20.360 382.483,20.800 382.800 C 21.240 383.117,21.600 383.610,21.600 383.895 C 21.600 384.591,29.255 392.396,29.940 392.398 C 30.236 392.399,30.983 392.940,31.600 393.600 C 32.217 394.260,33.009 394.800,33.360 394.800 C 33.712 394.800,34.000 394.980,34.000 395.200 C 34.000 395.420,34.360 395.600,34.800 395.600 C 35.240 395.600,35.600 395.780,35.600 396.000 C 35.600 396.220,35.960 396.400,36.400 396.400 C 36.840 396.400,37.200 396.580,37.200 396.800 C 37.200 397.020,37.560 397.200,38.000 397.200 C 38.440 397.200,38.800 397.380,38.800 397.600 C 38.800 397.820,39.329 398.000,39.976 398.000 C 40.623 398.000,41.264 398.180,41.400 398.400 C 41.536 398.620,42.141 398.800,42.744 398.800 C 43.347 398.800,44.065 399.025,44.340 399.300 C 45.074 400.034,177.255 400.034,177.500 399.300 C 177.596 399.013,178.336 398.800,179.233 398.800 C 180.095 398.800,180.800 398.620,180.800 398.400 C 180.800 398.180,181.340 398.000,182.000 398.000 C 182.660 398.000,183.200 397.820,183.200 397.600 C 183.200 397.380,183.560 397.200,184.000 397.200 C 184.440 397.200,184.800 397.020,184.800 396.800 C 184.800 396.580,185.160 396.400,185.600 396.400 C 186.040 396.400,186.400 396.220,186.400 396.000 C 186.400 395.780,186.772 395.600,187.227 395.600 C 187.849 395.600,187.996 395.417,187.820 394.862 C 187.639 394.294,188.094 393.786,189.782 392.665 C 197.260 387.699,203.903 378.090,205.588 369.800 C 206.346 366.071,206.597 365.680,208.892 364.655 C 222.609 358.529,225.604 343.497,215.773 330.117 C 215.153 329.272,215.193 329.149,216.698 327.317 C 225.667 316.389,221.658 299.205,209.000 294.319 C 207.050 293.566,206.525 292.616,206.183 289.220 C 204.505 272.554,192.765 252.358,179.600 243.492 C 178.610 242.825,177.440 241.965,177.000 241.579 C 176.560 241.193,175.525 240.500,174.700 240.039 C 173.875 239.578,172.525 238.811,171.700 238.335 C 167.222 235.751,160.155 232.932,155.200 231.753 C 147.824 229.997,146.810 229.929,125.200 229.729 C 113.650 229.622,104.074 229.414,103.920 229.267 C 103.766 229.120,103.450 226.030,103.216 222.400 C 102.983 218.770,102.610 213.190,102.387 210.000 C 101.978 204.140,101.507 197.320,100.791 186.900 C 100.260 179.160,99.645 170.457,99.189 164.200 C 98.980 161.340,98.691 157.155,98.547 154.900 L 98.285 150.800 185.500 150.800 C 262.655 150.800,272.741 150.869,272.945 151.400 C 273.142 151.915,274.879 152.000,285.187 152.000 L 297.200 152.000 297.200 150.800 C 297.200 150.140,297.020 149.600,296.800 149.600 C 296.580 149.600,296.400 149.060,296.400 148.400 C 296.400 147.740,296.220 147.200,296.000 147.200 C 295.780 147.200,295.600 146.671,295.600 146.024 C 295.600 145.377,295.420 144.736,295.200 144.600 C 294.980 144.464,294.800 143.823,294.800 143.176 C 294.800 142.529,294.620 142.000,294.400 142.000 C 294.180 142.000,294.000 141.460,294.000 140.800 C 294.000 140.140,293.820 139.600,293.600 139.600 C 293.380 139.600,293.200 139.060,293.200 138.400 C 293.200 137.740,293.020 137.200,292.800 137.200 C 292.580 137.200,292.400 136.660,292.400 136.000 C 292.400 135.340,292.244 134.800,292.054 134.800 C 291.864 134.800,291.593 133.953,291.451 132.919 C 291.183 130.966,290.557 128.704,289.951 127.505 C 289.758 127.123,289.600 126.459,289.600 126.029 C 289.600 125.599,289.420 125.136,289.200 125.000 C 288.980 124.864,288.800 124.223,288.800 123.576 C 288.800 122.929,288.620 122.400,288.400 122.400 C 288.180 122.400,288.000 121.860,288.000 121.200 C 288.000 120.540,287.820 120.000,287.600 120.000 C 287.380 120.000,287.200 119.471,287.200 118.824 C 287.200 118.177,287.020 117.536,286.800 117.400 C 286.580 117.264,286.400 116.634,286.400 116.000 C 286.400 115.366,286.220 114.736,286.000 114.600 C 285.780 114.464,285.596 113.958,285.591 113.476 C 285.566 110.978,284.620 110.618,277.524 110.400 L 271.000 110.200 270.866 109.200 C 270.793 108.650,270.568 108.029,270.366 107.820 C 270.165 107.611,270.000 106.936,270.000 106.320 C 270.000 105.704,269.820 105.200,269.600 105.200 C 269.380 105.200,269.200 104.660,269.200 104.000 C 269.200 103.340,269.020 102.800,268.800 102.800 C 268.580 102.800,268.400 102.260,268.400 101.600 C 268.400 100.940,268.220 100.400,268.000 100.400 C 267.780 100.400,267.600 99.860,267.600 99.200 C 267.600 98.540,267.420 98.000,267.200 98.000 C 266.980 98.000,266.800 97.460,266.800 96.800 C 266.800 96.140,266.620 95.600,266.400 95.600 C 266.180 95.600,266.000 95.161,266.000 94.624 C 266.000 94.087,265.820 93.536,265.600 93.400 C 265.380 93.264,265.200 92.713,265.200 92.176 C 265.200 91.639,265.020 91.200,264.800 91.200 C 264.580 91.200,264.400 90.660,264.400 90.000 C 264.400 89.340,264.220 88.800,264.000 88.800 C 263.780 88.800,263.600 88.260,263.600 87.600 C 263.600 86.940,263.420 86.400,263.200 86.400 C 262.980 86.400,262.800 85.860,262.800 85.200 L 262.800 84.000 232.000 84.000 L 201.200 84.000 201.200 64.000 L 201.200 44.000 202.800 44.000 C 203.680 44.000,204.400 43.820,204.400 43.600 C 204.400 43.380,205.019 43.200,205.776 43.200 C 206.533 43.200,207.264 43.020,207.400 42.800 C 207.536 42.580,208.179 42.400,208.829 42.400 C 209.479 42.400,210.323 42.236,210.705 42.036 C 211.087 41.836,212.660 41.487,214.200 41.259 C 218.405 40.639,219.719 40.380,220.600 40.000 C 221.468 39.625,223.230 39.271,225.900 38.934 C 226.835 38.816,227.600 38.558,227.600 38.360 C 227.600 38.162,228.320 38.000,229.200 38.000 C 230.080 38.000,230.800 37.820,230.800 37.600 C 230.800 37.380,231.520 37.200,232.400 37.200 C 233.280 37.200,234.000 37.020,234.000 36.800 C 234.000 36.580,234.540 36.400,235.200 36.400 C 235.860 36.400,236.400 36.220,236.400 36.000 C 236.400 35.780,236.634 35.600,236.920 35.600 C 237.656 35.600,239.593 34.659,239.597 34.300 C 239.599 34.135,239.784 34.000,240.009 34.000 C 240.656 34.000,244.800 29.683,244.800 29.009 C 244.800 28.674,244.980 28.400,245.200 28.400 C 245.420 28.400,245.600 28.040,245.600 27.600 C 245.600 27.160,245.780 26.800,246.000 26.800 C 246.220 26.800,246.400 26.440,246.400 26.000 C 246.400 25.560,246.580 25.200,246.800 25.200 C 247.020 25.200,247.200 24.581,247.200 23.824 C 247.200 23.067,247.380 22.336,247.600 22.200 C 247.820 22.064,248.000 20.534,248.000 18.800 C 248.000 17.066,247.820 15.536,247.600 15.400 C 247.380 15.264,247.200 14.454,247.200 13.600 C 247.200 12.746,247.020 11.936,246.800 11.800 C 246.580 11.664,246.400 11.113,246.400 10.576 C 246.400 10.039,246.220 9.600,246.000 9.600 C 245.780 9.600,245.600 9.370,245.600 9.088 C 245.600 8.807,245.240 8.317,244.800 8.000 C 244.360 7.683,244.000 7.175,244.000 6.872 C 244.000 6.146,240.608 2.959,239.147 2.312 C 238.516 2.033,238.000 1.669,238.000 1.502 C 238.000 1.336,237.676 1.200,237.280 1.200 C 236.884 1.200,236.343 0.983,236.078 0.718 C 235.581 0.221,227.359 -0.088,224.200 0.272 M232.247 12.649 C 236.624 14.726,236.406 24.400,231.982 24.400 C 231.578 24.400,231.148 24.560,231.027 24.756 C 230.906 24.951,230.221 25.212,229.504 25.334 C 227.978 25.593,225.261 26.189,223.000 26.760 C 222.120 26.982,220.860 27.271,220.200 27.401 C 219.023 27.633,217.800 27.926,214.600 28.742 C 213.720 28.966,212.190 29.331,211.200 29.553 C 210.210 29.775,207.870 30.316,206.000 30.756 C 201.101 31.909,197.914 32.643,193.600 33.610 C 191.510 34.079,189.485 34.551,189.100 34.658 C 188.443 34.842,188.400 36.394,188.400 60.027 L 188.400 85.200 182.397 85.200 L 176.395 85.200 176.497 54.910 L 176.600 24.619 177.600 24.338 C 178.150 24.183,179.365 23.863,180.300 23.628 C 181.235 23.393,182.765 23.005,183.700 22.767 C 184.635 22.529,186.075 22.169,186.900 21.967 C 187.725 21.765,189.075 21.424,189.900 21.208 C 190.725 20.993,195.630 19.802,200.800 18.562 C 205.970 17.322,213.800 15.440,218.200 14.379 C 222.600 13.319,226.560 12.370,227.000 12.272 C 228.765 11.877,230.951 12.034,232.247 12.649 M253.444 96.706 C 253.688 96.868,254.118 97.720,254.399 98.600 C 254.681 99.480,255.045 100.560,255.210 101.000 C 255.374 101.440,255.727 102.610,255.993 103.600 C 256.260 104.590,256.640 105.713,256.839 106.095 C 257.038 106.477,257.200 107.116,257.200 107.515 C 257.200 107.914,257.365 108.411,257.567 108.620 C 257.770 108.829,257.995 109.630,258.067 110.400 L 258.200 111.800 182.400 111.800 L 106.600 111.800 106.711 110.600 C 106.772 109.940,106.975 109.040,107.163 108.600 C 107.351 108.160,107.905 106.450,108.393 104.800 C 108.882 103.150,109.444 101.487,109.641 101.105 C 109.838 100.723,110.000 100.059,110.000 99.629 C 110.000 99.199,110.180 98.736,110.400 98.600 C 110.620 98.464,110.800 98.018,110.800 97.610 C 110.800 97.201,111.025 96.776,111.300 96.665 C 112.102 96.341,252.954 96.382,253.444 96.706 M275.842 123.900 C 275.961 124.285,276.225 124.913,276.429 125.295 C 276.633 125.677,276.800 126.264,276.800 126.600 C 276.800 126.936,276.962 127.523,277.161 127.905 C 277.360 128.287,277.740 129.410,278.007 130.400 C 278.273 131.390,278.627 132.560,278.792 133.000 C 280.453 137.419,280.720 138.815,279.981 139.210 C 278.974 139.749,85.817 139.745,84.810 139.205 C 84.098 138.825,84.098 138.738,84.782 136.705 C 85.173 135.547,85.895 133.250,86.387 131.600 C 86.879 129.950,87.444 128.287,87.641 127.905 C 87.838 127.523,88.000 126.936,88.000 126.600 C 88.000 126.264,88.167 125.677,88.371 125.295 C 88.575 124.913,88.839 124.285,88.958 123.900 C 89.164 123.236,93.963 123.200,182.400 123.200 C 270.837 123.200,275.636 123.236,275.842 123.900 M355.200 166.400 L 355.200 179.200 338.400 179.200 L 321.600 179.200 321.600 170.600 L 321.600 162.000 303.200 162.000 L 284.800 162.000 284.800 170.600 L 284.800 179.200 279.808 179.200 L 274.816 179.200 274.708 170.700 L 274.600 162.200 273.654 162.066 C 273.133 161.993,272.512 162.128,272.274 162.366 C 271.976 162.664,266.717 162.800,255.522 162.800 L 239.205 162.800 239.102 196.100 L 239.000 229.400 232.045 229.510 L 225.091 229.619 225.362 231.710 C 225.512 232.859,225.810 235.420,226.026 237.400 C 227.022 246.535,227.185 248.047,227.577 251.800 C 227.807 254.000,228.167 257.330,228.376 259.200 C 228.586 261.070,228.942 264.310,229.168 266.400 C 229.393 268.490,230.038 274.430,230.600 279.600 C 232.775 299.596,233.084 302.458,233.600 307.400 C 233.807 309.380,234.167 312.710,234.402 314.800 C 234.636 316.890,234.992 320.130,235.193 322.000 C 235.394 323.870,235.758 327.200,236.002 329.400 C 236.890 337.425,237.202 340.275,237.600 344.000 C 238.045 348.160,238.515 352.449,239.202 358.600 C 239.448 360.800,239.807 364.130,240.000 366.000 C 240.193 367.870,240.552 371.200,240.798 373.400 C 241.779 382.186,241.970 383.956,242.355 387.844 C 242.576 390.068,242.883 392.391,243.037 393.006 C 243.229 393.768,243.139 394.264,242.756 394.562 C 242.350 394.878,242.232 395.695,242.332 397.500 L 242.471 400.000 312.436 400.000 L 382.400 400.000 382.400 397.400 C 382.400 395.933,382.574 394.800,382.800 394.800 C 383.035 394.800,383.200 393.408,383.200 391.424 C 383.200 389.567,383.380 387.936,383.600 387.800 C 383.820 387.664,384.000 386.044,384.000 384.200 C 384.000 382.356,384.180 380.736,384.400 380.600 C 384.620 380.464,384.800 378.754,384.800 376.800 C 384.800 374.846,384.980 373.136,385.200 373.000 C 385.420 372.864,385.600 371.233,385.600 369.376 C 385.600 367.392,385.765 366.000,386.000 366.000 C 386.237 366.000,386.400 364.533,386.400 362.400 C 386.400 360.267,386.563 358.800,386.800 358.800 C 387.035 358.800,387.200 357.427,387.200 355.480 C 387.200 353.654,387.367 351.989,387.572 351.780 C 387.776 351.571,388.040 349.870,388.157 348.000 C 388.275 346.130,388.564 342.890,388.800 340.800 C 389.036 338.710,389.325 335.470,389.443 333.600 C 389.560 331.730,389.824 330.029,390.028 329.820 C 390.233 329.611,390.400 328.024,390.400 326.294 C 390.400 324.563,390.564 322.841,390.765 322.466 C 390.965 322.091,391.260 318.863,391.420 315.292 C 391.580 311.721,391.866 308.800,392.056 308.800 C 392.245 308.800,392.400 307.281,392.400 305.424 C 392.400 303.567,392.580 301.936,392.800 301.800 C 393.020 301.664,393.200 299.954,393.200 298.000 C 393.200 296.046,393.380 294.336,393.600 294.200 C 393.820 294.064,394.000 292.433,394.000 290.576 C 394.000 288.592,394.165 287.200,394.400 287.200 C 394.637 287.200,394.800 285.733,394.800 283.600 C 394.800 281.467,394.963 280.000,395.200 280.000 C 395.437 280.000,395.600 278.533,395.600 276.400 C 395.600 274.267,395.763 272.800,396.000 272.800 C 396.235 272.800,396.400 271.408,396.400 269.424 C 396.400 267.567,396.580 265.936,396.800 265.800 C 397.020 265.664,397.200 263.954,397.200 262.000 C 397.200 260.046,397.380 258.336,397.600 258.200 C 397.820 258.064,398.000 256.433,398.000 254.576 C 398.000 252.592,398.165 251.200,398.400 251.200 C 398.637 251.200,398.800 249.744,398.800 247.633 C 398.800 245.672,398.967 244.007,399.172 243.933 C 399.376 243.860,399.673 240.335,399.830 236.100 L 400.117 228.400 396.258 228.400 L 392.400 228.400 392.400 191.000 L 392.400 153.600 373.800 153.600 L 355.200 153.600 355.200 166.400 M380.000 197.320 C 380.000 221.458,379.885 229.155,379.520 229.520 C 379.196 229.844,377.342 230.000,373.800 230.000 C 370.258 230.000,368.404 229.844,368.080 229.520 C 367.557 228.997,367.347 166.387,367.867 165.867 C 368.013 165.720,370.803 165.600,374.067 165.600 L 380.000 165.600 380.000 197.320 M262.600 203.767 C 262.600 227.064,262.494 233.369,262.100 233.500 C 261.810 233.597,261.600 233.327,261.600 232.857 C 261.600 232.412,261.420 231.936,261.200 231.800 C 260.980 231.664,260.800 231.203,260.800 230.776 C 260.800 230.052,260.485 230.000,256.080 230.000 C 252.942 230.000,251.199 229.839,250.880 229.520 C 250.350 228.990,250.151 174.782,250.677 174.256 C 250.829 174.104,253.574 174.029,256.777 174.090 L 262.600 174.200 262.600 203.767 M309.400 225.400 L 309.400 276.600 304.000 276.715 C 301.030 276.779,298.195 276.730,297.700 276.608 L 296.800 276.385 296.800 225.672 C 296.800 186.178,296.908 174.852,297.290 174.470 C 297.643 174.117,299.410 174.011,303.590 174.090 L 309.400 174.200 309.400 225.400 M285.502 191.531 C 285.900 191.784,285.983 200.589,285.902 234.225 L 285.800 276.600 281.813 276.716 C 277.570 276.839,276.435 276.330,276.409 274.295 C 276.400 273.612,276.244 273.204,275.262 271.305 C 275.008 270.813,274.800 270.059,274.800 269.629 C 274.800 269.199,274.620 268.736,274.400 268.600 C 273.949 268.321,273.817 191.916,274.267 191.467 C 274.645 191.088,284.896 191.146,285.502 191.531 M332.786 191.974 C 333.254 192.848,333.379 257.321,332.937 269.536 L 332.674 276.800 326.780 276.800 C 321.774 276.800,320.849 276.705,320.643 276.167 C 320.139 274.855,320.371 192.189,320.880 191.680 C 321.786 190.774,332.282 191.033,332.786 191.974 M356.305 221.800 C 356.379 243.370,356.280 252.549,355.964 253.400 C 355.720 254.060,355.366 254.960,355.180 255.400 C 354.993 255.840,354.571 257.010,354.241 258.000 C 353.912 258.990,352.904 261.870,352.002 264.400 C 351.100 266.930,349.850 270.440,349.223 272.200 C 348.596 273.960,347.955 275.715,347.799 276.100 C 347.341 277.226,344.565 277.069,344.252 275.900 C 343.935 274.717,343.938 193.273,344.255 192.090 C 344.496 191.188,344.558 191.180,350.349 191.290 L 356.200 191.400 356.305 221.800 M144.000 241.225 C 149.297 241.705,151.338 242.024,151.780 242.441 C 151.989 242.638,152.529 242.803,152.980 242.806 C 153.892 242.813,156.633 243.699,157.059 244.126 C 157.210 244.277,157.666 244.400,158.072 244.400 C 158.478 244.400,159.123 244.555,159.505 244.745 C 159.887 244.935,161.992 245.968,164.182 247.040 C 174.687 252.183,183.713 261.161,189.510 272.232 C 189.731 272.654,190.312 273.900,190.800 275.000 C 191.288 276.100,191.848 277.313,192.044 277.695 C 192.240 278.077,192.400 278.741,192.400 279.171 C 192.400 279.601,192.559 280.051,192.754 280.171 C 192.949 280.292,193.207 280.887,193.329 281.495 C 193.451 282.103,193.753 283.410,194.001 284.400 C 194.394 285.973,194.922 288.847,195.286 291.400 C 195.400 292.198,195.171 292.200,111.000 292.200 C 36.179 292.200,26.617 292.132,26.747 291.600 C 26.829 291.270,26.972 290.190,27.066 289.200 C 27.160 288.210,27.393 286.770,27.585 286.000 C 28.311 283.088,28.902 280.973,29.207 280.200 C 29.380 279.760,29.931 278.320,30.431 277.000 C 35.740 262.976,48.457 250.232,62.600 244.762 C 65.136 243.781,68.360 242.800,69.047 242.800 C 69.483 242.800,70.011 242.638,70.220 242.441 C 70.658 242.027,72.790 241.681,77.600 241.246 C 82.308 240.820,139.328 240.801,144.000 241.225 M252.571 241.429 C 252.917 241.774,253.200 242.368,253.200 242.749 C 253.200 243.129,253.349 243.611,253.530 243.820 C 253.712 244.029,254.105 245.010,254.402 246.000 C 254.700 246.990,255.054 247.980,255.189 248.200 C 255.323 248.420,255.663 249.320,255.943 250.200 C 256.223 251.080,256.609 252.160,256.800 252.600 C 256.991 253.040,257.531 254.570,258.000 256.000 C 258.469 257.430,259.004 258.960,259.189 259.400 C 259.811 260.877,260.880 263.782,261.618 266.000 C 262.021 267.210,263.190 270.540,264.215 273.400 C 265.241 276.260,266.614 280.121,267.268 281.979 C 267.921 283.837,268.704 285.952,269.007 286.679 L 269.559 288.000 312.331 288.000 C 346.080 288.000,355.182 287.895,355.479 287.500 C 355.686 287.225,356.101 286.190,356.400 285.200 C 356.699 284.210,357.059 283.220,357.200 283.000 C 357.341 282.780,357.701 281.790,358.000 280.800 C 358.299 279.810,358.659 278.820,358.800 278.600 C 358.941 278.380,359.300 277.390,359.598 276.400 C 359.895 275.410,360.288 274.429,360.470 274.220 C 360.651 274.011,360.800 273.462,360.800 273.000 C 360.800 272.538,360.943 271.989,361.118 271.780 C 361.293 271.571,361.665 270.680,361.945 269.800 C 362.224 268.920,362.612 267.840,362.806 267.400 C 363.001 266.960,363.429 265.790,363.758 264.800 C 364.087 263.810,365.102 260.930,366.013 258.400 C 370.345 246.370,371.289 243.707,371.648 242.503 C 372.153 240.816,372.509 240.748,380.200 240.886 L 386.600 241.000 386.570 244.200 C 386.553 245.960,386.319 249.290,386.049 251.600 C 385.779 253.910,385.393 257.330,385.192 259.200 C 384.991 261.070,384.637 264.310,384.404 266.400 C 384.172 268.490,383.816 271.730,383.615 273.600 C 383.413 275.470,383.062 278.710,382.835 280.800 C 382.607 282.890,381.782 290.540,381.002 297.800 C 379.188 314.656,378.843 317.842,378.376 322.000 C 378.166 323.870,377.811 327.110,377.587 329.200 C 377.363 331.290,376.999 334.620,376.778 336.600 C 376.557 338.580,376.191 341.910,375.966 344.000 C 375.740 346.090,375.386 349.330,375.179 351.200 C 374.816 354.484,374.384 358.457,373.615 365.600 C 373.414 367.470,373.047 370.800,372.800 373.000 C 372.553 375.200,372.191 378.530,371.996 380.400 C 371.398 386.111,371.103 387.787,370.642 388.094 C 369.778 388.668,254.546 388.458,254.067 387.881 C 253.831 387.596,253.002 381.431,252.226 374.181 C 251.450 366.932,250.626 359.290,250.397 357.200 C 249.584 349.813,249.224 346.560,248.824 343.000 C 248.602 341.020,248.324 338.500,248.206 337.400 C 248.088 336.300,247.803 333.690,247.572 331.600 C 247.340 329.510,246.979 326.180,246.768 324.200 C 246.176 318.626,245.690 314.167,245.200 309.800 C 244.953 307.600,244.582 304.225,244.376 302.300 C 244.169 300.375,243.831 297.225,243.624 295.300 C 243.418 293.375,243.048 290.000,242.802 287.800 C 241.941 280.086,241.641 277.368,241.234 273.600 C 241.009 271.510,240.633 268.090,240.400 266.000 C 240.167 263.910,239.791 260.490,239.566 258.400 C 239.340 256.310,238.990 253.070,238.787 251.200 C 238.053 244.429,237.894 242.053,238.132 241.433 C 238.493 240.491,251.630 240.488,252.571 241.429 M256.842 300.366 C 256.486 300.591,256.392 300.988,256.581 301.460 C 256.744 301.867,257.050 304.000,257.260 306.200 C 257.470 308.400,257.809 311.730,258.012 313.600 C 258.215 315.470,258.566 318.710,258.792 320.800 C 259.018 322.890,259.372 326.130,259.579 328.000 C 259.786 329.870,260.140 333.110,260.366 335.200 C 260.591 337.290,260.961 340.665,261.188 342.700 C 261.415 344.735,261.769 347.975,261.976 349.900 C 262.183 351.825,262.537 355.110,262.763 357.200 C 262.989 359.290,263.452 363.610,263.791 366.800 C 264.131 369.990,264.513 373.275,264.640 374.100 L 264.870 375.600 312.385 375.600 L 359.900 375.600 360.178 374.300 C 360.331 373.585,360.635 371.290,360.853 369.200 C 361.071 367.110,361.418 363.825,361.624 361.900 C 361.831 359.975,362.169 356.825,362.376 354.900 C 362.582 352.975,362.952 349.600,363.198 347.400 C 364.402 336.609,364.927 331.804,365.588 325.500 C 365.801 323.465,366.151 320.180,366.365 318.200 C 367.390 308.707,367.642 306.383,367.949 303.600 C 368.179 301.520,368.146 300.510,367.840 300.306 C 367.204 299.881,257.514 299.940,256.842 300.366 M204.809 304.864 C 212.367 309.307,212.376 318.704,204.825 322.700 L 203.124 323.600 110.974 323.600 L 18.824 323.600 17.312 322.763 C 13.701 320.765,11.600 317.517,11.600 313.933 C 11.600 311.811,12.306 309.200,12.880 309.200 C 13.056 309.200,13.200 308.965,13.200 308.678 C 13.200 308.197,14.842 306.481,16.496 305.233 C 18.685 303.583,15.877 303.628,111.600 303.716 L 203.000 303.800 204.809 304.864 M355.461 314.500 C 355.336 316.095,355.051 319.020,354.827 321.000 C 354.602 322.980,354.234 326.310,354.008 328.400 C 353.782 330.490,353.428 333.730,353.221 335.600 C 353.014 337.470,352.660 340.710,352.434 342.800 C 352.209 344.890,351.839 348.310,351.612 350.400 C 351.386 352.490,351.008 356.155,350.773 358.545 C 350.538 360.935,350.182 363.321,349.982 363.847 L 349.618 364.804 312.316 364.702 L 275.014 364.600 274.703 363.000 C 274.532 362.120,274.213 359.735,273.996 357.700 C 273.453 352.625,272.869 347.253,272.421 343.200 C 272.214 341.330,271.860 338.090,271.634 336.000 C 271.409 333.910,271.039 330.535,270.812 328.500 C 269.786 319.284,269.568 317.218,269.334 314.500 L 269.085 311.600 312.386 311.600 L 355.687 311.600 355.461 314.500 M32.400 338.010 C 34.930 339.773,38.350 342.143,40.000 343.276 C 41.650 344.409,43.090 345.449,43.200 345.587 C 43.310 345.725,44.030 346.268,44.800 346.793 C 50.952 350.984,55.200 354.206,55.200 354.680 C 55.200 355.159,52.447 355.226,36.900 355.122 L 18.600 355.000 16.400 353.521 C 14.246 352.074,13.915 351.697,12.362 348.933 C 11.178 346.825,11.569 340.400,12.880 340.400 C 13.056 340.400,13.200 340.164,13.200 339.875 C 13.200 339.586,13.695 338.895,14.300 338.339 C 17.360 335.528,19.163 334.917,24.600 334.846 L 27.800 334.804 32.400 338.010 M79.879 335.900 C 84.183 338.788,89.020 342.159,89.200 342.396 C 89.310 342.541,90.570 343.448,92.000 344.411 C 93.430 345.373,94.780 346.315,95.000 346.503 C 95.220 346.690,96.750 347.789,98.400 348.945 C 102.079 351.521,102.086 351.720,98.600 354.103 C 97.060 355.155,95.513 356.257,95.162 356.551 C 94.811 356.845,93.371 357.867,91.962 358.821 C 90.553 359.775,89.147 360.806,88.838 361.112 C 87.286 362.645,85.209 362.330,83.089 360.239 C 82.820 359.973,81.430 358.965,80.000 357.997 C 78.570 357.030,77.220 356.085,77.000 355.897 C 76.780 355.708,73.270 353.223,69.200 350.373 C 65.130 347.523,61.513 344.949,61.162 344.653 C 60.811 344.357,59.371 343.337,57.962 342.387 C 56.553 341.437,55.310 340.557,55.200 340.430 C 55.090 340.304,54.708 340.020,54.351 339.800 C 46.216 334.784,46.046 334.871,64.020 334.832 L 78.239 334.800 79.879 335.900 M174.167 335.043 C 175.227 335.449,174.904 335.900,172.300 337.655 C 170.925 338.582,169.710 339.459,169.600 339.604 C 169.490 339.749,167.780 340.974,165.800 342.327 C 163.820 343.680,160.580 345.954,158.600 347.380 C 156.620 348.807,153.110 351.273,150.800 352.861 C 148.490 354.448,146.510 355.863,146.400 356.004 C 146.290 356.145,145.030 357.047,143.600 358.008 C 142.170 358.969,140.780 359.973,140.511 360.239 C 138.392 362.329,136.489 362.685,134.971 361.276 C 134.547 360.883,133.030 359.769,131.600 358.800 C 130.170 357.831,128.820 356.885,128.600 356.697 C 128.380 356.508,124.870 354.023,120.800 351.173 C 116.730 348.323,113.125 345.769,112.789 345.496 C 112.453 345.223,111.013 344.199,109.589 343.221 C 108.165 342.243,106.910 341.343,106.800 341.221 C 106.690 341.099,106.309 340.820,105.953 340.600 C 100.889 337.467,98.653 335.488,99.700 335.065 C 100.421 334.774,173.411 334.752,174.167 335.043 M201.930 335.187 C 204.283 335.633,207.725 337.742,208.481 339.200 C 208.766 339.750,209.089 340.290,209.199 340.400 C 211.539 342.732,209.621 352.800,206.837 352.800 C 206.628 352.800,206.212 353.025,205.913 353.300 C 204.061 355.003,204.147 354.995,185.866 355.123 C 164.457 355.274,165.313 355.986,177.200 347.904 C 178.850 346.782,180.290 345.745,180.400 345.600 C 180.510 345.455,182.016 344.386,183.746 343.225 C 185.476 342.064,187.186 340.868,187.546 340.567 C 193.700 335.421,196.885 334.230,201.930 335.187 M115.625 361.128 C 117.481 362.408,121.340 365.114,124.200 367.140 C 127.060 369.166,130.480 371.571,131.800 372.484 C 133.120 373.397,134.260 374.292,134.333 374.472 C 134.407 374.653,134.707 374.800,135.000 374.800 C 135.293 374.800,135.593 374.956,135.667 375.147 C 135.940 375.860,137.513 376.030,138.129 375.414 C 138.467 375.076,138.921 374.800,139.138 374.800 C 139.355 374.800,139.593 374.653,139.667 374.472 C 139.740 374.292,140.970 373.361,142.400 372.402 C 143.830 371.444,145.090 370.541,145.200 370.395 C 145.310 370.249,146.658 369.290,148.196 368.265 L 150.991 366.400 172.896 366.400 L 194.800 366.400 194.800 367.576 C 194.800 368.223,194.620 368.864,194.400 369.000 C 194.180 369.136,194.000 369.580,194.000 369.986 C 194.000 370.784,192.391 374.115,191.900 374.333 C 191.735 374.407,191.597 374.677,191.593 374.933 C 191.575 376.082,186.755 381.330,184.001 383.198 C 180.167 385.799,177.465 386.854,172.200 387.807 C 167.462 388.663,54.507 388.671,50.000 387.814 C 44.403 386.751,41.424 385.569,37.449 382.834 C 35.437 381.449,31.626 377.376,30.791 375.716 C 30.482 375.102,29.932 374.150,29.568 373.600 C 28.790 372.421,27.200 368.040,27.200 367.073 C 27.200 366.450,28.890 366.400,49.906 366.400 L 72.611 366.400 75.058 368.100 C 76.404 369.035,78.922 370.776,80.653 371.970 C 82.384 373.163,83.860 374.288,83.933 374.470 C 84.007 374.651,84.245 374.800,84.462 374.800 C 84.679 374.800,85.133 375.076,85.471 375.414 C 86.055 375.998,87.516 375.884,88.000 375.216 C 88.110 375.064,89.353 374.163,90.762 373.213 C 92.171 372.263,93.611 371.250,93.962 370.961 C 94.750 370.311,102.042 365.184,107.378 361.527 C 112.160 358.249,111.497 358.281,115.625 361.128 " stroke="none" fill="#040404" fill-rule="evenodd"></path><path id="path4" d="M227.000 12.272 C 226.560 12.370,222.600 13.319,218.200 14.379 C 213.800 15.440,205.970 17.322,200.800 18.562 C 195.630 19.802,190.725 20.993,189.900 21.208 C 189.075 21.424,187.725 21.765,186.900 21.967 C 186.075 22.169,184.635 22.529,183.700 22.767 C 182.765 23.005,181.235 23.393,180.300 23.628 C 179.365 23.863,178.150 24.183,177.600 24.338 L 176.600 24.619 176.497 54.910 L 176.395 85.200 182.397 85.200 L 188.400 85.200 188.400 60.027 C 188.400 36.394,188.443 34.842,189.100 34.658 C 189.485 34.551,191.510 34.079,193.600 33.610 C 197.914 32.643,201.101 31.909,206.000 30.756 C 207.870 30.316,210.210 29.775,211.200 29.553 C 212.190 29.331,213.720 28.966,214.600 28.742 C 217.800 27.926,219.023 27.633,220.200 27.401 C 220.860 27.271,222.120 26.982,223.000 26.760 C 225.261 26.189,227.978 25.593,229.504 25.334 C 230.221 25.212,230.906 24.951,231.027 24.756 C 231.148 24.560,231.578 24.400,231.982 24.400 C 233.038 24.400,235.114 21.864,235.428 20.190 C 236.460 14.693,232.558 11.028,227.000 12.272 M232.441 13.308 C 235.794 15.548,236.131 20.281,233.137 23.077 C 232.150 23.998,228.402 25.047,216.800 27.647 C 215.810 27.869,214.370 28.208,213.600 28.400 C 212.830 28.592,211.300 28.952,210.200 29.200 C 209.100 29.448,207.570 29.808,206.800 30.000 C 206.030 30.192,204.500 30.552,203.400 30.800 C 202.300 31.048,200.770 31.408,200.000 31.600 C 199.230 31.792,197.790 32.133,196.800 32.357 C 191.521 33.553,189.331 34.120,188.700 34.456 C 188.045 34.804,188.000 36.426,188.000 59.814 L 188.000 84.800 182.397 84.800 L 176.795 84.800 176.897 54.903 L 177.000 25.006 183.200 23.489 C 186.610 22.655,190.120 21.784,191.000 21.553 C 191.880 21.323,193.275 20.969,194.100 20.767 C 194.925 20.565,196.275 20.227,197.100 20.015 C 197.925 19.803,201.660 18.897,205.400 18.000 C 209.140 17.103,212.830 16.201,213.600 15.995 C 227.034 12.396,230.364 11.921,232.441 13.308 M111.300 96.665 C 111.025 96.776,110.800 97.156,110.800 97.510 C 110.800 98.081,110.856 98.077,111.300 97.474 C 111.768 96.839,116.390 96.801,182.589 96.897 L 253.377 97.000 254.067 98.800 C 254.446 99.790,254.766 100.293,254.778 99.919 C 254.805 99.081,253.962 97.105,253.408 96.706 C 252.958 96.382,112.102 96.341,111.300 96.665 M110.267 98.667 C 110.120 98.813,110.011 99.308,110.025 99.767 C 110.049 100.533,110.082 100.523,110.434 99.642 C 110.826 98.663,110.744 98.189,110.267 98.667 M109.496 101.200 C 109.387 101.530,108.895 103.150,108.401 104.800 C 107.908 106.450,107.351 108.160,107.163 108.600 C 106.975 109.040,106.772 109.940,106.711 110.600 L 106.600 111.800 182.400 111.800 L 258.200 111.800 258.067 110.400 C 257.995 109.630,257.770 108.829,257.567 108.620 C 257.365 108.411,257.200 107.914,257.200 107.515 C 257.200 107.116,257.038 106.477,256.839 106.095 C 256.640 105.713,256.259 104.590,255.992 103.600 C 255.272 100.936,255.122 100.559,254.957 101.000 C 254.875 101.220,255.500 103.560,256.346 106.200 C 257.192 108.840,257.810 111.135,257.719 111.300 C 257.627 111.465,223.734 111.600,182.400 111.600 C 141.066 111.600,107.165 111.465,107.065 111.300 C 106.964 111.135,107.589 108.856,108.453 106.235 C 109.317 103.614,109.949 101.274,109.858 101.035 C 109.764 100.786,109.609 100.856,109.496 101.200 M88.958 123.900 C 88.839 124.285,88.575 124.913,88.371 125.295 C 88.167 125.677,88.000 126.264,88.000 126.600 C 88.000 126.936,87.838 127.523,87.641 127.905 C 87.444 128.287,86.879 129.950,86.387 131.600 C 85.895 133.250,85.173 135.547,84.782 136.705 C 84.098 138.738,84.098 138.825,84.810 139.205 C 85.817 139.745,278.974 139.749,279.981 139.210 C 280.720 138.815,280.453 137.419,278.792 133.000 C 278.627 132.560,278.273 131.390,278.007 130.400 C 277.740 129.410,277.360 128.287,277.161 127.905 C 276.962 127.523,276.800 126.936,276.800 126.600 C 276.800 126.264,276.633 125.677,276.429 125.295 C 276.225 124.913,275.961 124.285,275.842 123.900 C 275.504 122.810,89.296 122.810,88.958 123.900 M275.926 125.300 C 276.213 126.235,277.154 129.250,278.017 132.000 C 278.881 134.750,279.635 137.450,279.694 138.000 L 279.800 139.000 182.400 139.000 L 85.000 139.000 85.130 137.802 C 85.202 137.144,85.940 134.534,86.770 132.002 C 87.600 129.471,88.525 126.545,88.827 125.500 L 89.375 123.600 182.390 123.600 L 275.405 123.600 275.926 125.300 M98.494 154.400 C 98.481 155.610,98.610 157.500,98.782 158.600 L 99.093 160.600 99.103 158.800 C 99.109 157.810,98.979 155.920,98.815 154.600 L 98.518 152.200 98.494 154.400 M255.600 162.393 L 239.000 162.600 238.898 195.891 L 238.795 229.181 231.898 229.306 L 225.000 229.430 232.000 229.415 L 239.000 229.400 239.102 196.100 L 239.205 162.800 255.579 162.800 C 266.063 162.800,272.042 162.656,272.200 162.400 C 272.336 162.180,272.392 162.042,272.324 162.093 C 272.256 162.145,264.730 162.280,255.600 162.393 M99.309 166.400 C 99.309 167.390,99.387 167.795,99.482 167.300 C 99.578 166.805,99.578 165.995,99.482 165.500 C 99.387 165.005,99.309 165.410,99.309 166.400 M367.867 165.867 C 367.347 166.387,367.557 228.997,368.080 229.520 C 368.404 229.844,370.258 230.000,373.800 230.000 C 377.342 230.000,379.196 229.844,379.520 229.520 C 379.885 229.155,380.000 221.458,380.000 197.320 L 380.000 165.600 374.067 165.600 C 370.803 165.600,368.013 165.720,367.867 165.867 M379.600 197.611 L 379.600 229.222 373.900 229.111 L 368.200 229.000 368.098 197.500 L 367.995 166.000 373.798 166.000 L 379.600 166.000 379.600 197.611 M99.701 170.200 C 99.705 171.080,99.787 171.393,99.883 170.895 C 99.979 170.398,99.975 169.678,99.875 169.295 C 99.775 168.913,99.696 169.320,99.701 170.200 M250.677 174.256 C 250.151 174.782,250.350 228.990,250.880 229.520 C 251.199 229.839,252.942 230.000,256.080 230.000 C 260.485 230.000,260.800 230.052,260.800 230.776 C 260.800 231.203,260.980 231.664,261.200 231.800 C 261.420 231.936,261.600 232.412,261.600 232.857 C 261.600 233.327,261.810 233.597,262.100 233.500 C 262.494 233.369,262.600 227.064,262.600 203.767 L 262.600 174.200 256.777 174.090 C 253.574 174.029,250.829 174.104,250.677 174.256 M297.290 174.470 C 296.908 174.852,296.800 186.178,296.800 225.672 L 296.800 276.385 297.700 276.608 C 298.195 276.730,301.030 276.779,304.000 276.715 L 309.400 276.600 309.400 225.400 L 309.400 174.200 303.590 174.090 C 299.410 174.011,297.643 174.117,297.290 174.470 M262.288 203.800 L 262.377 233.000 261.543 231.112 L 260.708 229.224 255.854 229.112 L 251.000 229.000 250.896 202.200 C 250.839 187.460,250.881 175.170,250.988 174.889 C 251.137 174.500,252.506 174.404,256.692 174.489 L 262.200 174.600 262.288 203.800 M308.720 174.880 C 309.229 175.389,309.462 274.452,308.957 275.767 C 308.752 276.302,307.856 276.400,303.157 276.400 L 297.600 276.400 297.600 225.667 C 297.600 197.763,297.720 174.813,297.867 174.667 C 298.362 174.171,308.205 174.365,308.720 174.880 M100.101 177.800 C 100.105 178.680,100.187 178.993,100.283 178.495 C 100.379 177.998,100.375 177.278,100.275 176.895 C 100.175 176.513,100.096 176.920,100.101 177.800 M100.501 181.800 C 100.505 182.680,100.587 182.993,100.683 182.495 C 100.779 181.998,100.775 181.278,100.675 180.895 C 100.575 180.513,100.496 180.920,100.501 181.800 M100.901 189.400 C 100.905 190.280,100.987 190.593,101.083 190.095 C 101.179 189.598,101.175 188.878,101.075 188.495 C 100.975 188.113,100.896 188.520,100.901 189.400 M274.267 191.467 C 273.817 191.916,273.949 268.321,274.400 268.600 C 274.620 268.736,274.800 269.199,274.800 269.629 C 274.800 270.059,275.008 270.813,275.262 271.305 C 276.244 273.204,276.400 273.612,276.409 274.295 C 276.435 276.330,277.570 276.839,281.813 276.716 L 285.800 276.600 285.902 234.225 C 285.983 200.589,285.900 191.784,285.502 191.531 C 284.896 191.146,274.645 191.088,274.267 191.467 M320.880 191.680 C 320.371 192.189,320.139 274.855,320.643 276.167 C 320.849 276.705,321.774 276.800,326.780 276.800 L 332.674 276.800 332.937 269.536 C 333.379 257.321,333.254 192.848,332.786 191.974 C 332.282 191.033,321.786 190.774,320.880 191.680 M344.255 192.090 C 343.938 193.273,343.935 274.717,344.252 275.900 C 344.565 277.069,347.341 277.226,347.799 276.100 C 347.955 275.715,348.596 273.960,349.223 272.200 C 349.850 270.440,351.100 266.930,352.002 264.400 C 352.904 261.870,353.912 258.990,354.241 258.000 C 354.571 257.010,354.993 255.840,355.180 255.400 C 355.366 254.960,355.720 254.060,355.964 253.400 C 356.280 252.549,356.379 243.370,356.305 221.800 L 356.200 191.400 350.349 191.290 C 344.558 191.180,344.496 191.188,344.255 192.090 M101.301 193.400 C 101.305 194.280,101.387 194.593,101.483 194.095 C 101.579 193.598,101.575 192.878,101.475 192.495 C 101.375 192.113,101.296 192.520,101.301 193.400 M285.200 234.200 L 285.200 276.400 281.454 276.400 L 277.709 276.400 276.054 271.856 L 274.400 267.311 274.400 229.656 L 274.400 192.000 279.800 192.000 L 285.200 192.000 285.200 234.200 M332.400 234.200 L 332.400 276.400 326.800 276.400 L 321.200 276.400 321.200 234.200 L 321.200 192.000 326.800 192.000 L 332.400 192.000 332.400 234.200 M356.000 221.941 L 356.000 251.881 353.571 258.641 C 352.235 262.358,350.785 266.390,350.349 267.600 C 349.913 268.810,349.287 270.610,348.958 271.600 C 348.629 272.590,348.205 273.760,348.016 274.200 C 347.827 274.640,347.572 275.315,347.449 275.700 C 347.159 276.606,344.985 276.658,344.643 275.767 C 344.310 274.900,344.334 192.600,344.667 192.267 C 344.813 192.120,347.423 192.000,350.467 192.000 L 356.000 192.000 356.000 221.941 M101.693 200.800 C 101.693 201.570,101.775 201.885,101.876 201.500 C 101.976 201.115,101.976 200.485,101.876 200.100 C 101.775 199.715,101.693 200.030,101.693 200.800 M102.109 205.200 C 102.109 206.190,102.187 206.595,102.282 206.100 C 102.378 205.605,102.378 204.795,102.282 204.300 C 102.187 203.805,102.109 204.210,102.109 205.200 M102.493 212.400 C 102.493 213.170,102.575 213.485,102.676 213.100 C 102.776 212.715,102.776 212.085,102.676 211.700 C 102.575 211.315,102.493 211.630,102.493 212.400 M102.909 216.800 C 102.909 217.790,102.987 218.195,103.082 217.700 C 103.178 217.205,103.178 216.395,103.082 215.900 C 102.987 215.405,102.909 215.810,102.909 216.800 M103.462 225.200 C 103.573 227.290,103.795 229.137,103.956 229.304 C 104.117 229.472,112.248 229.560,122.024 229.500 L 139.800 229.391 121.949 229.296 L 104.098 229.200 103.679 225.300 L 103.261 221.400 103.462 225.200 M141.633 229.745 C 141.725 229.824,143.420 229.980,145.400 230.091 C 147.380 230.202,148.460 230.158,147.800 229.994 C 146.584 229.691,141.327 229.478,141.633 229.745 M149.633 230.544 C 149.725 230.624,150.610 230.796,151.600 230.927 C 152.802 231.086,153.134 231.047,152.600 230.810 C 151.836 230.472,149.286 230.243,149.633 230.544 M154.400 231.600 C 155.768 232.038,156.819 232.038,155.800 231.600 C 155.360 231.411,154.640 231.262,154.200 231.268 C 153.557 231.277,153.596 231.343,154.400 231.600 M225.492 235.600 C 225.612 237.470,225.775 239.075,225.855 239.167 C 226.135 239.488,225.950 235.384,225.614 233.800 C 225.377 232.683,225.340 233.227,225.492 235.600 M160.000 233.200 C 160.330 233.413,160.870 233.588,161.200 233.588 C 161.733 233.588,161.733 233.545,161.200 233.200 C 160.870 232.987,160.330 232.812,160.000 232.812 C 159.467 232.812,159.467 232.855,160.000 233.200 M170.400 237.567 C 171.363 238.352,172.000 238.608,172.000 238.210 C 172.000 238.106,171.415 237.735,170.700 237.386 L 169.400 236.752 170.400 237.567 M173.200 239.164 C 173.750 239.614,174.380 239.983,174.600 239.985 C 175.028 239.988,174.305 239.434,173.000 238.760 C 172.469 238.485,172.536 238.621,173.200 239.164 M226.292 242.800 C 226.412 244.670,226.575 246.275,226.655 246.367 C 226.935 246.688,226.750 242.584,226.414 241.000 C 226.177 239.883,226.140 240.427,226.292 242.800 M77.600 241.246 C 72.790 241.681,70.658 242.027,70.220 242.441 C 70.011 242.638,69.483 242.800,69.047 242.800 C 68.360 242.800,65.136 243.781,62.600 244.762 C 48.457 250.232,35.740 262.976,30.431 277.000 C 29.931 278.320,29.380 279.760,29.207 280.200 C 28.902 280.973,28.311 283.088,27.585 286.000 C 27.393 286.770,27.160 288.210,27.066 289.200 C 26.972 290.190,26.829 291.270,26.747 291.600 C 26.617 292.132,36.179 292.200,111.000 292.200 C 195.171 292.200,195.400 292.198,195.286 291.400 C 194.922 288.847,194.394 285.973,194.001 284.400 C 193.753 283.410,193.451 282.103,193.329 281.495 C 193.207 280.887,192.949 280.292,192.754 280.171 C 192.559 280.051,192.400 279.601,192.400 279.171 C 192.400 278.741,192.240 278.077,192.044 277.695 C 191.848 277.313,191.288 276.100,190.800 275.000 C 185.455 262.957,175.672 252.678,164.182 247.033 C 158.795 244.387,158.548 244.284,158.011 244.463 C 157.753 244.549,158.950 245.199,160.671 245.908 C 178.341 253.187,192.419 271.542,194.565 290.100 L 194.785 292.000 110.968 292.000 L 27.151 292.000 27.419 290.100 C 30.818 266.044,48.563 247.496,73.151 242.298 C 78.452 241.178,141.471 240.873,147.000 241.941 C 150.018 242.524,155.480 243.836,156.669 244.264 C 157.071 244.409,157.262 244.375,157.093 244.190 C 156.665 243.720,153.971 242.813,152.980 242.806 C 152.529 242.803,151.989 242.638,151.780 242.441 C 151.338 242.024,149.297 241.705,144.000 241.225 C 139.328 240.801,82.308 240.820,77.600 241.246 M176.598 241.196 C 176.736 241.421,177.873 242.301,179.125 243.152 C 184.191 246.600,191.237 254.025,195.395 260.300 C 196.452 261.895,197.392 263.200,197.482 263.200 C 197.901 263.200,194.259 257.892,191.557 254.565 C 187.872 250.028,174.880 238.417,176.598 241.196 M238.132 241.433 C 237.894 242.053,238.053 244.429,238.787 251.200 C 238.990 253.070,239.340 256.310,239.566 258.400 C 239.791 260.490,240.167 263.910,240.400 266.000 C 240.633 268.090,241.009 271.510,241.234 273.600 C 241.641 277.368,241.941 280.086,242.802 287.800 C 243.048 290.000,243.414 293.330,243.615 295.200 C 244.313 301.681,244.805 306.217,245.198 309.800 C 245.416 311.780,245.757 315.167,245.956 317.326 C 246.295 321.000,246.800 323.017,246.800 320.699 C 246.800 319.780,245.501 307.327,244.433 298.000 C 244.219 296.130,243.849 292.800,243.611 290.600 C 243.373 288.400,243.008 285.070,242.800 283.200 C 242.591 281.330,242.228 278.000,241.992 275.800 C 241.756 273.600,241.398 270.360,241.197 268.600 C 240.995 266.840,240.636 263.510,240.400 261.200 C 240.164 258.890,239.801 255.560,239.593 253.800 C 239.146 250.014,238.872 247.502,238.537 244.100 L 238.290 241.600 245.301 241.600 L 252.311 241.600 253.785 245.700 C 254.596 247.955,255.533 250.520,255.867 251.400 C 256.202 252.280,256.738 253.810,257.058 254.800 C 257.378 255.790,257.798 256.960,257.992 257.400 C 258.369 258.258,260.071 263.053,261.045 266.000 C 261.373 266.990,261.802 268.160,262.000 268.600 C 262.198 269.040,262.627 270.210,262.953 271.200 C 263.280 272.190,264.110 274.530,264.798 276.400 C 265.486 278.270,266.558 281.240,267.182 283.000 C 267.805 284.760,268.509 286.695,268.747 287.300 L 269.180 288.400 312.341 288.400 C 346.408 288.400,355.579 288.295,355.868 287.900 C 356.069 287.625,356.464 286.680,356.745 285.800 C 357.226 284.296,357.686 283.014,359.576 277.900 C 360.625 275.063,366.179 259.448,366.939 257.200 C 367.273 256.210,368.111 253.870,368.800 252.000 C 369.489 250.130,370.320 247.790,370.647 246.800 C 370.973 245.810,371.400 244.640,371.595 244.200 C 371.790 243.760,372.063 242.995,372.202 242.500 C 372.451 241.609,372.529 241.600,379.651 241.600 C 384.346 241.600,386.761 241.461,386.600 241.200 C 386.314 240.737,373.255 240.650,372.539 241.106 C 372.088 241.393,371.773 242.189,369.018 250.000 C 368.281 252.090,366.931 255.870,366.017 258.400 C 365.104 260.930,364.087 263.810,363.758 264.800 C 363.429 265.790,363.001 266.960,362.806 267.400 C 362.612 267.840,362.224 268.920,361.945 269.800 C 361.665 270.680,361.293 271.571,361.118 271.780 C 360.943 271.989,360.800 272.538,360.800 273.000 C 360.800 273.462,360.651 274.011,360.470 274.220 C 360.288 274.429,359.895 275.410,359.598 276.400 C 359.300 277.390,358.941 278.380,358.800 278.600 C 358.659 278.820,358.299 279.810,358.000 280.800 C 357.701 281.790,357.341 282.780,357.200 283.000 C 357.059 283.220,356.699 284.210,356.400 285.200 C 356.101 286.190,355.686 287.225,355.479 287.500 C 355.182 287.895,346.080 288.000,312.331 288.000 L 269.559 288.000 269.007 286.679 C 268.704 285.952,267.921 283.837,267.268 281.979 C 266.614 280.121,265.241 276.260,264.215 273.400 C 263.190 270.540,262.021 267.210,261.618 266.000 C 260.880 263.782,259.811 260.877,259.189 259.400 C 259.004 258.960,258.469 257.430,258.000 256.000 C 257.531 254.570,256.991 253.040,256.800 252.600 C 256.609 252.160,256.223 251.080,255.943 250.200 C 255.663 249.320,255.323 248.420,255.189 248.200 C 255.054 247.980,254.700 246.990,254.402 246.000 C 254.105 245.010,253.712 244.029,253.530 243.820 C 253.349 243.611,253.200 243.129,253.200 242.749 C 253.200 241.016,252.310 240.800,245.159 240.800 C 239.343 240.800,238.340 240.890,238.132 241.433 M386.241 245.318 C 386.055 247.253,386.000 248.933,386.118 249.052 C 386.442 249.375,386.884 245.232,386.721 243.400 C 386.619 242.249,386.484 242.787,386.241 245.318 M226.893 248.000 C 226.893 248.770,226.975 249.085,227.076 248.700 C 227.176 248.315,227.176 247.685,227.076 247.300 C 226.975 246.915,226.893 247.230,226.893 248.000 M227.324 251.800 C 227.326 253.120,227.401 253.612,227.490 252.893 C 227.579 252.174,227.577 251.094,227.486 250.493 C 227.395 249.892,227.322 250.480,227.324 251.800 M385.442 252.468 C 385.261 254.155,385.198 255.775,385.303 256.068 C 385.579 256.840,386.093 252.452,385.919 250.800 C 385.815 249.810,385.675 250.298,385.442 252.468 M384.633 260.118 C 384.451 262.053,384.399 263.732,384.516 263.849 C 384.816 264.150,385.304 259.248,385.118 257.798 C 385.034 257.139,384.816 258.183,384.633 260.118 M228.120 259.200 C 228.120 260.410,228.195 260.905,228.287 260.300 C 228.378 259.695,228.378 258.705,228.287 258.100 C 228.195 257.495,228.120 257.990,228.120 259.200 M228.493 262.800 C 228.493 263.570,228.575 263.885,228.676 263.500 C 228.776 263.115,228.776 262.485,228.676 262.100 C 228.575 261.715,228.493 262.030,228.493 262.800 M228.823 266.233 C 228.836 267.315,228.999 268.920,229.186 269.800 C 229.423 270.917,229.460 270.373,229.308 268.000 C 229.065 264.214,228.788 263.201,228.823 266.233 M383.833 267.268 C 383.656 268.955,383.597 270.575,383.702 270.868 C 383.960 271.590,384.518 266.408,384.315 265.179 C 384.226 264.640,384.009 265.581,383.833 267.268 M199.000 266.400 C 199.341 267.060,199.711 267.600,199.821 267.600 C 199.931 267.600,199.741 267.060,199.400 266.400 C 199.059 265.740,198.689 265.200,198.579 265.200 C 198.469 265.200,198.659 265.740,199.000 266.400 M229.623 273.633 C 229.636 274.605,229.801 276.120,229.990 277.000 C 230.237 278.149,230.271 277.698,230.113 275.400 C 229.870 271.879,229.587 270.857,229.623 273.633 M383.016 274.421 C 382.855 275.863,382.796 277.483,382.885 278.021 C 382.974 278.560,383.191 277.619,383.367 275.932 C 383.544 274.245,383.603 272.625,383.498 272.332 C 383.394 272.039,383.177 272.980,383.016 274.421 M204.244 279.400 C 204.573 280.871,204.802 281.190,204.794 280.167 C 204.791 279.745,204.605 279.130,204.382 278.800 C 204.085 278.362,204.048 278.524,204.244 279.400 M382.300 280.956 C 382.135 282.032,382.022 283.742,382.049 284.756 L 382.098 286.600 382.457 284.200 C 382.655 282.880,382.768 281.170,382.708 280.400 C 382.608 279.103,382.578 279.144,382.300 280.956 M230.423 281.033 C 230.436 281.895,230.603 283.320,230.794 284.200 C 231.052 285.386,231.084 285.024,230.919 282.800 C 230.677 279.547,230.386 278.510,230.423 281.033 M205.062 282.600 C 205.196 283.480,205.372 284.275,205.453 284.367 C 205.756 284.710,205.529 282.568,205.181 281.800 C 204.929 281.242,204.893 281.485,205.062 282.600 M205.893 287.000 C 206.013 288.320,206.176 289.475,206.255 289.567 C 206.551 289.907,206.331 286.170,206.010 285.400 C 205.808 284.917,205.762 285.551,205.893 287.000 M381.626 287.200 C 381.580 287.530,381.386 289.330,381.194 291.200 C 381.002 293.070,380.654 296.355,380.422 298.500 C 380.190 300.645,379.810 304.155,379.578 306.300 C 379.346 308.445,378.996 311.640,378.800 313.400 C 378.604 315.160,378.260 318.310,378.034 320.400 C 377.809 322.490,377.433 325.910,377.200 328.000 C 376.967 330.090,376.603 333.420,376.392 335.400 C 375.683 342.049,375.581 342.986,375.190 346.500 C 374.197 355.415,373.994 357.257,373.592 361.000 C 373.356 363.200,372.994 366.440,372.788 368.200 C 372.583 369.960,372.039 374.910,371.580 379.200 C 371.121 383.490,370.613 387.136,370.452 387.301 C 370.290 387.467,344.067 387.557,312.179 387.501 L 254.200 387.400 253.908 385.000 C 253.748 383.680,253.423 380.800,253.185 378.600 C 252.948 376.400,252.595 373.160,252.400 371.400 C 252.205 369.640,251.852 366.232,251.616 363.826 C 251.199 359.582,250.800 357.836,250.800 360.255 C 250.800 363.081,253.678 387.412,254.068 387.882 C 254.546 388.458,369.779 388.668,370.642 388.094 C 371.103 387.787,371.398 386.111,371.996 380.400 C 372.191 378.530,372.553 375.200,372.800 373.000 C 373.047 370.800,373.414 367.470,373.615 365.600 C 374.384 358.457,374.816 354.484,375.179 351.200 C 375.386 349.330,375.740 346.090,375.966 344.000 C 376.191 341.910,376.557 338.580,376.778 336.600 C 376.999 334.620,377.363 331.290,377.587 329.200 C 377.811 327.110,378.166 323.870,378.376 322.000 C 378.586 320.130,378.942 316.890,379.168 314.800 C 379.394 312.710,380.132 305.885,380.808 299.632 C 381.484 293.380,381.964 287.890,381.873 287.432 C 381.780 286.957,381.673 286.858,381.626 287.200 M231.276 288.600 C 231.260 289.480,231.395 290.920,231.577 291.800 C 232.030 293.988,232.061 291.844,231.618 289.000 C 231.313 287.041,231.306 287.033,231.276 288.600 M206.806 292.651 C 206.798 293.241,207.482 293.743,209.200 294.407 C 211.280 295.210,213.125 296.529,215.765 299.098 C 217.801 301.080,217.947 301.166,216.815 299.721 C 215.252 297.725,211.470 294.887,209.180 293.992 C 208.278 293.640,207.377 293.092,207.176 292.776 C 206.976 292.459,206.809 292.403,206.806 292.651 M232.073 296.000 C 232.058 296.770,232.195 298.120,232.377 299.000 C 232.836 301.221,232.874 298.950,232.420 296.400 C 232.122 294.722,232.098 294.695,232.073 296.000 M256.167 301.685 C 256.315 302.612,256.615 305.087,256.832 307.185 C 257.050 309.283,257.393 312.530,257.594 314.400 C 257.795 316.270,258.143 319.510,258.368 321.600 C 258.592 323.690,258.967 327.110,259.200 329.200 C 259.433 331.290,259.809 334.710,260.034 336.800 C 260.260 338.890,260.613 342.130,260.819 344.000 C 261.025 345.870,261.377 349.110,261.600 351.200 C 261.823 353.290,262.176 356.530,262.383 358.400 C 263.270 366.413,263.601 369.576,263.846 372.400 C 263.990 374.050,264.285 375.625,264.503 375.900 C 264.815 376.295,274.876 376.400,312.400 376.400 C 349.915 376.400,359.989 376.295,360.314 375.900 C 360.541 375.625,360.925 373.420,361.169 371.000 C 361.413 368.580,362.149 361.650,362.804 355.600 C 364.017 344.403,364.164 342.502,363.788 342.879 C 363.671 342.995,363.390 344.960,363.163 347.245 C 362.777 351.123,362.607 352.742,361.624 361.900 C 361.418 363.825,361.071 367.110,360.853 369.200 C 360.635 371.290,360.331 373.585,360.178 374.300 L 359.900 375.600 312.385 375.600 L 264.870 375.600 264.640 374.100 C 264.513 373.275,264.131 369.990,263.791 366.800 C 263.452 363.610,262.989 359.290,262.763 357.200 C 262.537 355.110,262.183 351.825,261.976 349.900 C 261.769 347.975,261.415 344.735,261.188 342.700 C 260.961 340.665,260.591 337.290,260.366 335.200 C 260.140 333.110,259.786 329.870,259.579 328.000 C 259.372 326.130,259.018 322.890,258.792 320.800 C 258.566 318.710,258.215 315.470,258.012 313.600 C 257.809 311.730,257.470 308.400,257.260 306.200 C 257.050 304.000,256.744 301.867,256.581 301.460 C 256.392 300.988,256.486 300.591,256.842 300.366 C 257.280 300.088,257.239 300.011,256.649 300.006 C 255.990 300.001,255.931 300.206,256.167 301.685 M367.847 300.306 C 368.176 300.522,368.156 301.770,367.771 305.000 C 367.229 309.558,367.065 312.669,367.384 312.349 C 367.485 312.248,367.759 310.283,367.993 307.983 C 368.227 305.682,368.527 302.945,368.661 301.900 C 368.876 300.220,368.817 300.001,368.152 300.006 C 367.691 300.010,367.573 300.126,367.847 300.306 M218.360 302.200 C 219.034 303.505,219.588 304.228,219.585 303.800 C 219.583 303.580,219.214 302.950,218.764 302.400 C 218.221 301.736,218.085 301.669,218.360 302.200 M232.869 303.400 C 232.856 304.060,232.995 305.320,233.177 306.200 C 233.465 307.592,233.511 307.644,233.531 306.600 C 233.544 305.940,233.405 304.680,233.223 303.800 C 232.935 302.408,232.889 302.356,232.869 303.400 M18.696 304.170 C 17.869 304.466,16.879 304.945,16.496 305.233 C 14.842 306.481,13.200 308.197,13.200 308.678 C 13.200 308.965,13.056 309.200,12.880 309.200 C 12.306 309.200,11.600 311.811,11.600 313.933 C 11.600 317.517,13.701 320.765,17.312 322.763 L 18.824 323.600 110.974 323.600 L 203.124 323.600 204.825 322.700 C 212.376 318.704,212.367 309.307,204.809 304.864 L 203.000 303.800 111.600 303.716 C 35.854 303.646,19.942 303.724,18.696 304.170 M220.339 306.387 C 220.702 307.480,221.051 308.147,221.114 307.869 C 221.227 307.366,220.132 304.400,219.833 304.400 C 219.747 304.400,219.975 305.294,220.339 306.387 M221.744 313.600 C 221.744 315.690,221.812 316.545,221.894 315.500 C 221.976 314.455,221.976 312.745,221.894 311.700 C 221.812 310.655,221.744 311.510,221.744 313.600 M233.669 311.000 C 233.656 311.660,233.795 312.920,233.977 313.800 C 234.265 315.192,234.311 315.244,234.331 314.200 C 234.344 313.540,234.205 312.280,234.023 311.400 C 233.735 310.008,233.689 309.956,233.669 311.000 M269.334 314.500 C 269.568 317.218,269.786 319.284,270.812 328.500 C 271.039 330.535,271.409 333.910,271.634 336.000 C 271.860 338.090,272.214 341.330,272.421 343.200 C 272.869 347.253,273.453 352.625,273.996 357.700 C 274.213 359.735,274.532 362.120,274.703 363.000 L 275.014 364.600 312.316 364.702 L 349.618 364.804 349.982 363.847 C 350.182 363.321,350.538 360.935,350.773 358.545 C 351.008 356.155,351.386 352.490,351.612 350.400 C 351.839 348.310,352.209 344.890,352.434 342.800 C 352.660 340.710,353.014 337.470,353.221 335.600 C 353.428 333.730,353.782 330.490,354.008 328.400 C 354.234 326.310,354.602 322.980,354.827 321.000 C 355.051 319.020,355.336 316.095,355.461 314.500 L 355.687 311.600 312.386 311.600 L 269.085 311.600 269.334 314.500 M355.200 312.584 C 355.200 312.905,355.022 314.480,354.804 316.084 C 354.586 317.688,354.039 322.510,353.587 326.800 C 352.604 336.149,351.760 344.037,351.191 349.200 C 350.961 351.290,350.586 354.710,350.359 356.800 C 350.131 358.890,349.857 361.365,349.748 362.300 L 349.551 364.000 312.431 364.000 L 275.311 364.000 275.033 361.500 C 274.418 355.957,273.986 352.013,273.600 348.400 C 273.155 344.240,272.685 339.951,271.998 333.800 C 271.752 331.600,271.393 328.270,271.200 326.400 C 270.504 319.661,270.017 315.369,269.758 313.700 L 269.495 312.000 312.347 312.000 C 349.639 312.000,355.200 312.076,355.200 312.584 M210.000 314.476 C 210.000 315.288,209.820 316.064,209.600 316.200 C 209.380 316.336,209.200 316.771,209.200 317.167 C 209.200 318.299,206.200 321.418,204.213 322.352 L 202.409 323.200 111.053 323.200 C 8.913 323.200,18.268 323.489,15.007 320.228 C 13.261 318.482,11.629 314.743,12.090 313.543 C 12.265 313.088,28.237 313.000,111.149 313.000 L 210.000 313.000 210.000 314.476 M366.641 315.638 C 366.463 317.309,366.395 319.019,366.491 319.438 C 366.729 320.490,367.309 315.281,367.118 313.798 C 367.024 313.066,366.838 313.782,366.641 315.638 M234.469 318.200 C 234.456 318.860,234.595 320.120,234.777 321.000 C 235.065 322.392,235.111 322.444,235.131 321.400 C 235.144 320.740,235.005 319.480,234.823 318.600 C 234.535 317.208,234.489 317.156,234.469 318.200 M365.900 322.156 C 365.735 323.232,365.620 324.852,365.644 325.756 L 365.688 327.400 366.051 325.600 C 366.251 324.610,366.366 322.990,366.307 322.000 L 366.200 320.200 365.900 322.156 M219.486 323.110 L 218.773 324.600 219.577 323.600 C 220.020 323.050,220.386 322.375,220.391 322.100 C 220.405 321.333,220.260 321.495,219.486 323.110 M246.901 324.400 C 246.897 325.830,247.032 327.540,247.200 328.200 C 247.634 329.907,247.648 326.561,247.218 323.800 L 246.907 321.800 246.901 324.400 M235.277 325.600 C 235.267 326.150,235.403 327.410,235.580 328.400 L 235.900 330.200 235.903 328.600 C 235.904 327.720,235.768 326.460,235.600 325.800 C 235.323 324.713,235.293 324.694,235.277 325.600 M216.001 328.198 C 215.486 328.748,215.139 329.264,215.232 329.346 C 215.324 329.428,215.819 328.978,216.330 328.347 C 217.476 326.935,217.274 326.844,216.001 328.198 M365.016 330.421 C 364.855 331.863,364.796 333.483,364.885 334.021 C 364.974 334.560,365.191 333.619,365.367 331.932 C 365.544 330.245,365.603 328.625,365.498 328.332 C 365.394 328.039,365.177 328.980,365.016 330.421 M247.697 331.800 C 247.696 333.120,247.832 334.740,248.000 335.400 C 248.441 337.135,248.458 333.661,248.020 331.200 L 247.700 329.400 247.697 331.800 M217.845 333.012 C 218.210 333.569,218.586 333.947,218.682 333.851 C 218.919 333.614,217.884 332.000,217.495 332.000 C 217.322 332.000,217.480 332.456,217.845 333.012 M236.077 332.800 C 236.067 333.350,236.203 334.610,236.380 335.600 L 236.700 337.400 236.703 335.800 C 236.704 334.920,236.568 333.660,236.400 333.000 C 236.123 331.913,236.093 331.894,236.077 332.800 M218.990 334.701 C 220.181 337.006,220.394 337.326,220.389 336.800 C 220.385 336.470,220.011 335.750,219.556 335.200 C 219.102 334.650,218.847 334.426,218.990 334.701 M19.688 335.225 C 17.308 335.694,13.200 338.638,13.200 339.875 C 13.200 340.164,13.056 340.400,12.880 340.400 C 12.288 340.400,11.600 343.041,11.600 345.316 C 11.600 347.463,11.884 348.269,13.662 351.167 C 14.417 352.396,18.149 354.804,19.268 354.782 C 19.966 354.769,19.812 354.627,18.651 354.213 C 8.939 350.751,10.310 337.494,20.573 335.631 C 26.613 334.535,27.041 334.677,35.200 340.506 C 42.896 346.005,48.480 349.951,51.560 352.069 C 55.803 354.987,56.865 354.780,37.000 354.904 L 20.200 355.009 37.700 355.105 C 52.210 355.184,55.200 355.107,55.200 354.658 C 55.200 354.203,50.879 350.935,44.800 346.793 C 44.030 346.268,43.310 345.725,43.200 345.587 C 43.090 345.449,41.650 344.409,40.000 343.276 C 38.350 342.143,34.930 339.773,32.400 338.010 L 27.800 334.804 24.600 334.846 C 22.840 334.869,20.630 335.039,19.688 335.225 M49.300 335.065 C 48.263 335.483,50.018 337.128,54.351 339.800 C 54.708 340.020,55.090 340.304,55.200 340.430 C 55.310 340.557,56.553 341.437,57.962 342.387 C 59.371 343.337,60.811 344.357,61.162 344.653 C 61.513 344.949,65.130 347.523,69.200 350.373 C 73.270 353.223,76.780 355.708,77.000 355.897 C 77.220 356.085,78.570 357.030,80.000 357.997 C 81.430 358.965,82.820 359.973,83.089 360.239 C 85.209 362.330,87.286 362.645,88.838 361.112 C 89.147 360.806,90.553 359.775,91.962 358.821 C 93.371 357.867,94.811 356.845,95.162 356.551 C 95.513 356.257,97.060 355.155,98.600 354.103 C 102.086 351.720,102.079 351.521,98.400 348.945 C 96.750 347.789,95.220 346.690,95.000 346.503 C 94.780 346.315,93.430 345.373,92.000 344.411 C 90.570 343.448,89.310 342.541,89.200 342.396 C 89.020 342.159,84.183 338.788,79.879 335.900 L 78.239 334.800 64.020 334.832 C 56.199 334.849,49.575 334.954,49.300 335.065 M99.700 335.065 C 98.653 335.488,100.889 337.467,105.953 340.600 C 106.309 340.820,106.690 341.099,106.800 341.221 C 106.910 341.343,108.165 342.243,109.589 343.221 C 111.013 344.199,112.453 345.223,112.789 345.496 C 113.125 345.769,116.730 348.323,120.800 351.173 C 124.870 354.023,128.380 356.508,128.600 356.697 C 128.820 356.885,130.170 357.831,131.600 358.800 C 133.030 359.769,134.547 360.883,134.971 361.276 C 136.489 362.685,138.392 362.329,140.511 360.239 C 140.780 359.973,142.170 358.969,143.600 358.008 C 145.030 357.047,146.290 356.145,146.400 356.004 C 146.510 355.863,148.490 354.448,150.800 352.861 C 153.110 351.273,156.620 348.807,158.600 347.380 C 160.580 345.954,163.820 343.680,165.800 342.327 C 167.780 340.974,169.490 339.749,169.600 339.604 C 169.710 339.459,170.925 338.582,172.300 337.655 C 174.904 335.900,175.227 335.449,174.167 335.043 C 173.411 334.752,100.421 334.774,99.700 335.065 M192.000 337.410 C 189.910 338.845,187.906 340.266,187.546 340.567 C 187.186 340.868,185.476 342.064,183.746 343.225 C 182.016 344.386,180.510 345.455,180.400 345.600 C 180.290 345.745,178.850 346.782,177.200 347.904 C 165.403 355.925,164.633 355.221,185.071 355.105 L 201.800 355.009 185.800 354.904 C 167.048 354.781,167.861 354.918,171.383 352.485 C 174.613 350.253,174.348 350.440,181.200 345.579 C 184.170 343.472,187.500 341.139,188.600 340.393 C 189.700 339.648,190.809 338.834,191.063 338.584 C 196.113 333.638,204.811 334.406,208.478 340.122 C 211.779 345.266,209.294 352.094,203.349 354.213 C 202.234 354.610,202.054 354.770,202.705 354.782 C 203.630 354.800,204.939 354.195,205.913 353.300 C 206.212 353.025,206.628 352.800,206.837 352.800 C 209.621 352.800,211.539 342.732,209.199 340.400 C 209.089 340.290,208.766 339.750,208.481 339.200 C 207.207 336.742,202.513 334.800,197.845 334.800 C 195.982 334.800,195.462 335.032,192.000 337.410 M80.722 337.100 C 82.277 338.145,85.765 340.566,88.474 342.479 C 91.183 344.393,95.006 347.093,96.970 348.479 C 101.538 351.705,101.548 351.438,96.722 354.829 C 94.455 356.422,91.408 358.598,89.951 359.663 C 86.262 362.361,87.532 362.806,76.600 354.986 C 73.960 353.097,70.270 350.483,68.400 349.177 C 66.530 347.871,63.531 345.767,61.735 344.501 C 59.940 343.236,56.475 340.799,54.035 339.088 C 51.596 337.376,49.600 335.801,49.600 335.588 C 49.600 335.345,54.880 335.200,63.748 335.200 L 77.895 335.200 80.722 337.100 M174.000 335.588 C 174.000 335.931,170.496 338.502,162.666 343.901 C 161.310 344.836,159.925 345.826,159.589 346.101 C 159.253 346.375,157.813 347.395,156.389 348.367 C 154.965 349.338,152.630 350.973,151.200 352.000 C 141.535 358.940,137.601 361.600,137.001 361.600 C 136.623 361.600,132.598 358.963,128.057 355.739 C 123.516 352.516,118.000 348.614,115.800 347.069 C 113.600 345.524,110.900 343.598,109.800 342.790 C 108.700 341.981,106.043 340.108,103.896 338.628 C 101.749 337.147,100.095 335.770,100.220 335.568 C 100.536 335.056,174.000 335.076,174.000 335.588 M364.303 337.000 C 364.141 337.880,364.029 339.500,364.053 340.600 L 364.098 342.600 364.457 340.200 C 364.906 337.199,364.774 334.443,364.303 337.000 M248.473 339.000 C 248.458 340.100,248.595 341.720,248.777 342.600 L 249.108 344.200 249.124 342.400 C 249.133 341.410,248.997 339.790,248.820 338.800 L 248.500 337.000 248.473 339.000 M237.075 341.800 C 237.198 343.340,237.366 344.675,237.449 344.767 C 237.726 345.073,237.510 341.416,237.179 340.200 C 236.973 339.443,236.935 340.034,237.075 341.800 M221.744 345.200 C 221.744 347.290,221.812 348.145,221.894 347.100 C 221.976 346.055,221.976 344.345,221.894 343.300 C 221.812 342.255,221.744 343.110,221.744 345.200 M249.273 346.200 C 249.258 347.300,249.395 348.920,249.577 349.800 L 249.908 351.400 249.924 349.600 C 249.933 348.610,249.797 346.990,249.620 346.000 L 249.300 344.200 249.273 346.200 M237.677 347.600 C 237.667 348.150,237.803 349.410,237.980 350.400 L 238.300 352.200 238.303 350.600 C 238.304 349.720,238.168 348.460,238.000 347.800 C 237.723 346.713,237.693 346.694,237.677 347.600 M220.845 351.000 C 220.819 351.440,220.172 353.060,219.407 354.600 C 218.642 356.140,218.303 357.040,218.653 356.600 C 219.674 355.317,221.253 351.550,221.065 350.846 C 220.937 350.367,220.881 350.406,220.845 351.000 M250.076 353.600 C 250.067 354.590,250.203 356.210,250.380 357.200 L 250.700 359.000 250.727 357.000 C 250.742 355.900,250.605 354.280,250.423 353.400 L 250.092 351.800 250.076 353.600 M238.675 356.600 C 238.798 358.140,238.966 359.475,239.049 359.567 C 239.326 359.873,239.110 356.216,238.779 355.000 C 238.573 354.243,238.535 354.834,238.675 356.600 M216.481 359.028 C 215.834 359.813,214.336 361.181,213.152 362.068 C 209.733 364.629,210.083 364.710,213.604 362.173 C 215.178 361.039,218.369 357.600,217.848 357.600 C 217.744 357.600,217.129 358.243,216.481 359.028 M107.378 361.527 C 102.042 365.184,94.750 370.311,93.962 370.961 C 93.611 371.250,92.171 372.263,90.762 373.213 C 89.353 374.163,88.110 375.064,88.000 375.216 C 87.516 375.884,86.055 375.998,85.471 375.414 C 85.133 375.076,84.679 374.800,84.462 374.800 C 84.245 374.800,84.007 374.651,83.933 374.470 C 83.860 374.288,82.384 373.163,80.653 371.970 C 78.922 370.776,76.404 369.035,75.058 368.100 L 72.611 366.400 49.906 366.400 C 28.890 366.400,27.200 366.450,27.200 367.073 C 27.200 368.040,28.790 372.421,29.568 373.600 C 29.932 374.150,30.487 375.112,30.802 375.738 C 33.342 380.778,43.962 387.745,48.828 387.564 C 49.363 387.544,48.630 387.207,47.200 386.814 C 37.971 384.280,28.747 375.281,27.914 368.000 L 27.800 367.000 50.020 366.897 L 72.240 366.793 75.620 369.118 C 77.479 370.397,80.582 372.559,82.515 373.922 C 86.848 376.976,86.383 377.000,91.311 373.479 C 93.560 371.873,97.920 368.783,101.000 366.613 C 104.080 364.444,107.669 361.888,108.975 360.934 C 112.121 358.637,110.409 357.880,124.000 367.581 C 125.210 368.445,128.614 370.863,131.565 372.954 L 136.930 376.757 140.765 374.110 C 142.874 372.654,146.119 370.414,147.975 369.131 L 151.350 366.800 172.875 366.800 C 184.714 366.800,194.397 366.935,194.394 367.100 C 194.256 374.238,184.366 384.188,174.800 386.814 C 173.370 387.207,172.650 387.542,173.200 387.560 C 175.437 387.631,180.453 385.605,184.001 383.198 C 186.755 381.330,191.575 376.082,191.593 374.933 C 191.597 374.677,191.735 374.407,191.900 374.333 C 192.391 374.115,194.000 370.784,194.000 369.986 C 194.000 369.580,194.180 369.136,194.400 369.000 C 194.620 368.864,194.800 368.223,194.800 367.576 L 194.800 366.400 172.896 366.400 L 150.991 366.400 148.196 368.265 C 146.658 369.290,145.310 370.249,145.200 370.395 C 145.090 370.541,143.830 371.444,142.400 372.402 C 140.970 373.361,139.740 374.292,139.667 374.472 C 139.593 374.653,139.355 374.800,139.138 374.800 C 138.921 374.800,138.467 375.076,138.129 375.414 C 137.513 376.030,135.940 375.860,135.667 375.147 C 135.593 374.956,135.293 374.800,135.000 374.800 C 134.707 374.800,134.407 374.653,134.333 374.472 C 134.260 374.292,133.120 373.397,131.800 372.484 C 130.480 371.571,127.060 369.166,124.200 367.140 C 110.374 357.346,112.462 358.042,107.378 361.527 M239.482 364.000 C 239.604 365.650,239.771 367.075,239.852 367.167 C 240.128 367.477,239.907 363.408,239.583 362.200 C 239.386 361.468,239.347 362.169,239.482 364.000 M207.206 365.515 C 206.379 366.184,205.899 367.687,205.391 371.200 C 205.211 372.449,206.153 369.172,206.625 366.910 C 206.727 366.421,207.303 365.753,207.905 365.426 C 208.507 365.099,208.795 364.825,208.544 364.816 C 208.294 364.807,207.692 365.122,207.206 365.515 M240.297 371.600 C 240.415 373.250,240.576 374.675,240.656 374.767 C 240.922 375.075,240.709 371.013,240.394 369.800 C 240.212 369.097,240.172 369.842,240.297 371.600 M204.292 374.083 C 202.777 377.865,202.401 378.936,202.704 378.600 C 203.192 378.060,204.848 373.914,204.653 373.720 C 204.568 373.635,204.406 373.798,204.292 374.083 M241.102 379.000 C 241.217 380.760,241.377 382.275,241.456 382.367 C 241.723 382.675,241.509 378.212,241.198 377.000 C 241.024 376.319,240.982 377.185,241.102 379.000 M199.981 382.429 C 198.795 384.235,196.349 387.098,194.431 388.925 C 192.544 390.722,191.450 391.841,192.000 391.412 C 195.739 388.493,200.201 383.422,201.953 380.100 C 202.934 378.240,202.029 379.310,199.981 382.429 M241.902 386.200 C 242.017 387.960,242.177 389.475,242.256 389.567 C 242.523 389.875,242.309 385.412,241.998 384.200 C 241.824 383.519,241.782 384.385,241.902 386.200 M51.000 388.000 C 51.660 388.168,78.660 388.305,111.000 388.305 C 143.340 388.305,170.340 388.168,171.000 388.000 C 171.660 387.832,144.660 387.695,111.000 387.695 C 77.340 387.695,50.340 387.832,51.000 388.000 M242.440 391.433 C 242.462 392.075,242.633 393.050,242.820 393.600 C 243.049 394.274,243.084 393.949,242.928 392.600 C 242.669 390.350,242.379 389.659,242.440 391.433 M189.100 393.078 C 188.275 393.645,187.600 394.262,187.600 394.450 C 187.600 394.638,187.915 394.534,188.300 394.218 C 188.685 393.902,189.450 393.279,190.000 392.835 C 191.391 391.710,190.897 391.844,189.100 393.078 " stroke="none" fill="#5e4122" fill-rule="evenodd"></path></g></svg>