<svg xmlns="http://www.w3.org/2000/svg" width="48" height="48" viewBox="0 0 48 48" fill="none"><g clip-path="url(#clip0_524_1911)"><path d="M47.85 43.8188V12.0375C47.85 9.81565 46.0407 8.01565 43.8282 8.01565H32.1V4.1719C32.1 1.95002 30.2907 0.150024 28.0782 0.150024H20.3157C18.0938 0.150024 16.2938 1.9594 16.2938 4.1719V8.01565H4.1813C1.95942 8.01565 0.159424 9.82502 0.159424 12.0375V43.8188C0.159424 46.0406 1.9688 47.8406 4.1813 47.8406H43.8282C46.0407 47.85 47.85 46.0406 47.85 43.8188ZM18.3469 4.18127C18.3469 3.10315 19.2282 2.2219 20.3063 2.2219H28.0688C29.1469 2.2219 30.0282 3.10315 30.0282 4.18127V8.02502H18.3469V4.18127ZM2.21255 12.0469C2.21255 10.9688 3.0938 10.0875 4.17192 10.0875H43.8188C44.8969 10.0875 45.7782 10.9688 45.7782 12.0469V18.5344C45.7782 22.0969 42.8813 24.9938 39.3188 24.9938H8.66255C5.10005 24.9938 2.20317 22.0969 2.20317 18.5344V12.0469H2.21255ZM43.8188 45.7875H4.1813C3.10317 45.7875 2.22192 44.9063 2.22192 43.8281V24.075C3.78755 25.8938 6.10317 27.0469 8.6813 27.0469H39.3375C41.9157 27.0469 44.2313 25.8938 45.7969 24.075V43.8188C45.7875 44.9063 44.9063 45.7875 43.8188 45.7875Z" fill="#102A49"></path></g><defs><clipPath id="clip0_524_1911"><rect width="48" height="48" fill="white"></rect></clipPath></defs></svg>