<svg xmlns="http://www.w3.org/2000/svg" width="48" height="48" viewBox="0 0 48 48" fill="none"><path d="M43.5 2.25V10.5H36V2.25C36 1.8375 36.3375 1.5 36.75 1.5H42.75C43.1625 1.5 43.5 1.8375 43.5 2.25Z" fill="#ECC19C"></path><path d="M31.5 7.5C32.325 7.5 33 8.175 33 9C33 9.4125 32.835 9.7875 32.5575 10.0575C32.2875 10.335 31.9125 10.5 31.5 10.5H18C17.175 10.5 16.5 9.825 16.5 9C16.5 8.5875 16.665 8.2125 16.9425 7.9425C17.2125 7.665 17.5875 7.5 18 7.5H31.5Z" fill="#FCD770"></path><path d="M33 3V6C33 6.825 32.325 7.5 31.5 7.5H18C17.175 7.5 16.5 6.825 16.5 6V3C16.5 2.175 17.175 1.5 18 1.5H31.5C32.325 1.5 33 2.175 33 3Z" fill="#EF7385"></path><path d="M46.5 12V16.5H13.5V12C13.5 11.175 14.175 10.5 15 10.5H45C45.825 10.5 46.5 11.175 46.5 12Z" fill="#CCD1D9"></path><path d="M13.5 16.5V45C13.5 45.825 14.175 46.5 15 46.5H45C45.825 46.5 46.5 45.825 46.5 45V16.5H13.5Z" fill="#E6E9ED"></path><path d="M22.5 30C22.4997 31.1067 22.7443 32.1998 23.2163 33.2009C23.6882 34.2019 24.3759 35.0861 25.23 35.79L24.9675 39.2175C23.3325 38.3175 21.96 37.005 21 35.4075C21.9525 33.825 22.5 31.98 22.5 30ZM40.5 30C40.5 32.925 39.3075 35.565 37.38 37.47L36.51 33.72C37.1612 32.5885 37.5026 31.3055 37.5 30C37.5 25.86 34.14 22.5 30 22.5C25.86 22.5 22.5 25.86 22.5 30C22.5 28.0275 21.9525 26.175 21 24.5925C22.8375 21.54 26.1825 19.5 30 19.5C35.7975 19.5 40.5 24.2025 40.5 30Z" fill="#AAB2BD"></path><path d="M21.0001 24.5925C19.4101 21.9525 16.6876 20.0625 13.5001 19.605C13.0031 19.5357 12.5019 19.5006 12.0001 19.5C7.2151 19.5 3.1726 22.7025 1.9126 27.0825C2.0176 27.03 2.1301 27 2.2501 27H3.7501C4.1626 27 4.5001 27.3375 4.5001 27.75V32.25C4.5001 32.6625 4.1626 33 3.7501 33H2.2501C2.1301 33 2.0176 32.97 1.9126 32.9175C3.1726 37.2975 7.2151 40.5 12.0001 40.5C12.5101 40.5 13.0126 40.4625 13.5001 40.395C16.6876 39.9375 19.4101 38.0475 21.0001 35.4075C21.9526 33.825 22.5001 31.98 22.5001 30C22.5001 28.0275 21.9526 26.175 21.0001 24.5925Z" fill="#AAB2BD"></path><path d="M3.75002 27C4.16252 27 4.50002 27.3375 4.50002 27.75V32.25C4.50002 32.6625 4.16252 33 3.75002 33H2.25002C2.13002 33 2.01752 32.97 1.91252 32.9175C1.78795 32.8563 1.68317 32.7612 1.6102 32.6431C1.53724 32.525 1.49905 32.3888 1.50002 32.25V27.75C1.50002 27.4575 1.66502 27.2025 1.91252 27.0825C2.01752 27.03 2.13002 27 2.25002 27H3.75002Z" fill="#969FAA"></path><path d="M12 37.5C16.1421 37.5 19.5 34.1421 19.5 30C19.5 25.8579 16.1421 22.5 12 22.5C7.85786 22.5 4.5 25.8579 4.5 30C4.5 34.1421 7.85786 37.5 12 37.5Z" fill="#69D6F4"></path><path d="M37.5 30C37.5 31.3575 37.14 32.625 36.51 33.72L36.2475 32.5875C36.09 31.8975 35.6325 31.32 35.0025 30.9975C34.6725 30.8325 34.305 30.75 33.9375 30.75C33.3225 30.75 32.7075 30.8775 32.1375 31.1175L29.85 32.1L29.0325 31.2825C28.6875 30.9375 28.23 30.75 27.75 30.75C27.27 30.75 26.8125 30.9375 26.4675 31.2825C25.845 31.905 25.4625 32.7375 25.395 33.615L25.23 35.79C24.3759 35.0861 23.6882 34.2019 23.2163 33.2009C22.7443 32.1998 22.4997 31.1067 22.5 30C22.5 25.86 25.86 22.5 30 22.5C34.14 22.5 37.5 25.86 37.5 30Z" fill="#69D6F4"></path><path d="M33.75 42L31.7925 43.305C31.5975 43.4325 31.38 43.5 31.155 43.5C30.5175 43.5 30 42.9825 30 42.345V42C29.317 41.5449 28.526 41.2781 27.7068 41.2268C26.8877 41.1754 26.0695 41.3412 25.335 41.7075L24.75 42L24.9675 39.2175L25.23 35.79L25.395 33.615C25.4625 32.7375 25.845 31.905 26.4675 31.2825C26.8125 30.9375 27.27 30.75 27.75 30.75C28.23 30.75 28.6875 30.9375 29.0325 31.2825L29.85 32.1L32.1375 31.1175C32.7075 30.8775 33.3225 30.75 33.9375 30.75C34.305 30.75 34.6725 30.8325 35.0025 30.9975C35.6325 31.32 36.09 31.8975 36.2475 32.5875L36.51 33.72L37.38 37.47L38.205 41.0475C38.3047 41.4842 38.2386 41.9424 38.0197 42.3331C37.8007 42.7239 37.4445 43.0195 37.02 43.1625L36.2925 43.4025C35.8534 43.5473 35.3768 43.5292 34.9499 43.3516C34.523 43.1739 34.1743 42.8486 33.9675 42.435L33.75 42Z" fill="#EF7385"></path><path d="M45 9.75H44.25V2.25C44.25 1.42275 43.5773 0.75 42.75 0.75H36.75C35.9227 0.75 35.25 1.42275 35.25 2.25V9.75H33.612C33.696 9.5145 33.75 9.264 33.75 9C33.7481 8.44469 33.5396 7.90996 33.165 7.5C33.5396 7.09004 33.7481 6.55531 33.75 6V3C33.75 1.7595 32.7405 0.75 31.5 0.75H18C16.7595 0.75 15.75 1.7595 15.75 3V6C15.75 6.57825 15.9758 7.101 16.335 7.5C15.9602 7.90981 15.7516 8.44463 15.75 9C15.75 9.264 15.804 9.5145 15.888 9.75H15C13.7595 9.75 12.75 10.7595 12.75 12V18.7883C12.501 18.7718 12.2535 18.75 12 18.75C7.10625 18.75 2.739 21.9743 1.275 26.619C1.11112 26.7585 0.979349 26.9318 0.88873 27.127C0.798111 27.3223 0.750786 27.5348 0.75 27.75V32.25C0.75 32.703 0.95625 33.1057 1.27575 33.381C2.73975 38.0257 7.10625 41.25 12 41.25C12.2535 41.25 12.501 41.2283 12.75 41.2118V45C12.75 46.2405 13.7595 47.25 15 47.25H45C46.2405 47.25 47.25 46.2405 47.25 45V12C47.25 10.7595 46.2405 9.75 45 9.75ZM36.75 2.25H42.75V9.75H41.5605L38.7803 6.96975L37.7197 8.03025L39.4395 9.75H36.75V2.25ZM17.25 3C17.25 2.58675 17.586 2.25 18 2.25H31.5C31.914 2.25 32.25 2.58675 32.25 3V6C32.25 6.41325 31.914 6.75 31.5 6.75H18C17.586 6.75 17.25 6.41325 17.25 6V3ZM17.25 9C17.25 8.58675 17.586 8.25 18 8.25H31.5C31.6931 8.25864 31.8754 8.34143 32.009 8.48114C32.1426 8.62084 32.2172 8.8067 32.2172 9C32.2172 9.1933 32.1426 9.37916 32.009 9.51886C31.8754 9.65857 31.6931 9.74136 31.5 9.75H18C17.586 9.75 17.25 9.41325 17.25 9ZM15 11.25H45C45.414 11.25 45.75 11.5868 45.75 12V15.75H14.25V12C14.25 11.5868 14.586 11.25 15 11.25ZM3.75075 30.0143L3.7515 32.25H2.25V27.75H3.75L3.75075 29.9857L3.75 30L3.75075 30.0143ZM3.006 33.75H3.75C4.044 33.75 4.31625 33.6623 4.54725 33.5153C5.871 36.309 8.709 38.25 12 38.25C16.5488 38.25 20.25 34.5488 20.25 30C20.25 25.4512 16.5488 21.75 12 21.75C8.709 21.75 5.871 23.691 4.54725 26.4847C4.3094 26.3319 4.03272 26.2504 3.75 26.25H3.006C4.503 22.671 8.05275 20.25 12 20.25C17.376 20.25 21.75 24.624 21.75 30C21.75 35.376 17.376 39.75 12 39.75C8.05275 39.75 4.503 37.329 3.006 33.75ZM12 23.25C15.7222 23.25 18.75 26.2778 18.75 30C18.75 33.7222 15.7222 36.75 12 36.75C8.27775 36.75 5.25 33.7222 5.25 30C5.25 26.2778 8.27775 23.25 12 23.25ZM34.4805 41.784L33.7455 35.1675L32.2545 35.3333L32.9542 41.6295L31.374 42.6832C31.1258 42.849 30.75 42.6495 30.75 42.3488V33.75H29.25V40.7903C28.0697 40.3645 26.7781 40.3618 25.596 40.7827L26.1427 33.675C26.1972 32.9711 26.5015 32.3098 27.0007 31.8105C27.402 31.4108 28.0995 31.4108 28.5007 31.8105L28.5375 31.8473L27.456 32.3108L28.0463 33.6892L32.433 31.8097C32.9091 31.6047 33.4221 31.4993 33.9405 31.5C34.3071 31.5005 34.6627 31.6249 34.9496 31.8532C35.2365 32.0814 35.4378 32.3999 35.5208 32.757L37.4738 41.22C37.5322 41.4738 37.4939 41.7403 37.3663 41.9674C37.2387 42.1944 37.0309 42.3657 36.7837 42.4478L36.057 42.6892C35.5223 42.8715 34.896 42.6142 34.6395 42.1005L34.4805 41.784ZM36.5745 31.4797C36.2762 30.9893 35.8479 30.5911 35.337 30.3292C34.903 30.1135 34.4251 30.0008 33.9405 30C33.2145 30 32.508 30.1448 31.8405 30.4313L30.0217 31.2105L29.5605 30.75C28.5938 29.7832 26.9062 29.7832 25.9395 30.75C25.1877 31.5026 24.7291 32.4989 24.6465 33.5595L24.6083 34.056C23.7263 32.8878 23.2494 31.4638 23.25 30C23.25 26.2778 26.2778 23.25 30 23.25C33.7222 23.25 36.75 26.2778 36.75 30C36.75 30.5002 36.6832 30.9952 36.5745 31.4797ZM24.4523 36.09L24.312 37.9132C23.3557 37.2189 22.533 36.3573 21.8835 35.37C22.1767 34.8322 22.4175 34.263 22.6207 33.6772C23.0769 34.5878 23.6979 35.4059 24.4523 36.09ZM37.3027 33.81C37.9207 32.6348 38.2457 31.3278 38.25 30C38.25 25.4512 34.5488 21.75 30 21.75C26.7705 21.75 23.9767 23.6197 22.623 26.3287C22.4239 25.7427 22.1763 25.1742 21.8828 24.6293C23.6963 21.8865 26.6918 20.25 30 20.25C35.376 20.25 39.75 24.624 39.75 30C39.75 32.1503 39.051 34.1828 37.7767 35.8643L37.3027 33.81ZM45 45.75H15C14.8011 45.75 14.6103 45.671 14.4697 45.5303C14.329 45.3897 14.25 45.1989 14.25 45V41.0235C16.9987 40.4633 19.3763 38.8905 21 36.7215C21.8658 37.8778 22.9459 38.8568 24.1815 39.6052L23.9003 43.2645L25.6672 42.3795C26.2269 42.1016 26.845 41.9618 27.4698 41.9718C28.0945 41.9819 28.7078 42.1415 29.2583 42.4373C29.2808 42.9246 29.4899 43.3847 29.8423 43.7221C30.1947 44.0596 30.6633 44.2486 31.1512 44.25C31.5277 44.25 31.8923 44.1398 32.2058 43.9305L33.4785 43.0815C33.7226 43.4427 34.0518 43.7382 34.4371 43.942C34.8225 44.1458 35.2521 44.2516 35.688 44.25C35.9775 44.25 36.2625 44.2035 36.5332 44.112L37.2585 43.8705C37.8599 43.6705 38.3651 43.2533 38.6751 42.7006C38.9851 42.1478 39.0777 41.4992 38.9347 40.8817L38.1968 37.6853C40.1625 35.5935 41.25 32.8867 41.25 30C41.25 23.7968 36.2032 18.75 30 18.75C26.3985 18.75 23.1098 20.4218 20.9918 23.2673C19.368 21.1043 16.9942 19.536 14.25 18.9765V17.25H45.75V45C45.75 45.1989 45.671 45.3897 45.5303 45.5303C45.3897 45.671 45.1989 45.75 45 45.75Z" fill="black"></path><path d="M21 3.75001H30.75V5.25001H21V3.75001ZM37.7152 4.28401L38.7758 3.22351L42.5258 6.97351L41.4645 8.03326L37.7152 4.28401ZM17.25 12.75H18.75V14.25H17.25V12.75ZM20.25 12.75H21.75V14.25H20.25V12.75ZM23.25 12.75H24.75V14.25H23.25V12.75ZM29.25 12.75H33.75V14.25H29.25V12.75ZM35.25 12.75H41.25V14.25H35.25V12.75Z" fill="black"></path></svg>