<svg xmlns="http://www.w3.org/2000/svg" width="36" height="36" viewBox="0 0 36 36" fill="none"><rect width="36" height="36" rx="18" fill="#304A67"></rect><path d="M8.5 18C8.5 13.5217 8.5 11.2825 9.89124 9.89124C11.2825 8.5 13.5217 8.5 18 8.5C22.4783 8.5 24.7175 8.5 26.1088 9.89124C27.5 11.2825 27.5 13.5217 27.5 18C27.5 22.4783 27.5 24.7175 26.1088 26.1088C24.7175 27.5 22.4783 27.5 18 27.5C13.5217 27.5 11.2825 27.5 9.89124 26.1088C8.5 24.7175 8.5 22.4783 8.5 18Z" stroke="#FDFDFD" stroke-width="1.5" stroke-linejoin="round"></path><path d="M22.9265 14.0264H19.9816C18.9378 14.0264 18.0894 14.8685 18.0817 15.9123L17.9964 27.4268M16.082 20.0017H20.8847" stroke="#FDFDFD" stroke-width="1.5" stroke-linecap="round" stroke-linejoin="round"></path></svg>