<svg xmlns="http://www.w3.org/2000/svg" width="36" height="36" viewBox="0 0 36 36" fill="none"><rect width="36" height="36" rx="18" fill="#304A67"></rect><path d="M8 12L14.913 15.917C17.4616 17.361 18.5384 17.361 21.087 15.917L28 12" stroke="#FDFDFD" stroke-width="1.5" stroke-linejoin="round"></path><path d="M8.01577 19.4756C8.08114 22.5412 8.11383 24.0739 9.24496 25.2094C10.3761 26.3448 11.9503 26.3843 15.0988 26.4634C17.0393 26.5122 18.9607 26.5122 20.9012 26.4634C24.0497 26.3843 25.6239 26.3448 26.7551 25.2094C27.8862 24.0739 27.9189 22.5412 27.9842 19.4756C28.0053 18.4899 28.0053 17.5101 27.9842 16.5244C27.9189 13.4589 27.8862 11.9261 26.7551 10.7907C25.6239 9.65523 24.0497 9.61568 20.9012 9.53657C18.9607 9.48781 17.0393 9.48781 15.0988 9.53656C11.9503 9.61566 10.3761 9.65521 9.24495 10.7907C8.11382 11.9261 8.08114 13.4589 8.01576 16.5244C7.99474 17.5101 7.99475 18.4899 8.01577 19.4756Z" stroke="#FDFDFD" stroke-width="1.5" stroke-linejoin="round"></path></svg>