<svg xmlns="http://www.w3.org/2000/svg" width="48" height="48" viewBox="0 0 48 48" fill="none"><g clip-path="url(#clip0_741_326)"><path fill-rule="evenodd" clip-rule="evenodd" d="M43.136 25.456C43.1548 25.7829 43.1066 26.1101 42.9945 26.4177C42.8824 26.7253 42.7087 27.0068 42.484 27.2449C42.2593 27.4831 41.9884 27.6729 41.6879 27.8027C41.3873 27.9325 41.0634 27.9997 40.736 28H7.26405C6.93665 27.9997 6.61277 27.9325 6.31222 27.8027C6.01167 27.6729 5.74077 27.4831 5.51611 27.2449C5.29144 27.0068 5.11774 26.7253 5.00562 26.4177C4.8935 26.1101 4.84532 25.7829 4.86404 25.456C4.90404 24.624 4.96804 23.816 5.04804 23.048L5.05605 23.04C6.30405 11.232 11.912 6.69601 14.208 5.32001L14.232 5.12001C14.277 4.75614 14.405 4.40747 14.6061 4.10092C14.8073 3.79437 15.0762 3.53814 15.392 3.35201C17.153 2.43066 19.0771 1.86267 21.056 1.68001C21.2816 1.40377 21.566 1.18141 21.8885 1.02916C22.211 0.876911 22.5634 0.798622 22.92 0.800011H25.08C25.8024 0.796811 26.4872 1.12001 26.944 1.68001C28.9232 1.86241 30.8472 2.43041 32.608 3.35201C32.9239 3.53814 33.1928 3.79437 33.3939 4.10092C33.5951 4.40747 33.7231 4.75614 33.768 5.12001L33.792 5.32001C36.088 6.69601 41.696 11.232 42.944 23.04L42.952 23.048C43.032 23.816 43.096 24.624 43.136 25.456Z" fill="#FFDC00"></path><path fill-rule="evenodd" clip-rule="evenodd" d="M42.952 23.048L42.944 23.04C41.696 11.232 36.0881 6.69601 33.7921 5.32001L33.768 5.12001C33.7231 4.75613 33.5951 4.40746 33.3939 4.10091C33.1928 3.79436 32.9239 3.53814 32.608 3.35201C30.8471 2.43066 28.923 1.86266 26.944 1.68001C26.7185 1.40377 26.4341 1.1814 26.1116 1.02916C25.7891 0.876906 25.4367 0.798616 25.08 0.800006H22.92C22.8792 0.800006 22.84 0.811206 22.8 0.813606C23.4784 0.841606 24.112 1.15601 24.544 1.68001C26.5232 1.86241 28.4472 2.43041 30.208 3.35201C30.5239 3.53814 30.7928 3.79436 30.9939 4.10091C31.1951 4.40746 31.3231 4.75613 31.368 5.12001L31.3921 5.32001C33.6881 6.69601 39.296 11.232 40.544 23.04L40.552 23.048C40.632 23.816 40.696 24.624 40.736 25.456C40.7548 25.7829 40.7066 26.1101 40.5945 26.4177C40.4824 26.7253 40.3087 27.0068 40.084 27.2449C39.8593 27.4831 39.5884 27.6729 39.2879 27.8027C38.9873 27.9325 38.6634 27.9997 38.336 28H40.736C41.0634 27.9997 41.3873 27.9325 41.6879 27.8027C41.9884 27.6729 42.2593 27.4831 42.484 27.2449C42.7087 27.0068 42.8824 26.7253 42.9945 26.4177C43.1066 26.1101 43.1548 25.7829 43.136 25.456C43.096 24.624 43.032 23.816 42.952 23.048Z" fill="#FEC108"></path><path fill-rule="evenodd" clip-rule="evenodd" d="M47.2 29.032C47.2018 29.668 46.9874 30.2858 46.592 30.784C46.4608 30.948 46.3104 31.096 46.144 31.224C45.816 31.4856 45.4336 31.6688 45.024 31.76C43.629 32.0362 42.2183 32.2259 40.8 32.328C39.848 32.408 38.784 32.48 37.6 32.536C34.096 32.712 29.584 32.8 24 32.8C18.416 32.8 13.904 32.712 10.4 32.536C9.21597 32.48 8.15197 32.408 7.19997 32.328C5.78161 32.2259 4.37092 32.0362 2.97597 31.76C2.56666 31.669 2.18356 31.4857 1.85597 31.224C1.56218 30.9898 1.31851 30.6989 1.13949 30.3686C0.960465 30.0383 0.849741 29.6754 0.813911 29.3014C0.778081 28.9274 0.817877 28.5501 0.93093 28.1918C1.04398 27.8335 1.22798 27.5017 1.47197 27.216L5.04797 23.048C4.96797 23.816 4.90397 24.624 4.86397 25.456C4.84525 25.7828 4.89342 26.1101 5.00554 26.4177C5.11766 26.7253 5.29136 27.0068 5.51603 27.2449C5.74069 27.483 6.01159 27.6728 6.31214 27.8027C6.61269 27.9325 6.93657 27.9996 7.26397 28H40.736C41.0634 27.9996 41.3872 27.9325 41.6878 27.8027C41.9883 27.6728 42.2592 27.483 42.4839 27.2449C42.7086 27.0068 42.8823 26.7253 42.9944 26.4177C43.1065 26.1101 43.1547 25.7828 43.136 25.456C43.096 24.624 43.032 23.816 42.952 23.048L46.528 27.216C46.9608 27.7221 47.1991 28.366 47.2 29.032Z" fill="#FEC108"></path><path fill-rule="evenodd" clip-rule="evenodd" d="M7.20005 32.328V47.2H4.00005C3.15136 47.2 2.33743 46.8629 1.73731 46.2627C1.13719 45.6626 0.800053 44.8487 0.800053 44V33.6C0.799341 33.152 0.893009 32.7089 1.07496 32.2995C1.2569 31.8901 1.52305 31.5237 1.85605 31.224C2.18405 31.4856 2.56645 31.6688 2.97605 31.76C4.37125 32.036 5.78165 32.2256 7.20005 32.328Z" fill="#FF9801"></path><path fill-rule="evenodd" clip-rule="evenodd" d="M2.97594 31.76C2.56663 31.669 2.18354 31.4857 1.85594 31.224C1.64237 31.4231 1.45717 31.6505 1.30554 31.9C2.23994 32.0648 3.39594 32.2088 4.79994 32.328V47.2H7.19994V32.328C5.78158 32.2259 4.37089 32.0362 2.97594 31.76Z" fill="#F57C00"></path><path fill-rule="evenodd" clip-rule="evenodd" d="M10.4 32.536V45.6C10.3987 46.024 10.2297 46.4302 9.92992 46.73C9.63014 47.0298 9.22391 47.1987 8.79995 47.2H7.19995V32.328C8.15195 32.408 9.21595 32.48 10.4 32.536Z" fill="#607D8B"></path><path fill-rule="evenodd" clip-rule="evenodd" d="M0.800049 35.2C1.64874 35.2 2.46267 35.5372 3.06279 36.1373C3.66291 36.7374 4.00005 37.5513 4.00005 38.4C4.00005 39.2487 3.66291 40.0626 3.06279 40.6628C2.46267 41.2629 1.64874 41.6 0.800049 41.6" fill="#F5F5F5"></path><path fill-rule="evenodd" clip-rule="evenodd" d="M40.8 32.328V47.2H39.2C38.776 47.1987 38.3698 47.0298 38.07 46.73C37.7702 46.4302 37.6012 46.024 37.6 45.6V32.536C38.784 32.48 39.848 32.408 40.8 32.328Z" fill="#607D8B"></path><path fill-rule="evenodd" clip-rule="evenodd" d="M47.2 33.6V44C47.2 44.8487 46.8629 45.6626 46.2628 46.2627C45.6627 46.8629 44.8487 47.2 44 47.2H40.8V32.328C42.2184 32.2259 43.6291 32.0362 45.024 31.76C45.4336 31.6688 45.816 31.4856 46.144 31.224C46.4771 31.5237 46.7432 31.8901 46.9251 32.2995C47.1071 32.7089 47.2008 33.152 47.2 33.6Z" fill="#FF9801"></path><path fill-rule="evenodd" clip-rule="evenodd" d="M46.144 31.224C45.816 31.4856 45.4336 31.6688 45.024 31.76C44.8008 31.8088 44.552 31.8544 44.2944 31.9C44.6213 32.407 44.7967 32.9968 44.8 33.6V44C44.8 44.8487 44.4628 45.6626 43.8627 46.2627C43.2626 46.8629 42.4487 47.2 41.6 47.2H44C44.8487 47.2 45.6626 46.8629 46.2627 46.2627C46.8628 45.6626 47.2 44.8487 47.2 44V33.6C47.2007 33.152 47.107 32.7089 46.9251 32.2995C46.7431 31.8901 46.477 31.5237 46.144 31.224Z" fill="#F57C00"></path><path fill-rule="evenodd" clip-rule="evenodd" d="M47.2 35.2C46.3513 35.2 45.5374 35.5372 44.9373 36.1373C44.3371 36.7374 44 37.5513 44 38.4C44 39.2487 44.3371 40.0626 44.9373 40.6628C45.5374 41.2629 46.3513 41.6 47.2 41.6" fill="#F5F5F5"></path><path d="M4.00005 48H8.80005C9.43657 48 10.047 47.7472 10.4971 47.2971C10.9472 46.847 11.2001 46.2366 11.2001 45.6V33.3768C14.5745 33.5264 18.8001 33.6 24.0001 33.6C29.2001 33.6 33.4249 33.5264 36.8001 33.376V45.6C36.8001 46.2366 37.0529 46.847 37.503 47.2971C37.9531 47.7472 38.5635 48 39.2001 48H44.0001C45.0605 47.9988 46.0772 47.5769 46.8271 46.8271C47.5769 46.0772 47.9988 45.0605 48.0001 44V33.6C47.9997 32.7567 47.7332 31.935 47.2385 31.252C47.7505 30.597 48.02 29.7848 48.0012 28.9536C47.9823 28.1224 47.6764 27.3233 47.1353 26.692L43.7161 22.712C42.4449 11.3 37.1793 6.53603 34.5329 4.83763C34.4495 4.38517 34.2696 3.956 34.0054 3.57938C33.7411 3.20276 33.3988 2.88755 33.0017 2.65523C31.2397 1.72199 29.3161 1.13309 27.3337 0.92003C26.7338 0.327213 25.9234 -0.00362215 25.0801 2.99179e-05H22.9201C22.0767 -0.00362215 21.2663 0.327213 20.6665 0.92003C18.6821 1.1333 16.7568 1.72332 14.9937 2.65843C14.5994 2.89155 14.2598 3.20648 13.9976 3.58198C13.7354 3.95748 13.5567 4.38484 13.4737 4.83523C10.8337 6.53123 5.56005 11.2928 4.28725 22.7088L0.864854 26.6952C0.323894 27.3248 0.0184679 28.1228 0.000810807 28.9527C-0.0168463 29.7826 0.254362 30.5928 0.768054 31.2448C0.269675 31.9291 0.000818233 32.7535 5.40502e-05 33.6V44C0.00132434 45.0605 0.42316 46.0772 1.17303 46.8271C1.9229 47.5769 2.93958 47.9988 4.00005 48ZM1.60005 36.1472C2.06769 36.3101 2.47304 36.6146 2.75987 37.0182C3.04671 37.4219 3.20081 37.9048 3.20081 38.4C3.20081 38.8952 3.04671 39.3782 2.75987 39.7818C2.47304 40.1855 2.06769 40.4899 1.60005 40.6528V36.1472ZM1.60005 44V42.32C2.50428 42.1364 3.31723 41.6458 3.90116 40.9314C4.48508 40.217 4.80406 39.3227 4.80406 38.4C4.80406 37.4773 4.48508 36.583 3.90116 35.8686C3.31723 35.1542 2.50428 34.6636 1.60005 34.48V33.6C1.60221 33.1196 1.74852 32.6508 2.02005 32.2544C2.26805 32.3808 2.53205 32.4776 2.80325 32.5416C3.99205 32.784 5.19445 32.956 6.40325 33.0576V46.4H4.00005C3.36353 46.4 2.75309 46.1472 2.303 45.6971C1.85291 45.247 1.60005 44.6366 1.60005 44ZM9.60005 45.6C9.60005 45.8122 9.51577 46.0157 9.36574 46.1657C9.21571 46.3157 9.01223 46.4 8.80005 46.4H8.00005V33.1944C8.50325 33.2312 9.04005 33.264 9.60005 33.296V45.6ZM38.4001 45.6V33.296C38.9601 33.264 39.4969 33.2312 40.0001 33.1944V46.4H39.2001C38.9879 46.4 38.7844 46.3157 38.6344 46.1657C38.4843 46.0157 38.4001 45.8122 38.4001 45.6ZM44.0001 46.4H41.6001V33.0576C42.8091 32.9554 44.0111 32.7828 45.2001 32.5408C45.4705 32.476 45.7321 32.38 45.9801 32.2544C46.2516 32.6508 46.3979 33.1196 46.4001 33.6V34.48C45.4958 34.6636 44.6829 35.1542 44.099 35.8686C43.515 36.583 43.196 37.4773 43.196 38.4C43.196 39.3227 43.515 40.217 44.099 40.9314C44.6829 41.6458 45.4958 42.1364 46.4001 42.32V44C46.4001 44.6366 46.1472 45.247 45.6971 45.6971C45.247 46.1472 44.6366 46.4 44.0001 46.4ZM46.4001 36.1472V40.6528C45.9324 40.4899 45.5271 40.1855 45.2402 39.7818C44.9534 39.3782 44.7993 38.8952 44.7993 38.4C44.7993 37.9048 44.9534 37.4219 45.2402 37.0182C45.5271 36.6146 45.9324 36.3101 46.4001 36.1472ZM13.2409 6.97123C13.0305 9.44003 12.8001 13.6 12.8001 20C12.8001 20.2122 12.8843 20.4157 13.0344 20.5657C13.1844 20.7157 13.3879 20.8 13.6001 20.8C13.8122 20.8 14.0157 20.7157 14.1657 20.5657C14.3158 20.4157 14.4001 20.2122 14.4001 20C14.3321 15.1302 14.5332 10.2604 15.0025 5.41283L15.0257 5.22563C15.0833 4.73763 15.3641 4.30403 15.7857 4.05123C17.0286 3.38128 18.3723 2.91816 19.7641 2.68003C19.7545 2.74083 19.7385 2.79923 19.7329 2.86083C19.3569 6.69523 19.1793 10.5472 19.2001 14.4C19.2001 14.6122 19.2843 14.8157 19.4344 14.9657C19.5844 15.1157 19.7879 15.2 20.0001 15.2C20.2122 15.2 20.4157 15.1157 20.5657 14.9657C20.7158 14.8157 20.8001 14.6122 20.8001 14.4C20.7793 10.6016 20.9542 6.80452 21.3241 3.02403C21.3545 2.71923 21.4745 2.43043 21.6689 2.19363L21.6729 2.18723H21.6777C21.9817 1.81283 22.4377 1.59683 22.9201 1.60003H25.0801C25.3176 1.59813 25.5525 1.64955 25.7675 1.75048C25.9825 1.85141 26.1722 1.99929 26.3225 2.18323H26.3273L26.3313 2.18963C26.5265 2.42723 26.6465 2.71763 26.6761 3.02323C27.0465 6.80403 27.2209 10.6016 27.2001 14.4C27.2001 14.6122 27.2843 14.8157 27.4344 14.9657C27.5844 15.1157 27.7879 15.2 28.0001 15.2C28.2122 15.2 28.4157 15.1157 28.5657 14.9657C28.7158 14.8157 28.8001 14.6122 28.8001 14.4C28.8209 10.548 28.6433 6.69843 28.2681 2.86483C28.2617 2.80163 28.2457 2.74163 28.2361 2.68003C29.6257 2.91683 30.9673 3.37843 32.2089 4.04563C32.6457 4.30963 32.9313 4.76563 32.9809 5.27363L32.9977 5.41043C33.4673 10.2584 33.6681 15.1296 33.6001 20C33.6001 20.2122 33.6843 20.4157 33.8344 20.5657C33.9844 20.7157 34.1879 20.8 34.4001 20.8C34.6122 20.8 34.8157 20.7157 34.9657 20.5657C35.1158 20.4157 35.2001 20.2122 35.2001 20C35.2001 13.6 34.9697 9.44003 34.7593 6.97123C37.5521 9.21123 41.7761 14.4064 42.3369 25.496C42.3497 25.7166 42.317 25.9374 42.2409 26.1448C42.1648 26.3522 42.0469 26.5417 41.8945 26.7016C41.5945 27.0216 41.1745 27.2024 40.7361 27.2H7.26405C7.04713 27.2009 6.83235 27.1572 6.63296 27.0718C6.43358 26.9863 6.25384 26.8609 6.10485 26.7032C5.95242 26.543 5.83456 26.3532 5.75859 26.1455C5.68262 25.9379 5.65017 25.7168 5.66325 25.496C6.22325 14.4064 10.4481 9.21363 13.2409 6.97123ZM2.08005 27.7368L4.06645 25.4208C4.04288 25.8555 4.10808 26.2904 4.25809 26.6991C4.40809 27.1077 4.63975 27.4815 4.93895 27.7977C5.23814 28.1139 5.5986 28.3658 5.99835 28.5382C6.39809 28.7105 6.82875 28.7996 7.26405 28.8H40.7361C41.1703 28.802 41.6004 28.7147 41.9995 28.5435C42.3986 28.3723 42.7582 28.1209 43.0561 27.8048C43.3577 27.4887 43.5913 27.1142 43.7427 26.7043C43.894 26.2944 43.9598 25.8579 43.9361 25.4216L45.9201 27.7368C46.1454 27.9969 46.2994 28.3109 46.367 28.6483C46.4346 28.9857 46.4135 29.3349 46.3057 29.6617C46.1979 29.9885 46.0071 30.2817 45.7521 30.5126C45.497 30.7436 45.1863 30.9043 44.8505 30.9792C41.7473 31.6664 34.9265 32 24.0001 32C13.0737 32 6.25285 31.6664 3.14805 30.9792C2.81369 30.9021 2.50487 30.74 2.25139 30.5087C1.99791 30.2774 1.80835 29.9847 1.70099 29.6588C1.59364 29.3329 1.57212 28.9848 1.63852 28.6481C1.70492 28.3114 1.85699 27.9976 2.08005 27.7368Z" fill="black"></path></g><defs><clipPath id="clip0_741_326"><rect width="48" height="48" fill="white"></rect></clipPath></defs></svg>