<svg xmlns="http://www.w3.org/2000/svg" width="168" height="24" viewBox="0 0 168 24" fill="none"><g clip-path="url(#clip0_306_2187)"><path d="M23.3281 8.70455L15.9868 7.63782L12.7035 0.985363C12.4164 0.403457 11.5838 0.403176 11.2965 0.985363L8.01333 7.63782L0.672001 8.70455C0.0299537 8.79788 -0.227906 9.5895 0.237188 10.0428L5.54939 15.221L4.2953 22.5326C4.27055 22.6769 4.28666 22.8253 4.34181 22.9609C4.39697 23.0965 4.48897 23.2139 4.60741 23.3C4.72584 23.386 4.86599 23.4372 5.01201 23.4478C5.15802 23.4583 5.30408 23.4278 5.43366 23.3597L12 19.9077C19.1487 23.6659 18.6577 23.4499 18.9314 23.4499C19.4149 23.4499 19.7873 23.0139 19.7047 22.5326L18.4507 15.221L23.7629 10.0428C24.2275 9.58983 23.9707 8.79797 23.3281 8.70455Z" fill="#F7AC16"></path><path d="M12 0.547852C11.8536 0.547859 11.7102 0.588821 11.5858 0.666106C11.4615 0.743392 11.3612 0.853919 11.2964 0.985195L8.01328 7.63765L0.672001 8.70438C0.0299537 8.79771 -0.227906 9.58934 0.237188 10.0426L5.54939 15.2208L4.2953 22.5325C4.27055 22.6768 4.28666 22.8251 4.34181 22.9607C4.39697 23.0963 4.48897 23.2138 4.60741 23.2998C4.72584 23.3859 4.86599 23.4371 5.01201 23.4476C5.15802 23.4582 5.30408 23.4277 5.43366 23.3595L12 19.9075H12V0.547852Z" fill="#F2D422"></path><path d="M0.672001 8.70448C0.0299537 8.79781 -0.227906 9.58943 0.237188 10.0427L5.54939 15.2209L4.2953 22.5326C4.27055 22.6768 4.28666 22.8252 4.34181 22.9608C4.39697 23.0964 4.48897 23.2139 4.60741 23.2999C4.72584 23.386 4.86599 23.4372 5.01201 23.4477C5.15802 23.4583 5.30408 23.4277 5.43366 23.3596L12 19.9076C19.1487 23.6658 18.6577 23.4498 18.9314 23.4498C19.0971 23.4498 19.2585 23.3974 19.3926 23.2999L8.01328 7.6377L0.672001 8.70448Z" fill="#F7AC16"></path><path d="M8.36991 14.3176C2.67956 8.77084 2.92416 9.06813 2.8478 8.78045C2.81672 8.66491 2.81034 8.53047 2.84414 8.38867L0.672001 8.70428C0.0299537 8.79761 -0.227906 9.58923 0.237188 10.0425L5.54939 15.2207L4.2953 22.5324C4.27055 22.6767 4.28666 22.825 4.34181 22.9606C4.39697 23.0962 4.48897 23.2137 4.60741 23.2998C4.72584 23.3858 4.86599 23.437 5.01201 23.4476C5.15803 23.4581 5.30408 23.4276 5.43366 23.3595L7.3643 22.3445C7.26586 22.2559 7.19145 22.1439 7.148 22.0189C7.10455 21.8938 7.09348 21.7598 7.11581 21.6293L8.36991 14.3176Z" fill="#F48B19"></path><path d="M0.237227 10.0426L5.54943 15.2208L4.29534 22.5324C4.27058 22.6767 4.2867 22.825 4.34185 22.9606C4.39701 23.0962 4.48901 23.2137 4.60744 23.2998C4.72588 23.3858 4.86603 23.437 5.01205 23.4476C5.15806 23.4581 5.30412 23.4276 5.4337 23.3595L12 19.9075C19.1488 23.6657 18.6577 23.4497 18.9314 23.4497C19.415 23.4497 19.7873 23.0137 19.7047 22.5324L18.4507 15.2208L0.0386172 9.23828C-0.0531172 9.56711 0.038711 9.84916 0.237227 10.0426Z" fill="#F2D422"></path><path d="M0.237227 10.0426L5.54943 15.2208L4.29534 22.5324C4.27058 22.6767 4.2867 22.825 4.34185 22.9606C4.39701 23.0962 4.48901 23.2137 4.60744 23.2998C4.72588 23.3858 4.86603 23.437 5.01205 23.4476C5.15806 23.4581 5.30412 23.4276 5.4337 23.3595L7.36434 22.3445C7.2659 22.2559 7.19149 22.1439 7.14804 22.0189C7.10459 21.8938 7.09352 21.7598 7.11585 21.6293L8.36995 14.3176L4.71941 10.7592L0.0386172 9.23828C-0.0531172 9.56711 0.038711 9.84916 0.237227 10.0426Z" fill="#EFB616"></path><path d="M4.29523 22.5324C4.27048 22.6766 4.28659 22.825 4.34175 22.9606C4.3969 23.0962 4.4889 23.2137 4.60734 23.2997C4.72578 23.3858 4.86593 23.437 5.01194 23.4475C5.15796 23.4581 5.30401 23.4276 5.43359 23.3594L11.9999 19.9074C19.1487 23.6656 18.6576 23.4496 18.9313 23.4496C19.4149 23.4496 19.7872 23.0137 19.7046 22.5324L18.4506 15.2207L23.7628 10.0425C23.8676 9.94031 23.9418 9.81084 23.9768 9.66872C24.0119 9.5266 24.0066 9.37751 23.9614 9.23828L5.54932 15.2207L4.29523 22.5324Z" fill="#F7AC16"></path><path d="M4.29523 22.5324C4.27048 22.6767 4.28659 22.825 4.34175 22.9606C4.3969 23.0962 4.4889 23.2137 4.60734 23.2998C4.72578 23.3858 4.86593 23.437 5.01194 23.4476C5.15796 23.4581 5.30401 23.4276 5.43359 23.3595L7.36423 22.3445C7.2658 22.2559 7.19139 22.1439 7.14794 22.0188C7.10449 21.8938 7.09341 21.7598 7.11575 21.6293L8.36984 14.3176L8.35958 14.3076L5.54932 15.2207L4.29523 22.5324Z" fill="#F48B19"></path><path d="M5.43369 23.3596L12 19.9076C19.1487 23.6658 18.6577 23.4498 18.9313 23.4498C19.4149 23.4498 19.7872 23.0138 19.7047 22.5325L18.4506 15.2209L23.7629 10.0427C24.2274 9.58971 23.9706 8.79785 23.328 8.70443L15.9867 7.6377L4.60742 23.2999C4.72587 23.3859 4.86602 23.4371 5.01204 23.4477C5.15805 23.4582 5.30411 23.4277 5.43369 23.3596Z" fill="#F2D422"></path><path d="M23.9615 9.23828L12 13.1248L4.60742 23.2998C4.72586 23.3858 4.866 23.437 5.01201 23.4476C5.15802 23.4581 5.30407 23.4276 5.43364 23.3595L12 19.9075C19.1487 23.6657 18.6577 23.4497 18.9313 23.4497C19.4149 23.4497 19.7872 23.0137 19.7047 22.5324L18.4506 15.2208L23.7629 10.0426C23.8677 9.94036 23.9418 9.81088 23.9769 9.66876C24.012 9.52663 24.0067 9.37752 23.9615 9.23828Z" fill="#F7AC16"></path><path d="M18.4507 15.221L12 13.125L4.60742 23.3C4.72586 23.3861 4.866 23.4372 5.01201 23.4478C5.15802 23.4583 5.30407 23.4278 5.43364 23.3597L12 19.9077C19.1487 23.6659 18.6577 23.4499 18.9313 23.4499C19.4149 23.4499 19.7872 23.0139 19.7047 22.5326L18.4507 15.221Z" fill="#F2D422"></path><path d="M4.60742 23.3C4.72586 23.3861 4.866 23.4372 5.01201 23.4478C5.15802 23.4583 5.30407 23.4278 5.43364 23.3597L12 19.9077C19.1487 23.6659 18.6577 23.4499 18.9313 23.4499C19.097 23.4499 19.2585 23.3974 19.3925 23.3L12 13.125L4.60742 23.3Z" fill="#F7AC16"></path><path d="M12 13.1251L12 13.125L4.60742 23.3C4.72586 23.3861 4.866 23.4372 5.01201 23.4478C5.15802 23.4583 5.30407 23.4278 5.43364 23.3597L12 19.9077H12V13.1251Z" fill="#F2D422"></path><path d="M7.51588 19.2969L4.60742 23.3C4.72586 23.386 4.866 23.4372 5.01201 23.4478C5.15802 23.4583 5.30407 23.4278 5.43364 23.3597L7.36428 22.3447C7.26585 22.2561 7.19144 22.1441 7.14799 22.0191C7.10454 21.894 7.09346 21.76 7.1158 21.6295L7.51588 19.2969Z" fill="#EFB616"></path></g><g clip-path="url(#clip1_306_2187)"><path d="M59.3281 8.70455L51.9868 7.63782L48.7035 0.985363C48.4164 0.403457 47.5838 0.403176 47.2965 0.985363L44.0133 7.63782L36.672 8.70455C36.03 8.79788 35.7721 9.5895 36.2372 10.0428L41.5494 15.221L40.2953 22.5326C40.2705 22.6769 40.2867 22.8253 40.3418 22.9609C40.397 23.0965 40.489 23.2139 40.6074 23.3C40.7258 23.386 40.866 23.4372 41.012 23.4478C41.158 23.4583 41.3041 23.4278 41.4337 23.3597L48 19.9077C55.1487 23.6659 54.6577 23.4499 54.9314 23.4499C55.4149 23.4499 55.7873 23.0139 55.7047 22.5326L54.4507 15.221L59.7629 10.0428C60.2275 9.58983 59.9707 8.79797 59.3281 8.70455Z" fill="#F7AC16"></path><path d="M48 0.547852C47.8536 0.547859 47.7102 0.588821 47.5858 0.666106C47.4615 0.743392 47.3612 0.853919 47.2964 0.985195L44.0133 7.63765L36.672 8.70438C36.03 8.79771 35.7721 9.58934 36.2372 10.0426L41.5494 15.2208L40.2953 22.5325C40.2705 22.6768 40.2867 22.8251 40.3418 22.9607C40.397 23.0963 40.489 23.2138 40.6074 23.2998C40.7258 23.3859 40.866 23.4371 41.012 23.4476C41.158 23.4582 41.3041 23.4277 41.4337 23.3595L48 19.9075H48V0.547852Z" fill="#F2D422"></path><path d="M36.672 8.70448C36.03 8.79781 35.7721 9.58943 36.2372 10.0427L41.5494 15.2209L40.2953 22.5326C40.2705 22.6768 40.2867 22.8252 40.3418 22.9608C40.397 23.0964 40.489 23.2139 40.6074 23.2999C40.7258 23.386 40.866 23.4372 41.012 23.4477C41.158 23.4583 41.3041 23.4277 41.4337 23.3596L48 19.9076C55.1487 23.6658 54.6577 23.4498 54.9314 23.4498C55.0971 23.4498 55.2585 23.3974 55.3926 23.2999L44.0133 7.6377L36.672 8.70448Z" fill="#F7AC16"></path><path d="M44.3699 14.3176C38.6796 8.77084 38.9242 9.06813 38.8478 8.78045C38.8167 8.66491 38.8103 8.53047 38.8441 8.38867L36.672 8.70428C36.03 8.79761 35.7721 9.58923 36.2372 10.0425L41.5494 15.2207L40.2953 22.5324C40.2705 22.6767 40.2867 22.825 40.3418 22.9606C40.397 23.0962 40.489 23.2137 40.6074 23.2998C40.7258 23.3858 40.866 23.437 41.012 23.4476C41.158 23.4581 41.3041 23.4276 41.4337 23.3595L43.3643 22.3445C43.2659 22.2559 43.1915 22.1439 43.148 22.0189C43.1046 21.8938 43.0935 21.7598 43.1158 21.6293L44.3699 14.3176Z" fill="#F48B19"></path><path d="M36.2372 10.0426L41.5494 15.2208L40.2953 22.5324C40.2706 22.6767 40.2867 22.825 40.3419 22.9606C40.397 23.0962 40.489 23.2137 40.6074 23.2998C40.7259 23.3858 40.866 23.437 41.012 23.4476C41.1581 23.4581 41.3041 23.4276 41.4337 23.3595L48 19.9075C55.1488 23.6657 54.6577 23.4497 54.9314 23.4497C55.415 23.4497 55.7873 23.0137 55.7047 22.5324L54.4507 15.2208L36.0386 9.23828C35.9469 9.56711 36.0387 9.84916 36.2372 10.0426Z" fill="#F2D422"></path><path d="M36.2372 10.0426L41.5494 15.2208L40.2953 22.5324C40.2706 22.6767 40.2867 22.825 40.3419 22.9606C40.397 23.0962 40.489 23.2137 40.6074 23.2998C40.7259 23.3858 40.866 23.437 41.012 23.4476C41.1581 23.4581 41.3041 23.4276 41.4337 23.3595L43.3643 22.3445C43.2659 22.2559 43.1915 22.1439 43.148 22.0189C43.1046 21.8938 43.0935 21.7598 43.1159 21.6293L44.3699 14.3176L40.7194 10.7592L36.0386 9.23828C35.9469 9.56711 36.0387 9.84916 36.2372 10.0426Z" fill="#EFB616"></path><path d="M40.2952 22.5324C40.2705 22.6766 40.2866 22.825 40.3417 22.9606C40.3969 23.0962 40.4889 23.2137 40.6073 23.2997C40.7258 23.3858 40.8659 23.437 41.0119 23.4475C41.158 23.4581 41.304 23.4276 41.4336 23.3594L47.9999 19.9074C55.1487 23.6656 54.6576 23.4496 54.9313 23.4496C55.4149 23.4496 55.7872 23.0137 55.7046 22.5324L54.4506 15.2207L59.7628 10.0425C59.8676 9.94031 59.9418 9.81084 59.9768 9.66872C60.0119 9.5266 60.0066 9.37751 59.9614 9.23828L41.5493 15.2207L40.2952 22.5324Z" fill="#F7AC16"></path><path d="M40.2952 22.5324C40.2705 22.6767 40.2866 22.825 40.3417 22.9606C40.3969 23.0962 40.4889 23.2137 40.6073 23.2998C40.7258 23.3858 40.8659 23.437 41.0119 23.4476C41.158 23.4581 41.304 23.4276 41.4336 23.3595L43.3642 22.3445C43.2658 22.2559 43.1914 22.1439 43.1479 22.0188C43.1045 21.8938 43.0934 21.7598 43.1157 21.6293L44.3698 14.3176L44.3596 14.3076L41.5493 15.2207L40.2952 22.5324Z" fill="#F48B19"></path><path d="M41.4337 23.3596L48 19.9076C55.1487 23.6658 54.6577 23.4498 54.9313 23.4498C55.4149 23.4498 55.7872 23.0138 55.7047 22.5325L54.4506 15.2209L59.7629 10.0427C60.2274 9.58971 59.9706 8.79785 59.328 8.70443L51.9867 7.6377L40.6074 23.2999C40.7259 23.3859 40.866 23.4371 41.012 23.4477C41.1581 23.4582 41.3041 23.4277 41.4337 23.3596Z" fill="#F2D422"></path><path d="M59.9615 9.23828L48 13.1248L40.6074 23.2998C40.7259 23.3858 40.866 23.437 41.012 23.4476C41.158 23.4581 41.3041 23.4276 41.4336 23.3595L48 19.9075C55.1487 23.6657 54.6577 23.4497 54.9313 23.4497C55.4149 23.4497 55.7872 23.0137 55.7047 22.5324L54.4506 15.2208L59.7629 10.0426C59.8677 9.94036 59.9418 9.81088 59.9769 9.66876C60.012 9.52663 60.0067 9.37752 59.9615 9.23828Z" fill="#F7AC16"></path><path d="M54.4507 15.221L48 13.125L40.6074 23.3C40.7259 23.3861 40.866 23.4372 41.012 23.4478C41.158 23.4583 41.3041 23.4278 41.4336 23.3597L48 19.9077C55.1487 23.6659 54.6577 23.4499 54.9313 23.4499C55.4149 23.4499 55.7872 23.0139 55.7047 22.5326L54.4507 15.221Z" fill="#F2D422"></path><path d="M40.6074 23.3C40.7259 23.3861 40.866 23.4372 41.012 23.4478C41.158 23.4583 41.3041 23.4278 41.4336 23.3597L48 19.9077C55.1487 23.6659 54.6577 23.4499 54.9313 23.4499C55.097 23.4499 55.2585 23.3974 55.3925 23.3L48 13.125L40.6074 23.3Z" fill="#F7AC16"></path><path d="M48 13.1251L48 13.125L40.6074 23.3C40.7259 23.3861 40.866 23.4372 41.012 23.4478C41.158 23.4583 41.3041 23.4278 41.4336 23.3597L48 19.9077H48V13.1251Z" fill="#F2D422"></path><path d="M43.5159 19.2969L40.6074 23.3C40.7259 23.386 40.866 23.4372 41.012 23.4478C41.158 23.4583 41.3041 23.4278 41.4336 23.3597L43.3643 22.3447C43.2658 22.2561 43.1914 22.1441 43.148 22.0191C43.1045 21.894 43.0935 21.76 43.1158 21.6295L43.5159 19.2969Z" fill="#EFB616"></path></g><g clip-path="url(#clip2_306_2187)"><path d="M95.3281 8.70455L87.9868 7.63782L84.7035 0.985363C84.4164 0.403457 83.5838 0.403176 83.2965 0.985363L80.0133 7.63782L72.672 8.70455C72.03 8.79788 71.7721 9.5895 72.2372 10.0428L77.5494 15.221L76.2953 22.5326C76.2705 22.6769 76.2867 22.8253 76.3418 22.9609C76.397 23.0965 76.489 23.2139 76.6074 23.3C76.7258 23.386 76.866 23.4372 77.012 23.4478C77.158 23.4583 77.3041 23.4278 77.4337 23.3597L84 19.9077C91.1487 23.6659 90.6577 23.4499 90.9314 23.4499C91.4149 23.4499 91.7873 23.0139 91.7047 22.5326L90.4507 15.221L95.7629 10.0428C96.2275 9.58983 95.9707 8.79797 95.3281 8.70455Z" fill="#F7AC16"></path><path d="M84 0.547852C83.8536 0.547859 83.7102 0.588821 83.5858 0.666106C83.4615 0.743392 83.3612 0.853919 83.2964 0.985195L80.0133 7.63765L72.672 8.70438C72.03 8.79771 71.7721 9.58934 72.2372 10.0426L77.5494 15.2208L76.2953 22.5325C76.2705 22.6768 76.2867 22.8251 76.3418 22.9607C76.397 23.0963 76.489 23.2138 76.6074 23.2998C76.7258 23.3859 76.866 23.4371 77.012 23.4476C77.158 23.4582 77.3041 23.4277 77.4337 23.3595L84 19.9075H84V0.547852Z" fill="#F2D422"></path><path d="M72.672 8.70448C72.03 8.79781 71.7721 9.58943 72.2372 10.0427L77.5494 15.2209L76.2953 22.5326C76.2705 22.6768 76.2867 22.8252 76.3418 22.9608C76.397 23.0964 76.489 23.2139 76.6074 23.2999C76.7258 23.386 76.866 23.4372 77.012 23.4477C77.158 23.4583 77.3041 23.4277 77.4337 23.3596L84 19.9076C91.1487 23.6658 90.6577 23.4498 90.9314 23.4498C91.0971 23.4498 91.2585 23.3974 91.3926 23.2999L80.0133 7.6377L72.672 8.70448Z" fill="#F7AC16"></path><path d="M80.3699 14.3176C74.6796 8.77084 74.9242 9.06813 74.8478 8.78045C74.8167 8.66491 74.8103 8.53047 74.8441 8.38867L72.672 8.70428C72.03 8.79761 71.7721 9.58923 72.2372 10.0425L77.5494 15.2207L76.2953 22.5324C76.2705 22.6767 76.2867 22.825 76.3418 22.9606C76.397 23.0962 76.489 23.2137 76.6074 23.2998C76.7258 23.3858 76.866 23.437 77.012 23.4476C77.158 23.4581 77.3041 23.4276 77.4337 23.3595L79.3643 22.3445C79.2659 22.2559 79.1915 22.1439 79.148 22.0189C79.1046 21.8938 79.0935 21.7598 79.1158 21.6293L80.3699 14.3176Z" fill="#F48B19"></path><path d="M72.2372 10.0426L77.5494 15.2208L76.2953 22.5324C76.2706 22.6767 76.2867 22.825 76.3419 22.9606C76.397 23.0962 76.489 23.2137 76.6074 23.2998C76.7259 23.3858 76.866 23.437 77.012 23.4476C77.1581 23.4581 77.3041 23.4276 77.4337 23.3595L84 19.9075C91.1488 23.6657 90.6577 23.4497 90.9314 23.4497C91.415 23.4497 91.7873 23.0137 91.7047 22.5324L90.4507 15.2208L72.0386 9.23828C71.9469 9.56711 72.0387 9.84916 72.2372 10.0426Z" fill="#F2D422"></path><path d="M72.2372 10.0426L77.5494 15.2208L76.2953 22.5324C76.2706 22.6767 76.2867 22.825 76.3419 22.9606C76.397 23.0962 76.489 23.2137 76.6074 23.2998C76.7259 23.3858 76.866 23.437 77.012 23.4476C77.1581 23.4581 77.3041 23.4276 77.4337 23.3595L79.3643 22.3445C79.2659 22.2559 79.1915 22.1439 79.148 22.0189C79.1046 21.8938 79.0935 21.7598 79.1159 21.6293L80.3699 14.3176L76.7194 10.7592L72.0386 9.23828C71.9469 9.56711 72.0387 9.84916 72.2372 10.0426Z" fill="#EFB616"></path><path d="M76.2952 22.5324C76.2705 22.6766 76.2866 22.825 76.3417 22.9606C76.3969 23.0962 76.4889 23.2137 76.6073 23.2997C76.7258 23.3858 76.8659 23.437 77.0119 23.4475C77.158 23.4581 77.304 23.4276 77.4336 23.3594L83.9999 19.9074C91.1487 23.6656 90.6576 23.4496 90.9313 23.4496C91.4149 23.4496 91.7872 23.0137 91.7046 22.5324L90.4506 15.2207L95.7628 10.0425C95.8676 9.94031 95.9418 9.81084 95.9768 9.66872C96.0119 9.5266 96.0066 9.37751 95.9614 9.23828L77.5493 15.2207L76.2952 22.5324Z" fill="#F7AC16"></path><path d="M76.2952 22.5324C76.2705 22.6767 76.2866 22.825 76.3417 22.9606C76.3969 23.0962 76.4889 23.2137 76.6073 23.2998C76.7258 23.3858 76.8659 23.437 77.0119 23.4476C77.158 23.4581 77.304 23.4276 77.4336 23.3595L79.3642 22.3445C79.2658 22.2559 79.1914 22.1439 79.1479 22.0188C79.1045 21.8938 79.0934 21.7598 79.1157 21.6293L80.3698 14.3176L80.3596 14.3076L77.5493 15.2207L76.2952 22.5324Z" fill="#F48B19"></path><path d="M77.4337 23.3596L84 19.9076C91.1487 23.6658 90.6577 23.4498 90.9313 23.4498C91.4149 23.4498 91.7872 23.0138 91.7047 22.5325L90.4506 15.2209L95.7629 10.0427C96.2274 9.58971 95.9706 8.79785 95.328 8.70443L87.9867 7.6377L76.6074 23.2999C76.7259 23.3859 76.866 23.4371 77.012 23.4477C77.1581 23.4582 77.3041 23.4277 77.4337 23.3596Z" fill="#F2D422"></path><path d="M95.9615 9.23828L84 13.1248L76.6074 23.2998C76.7259 23.3858 76.866 23.437 77.012 23.4476C77.158 23.4581 77.3041 23.4276 77.4336 23.3595L84 19.9075C91.1487 23.6657 90.6577 23.4497 90.9313 23.4497C91.4149 23.4497 91.7872 23.0137 91.7047 22.5324L90.4506 15.2208L95.7629 10.0426C95.8677 9.94036 95.9418 9.81088 95.9769 9.66876C96.012 9.52663 96.0067 9.37752 95.9615 9.23828Z" fill="#F7AC16"></path><path d="M90.4507 15.221L84 13.125L76.6074 23.3C76.7259 23.3861 76.866 23.4372 77.012 23.4478C77.158 23.4583 77.3041 23.4278 77.4336 23.3597L84 19.9077C91.1487 23.6659 90.6577 23.4499 90.9313 23.4499C91.4149 23.4499 91.7872 23.0139 91.7047 22.5326L90.4507 15.221Z" fill="#F2D422"></path><path d="M76.6074 23.3C76.7259 23.3861 76.866 23.4372 77.012 23.4478C77.158 23.4583 77.3041 23.4278 77.4336 23.3597L84 19.9077C91.1487 23.6659 90.6577 23.4499 90.9313 23.4499C91.097 23.4499 91.2585 23.3974 91.3925 23.3L84 13.125L76.6074 23.3Z" fill="#F7AC16"></path><path d="M84 13.1251L84 13.125L76.6074 23.3C76.7259 23.3861 76.866 23.4372 77.012 23.4478C77.158 23.4583 77.3041 23.4278 77.4336 23.3597L84 19.9077H84V13.1251Z" fill="#F2D422"></path><path d="M79.5159 19.2969L76.6074 23.3C76.7259 23.386 76.866 23.4372 77.012 23.4478C77.158 23.4583 77.3041 23.4278 77.4336 23.3597L79.3643 22.3447C79.2658 22.2561 79.1914 22.1441 79.148 22.0191C79.1045 21.894 79.0935 21.76 79.1158 21.6295L79.5159 19.2969Z" fill="#EFB616"></path></g><g clip-path="url(#clip3_306_2187)"><path d="M131.328 8.70455L123.987 7.63782L120.704 0.985363C120.416 0.403457 119.584 0.403176 119.296 0.985363L116.013 7.63782L108.672 8.70455C108.03 8.79788 107.772 9.5895 108.237 10.0428L113.549 15.221L112.295 22.5326C112.271 22.6769 112.287 22.8253 112.342 22.9609C112.397 23.0965 112.489 23.2139 112.607 23.3C112.726 23.386 112.866 23.4372 113.012 23.4478C113.158 23.4583 113.304 23.4278 113.434 23.3597L120 19.9077C127.149 23.6659 126.658 23.4499 126.931 23.4499C127.415 23.4499 127.787 23.0139 127.705 22.5326L126.451 15.221L131.763 10.0428C132.227 9.58983 131.971 8.79797 131.328 8.70455Z" fill="#F7AC16"></path><path d="M120 0.547852C119.854 0.547859 119.71 0.588821 119.586 0.666106C119.461 0.743392 119.361 0.853919 119.296 0.985195L116.013 7.63765L108.672 8.70438C108.03 8.79771 107.772 9.58934 108.237 10.0426L113.549 15.2208L112.295 22.5325C112.271 22.6768 112.287 22.8251 112.342 22.9607C112.397 23.0963 112.489 23.2138 112.607 23.2998C112.726 23.3859 112.866 23.4371 113.012 23.4476C113.158 23.4582 113.304 23.4277 113.434 23.3595L120 19.9075H120V0.547852Z" fill="#F2D422"></path><path d="M108.672 8.70448C108.03 8.79781 107.772 9.58943 108.237 10.0427L113.549 15.2209L112.295 22.5326C112.271 22.6768 112.287 22.8252 112.342 22.9608C112.397 23.0964 112.489 23.2139 112.607 23.2999C112.726 23.386 112.866 23.4372 113.012 23.4477C113.158 23.4583 113.304 23.4277 113.434 23.3596L120 19.9076C127.149 23.6658 126.658 23.4498 126.931 23.4498C127.097 23.4498 127.259 23.3974 127.393 23.2999L116.013 7.6377L108.672 8.70448Z" fill="#F7AC16"></path><path d="M116.37 14.3176C110.68 8.77084 110.924 9.06813 110.848 8.78045C110.817 8.66491 110.81 8.53047 110.844 8.38867L108.672 8.70428C108.03 8.79761 107.772 9.58923 108.237 10.0425L113.549 15.2207L112.295 22.5324C112.271 22.6767 112.287 22.825 112.342 22.9606C112.397 23.0962 112.489 23.2137 112.607 23.2998C112.726 23.3858 112.866 23.437 113.012 23.4476C113.158 23.4581 113.304 23.4276 113.434 23.3595L115.364 22.3445C115.266 22.2559 115.191 22.1439 115.148 22.0189C115.105 21.8938 115.093 21.7598 115.116 21.6293L116.37 14.3176Z" fill="#F48B19"></path><path d="M108.237 10.0426L113.549 15.2208L112.295 22.5324C112.271 22.6767 112.287 22.825 112.342 22.9606C112.397 23.0962 112.489 23.2137 112.607 23.2998C112.726 23.3858 112.866 23.437 113.012 23.4476C113.158 23.4581 113.304 23.4276 113.434 23.3595L120 19.9075C127.149 23.6657 126.658 23.4497 126.931 23.4497C127.415 23.4497 127.787 23.0137 127.705 22.5324L126.451 15.2208L108.039 9.23828C107.947 9.56711 108.039 9.84916 108.237 10.0426Z" fill="#F2D422"></path><path d="M108.237 10.0426L113.549 15.2208L112.295 22.5324C112.271 22.6767 112.287 22.825 112.342 22.9606C112.397 23.0962 112.489 23.2137 112.607 23.2998C112.726 23.3858 112.866 23.437 113.012 23.4476C113.158 23.4581 113.304 23.4276 113.434 23.3595L115.364 22.3445C115.266 22.2559 115.191 22.1439 115.148 22.0189C115.105 21.8938 115.094 21.7598 115.116 21.6293L116.37 14.3176L112.719 10.7592L108.039 9.23828C107.947 9.56711 108.039 9.84916 108.237 10.0426Z" fill="#EFB616"></path><path d="M112.295 22.5324C112.27 22.6766 112.287 22.825 112.342 22.9606C112.397 23.0962 112.489 23.2137 112.607 23.2997C112.726 23.3858 112.866 23.437 113.012 23.4475C113.158 23.4581 113.304 23.4276 113.434 23.3594L120 19.9074C127.149 23.6656 126.658 23.4496 126.931 23.4496C127.415 23.4496 127.787 23.0137 127.705 22.5324L126.451 15.2207L131.763 10.0425C131.868 9.94031 131.942 9.81084 131.977 9.66872C132.012 9.5266 132.007 9.37751 131.961 9.23828L113.549 15.2207L112.295 22.5324Z" fill="#F7AC16"></path><path d="M112.295 22.5324C112.27 22.6767 112.287 22.825 112.342 22.9606C112.397 23.0962 112.489 23.2137 112.607 23.2998C112.726 23.3858 112.866 23.437 113.012 23.4476C113.158 23.4581 113.304 23.4276 113.434 23.3595L115.364 22.3445C115.266 22.2559 115.191 22.1439 115.148 22.0188C115.104 21.8938 115.093 21.7598 115.116 21.6293L116.37 14.3176L116.36 14.3076L113.549 15.2207L112.295 22.5324Z" fill="#F48B19"></path><path d="M113.434 23.3596L120 19.9076C127.149 23.6658 126.658 23.4498 126.931 23.4498C127.415 23.4498 127.787 23.0138 127.705 22.5325L126.451 15.2209L131.763 10.0427C132.227 9.58971 131.971 8.79785 131.328 8.70443L123.987 7.6377L112.607 23.2999C112.726 23.3859 112.866 23.4371 113.012 23.4477C113.158 23.4582 113.304 23.4277 113.434 23.3596Z" fill="#F2D422"></path><path d="M131.961 9.23828L120 13.1248L112.607 23.2998C112.726 23.3858 112.866 23.437 113.012 23.4476C113.158 23.4581 113.304 23.4276 113.434 23.3595L120 19.9075C127.149 23.6657 126.658 23.4497 126.931 23.4497C127.415 23.4497 127.787 23.0137 127.705 22.5324L126.451 15.2208L131.763 10.0426C131.868 9.94036 131.942 9.81088 131.977 9.66876C132.012 9.52663 132.007 9.37752 131.961 9.23828Z" fill="#F7AC16"></path><path d="M126.451 15.221L120 13.125L112.607 23.3C112.726 23.3861 112.866 23.4372 113.012 23.4478C113.158 23.4583 113.304 23.4278 113.434 23.3597L120 19.9077C127.149 23.6659 126.658 23.4499 126.931 23.4499C127.415 23.4499 127.787 23.0139 127.705 22.5326L126.451 15.221Z" fill="#F2D422"></path><path d="M112.607 23.3C112.726 23.3861 112.866 23.4372 113.012 23.4478C113.158 23.4583 113.304 23.4278 113.434 23.3597L120 19.9077C127.149 23.6659 126.658 23.4499 126.931 23.4499C127.097 23.4499 127.259 23.3974 127.393 23.3L120 13.125L112.607 23.3Z" fill="#F7AC16"></path><path d="M120 13.1251L120 13.125L112.607 23.3C112.726 23.3861 112.866 23.4372 113.012 23.4478C113.158 23.4583 113.304 23.4278 113.434 23.3597L120 19.9077H120V13.1251Z" fill="#F2D422"></path><path d="M115.516 19.2969L112.607 23.3C112.726 23.386 112.866 23.4372 113.012 23.4478C113.158 23.4583 113.304 23.4278 113.434 23.3597L115.364 22.3447C115.266 22.2561 115.191 22.1441 115.148 22.0191C115.105 21.894 115.093 21.76 115.116 21.6295L115.516 19.2969Z" fill="#EFB616"></path></g><g clip-path="url(#clip4_306_2187)"><path d="M167.328 8.70455L159.987 7.63782L156.704 0.985363C156.416 0.403457 155.584 0.403176 155.296 0.985363L152.013 7.63782L144.672 8.70455C144.03 8.79788 143.772 9.5895 144.237 10.0428L149.549 15.221L148.295 22.5326C148.271 22.6769 148.287 22.8253 148.342 22.9609C148.397 23.0965 148.489 23.2139 148.607 23.3C148.726 23.386 148.866 23.4372 149.012 23.4478C149.158 23.4583 149.304 23.4278 149.434 23.3597L156 19.9077C163.149 23.6659 162.658 23.4499 162.931 23.4499C163.415 23.4499 163.787 23.0139 163.705 22.5326L162.451 15.221L167.763 10.0428C168.227 9.58983 167.971 8.79797 167.328 8.70455Z" fill="#F7AC16"></path><path d="M156 0.547852C155.854 0.547859 155.71 0.588821 155.586 0.666106C155.461 0.743392 155.361 0.853919 155.296 0.985195L152.013 7.63765L144.672 8.70438C144.03 8.79771 143.772 9.58934 144.237 10.0426L149.549 15.2208L148.295 22.5325C148.271 22.6768 148.287 22.8251 148.342 22.9607C148.397 23.0963 148.489 23.2138 148.607 23.2998C148.726 23.3859 148.866 23.4371 149.012 23.4476C149.158 23.4582 149.304 23.4277 149.434 23.3595L156 19.9075H156V0.547852Z" fill="#F2D422"></path><path d="M144.672 8.70448C144.03 8.79781 143.772 9.58943 144.237 10.0427L149.549 15.2209L148.295 22.5326C148.271 22.6768 148.287 22.8252 148.342 22.9608C148.397 23.0964 148.489 23.2139 148.607 23.2999C148.726 23.386 148.866 23.4372 149.012 23.4477C149.158 23.4583 149.304 23.4277 149.434 23.3596L156 19.9076C163.149 23.6658 162.658 23.4498 162.931 23.4498C163.097 23.4498 163.259 23.3974 163.393 23.2999L152.013 7.6377L144.672 8.70448Z" fill="#F7AC16"></path><path d="M152.37 14.3176C146.68 8.77084 146.924 9.06813 146.848 8.78045C146.817 8.66491 146.81 8.53047 146.844 8.38867L144.672 8.70428C144.03 8.79761 143.772 9.58923 144.237 10.0425L149.549 15.2207L148.295 22.5324C148.271 22.6767 148.287 22.825 148.342 22.9606C148.397 23.0962 148.489 23.2137 148.607 23.2998C148.726 23.3858 148.866 23.437 149.012 23.4476C149.158 23.4581 149.304 23.4276 149.434 23.3595L151.364 22.3445C151.266 22.2559 151.191 22.1439 151.148 22.0189C151.105 21.8938 151.093 21.7598 151.116 21.6293L152.37 14.3176Z" fill="#F48B19"></path><path d="M144.237 10.0426L149.549 15.2208L148.295 22.5324C148.271 22.6767 148.287 22.825 148.342 22.9606C148.397 23.0962 148.489 23.2137 148.607 23.2998C148.726 23.3858 148.866 23.437 149.012 23.4476C149.158 23.4581 149.304 23.4276 149.434 23.3595L156 19.9075C163.149 23.6657 162.658 23.4497 162.931 23.4497C163.415 23.4497 163.787 23.0137 163.705 22.5324L162.451 15.2208L144.039 9.23828C143.947 9.56711 144.039 9.84916 144.237 10.0426Z" fill="#F2D422"></path><path d="M144.237 10.0426L149.549 15.2208L148.295 22.5324C148.271 22.6767 148.287 22.825 148.342 22.9606C148.397 23.0962 148.489 23.2137 148.607 23.2998C148.726 23.3858 148.866 23.437 149.012 23.4476C149.158 23.4581 149.304 23.4276 149.434 23.3595L151.364 22.3445C151.266 22.2559 151.191 22.1439 151.148 22.0189C151.105 21.8938 151.094 21.7598 151.116 21.6293L152.37 14.3176L148.719 10.7592L144.039 9.23828C143.947 9.56711 144.039 9.84916 144.237 10.0426Z" fill="#EFB616"></path><path d="M148.295 22.5324C148.27 22.6766 148.287 22.825 148.342 22.9606C148.397 23.0962 148.489 23.2137 148.607 23.2997C148.726 23.3858 148.866 23.437 149.012 23.4475C149.158 23.4581 149.304 23.4276 149.434 23.3594L156 19.9074C163.149 23.6656 162.658 23.4496 162.931 23.4496C163.415 23.4496 163.787 23.0137 163.705 22.5324L162.451 15.2207L167.763 10.0425C167.868 9.94031 167.942 9.81084 167.977 9.66872C168.012 9.5266 168.007 9.37751 167.961 9.23828L149.549 15.2207L148.295 22.5324Z" fill="#F7AC16"></path><path d="M148.295 22.5324C148.27 22.6767 148.287 22.825 148.342 22.9606C148.397 23.0962 148.489 23.2137 148.607 23.2998C148.726 23.3858 148.866 23.437 149.012 23.4476C149.158 23.4581 149.304 23.4276 149.434 23.3595L151.364 22.3445C151.266 22.2559 151.191 22.1439 151.148 22.0188C151.104 21.8938 151.093 21.7598 151.116 21.6293L152.37 14.3176L152.36 14.3076L149.549 15.2207L148.295 22.5324Z" fill="#F48B19"></path><path d="M149.434 23.3596L156 19.9076C163.149 23.6658 162.658 23.4498 162.931 23.4498C163.415 23.4498 163.787 23.0138 163.705 22.5325L162.451 15.2209L167.763 10.0427C168.227 9.58971 167.971 8.79785 167.328 8.70443L159.987 7.6377L148.607 23.2999C148.726 23.3859 148.866 23.4371 149.012 23.4477C149.158 23.4582 149.304 23.4277 149.434 23.3596Z" fill="#F2D422"></path><path d="M167.961 9.23828L156 13.1248L148.607 23.2998C148.726 23.3858 148.866 23.437 149.012 23.4476C149.158 23.4581 149.304 23.4276 149.434 23.3595L156 19.9075C163.149 23.6657 162.658 23.4497 162.931 23.4497C163.415 23.4497 163.787 23.0137 163.705 22.5324L162.451 15.2208L167.763 10.0426C167.868 9.94036 167.942 9.81088 167.977 9.66876C168.012 9.52663 168.007 9.37752 167.961 9.23828Z" fill="#F7AC16"></path><path d="M162.451 15.221L156 13.125L148.607 23.3C148.726 23.3861 148.866 23.4372 149.012 23.4478C149.158 23.4583 149.304 23.4278 149.434 23.3597L156 19.9077C163.149 23.6659 162.658 23.4499 162.931 23.4499C163.415 23.4499 163.787 23.0139 163.705 22.5326L162.451 15.221Z" fill="#F2D422"></path><path d="M148.607 23.3C148.726 23.3861 148.866 23.4372 149.012 23.4478C149.158 23.4583 149.304 23.4278 149.434 23.3597L156 19.9077C163.149 23.6659 162.658 23.4499 162.931 23.4499C163.097 23.4499 163.259 23.3974 163.393 23.3L156 13.125L148.607 23.3Z" fill="#F7AC16"></path><path d="M156 13.1251L156 13.125L148.607 23.3C148.726 23.3861 148.866 23.4372 149.012 23.4478C149.158 23.4583 149.304 23.4278 149.434 23.3597L156 19.9077H156V13.1251Z" fill="#F2D422"></path><path d="M151.516 19.2969L148.607 23.3C148.726 23.386 148.866 23.4372 149.012 23.4478C149.158 23.4583 149.304 23.4278 149.434 23.3597L151.364 22.3447C151.266 22.2561 151.191 22.1441 151.148 22.0191C151.105 21.894 151.093 21.76 151.116 21.6295L151.516 19.2969Z" fill="#EFB616"></path></g><defs><clipPath id="clip0_306_2187"><rect width="24" height="24" fill="white"></rect></clipPath><clipPath id="clip1_306_2187"><rect width="24" height="24" fill="white" transform="translate(36)"></rect></clipPath><clipPath id="clip2_306_2187"><rect width="24" height="24" fill="white" transform="translate(72)"></rect></clipPath><clipPath id="clip3_306_2187"><rect width="24" height="24" fill="white" transform="translate(108)"></rect></clipPath><clipPath id="clip4_306_2187"><rect width="24" height="24" fill="white" transform="translate(144)"></rect></clipPath></defs></svg>