<svg xmlns="http://www.w3.org/2000/svg" width="48" height="48" viewBox="0 0 48 48" fill="none"><g clip-path="url(#clip0_734_247)"><path d="M28.068 19.482C29.25 15.076 33.334 12 38 12C42.666 12 46.75 15.076 47.932 19.482C48 19.7357 48.0174 20.0003 47.9832 20.2608C47.9489 20.5212 47.8637 20.7723 47.7324 20.9998C47.6011 21.2274 47.4263 21.4268 47.2179 21.5867C47.0096 21.7466 46.7717 21.864 46.518 21.932C46.2643 22 45.9997 22.0174 45.7392 21.9832C45.4788 21.9489 45.2277 21.8637 45.0002 21.7324C44.7727 21.6011 44.5732 21.4263 44.4133 21.2179C44.2534 21.0095 44.136 20.7717 44.068 20.518C43.356 17.858 40.86 16 38 16C35.14 16 32.644 17.858 31.932 20.518C31.865 20.7723 31.7482 21.0108 31.5885 21.2197C31.4288 21.4287 31.2293 21.6039 31.0016 21.7354C30.7738 21.8668 30.5223 21.9519 30.2614 21.9856C30.0006 22.0194 29.7357 22.0012 29.482 21.932C29.2283 21.864 28.9904 21.7467 28.782 21.5868C28.5737 21.4268 28.3988 21.2274 28.2675 20.9999C28.1362 20.7724 28.051 20.5212 28.0168 20.2608C27.9825 20.0003 27.9999 19.7357 28.068 19.482ZM38 10C40.758 10 43 7.758 43 5C43 2.242 40.758 0 38 0C35.242 0 33 2.242 33 5C33 7.758 35.242 10 38 10ZM38 26C35.242 26 33 28.242 33 31C33 33.758 35.242 36 38 36C40.758 36 43 33.758 43 31C43 28.242 40.758 26 38 26ZM38 38C33.334 38 29.25 41.076 28.068 45.482C27.9306 45.9944 28.0024 46.5404 28.2676 46.9998C28.5328 47.4593 28.9696 47.7946 29.482 47.932C29.9944 48.0694 30.5404 47.9976 30.9999 47.7324C31.4593 47.4672 31.7946 47.0304 31.932 46.518C32.644 43.858 35.14 42 38 42C40.86 42 43.356 43.858 44.068 46.518C44.136 46.7717 44.2534 47.0095 44.4133 47.2179C44.5732 47.4263 44.7727 47.6011 45.0002 47.7324C45.2277 47.8637 45.4788 47.9489 45.7392 47.9832C45.9997 48.0174 46.2643 48 46.518 47.932C46.7717 47.864 47.0096 47.7466 47.2179 47.5867C47.4263 47.4268 47.6011 47.2274 47.7324 46.9998C47.8637 46.7723 47.9489 46.5212 47.9832 46.2608C48.0174 46.0003 48 45.7357 47.932 45.482C46.75 41.076 42.666 38 38 38ZM22.48 34.908L16.318 28.602C16.1354 28.4102 15.9164 28.2565 15.6739 28.15C15.4314 28.0435 15.1702 27.9862 14.9054 27.9815C14.6406 27.9767 14.3774 28.0246 14.1313 28.1224C13.8851 28.2202 13.6608 28.3659 13.4714 28.551C13.282 28.7362 13.1313 28.9571 13.028 29.201C12.9247 29.4449 12.8708 29.7068 12.8696 29.9717C12.8683 30.2366 12.9197 30.499 13.0207 30.7439C13.1217 30.9887 13.2704 31.2111 13.458 31.398L17.954 36H9.998C6.69 36 3.998 33.308 3.998 30V18C3.998 14.692 6.69 12 9.998 12H19.998C20.5284 12 21.0371 11.7893 21.4122 11.4142C21.7873 11.0391 21.998 10.5304 21.998 10C21.998 9.46957 21.7873 8.96086 21.4122 8.58579C21.0371 8.21071 20.5284 8 19.998 8H9.998C7.347 8.00318 4.80551 9.05783 2.93115 10.9326C1.05679 12.8073 0.00264646 15.349 0 18L0 30C0 35.514 4.486 40 10 40H17.986L13.46 44.602C13.2764 44.7898 13.1316 45.0119 13.0339 45.2557C12.9361 45.4994 12.8873 45.76 12.8903 46.0226C12.8933 46.2852 12.9479 46.5447 13.0512 46.7862C13.1544 47.0276 13.3042 47.2464 13.492 47.43C13.6798 47.6136 13.9019 47.7584 14.1457 47.8561C14.3894 47.9539 14.65 48.0027 14.9126 47.9997C15.1752 47.9967 15.4347 47.9421 15.6762 47.8388C15.9176 47.7356 16.1364 47.5858 16.32 47.398L22.486 41.092C23.068 40.628 23.5 40.04 23.714 39.444C24.09 38.5493 24.1015 37.5431 23.746 36.64C23.4943 35.9567 23.0564 35.3575 22.482 34.91L22.48 34.908Z" fill="#40556D"></path></g><defs><clipPath id="clip0_734_247"><rect width="48" height="48" fill="white"></rect></clipPath></defs></svg>