<svg xmlns="http://www.w3.org/2000/svg" width="48" height="48" viewBox="0 0 48 48" fill="none"><g clip-path="url(#clip0_524_1945)"><path d="M46.522 16.555C42.6335 4.13407 29.3682 -2.80727 16.9448 1.0796C4.52305 4.96807 -2.41914 18.2366 1.46858 30.6575L2.99502 30.1794C-0.629637 18.6004 5.84239 6.2306 17.423 2.6052C23.033 0.850101 28.9908 1.38419 34.197 4.10848C39.4056 6.83435 43.2405 11.424 44.9964 17.0332C46.7515 22.6424 46.2182 28.5994 43.4931 33.8073C40.7689 39.0158 36.1792 42.8508 30.5692 44.6067C21.1795 47.5452 10.8871 43.8343 5.53377 35.5808L4.19202 36.4508C8.61702 43.2746 16.1908 47.2038 24.0421 47.203C26.3769 47.203 28.7381 46.8559 31.0466 46.1315C37.0636 44.2485 41.9868 40.1345 44.9101 34.5485C47.8334 28.9624 48.4051 22.5721 46.522 16.555Z" fill="#102A49"></path><path d="M19.3612 11.1945L19.8202 9.66242L11.8242 7.26364C11.6859 7.22214 11.539 7.21888 11.399 7.25423C11.2591 7.28957 11.1313 7.36219 11.0294 7.46436L9.43017 9.06354C9.33843 9.15537 9.2704 9.26814 9.23195 9.39212C9.19351 9.5161 9.1858 9.64758 9.20949 9.7752C9.23318 9.90276 9.28756 10.0226 9.36794 10.1245C9.44832 10.2263 9.55227 10.307 9.67083 10.3597L16.8673 13.5581L17.5166 12.0965L11.3845 9.37058L11.8227 8.93239L19.3612 11.1945Z" fill="#102A49"></path><path d="M26.7886 6.43131C26.7887 6.3263 26.768 6.22231 26.7278 6.12529C26.6876 6.02827 26.6287 5.94011 26.5545 5.86585C26.4802 5.7916 26.3921 5.7327 26.2951 5.69253C26.198 5.65235 26.094 5.63169 25.989 5.63171H25.9874C24.2283 5.63171 22.5739 6.31693 21.3298 7.56118L14.5492 14.341L11.7898 13.6509C11.6558 13.6173 11.5153 13.6191 11.3822 13.6559C11.2491 13.6928 11.1278 13.7635 11.0301 13.8612L9.43091 15.4604C9.34489 15.5462 9.27959 15.6505 9.23996 15.7653C9.20034 15.8802 9.18744 16.0026 9.20224 16.1232C9.21705 16.2438 9.25918 16.3594 9.32541 16.4613C9.39165 16.5631 9.48025 16.6485 9.58447 16.711L13.4113 19.0074L15.7078 22.8343C15.7702 22.9385 15.8556 23.0271 15.9574 23.0933C16.0593 23.1595 16.1749 23.2017 16.2955 23.2165C16.4161 23.231 16.5385 23.2181 16.6534 23.1786C16.7684 23.1392 16.8729 23.0742 16.9592 22.9887L18.5584 21.3895C18.6559 21.2917 18.7265 21.1704 18.7634 21.0373C18.8002 20.9042 18.802 20.7639 18.7687 20.6298L18.0794 17.8736L24.968 11.053C26.1433 9.82234 26.7902 8.20562 26.7886 6.43131ZM16.6297 17.0564C16.5311 17.154 16.4596 17.2755 16.4221 17.4091C16.3847 17.5427 16.3827 17.6838 16.4162 17.8184L17.1063 20.5778L16.5514 21.1327L14.6795 18.0127C14.6121 17.9001 14.5179 17.8059 14.4053 17.7385L11.2853 15.8666L11.8402 15.3117L14.5996 16.0018C14.7336 16.0353 14.874 16.0336 15.0072 15.9968C15.1403 15.9599 15.2616 15.8892 15.3593 15.7915L22.4597 8.69106C23.1954 7.95465 24.1213 7.47728 25.1256 7.30375C24.9673 8.29206 24.5171 9.20837 23.8262 9.93203L16.6297 17.0564Z" fill="#102A49"></path><path d="M25.155 20.7002L22.7562 12.6003L21.2225 13.0545L23.4766 20.6651L22.9912 21.0938L20.3254 14.9096L18.8565 15.5429L21.9589 22.7393C22.0209 22.8828 22.1235 23.005 22.254 23.0909C22.3846 23.1767 22.5375 23.2224 22.6938 23.2223C22.8884 23.2225 23.0765 23.1514 23.2223 23.0225L24.9175 21.5273C25.0318 21.4263 25.1148 21.2949 25.1569 21.1484C25.1989 21.0018 25.1983 20.8464 25.155 20.7002ZM15.6189 44.0893C9.92416 46.7879 5.45679 47.1366 3.36504 45.0457C-0.260366 41.4203 3.67685 30.8872 12.5228 20.5435L11.3074 19.504C1.60517 30.8487 -2.12655 41.8168 2.23367 46.1763C3.45148 47.3933 5.17142 48.0002 7.3047 48.0002C9.79142 48.0002 12.8395 47.1758 16.3034 45.5342L15.6189 44.0893ZM42.6862 27.6423C42.6179 27.5147 42.5162 27.408 42.392 27.3337C42.2678 27.2593 42.1257 27.2201 41.9809 27.2201H39.2767L37.0986 22.8647C37.0321 22.7318 36.93 22.6201 36.8036 22.542C36.6772 22.4639 36.5315 22.4225 36.3829 22.4225H28.3869C28.2819 22.4224 28.1779 22.4431 28.0809 22.4833C27.9839 22.5234 27.8957 22.5823 27.8214 22.6566C27.7472 22.7308 27.6883 22.819 27.6481 22.916C27.6079 23.0131 27.5873 23.1171 27.5873 23.2221V29.6189C27.5872 29.7239 27.6078 29.828 27.648 29.925C27.6881 30.0221 27.747 30.1103 27.8213 30.1845C27.8956 30.2588 27.9838 30.3177 28.0808 30.3578C28.1779 30.398 28.2819 30.4186 28.3869 30.4185H30.7857V39.2141C30.7856 39.3192 30.8062 39.4232 30.8463 39.5203C30.8865 39.6173 30.9454 39.7055 31.0196 39.7798C31.0939 39.854 31.1821 39.9129 31.2792 39.9531C31.3762 39.9932 31.4803 40.0138 31.5853 40.0137H35.5833C35.6885 40.0137 35.7926 39.9929 35.8898 39.9526C35.9869 39.9122 36.0751 39.8531 36.1494 39.7786L39.3478 36.5802C39.4222 36.5061 39.4812 36.418 39.5214 36.321C39.5616 36.224 39.5822 36.1199 39.5821 36.0149V33.0588L42.6461 28.4627C42.7264 28.3424 42.7725 28.2025 42.7795 28.058C42.7866 27.9136 42.7544 27.7699 42.6862 27.6423ZM38.1165 32.3736C38.0291 32.5051 37.9823 32.6595 37.9821 32.8174V35.6847L35.2523 38.4145H32.3841V29.6189C32.3842 29.5139 32.3636 29.4098 32.3235 29.3128C32.2834 29.2157 32.2245 29.1275 32.1502 29.0533C32.0759 28.979 31.9877 28.9201 31.8907 28.88C31.7936 28.8398 31.6896 28.8192 31.5845 28.8193H29.1858V24.0218H35.888L38.0661 28.3772C38.1326 28.51 38.2348 28.6218 38.3612 28.6999C38.4876 28.778 38.6332 28.8193 38.7817 28.8194H40.4865L38.1165 32.3736ZM43.2436 20.8233L40.2754 15.6291C40.2056 15.5067 40.1045 15.4049 39.9827 15.3342C39.8608 15.2634 39.7224 15.2261 39.5814 15.226H34.7839C34.6523 15.2261 34.5227 15.2586 34.4067 15.3206C34.2907 15.3827 34.1917 15.4724 34.1186 15.5818L32.7569 17.6248H30.7859V13.6268H34.7839C34.8889 13.6269 34.9929 13.6063 35.0899 13.5661C35.1869 13.5259 35.275 13.4669 35.3492 13.3926L38.3133 10.4285H41.9802V8.82928H37.9822C37.8772 8.82919 37.7732 8.84984 37.6762 8.89005C37.5792 8.93025 37.4911 8.98922 37.4169 9.06357L34.4528 12.0277H29.9863C29.8813 12.0276 29.7773 12.0483 29.6803 12.0885C29.5832 12.1286 29.4951 12.1875 29.4208 12.2618C29.3466 12.336 29.2877 12.4242 29.2475 12.5212C29.2073 12.6182 29.1867 12.7222 29.1867 12.8273V18.4244C29.1867 18.5294 29.2073 18.6334 29.2475 18.7304C29.2877 18.8275 29.3466 18.9156 29.4208 18.9899C29.4951 19.0641 29.5833 19.123 29.6803 19.1632C29.7773 19.2034 29.8813 19.224 29.9863 19.224H33.1847C33.3162 19.2239 33.4458 19.1914 33.5618 19.1294C33.6779 19.0673 33.7768 18.9776 33.8499 18.8682L35.2116 16.8252H39.1177L42.0859 22.0194C42.1557 22.1418 42.2568 22.2436 42.3786 22.3144C42.5005 22.3851 42.6389 22.4224 42.7799 22.4225H45.9783V20.8233H43.2436Z" fill="#102A49"></path><path d="M23.5895 28.8193H19.123L16.9585 26.6548C16.8843 26.5804 16.7962 26.5215 16.6992 26.4813C16.6022 26.441 16.4982 26.4204 16.3932 26.4205H12.3952C12.2902 26.4205 12.1862 26.4411 12.0892 26.4813C11.9921 26.5215 11.904 26.5804 11.8297 26.6546C11.7555 26.7289 11.6966 26.817 11.6564 26.9141C11.6162 27.0111 11.5956 27.1151 11.5956 27.2201V32.8172C11.5956 32.9223 11.6162 33.0263 11.6564 33.1233C11.6966 33.2203 11.7554 33.3085 11.8297 33.3827C11.904 33.457 11.9921 33.5159 12.0891 33.5561C12.1862 33.5962 12.2902 33.6169 12.3952 33.6168H15.5936V41.6129C15.5936 41.7614 15.6349 41.9071 15.713 42.0335C15.7911 42.1599 15.9029 42.262 16.0358 42.3285C16.1469 42.3836 16.2692 42.4123 16.3932 42.4125C16.5663 42.4127 16.7347 42.3565 16.873 42.2525L20.0713 39.8537C20.1706 39.7792 20.2512 39.6827 20.3067 39.5716C20.3622 39.4606 20.3912 39.3382 20.3912 39.2141V37.1991L24.0894 34.2414C24.1829 34.1664 24.2585 34.0714 24.3104 33.9633C24.3623 33.8552 24.3892 33.7368 24.3892 33.6169V29.619C24.3892 29.5139 24.3685 29.41 24.3283 29.3129C24.2882 29.2159 24.2292 29.1277 24.155 29.0535C24.0807 28.9792 23.9926 28.9203 23.8955 28.8801C23.7985 28.8399 23.6945 28.8193 23.5895 28.8193ZM22.7899 33.2331L19.0917 36.1908C18.9982 36.2658 18.9227 36.3609 18.8708 36.469C18.8189 36.577 18.7919 36.6954 18.7919 36.8153V38.8143L17.1927 40.0138V32.8173C17.1928 32.7123 17.1721 32.6083 17.132 32.5113C17.0918 32.4143 17.0329 32.3261 16.9586 32.2519C16.8844 32.1776 16.7962 32.1187 16.6992 32.0785C16.6022 32.0384 16.4982 32.0177 16.3932 32.0177H13.1948V28.0198H16.0621L18.2266 30.1843C18.3008 30.2586 18.3889 30.3176 18.4859 30.3578C18.5829 30.398 18.6869 30.4186 18.7919 30.4186H22.7899V33.2331ZM7.48315 17.2131L5.08437 13.2152C5.0134 13.0968 4.91297 12.9989 4.79288 12.9309C4.6728 12.8629 4.53714 12.8272 4.39915 12.8273H3.59956V14.4265H3.94662L5.79134 17.5009L3.83393 19.4583C3.75958 19.5325 3.70061 19.6206 3.6604 19.7176C3.6202 19.8146 3.59955 19.9186 3.59965 20.0237V22.4224H1.20068V24.0216H4.39906C4.6111 24.0215 4.81444 23.9373 4.96437 23.7873C5.11431 23.6374 5.19858 23.4341 5.19865 23.222V20.3547L7.36315 18.1902C7.48914 18.064 7.56937 17.8993 7.59111 17.7223C7.61285 17.5453 7.57485 17.3661 7.48315 17.2131ZM25.1895 0.833313V1.80878L22.5964 2.45725C22.5076 2.47971 22.4233 2.51702 22.3469 2.56759L20.3343 3.90934L15.9517 1.71766L15.2361 3.14809L20.0337 5.54688C20.1597 5.6097 20.3001 5.63813 20.4406 5.62929C20.5812 5.62045 20.7169 5.57465 20.8341 5.49653L23.1177 3.97413L26.1826 3.20809C26.3557 3.16492 26.5093 3.06513 26.6191 2.9246C26.729 2.78407 26.7886 2.61085 26.7887 2.4325V0.833313H25.1895Z" fill="#102A49"></path></g><defs><clipPath id="clip0_524_1945"><rect width="48" height="48" fill="white"></rect></clipPath></defs></svg>