<svg xmlns="http://www.w3.org/2000/svg" width="48" height="48" viewBox="0 0 48 48" fill="none"><g clip-path="url(#clip0_1_2)"><path fill-rule="evenodd" clip-rule="evenodd" d="M1.6051 32.6062C1.5919 32.6405 1.58722 32.97 1.59454 33.3383L1.60798 34.008H9.28798H16.968V33.288V32.568L9.29854 32.5559C3.03766 32.5459 1.62466 32.5552 1.6051 32.6062ZM18.6458 32.6044C18.633 32.6377 18.6283 33.3128 18.6353 34.1045L18.648 35.544H24H29.352V34.056V32.568L24.0105 32.5558C19.7383 32.546 18.6644 32.5558 18.6458 32.6044ZM31.0291 32.6062C31.0159 32.6405 31.0112 32.97 31.0185 33.3383L31.032 34.008H38.712H46.392V33.288V32.568L38.7225 32.5559C32.4617 32.5459 31.0487 32.5552 31.0291 32.6062ZM1.58398 40.0056C1.58398 42.9814 1.60066 44.4272 1.6369 44.6016C1.81498 45.4582 2.54182 46.185 3.39838 46.3631C3.76006 46.4383 44.2399 46.4383 44.6016 46.3631C45.4581 46.185 46.185 45.4582 46.3631 44.6016C46.3993 44.4272 46.416 42.9814 46.416 40.0056V35.664H39.4263H32.4368L32.4747 35.796C32.5405 36.0246 32.5555 38.2496 32.4936 38.568C32.3013 39.5549 31.7736 40.45 31.0766 40.971C30.9728 41.0485 30.8592 41.1392 30.824 41.1726C30.6981 41.2918 29.969 41.6177 29.592 41.7234L29.208 41.8312H24H18.792L18.408 41.7242C18.0476 41.6239 17.288 41.2794 17.1667 41.1613C17.1366 41.132 17.058 41.0707 16.992 41.0251C16.2847 40.5364 15.7021 39.5728 15.5064 38.568C15.4445 38.2496 15.4595 36.0246 15.5252 35.796L15.5631 35.664H8.57362H1.58398V40.0056ZM17.0891 37.2688C17.0873 39.051 17.5193 39.7918 18.761 40.1362C19.1925 40.2558 28.7339 40.2724 29.1777 40.1543C29.9637 39.9451 30.5423 39.4153 30.809 38.6608C30.9507 38.2601 30.9707 36.0444 30.83 36.3299C30.728 36.537 30.3546 36.9163 30.168 37.0025C30.0888 37.039 29.9721 37.093 29.9087 37.1225C29.7327 37.2042 18.2532 37.198 18.0793 37.116C18.0092 37.083 17.8926 37.029 17.82 36.996C17.6384 36.9134 17.2713 36.5395 17.1721 36.336C17.0923 36.1724 17.0901 36.197 17.0891 37.2688Z" fill="#F1BB3B"></path><path fill-rule="evenodd" clip-rule="evenodd" d="M18.6784 1.62627C18.625 1.66071 18.6166 1.88607 18.6328 2.83827L18.6529 4.00803L18.7943 4.29603L18.9359 4.58403L19.3228 4.59783C19.9868 4.62147 20.0715 4.40643 20.0528 2.74671L20.0399 1.60803L19.3919 1.59603C19.0355 1.58943 18.7144 1.60299 18.6784 1.62627ZM44.9279 6.96123V10.8026L45.6599 10.7892L46.3919 10.776L46.4042 6.94803L46.4165 3.12003H45.6722H44.9279V6.96123ZM33.1576 4.73031C33.1431 4.74483 32.9829 4.77615 32.8016 4.79991C32.6203 4.82379 32.3639 4.86711 32.2319 4.89627C32.0999 4.92543 31.9215 4.96131 31.8355 4.97595C31.7494 4.99059 31.6672 5.02191 31.6527 5.04531C31.6382 5.06883 31.5748 5.08803 31.5119 5.08803C31.4491 5.08803 31.3843 5.10963 31.3679 5.13603C31.3516 5.16243 31.2961 5.18403 31.2445 5.18403C31.1929 5.18403 31.1132 5.20383 31.0673 5.22795C31.0215 5.25219 30.8975 5.30799 30.7919 5.35191C30.2403 5.58183 29.0415 6.26331 28.8959 6.42987C28.8827 6.44499 28.7531 6.55431 28.6079 6.67263C27.9916 7.17531 27.8649 7.36167 27.9856 7.58715C28.0713 7.74723 28.2747 7.70271 28.5628 7.46079C28.9291 7.15323 28.9439 7.14159 29.1937 6.96987C29.3167 6.88527 29.4404 6.81603 29.4686 6.81603C29.4968 6.81603 29.5199 6.79443 29.5199 6.76803C29.5199 6.74163 29.5409 6.72003 29.5665 6.72003C29.5922 6.72003 29.7345 6.66447 29.8828 6.59667C31.2526 5.97003 32.7923 6.00195 34.2239 6.68667C34.5159 6.82623 34.9378 7.08243 34.9919 7.15299C35.0051 7.17015 35.0522 7.20399 35.0963 7.22811C35.3883 7.38747 36.152 8.20875 36.3868 8.61603C36.581 8.95275 36.8614 9.52587 36.8627 9.58863C36.8633 9.62199 36.8834 9.68679 36.9073 9.73263C36.9311 9.77847 36.9758 9.91323 37.0065 10.032C37.0372 10.1508 37.0834 10.3167 37.1091 10.4007C37.1348 10.4847 37.1691 10.9545 37.1854 11.4447L37.2151 12.336H37.9438H38.6726L38.7315 12.132C38.7639 12.0198 38.8121 11.8524 38.8385 11.76C38.897 11.5564 39.1773 10.9743 39.2277 10.9521C39.2476 10.9432 39.2639 10.9095 39.2639 10.8771C39.2639 10.7649 39.9404 10.0845 40.2694 9.86571C40.5556 9.67551 40.7296 9.59079 41.2079 9.40935C41.4701 9.30975 41.8099 9.26403 42.2864 9.26403C42.8249 9.26403 42.9951 9.22455 43.1879 9.05451L43.2959 8.95935V6.95415V4.94895L43.1354 4.82643L42.9748 4.70403H38.0794C35.3869 4.70403 33.1721 4.71591 33.1576 4.73031ZM18.8672 6.37947C18.8126 6.45615 18.7679 6.54903 18.7679 6.58587C18.7679 6.62271 18.7409 6.67983 18.7079 6.71283C18.6607 6.76011 18.6451 8.18043 18.6345 13.4184L18.6211 20.064H19.3431H20.0653L20.0527 13.428L20.0399 6.79203L19.9045 6.51603L19.7689 6.24003H19.3677C18.9796 6.24003 18.9632 6.24459 18.8672 6.37947ZM4.24795 9.52899C2.90347 9.99675 2.10415 10.8594 1.69183 12.288C1.55839 12.7502 1.57975 15.169 1.72159 15.672C2.22751 17.4656 3.66979 18.528 5.59879 18.528C6.08599 18.528 6.18643 18.5405 6.21079 18.604C6.22687 18.6458 6.23995 21.4322 6.23995 24.796V30.912H7.75171H9.26359L9.27571 24.732L9.28795 18.552L9.98395 18.5222C10.3667 18.5056 10.7339 18.4773 10.7999 18.4592C10.8659 18.441 11.0171 18.4023 11.1359 18.3731C12.3683 18.0709 13.4397 16.9493 13.778 15.6069C13.8853 15.1812 13.9174 12.787 13.8208 12.4136C13.7413 12.1058 13.6771 11.8888 13.6348 11.784C13.5565 11.5897 13.3683 11.2073 13.3397 11.184C13.3235 11.1708 13.2833 11.1088 13.2503 11.0463C12.9253 10.4294 12.0329 9.78855 11.0524 9.46767L10.8969 9.41667L10.8844 11.6804L10.8719 13.944L7.73995 13.9564L4.60795 13.9688L4.60723 11.7484C4.60687 10.5272 4.59067 9.50571 4.57123 9.47847C4.54783 9.44559 4.43863 9.46263 4.24795 9.52899ZM28.1519 12.4613C27.9675 12.4796 27.7389 12.5343 27.4319 12.6339C27.115 12.7366 26.4999 13.0707 26.3 13.2486C26.1833 13.3524 26.0726 13.4379 26.0539 13.4387C25.9076 13.4445 25.2481 14.4579 25.0065 15.048C24.7937 15.5676 24.7967 16.9372 25.0115 17.46C25.036 17.5194 25.0775 17.622 25.1039 17.688C25.531 18.7557 26.4233 19.5654 27.5884 19.9424C27.9609 20.063 27.9359 19.659 27.9359 25.5569V30.912H28.6559H29.3759V25.5131V20.1142L29.4839 20.046C29.5433 20.0086 29.7323 19.9283 29.9039 19.8676C30.0755 19.807 30.2807 19.7213 30.3599 19.6773C30.6442 19.519 30.8884 19.3719 30.9119 19.3445C30.9251 19.3293 31.0377 19.2346 31.1621 19.134C31.6045 18.7769 32.2053 17.8314 32.3251 17.304C32.6777 15.752 32.225 14.246 31.1416 13.368C31.0113 13.2624 30.8785 13.1544 30.8464 13.128C30.6801 12.9909 30.1102 12.704 29.8559 12.6294C29.7371 12.5945 29.5941 12.5484 29.5382 12.5268C29.4183 12.4808 28.429 12.4341 28.1519 12.4613ZM29.0962 13.9416C29.9546 14.1236 30.5685 14.6824 30.9181 15.6C30.9919 15.7938 31.0004 16.8093 30.929 16.9066C30.9043 16.9404 30.8548 17.0544 30.8192 17.16C30.536 17.9988 29.6557 18.5787 28.6507 18.5884C28.0609 18.594 27.8307 18.5288 27.3599 18.2224C25.2172 16.8284 26.6024 13.413 29.0962 13.9416ZM37.2479 15.48V16.944H37.9439H38.6399V15.48V14.016H37.9439H37.2479V15.48ZM17.9218 24.9258C17.8921 24.9579 17.8273 25.0182 17.7778 25.06C17.5389 25.2617 17.2799 25.6214 17.2799 25.7514C17.2799 25.7914 17.2583 25.824 17.2319 25.824C17.2055 25.824 17.1839 25.8996 17.1839 25.992C17.1839 26.0844 17.1623 26.16 17.1359 26.16C17.1046 26.16 17.0879 26.9841 17.0879 28.536V30.912H19.3439H21.5999V28.6104C21.5999 25.7993 21.5846 25.7106 20.9979 25.124L20.738 24.864L19.357 24.8658C18.3391 24.8672 17.9617 24.883 17.9218 24.9258ZM2.18395 27.9326C1.64143 28.0636 1.61083 28.1526 1.59307 29.652L1.57819 30.912H3.09307H4.60795V29.476C4.60795 28.6862 4.59487 28.0058 4.57879 27.964C4.54747 27.8822 2.50363 27.8555 2.18395 27.9326ZM10.8959 29.3996V30.912H13.1767H15.4573L15.4447 29.412L15.4319 27.912L13.1639 27.8996L10.8959 27.8871V29.3996ZM23.2799 29.4V30.912H24.7919H26.3039V29.4576C26.3039 28.3905 26.2886 27.9879 26.2463 27.9456C26.2041 27.9034 25.8015 27.888 24.7343 27.888H23.2799V29.4ZM31.0406 27.9194C31.0227 27.9374 31.0079 28.618 31.0079 29.4321V30.912H32.5207H34.0333L34.0207 29.412L34.0079 27.912L32.5406 27.8993C31.7336 27.8924 31.0586 27.9014 31.0406 27.9194ZM41.8559 29.3976V30.912H44.1388H46.4217L46.4068 29.652C46.3847 27.7794 46.5848 27.9172 43.8599 27.8976L41.8559 27.8831V29.3976Z" fill="#D3D7D0"></path><path fill-rule="evenodd" clip-rule="evenodd" d="M17.868 0.0326548C17.8086 0.0447748 17.76 0.0747748 17.76 0.0993748C17.76 0.123975 17.7293 0.144015 17.6918 0.144015C17.6053 0.144015 17.184 0.561975 17.184 0.647775C17.184 0.683175 17.1674 0.719175 17.1473 0.728055C16.9368 0.819855 16.8451 3.45529 17.0216 4.33921C17.0947 4.70521 17.3468 5.33197 17.4356 5.36869C17.4578 5.37781 17.4558 5.41021 17.4311 5.44069C17.3391 5.55397 17.184 5.86141 17.184 5.93017C17.184 5.96929 17.1631 6.03878 17.1377 6.08462C16.9507 6.42122 16.944 6.67777 16.944 13.5172V20.112H16.8C16.7208 20.112 16.656 20.1336 16.656 20.16C16.656 20.1864 16.6233 20.208 16.5834 20.208C16.4983 20.208 16.3404 20.2933 16.2054 20.412C16.1528 20.4582 16.0914 20.496 16.0687 20.496C16.0071 20.496 15.792 20.7232 15.792 20.7882C15.792 20.8193 15.7542 20.8799 15.708 20.9229C15.5917 21.0311 15.504 21.1968 15.504 21.3085C15.504 21.3601 15.4824 21.4157 15.456 21.432C15.395 21.4697 15.3923 22.4841 15.4529 22.5966C15.4775 22.6425 15.5259 22.7502 15.5605 22.836C15.5952 22.9218 15.6397 22.992 15.6597 22.992C15.6797 22.992 15.696 23.0254 15.696 23.0661C15.696 23.1069 15.8701 23.3124 16.083 23.523L16.47 23.9058L16.275 24.0931C16.1677 24.1962 16.08 24.3099 16.08 24.3456C16.08 24.3815 16.0368 24.442 15.984 24.48C15.9312 24.5181 15.888 24.5877 15.888 24.6346C15.888 24.6816 15.8664 24.72 15.84 24.72C15.8136 24.72 15.792 24.7632 15.792 24.816C15.792 24.8688 15.7704 24.912 15.744 24.912C15.7176 24.912 15.696 24.9552 15.696 25.008C15.696 25.0608 15.6744 25.104 15.648 25.104C15.6216 25.104 15.6 25.1567 15.6 25.2211C15.6 25.2856 15.5784 25.3517 15.552 25.368C15.5256 25.3843 15.504 25.4721 15.504 25.5629C15.504 25.6537 15.4824 25.728 15.456 25.728C15.4296 25.728 15.408 25.836 15.408 25.968V26.208H13.176H10.944V23.1647V20.1213L11.172 20.0952C11.5694 20.0497 11.76 20.0068 11.76 19.9627C11.76 19.9392 11.8248 19.92 11.904 19.92C11.9832 19.92 12.048 19.8984 12.048 19.872C12.048 19.8456 12.0899 19.824 12.1411 19.824C12.1923 19.824 12.2477 19.8024 12.264 19.776C12.2803 19.7496 12.3356 19.728 12.3869 19.728C12.4381 19.728 12.48 19.7064 12.48 19.68C12.48 19.6536 12.5232 19.632 12.576 19.632C12.6288 19.632 12.672 19.6104 12.672 19.584C12.672 19.5576 12.7044 19.536 12.744 19.536C12.7836 19.536 12.816 19.5144 12.816 19.488C12.816 19.4616 12.8484 19.44 12.888 19.44C12.9276 19.44 12.96 19.4184 12.96 19.392C12.96 19.3656 12.9926 19.344 13.0325 19.344C13.0723 19.344 13.1726 19.2792 13.2555 19.2C13.3385 19.1208 13.4256 19.056 13.4491 19.056C13.5407 19.056 14.496 18.1212 14.496 18.0317C14.496 17.9995 14.5392 17.9421 14.592 17.904C14.6448 17.866 14.688 17.7982 14.688 17.7534C14.688 17.7087 14.7068 17.6649 14.7299 17.656C14.7865 17.6344 15.024 17.1577 15.024 17.0656C15.024 17.0251 15.0456 16.992 15.072 16.992C15.0984 16.992 15.12 16.9488 15.12 16.896C15.12 16.8432 15.1416 16.8 15.168 16.8C15.1944 16.8 15.216 16.746 15.216 16.68C15.216 16.614 15.2376 16.56 15.264 16.56C15.2904 16.56 15.312 16.4952 15.312 16.416C15.312 16.3368 15.3336 16.272 15.36 16.272C15.3864 16.272 15.408 16.1869 15.408 16.0829C15.408 15.9789 15.4296 15.8803 15.456 15.864C15.4824 15.8477 15.504 15.652 15.504 15.4291C15.504 15.1911 15.5238 15.024 15.552 15.024C15.5827 15.024 15.6 14.608 15.6 13.872C15.6 13.1361 15.5827 12.72 15.552 12.72C15.5245 12.72 15.504 12.576 15.504 12.384C15.504 12.192 15.4835 12.048 15.456 12.048C15.4296 12.048 15.408 11.9616 15.408 11.856C15.408 11.7504 15.3864 11.664 15.36 11.664C15.3336 11.664 15.312 11.5884 15.312 11.496C15.312 11.4036 15.2904 11.328 15.264 11.328C15.2376 11.328 15.216 11.274 15.216 11.208C15.216 11.142 15.1944 11.088 15.168 11.088C15.1416 11.088 15.12 11.034 15.12 10.968C15.12 10.902 15.0984 10.848 15.072 10.848C15.0456 10.848 15.024 10.8163 15.024 10.7777C15.024 10.6801 14.8709 10.368 14.8231 10.368C14.8016 10.368 14.784 10.3248 14.784 10.272C14.784 10.2192 14.7624 10.176 14.736 10.176C14.7096 10.176 14.688 10.1469 14.688 10.1111C14.688 10.0755 14.6232 9.97849 14.544 9.89557C14.4648 9.81265 14.4 9.7253 14.4 9.7013C14.4 9.61658 13.6194 8.88002 13.5296 8.88002C13.5015 8.88002 13.418 8.81522 13.344 8.73602C13.2699 8.65682 13.1828 8.59201 13.1503 8.59201C13.1179 8.59201 13.0563 8.55254 13.0136 8.50442C12.9709 8.45618 12.8658 8.38609 12.78 8.34865C12.6942 8.31121 12.624 8.2643 12.624 8.24426C12.624 8.22434 12.5808 8.20802 12.528 8.20802C12.4752 8.20802 12.432 8.18641 12.432 8.16001C12.432 8.13361 12.3888 8.11201 12.336 8.11201C12.2832 8.11201 12.24 8.09041 12.24 8.06401C12.24 8.03761 12.1752 8.01602 12.096 8.01602C12.0168 8.01602 11.952 7.99442 11.952 7.96802C11.952 7.94162 11.8872 7.92001 11.808 7.92001C11.7288 7.92001 11.664 7.89841 11.664 7.87201C11.664 7.84561 11.5776 7.82401 11.472 7.82401C11.3664 7.82401 11.28 7.80242 11.28 7.77602C11.28 7.74962 11.1625 7.72802 11.0189 7.72802C10.8752 7.72802 10.7443 7.70641 10.728 7.68001C10.7102 7.65133 10.3995 7.63201 9.95709 7.63201H9.21597V9.98401V12.336H7.77645H6.33693L6.32445 9.99602L6.31197 7.65601L5.53197 7.64281C5.02281 7.63417 4.75197 7.64678 4.75197 7.67882C4.75197 7.7069 4.62861 7.72802 4.46397 7.72802C4.30401 7.72802 4.17597 7.74938 4.17597 7.77602C4.17597 7.80242 4.08957 7.82401 3.98397 7.82401C3.87837 7.82401 3.79197 7.84561 3.79197 7.87201C3.79197 7.89841 3.72717 7.92001 3.64797 7.92001C3.56877 7.92001 3.50397 7.94162 3.50397 7.96802C3.50397 7.99442 3.44997 8.01602 3.38397 8.01602C3.31797 8.01602 3.26397 8.03761 3.26397 8.06401C3.26397 8.09041 3.22077 8.11201 3.16797 8.11201C3.11517 8.11201 3.07197 8.13361 3.07197 8.16001C3.07197 8.18641 3.02877 8.20802 2.97597 8.20802C2.92317 8.20802 2.87997 8.22962 2.87997 8.25602C2.87997 8.28242 2.84661 8.30401 2.80593 8.30401C2.76525 8.30401 2.68557 8.34721 2.62893 8.40001C2.57229 8.45281 2.49753 8.49602 2.46297 8.49602C2.42829 8.49602 2.39997 8.51761 2.39997 8.54401C2.39997 8.57041 2.36541 8.59201 2.32317 8.59201C2.28105 8.59201 2.18601 8.65682 2.11197 8.73602C2.03793 8.81522 1.95741 8.88002 1.93305 8.88002C1.85565 8.88002 1.34397 9.36674 1.19733 9.57998C1.11969 9.69266 1.02921 9.8135 0.996092 9.84842C0.963092 9.88346 0.905372 9.97141 0.867812 10.044C0.830372 10.1166 0.781772 10.176 0.759812 10.176C0.737972 10.176 0.719972 10.2094 0.719972 10.2501C0.719972 10.2907 0.676772 10.3704 0.623972 10.4271C0.571172 10.4837 0.527972 10.5679 0.527972 10.6143C0.527972 10.6605 0.506372 10.7117 0.479972 10.728C0.453572 10.7443 0.431972 10.7997 0.431972 10.8509C0.431972 10.9021 0.410372 10.944 0.383972 10.944C0.357572 10.944 0.335972 10.9872 0.335972 11.04C0.335972 11.0928 0.314372 11.136 0.287972 11.136C0.261572 11.136 0.239972 11.19 0.239972 11.256C0.239972 11.322 0.218372 11.376 0.191972 11.376C0.165572 11.376 0.143972 11.4365 0.143972 11.5104C0.143972 11.5843 0.116972 11.6718 0.0839723 11.7048C-0.00338773 11.7922 -0.00338773 16.1349 0.0839723 16.164C0.116972 16.1751 0.143972 16.2471 0.143972 16.324C0.143972 16.401 0.165572 16.464 0.191972 16.464C0.218372 16.464 0.239972 16.5288 0.239972 16.608C0.239972 16.6872 0.261572 16.752 0.287972 16.752C0.314372 16.752 0.335972 16.806 0.335972 16.872C0.335972 16.938 0.357572 16.992 0.383972 16.992C0.410372 16.992 0.431972 17.0352 0.431972 17.088C0.431972 17.1408 0.453572 17.184 0.479972 17.184C0.506372 17.184 0.527972 17.2272 0.527972 17.28C0.527972 17.3328 0.549572 17.376 0.575972 17.376C0.602372 17.376 0.623972 17.4043 0.623972 17.439C0.623972 17.4736 0.667172 17.5483 0.719972 17.605C0.772772 17.6616 0.815972 17.7334 0.815972 17.7643C0.815972 17.7954 0.855932 17.8557 0.904892 17.8984C0.953732 17.9411 1.02813 18.0427 1.07013 18.1243C1.18221 18.3421 1.90641 19.056 2.01513 19.056C2.04249 19.056 2.13261 19.1208 2.21553 19.2C2.29845 19.2792 2.39541 19.344 2.43105 19.344C2.46681 19.344 2.49597 19.3656 2.49597 19.392C2.49597 19.4184 2.53917 19.44 2.59197 19.44C2.64477 19.44 2.68797 19.4575 2.68797 19.479C2.68797 19.5005 2.76357 19.5478 2.85597 19.584C2.94837 19.6203 3.02397 19.6675 3.02397 19.689C3.02397 19.7105 3.06717 19.728 3.11997 19.728C3.17277 19.728 3.21597 19.7496 3.21597 19.776C3.21597 19.8024 3.25785 19.824 3.30909 19.824C3.36033 19.824 3.41565 19.8456 3.43197 19.872C3.44829 19.8984 3.51441 19.92 3.57885 19.92C3.64329 19.92 3.69597 19.9416 3.69597 19.968C3.69597 19.9944 3.78237 20.016 3.88797 20.016C3.99357 20.016 4.07997 20.0376 4.07997 20.064C4.07997 20.0904 4.18797 20.112 4.31997 20.112H4.55997V23.16V26.208H3.26685C2.45649 26.208 1.96257 26.2259 1.94397 26.256C1.92765 26.2824 1.82913 26.304 1.72509 26.304C1.62105 26.304 1.53597 26.3256 1.53597 26.352C1.53597 26.3784 1.49253 26.4 1.43937 26.4C1.32513 26.4 1.16001 26.4868 1.05081 26.604C1.00785 26.6502 0.947732 26.688 0.917252 26.688C0.848852 26.688 0.335972 27.1953 0.335972 27.2629C0.335972 27.2899 0.314372 27.312 0.287972 27.312C0.261572 27.312 0.239972 27.3444 0.239972 27.384C0.239972 27.4236 0.218372 27.456 0.191972 27.456C0.165572 27.456 0.143972 27.4974 0.143972 27.5481C0.143972 27.5986 0.116972 27.649 0.0839723 27.66C-0.00422774 27.6894 -0.00422774 45.3666 0.0839723 45.396C0.116972 45.4071 0.143972 45.4575 0.143972 45.508C0.143972 45.5586 0.165572 45.6 0.191972 45.6C0.218372 45.6 0.239972 45.6648 0.239972 45.744C0.239972 45.8232 0.261572 45.888 0.287972 45.888C0.314372 45.888 0.335972 45.9264 0.335972 45.9735C0.335972 46.0204 0.379172 46.09 0.431972 46.128C0.484772 46.1661 0.527972 46.2309 0.527972 46.272C0.527972 46.3132 0.571172 46.378 0.623972 46.416C0.676772 46.4541 0.719972 46.5148 0.719972 46.5509C0.719972 46.6305 1.37721 47.28 1.45773 47.28C1.48917 47.28 1.54593 47.3232 1.58397 47.376C1.62201 47.4288 1.68681 47.472 1.72797 47.472C1.76913 47.472 1.83393 47.5152 1.87197 47.568C1.91001 47.6208 1.97961 47.664 2.02653 47.664C2.07357 47.664 2.11197 47.6856 2.11197 47.712C2.11197 47.7384 2.17677 47.76 2.25597 47.76C2.33517 47.76 2.39997 47.7816 2.39997 47.808C2.39997 47.8344 2.44137 47.856 2.49201 47.856C2.54253 47.856 2.59293 47.883 2.60397 47.916C2.63337 48.0043 45.3666 48.0043 45.396 47.916C45.407 47.883 45.4561 47.856 45.5052 47.856C45.5541 47.856 45.6077 47.8344 45.624 47.808C45.6403 47.7816 45.7064 47.76 45.7709 47.76C45.8353 47.76 45.888 47.7384 45.888 47.712C45.888 47.6856 45.9264 47.664 45.9734 47.664C46.0203 47.664 46.0899 47.6208 46.128 47.568C46.166 47.5152 46.2308 47.472 46.272 47.472C46.3131 47.472 46.3779 47.4288 46.416 47.376C46.454 47.3232 46.5121 47.28 46.545 47.28C46.6229 47.28 47.28 46.6229 47.28 46.545C47.28 46.5121 47.3232 46.4541 47.376 46.416C47.4288 46.378 47.472 46.3132 47.472 46.272C47.472 46.2309 47.5152 46.1661 47.568 46.128C47.6208 46.09 47.664 46.0204 47.664 45.9735C47.664 45.9264 47.6856 45.888 47.712 45.888C47.7384 45.888 47.76 45.8232 47.76 45.744C47.76 45.6648 47.7816 45.6 47.808 45.6C47.8344 45.6 47.856 45.5586 47.856 45.508C47.856 45.4575 47.883 45.4071 47.916 45.396C47.9637 45.3802 47.976 43.5706 47.976 36.5625C47.976 29.5756 47.9635 27.7363 47.916 27.6888C47.883 27.6558 47.856 27.5899 47.856 27.5424C47.856 27.4949 47.8344 27.456 47.808 27.456C47.7816 27.456 47.76 27.4236 47.76 27.384C47.76 27.3444 47.7384 27.312 47.712 27.312C47.6856 27.312 47.664 27.2899 47.664 27.2629C47.664 27.1953 47.1511 26.688 47.0827 26.688C47.0522 26.688 46.9921 26.6502 46.9491 26.604C46.8399 26.4868 46.6748 26.4 46.5606 26.4C46.5074 26.4 46.464 26.3784 46.464 26.352C46.464 26.3256 46.3789 26.304 46.2749 26.304C46.1708 26.304 46.0723 26.2824 46.056 26.256C46.0369 26.2252 45.2795 26.208 43.9411 26.208H41.856V22.4429C41.856 19.9845 41.8393 18.6673 41.808 18.648C41.7816 18.6317 41.76 18.5764 41.76 18.5251C41.76 18.4739 41.7384 18.432 41.712 18.432C41.6856 18.432 41.664 18.378 41.664 18.312C41.664 18.246 41.6424 18.192 41.616 18.192C41.5896 18.192 41.568 18.1596 41.568 18.12C41.568 18.0804 41.5464 18.048 41.52 18.048C41.4936 18.048 41.472 18.0151 41.472 17.9749C41.472 17.9349 41.357 17.7891 41.2164 17.6509C40.9369 17.3764 40.875 17.3307 40.572 17.1742L40.368 17.0689V14.7504C40.368 13.2369 40.3847 12.432 40.416 12.432C40.4424 12.432 40.464 12.3672 40.464 12.288C40.464 12.2088 40.4856 12.144 40.512 12.144C40.5384 12.144 40.56 12.1008 40.56 12.048C40.56 11.9952 40.5816 11.952 40.608 11.952C40.6344 11.952 40.656 11.9187 40.656 11.8779C40.656 11.8371 40.7046 11.7547 40.764 11.695C40.8234 11.6352 40.926 11.5176 40.992 11.4336C41.058 11.3496 41.145 11.2807 41.1854 11.2805C41.2257 11.2803 41.2899 11.2368 41.328 11.184C41.366 11.1312 41.4421 11.088 41.4969 11.088C41.5519 11.088 41.6209 11.0639 41.6504 11.0344C41.6809 11.0039 41.9383 10.9723 42.248 10.9612C42.5472 10.9504 42.8946 10.9345 43.02 10.9258L43.248 10.9101V11.0951C43.248 11.1967 43.2696 11.28 43.296 11.28C43.3224 11.28 43.344 11.3448 43.344 11.424C43.344 11.5032 43.3656 11.568 43.392 11.568C43.4184 11.568 43.44 11.5975 43.44 11.6335C43.44 11.7807 44.0655 12.336 44.2314 12.336C44.2713 12.336 44.304 12.3576 44.304 12.384C44.304 12.4104 44.3904 12.432 44.496 12.432C44.6016 12.432 44.688 12.4536 44.688 12.48C44.688 12.5453 46.6397 12.5453 46.68 12.48C46.6963 12.4536 46.7948 12.432 46.8989 12.432C47.0029 12.432 47.088 12.4104 47.088 12.384C47.088 12.3576 47.1312 12.336 47.184 12.336C47.2368 12.336 47.28 12.318 47.28 12.2962C47.28 12.2742 47.3394 12.2256 47.412 12.1882C47.5775 12.1027 47.76 11.9263 47.76 11.8518C47.76 11.8207 47.8086 11.7532 47.868 11.7016L47.976 11.608V6.97201C47.976 3.30589 47.9634 2.33185 47.916 2.31601C47.883 2.30497 47.856 2.26489 47.856 2.22673C47.856 2.06245 47.1975 1.53601 46.9921 1.53601C46.9423 1.53601 46.8883 1.51441 46.872 1.48801C46.8315 1.42249 44.496 1.42249 44.496 1.48801C44.496 1.51441 44.4312 1.53601 44.352 1.53601C44.2728 1.53601 44.208 1.55761 44.208 1.58401C44.208 1.61041 44.1758 1.63201 44.1366 1.63201C43.9785 1.63201 43.44 2.16865 43.44 2.32597C43.44 2.36665 43.4184 2.40001 43.392 2.40001C43.3656 2.40001 43.344 2.45269 43.344 2.51713C43.344 2.58157 43.3224 2.64769 43.296 2.66401C43.2696 2.68033 43.248 2.76757 43.248 2.85805V3.02233L38.004 3.04045C34.4931 3.05269 32.6648 3.07597 32.472 3.11113C32.3136 3.14005 32.0652 3.18709 31.92 3.21577C31.7748 3.24457 31.5855 3.28033 31.4995 3.29533C31.4135 3.31033 31.3313 3.34189 31.3167 3.36529C31.3022 3.38881 31.2267 3.40801 31.1491 3.40801C31.0715 3.40801 31.008 3.42961 31.008 3.45601C31.008 3.48241 30.9432 3.50401 30.864 3.50401C30.7848 3.50401 30.72 3.52561 30.72 3.55201C30.72 3.57841 30.6552 3.60001 30.576 3.60001C30.4968 3.60001 30.432 3.62161 30.432 3.64801C30.432 3.67441 30.3901 3.69601 30.3389 3.69601C30.2876 3.69601 30.2323 3.71761 30.216 3.74401C30.1997 3.77041 30.1335 3.79201 30.0691 3.79201C30.0047 3.79201 29.952 3.81361 29.952 3.84001C29.952 3.86641 29.9088 3.88801 29.856 3.88801C29.8032 3.88801 29.76 3.90961 29.76 3.93601C29.76 3.96241 29.7168 3.98401 29.664 3.98401C29.6112 3.98401 29.568 4.00561 29.568 4.03201C29.568 4.05841 29.5248 4.08001 29.472 4.08001C29.4192 4.08001 29.376 4.10161 29.376 4.12801C29.376 4.15441 29.3328 4.17601 29.28 4.17601C29.2272 4.17601 29.184 4.19761 29.184 4.22401C29.184 4.25041 29.1516 4.27201 29.112 4.27201C29.0724 4.27201 29.04 4.29361 29.04 4.32001C29.04 4.34641 29.0016 4.36802 28.9545 4.36802C28.9076 4.36802 28.838 4.41121 28.8 4.46401C28.7619 4.51681 28.6923 4.56001 28.6454 4.56001C28.5984 4.56001 28.56 4.58162 28.56 4.60802C28.56 4.63442 28.5308 4.65601 28.4951 4.65601C28.4594 4.65601 28.3625 4.72081 28.2795 4.80001C28.1966 4.87921 28.1055 4.94401 28.077 4.94401C28.0484 4.94401 27.995 4.97101 27.9582 5.00401C27.8334 5.11597 27.767 5.16638 27.6809 5.21462C27.5939 5.26322 27.2108 5.59645 26.8881 5.90401C26.7913 5.99641 26.6814 6.13141 26.6438 6.20401C26.6064 6.27661 26.5578 6.33601 26.5358 6.33601C26.514 6.33601 26.496 6.37921 26.496 6.43201C26.496 6.48481 26.4744 6.52802 26.448 6.52802C26.4216 6.52802 26.4 6.57122 26.4 6.62402C26.4 6.67682 26.3784 6.72001 26.352 6.72001C26.3256 6.72001 26.304 6.80641 26.304 6.91201C26.304 7.01761 26.2824 7.10402 26.256 7.10402C26.2289 7.10402 26.208 7.23997 26.208 7.41601C26.208 7.59205 26.2289 7.72802 26.256 7.72802C26.2824 7.72802 26.304 7.81441 26.304 7.92001C26.304 8.02561 26.3256 8.11201 26.352 8.11201C26.3784 8.11201 26.4 8.16194 26.4 8.22302C26.4 8.28398 26.4432 8.38033 26.496 8.43697C26.5488 8.49361 26.592 8.56466 26.592 8.59478C26.592 8.6249 26.6622 8.71225 26.748 8.78893C26.988 9.00337 27.0162 9.02401 27.0699 9.02401C27.0974 9.02401 27.1201 9.04022 27.1203 9.06002C27.1208 9.1031 27.3533 9.21602 27.4416 9.21602C27.4759 9.21602 27.504 9.23761 27.504 9.26401C27.504 9.29041 27.612 9.31201 27.744 9.31201C27.876 9.31201 27.984 9.33362 27.984 9.36002C27.984 9.38642 28.0704 9.40802 28.176 9.40802C28.2816 9.40802 28.368 9.38642 28.368 9.36002C28.368 9.33362 28.476 9.31201 28.608 9.31201C28.74 9.31201 28.848 9.29041 28.848 9.26401C28.848 9.23761 28.902 9.21602 28.968 9.21602C29.034 9.21602 29.088 9.19442 29.088 9.16802C29.088 9.14162 29.1203 9.12002 29.1596 9.12002C29.199 9.12002 29.28 9.07813 29.3396 9.02689C29.3993 8.97577 29.4999 8.88938 29.5633 8.8349C29.6268 8.78054 29.6924 8.73602 29.7093 8.73602C29.7261 8.73602 29.8201 8.66042 29.9181 8.56802C30.0161 8.47562 30.1285 8.40001 30.1681 8.40001C30.2076 8.40001 30.24 8.38178 30.24 8.35958C30.24 8.33726 30.3426 8.27017 30.468 8.21029C30.5934 8.15041 30.7335 8.08225 30.7794 8.05873C30.8252 8.03521 30.9062 8.01602 30.9594 8.01602C31.0125 8.01602 31.056 7.99442 31.056 7.96802C31.056 7.94162 31.1411 7.92001 31.2451 7.92001C31.3491 7.92001 31.4477 7.89841 31.464 7.87201C31.5032 7.80853 32.4 7.80853 32.4 7.87201C32.4 7.89841 32.508 7.92001 32.64 7.92001C32.772 7.92001 32.88 7.94162 32.88 7.96802C32.88 7.99442 32.9202 8.01602 32.9693 8.01602C33.0655 8.01602 33.6615 8.30461 33.6879 8.36401C33.6968 8.38381 33.7406 8.40001 33.7854 8.40001C33.8301 8.40001 33.8979 8.44322 33.936 8.49602C33.974 8.54882 34.0286 8.59201 34.0572 8.59201C34.0859 8.59201 34.1895 8.66557 34.2876 8.75545C34.3857 8.84533 34.5302 8.96954 34.6086 9.03146C34.6869 9.09338 34.7513 9.17701 34.7515 9.21745C34.7517 9.25777 34.7952 9.32198 34.848 9.36002C34.9008 9.39806 34.944 9.46766 34.944 9.51458C34.944 9.56162 34.9614 9.60002 34.9827 9.60002C35.0252 9.60002 35.184 9.93457 35.184 10.0241C35.184 10.0548 35.2056 10.08 35.232 10.08C35.2584 10.08 35.28 10.1327 35.28 10.1971C35.28 10.2616 35.3016 10.3277 35.328 10.344C35.3544 10.3603 35.376 10.4467 35.376 10.536C35.376 10.6253 35.3976 10.7117 35.424 10.728C35.4552 10.7473 35.472 11.8642 35.472 13.9218V17.0861L35.271 17.1886C35.1605 17.245 35.0401 17.3211 35.0036 17.3575C34.967 17.3941 34.9205 17.424 34.9002 17.424C34.8396 17.424 34.464 17.8107 34.464 17.8731C34.464 17.9049 34.4208 17.962 34.368 18C34.3152 18.0381 34.272 18.1077 34.272 18.1546C34.272 18.2016 34.2504 18.24 34.224 18.24C34.1976 18.24 34.176 18.2819 34.176 18.3331C34.176 18.3844 34.1544 18.4397 34.128 18.456C34.1016 18.4723 34.08 18.5479 34.08 18.624C34.08 18.7001 34.0584 18.7757 34.032 18.792C34.0007 18.8113 33.984 20.1045 33.984 22.5149V26.208H32.52H31.056V23.7325C31.056 21.1199 31.056 21.12 31.2685 21.12C31.31 21.12 31.344 21.0984 31.344 21.072C31.344 21.0456 31.3754 21.024 31.4138 21.024C31.4924 21.024 31.7929 20.8381 31.9543 20.6897C32.0127 20.6359 32.0819 20.592 32.1079 20.592C32.1843 20.592 32.8724 19.8819 32.9591 19.7137C33.0026 19.6293 33.0782 19.5251 33.1271 19.4824C33.176 19.4397 33.216 19.3743 33.216 19.3369C33.216 19.2997 33.2592 19.2381 33.312 19.2C33.3648 19.162 33.408 19.0924 33.408 19.0455C33.408 18.9984 33.4255 18.96 33.447 18.96C33.4685 18.96 33.5157 18.8844 33.552 18.792C33.5882 18.6996 33.6355 18.624 33.657 18.624C33.6785 18.624 33.696 18.57 33.696 18.504C33.696 18.438 33.7176 18.384 33.744 18.384C33.7704 18.384 33.792 18.33 33.792 18.264C33.792 18.198 33.8136 18.144 33.84 18.144C33.8664 18.144 33.888 18.0792 33.888 18C33.888 17.9208 33.9096 17.856 33.936 17.856C33.9624 17.856 33.984 17.7696 33.984 17.664C33.984 17.5584 34.0056 17.472 34.032 17.472C34.0586 17.472 34.08 17.3449 34.08 17.1869C34.08 17.0301 34.1016 16.8883 34.128 16.872C34.1558 16.8549 34.176 16.5924 34.176 16.248C34.176 15.9036 34.1558 15.6412 34.128 15.624C34.1016 15.6077 34.08 15.4768 34.08 15.3331C34.08 15.1895 34.0584 15.072 34.032 15.072C34.0056 15.072 33.984 14.9856 33.984 14.88C33.984 14.7744 33.9624 14.688 33.936 14.688C33.9096 14.688 33.888 14.6232 33.888 14.544C33.888 14.4648 33.8664 14.4 33.84 14.4C33.8136 14.4 33.792 14.3352 33.792 14.256C33.792 14.1768 33.7704 14.112 33.744 14.112C33.7176 14.112 33.696 14.0688 33.696 14.016C33.696 13.9632 33.6744 13.92 33.648 13.92C33.6216 13.92 33.6 13.8768 33.6 13.824C33.6 13.7712 33.5784 13.728 33.552 13.728C33.5256 13.728 33.504 13.6848 33.504 13.632C33.504 13.5792 33.4824 13.536 33.456 13.536C33.4296 13.536 33.408 13.5077 33.408 13.473C33.408 13.4385 33.3648 13.3637 33.312 13.3071C33.2592 13.2504 33.216 13.1863 33.216 13.1646C33.216 13.1429 33.1728 13.0941 33.12 13.056C33.0672 13.018 33.024 12.9583 33.024 12.9234C33.024 12.8143 32.1042 11.856 31.9997 11.856C31.9675 11.856 31.91 11.8128 31.872 11.76C31.8339 11.7072 31.7691 11.664 31.728 11.664C31.6868 11.664 31.622 11.6208 31.584 11.568C31.5459 11.5152 31.4763 11.472 31.4294 11.472C31.3824 11.472 31.344 11.4504 31.344 11.424C31.344 11.3976 31.3008 11.376 31.248 11.376C31.1952 11.376 31.152 11.3544 31.152 11.328C31.152 11.3016 31.1088 11.28 31.056 11.28C31.0032 11.28 30.96 11.2584 30.96 11.232C30.96 11.2056 30.9273 11.184 30.8874 11.184C30.8474 11.184 30.7772 11.164 30.7314 11.1395C30.5803 11.0587 30.1526 10.944 30.003 10.944C29.9221 10.944 29.856 10.9224 29.856 10.896C29.856 10.8694 29.7279 10.848 29.568 10.848C29.408 10.848 29.28 10.8267 29.28 10.8C29.28 10.7704 29.0319 10.752 28.632 10.752C28.232 10.752 27.984 10.7704 27.984 10.8C27.984 10.8267 27.8559 10.848 27.696 10.848C27.5376 10.848 27.408 10.8673 27.408 10.891C27.408 10.9146 27.327 10.9445 27.228 10.9575C26.9893 10.9887 26.5884 11.1069 26.3961 11.2027C26.3109 11.2452 26.2122 11.28 26.1767 11.28C26.141 11.28 26.112 11.3016 26.112 11.328C26.112 11.3544 26.0688 11.376 26.016 11.376C25.9632 11.376 25.92 11.3976 25.92 11.424C25.92 11.4504 25.8917 11.472 25.857 11.472C25.8224 11.472 25.7477 11.5152 25.691 11.568C25.6344 11.6208 25.5687 11.664 25.5451 11.664C25.5215 11.664 25.4345 11.7288 25.3515 11.808C25.2686 11.8872 25.1895 11.952 25.1757 11.952C25.1255 11.952 24.336 12.7681 24.336 12.8201C24.336 12.8495 24.2712 12.934 24.192 13.008C24.1128 13.0821 24.048 13.1663 24.048 13.1952C24.048 13.2243 24.0264 13.248 24 13.248C23.9736 13.248 23.952 13.2763 23.952 13.311C23.952 13.3456 23.9088 13.4203 23.856 13.477C23.8032 13.5336 23.76 13.6133 23.76 13.654C23.76 13.6947 23.7384 13.728 23.712 13.728C23.6856 13.728 23.664 13.7712 23.664 13.824C23.664 13.8768 23.6463 13.92 23.6246 13.92C23.603 13.92 23.556 14.028 23.52 14.16C23.484 14.292 23.4393 14.4 23.4205 14.4C23.4018 14.4 23.3749 14.4702 23.3606 14.556C23.3173 14.818 23.2747 14.9953 23.2311 15.096C23.072 15.4637 23.0995 16.9079 23.2791 17.616C23.3093 17.7348 23.3459 17.8917 23.3605 17.9646C23.3751 18.0376 23.4061 18.109 23.4295 18.1235C23.4529 18.1379 23.472 18.1917 23.472 18.2429C23.472 18.2941 23.4936 18.336 23.52 18.336C23.5464 18.336 23.568 18.3749 23.568 18.4224C23.568 18.5297 23.6753 18.7672 23.724 18.7677C23.7438 18.7679 23.76 18.8014 23.76 18.8421C23.76 18.8827 23.8032 18.9624 23.856 19.0191C23.9088 19.0757 23.952 19.1505 23.952 19.185C23.952 19.2197 23.9736 19.248 24 19.248C24.0264 19.248 24.048 19.2772 24.048 19.3129C24.048 19.3486 24.1128 19.4455 24.192 19.5285C24.2712 19.6114 24.336 19.6995 24.336 19.7243C24.336 19.8612 25.2949 20.7186 25.6679 20.9152C25.8065 20.9883 25.9199 21.0642 25.9199 21.084C25.92 21.1038 25.9539 21.12 25.9955 21.12C26.208 21.12 26.208 21.1199 26.208 23.7325V26.208H24.744H23.28V25.9949C23.28 25.8777 23.2584 25.7683 23.232 25.752C23.2056 25.7357 23.184 25.6372 23.184 25.5331C23.184 25.4291 23.1624 25.344 23.136 25.344C23.1096 25.344 23.088 25.29 23.088 25.224C23.088 25.158 23.0664 25.104 23.04 25.104C23.0136 25.104 22.992 25.0684 22.992 25.0248C22.992 24.9177 22.7514 24.432 22.6983 24.432C22.6751 24.432 22.656 24.4023 22.656 24.3658C22.656 24.3294 22.5698 24.2109 22.4646 24.1024L22.2732 23.9052L22.6326 23.5387C22.8302 23.3371 22.992 23.1317 22.992 23.0821C22.992 23.0326 23.0136 22.992 23.04 22.992C23.0664 22.992 23.088 22.9596 23.088 22.92C23.088 22.8804 23.1096 22.848 23.136 22.848C23.1624 22.848 23.184 22.7832 23.184 22.704C23.184 22.6248 23.2056 22.56 23.232 22.56C23.2613 22.56 23.28 22.336 23.28 21.984C23.28 21.6321 23.2613 21.408 23.232 21.408C23.2056 21.408 23.184 21.354 23.184 21.288C23.184 21.222 23.1624 21.168 23.136 21.168C23.1096 21.168 23.088 21.1248 23.088 21.072C23.088 21.0192 23.0678 20.976 23.0432 20.976C23.0186 20.976 22.9851 20.9339 22.9687 20.8824C22.9344 20.7743 22.6856 20.496 22.6233 20.496C22.6002 20.496 22.55 20.4528 22.512 20.4C22.4739 20.3472 22.4043 20.304 22.3574 20.304C22.3104 20.304 22.272 20.2824 22.272 20.256C22.272 20.2296 22.2288 20.208 22.176 20.208C22.1232 20.208 22.08 20.1864 22.08 20.16C22.08 20.1336 22.0152 20.112 21.936 20.112H21.792V13.512C21.792 9.14401 21.7758 6.91201 21.744 6.91201C21.7173 6.91201 21.696 6.78398 21.696 6.62402C21.696 6.46406 21.6746 6.33601 21.648 6.33601C21.6216 6.33601 21.6 6.27121 21.6 6.19201C21.6 6.11281 21.5784 6.04802 21.552 6.04802C21.5256 6.04802 21.504 6.00541 21.504 5.95345C21.504 5.84965 21.3329 5.5193 21.2465 5.45642C21.2065 5.42738 21.2081 5.41021 21.252 5.39233C21.285 5.37901 21.312 5.32657 21.312 5.27605C21.312 5.22541 21.3336 5.18401 21.36 5.18401C21.3864 5.18401 21.408 5.14082 21.408 5.08802C21.408 5.03522 21.4296 4.99201 21.456 4.99201C21.4824 4.99201 21.504 4.94881 21.504 4.89601C21.504 4.84321 21.5256 4.80001 21.552 4.80001C21.5784 4.80001 21.6 4.73653 21.6 4.65889C21.6 4.58125 21.6216 4.50434 21.648 4.48802C21.6744 4.4717 21.696 4.35157 21.696 4.22113C21.696 4.09069 21.7176 3.98401 21.744 3.98401C21.7748 3.98401 21.792 3.50497 21.792 2.64289C21.792 1.80049 21.7741 1.29061 21.744 1.27201C21.7176 1.25569 21.696 1.16797 21.696 1.07713C21.696 0.986295 21.6744 0.912015 21.648 0.912015C21.6216 0.912015 21.6 0.868815 21.6 0.816015C21.6 0.763215 21.5784 0.720015 21.552 0.720015C21.5256 0.720015 21.504 0.685455 21.504 0.643215C21.504 0.554655 21.0864 0.144015 20.9964 0.144015C20.9631 0.144015 20.927 0.117015 20.916 0.0840148C20.8962 0.0244948 18.1352 -0.0220652 17.868 0.0326548ZM20.1777 1.59601C20.2266 1.77829 20.2111 3.51673 20.1579 3.81925C20.0277 4.55953 19.895 4.70401 19.3448 4.70401C18.8504 4.70401 18.8166 4.67774 18.6305 4.14878C18.5276 3.8567 18.4675 1.61245 18.56 1.52005C18.6617 1.41841 20.1488 1.48825 20.1777 1.59601ZM46.5002 6.97201L46.488 10.872L45.684 10.8852L44.88 10.8983V6.98521V3.07201H45.6962H46.5126L46.5002 6.97201ZM42.936 4.62781C43.0416 4.66429 43.1982 4.76293 43.284 4.84705L43.44 5.00017V6.97345V8.94673L43.311 9.08138C43.2401 9.15542 43.1537 9.21602 43.119 9.21602C43.0843 9.21602 43.056 9.23486 43.056 9.2579C43.056 9.28082 42.8238 9.3131 42.54 9.32942C41.7815 9.3731 41.4258 9.41425 41.3964 9.46189C41.3821 9.48505 41.3289 9.50401 41.2783 9.50401C40.9065 9.50401 39.9 10.1812 39.5252 10.6834C39.4478 10.7872 39.3737 10.8828 39.3602 10.896C39.1776 11.0766 38.832 11.9496 38.832 12.2305C38.832 12.43 38.7883 12.4387 37.872 12.4217L37.128 12.408L37.1148 11.5932C37.1075 11.145 37.0805 10.7573 37.0548 10.7316C37.029 10.7058 37.008 10.5825 37.008 10.4573C37.008 10.3321 36.9864 10.2163 36.96 10.2C36.9336 10.1837 36.912 10.1081 36.912 10.032C36.912 9.95593 36.8904 9.88033 36.864 9.86401C36.8376 9.84769 36.816 9.79213 36.816 9.74053C36.816 9.68893 36.7968 9.60925 36.7733 9.56341C36.7497 9.51757 36.68 9.37202 36.6183 9.24002C36.3368 8.63726 35.6054 7.71601 35.1109 7.34125C34.8665 7.15597 34.5624 6.96001 34.5193 6.96001C34.4933 6.96001 34.4648 6.94382 34.4559 6.92402C34.4418 6.89198 34.125 6.72901 33.864 6.61957C32.8711 6.20305 31.4281 6.15553 30.3575 6.50401C30.0828 6.59342 29.5035 6.8705 29.48 6.92378C29.4711 6.9437 29.4427 6.96001 29.4167 6.96001C29.3449 6.96001 28.9458 7.24346 28.7162 7.4573C28.2152 7.92422 27.84 7.90009 27.84 7.40101C27.84 7.04677 29.1644 6.01381 30.3177 5.46853C30.605 5.33269 30.8775 5.20238 30.9234 5.17886C30.9692 5.15522 31.0489 5.13601 31.1005 5.13601C31.1521 5.13601 31.2077 5.11442 31.224 5.08802C31.2403 5.06162 31.3051 5.04001 31.368 5.04001C31.4309 5.04001 31.4941 5.02093 31.5085 4.99753C31.523 4.97413 31.5944 4.94317 31.6674 4.92853C31.7403 4.91389 31.8972 4.87766 32.016 4.84802C32.4161 4.74806 32.7096 4.69957 33.1867 4.65493C33.4479 4.63045 33.6729 4.59913 33.6867 4.58521C33.7518 4.52029 42.7445 4.56157 42.936 4.62781ZM19.8887 6.30001C20.2027 6.71701 20.1825 6.24745 20.1972 13.4955C20.2091 19.4475 20.2032 20.062 20.1337 20.1315C20.0552 20.2099 18.7873 20.2492 18.6039 20.1789C18.5065 20.1415 18.4857 7.12321 18.5826 6.81937C18.7813 6.19633 18.8403 6.14401 19.3448 6.14401C19.7696 6.14401 19.7715 6.14449 19.8887 6.30001ZM4.70397 11.616V13.872H7.72749H10.751L10.7635 11.628L10.776 9.38401L10.9079 9.36889C11.4169 9.31021 12.6222 10.0504 13.1348 10.7364C13.2103 10.8375 13.2977 10.9473 13.329 10.9805C14.1093 11.8078 14.2808 14.9908 13.6191 16.368C12.9211 17.821 11.6052 18.6058 9.83997 18.6217C9.61557 18.6238 9.40509 18.6426 9.37221 18.6635C9.32505 18.6934 9.30981 20.0076 9.30021 24.8668L9.28797 31.032L7.78173 31.0447C6.71025 31.0537 6.25653 31.0416 6.20973 31.0029C6.15465 30.9571 6.14397 29.946 6.14397 24.7936V18.6389L5.43549 18.6099C3.50097 18.5304 2.01525 17.3914 1.63485 15.696C1.60233 15.5508 1.55589 15.3539 1.53177 15.2585C1.46913 15.0101 1.47717 12.9034 1.54221 12.5549C1.73973 11.4961 2.23389 10.6641 3.02805 10.0529C3.48369 9.70226 4.19973 9.37286 4.52397 9.36458L4.70397 9.36002V11.616ZM29.3465 12.3879C29.9852 12.5553 30.2325 12.6484 30.624 12.8686C30.69 12.9057 30.7548 12.9479 30.768 12.9623C30.7812 12.9768 30.8676 13.0401 30.96 13.1028C31.5651 13.5139 32.1846 14.3795 32.3863 15.096C32.5269 15.5956 32.544 15.7206 32.5433 16.2535C32.5417 17.4047 32.151 18.3238 31.3265 19.1154C31.1688 19.2669 31.0002 19.4033 30.9518 19.4187C30.9035 19.4339 30.864 19.4629 30.864 19.4831C30.864 19.5411 30.1524 19.8988 29.796 20.02L29.472 20.1303V25.5355C29.472 29.6757 29.4585 30.9543 29.4144 30.9984C29.3197 31.0931 27.9643 31.0774 27.8675 30.9805C27.7998 30.9129 27.792 30.3511 27.792 25.515V20.1249L27.492 20.0163C26.3591 19.606 25.5659 18.9109 25.109 17.928C25.0477 17.796 24.9782 17.6505 24.9547 17.6046C24.9312 17.5588 24.912 17.4821 24.912 17.4342C24.912 17.3863 24.8925 17.3267 24.8689 17.3016C24.7503 17.1762 24.7092 15.8539 24.8106 15.432C24.8423 15.3 24.8807 15.1324 24.8957 15.0594C24.9108 14.9865 24.9421 14.9151 24.9655 14.9005C24.9889 14.8861 25.008 14.8324 25.008 14.7811C25.008 14.7299 25.0296 14.688 25.056 14.688C25.0824 14.688 25.104 14.6599 25.104 14.6256C25.104 14.5373 25.2169 14.3049 25.26 14.3044C25.2798 14.3041 25.296 14.2809 25.296 14.2527C25.296 14.0297 26.4103 12.912 26.6327 12.912C26.6587 12.912 26.6871 12.8958 26.696 12.876C26.7048 12.8562 26.82 12.789 26.952 12.7267C27.084 12.6645 27.2295 12.5943 27.2754 12.5707C27.3212 12.5472 27.4009 12.528 27.4525 12.528C27.5041 12.528 27.5597 12.5064 27.576 12.48C27.5923 12.4536 27.6746 12.4305 27.7589 12.4287C27.8431 12.4267 27.9552 12.4067 28.008 12.384C28.1471 12.3243 29.1144 12.327 29.3465 12.3879ZM38.7246 15.4932L38.7373 17.0903L37.9326 17.0772L37.128 17.064L37.1153 15.5284C37.1083 14.6838 37.1132 13.9651 37.1263 13.9313C37.1444 13.8838 37.3298 13.8726 37.9309 13.8828L38.712 13.896L38.7246 15.4932ZM27.9564 14.1059C25.5812 14.9165 26.0268 18.3073 28.5357 18.514C29.4943 18.5931 30.816 17.6391 30.816 16.8681C30.816 16.8073 30.8376 16.7443 30.864 16.728C30.9296 16.6875 30.9247 15.9588 30.8574 15.7474C30.7623 15.4497 30.7051 15.3169 30.5565 15.0496C30.1117 14.25 28.8626 13.7965 27.9564 14.1059ZM29.0388 15.7495C29.1122 15.8317 29.1965 15.9281 29.2261 15.9635C29.2856 16.0347 29.3013 16.5599 29.244 16.5601C29.2242 16.5603 29.1648 16.6249 29.112 16.704C29.0592 16.7831 28.9782 16.8478 28.932 16.8479C28.8858 16.8479 28.848 16.8696 28.848 16.896C28.848 17.1271 28.2246 16.8371 28.044 16.522C27.7227 15.9615 28.6119 15.271 29.0388 15.7495ZM39.8173 18.6297C40.0487 18.7384 40.176 18.8857 40.2647 19.1472C40.346 19.387 40.3437 30.8691 40.2624 30.9504C40.2192 30.9936 39.6311 31.008 37.9113 31.008H35.6178L35.5913 30.9C35.5766 30.8406 35.5709 28.1535 35.5783 24.9285L35.592 19.0649L35.7403 18.8805C36.021 18.5314 36.0111 18.5329 37.9085 18.5303C39.5348 18.5281 39.6095 18.532 39.8173 18.6297ZM21.5893 21.7228C21.8461 21.9025 21.7541 22.1107 21.1463 22.7247L20.5965 23.28H19.3575H18.1184L17.568 22.728C16.9712 22.1296 16.8714 21.9059 17.1179 21.7193C17.2591 21.6124 21.4363 21.6156 21.5893 21.7228ZM20.799 24.7761C20.8566 24.8069 21.0131 24.946 21.1467 25.0851C21.3671 25.3144 21.4538 25.4535 21.6525 25.896C21.7388 26.0885 21.7814 30.8004 21.6981 30.9561C21.6185 31.1047 17.1558 31.1146 17.0216 30.9663C16.9369 30.8727 16.9291 26.6213 17.0129 26.136C17.0822 25.7335 17.2853 25.3751 17.6449 25.02L17.9487 24.72H19.3215C20.2763 24.72 20.7261 24.7371 20.799 24.7761ZM4.62801 27.8212C4.72725 27.8592 4.74477 30.9 4.64637 30.9984C4.56405 31.0807 1.62789 31.0807 1.54557 30.9984C1.50381 30.9567 1.48797 30.6069 1.48797 29.7259C1.48797 27.8106 1.49649 27.802 3.39201 27.7959C4.03005 27.7937 4.58625 27.8051 4.62801 27.8212ZM15.5023 27.8849C15.5697 28.0109 15.5697 30.8371 15.5023 30.9631C15.4447 31.0708 11.0415 31.1116 10.8449 31.0063C10.7077 30.933 10.6993 27.9234 10.836 27.8439C11.0159 27.7391 15.4451 27.778 15.5023 27.8849ZM26.3532 27.9151C26.4175 28.0845 26.4149 30.8424 26.3503 30.9631C26.2791 31.0961 23.3696 31.1086 23.2237 30.9766C23.0989 30.8637 23.0875 27.9913 23.2115 27.8675C23.2767 27.8021 23.4881 27.792 24.7965 27.792H26.3064L26.3532 27.9151ZM34.052 27.8212C34.1513 27.8592 34.1688 30.9 34.0704 30.9984C33.9881 31.0807 31.0519 31.0807 30.9696 30.9984C30.8847 30.9136 30.8871 27.858 30.972 27.8238C31.0585 27.7889 33.9614 27.7864 34.052 27.8212ZM45.8928 27.8473C46.4563 28.0385 46.512 28.2076 46.512 29.7259C46.512 30.6069 46.4961 30.9567 46.4544 30.9984C46.3553 31.0975 41.8273 31.0797 41.7891 30.9801C41.7277 30.8199 41.7567 27.8494 41.82 27.8238C41.9528 27.7702 45.7297 27.792 45.8928 27.8473ZM17.0772 33.3L17.064 34.104H9.28797H1.51197L1.49877 33.3L1.48569 32.496H9.28797H17.0903L17.0772 33.3ZM29.448 34.08V35.64H24H18.552L18.5393 34.1285C18.5323 33.2971 18.5371 32.5896 18.5498 32.5563C18.5684 32.5078 19.665 32.4981 24.0105 32.5078L29.448 32.52V34.08ZM46.5012 33.3L46.488 34.104H38.712H30.936L30.9228 33.3L30.9097 32.496H38.712H46.5143L46.5012 33.3ZM15.6199 35.6094C15.6339 35.6322 15.614 35.8428 15.5756 36.0774C15.2757 37.9069 15.68 39.6405 16.626 40.5817C17.2577 41.2102 17.6168 41.4131 18.552 41.67C18.9031 41.7665 29.0899 41.7678 29.448 41.6715C31.2114 41.1969 32.2545 39.9891 32.4462 38.1999C32.5166 37.5427 32.5064 36.5783 32.4237 36.0738C32.385 35.8372 32.3703 35.6265 32.3912 35.6056C32.4121 35.5847 35.5923 35.5732 39.4585 35.5799L46.488 35.592L46.5015 39.96C46.5153 44.4199 46.5155 44.4141 46.3345 44.976C46.1545 45.5351 45.5379 46.1662 45.0167 46.3249C44.3724 46.5211 45.399 46.512 23.9983 46.512C8.99949 46.512 3.58917 46.4977 3.42069 46.4577C2.42853 46.2215 1.77849 45.5715 1.54233 44.5793C1.48269 44.3285 1.46109 35.659 1.52001 35.6001C1.56801 35.5521 15.5903 35.5614 15.6199 35.6094ZM17.2165 36.2272C17.2633 36.3257 17.4101 36.5158 17.5428 36.6495C17.7707 36.8793 17.8309 36.9184 18.1583 37.05C18.255 37.0889 19.8853 37.104 24 37.104C28.1147 37.104 29.745 37.0889 29.8417 37.05C30.1691 36.9184 30.2293 36.8793 30.4572 36.6495C30.5899 36.5158 30.7377 36.3234 30.7859 36.2221C30.9507 35.8747 31.056 36.2302 31.056 37.1343C31.056 37.8087 30.9921 38.4379 30.9069 38.6034C30.8833 38.6493 30.864 38.7187 30.864 38.7579C30.864 39.0845 30.2119 39.8031 29.688 40.0539C29.1215 40.3251 29.2287 40.32 24 40.32C18.7712 40.32 18.8785 40.3251 18.312 40.0539C17.7713 39.795 17.136 39.0839 17.136 38.7373C17.136 38.6869 17.1175 38.6343 17.0948 38.6202C16.9127 38.5077 16.9259 36.048 17.1085 36.048C17.1211 36.048 17.1697 36.1287 17.2165 36.2272Z" fill="#040404"></path><path fill-rule="evenodd" clip-rule="evenodd" d="M18.5816 2.65201C18.5847 3.23941 18.6009 3.78373 18.6176 3.86149C18.6343 3.93925 18.6403 3.47761 18.6309 2.83549C18.6171 1.89109 18.6262 1.66009 18.6789 1.62673C18.7296 1.59457 18.7254 1.58533 18.66 1.58473C18.5823 1.58401 18.5764 1.66441 18.5816 2.65201ZM20.0523 2.33989C20.0752 3.73897 20.0924 3.87121 20.1022 2.72401C20.1075 2.09701 20.0958 1.58401 20.076 1.58389C20.0562 1.58389 20.0455 1.92409 20.0523 2.33989ZM45.276 3.10765C45.4806 3.11665 45.8154 3.11665 46.02 3.10765C46.2246 3.09865 46.0572 3.09133 45.648 3.09133C45.2388 3.09133 45.0714 3.09865 45.276 3.10765ZM46.4158 6.93601L46.392 10.776L45.648 10.8019L44.904 10.8279L45.659 10.8379C46.4062 10.8479 46.4144 10.8469 46.4403 10.74C46.4546 10.6806 46.4604 8.93641 46.453 6.86401L46.4396 3.09601L46.4158 6.93601ZM19.776 4.53601C19.6993 4.62853 19.0128 4.63801 18.9118 4.54801C18.8546 4.49701 18.8541 4.50049 18.9081 4.57201C19.0068 4.70233 19.6794 4.69333 19.8 4.56001C19.8477 4.50721 19.8753 4.46401 19.8613 4.46401C19.8472 4.46401 19.8088 4.49641 19.776 4.53601ZM35.868 4.69201C37.155 4.69909 39.261 4.69909 40.548 4.69201C41.835 4.68493 40.782 4.67905 38.208 4.67905C35.634 4.67905 34.581 4.68493 35.868 4.69201ZM32.808 4.75201L32.664 4.78861L32.808 4.78957C32.8872 4.79005 33.006 4.77313 33.072 4.75201L33.192 4.71361L33.072 4.71445C33.006 4.71493 32.8872 4.73185 32.808 4.75201ZM32.28 4.84801L32.184 4.88929L32.28 4.89193C32.3328 4.89337 32.4084 4.87357 32.448 4.84801C32.5434 4.78633 32.4235 4.78633 32.28 4.84801ZM43.3074 6.95689C43.2961 8.93521 43.2954 8.94649 43.1893 9.06889L43.0827 9.19201L43.2139 9.07033L43.345 8.94877L43.332 6.95833L43.3189 4.96801L43.3074 6.95689ZM30.648 5.37337C30.5424 5.42341 30.4695 5.46601 30.4861 5.46817C30.5328 5.47417 30.864 5.32969 30.864 5.30341C30.864 5.27125 30.8638 5.27125 30.648 5.37337ZM29.616 5.90833C29.5363 5.97349 29.5282 5.98981 29.592 5.95681C29.7486 5.87593 29.8353 5.80945 29.784 5.80981C29.7576 5.81005 29.682 5.85433 29.616 5.90833ZM31.6938 6.17953C31.8465 6.18913 32.0841 6.18901 32.2218 6.17929C32.3594 6.16969 32.2344 6.16189 31.944 6.16201C31.6536 6.16213 31.541 6.16993 31.6938 6.17953ZM18.9058 6.27601C18.848 6.34981 18.849 6.35293 18.9144 6.30205C18.9553 6.27025 19.1713 6.23689 19.3944 6.22789L19.8 6.21157L19.3858 6.20173C19.041 6.19369 18.9607 6.20605 18.9058 6.27601ZM32.664 6.23773C32.8856 6.29965 33.2022 6.33745 33.12 6.29221C33.0804 6.27037 32.9292 6.24013 32.784 6.22501C32.6004 6.20581 32.5638 6.20965 32.664 6.23773ZM30.648 6.31753C30.4596 6.38377 30.4591 6.38449 30.624 6.35509C31.0358 6.28189 31.1418 6.25105 30.984 6.25057C30.9048 6.25033 30.7536 6.28045 30.648 6.31753ZM33.504 6.42397C33.5436 6.44833 33.63 6.48289 33.696 6.50053C33.7794 6.52285 33.794 6.51901 33.744 6.48805C33.7044 6.46369 33.618 6.42913 33.552 6.41149C33.4686 6.38917 33.4539 6.39301 33.504 6.42397ZM28.5541 6.67609L28.344 6.87217L28.572 6.69433C28.7803 6.53185 28.831 6.48001 28.7821 6.48001C28.7724 6.48001 28.6698 6.56821 28.5541 6.67609ZM19.9972 6.74401C20.0367 6.92053 20.0642 6.95881 20.0632 6.83605C20.0629 6.78541 20.0406 6.71161 20.0138 6.67201C19.9782 6.61945 19.9737 6.63889 19.9972 6.74401ZM29.652 6.68641C29.5794 6.71509 29.52 6.75649 29.52 6.77845C29.52 6.81157 29.7837 6.70297 29.852 6.64189C29.887 6.61057 29.7883 6.63253 29.652 6.68641ZM29.28 6.91633C29.2003 6.98149 29.1922 6.99781 29.256 6.96481C29.4126 6.88393 29.4993 6.81745 29.448 6.81781C29.4216 6.81805 29.346 6.86233 29.28 6.91633ZM34.464 6.83881C34.464 6.85129 34.5342 6.89581 34.62 6.93769L34.776 7.01377L34.656 6.91597C34.5404 6.82177 34.464 6.79105 34.464 6.83881ZM18.606 7.01401C18.5895 7.09657 18.576 10.0774 18.576 13.638V20.112H19.344H20.112L20.1001 13.548L20.0883 6.98401L20.076 13.524L20.0636 20.064H19.3426H18.6217L18.6348 13.464C18.6421 9.83401 18.6453 6.86401 18.642 6.86401C18.6386 6.86401 18.6225 6.93157 18.606 7.01401ZM28.0321 7.12777C27.8752 7.29481 27.93 7.30825 28.0939 7.14301C28.1676 7.06873 28.2092 7.00801 28.1863 7.00801C28.1634 7.00801 28.094 7.06189 28.0321 7.12777ZM35.184 7.33405C35.2764 7.41361 35.3612 7.46977 35.3725 7.45885C35.3955 7.43653 35.257 7.32121 35.112 7.24189C35.0592 7.21309 35.0916 7.25449 35.184 7.33405ZM28.5178 7.48993C28.4022 7.59445 28.3276 7.68001 28.352 7.68001C28.3765 7.68001 28.4809 7.59361 28.584 7.48801C28.8229 7.24333 28.7895 7.24429 28.5178 7.48993ZM27.892 7.41889C27.8898 7.47313 27.9219 7.55953 27.9636 7.61089C28.0051 7.66213 28.0244 7.67533 28.0064 7.64029C27.9884 7.60513 27.9562 7.51873 27.9349 7.44829C27.9039 7.34533 27.8954 7.33957 27.892 7.41889ZM35.667 7.75573C35.7577 7.86337 35.8417 7.94365 35.8536 7.93405C35.8654 7.92457 35.7912 7.83649 35.6886 7.73845L35.502 7.56001L35.667 7.75573ZM36.2223 8.44897C36.2925 8.55517 36.3607 8.63137 36.3736 8.61829C36.3976 8.59429 36.1578 8.25601 36.1168 8.25601C36.1046 8.25601 36.1521 8.34289 36.2223 8.44897ZM41.592 9.31441C41.5273 9.34381 41.5744 9.34861 41.736 9.32893C41.868 9.31285 41.985 9.29173 41.996 9.28189C42.038 9.24433 41.6833 9.27289 41.592 9.31441ZM4.21124 9.49021C4.08536 9.53221 3.99116 9.57529 4.00196 9.58597C4.0238 9.60781 4.51196 9.45529 4.51196 9.42649C4.51196 9.39685 4.45448 9.40909 4.21124 9.49021ZM4.5788 9.48397C4.59488 9.52573 4.60796 10.5517 4.60796 11.764C4.60796 12.9762 4.62416 13.968 4.64396 13.968C4.66376 13.968 4.6742 12.942 4.667 11.688C4.658 10.0852 4.63856 9.40801 4.60196 9.40801C4.57316 9.40801 4.56284 9.44221 4.5788 9.48397ZM10.8595 11.6481C10.8505 13.4056 10.8345 13.9174 10.788 13.9362C10.7409 13.9552 10.7413 13.9613 10.7895 13.9642C10.8946 13.9707 10.8973 13.905 10.884 11.616L10.871 9.38401L10.8595 11.6481ZM10.992 9.45385C11.0316 9.48061 11.1054 9.50293 11.156 9.50329C11.2788 9.50425 11.2405 9.47677 11.064 9.43729C10.9588 9.41377 10.9394 9.41821 10.992 9.45385ZM11.4669 9.60445C11.583 9.65593 11.6865 9.68941 11.697 9.67897C11.7177 9.65833 11.3478 9.50185 11.291 9.50737C11.2717 9.50929 11.3509 9.55297 11.4669 9.60445ZM11.8257 9.75553C11.8752 9.78877 12.0307 9.89161 12.1716 9.98401C12.3123 10.0764 12.542 10.2471 12.6818 10.3631C12.8655 10.5156 12.8894 10.528 12.768 10.4077C12.5269 10.1688 12.1608 9.89749 11.9328 9.78877C11.8245 9.73717 11.7764 9.72217 11.8257 9.75553ZM3.45596 9.84433C3.37628 9.90949 3.36824 9.92581 3.43196 9.89281C3.58856 9.81193 3.67532 9.74545 3.62396 9.74581C3.59756 9.74605 3.52196 9.79033 3.45596 9.84433ZM40.2591 9.86569C40.1606 9.93265 40.08 9.99781 40.08 10.0104C40.08 10.023 40.1664 9.97621 40.272 9.90637C40.4396 9.79537 40.4964 9.74401 40.4511 9.74401C40.444 9.74401 40.3576 9.79873 40.2591 9.86569ZM39.7184 10.332L39.432 10.632L39.732 10.3456C39.897 10.1879 40.032 10.0529 40.032 10.0456C40.032 10.0101 39.9846 10.0534 39.7184 10.332ZM2.68628 10.452L2.42396 10.728L2.71088 10.464C2.86868 10.3188 3.00728 10.1946 3.0188 10.188C3.03044 10.1814 3.0194 10.176 2.99432 10.176C2.96924 10.176 2.83064 10.3002 2.68628 10.452ZM37.086 10.56C37.125 10.8289 37.1522 10.8672 37.1512 10.6521C37.1509 10.5618 37.1289 10.4556 37.1025 10.416C37.069 10.3657 37.064 10.4091 37.086 10.56ZM13.0164 10.7457C13.0777 10.8214 13.1355 10.8769 13.1446 10.869C13.1707 10.8466 12.9889 10.6113 12.9444 10.6096C12.9225 10.6087 12.9549 10.6699 13.0164 10.7457ZM39.3357 10.7523C39.2877 10.8053 39.2599 10.8599 39.2738 10.8738C39.2876 10.8876 39.3348 10.8443 39.3786 10.7775C39.4742 10.6315 39.4551 10.6203 39.3357 10.7523ZM2.34524 10.836C2.20712 11.0027 2.14868 11.088 2.17244 11.088C2.18564 11.088 2.25428 11.0124 2.32472 10.92C2.45552 10.7485 2.47136 10.6839 2.34524 10.836ZM13.2567 11.064C13.2867 11.13 13.33 11.184 13.3527 11.184C13.3755 11.184 13.3588 11.13 13.3155 11.064C13.2723 10.998 13.2291 10.944 13.2195 10.944C13.2099 10.944 13.2266 10.998 13.2567 11.064ZM37.1738 11.7239L37.176 12.36L37.9297 12.3732C38.7198 12.387 38.8502 12.3492 38.769 12.1294C38.7573 12.0978 38.732 12.1314 38.7127 12.204L38.6775 12.336H37.9401H37.2027L37.1871 11.7119L37.1716 11.0879L37.1738 11.7239ZM1.94168 11.4765C1.89944 11.5582 1.8734 11.6334 1.88384 11.6439C1.89428 11.6543 1.93868 11.5875 1.9826 11.4954C2.08124 11.2884 2.04704 11.2726 1.94168 11.4765ZM1.78124 11.8613C1.75172 11.9461 1.73588 12.024 1.7462 12.0342C1.75652 12.0445 1.78904 11.9835 1.81868 11.8987C1.8482 11.8139 1.86404 11.736 1.85372 11.7258C1.8434 11.7155 1.81088 11.7766 1.78124 11.8613ZM38.8138 11.7858C38.7974 11.8288 38.7858 11.8999 38.788 11.944C38.7903 11.988 38.8112 11.9603 38.8345 11.8824C38.8797 11.731 38.8638 11.656 38.8138 11.7858ZM13.78 12.288C13.7815 12.3276 13.8013 12.4032 13.824 12.456L13.8652 12.552L13.8679 12.456C13.8693 12.4032 13.8495 12.3276 13.824 12.288C13.7826 12.2241 13.7778 12.2241 13.78 12.288ZM28.1547 12.4257C28.077 12.4423 28.2889 12.456 28.6255 12.456C28.9622 12.456 29.1878 12.442 29.1268 12.4248C28.9861 12.3852 28.3407 12.3857 28.1547 12.4257ZM1.59968 12.792C1.59992 12.9768 1.60856 13.0465 1.619 12.9469C1.62944 12.8473 1.6292 12.6961 1.61864 12.6109C1.60796 12.5257 1.59944 12.6072 1.59968 12.792ZM13.8927 13.944C13.8927 14.604 13.8996 14.8806 13.9078 14.5588C13.9161 14.2369 13.9161 13.6969 13.9078 13.3588C13.8996 13.0206 13.8928 13.284 13.8927 13.944ZM30.576 12.9557C30.642 13.0097 30.7176 13.054 30.744 13.0542C30.7953 13.0546 30.7086 12.9881 30.552 12.9072C30.4882 12.8742 30.4963 12.8905 30.576 12.9557ZM26.0874 13.3635C25.9074 13.5145 25.4047 14.112 25.4576 14.112C25.4708 14.112 25.5826 13.9835 25.706 13.8263C25.8295 13.6692 26.0288 13.464 26.149 13.3703C26.2693 13.2767 26.348 13.2005 26.3239 13.201C26.2998 13.2015 26.1933 13.2747 26.0874 13.3635ZM31.056 13.263C31.056 13.2713 31.1262 13.3415 31.212 13.419L31.368 13.56L31.227 13.404C31.0956 13.2586 31.056 13.2259 31.056 13.263ZM31.5609 13.788C31.664 13.9134 31.756 14.016 31.7654 14.016C31.7997 14.016 31.5913 13.7494 31.4839 13.656C31.4232 13.6032 31.4578 13.6626 31.5609 13.788ZM28.32 13.9153C28.2229 13.933 28.3646 13.9462 28.656 13.9467C29.0084 13.9473 29.1022 13.9369 28.968 13.9125C28.744 13.8718 28.5543 13.8725 28.32 13.9153ZM37.2 15.48V16.992H37.944H38.688V15.48V13.968H37.944H37.2V15.48ZM38.64 15.48V16.944H37.944H37.248V15.48V14.016H37.944H38.64V15.48ZM29.52 14.086C29.52 14.1076 29.8082 14.256 29.85 14.256C29.8916 14.256 29.6992 14.1321 29.604 14.0975C29.5578 14.0807 29.52 14.0755 29.52 14.086ZM27.2563 14.3485C27.0216 14.5167 26.592 14.9982 26.592 15.0933C26.592 15.1132 26.6878 15.0031 26.8051 14.8488C26.9223 14.6944 27.1383 14.4822 27.2851 14.3775C27.5311 14.2019 27.5793 14.16 27.5358 14.16C27.5269 14.16 27.4011 14.2449 27.2563 14.3485ZM25.2288 14.4528C25.1814 14.533 25.1533 14.6093 25.1662 14.6224C25.1793 14.6353 25.2247 14.5763 25.2672 14.4912C25.3671 14.2908 25.3404 14.2639 25.2288 14.4528ZM30.3103 14.64C30.4396 14.7852 30.5552 14.9148 30.5672 14.928C30.5792 14.9412 30.5661 14.9088 30.5383 14.856C30.5103 14.8032 30.3948 14.6736 30.2814 14.568C30.0781 14.3788 30.0786 14.3797 30.3103 14.64ZM1.59932 15.072C1.59932 15.2436 1.60808 15.3138 1.61864 15.228C1.62932 15.1422 1.62932 15.0018 1.61864 14.916C1.60808 14.8302 1.59932 14.9004 1.59932 15.072ZM32.2106 14.856C32.2099 14.8824 32.2405 14.9904 32.2785 15.096C32.3166 15.2016 32.3487 15.2527 32.3498 15.2095C32.351 15.1663 32.3204 15.0583 32.2819 14.9695C32.2432 14.8807 32.2112 14.8296 32.2106 14.856ZM13.806 15.462C13.766 15.6621 13.8048 15.7008 13.848 15.504C13.8662 15.4211 13.8711 15.3431 13.8589 15.331C13.8466 15.3187 13.8229 15.3777 13.806 15.462ZM1.66292 15.576C1.679 15.6816 1.71068 15.8004 1.73324 15.84C1.78292 15.9271 1.73204 15.6205 1.67348 15.48C1.64828 15.4194 1.64432 15.4549 1.66292 15.576ZM32.4111 15.6C32.4111 15.6924 32.421 15.7302 32.4331 15.684C32.4451 15.6378 32.4451 15.5622 32.4331 15.516C32.421 15.4698 32.4111 15.5076 32.4111 15.6ZM24.7918 15.996C24.7741 16.1874 24.7783 16.4736 24.8013 16.632C24.8379 16.8841 24.8434 16.8408 24.8461 16.284C24.8496 15.561 24.8379 15.4995 24.7918 15.996ZM26.317 15.936C26.317 16.0548 26.3264 16.1034 26.3378 16.044C26.3493 15.9846 26.3493 15.8874 26.3378 15.828C26.3264 15.7686 26.317 15.8172 26.317 15.936ZM32.4601 15.96C32.4606 16.0656 32.4704 16.1032 32.4819 16.0434C32.4934 15.9838 32.493 15.8974 32.481 15.8514C32.469 15.8056 32.4595 15.8544 32.4601 15.96ZM1.77596 15.9701C1.77596 16.0381 1.91552 16.368 1.9442 16.368C1.9568 16.368 1.93148 16.2762 1.8878 16.164C1.79936 15.9369 1.77596 15.8963 1.77596 15.9701ZM30.9736 16.248C30.974 16.38 30.9834 16.4284 30.9944 16.3554C31.0054 16.2823 31.0052 16.1743 30.9938 16.1154C30.9824 16.0564 30.9733 16.116 30.9736 16.248ZM26.3085 16.56C26.3068 16.6788 26.3244 16.8059 26.3475 16.8425C26.3734 16.8834 26.3809 16.819 26.3668 16.6745C26.3352 16.3494 26.3121 16.3041 26.3085 16.56ZM32.427 16.707C32.4084 16.8953 32.4032 17.0593 32.4154 17.0715C32.4277 17.0837 32.4531 16.9399 32.472 16.752C32.4908 16.5641 32.496 16.4001 32.4835 16.3876C32.471 16.375 32.4456 16.5187 32.427 16.707ZM30.9175 16.7361C30.9145 16.7669 30.898 16.8317 30.8809 16.8801C30.8568 16.9483 30.8632 16.9557 30.9094 16.9131C30.9422 16.8829 30.9586 16.8181 30.946 16.7691C30.9334 16.7201 30.9206 16.7052 30.9175 16.7361ZM26.4038 16.9805C26.399 17.0563 26.5886 17.4642 26.6448 17.499C26.6676 17.5131 26.6354 17.421 26.573 17.2943C26.5107 17.1677 26.448 17.0316 26.4337 16.992C26.4175 16.9475 26.4061 16.9431 26.4038 16.9805ZM24.868 17.088C24.8695 17.1276 24.8893 17.2032 24.912 17.256L24.9532 17.352L24.9559 17.256C24.9573 17.2032 24.9375 17.1276 24.912 17.088C24.8706 17.0241 24.8658 17.0241 24.868 17.088ZM32.3338 17.2098C32.3174 17.2528 32.3058 17.3239 32.308 17.368C32.3103 17.412 32.3312 17.3843 32.3545 17.3064C32.3997 17.155 32.3838 17.08 32.3338 17.2098ZM2.58704 17.3424C2.66468 17.4401 3.11996 17.8275 3.11996 17.7957C3.11996 17.784 2.98496 17.6581 2.81996 17.5162C2.65496 17.3741 2.5502 17.2959 2.58704 17.3424ZM26.7718 17.688C26.8264 17.7672 26.9427 17.8968 27.0302 17.976C27.1476 18.0825 27.1342 18.0574 26.9791 17.88C26.6959 17.5563 26.6544 17.5179 26.7718 17.688ZM32.0882 17.8975C32.0091 18.0727 31.8427 18.351 31.7181 18.516C31.5937 18.681 31.5072 18.8157 31.5259 18.8153C31.6294 18.813 32.2863 17.7215 32.2466 17.6175C32.2386 17.5963 32.1673 17.7225 32.0882 17.8975ZM30.264 17.9136C30.1056 18.0772 30.0516 18.1503 30.144 18.076C30.2943 17.955 30.6066 17.6159 30.5674 17.6161C30.5589 17.6161 30.4224 17.7501 30.264 17.9136ZM12.2176 17.8615C11.9655 18.0511 11.9419 18.0825 12.1352 17.9715C12.2714 17.8932 12.4856 17.7054 12.4274 17.7153C12.4167 17.7171 12.3223 17.7829 12.2176 17.8615ZM3.45596 18.0235C3.45596 18.0564 3.74984 18.2021 3.7718 18.1801C3.78224 18.1697 3.7154 18.1253 3.62336 18.0814C3.53132 18.0375 3.45596 18.0114 3.45596 18.0235ZM25.3251 18.2316C25.375 18.3195 25.4763 18.4599 25.55 18.5436C25.6468 18.6538 25.6345 18.6228 25.5055 18.432C25.2885 18.1111 25.2018 18.0148 25.3251 18.2316ZM3.86828 18.2371C3.92312 18.2892 4.3742 18.4417 4.39916 18.4168C4.40936 18.4066 4.2842 18.3527 4.12112 18.297C3.95792 18.2413 3.84416 18.2145 3.86828 18.2371ZM10.656 18.48C10.4947 18.5317 10.6689 18.5317 10.872 18.48C11.0013 18.4471 11.0037 18.4433 10.896 18.4425C10.83 18.442 10.722 18.4589 10.656 18.48ZM27.984 18.528C28.0236 18.5536 28.0884 18.5746 28.128 18.5746C28.1919 18.5746 28.1919 18.5694 28.128 18.528C28.0884 18.5025 28.0236 18.4815 27.984 18.4815C27.92 18.4815 27.92 18.4866 27.984 18.528ZM5.294 18.5637C5.47328 18.5729 5.75408 18.5729 5.918 18.5635C6.0818 18.5542 5.93516 18.5466 5.59196 18.5466C5.24876 18.5467 5.1146 18.5544 5.294 18.5637ZM9.29516 18.564C9.28292 18.5838 9.4598 18.5943 9.6884 18.5872C10.4553 18.5634 10.5405 18.5454 9.92684 18.5367C9.5918 18.5319 9.30752 18.5442 9.29516 18.564ZM28.5486 18.61C28.6082 18.6215 28.6946 18.621 28.7406 18.609C28.7864 18.597 28.7376 18.5875 28.632 18.5881C28.5264 18.5886 28.4888 18.5985 28.5486 18.61ZM6.21572 24.792L6.21596 30.936L7.73996 30.9371L9.26396 30.938L7.7522 30.9244L6.24032 30.9107L6.22784 24.7793L6.21536 18.648L6.21572 24.792ZM36.2269 18.6701C36.1274 18.6894 35.9918 18.756 35.9257 18.8182C35.6484 19.0787 35.664 18.7062 35.664 25.0633V30.912H37.92H40.176V24.984V19.056L39.9915 18.8716C39.8472 18.7272 39.757 18.6803 39.5768 18.6556C39.2691 18.6135 36.4566 18.6257 36.2269 18.6701ZM25.9303 18.9838C26.0811 19.1398 26.2114 19.2577 26.22 19.2457C26.2285 19.2339 26.1051 19.1061 25.9458 18.9621L25.656 18.7L25.9303 18.9838ZM31.0413 19.2281C30.9672 19.2918 30.924 19.3433 30.9453 19.3425C30.9985 19.3402 31.2181 19.1541 31.1948 19.1309C31.1844 19.1206 31.1154 19.1644 31.0413 19.2281ZM30.636 19.5151C30.4094 19.651 30.3572 19.7219 30.564 19.6129C30.709 19.5364 30.9019 19.3957 30.864 19.3941C30.8508 19.3935 30.7482 19.4479 30.636 19.5151ZM29.3877 25.5L29.376 30.912H28.6562H27.9363L27.9238 25.536L27.9114 20.16L27.9116 25.548L27.912 30.936L28.645 30.9492C29.2051 30.9594 29.3835 30.948 29.4014 30.9012C29.4141 30.8676 29.419 28.4208 29.4121 25.464L29.3996 20.088L29.3877 25.5ZM17.1832 21.7829C16.9652 21.9594 17.0295 22.0919 17.6211 22.6853L18.1664 23.232H19.3664H20.5663L21.1071 22.6861C21.6969 22.0909 21.772 21.9324 21.5413 21.7708C21.366 21.6479 17.3361 21.6592 17.1832 21.7829ZM17.88 24.8746C17.4546 25.1803 16.8876 26.16 17.136 26.16C17.1624 26.16 17.184 26.0844 17.184 25.992C17.184 25.8996 17.2056 25.824 17.232 25.824C17.2584 25.824 17.28 25.7914 17.28 25.7514C17.28 25.677 17.3623 25.5111 17.448 25.4127C17.9654 24.8184 17.8057 24.864 19.3695 24.864H20.738L20.9979 25.1239C21.5846 25.7106 21.6 25.7993 21.6 28.6104V30.912H19.3444H17.0889L17.0757 28.572L17.0625 26.232L17.0632 28.584L17.064 30.936L19.356 30.9485L21.648 30.961V28.5383C21.648 25.6782 21.6519 25.7019 21.0764 25.0881C20.7741 24.7656 20.7864 24.7679 19.3344 24.7696C18.07 24.771 18.0189 24.7747 17.88 24.8746ZM2.21648 27.8808C2.15516 27.898 2.66276 27.912 3.34448 27.912H4.58396L4.59668 29.412L4.60928 30.912H3.09752H1.58564L1.57148 29.736L1.55744 28.56L1.55864 29.748L1.55996 30.936H3.09596H4.63196L4.64468 29.4538C4.65368 28.4001 4.64156 27.9526 4.6028 27.9058C4.54484 27.8359 2.45468 27.8141 2.21648 27.8808ZM10.8698 27.9005C10.857 27.9337 10.8523 28.6303 10.8592 29.4485L10.872 30.936L13.152 30.9367L15.432 30.9375L13.164 30.9243L10.896 30.9111V29.3986V27.8862L13.1714 27.8991C14.4229 27.9063 15.4368 27.8958 15.4245 27.876C15.3828 27.8085 10.8958 27.8326 10.8698 27.9005ZM23.2538 27.9005C23.241 27.9337 23.2363 28.6303 23.2432 29.4485L23.256 30.936H24.792H26.328L26.3407 29.4538C26.3497 28.4001 26.3376 27.9526 26.2988 27.9058C26.2219 27.8131 23.2892 27.8081 23.2538 27.9005ZM31.0192 27.88C30.972 27.91 30.9614 28.2522 30.9712 29.4273L30.984 30.936H32.52H34.056L34.057 29.448L34.0581 27.96L34.0443 29.436L34.0305 30.912H32.5186H31.0066L31.0192 29.412L31.032 27.912H32.5274C33.3499 27.912 34.0128 27.8958 34.0005 27.876C33.9705 27.8274 31.096 27.8313 31.0192 27.88ZM41.84 27.8721C41.8224 27.8896 41.808 28.5918 41.808 29.4325V30.961L44.124 30.9485L46.44 30.936L46.4413 29.748L46.4425 28.56L46.4284 29.736L46.4143 30.912H44.1351H41.856V29.3976V27.8831L43.8753 27.8976C44.9859 27.9055 45.8445 27.898 45.7833 27.8808C45.6354 27.8393 41.881 27.8309 41.84 27.8721ZM26.2464 27.9456C26.2886 27.9879 26.304 28.3905 26.304 29.4576V30.912H24.792H23.28V29.4V27.888H24.7344C25.8015 27.888 26.2041 27.9034 26.2464 27.9456ZM1.76852 28.1301C1.65944 28.2447 1.58624 28.3674 1.58948 28.4301C1.59452 28.5253 1.59752 28.5265 1.619 28.4421C1.6586 28.2858 1.78748 28.1196 1.94192 28.0254C2.0222 27.9765 2.0576 27.9363 2.02052 27.9361C1.98344 27.9361 1.87004 28.0234 1.76852 28.1301ZM46.058 28.0254C46.2124 28.1196 46.3413 28.2858 46.3809 28.4421C46.4024 28.5265 46.4054 28.5253 46.4104 28.4301C46.4166 28.3121 46.0884 27.9359 45.9794 27.9361C45.9423 27.9363 45.9777 27.9765 46.058 28.0254ZM1.568 32.5761C1.52372 32.6203 1.52744 33.9731 1.57196 34.0006C1.59176 34.0128 1.60796 33.6901 1.60796 33.2835C1.60796 32.8768 1.60616 32.544 1.604 32.544C1.60172 32.544 1.58552 32.5584 1.568 32.5761ZM16.968 33.288C16.968 33.6972 16.9842 34.032 17.004 34.032C17.0238 34.032 17.04 33.6972 17.04 33.288C17.04 32.8788 17.0238 32.544 17.004 32.544C16.9842 32.544 16.968 32.8788 16.968 33.288ZM18.608 32.5761C18.5466 32.6375 18.571 35.4959 18.6336 35.5584C18.7172 35.6421 29.2827 35.6421 29.3664 35.5584C29.4314 35.4934 29.4523 32.6152 29.388 32.5755C29.3682 32.5632 29.352 33.2261 29.352 34.0486V35.544H24H18.648V34.044C18.648 33.219 18.6462 32.544 18.644 32.544C18.6417 32.544 18.6255 32.5584 18.608 32.5761ZM30.96 33.288C30.96 33.6972 30.9762 34.032 30.996 34.032C31.0158 34.032 31.032 33.6972 31.032 33.288C31.032 32.8788 31.0158 32.544 30.996 32.544C30.9762 32.544 30.96 32.8788 30.96 33.288ZM46.392 33.288C46.392 33.6922 46.4082 34.0128 46.428 34.0006C46.4478 33.9883 46.464 33.6677 46.464 33.288C46.464 32.9083 46.4478 32.5877 46.428 32.5755C46.4082 32.5632 46.392 32.8839 46.392 33.288ZM5.09996 35.652C7.02056 35.659 10.1634 35.659 12.084 35.652C14.0046 35.6451 12.4332 35.6394 8.59196 35.6394C4.75076 35.6394 3.17936 35.6451 5.09996 35.652ZM35.916 35.652C37.8366 35.659 40.9794 35.659 42.9 35.652C44.8206 35.6451 43.2492 35.6394 39.408 35.6394C35.5668 35.6394 33.9954 35.6451 35.916 35.652ZM17.0601 37.224C17.0601 37.752 17.0671 37.9746 17.0757 37.7185C17.0844 37.4626 17.0844 37.0306 17.0758 36.7585C17.0672 36.4866 17.0601 36.696 17.0601 37.224ZM30.9321 37.224C30.9321 37.752 30.9391 37.9746 30.9477 37.7185C30.9564 37.4626 30.9564 37.0306 30.9478 36.7585C30.9392 36.4866 30.9321 36.696 30.9321 37.224ZM17.328 36.591C17.328 36.5993 17.3982 36.6695 17.484 36.747L17.64 36.888L17.499 36.732C17.3676 36.5866 17.328 36.5539 17.328 36.591ZM21.204 37.188C22.7418 37.1951 25.2582 37.1951 26.796 37.188C28.3338 37.1809 27.0756 37.1752 24 37.1752C20.9244 37.1752 19.6662 37.1809 21.204 37.188ZM21.636 41.844C22.9362 41.8511 25.0638 41.8511 26.364 41.844C27.6642 41.8369 26.6004 41.8311 24 41.8311C21.3996 41.8311 20.3358 41.8369 21.636 41.844Z" fill="#89975B"></path><path fill-rule="evenodd" clip-rule="evenodd" d="M36.0587 18.6777C35.9246 18.744 35.8122 18.8497 35.7345 18.9822L35.6156 19.1851L35.6277 25.0606L35.64 30.936L37.932 30.9485L40.224 30.961V25.0279V19.0948L40.1178 18.9435C40.007 18.7855 39.8895 18.6761 39.828 18.6736C39.8082 18.6727 39.8784 18.7584 39.984 18.864L40.176 19.056V24.984V30.912H37.92H35.664V25.0633C35.664 18.6331 35.6443 19.0583 35.9534 18.7983C36.1496 18.6331 36.4218 18.6131 38.2155 18.6321C39.0512 18.6408 39.71 18.6322 39.6795 18.6127C39.5253 18.5148 36.2697 18.5733 36.0587 18.6777ZM15.456 29.3904L15.4799 30.936L15.4926 29.4271C15.4997 28.5972 15.4889 27.9017 15.4687 27.8814C15.4485 27.8613 15.4428 28.5402 15.456 29.3904ZM10.8103 29.4331C10.8045 30.2434 10.8162 30.9163 10.836 30.9287C10.8558 30.9409 10.8665 30.5157 10.8597 29.9835C10.8363 28.143 10.8205 27.9661 10.8103 29.4331ZM1.56742 32.532C1.54726 32.5645 6.84502 32.5644 14.232 32.5315C15.7632 32.5248 13.5451 32.514 9.30286 32.5077C5.06062 32.5013 1.57966 32.5122 1.56742 32.532ZM21.324 32.532C22.7958 32.5391 25.2042 32.5391 26.676 32.532C28.1478 32.5249 26.9436 32.5192 24 32.5192C21.0564 32.5192 19.8522 32.5249 21.324 32.532ZM33.768 32.5315C41.1549 32.5644 46.4527 32.5645 46.4325 32.532C46.4203 32.5122 42.9393 32.5013 38.6971 32.5077C34.4549 32.514 32.2368 32.5248 33.768 32.5315ZM1.5769 34.0441C1.59682 34.0641 5.07874 34.0749 9.3145 34.0681L17.016 34.056L9.27838 34.032C5.0227 34.0188 1.5571 34.0243 1.5769 34.0441ZM38.712 34.032L30.984 34.0565L38.6971 34.0683C43.8002 34.0761 46.4203 34.0638 46.44 34.032C46.4563 34.0056 46.463 33.9893 46.4549 33.9958C46.4467 34.0023 42.9624 34.0186 38.712 34.032ZM1.54726 40.044C1.5535 42.4794 1.5643 43.7592 1.57126 42.888C1.60426 38.7375 1.60462 35.616 1.57198 35.616C1.55218 35.616 1.54102 37.6086 1.54726 40.044ZM46.4041 38.46C46.4107 40.0242 46.4217 42.0168 46.4287 42.888C46.4357 43.7592 46.4465 42.4794 46.4527 40.044C46.4589 37.6086 46.4478 35.616 46.428 35.616C46.4082 35.616 46.3974 36.8958 46.4041 38.46ZM32.4851 36.9205C32.4923 37.4835 32.5047 38.0304 32.5127 38.136C32.5207 38.2416 32.5289 37.8312 32.5308 37.224C32.5328 36.6168 32.5203 36.0699 32.5032 36.0085C32.486 35.9472 32.4779 36.3576 32.4851 36.9205ZM15.4766 37.2C15.4766 37.8204 15.4835 38.0742 15.4919 37.764C15.5001 37.4538 15.5001 36.9462 15.4919 36.636C15.4835 36.3258 15.4766 36.5796 15.4766 37.2ZM17.472 36.696C17.5615 36.7884 17.6456 36.864 17.6588 36.864C17.672 36.864 17.6095 36.7884 17.52 36.696C17.4305 36.6036 17.3463 36.528 17.3331 36.528C17.3199 36.528 17.3825 36.6036 17.472 36.696ZM30.4773 36.708L30.312 36.888L30.492 36.7227C30.591 36.6316 30.672 36.5506 30.672 36.5427C30.672 36.5059 30.6314 36.5405 30.4773 36.708ZM18.2766 37.138C18.3362 37.1495 18.4226 37.149 18.4686 37.137C18.5144 37.125 18.4656 37.1155 18.36 37.1161C18.2544 37.1166 18.2168 37.1265 18.2766 37.138ZM29.5566 37.138C29.6162 37.1495 29.7026 37.149 29.7486 37.137C29.7944 37.125 29.7456 37.1155 29.64 37.1161C29.5344 37.1166 29.4968 37.1265 29.5566 37.138ZM17.0511 38.304C17.0511 38.3964 17.061 38.4342 17.0731 38.388C17.0851 38.3418 17.0851 38.2662 17.0731 38.22C17.061 38.1738 17.0511 38.2116 17.0511 38.304ZM30.9231 38.304C30.9231 38.3964 30.933 38.4342 30.9451 38.388C30.9571 38.3418 30.9571 38.2662 30.9451 38.22C30.933 38.1738 30.9231 38.2116 30.9231 38.304ZM15.5527 38.764C15.5531 38.8146 15.5754 38.8884 15.6021 38.928C15.6378 38.9806 15.6422 38.9611 15.6187 38.856C15.5792 38.6795 15.5517 38.6412 15.5527 38.764ZM17.3285 39.1043C17.3287 39.1261 17.4043 39.2388 17.4965 39.3547C17.7147 39.6294 17.7144 39.5709 17.496 39.2848C17.4036 39.1637 17.3282 39.0826 17.3285 39.1043ZM30.4889 39.2999C30.4014 39.4176 30.3366 39.5203 30.3449 39.5284C30.3533 39.5363 30.4332 39.447 30.5226 39.33C30.6121 39.213 30.6769 39.1103 30.6666 39.1017C30.6564 39.093 30.5765 39.1823 30.4889 39.2999ZM21.516 40.26C22.8822 40.2671 25.1178 40.2671 26.484 40.26C27.8502 40.2529 26.7324 40.2472 24 40.2472C21.2676 40.2472 20.1498 40.2529 21.516 40.26ZM16.6183 40.6801C16.7427 40.8095 16.8519 40.9056 16.8608 40.8937C16.8697 40.8817 16.7679 40.7759 16.6345 40.6584L16.392 40.4448L16.6183 40.6801ZM31.3347 40.6811C31.2109 40.7993 31.1255 40.896 31.1448 40.896C31.1641 40.896 31.2753 40.7988 31.392 40.68C31.6652 40.4016 31.6269 40.4023 31.3347 40.6811ZM17.0513 41.0508C17.1938 41.172 17.472 41.3457 17.472 41.3135C17.472 41.3026 17.3478 41.2139 17.196 41.1165C17.0442 41.019 16.979 40.9895 17.0513 41.0508ZM30.8024 41.1082C30.5191 41.3043 30.4517 41.373 30.6607 41.2527C30.822 41.1599 31.0987 40.9468 31.056 40.9483C31.0428 40.9489 30.9287 41.0208 30.8024 41.1082ZM18.264 41.664C18.3168 41.6867 18.3924 41.7053 18.432 41.7053C18.4773 41.7053 18.4685 41.6901 18.408 41.664C18.3552 41.6413 18.2796 41.6227 18.24 41.6227C18.1946 41.6227 18.2035 41.638 18.264 41.664ZM29.592 41.664C29.5315 41.6901 29.5226 41.7053 29.568 41.7053C29.6076 41.7053 29.6832 41.6867 29.736 41.664C29.7965 41.638 29.8053 41.6227 29.76 41.6227C29.7204 41.6227 29.6448 41.6413 29.592 41.664ZM18.696 41.76C18.7752 41.7802 18.9048 41.7967 18.984 41.7969C19.1051 41.797 19.0974 41.7906 18.936 41.7573C18.6929 41.707 18.4964 41.7093 18.696 41.76ZM29.04 41.76C28.878 41.7941 28.8771 41.7954 29.016 41.796C29.0952 41.7964 29.2248 41.7802 29.304 41.76C29.5032 41.7094 29.2808 41.7094 29.04 41.76ZM1.85458 45.3118C1.95778 45.5283 2.47174 46.0422 2.68822 46.1454C2.7805 46.1893 2.8153 46.1981 2.76562 46.1647C2.3617 45.8937 2.1205 45.6521 1.83526 45.2332C1.8019 45.1841 1.81066 45.2195 1.85458 45.3118ZM46.0382 45.4055C45.8753 45.657 45.5201 45.996 45.3 46.11C45.2274 46.1477 45.168 46.1893 45.168 46.2025C45.168 46.3535 46.0001 45.6059 46.1459 45.3238C46.2636 45.0961 46.2146 45.1335 46.0382 45.4055ZM13.788 46.452C19.4046 46.4587 28.5954 46.4587 34.212 46.452C39.8286 46.4453 35.2332 46.4398 24 46.4398C12.7668 46.4398 8.17138 46.4453 13.788 46.452Z" fill="#6C5A25"></path><path fill-rule="evenodd" clip-rule="evenodd" d="M19.0178 1.52352C19.1949 1.53276 19.4973 1.53276 19.6898 1.52364C19.8824 1.51452 19.7376 1.50696 19.368 1.50696C18.9984 1.50684 18.8408 1.51428 19.0178 1.52352ZM18.5483 2.616C18.5484 3.1704 18.5553 3.3906 18.5639 3.10536C18.5724 2.82012 18.5723 2.36652 18.5637 2.09736C18.5552 1.8282 18.5483 2.0616 18.5483 2.616ZM46.464 6.9264L46.488 10.776L46.5002 6.96264C46.5071 4.8654 46.4963 3.13308 46.4762 3.11304C46.4563 3.09312 46.4508 4.80912 46.464 6.9264ZM19.14 4.69116C19.2522 4.70124 19.4358 4.70124 19.548 4.69116C19.6602 4.68108 19.5684 4.6728 19.344 4.6728C19.1196 4.6728 19.0278 4.68108 19.14 4.69116ZM18.5513 13.632C18.5513 17.1564 18.557 18.5982 18.564 16.836C18.5709 15.0738 18.5709 12.1902 18.564 10.428C18.557 8.6658 18.5513 10.1076 18.5513 13.632ZM4.65598 11.6064L4.67998 13.848L4.69246 11.6429C4.6993 10.43 4.6885 9.42132 4.66846 9.40128C4.64842 9.38124 4.64278 10.3735 4.65598 11.6064ZM37.122 11.832C37.1221 12.1224 37.1299 12.235 37.1395 12.0822C37.1491 11.9294 37.149 11.6918 37.1393 11.5542C37.1297 11.4166 37.1219 11.5416 37.122 11.832ZM1.50766 13.944C1.50754 14.3928 1.51474 14.5829 1.52362 14.3664C1.5325 14.1498 1.53262 13.7826 1.52374 13.5504C1.51498 13.3181 1.50766 13.4952 1.50766 13.944ZM24.7311 16.272C24.7311 16.3644 24.741 16.4022 24.7531 16.356C24.7651 16.3098 24.7651 16.2342 24.7531 16.188C24.741 16.1418 24.7311 16.1796 24.7311 16.272ZM28.5486 18.562C28.6082 18.5735 28.6946 18.573 28.7406 18.561C28.7864 18.549 28.7376 18.5395 28.632 18.5401C28.5264 18.5406 28.4888 18.5504 28.5486 18.562ZM40.2473 25.056C40.2473 28.29 40.253 29.613 40.26 27.996C40.2669 26.379 40.2669 23.733 40.26 22.116C40.253 20.499 40.2473 21.822 40.2473 25.056ZM29.4471 25.536C29.4471 28.506 29.4529 29.721 29.46 28.236C29.4671 26.751 29.4671 24.321 29.46 22.836C29.4529 21.351 29.4471 22.566 29.4471 25.536ZM21.0951 22.716L20.568 23.256L21.108 22.7288C21.405 22.4389 21.648 22.1959 21.648 22.1888C21.648 22.1542 21.5849 22.2144 21.0951 22.716ZM18.7109 24.7559C19.0887 24.764 19.6935 24.764 20.0549 24.7559C20.4163 24.7477 20.1072 24.7411 19.368 24.7411C18.6288 24.7411 18.3331 24.7478 18.7109 24.7559ZM17.0142 28.704C17.0142 29.9316 17.0203 30.4338 17.028 29.82C17.0355 29.2062 17.0355 28.2018 17.028 27.588C17.0203 26.9742 17.0142 27.4764 17.0142 28.704ZM4.65598 29.3904L4.67986 30.936L4.69258 29.4271C4.69966 28.5972 4.68886 27.9017 4.6687 27.8814C4.64854 27.8612 4.64278 28.5402 4.65598 29.3904ZM30.9338 27.9005C30.921 27.9337 30.9163 28.6303 30.9234 29.4485L30.9361 30.936L30.96 29.388C30.9732 28.5366 30.9779 27.84 30.9704 27.84C30.9631 27.84 30.9465 27.8672 30.9338 27.9005ZM23.2053 29.424C23.2053 30.2556 23.2119 30.5958 23.2199 30.18C23.2279 29.7642 23.2279 29.0838 23.2199 28.668C23.2119 28.2522 23.2053 28.5924 23.2053 29.424ZM34.0796 29.424L34.056 30.936L32.52 30.961L30.984 30.986L32.5021 30.997C33.7391 31.006 34.0303 30.9959 34.0748 30.9422C34.1136 30.8954 34.1256 30.4484 34.1163 29.3942L34.1033 27.912L34.0796 29.424ZM41.7813 29.448C41.7813 30.2664 41.7878 30.6079 41.7959 30.207C41.8039 29.8061 41.8039 29.1365 41.7959 28.719C41.7879 28.3015 41.7813 28.6296 41.7813 29.448ZM1.50874 29.736C1.50874 30.396 1.51558 30.6726 1.52386 30.3508C1.53214 30.0289 1.53214 29.4889 1.52386 29.1508C1.51558 28.8126 1.50886 29.076 1.50874 29.736ZM46.4847 29.736C46.4847 30.396 46.4916 30.6726 46.4999 30.3508C46.5081 30.0289 46.5081 29.4889 46.4999 29.1508C46.4916 28.8126 46.4849 29.076 46.4847 29.736ZM7.75198 30.96L6.21598 30.986L7.7371 30.997C8.7115 31.004 9.26902 30.9907 9.28798 30.96C9.3043 30.9336 9.31102 30.9169 9.30286 30.923C9.2947 30.929 8.59678 30.9457 7.75198 30.96ZM13.176 30.96L10.872 30.9854L13.1611 30.9967C14.6478 31.004 15.4607 30.9912 15.48 30.96C15.4963 30.9336 15.503 30.917 15.4949 30.9233C15.4867 30.9295 14.4432 30.9461 13.176 30.96ZM24.792 30.96L23.256 30.986L24.7771 30.997C25.7515 31.004 26.309 30.9907 26.328 30.96C26.3443 30.9336 26.351 30.9169 26.3429 30.923C26.3347 30.929 25.6368 30.9457 24.792 30.96ZM2.34298 30.9959C2.77366 31.0039 3.46486 31.0039 3.87898 30.9959C4.2931 30.988 3.94078 30.9814 3.09598 30.9814C2.25118 30.9815 1.9123 30.988 2.34298 30.9959ZM18.204 30.996C18.831 31.0036 19.857 31.0036 20.484 30.996C21.111 30.9883 20.598 30.9822 19.344 30.9822C18.09 30.9822 17.577 30.9883 18.204 30.996ZM28.284 30.9956C28.4886 31.0046 28.8234 31.0046 29.028 30.9956C29.2326 30.9866 29.0652 30.9793 28.656 30.9793C28.2468 30.9793 28.0794 30.9866 28.284 30.9956ZM42.948 30.996C43.5882 31.0036 44.6358 31.0036 45.276 30.996C45.9162 30.9884 45.3924 30.9822 44.112 30.9822C42.8316 30.9822 42.3078 30.9884 42.948 30.996ZM1.52002 32.528C1.47562 32.5723 1.47946 34.0211 1.52398 34.0486C1.54378 34.0608 1.55998 33.7165 1.55998 33.2834C1.55998 32.8504 1.55818 32.496 1.55602 32.496C1.55374 32.496 1.53754 32.5104 1.52002 32.528ZM17.016 33.288C17.016 33.7186 17.0322 34.0608 17.052 34.0486C17.0718 34.0363 17.088 33.6941 17.088 33.288C17.088 32.8819 17.0718 32.5397 17.052 32.5274C17.0322 32.5152 17.016 32.8574 17.016 33.288ZM18.5498 32.5565C18.537 32.5897 18.5327 33.2863 18.54 34.1045L18.5534 35.592L18.5647 34.072C18.5733 32.9095 18.5901 32.5463 18.636 32.5278C18.683 32.5088 18.6827 32.5027 18.6344 32.4998C18.6007 32.4977 18.5625 32.5232 18.5498 32.5565ZM29.3633 32.5308C29.4077 32.5622 29.426 32.952 29.4363 34.0824L29.4501 35.592L29.4491 34.06C29.4481 32.7395 29.438 32.5253 29.376 32.5084C29.3234 32.494 29.3199 32.5001 29.3633 32.5308ZM30.944 32.528C30.8996 32.5723 30.9035 34.0211 30.948 34.0486C30.9678 34.0608 30.984 33.7165 30.984 33.2834C30.984 32.8504 30.9822 32.496 30.98 32.496C30.9777 32.496 30.9615 32.5104 30.944 32.528ZM46.44 33.288C46.44 33.7186 46.4562 34.0608 46.476 34.0486C46.4958 34.0363 46.512 33.6941 46.512 33.288C46.512 32.8819 46.4958 32.5397 46.476 32.5274C46.4562 32.5152 46.44 32.8574 46.44 33.288ZM5.07226 35.604C6.9775 35.611 10.1095 35.611 12.0323 35.604C13.9549 35.597 12.396 35.5914 8.56798 35.5914C4.73998 35.5914 3.1669 35.597 5.07226 35.604ZM35.9363 35.604C37.8415 35.611 40.9735 35.611 42.8963 35.604C44.8189 35.597 43.26 35.5914 39.432 35.5914C35.604 35.5914 34.0309 35.597 35.9363 35.604ZM21.324 35.652C22.7958 35.6591 25.2042 35.6591 26.676 35.652C28.1478 35.6449 26.9436 35.6392 24 35.6392C21.0564 35.6392 19.8522 35.6449 21.324 35.652ZM1.51102 39.984C1.51102 42.3732 1.51678 43.3506 1.52398 42.156C1.53106 40.9614 1.53106 39.0066 1.52398 37.812C1.51678 36.6174 1.51102 37.5948 1.51102 39.984ZM46.487 39.984C46.487 42.3732 46.4928 43.3506 46.5 42.156C46.5071 40.9614 46.5071 39.0066 46.5 37.812C46.4928 36.6174 46.487 37.5948 46.487 39.984ZM17.012 37.224C17.012 37.7256 17.0191 37.9243 17.0277 37.6655C17.0365 37.4068 17.0364 36.9964 17.0277 36.7535C17.019 36.5107 17.0119 36.7224 17.012 37.224ZM30.9799 37.2C30.9799 37.6884 30.987 37.8882 30.9957 37.644C31.0045 37.3998 31.0045 37.0002 30.9957 36.756C30.987 36.5118 30.9799 36.7116 30.9799 37.2ZM21.252 37.14C22.7634 37.1471 25.2366 37.1471 26.748 37.14C28.2594 37.1329 27.0228 37.1272 24 37.1272C20.9772 37.1272 19.7406 37.1329 21.252 37.14ZM21.612 40.308C22.9254 40.3151 25.0746 40.3151 26.388 40.308C27.7014 40.3009 26.6268 40.295 24 40.295C21.3732 40.295 20.2986 40.3009 21.612 40.308ZM21.54 41.796C22.893 41.8031 25.107 41.8031 26.46 41.796C27.813 41.7889 26.706 41.7832 24 41.7832C21.294 41.7832 20.187 41.7889 21.54 41.796ZM13.836 46.5C19.4262 46.5067 28.5738 46.5067 34.164 46.5C39.7542 46.4933 35.1804 46.4878 24 46.4878C12.8196 46.4878 8.24578 46.4933 13.836 46.5Z" fill="#4B4530"></path><path fill-rule="evenodd" clip-rule="evenodd" d="M18.9983 1.57177C19.2173 1.58065 19.5629 1.58065 19.7663 1.57165C19.9697 1.56265 19.7904 1.55533 19.368 1.55545C18.9456 1.55545 18.7793 1.56289 18.9983 1.57177ZM20.1324 2.66401C20.1325 3.24481 20.1395 3.47581 20.1479 3.17737C20.1563 2.87893 20.1563 2.40373 20.1478 2.12137C20.1394 1.83901 20.1324 2.08321 20.1324 2.66401ZM44.9029 6.96001C44.9029 9.08521 44.9088 9.95461 44.916 8.89201C44.9232 7.82941 44.9232 6.09061 44.916 5.02801C44.9088 3.96541 44.9029 4.83481 44.9029 6.96001ZM36.2316 4.64401C37.4282 4.65109 39.3722 4.65109 40.5516 4.64401C41.7311 4.63681 40.752 4.63105 38.376 4.63105C36 4.63105 35.0351 4.63681 36.2316 4.64401ZM33.324 4.68913C33.3702 4.70113 33.4458 4.70113 33.492 4.68913C33.5382 4.67701 33.5004 4.66717 33.408 4.66717C33.3156 4.66717 33.2778 4.67701 33.324 4.68913ZM28.293 6.87601L28.152 7.03201L28.308 6.89101C28.3938 6.81349 28.464 6.74329 28.464 6.73501C28.464 6.69793 28.4244 6.73057 28.293 6.87601ZM20.1353 13.608C20.1353 17.172 20.141 18.6371 20.148 16.8637C20.155 15.0904 20.155 12.1744 20.148 10.3837C20.141 8.59309 20.1353 10.044 20.1353 13.608ZM35.566 7.69201C35.6837 7.81741 35.7863 7.92001 35.794 7.92001C35.8301 7.92001 35.7919 7.87693 35.58 7.67797L35.352 7.46401L35.566 7.69201ZM42.2054 9.29941C42.3317 9.30925 42.5261 9.30913 42.6374 9.29905C42.7488 9.28897 42.6456 9.28093 42.408 9.28105C42.1704 9.28117 42.0792 9.28945 42.2054 9.29941ZM2.68536 10.404L2.52 10.584L2.7 10.4187C2.799 10.3276 2.88 10.2466 2.88 10.2387C2.88 10.2019 2.83944 10.2365 2.68536 10.404ZM37.1152 10.944C37.1152 11.0364 37.125 11.0742 37.1371 11.028C37.1491 10.9818 37.1491 10.9062 37.1371 10.86C37.125 10.8138 37.1152 10.8516 37.1152 10.944ZM1.55664 13.944C1.55664 14.5512 1.56348 14.793 1.57188 14.4813C1.58028 14.1696 1.58016 13.6728 1.57176 13.3773C1.56336 13.0818 1.55652 13.3368 1.55664 13.944ZM13.9403 13.92C13.9403 14.4612 13.9472 14.6826 13.9558 14.412C13.9644 14.1414 13.9644 13.6986 13.9558 13.428C13.9472 13.1574 13.9403 13.3788 13.9403 13.92ZM31.342 13.5C31.4597 13.6254 31.5623 13.728 31.57 13.728C31.6061 13.728 31.5679 13.6849 31.356 13.486L31.128 13.272L31.342 13.5ZM4.69716 13.9324C4.7172 13.9524 6.09312 13.9632 7.75476 13.9564L10.776 13.944L7.7184 13.92C6.03672 13.9068 4.67712 13.9123 4.69716 13.9324ZM28.548 13.9539C28.6074 13.9654 28.7046 13.9654 28.764 13.9539C28.8234 13.9425 28.7748 13.9331 28.656 13.9331C28.5372 13.9331 28.4886 13.9425 28.548 13.9539ZM37.176 15.492V17.016L37.932 17.0179L38.6881 17.0197L37.9447 17.0047L37.2013 16.9896L37.1887 15.4788L37.176 13.968V15.492ZM38.7094 15.48C38.7094 16.2984 38.7158 16.6399 38.7239 16.239C38.7319 15.8381 38.7319 15.1685 38.7239 14.751C38.716 14.3335 38.7094 14.6616 38.7094 15.48ZM32.5117 16.248C32.512 16.4328 32.5206 16.5025 32.531 16.4029C32.5415 16.3033 32.5412 16.1521 32.5307 16.0669C32.52 15.9817 32.5115 16.0632 32.5117 16.248ZM12.7654 17.46L12.6 17.64L12.78 17.4747C12.879 17.3836 12.96 17.3026 12.96 17.2947C12.96 17.2579 12.9194 17.2925 12.7654 17.46ZM27 17.904C27.1031 18.0096 27.1982 18.096 27.2114 18.096C27.2246 18.096 27.1511 18.0096 27.048 17.904C26.9449 17.7984 26.8498 17.712 26.8366 17.712C26.8234 17.712 26.8969 17.7984 27 17.904ZM9.28728 24.768C9.28728 28.1604 9.29304 29.5482 9.3 27.852C9.30696 26.1558 9.30696 23.3802 9.3 21.684C9.29304 19.9878 9.28728 21.3756 9.28728 24.768ZM25.92 19.032C26.0095 19.1244 26.0936 19.2 26.1068 19.2C26.12 19.2 26.0575 19.1244 25.968 19.032C25.8785 18.9396 25.7944 18.864 25.7812 18.864C25.768 18.864 25.8305 18.9396 25.92 19.032ZM18.972 20.1477C19.1766 20.1567 19.5114 20.1567 19.716 20.1477C19.9206 20.1387 19.7532 20.1313 19.344 20.1313C18.9348 20.1313 18.7674 20.1387 18.972 20.1477ZM27.8514 25.4971C27.8452 28.4722 27.8562 30.9163 27.876 30.9286C27.9085 30.9487 27.9083 27.151 27.8754 22.032C27.8686 20.9628 27.8578 22.5221 27.8514 25.4971ZM18.324 21.684C18.885 21.6917 19.803 21.6917 20.364 21.684C20.925 21.6763 20.466 21.67 19.344 21.67C18.222 21.67 17.763 21.6763 18.324 21.684ZM17.544 22.656C17.7274 22.8408 17.8883 22.992 17.9015 22.992C17.9147 22.992 17.7754 22.8408 17.592 22.656C17.4086 22.4712 17.2477 22.32 17.2345 22.32C17.2213 22.32 17.3606 22.4712 17.544 22.656ZM21.6702 28.656C21.6702 29.91 21.6763 30.423 21.684 29.796C21.6916 29.169 21.6916 28.143 21.684 27.516C21.6763 26.889 21.6702 27.402 21.6702 28.656Z" fill="#545C5C"></path><path fill-rule="evenodd" clip-rule="evenodd" d="M33.852 4.64113C33.8982 4.65313 33.9738 4.65313 34.02 4.64113C34.0662 4.62901 34.0284 4.61917 33.936 4.61917C33.8436 4.61917 33.8058 4.62901 33.852 4.64113ZM43.3659 6.98401C43.3659 8.09281 43.3723 8.53957 43.38 7.97677C43.3877 7.41397 43.3877 6.50677 43.3799 5.96077C43.3722 5.41477 43.3659 5.87521 43.3659 6.98401ZM10.8228 9.42001C10.7852 9.52141 10.7737 13.9176 10.811 13.8802C10.8429 13.8484 10.89 9.36001 10.8584 9.36001C10.8511 9.36001 10.835 9.38701 10.8228 9.42001ZM45.276 10.8837C45.4806 10.8927 45.8154 10.8927 46.02 10.8837C46.2246 10.8747 46.0572 10.8673 45.648 10.8673C45.2388 10.8673 45.0714 10.8747 45.276 10.8837ZM37.464 13.9523C38.0389 13.987 38.7253 13.9891 38.7047 13.956C38.6924 13.9362 38.3541 13.924 37.9531 13.9289C37.5521 13.9338 37.332 13.9443 37.464 13.9523Z" fill="#54545C"></path><path fill-rule="evenodd" clip-rule="evenodd" d="M20.1804 2.64002C20.1804 3.20762 20.1873 3.43982 20.1957 3.15602C20.2042 2.87222 20.2042 2.40782 20.1957 2.12402C20.1873 1.84022 20.1804 2.07242 20.1804 2.64002ZM18.5287 3.74798C18.529 3.83822 18.5492 3.94334 18.5734 3.9815C18.6019 4.0265 18.6078 3.97562 18.5901 3.8375C18.5562 3.57242 18.5277 3.53102 18.5287 3.74798ZM33.552 4.60238C33.4596 4.6187 35.5257 4.63202 38.1434 4.63202C40.761 4.63202 42.8778 4.61618 42.8474 4.59674C42.7808 4.55438 33.7927 4.55978 33.552 4.60238ZM32.688 4.70342C32.6389 4.73462 32.6772 4.7399 32.808 4.71986C33.0452 4.6835 33.0856 4.65578 32.9 4.65674C32.823 4.6571 32.7276 4.6781 32.688 4.70342ZM43.381 6.94886L43.394 8.94458L43.261 9.0923L43.128 9.24002L43.284 9.09902L43.44 8.95802V6.9779C43.44 5.88878 43.4238 4.9877 43.404 4.97546C43.3842 4.96322 43.3738 5.85122 43.381 6.94886ZM29.484 5.90954C29.3204 6.0143 29.2674 6.08474 29.412 6.00518C29.5221 5.9447 29.6947 5.81126 29.664 5.8103C29.6508 5.80994 29.5698 5.85458 29.484 5.90954ZM18.8578 6.22802C18.8 6.30182 18.801 6.30494 18.8665 6.25406C18.9076 6.22202 19.133 6.18878 19.3705 6.1799L19.8 6.16382L19.3618 6.15386C18.994 6.14558 18.9132 6.15746 18.8578 6.22802ZM28.9422 6.2915L28.776 6.43898L28.956 6.30974C29.1151 6.19562 29.1668 6.14402 29.1222 6.14402C29.1146 6.14402 29.0336 6.21038 28.9422 6.2915ZM31.452 6.27314C31.4982 6.28514 31.5738 6.28514 31.62 6.27314C31.6662 6.26102 31.6284 6.25118 31.536 6.25118C31.4436 6.25118 31.4058 6.26102 31.452 6.27314ZM32.2446 6.27398C32.3042 6.2855 32.3906 6.28502 32.4366 6.27302C32.4824 6.26102 32.4336 6.25154 32.328 6.25214C32.2224 6.25262 32.1848 6.26246 32.2446 6.27398ZM30.864 6.33674C30.8133 6.36986 30.8418 6.37478 30.96 6.35306C31.167 6.31502 31.2061 6.28778 31.052 6.28874C30.9882 6.2891 30.9036 6.3107 30.864 6.33674ZM20.0647 6.74798C20.065 6.79862 20.0874 6.87242 20.1141 6.91202C20.1498 6.96458 20.1542 6.94514 20.1307 6.84002C20.0912 6.6635 20.0637 6.62522 20.0647 6.74798ZM18.5578 6.88982C18.5414 6.93278 18.5307 7.03634 18.534 7.11998C18.539 7.24646 18.546 7.23578 18.5758 7.05602C18.614 6.82634 18.607 6.76178 18.5578 6.88982ZM20.1832 13.632C20.1832 17.1828 20.189 18.6354 20.196 16.86C20.2029 15.0846 20.2029 12.1794 20.196 10.404C20.189 8.62862 20.1832 10.0812 20.1832 13.632ZM28.6053 7.52402L28.44 7.70402L28.62 7.53866C28.7875 7.38458 28.822 7.34402 28.7853 7.34402C28.7774 7.34402 28.6964 7.42502 28.6053 7.52402ZM35.5659 7.74002C35.6836 7.86542 35.7862 7.96802 35.7939 7.96802C35.83 7.96802 35.7919 7.92494 35.58 7.72598L35.352 7.51202L35.5659 7.74002ZM28.1175 7.79078C28.184 7.82066 28.2444 7.82282 28.2709 7.79606C28.2975 7.76942 28.2542 7.74986 28.1613 7.74674C28.0185 7.7417 28.0155 7.74482 28.1175 7.79078ZM36.2338 8.56802C36.2598 8.62082 36.316 8.70722 36.3591 8.76002L36.4372 8.85602L36.3901 8.76002C36.3642 8.70722 36.3079 8.62082 36.2648 8.56802L36.1867 8.47202L36.2338 8.56802ZM41.76 9.36002C41.6325 9.3869 41.6209 9.39626 41.712 9.3989C41.778 9.40094 41.9184 9.38462 42.024 9.36278C42.184 9.32966 42.192 9.32318 42.072 9.3239C41.9928 9.32426 41.8524 9.34058 41.76 9.36002ZM10.784 9.39206C10.7664 9.40958 10.752 10.4247 10.752 11.6477V13.8713L7.71596 13.8843L4.67996 13.8971L7.72796 13.8966L10.776 13.896L10.8 11.628C10.8132 10.3806 10.8222 9.36002 10.82 9.36002C10.8177 9.36002 10.8015 9.37442 10.784 9.39206ZM40.716 9.67154C40.6302 9.70886 40.56 9.75074 40.56 9.76466C40.56 9.7943 40.8031 9.69554 40.8696 9.6389C40.9326 9.58514 40.8976 9.59258 40.716 9.67154ZM3.32396 9.83954C3.23816 9.89186 3.16796 9.94502 3.16796 9.95774C3.16796 9.97034 3.24356 9.93614 3.33596 9.88166C3.42836 9.82718 3.50396 9.7739 3.50396 9.76322C3.50396 9.73262 3.48884 9.73898 3.32396 9.83954ZM40.3071 9.9137C40.2086 9.98066 40.128 10.0458 40.128 10.0584C40.128 10.071 40.2144 10.0242 40.32 9.95438C40.4876 9.84338 40.5444 9.79202 40.4991 9.79202C40.492 9.79202 40.4056 9.84674 40.3071 9.9137ZM2.63828 10.404L2.37596 10.68L2.65196 10.4177C2.9084 10.1739 2.94992 10.128 2.91428 10.128C2.90684 10.128 2.78264 10.2522 2.63828 10.404ZM37.008 10.5732C37.008 10.642 37.0304 10.7122 37.0579 10.7292C37.0906 10.7495 37.0965 10.7133 37.0752 10.6241C37.031 10.4401 37.008 10.4227 37.008 10.5732ZM2.10428 11.0547C1.95812 11.2905 1.84508 11.5089 1.89128 11.4663C1.94456 11.4171 2.25872 10.8828 2.24336 10.8675C2.23556 10.8597 2.17292 10.9439 2.10428 11.0547ZM13.296 10.9737C13.296 11.0001 13.3276 11.0635 13.3664 11.1149C13.4052 11.1661 13.437 11.1864 13.437 11.16C13.437 11.1336 13.4052 11.0701 13.3664 11.0189C13.3276 10.9675 13.296 10.9473 13.296 10.9737ZM1.61144 12.1715C1.59368 12.2418 1.58852 12.3087 1.5998 12.3199C1.6112 12.3312 1.63484 12.283 1.65248 12.2125C1.67024 12.1422 1.6754 12.0754 1.66412 12.0641C1.65272 12.0528 1.62908 12.1011 1.61144 12.1715ZM13.8549 12.288C13.893 12.495 13.9202 12.5341 13.9192 12.3801C13.9189 12.3162 13.8973 12.2316 13.8712 12.192C13.8381 12.1414 13.8332 12.1698 13.8549 12.288ZM38.7694 12.3047C38.7403 12.3805 38.6612 12.387 37.9251 12.3742C37.4785 12.3664 37.123 12.3762 37.1353 12.396C37.1666 12.4464 38.6974 12.4398 38.7778 12.3888C38.8141 12.3659 38.8342 12.3187 38.8226 12.2839C38.8077 12.2392 38.7922 12.2452 38.7694 12.3047ZM28.176 12.3653C28.4408 12.3983 29.3712 12.4073 29.2924 12.3762C29.246 12.3577 28.9488 12.3445 28.632 12.3466C28.3152 12.3487 28.11 12.3571 28.176 12.3653ZM1.51832 12.6763C1.50164 12.7597 1.49072 12.9064 1.49408 13.002C1.49816 13.1196 1.51316 13.0756 1.54016 12.8662C1.58264 12.538 1.5692 12.4216 1.51832 12.6763ZM13.9885 13.92C13.9885 14.514 13.9953 14.757 14.0038 14.46C14.0122 14.163 14.0122 13.677 14.0038 13.38C13.9953 13.083 13.9885 13.326 13.9885 13.92ZM31.3899 13.5C31.5076 13.6254 31.6102 13.728 31.6179 13.728C31.654 13.728 31.6159 13.6849 31.404 13.486L31.176 13.272L31.3899 13.5ZM37.1258 13.9324C37.113 13.9656 37.1083 14.6838 37.1152 15.5284L37.128 17.064L37.932 17.0772C38.3742 17.0844 38.736 17.0736 38.7361 17.0532C38.7361 17.0327 38.3793 17.0224 37.9434 17.0303L37.1506 17.0445L37.1632 15.4943L37.176 13.944H37.9514C38.3779 13.944 38.7169 13.9278 38.7046 13.908C38.6635 13.8417 37.1516 13.8651 37.1258 13.9324ZM28.4294 14.0034C28.5556 14.0133 28.75 14.0131 28.8614 14.0031C28.9728 13.993 28.8696 13.9849 28.632 13.9851C28.3944 13.9852 28.3032 13.9935 28.4294 14.0034ZM27.36 14.3563C27.2803 14.4215 27.2722 14.4378 27.336 14.4048C27.4926 14.3239 27.5793 14.2575 27.528 14.2578C27.5016 14.2581 27.426 14.3023 27.36 14.3563ZM32.0973 14.4714C32.1412 14.5635 32.1856 14.6303 32.1961 14.6199C32.218 14.5979 32.0724 14.304 32.0395 14.304C32.0274 14.304 32.0534 14.3794 32.0973 14.4714ZM30.2424 14.6665C30.3598 14.8 30.4657 14.9017 30.4777 14.8929C30.4896 14.884 30.3934 14.7748 30.2641 14.6503L30.0288 14.424L30.2424 14.6665ZM27.0002 14.6398C26.9523 14.6927 26.9288 14.736 26.948 14.736C26.9985 14.736 27.1353 14.5914 27.1094 14.5655C27.0973 14.5534 27.0482 14.5867 27.0002 14.6398ZM1.49132 14.932C1.49324 15.0486 1.51268 15.1872 1.53476 15.24C1.559 15.298 1.56452 15.2219 1.5488 15.048C1.51736 14.7012 1.48664 14.6392 1.49132 14.932ZM32.4561 15.504C32.4585 15.6287 32.5341 15.8335 32.5358 15.72C32.5365 15.6672 32.5186 15.5808 32.496 15.528C32.4706 15.4692 32.4553 15.4599 32.4561 15.504ZM24.7498 15.6738C24.7334 15.7168 24.7226 15.8419 24.726 15.952C24.7317 16.1437 24.7335 16.1412 24.7701 15.8883C24.8096 15.6161 24.8022 15.5377 24.7498 15.6738ZM26.3818 15.8178C26.3654 15.8608 26.3547 15.9643 26.358 16.048C26.363 16.1745 26.37 16.1638 26.3998 15.984C26.438 15.7543 26.431 15.6898 26.3818 15.8178ZM26.3553 16.468C26.3572 16.5582 26.3774 16.6752 26.4003 16.728C26.4271 16.7898 26.432 16.7385 26.4141 16.584C26.3812 16.2987 26.3506 16.2383 26.3553 16.468ZM24.7207 16.588C24.721 16.6914 24.7404 16.8059 24.7635 16.8425C24.7893 16.8832 24.7958 16.8179 24.7804 16.6745C24.749 16.3821 24.7197 16.3397 24.7207 16.588ZM12.7653 17.508L12.6 17.688L12.78 17.5227C12.879 17.4316 12.96 17.3506 12.96 17.3427C12.96 17.3059 12.9194 17.3405 12.7653 17.508ZM2.78792 17.628C2.79896 17.6346 2.87276 17.694 2.95196 17.76L3.09596 17.88L2.97956 17.748C2.9156 17.6754 2.8418 17.616 2.81564 17.616C2.78936 17.616 2.777 17.6214 2.78792 17.628ZM27.0116 17.8591C27.1236 17.9778 27.2856 18.1129 27.3716 18.1595C27.5227 18.2413 27.5239 18.2412 27.408 18.1583C27.342 18.111 27.18 17.9758 27.048 17.8579L26.808 17.6435L27.0116 17.8591ZM3.33596 18.0249C3.38876 18.0679 3.47516 18.1242 3.52796 18.1501L3.62396 18.1973L3.52796 18.1192C3.47516 18.0761 3.38876 18.0198 3.33596 17.9939L3.23996 17.9467L3.33596 18.0249ZM31.8214 18.4913C31.704 18.6559 31.6 18.8125 31.5902 18.8393C31.5679 18.9007 31.9593 18.3894 32.0214 18.276C32.1122 18.1099 32.031 18.1974 31.8214 18.4913ZM27.9879 18.4493C27.999 18.4588 28.0728 18.481 28.152 18.4987C28.2571 18.5223 28.2765 18.5178 28.224 18.4822C28.1592 18.4384 27.9398 18.4078 27.9879 18.4493ZM29.064 18.48C29.0035 18.5061 28.9946 18.5213 29.04 18.5213C29.0796 18.5213 29.1552 18.5027 29.208 18.48C29.2684 18.454 29.2773 18.4387 29.232 18.4387C29.1924 18.4387 29.1168 18.4573 29.064 18.48ZM37.044 18.5639C37.5258 18.5718 38.3142 18.5718 38.796 18.5639C39.2778 18.5561 38.8836 18.5497 37.92 18.5497C36.9564 18.5497 36.5622 18.5561 37.044 18.5639ZM5.38976 18.6115C5.54252 18.6211 5.78012 18.621 5.91776 18.6113C6.0554 18.6017 5.93036 18.5939 5.63996 18.594C5.34956 18.5941 5.237 18.6019 5.38976 18.6115ZM9.37652 18.6127C9.34604 18.6322 9.50804 18.6419 9.73652 18.6343C10.3689 18.6135 10.4466 18.5911 9.91196 18.5839C9.64796 18.5803 9.407 18.5933 9.37652 18.6127ZM35.829 18.78L35.688 18.936L35.8557 18.792C35.948 18.7128 36.0326 18.6426 36.0438 18.636C36.0548 18.6294 36.0428 18.624 36.017 18.624C35.9911 18.624 35.9065 18.6942 35.829 18.78ZM6.15572 24.7944C6.14672 29.5241 6.15728 30.9541 6.20156 30.9984C6.2666 31.0635 9.2408 31.0843 9.28052 31.02C9.29276 31.0002 8.60828 30.984 7.7594 30.984H6.21596L6.19172 24.816L6.16736 18.648L6.15572 24.7944ZM25.8699 19.02C26.0689 19.2319 26.112 19.2701 26.112 19.234C26.112 19.2263 26.0094 19.1237 25.884 19.006L25.656 18.792L25.8699 19.02ZM31.056 19.306C30.9636 19.3855 30.9312 19.4269 30.984 19.3981C31.129 19.3188 31.2675 19.2035 31.2445 19.1812C31.2332 19.1703 31.1484 19.2264 31.056 19.306ZM40.2718 25.08L40.248 30.936L37.92 30.9607L35.592 30.9855L37.9021 30.9967C39.7994 31.006 40.2219 30.9964 40.2663 30.9429C40.3059 30.8952 40.3171 29.3171 40.3081 25.0509L40.2957 19.224L40.2718 25.08ZM35.5912 25.104C35.5912 28.3116 35.597 29.6238 35.604 28.02C35.6109 26.4162 35.6109 23.7918 35.604 22.188C35.597 20.5842 35.5912 21.8964 35.5912 25.104ZM30.144 19.848C30.078 19.8857 30.0456 19.9167 30.072 19.9167C30.0984 19.9167 30.174 19.8857 30.24 19.848C30.306 19.8103 30.3384 19.7794 30.312 19.7794C30.2856 19.7794 30.21 19.8103 30.144 19.848ZM27.7317 20.0991C27.7788 20.1323 27.7942 21.2971 27.8041 25.5388L27.8166 30.936L27.8163 25.516C27.816 20.7391 27.8074 20.0937 27.744 20.0764C27.6909 20.0619 27.6877 20.0679 27.7317 20.0991ZM18.972 20.1957C19.1766 20.2047 19.5114 20.2047 19.716 20.1957C19.9206 20.1867 19.7532 20.1793 19.344 20.1793C18.9348 20.1793 18.7674 20.1867 18.972 20.1957ZM17.208 22.368C17.311 22.4736 17.4062 22.56 17.4194 22.56C17.4326 22.56 17.359 22.4736 17.256 22.368C17.1529 22.2624 17.0577 22.176 17.0445 22.176C17.0313 22.176 17.1049 22.2624 17.208 22.368ZM17.7826 22.932L18.1174 23.28L19.3906 23.2689L20.664 23.2577L19.3923 23.244L18.1207 23.2303L17.7843 22.9072L17.448 22.584L17.7826 22.932ZM21.6309 26.016C21.669 26.223 21.6962 26.2621 21.6952 26.1081C21.6949 26.0442 21.6733 25.9596 21.6472 25.92C21.6141 25.8694 21.6092 25.8978 21.6309 26.016ZM16.974 26.406C16.8906 26.8228 16.9422 30.8955 17.0317 30.9766C17.1254 31.0613 21.6129 31.1034 21.6645 31.02C21.6768 31.0002 20.6605 30.99 19.406 30.9973C17.6916 31.0074 17.1079 30.9965 17.056 30.9534C16.9972 30.9047 16.9891 30.5488 17.0014 28.576C17.0095 27.3 17.0133 26.256 17.01 26.256C17.0066 26.256 16.9905 26.3236 16.974 26.406ZM21.7182 28.68C21.7182 29.9208 21.7243 30.4353 21.732 29.8234C21.7395 29.2114 21.7395 28.1962 21.732 27.5674C21.7244 26.9385 21.7182 27.4392 21.7182 28.68ZM2.79596 27.8279C3.13256 27.8362 3.68336 27.8362 4.01996 27.8279C4.35656 27.8196 4.08116 27.8129 3.40796 27.8129C2.73476 27.8129 2.45936 27.8196 2.79596 27.8279ZM12.0393 27.828C12.6813 27.8356 13.7181 27.8356 14.3433 27.828C14.9684 27.8203 14.4432 27.8142 13.176 27.8142C11.9088 27.8142 11.3972 27.8205 12.0393 27.828ZM24.039 27.8279C24.4696 27.8359 25.1608 27.8359 25.575 27.8279C25.9891 27.82 25.6368 27.8134 24.792 27.8134C23.9472 27.8135 23.6083 27.82 24.039 27.8279ZM31.767 27.8279C32.1976 27.8359 32.8888 27.8359 33.303 27.8279C33.7171 27.82 33.3648 27.8134 32.52 27.8134C31.6752 27.8135 31.3363 27.82 31.767 27.8279ZM42.828 27.828C43.3758 27.8357 44.2722 27.8357 44.82 27.828C45.3678 27.8202 44.9196 27.814 43.824 27.814C42.7284 27.814 42.2802 27.8202 42.828 27.828ZM10.784 27.8721C10.6926 27.9635 10.7506 30.9559 10.8448 31.0063C10.953 31.0642 15.437 31.0775 15.4725 31.02C15.4848 31.0002 14.4871 30.9901 13.2554 30.9976C12.0237 31.005 10.9668 30.999 10.9066 30.9844L10.7974 30.9575L10.8106 29.3988C10.818 28.5414 10.8222 27.84 10.82 27.84C10.8177 27.84 10.8015 27.8544 10.784 27.8721ZM23.1651 27.916C23.0822 28.132 23.1352 30.8964 23.2237 30.9766C23.3173 31.0612 26.2694 31.1026 26.3205 31.02C26.3329 31.0002 25.6621 30.99 24.8299 30.9973C23.7188 31.0072 23.2988 30.9957 23.2486 30.9539C23.1915 30.9065 23.1825 30.6454 23.194 29.3686C23.2017 28.5279 23.2048 27.84 23.2011 27.84C23.1973 27.84 23.1811 27.8742 23.1651 27.916ZM15.5253 29.424C15.5253 30.2556 15.5319 30.5958 15.5398 30.18C15.5479 29.7642 15.5479 29.0838 15.5398 28.668C15.5319 28.2522 15.5253 28.5924 15.5253 29.424ZM26.3733 29.448C26.3733 30.2664 26.3798 30.6079 26.3878 30.207C26.3959 29.8061 26.3959 29.1365 26.3878 28.719C26.3799 28.3015 26.3733 28.6296 26.3733 29.448ZM1.53212 30.972C1.59032 31.0488 1.7234 31.056 3.09596 31.056C4.46852 31.056 4.6016 31.0488 4.6598 30.972C4.7138 30.9005 4.71332 30.897 4.65608 30.948C4.60532 30.9933 4.22228 31.008 3.09596 31.008C1.96964 31.008 1.5866 30.9933 1.53584 30.948C1.4786 30.897 1.47812 30.9005 1.53212 30.972ZM29.3917 30.9635C29.3581 30.9971 29.0812 31.0096 28.5944 30.9995C28.1842 30.991 27.8737 30.9999 27.9043 31.0193C28.0201 31.0926 29.3596 31.0615 29.424 30.984C29.4925 30.9015 29.4687 30.8865 29.3917 30.9635ZM30.9561 30.972C31.0143 31.0488 31.1474 31.056 32.52 31.056C33.8925 31.056 34.0256 31.0488 34.0838 30.972C34.1378 30.9005 34.1373 30.897 34.0801 30.948C34.0293 30.9933 33.6463 31.008 32.52 31.008C31.3936 31.008 31.0106 30.9933 30.9598 30.948C30.9026 30.897 30.9021 30.9005 30.9561 30.972ZM46.4356 30.9595C46.406 30.9892 45.5236 31.012 44.086 31.02L41.784 31.033L44.0941 31.0445C46.0986 31.0545 46.4121 31.0465 46.464 30.984C46.5307 30.9037 46.5097 30.8855 46.4356 30.9595ZM1.5194 34.092C1.53164 34.1118 5.02748 34.128 9.28796 34.128C13.5484 34.128 17.0443 34.1118 17.0565 34.092C17.0688 34.0722 13.5729 34.056 9.28796 34.056C5.003 34.056 1.50716 34.0722 1.5194 34.092ZM30.9434 34.092C30.9556 34.1118 34.4515 34.128 38.712 34.128C42.9724 34.128 46.4683 34.1118 46.4805 34.092C46.4928 34.0722 42.9969 34.056 38.712 34.056C34.427 34.056 30.9312 34.0722 30.9434 34.092ZM16.9638 37.2C16.9638 37.662 16.971 37.851 16.9797 37.62C16.9885 37.389 16.9885 37.011 16.9797 36.78C16.971 36.549 16.9638 36.738 16.9638 37.2ZM31.0276 37.176C31.0275 37.6248 31.0347 37.8149 31.0436 37.5984C31.0525 37.3818 31.0526 37.0146 31.0437 36.7824C31.035 36.5501 31.0276 36.7272 31.0276 37.176ZM17.376 36.543C17.376 36.5513 17.4462 36.6215 17.532 36.699L17.688 36.84L17.547 36.684C17.4156 36.5386 17.376 36.5059 17.376 36.543ZM30.453 36.684L30.312 36.84L30.468 36.699C30.5538 36.6215 30.624 36.5513 30.624 36.543C30.624 36.5059 30.5844 36.5386 30.453 36.684Z" fill="#2C3434"></path></g><defs><clipPath id="clip0_1_2"><rect width="48" height="48" fill="white"></rect></clipPath></defs></svg>