<svg xmlns="http://www.w3.org/2000/svg" width="48" height="48" viewBox="0 0 48 48" fill="none"><g clip-path="url(#clip0_768_269)"><path d="M7.89842 1.47546L13.1025 6.67943C13.7632 7.34018 13.7632 8.41136 13.1025 9.07211L9.23398 12.9406C8.57323 13.6014 7.50204 13.6014 6.84129 12.9406L1.63723 7.73664C1.28079 7.38021 0.67451 7.54502 0.542604 8.03149C-0.445334 11.6752 0.488979 15.7309 3.34985 18.5918C6.46329 21.7051 10.9916 22.5367 14.8641 21.0925L37.3861 45.7208C39.6986 48.2496 43.6534 48.3379 46.0766 45.9148C48.5112 43.4802 48.4087 39.5027 45.8521 37.1966L21.1676 14.9321C22.7325 11.0103 21.9287 6.36311 18.7536 3.18799C15.8928 0.327114 11.8369 -0.607199 8.19326 0.380739C7.70679 0.512645 7.54198 1.11902 7.89842 1.47546ZM43.4977 41.6207C43.4977 42.6158 42.6911 43.4224 41.696 43.4224C40.701 43.4224 39.8944 42.6158 39.8944 41.6207C39.8944 40.6256 40.701 39.819 41.696 39.819C42.6911 39.819 43.4977 40.6256 43.4977 41.6207Z" fill="#605F6D"></path><path d="M19.1168 12.6626L21.2859 14.6191C22.6873 10.7651 21.8446 6.27906 18.7536 3.18793C18.5235 2.95861 18.2834 2.73958 18.034 2.53149C20.0728 5.5494 20.4335 9.36268 19.1168 12.6626ZM35.3186 43.4598L37.3861 45.7206C39.6987 48.2494 43.6535 48.3377 46.0766 45.9147C48.5112 43.4801 48.4088 39.5025 45.8521 37.1965L45.0131 36.4397C46.3006 38.7229 45.9868 41.6844 44.0259 43.6453C41.6027 46.0682 37.6312 45.9887 35.3186 43.4598ZM14.8642 21.0923L12.8134 18.8229C9.2299 20.1594 5.08568 19.5455 2.01978 16.9796C2.41066 17.5581 2.85603 18.098 3.34981 18.5916C6.46324 21.7051 10.9917 22.5366 14.8642 21.0923ZM28.6728 21.7015L26.7581 23.6162L25.4757 22.3336C24.6809 21.5389 23.3924 21.5389 22.5977 22.3336L20.8453 24.086C21.2867 25.2254 21.2847 26.4889 20.8396 27.6269L25.0766 32.2601C26.003 31.8283 27.0373 31.7042 28.0258 31.8882C28.3154 31.9423 28.6138 31.9251 28.8952 31.838C29.1767 31.7509 29.4327 31.5966 29.6411 31.3884L30.6467 30.3827C31.4414 29.588 31.4414 28.2996 30.6467 27.5049C29.9384 26.7966 29.9384 25.6482 30.6467 24.9399L31.4131 24.1734L28.6728 21.7015Z" fill="#53515E"></path><path d="M47.5827 5.97053L44.2896 2.67737C43.9728 2.36059 43.4398 2.44112 43.2307 2.83731L41.4579 6.19609L25.2579 22.3959L27.8641 25.0021L44.0641 8.80225L47.4229 7.02934C47.8191 6.82028 47.8995 6.28731 47.5827 5.97053Z" fill="#E9EBF2"></path><path d="M47.5827 5.97054L46.7514 5.13916C46.8096 5.41675 46.6874 5.71975 46.4112 5.86544L43.0525 7.63835L26.8526 23.8382L25.3342 22.3198L25.2581 22.3959L27.8642 25.0021L44.0641 8.80225L47.4229 7.02935C47.8191 6.82028 47.8995 6.28732 47.5827 5.97054Z" fill="#C7CAD3"></path><path d="M22.3595 31.8429C23.7655 30.4369 25.8179 30.0733 27.5596 30.7496L29.312 28.9972C30.1067 28.2025 30.1067 26.914 29.312 26.1192L24.1408 20.9481C23.3461 20.1534 22.0576 20.1534 21.263 20.9481L19.5106 22.7005C20.1868 24.4422 19.8231 26.4945 18.4173 27.9005C17.0114 29.3065 14.9589 29.67 13.2172 28.9938L3.92717 38.2839C1.70445 40.5066 1.70445 44.1102 3.92717 46.333C6.14989 48.5557 9.75355 48.5557 11.9763 46.333L21.2663 37.0429C20.5899 35.3013 20.9536 33.2488 22.3595 31.8429Z" fill="#FFDC64"></path><path d="M29.312 26.1193L28.0892 24.8965C28.2605 25.5694 28.085 26.3124 27.5584 26.839L25.8061 28.5914C24.0645 27.9151 22.012 28.2788 20.606 29.6847C19.2001 31.0906 18.8364 33.143 19.5127 34.8847L10.2227 44.1748C8.19476 46.2027 5.01795 46.3794 2.78857 44.707C3.06976 45.3116 3.45518 45.862 3.92717 46.333C6.14989 48.5557 9.75354 48.5557 11.9763 46.333L21.2663 37.0429C20.5901 35.3012 20.9538 33.2489 22.3596 31.8429C23.7656 30.4369 25.818 30.0734 27.5597 30.7496L29.312 28.9972C30.1067 28.2025 30.1067 26.914 29.312 26.1193Z" fill="#FFC850"></path><path d="M7.21678 41.2112C7.06675 41.2112 6.9201 41.1666 6.79538 41.0832C6.67065 40.9998 6.57344 40.8814 6.51602 40.7428C6.45861 40.6041 6.44356 40.4516 6.47279 40.3045C6.50202 40.1573 6.57421 40.0221 6.68025 39.916L13.8678 32.7285C14.0101 32.5862 14.2031 32.5063 14.4043 32.5063C14.6055 32.5063 14.7985 32.5862 14.9408 32.7285C15.0831 32.8708 15.163 33.0638 15.163 33.265C15.163 33.4662 15.0831 33.6592 14.9408 33.8015L7.75331 40.989C7.68291 41.0596 7.59928 41.1155 7.5072 41.1537C7.41513 41.1918 7.31643 41.2114 7.21678 41.2112ZM9.87243 43.8669C9.7224 43.8668 9.57576 43.8223 9.45103 43.7389C9.32631 43.6555 9.2291 43.537 9.17168 43.3984C9.11426 43.2598 9.09922 43.1073 9.12845 42.9601C9.15768 42.813 9.22987 42.6778 9.3359 42.5716L16.5234 35.3841C16.6658 35.2419 16.8588 35.162 17.06 35.162C17.2612 35.162 17.4542 35.2419 17.5965 35.3841C17.7388 35.5264 17.8187 35.7194 17.8187 35.9206C17.8187 36.1219 17.7388 36.3149 17.5965 36.4572L10.409 43.6447C10.3386 43.7152 10.2549 43.7712 10.1629 43.8093C10.0708 43.8474 9.97209 43.867 9.87243 43.8669Z" fill="#FF6B5C"></path></g><defs><clipPath id="clip0_768_269"><rect width="48" height="48" fill="white"></rect></clipPath></defs></svg>