<svg xmlns="http://www.w3.org/2000/svg" width="48" height="48" viewBox="0 0 48 48" fill="none"><path d="M44.9589 43.3752C44.9589 42.9208 44.5841 42.5514 44.1324 42.5514H3.99639C3.54198 42.5514 3.17261 42.9208 3.17261 43.3752V45.6819H44.9589V43.3752Z" fill="#5B728C"></path><path d="M12.8353 35.2353H12.8406C14.6504 35.2326 16.1199 33.763 16.1199 31.9533C16.1199 30.1435 14.6477 28.6713 12.8379 28.6713C11.0282 28.6713 9.55591 30.1435 9.55591 31.9533C9.55591 33.763 11.0282 35.2325 12.8352 35.2353H12.8353Z" fill="#FAEFE8"></path><path d="M27.6134 41.0526C27.9376 39.8913 28.5117 38.8442 29.277 37.9699C28.0599 36.3116 26.1519 35.3336 24.0684 35.3336H24.0604C21.9743 35.3336 20.0636 36.3116 18.8491 37.9751C19.6251 38.8643 20.1926 39.9157 20.5101 41.0525H27.6135L27.6134 41.0526Z" fill="#0BAA79"></path><path d="M24.204 12.45H32.8914C33.3085 12.45 33.646 12.7849 33.646 13.1995C33.646 13.614 33.3085 13.9489 32.8914 13.9489H24.204C23.7894 13.9489 23.4546 13.6141 23.4546 13.1995C23.4546 12.7848 23.7894 12.45 24.204 12.45ZM25.2272 8.34958H38.7724C39.1816 8.34958 39.5191 8.68708 39.5191 9.10164C39.5191 9.5162 39.1816 9.85108 38.7724 9.85108H25.2272C24.8126 9.85108 24.4778 9.5162 24.4778 9.10164C24.4778 8.68708 24.8126 8.34958 25.2272 8.34958ZM25.6418 4.25177H32.4742C32.8861 4.25177 33.2236 4.58927 33.2236 5.00383C33.2236 5.41577 32.8861 5.75327 32.4742 5.75327H25.6418C25.2272 5.75327 24.8897 5.41577 24.8897 5.00383C24.8897 4.58927 25.2272 4.25177 25.6418 4.25177ZM35.8757 4.25177H38.8521C39.2693 4.25177 39.6041 4.58927 39.6041 5.0012C39.6042 5.09999 39.5848 5.19783 39.5471 5.28911C39.5093 5.38039 39.4539 5.46333 39.3841 5.53319C39.3142 5.60304 39.2313 5.65843 39.14 5.6962C39.0487 5.73396 38.9509 5.75335 38.8521 5.75327H35.8757C35.4638 5.75327 35.129 5.41577 35.129 5.0012C35.129 4.58927 35.4639 4.25177 35.8757 4.25177ZM35.2804 13.1995C35.2804 12.7849 35.6179 12.45 36.0271 12.45H38.7723C39.1815 12.45 39.519 12.7849 39.519 13.1995C39.519 13.614 39.1815 13.9489 38.7723 13.9489H36.0271C35.6179 13.9489 35.2804 13.6141 35.2804 13.1995ZM38.8521 18.0493H28.3524C27.9378 18.0493 27.6029 17.7118 27.6029 17.2999C27.6029 16.8853 27.9378 16.5478 28.3524 16.5478H38.8521C39.2693 16.5478 39.6041 16.8853 39.6041 17.2999C39.6041 17.7118 39.2693 18.0493 38.8521 18.0493ZM25.0438 18.0493H22.1525C21.7379 18.0493 21.403 17.7118 21.403 17.2999C21.403 16.8853 21.7379 16.5478 22.1525 16.5478H25.0438C25.4558 16.5478 25.7933 16.8853 25.7933 17.2999C25.7933 17.7118 25.4558 18.0493 25.0438 18.0493ZM17.6773 10.7227L22.1365 5.51139C22.4049 5.19517 22.878 5.15795 23.1942 5.42908C23.5078 5.69749 23.545 6.17055 23.2766 6.48677L18.464 12.11C18.674 13.0826 18.3311 14.1748 17.1671 14.7781L15.5647 15.6072V17.2601C15.5647 18.8361 16.8456 20.117 18.4214 20.117H42.0996C43.6728 20.117 44.959 18.8361 44.959 17.2601V5.03833C44.959 3.46511 43.6728 2.1842 42.0996 2.1842H18.4213C16.8455 2.1842 15.5646 3.46511 15.5646 5.03833V10.1088C16.3857 9.93874 17.1406 10.2257 17.6773 10.7227Z" fill="#F7CB7F"></path><path d="M6.89569 8.68436C8.51147 8.68436 9.82425 7.36896 9.82425 5.7558C9.82425 4.14264 8.51147 2.82996 6.89569 2.82996C5.27991 2.82996 3.96985 4.14274 3.96985 5.7558C3.96985 7.36886 5.28263 8.68436 6.89569 8.68436ZM24.0604 33.8321H24.0683C25.8781 33.8295 27.3476 32.3573 27.3476 30.5501C27.3476 28.743 25.8754 27.2655 24.0656 27.2655C22.2559 27.2655 20.781 28.7378 20.781 30.5501C20.781 32.3625 22.2507 33.8294 24.0604 33.8321Z" fill="#FAEFE8"></path><path d="M31.2809 41.0525H41.3873C40.4944 38.504 38.0628 36.7341 35.2936 36.7314H35.2857C32.5112 36.7341 30.0796 38.504 29.1868 41.0525H31.2809Z" fill="#F7CB7F"></path><path d="M35.2857 35.2326H35.2936C37.1008 35.23 38.5703 33.7578 38.5703 31.948C38.5703 30.1383 37.1007 28.666 35.2857 28.666C33.4707 28.666 32.0037 30.1383 32.0037 31.948C32.0037 33.7578 33.4733 35.23 35.2857 35.2326Z" fill="#FAEFE8"></path><path d="M3.45695 25.4132H10.3372C10.4913 25.4132 10.6215 25.2857 10.6215 25.1316V18.1716L9.48676 18.7589C9.13595 18.9397 8.74267 19.0327 8.34676 19.0327C8.0837 19.0327 7.81792 18.9928 7.56283 18.9104C6.92767 18.7031 6.41748 18.2673 6.12517 17.6854C5.86473 17.1645 5.78767 16.5745 5.90992 16.0218C5.99767 15.6178 6.3963 15.3601 6.8028 15.4478C7.20676 15.5355 7.46186 15.9368 7.37411 16.3406C7.32629 16.5639 7.35817 16.7978 7.46711 17.013C7.57876 17.2362 7.77536 17.401 8.0252 17.4834C8.28564 17.5658 8.56726 17.5472 8.79583 17.4276L10.6215 16.4815L16.4759 13.4467C17.2997 13.0189 16.9675 12.2774 16.8931 12.1313C16.8453 12.0409 16.4067 11.2516 15.5644 11.6874L15.1737 11.8921H15.1711L10.7438 14.1881L10.5524 13.2022C10.2149 11.4535 8.6763 10.1832 6.8957 10.1832C4.84145 10.1832 3.17261 11.8548 3.17261 13.909V25.1316C3.17261 25.2857 3.30283 25.4132 3.45695 25.4132Z" fill="#60B7FF"></path><path d="M18.9368 41.0525C18.0412 38.504 15.6096 36.7368 12.8405 36.7341H12.8352C10.0661 36.7368 7.63449 38.504 6.73889 41.0525H18.9368Z" fill="#FF7577"></path><path d="M25.227 9.85099H38.7722C39.1815 9.85099 39.519 9.51611 39.519 9.10155C39.519 8.68699 39.1815 8.34949 38.7722 8.34949H25.227C24.8125 8.34949 24.4776 8.68699 24.4776 9.10155C24.4776 9.51611 24.8125 9.85099 25.227 9.85099ZM3.17264 43.3751C3.17264 42.9207 3.54202 42.5514 3.99642 42.5514H44.1324C44.5842 42.5514 44.9589 42.9207 44.9589 43.3751V45.6819H3.17264V43.3751ZM12.8353 36.7341H12.8406C15.6097 36.7367 18.0413 38.504 18.9369 41.0525H6.73899C7.63458 38.504 10.0662 36.7367 12.8353 36.7341ZM9.55599 31.9533C9.55599 30.1435 11.0282 28.6713 12.838 28.6713C14.6477 28.6713 16.12 30.1435 16.12 31.9533C16.12 33.763 14.6504 35.2326 12.8407 35.2353H12.8354C11.0283 35.2327 9.55608 33.763 9.55608 31.9533H9.55599ZM24.0605 35.3336H24.0685C26.152 35.3336 28.06 36.3116 29.2771 37.9699C28.5118 38.8442 27.9377 39.8913 27.6136 41.0526H20.5101C20.1927 39.9159 19.6252 38.8644 18.8491 37.9752C20.0636 36.3116 21.9743 35.3337 24.0604 35.3337L24.0605 35.3336ZM20.7812 30.5502C20.7812 28.7378 22.2535 27.2656 24.0659 27.2656C25.8782 27.2656 27.3479 28.7379 27.3479 30.5502C27.3479 32.3626 25.8782 33.8295 24.0686 33.8322H24.0606C22.2509 33.8296 20.7812 32.3574 20.7812 30.5502ZM35.2858 36.7316H35.2937C38.0628 36.7342 40.4944 38.5041 41.3874 41.0526H29.1869C30.0797 38.5041 32.5113 36.7342 35.2858 36.7316ZM32.0038 31.9481C32.0038 30.1384 33.4734 28.6661 35.2858 28.6661C37.0981 28.6661 38.5704 30.1384 38.5704 31.9481C38.5704 33.7579 37.1008 35.2301 35.2937 35.2328H35.2858C33.4734 35.2301 32.0038 33.7579 32.0038 31.9481ZM3.04777 47.1833H45.0811C45.8412 47.1833 46.4604 46.5667 46.4604 45.8066V43.375C46.4604 42.0941 45.4134 41.0524 44.1325 41.0524H42.9631C42.2748 38.5995 40.4625 36.6649 38.1585 35.772C39.3171 34.8977 40.0718 33.5079 40.0718 31.9479C40.0718 29.3116 37.9272 27.1645 35.2857 27.1645C32.6442 27.1645 30.5022 29.3117 30.5022 31.9479C30.5022 33.5078 31.257 34.8976 32.4129 35.772C31.6795 36.0564 30.9858 36.4497 30.3746 36.9333C29.4737 35.7614 28.2885 34.8818 26.9464 34.3662C28.0997 33.4919 28.8492 32.1073 28.8492 30.55C28.8492 27.9112 26.7019 25.7639 24.0657 25.7639C21.4294 25.7639 19.2796 27.9112 19.2796 30.55C19.2796 32.1073 20.029 33.4918 21.1823 34.3662C19.8376 34.8844 18.6497 35.7641 17.7515 36.936C17.1328 36.4495 16.4449 36.0581 15.7106 35.7747C16.8692 34.9004 17.6187 33.5132 17.6187 31.9533C17.6187 29.317 15.4741 27.1725 12.8379 27.1725C10.2016 27.1725 8.05711 29.317 8.05711 31.9533C8.05711 33.5132 8.80655 34.9004 9.96521 35.7747C7.66646 36.6676 5.85146 38.6023 5.16839 41.0525H3.99642C2.71552 41.0525 1.67114 42.0942 1.67114 43.3751V45.8067C1.67114 46.5668 2.28764 47.1834 3.04767 47.1834L3.04777 47.1833Z" fill="#030403"></path><path d="M3.17255 13.909C3.17255 11.8547 4.84149 10.1832 6.89564 10.1832C8.67614 10.1832 10.2149 11.4535 10.5524 13.2021L10.7437 14.1881L15.171 11.8921H15.1737L15.5643 11.6874C16.4068 11.2516 16.8452 12.0408 16.893 12.1312C16.9675 12.2774 17.2996 13.0188 16.4759 13.4466L10.6215 16.4815L8.79577 17.4275C8.56721 17.5471 8.28549 17.5657 8.02514 17.4834C7.7753 17.401 7.57871 17.2363 7.46705 17.013C7.35811 16.7977 7.32624 16.5638 7.37405 16.3406C7.4618 15.9366 7.20661 15.5354 6.80274 15.4477C6.39614 15.3601 5.99752 15.6178 5.90986 16.0217C5.78761 16.5745 5.86467 17.1645 6.12511 17.6853C6.41742 18.2673 6.9277 18.7031 7.56277 18.9104C7.81612 18.9917 8.08062 19.0329 8.3467 19.0326C8.74261 19.0326 9.13599 18.9396 9.4867 18.7589L10.6215 18.1715V25.1315C10.6215 25.2856 10.4912 25.4131 10.3371 25.4131H3.45689C3.30277 25.4131 3.17255 25.2856 3.17255 25.1315V13.909ZM3.9698 5.75583C3.9698 4.14277 5.28258 2.82999 6.89564 2.82999C8.50871 2.82999 9.82421 4.14277 9.82421 5.75583C9.82421 7.3689 8.51142 8.6844 6.89564 8.6844C5.27986 8.6844 3.9698 7.36899 3.9698 5.75583ZM15.5644 5.03836C15.5644 3.46515 16.8453 2.18424 18.4212 2.18424H42.0993C43.6725 2.18424 44.9588 3.46515 44.9588 5.03836V17.2601C44.9588 18.836 43.6725 20.1169 42.0993 20.1169H18.4212C16.8453 20.1169 15.5644 18.836 15.5644 17.2601V15.6072L17.1669 14.7781C18.3309 14.1748 18.6737 13.0826 18.4637 12.1099L23.2764 6.48671C23.5448 6.17049 23.5076 5.69743 23.194 5.42902C22.8778 5.1579 22.4047 5.19511 22.1363 5.51133L17.6771 10.7226C17.1403 10.2256 16.3856 9.93868 15.5644 10.1087V5.03836ZM3.45689 26.9147H10.3371C11.323 26.9147 12.1203 26.1148 12.1203 25.1315V17.3929L14.0656 16.3857V17.26C14.0656 19.6623 16.0189 21.6182 18.4213 21.6182H42.0994C44.4991 21.6182 46.4603 19.6623 46.4603 17.26V5.03836C46.4603 2.63865 44.4991 0.682739 42.0994 0.682739H18.4212C16.0188 0.682739 14.0655 2.63865 14.0655 5.03836V10.7759L11.7509 11.9771C11.3044 10.8556 10.4859 9.93877 9.4628 9.35949C10.587 8.5569 11.3231 7.24149 11.3231 5.75593C11.3231 3.31636 9.33792 1.32858 6.89574 1.32858C4.45355 1.32858 2.47102 3.31627 2.47102 5.75583C2.47102 7.2414 3.20442 8.5568 4.32858 9.3594C2.74467 10.2576 1.67114 11.9611 1.67114 13.909V25.1315C1.67114 26.1148 2.47364 26.9147 3.45689 26.9147Z" fill="#030403"></path><path d="M24.2039 13.9488H32.8912C33.3084 13.9488 33.6459 13.6141 33.6459 13.1994C33.6459 12.7847 33.3084 12.45 32.8912 12.45H24.2039C23.7893 12.45 23.4545 12.7848 23.4545 13.1994C23.4545 13.614 23.7893 13.9488 24.2039 13.9488ZM25.6415 5.75321H32.474C32.8859 5.75321 33.2234 5.41571 33.2234 5.00377C33.2234 4.58921 32.8859 4.25171 32.474 4.25171H25.6415C25.227 4.25171 24.8895 4.58921 24.8895 5.00377C24.8895 5.41571 25.227 5.75321 25.6415 5.75321ZM38.852 16.5479H28.3522C27.9377 16.5479 27.6028 16.8854 27.6028 17.2999C27.6028 17.7119 27.9377 18.0494 28.3522 18.0494H38.852C39.2691 18.0494 39.604 17.7119 39.604 17.2999C39.6041 17.2011 39.5847 17.1033 39.5469 17.012C39.5092 16.9207 39.4538 16.8378 39.3839 16.7679C39.3141 16.6981 39.2311 16.6427 39.1399 16.6049C39.0486 16.5672 38.9507 16.5478 38.852 16.5479ZM35.8756 5.75321H38.852C39.2691 5.75321 39.604 5.41571 39.604 5.00115C39.604 4.58921 39.2691 4.25171 38.852 4.25171H35.8756C35.4636 4.25171 35.1289 4.58921 35.1289 5.00115C35.1289 5.41571 35.4637 5.75321 35.8756 5.75321ZM25.0436 16.5479H22.1523C21.7377 16.5479 21.4028 16.8854 21.4028 17.2999C21.4028 17.7119 21.7377 18.0494 22.1523 18.0494H25.0436C25.4555 18.0494 25.7931 17.7119 25.7931 17.2999C25.7931 16.8854 25.4555 16.5479 25.0436 16.5479ZM38.7722 13.9488C39.1814 13.9488 39.5189 13.6141 39.5189 13.1994C39.5189 12.7847 39.1814 12.45 38.7722 12.45H36.027C35.6178 12.45 35.2803 12.7848 35.2803 13.1994C35.2803 13.614 35.6178 13.9488 36.027 13.9488H38.7722Z" fill="#030403"></path></svg>