<svg xmlns="http://www.w3.org/2000/svg" width="48" height="48" viewBox="0 0 48 48" fill="none"><g clip-path="url(#clip0_734_264)"><path d="M30 12C30 5.382 24.618 0 18 0C11.382 0 6.00005 5.382 6.00005 12C6.00005 18.618 11.382 24 18 24C24.618 24 30 18.618 30 12ZM18 18C14.692 18 12 15.308 12 12C12 8.692 14.692 6 18 6C21.308 6 24 8.692 24 12C24 15.308 21.308 18 18 18ZM17.976 30.628C18.0248 31.0189 17.996 31.4157 17.8914 31.7955C17.7868 32.1753 17.6084 32.5308 17.3665 32.8417C17.1245 33.1526 16.8236 33.4128 16.4811 33.6074C16.1385 33.802 15.761 33.9273 15.37 33.976C10.116 34.632 5.99805 39.474 5.99805 45C5.99805 45.394 5.92045 45.7841 5.76969 46.1481C5.61892 46.512 5.39794 46.8427 5.11937 47.1213C4.84079 47.3999 4.51007 47.6209 4.1461 47.7716C3.78212 47.9224 3.39201 48 2.99805 48C2.60408 48 2.21397 47.9224 1.85 47.7716C1.48602 47.6209 1.1553 47.3999 0.876727 47.1213C0.598151 46.8427 0.377172 46.512 0.226408 46.1481C0.0756442 45.7841 -0.00195313 45.394 -0.00195312 45C-0.00195312 36.502 6.42405 29.046 14.626 28.024C15.017 27.9753 15.4137 28.004 15.7935 28.1086C16.1734 28.2132 16.5289 28.3916 16.8398 28.6336C17.1507 28.8756 17.4108 29.1764 17.6055 29.519C17.8001 29.8615 17.9253 30.2391 17.974 30.63L17.976 30.628ZM46 36.996L44.724 36.244C44.892 35.52 45 34.774 45 33.998C45 33.222 44.892 32.478 44.724 31.752L46 31C46.3395 30.8 46.6363 30.5351 46.8734 30.2204C47.1104 29.9057 47.2832 29.5474 47.3818 29.1659C47.4805 28.7845 47.503 28.3873 47.4481 27.9972C47.3932 27.607 47.262 27.2315 47.062 26.892C46.862 26.5525 46.5971 26.2558 46.2824 26.0187C45.9678 25.7816 45.6095 25.6088 45.228 25.5102C44.8465 25.4116 44.4494 25.3891 44.0592 25.4439C43.6691 25.4988 43.2935 25.63 42.954 25.83L41.658 26.594C40.6008 25.6455 39.3529 24.9342 37.998 24.508V22.998C37.998 22.2023 37.682 21.4393 37.1194 20.8767C36.5568 20.3141 35.7937 19.998 34.998 19.998C34.2024 19.998 33.4393 20.3141 32.8767 20.8767C32.3141 21.4393 31.998 22.2023 31.998 22.998V24.508C30.6432 24.9342 29.3953 25.6455 28.338 26.594L27.042 25.83C26.3565 25.4261 25.5385 25.311 24.7681 25.5102C23.9977 25.7094 23.338 26.2064 22.934 26.892C22.5301 27.5776 22.4151 28.3955 22.6143 29.1659C22.8134 29.9363 23.3105 30.5961 23.996 31L25.272 31.752C25.104 32.476 24.996 33.222 24.996 33.998C24.996 34.774 25.104 35.518 25.272 36.244L23.996 36.996C23.3105 37.3999 22.8134 38.0597 22.6143 38.8301C22.4151 39.6005 22.5301 40.4184 22.934 41.104C23.338 41.7896 23.9977 42.2866 24.7681 42.4858C25.5385 42.685 26.3565 42.5699 27.042 42.166L28.338 41.402C29.3953 42.3505 30.6432 43.0617 31.998 43.488V44.998C31.998 45.7937 32.3141 46.5567 32.8767 47.1193C33.4393 47.6819 34.2024 47.998 34.998 47.998C35.7937 47.998 36.5568 47.6819 37.1194 47.1193C37.682 46.5567 37.998 45.7937 37.998 44.998V43.488C39.3529 43.0617 40.6008 42.3505 41.658 41.402L42.954 42.166C43.6396 42.5699 44.4576 42.685 45.228 42.4858C45.9984 42.2866 46.6581 41.7896 47.062 41.104C47.466 40.4184 47.581 39.6005 47.3818 38.8301C47.1827 38.0597 46.6856 37.3999 46 36.996ZM35 36.998C33.346 36.998 32 35.652 32 33.998C32 32.344 33.346 30.998 35 30.998C36.654 30.998 38 32.344 38 33.998C38 35.652 36.654 36.998 35 36.998Z" fill="#40556D"></path></g><defs><clipPath id="clip0_734_264"><rect width="48" height="48" fill="white"></rect></clipPath></defs></svg>