<svg xmlns="http://www.w3.org/2000/svg" width="24" height="24" viewBox="0 0 24 24" fill="none"><path d="M11.5001 2.5L12.5001 2.50001C16.7427 2.50006 18.864 2.50008 20.182 3.8181C21.5 5.13611 21.5 7.25741 21.5 11.5V12.5001C21.5 16.7427 21.5 18.8641 20.182 20.1821C18.864 21.5001 16.7426 21.5001 12.5 21.5001H11.5C7.25736 21.5001 5.13604 21.5001 3.81802 20.1821C2.5 18.8641 2.5 16.7427 2.5 12.5001V11.5C2.5 7.25732 2.5 5.13598 3.81804 3.81795C5.13607 2.49993 7.25741 2.49995 11.5001 2.5Z" stroke="#102A49" stroke-width="1.5" stroke-linecap="round" stroke-linejoin="round"></path><path d="M12 7.39502C13.933 7.39502 15.5 8.96202 15.5 10.895C15.5 12.828 13.933 14.395 12 14.395C10.067 14.395 8.5 12.828 8.5 10.895C8.5 8.96202 10.067 7.39502 12 7.39502Z" stroke="#102A49" stroke-width="1.5" stroke-linecap="round" stroke-linejoin="round"></path><path d="M18.9824 20.895C18.726 17.2624 15.6979 14.395 12 14.395C8.30212 14.395 5.27395 17.2624 5.01758 20.895" stroke="#102A49" stroke-width="1.5" stroke-linecap="round" stroke-linejoin="round"></path></svg>