<svg width="18" height="18" viewBox="0 0 18 18" fill="none" xmlns="http://www.w3.org/2000/svg">
<rect width="18" height="18" rx="9" fill="#F8F8F8"/>
<path d="M8.99896 15.2997C8.12738 15.2997 7.31134 15.1352 6.55084 14.8062C5.79462 14.4815 5.12598 14.0286 4.54492 13.4476C3.96814 12.8708 3.51526 12.2043 3.18628 11.4481C2.86157 10.6876 2.69922 9.87152 2.69922 8.99994C2.69922 8.12836 2.86157 7.31232 3.18628 6.55182C3.51526 5.79132 3.96814 5.12268 4.54492 4.5459C5.12598 3.96912 5.79462 3.51837 6.55084 3.19366C7.31134 2.86469 8.12738 2.7002 8.99896 2.7002C9.87054 2.7002 10.6866 2.86469 11.4471 3.19366C12.2076 3.51837 12.8762 3.96912 13.453 4.5459C14.0298 5.12268 14.4805 5.79132 14.8052 6.55182C15.1342 7.31232 15.2987 8.12836 15.2987 8.99994C15.2987 9.87152 15.1342 10.6876 14.8052 11.4481C14.4805 12.2043 14.0298 12.8708 13.453 13.4476C12.8762 14.0286 12.2076 14.4815 11.4471 14.8062C10.6866 15.1352 9.87054 15.2997 8.99896 15.2997ZM8.99896 13.9731C9.68683 13.9731 10.3298 13.8428 10.928 13.5822C11.5304 13.3258 12.0602 12.9712 12.5173 12.5183C12.9745 12.0612 13.3312 11.5335 13.5876 10.9354C13.8439 10.3329 13.9721 9.68781 13.9721 8.99994C13.9721 8.31207 13.8439 7.66907 13.5876 7.07092C13.3312 6.46851 12.9745 5.94086 12.5173 5.48798C12.0602 5.03082 11.5304 4.67407 10.928 4.41772C10.3298 4.1571 9.68683 4.02679 8.99896 4.02679C8.3111 4.02679 7.66596 4.1571 7.06354 4.41772C6.46539 4.67407 5.93774 5.03082 5.48059 5.48798C5.02344 5.94086 4.66669 6.46851 4.41034 7.07092C4.15399 7.66907 4.02582 8.31207 4.02582 8.99994C4.02582 9.68781 4.15399 10.3329 4.41034 10.9354C4.66669 11.5335 5.02344 12.0612 5.48059 12.5183C5.93774 12.9712 6.46539 13.3258 7.06354 13.5822C7.66596 13.8428 8.3111 13.9731 8.99896 13.9731ZM7.93512 12.3004C7.7984 12.3004 7.68091 12.2556 7.58264 12.1658C7.48865 12.0761 7.44165 11.9608 7.44165 11.8198C7.44165 11.6916 7.48865 11.5826 7.58264 11.4929C7.68091 11.3989 7.7984 11.3519 7.93512 11.3519H8.64008V8.92304H8.04407C7.90308 8.92304 7.78558 8.87817 7.69159 8.78845C7.5976 8.69873 7.5506 8.58337 7.5506 8.44238C7.5506 8.30994 7.5976 8.19885 7.69159 8.10913C7.78558 8.01514 7.90308 7.96814 8.04407 7.96814H9.18481C9.35999 7.96814 9.49243 8.02368 9.58215 8.13477C9.67615 8.24585 9.72315 8.39752 9.72315 8.58978V11.3519H10.364C10.5007 11.3519 10.6161 11.3989 10.7101 11.4929C10.8084 11.5826 10.8575 11.6916 10.8575 11.8198C10.8575 11.9608 10.8084 12.0761 10.7101 12.1658C10.6161 12.2556 10.5007 12.3004 10.364 12.3004H7.93512ZM8.96692 7.05811C8.73621 7.05811 8.53967 6.97693 8.37732 6.81458C8.21497 6.65222 8.13379 6.45782 8.13379 6.23138C8.13379 5.9964 8.21497 5.79773 8.37732 5.63538C8.53967 5.47302 8.73621 5.39185 8.96692 5.39185C9.19763 5.39185 9.39203 5.47302 9.55011 5.63538C9.71246 5.79773 9.79364 5.9964 9.79364 6.23138C9.79364 6.45782 9.71246 6.65222 9.55011 6.81458C9.39203 6.97693 9.19763 7.05811 8.96692 7.05811Z" fill="#5C5C5C"/>
</svg>
