<svg width="18" height="18" viewBox="0 0 18 18" fill="none" xmlns="http://www.w3.org/2000/svg">
    <path d="M9.00092 15.2997C8.12933 15.2997 7.31329 15.1352 6.5528 14.8062C5.79657 14.4815 5.12793 14.0286 4.54688 13.4476C3.97009 12.8708 3.51721 12.2043 3.18823 11.4481C2.86353 10.6876 2.70117 9.87152 2.70117 8.99994C2.70117 8.12836 2.86353 7.31232 3.18823 6.55182C3.51721 5.79132 3.97009 5.12268 4.54688 4.5459C5.12793 3.96912 5.79657 3.51837 6.5528 3.19366C7.31329 2.86469 8.12933 2.7002 9.00092 2.7002C9.8725 2.7002 10.6885 2.86469 11.449 3.19366C12.2095 3.51837 12.8782 3.96912 13.455 4.5459C14.0317 5.12268 14.4825 5.79132 14.8072 6.55182C15.1362 7.31232 15.3007 8.12836 15.3007 8.99994C15.3007 9.87152 15.1362 10.6876 14.8072 11.4481C14.4825 12.2043 14.0317 12.8708 13.455 13.4476C12.8782 14.0286 12.2095 14.4815 11.449 14.8062C10.6885 15.1352 9.8725 15.2997 9.00092 15.2997ZM9.00092 13.9731C9.68878 13.9731 10.3318 13.8428 10.9299 13.5822C11.5323 13.3258 12.0621 12.9712 12.5193 12.5183C12.9764 12.0612 13.3332 11.5335 13.5895 10.9354C13.8459 10.3329 13.9741 9.68781 13.9741 8.99994C13.9741 8.31207 13.8459 7.66907 13.5895 7.07092C13.3332 6.46851 12.9764 5.94086 12.5193 5.48798C12.0621 5.03082 11.5323 4.67407 10.9299 4.41772C10.3318 4.1571 9.68878 4.02679 9.00092 4.02679C8.31305 4.02679 7.66791 4.1571 7.06549 4.41772C6.46735 4.67407 5.9397 5.03082 5.48254 5.48798C5.02539 5.94086 4.66864 6.46851 4.41229 7.07092C4.15594 7.66907 4.02777 8.31207 4.02777 8.99994C4.02777 9.68781 4.15594 10.3329 4.41229 10.9354C4.66864 11.5335 5.02539 12.0612 5.48254 12.5183C5.9397 12.9712 6.46735 13.3258 7.06549 13.5822C7.66791 13.8428 8.31305 13.9731 9.00092 13.9731ZM7.93707 12.3004C7.80035 12.3004 7.68286 12.2556 7.5846 12.1658C7.4906 12.0761 7.4436 11.9608 7.4436 11.8198C7.4436 11.6916 7.4906 11.5826 7.5846 11.4929C7.68286 11.3989 7.80035 11.3519 7.93707 11.3519H8.64203V8.92304H8.04602C7.90503 8.92304 7.78754 8.87817 7.69354 8.78845C7.59955 8.69873 7.55255 8.58337 7.55255 8.44238C7.55255 8.30994 7.59955 8.19885 7.69354 8.10913C7.78754 8.01514 7.90503 7.96814 8.04602 7.96814H9.18677C9.36194 7.96814 9.49439 8.02368 9.58411 8.13477C9.6781 8.24585 9.7251 8.39752 9.7251 8.58978V11.3519H10.366C10.5027 11.3519 10.618 11.3989 10.712 11.4929C10.8103 11.5826 10.8594 11.6916 10.8594 11.8198C10.8594 11.9608 10.8103 12.0761 10.712 12.1658C10.618 12.2556 10.5027 12.3004 10.366 12.3004H7.93707ZM8.96887 7.05811C8.73816 7.05811 8.54163 6.97693 8.37927 6.81458C8.21692 6.65222 8.13574 6.45782 8.13574 6.23138C8.13574 5.9964 8.21692 5.79773 8.37927 5.63538C8.54163 5.47302 8.73816 5.39185 8.96887 5.39185C9.19959 5.39185 9.39398 5.47302 9.55206 5.63538C9.71442 5.79773 9.79559 5.9964 9.79559 6.23138C9.79559 6.45782 9.71442 6.65222 9.55206 6.81458C9.39398 6.97693 9.19959 7.05811 8.96887 7.05811Z" fill="#666666"/>
</svg>
