<svg width="16" height="16" viewBox="0 0 16 16" fill="none" xmlns="http://www.w3.org/2000/svg">
    <g clip-path="url(#clip0_13870_4556)">
        <g>
            <animateTransform attributeName="transform" attributeType="XML" type="rotate" from="0 8 8" to="360 8 8" dur="0.9s" repeatCount="indefinite"/>
            <path opacity="0.6" d="M9 13C9 12.4477 8.55228 12 8 12C7.44772 12 7 12.4477 7 13V15C7 15.5523 7.44772 16 8 16C8.55228 16 9 15.5523 9 15V13Z" fill="#1A1A1A"/>
            <path d="M9 1C9 0.447715 8.55228 0 8 0C7.44772 0 7 0.447715 7 1V3C7 3.55228 7.44772 4 8 4C8.55228 4 9 3.55228 9 3V1Z" fill="#1A1A1A"/>
            <path opacity="0.8" d="M15 7H13C12.4477 7 12 7.44772 12 8C12 8.55228 12.4477 9 13 9H15C15.5523 9 16 8.55228 16 8C16 7.44772 15.5523 7 15 7Z" fill="#1A1A1A"/>
            <path opacity="0.3" d="M3 7H1C0.447715 7 0 7.44772 0 8C0 8.55228 0.447715 9 1 9H3C3.55228 9 4 8.55228 4 8C4 7.44772 3.55228 7 3 7Z" fill="#1A1A1A"/>
            <path opacity="0.4" d="M3.75413 10.822L2.33992 12.2363C1.94939 12.6268 1.94939 13.2599 2.33992 13.6505C2.73044 14.041 3.36361 14.041 3.75413 13.6505L5.16835 12.2363C5.55887 11.8457 5.55887 11.2126 5.16835 10.822C4.77782 10.4315 4.14466 10.4315 3.75413 10.822Z" fill="#1A1A1A"/>
            <path opacity="0.9" d="M12.2434 2.3495L10.8292 3.76372C10.4387 4.15424 10.4387 4.78741 10.8292 5.17793C11.2197 5.56846 11.8529 5.56846 12.2434 5.17793L13.6576 3.76372C14.0481 3.37319 14.0481 2.74003 13.6576 2.3495C13.2671 1.95898 12.6339 1.95898 12.2434 2.3495Z" fill="#1A1A1A"/>
            <path opacity="0.7" d="M12.2405 10.8257C11.8499 10.4352 11.2168 10.4352 10.8262 10.8257C10.4357 11.2163 10.4357 11.8494 10.8262 12.2399L12.2405 13.6542C12.631 14.0447 13.2642 14.0447 13.6547 13.6542C14.0452 13.2636 14.0452 12.6305 13.6547 12.2399L12.2405 10.8257Z" fill="#1A1A1A"/>
            <path opacity="0.2" d="M3.75706 2.34575C3.36654 1.95523 2.73337 1.95523 2.34285 2.34575C1.95232 2.73627 1.95232 3.36944 2.34285 3.75996L3.75706 5.17418C4.14759 5.5647 4.78075 5.5647 5.17128 5.17418C5.5618 4.78365 5.5618 4.15049 5.17128 3.75996L3.75706 2.34575Z" fill="#1A1A1A"/>
        </g>
    </g>
    <defs>
        <clipPath id="clip0_13870_4556">
            <rect width="16" height="16" fill="white"/>
        </clipPath>
    </defs>
</svg>
