<svg xmlns="http://www.w3.org/2000/svg" width="15" height="15" viewBox="0 0 15 15" fill="none">
    <path d="M7.2 0C3.24 0 0 3.24 0 7.2C0 11.16 3.24 14.4 7.2 14.4C11.16 14.4 14.4 11.16 14.4 7.2C14.4 3.24 11.16 0 7.2 0ZM7.2 12.96C6.048 12.96 5.04 11.952 5.04 10.8C5.04 9.648 6.048 8.64 7.2 8.64C8.352 8.64 9.36 9.648 9.36 10.8C9.36 11.952 8.352 12.96 7.2 12.96ZM11.088 9.792C11.016 10.08 10.944 10.368 10.8 10.656C10.728 9.72 10.368 8.928 9.72 8.28C9.072 7.56 8.136 7.2 7.2 7.2C6.48 7.2 5.76 7.416 5.184 7.776C4.608 8.136 4.104 8.712 3.888 9.36C3.744 9.792 3.6 10.224 3.6 10.656C3.384 10.152 3.24 9.576 3.24 9C3.24 7.92 3.672 6.912 4.392 6.192C5.112 5.472 6.12 5.04 7.2 5.04C7.992 5.04 8.784 5.256 9.432 5.688C10.08 6.12 10.584 6.768 10.872 7.488C11.16 8.208 11.232 9 11.088 9.792ZM12.528 9.216C12.528 9.144 12.528 9.072 12.528 9C12.528 7.56 11.952 6.192 10.944 5.184C9.936 4.176 8.64 3.6 7.2 3.6C6.12 3.6 5.112 3.888 4.176 4.536C3.312 5.112 2.592 5.976 2.16 6.984C1.872 7.704 1.728 8.496 1.728 9.288C1.584 8.568 1.44 7.92 1.44 7.2C1.44 5.688 2.016 4.176 3.096 3.096C4.176 2.016 5.688 1.44 7.2 1.44C8.352 1.44 9.432 1.8 10.368 2.376C11.304 3.024 12.024 3.888 12.456 4.968C12.96 6.048 13.104 7.2 12.816 8.352C12.744 8.64 12.672 8.928 12.528 9.216Z" fill="#CCCCCC"/>
</svg>
