<svg xmlns="http://www.w3.org/2000/svg" width="20" height="21" viewBox="0 0 20 21" fill="none"><path d="M17.7481 15.0228C16.9396 16.0042 15.8982 16.7675 14.7191 17.2433C13.5399 17.719 12.2604 17.892 10.9972 17.7465C9.73403 17.601 8.52736 17.1416 7.48723 16.4102C6.44709 15.6789 5.60658 14.6988 5.04232 13.5593H12.288C12.6252 13.5593 12.9485 13.4254 13.1869 13.187C13.4253 12.9486 13.5592 12.6252 13.5592 12.2881C13.5592 11.951 13.4253 11.6276 13.1869 11.3892C12.9485 11.1509 12.6252 11.0169 12.288 11.0169H4.28725C4.22055 10.4539 4.22055 9.88503 4.28725 9.32203H12.288C12.6252 9.32203 12.9485 9.1881 13.1869 8.94971C13.4253 8.71132 13.5592 8.38799 13.5592 8.05085C13.5592 7.71372 13.4253 7.39039 13.1869 7.152C12.9485 6.91361 12.6252 6.77968 12.288 6.77968H5.04232C5.60658 5.6402 6.44709 4.6601 7.48723 3.92872C8.52736 3.19734 9.73403 2.73796 10.9972 2.59245C12.2604 2.44695 13.5399 2.61996 14.7191 3.0957C15.8982 3.57144 16.9396 4.33479 17.7481 5.31613C17.9628 5.57618 18.2719 5.74031 18.6076 5.77241C18.9432 5.80451 19.2779 5.70196 19.5379 5.48732C19.798 5.27268 19.9621 4.96352 19.9942 4.62787C20.0263 4.29221 19.9238 3.95755 19.7091 3.69751C18.5645 2.30896 17.0716 1.24933 15.3832 0.626975C13.6947 0.00462017 11.8713 -0.158127 10.0993 0.155378C8.3273 0.468882 6.67037 1.24739 5.29795 2.41128C3.92552 3.57518 2.88683 5.0827 2.28811 6.77968H1.27117C0.934038 6.77968 0.61071 6.91361 0.372318 7.152C0.133927 7.39039 0 7.71372 0 8.05085C0 8.38799 0.133927 8.71132 0.372318 8.94971C0.61071 9.1881 0.934038 9.32203 1.27117 9.32203H1.73812C1.71439 9.60254 1.6949 9.88304 1.6949 10.1695C1.6949 10.4559 1.71439 10.7364 1.73812 11.0169H1.27117C0.934038 11.0169 0.61071 11.1509 0.372318 11.3892C0.133927 11.6276 0 11.951 0 12.2881C0 12.6252 0.133927 12.9486 0.372318 13.187C0.61071 13.4254 0.934038 13.5593 1.27117 13.5593H2.28811C2.88683 15.2563 3.92552 16.7638 5.29795 17.9277C6.67037 19.0916 8.3273 19.8701 10.0993 20.1836C11.8713 20.4971 13.6947 20.3343 15.3832 19.712C17.0716 19.0896 18.5645 18.03 19.7091 16.6415C19.8154 16.5127 19.8953 16.3643 19.9442 16.2046C19.9931 16.045 20.0101 15.8773 19.9942 15.7111C19.9783 15.5449 19.9299 15.3835 19.8516 15.236C19.7733 15.0885 19.6667 14.9579 19.5379 14.8516C19.4092 14.7454 19.2608 14.6655 19.1011 14.6166C18.9415 14.5676 18.7738 14.5507 18.6076 14.5665C18.4414 14.5824 18.2799 14.6309 18.1325 14.7092C17.985 14.7875 17.8544 14.8941 17.7481 15.0228Z" fill="#102A49"></path></svg>