<svg xmlns="http://www.w3.org/2000/svg" width="20" height="18" viewBox="0 0 20 18" fill="none"><path d="M19.4177 2.34391C19.4165 2.34391 19.4153 2.34375 19.4141 2.34375H14.1016V1.75781C14.1016 0.788555 13.313 0 12.3438 0H7.65625C6.68699 0 5.89844 0.788594 5.89844 1.75781V2.34375H0.585938C0.259687 2.34375 0 2.61109 0 2.92969V15.8203C0 16.7896 0.788594 17.5781 1.75781 17.5781H18.2422C19.2114 17.5781 20 16.7895 20 15.8203V2.93977C19.9776 2.55492 19.7409 2.34602 19.4177 2.34391ZM7.07031 1.75781C7.07031 1.43477 7.3332 1.17188 7.65625 1.17188H12.3438C12.6668 1.17188 12.9297 1.43477 12.9297 1.75781V2.34375H7.07031V1.75781ZM18.6011 3.51562L16.7814 8.9743C16.7427 9.09102 16.6682 9.19257 16.5684 9.2645C16.4687 9.33644 16.3488 9.3751 16.2258 9.375H12.9297V8.78906C12.9297 8.46543 12.6674 8.20312 12.3438 8.20312H7.65625C7.33262 8.20312 7.07031 8.46543 7.07031 8.78906V9.375H3.77426C3.65127 9.37511 3.53137 9.33645 3.43161 9.26451C3.33185 9.19258 3.2573 9.09103 3.21855 8.9743L1.39895 3.51562H18.6011ZM11.7578 9.375V10.5469H8.24219V9.375H11.7578ZM18.8281 15.8203C18.8281 16.1434 18.5652 16.4062 18.2422 16.4062H1.75781C1.43477 16.4062 1.17188 16.1434 1.17188 15.8203V6.54039L2.1068 9.34492C2.22312 9.6951 2.44684 9.99972 2.74617 10.2155C3.0455 10.4313 3.40522 10.5472 3.77422 10.5469H7.07031V11.1328C7.07031 11.4564 7.33262 11.7188 7.65625 11.7188H12.3438C12.6674 11.7188 12.9297 11.4564 12.9297 11.1328V10.5469H16.2257C16.5947 10.5472 16.9545 10.4313 17.2538 10.2155C17.5532 9.99973 17.7769 9.69511 17.8932 9.34492L18.8281 6.54039V15.8203Z" fill="#102A49"></path></svg>